G75*
%MOIN*%
%OFA0B0*%
%FSLAX24Y24*%
%IPPOS*%
%LPD*%
%AMOC8*
5,1,8,0,0,1.08239X$1,22.5*
%
%ADD10C,0.0080*%
%ADD11C,0.0160*%
%ADD12C,0.0100*%
%ADD13C,0.0050*%
%ADD14C,0.0040*%
%ADD15C,0.0060*%
%ADD16C,0.0120*%
%ADD17C,0.0020*%
%ADD18C,0.0030*%
%ADD19C,0.0020*%
%ADD20C,0.0000*%
%ADD21C,0.0010*%
%ADD22R,0.3254X0.0013*%
%ADD23R,0.3449X0.0013*%
%ADD24R,0.3540X0.0013*%
%ADD25R,0.3618X0.0013*%
%ADD26R,0.3669X0.0013*%
%ADD27R,0.3721X0.0013*%
%ADD28R,0.3760X0.0013*%
%ADD29R,0.3812X0.0013*%
%ADD30R,0.3838X0.0013*%
%ADD31R,0.3864X0.0013*%
%ADD32R,0.3903X0.0013*%
%ADD33R,0.3942X0.0013*%
%ADD34R,0.3955X0.0013*%
%ADD35R,0.3981X0.0013*%
%ADD36R,0.4007X0.0013*%
%ADD37R,0.4020X0.0013*%
%ADD38R,0.4045X0.0013*%
%ADD39R,0.4071X0.0013*%
%ADD40R,0.4084X0.0013*%
%ADD41R,0.4097X0.0013*%
%ADD42R,0.4110X0.0013*%
%ADD43R,0.4123X0.0013*%
%ADD44R,0.4136X0.0013*%
%ADD45R,0.4149X0.0013*%
%ADD46R,0.4162X0.0013*%
%ADD47R,0.4175X0.0013*%
%ADD48R,0.4175X0.0013*%
%ADD49R,0.4188X0.0013*%
%ADD50R,0.4201X0.0013*%
%ADD51R,0.4201X0.0013*%
%ADD52R,0.4214X0.0013*%
%ADD53R,0.4227X0.0013*%
%ADD54R,0.4227X0.0013*%
%ADD55R,0.0674X0.0013*%
%ADD56R,0.0220X0.0013*%
%ADD57R,0.0182X0.0013*%
%ADD58R,0.0415X0.0013*%
%ADD59R,0.0194X0.0013*%
%ADD60R,0.0363X0.0013*%
%ADD61R,0.0765X0.0013*%
%ADD62R,0.0350X0.0013*%
%ADD63R,0.0959X0.0013*%
%ADD64R,0.0428X0.0013*%
%ADD65R,0.0156X0.0013*%
%ADD66R,0.0130X0.0013*%
%ADD67R,0.0363X0.0013*%
%ADD68R,0.0143X0.0013*%
%ADD69R,0.0311X0.0013*%
%ADD70R,0.0169X0.0013*%
%ADD71R,0.0298X0.0013*%
%ADD72R,0.0350X0.0013*%
%ADD73R,0.0493X0.0013*%
%ADD74R,0.0415X0.0013*%
%ADD75R,0.0130X0.0013*%
%ADD76R,0.0130X0.0013*%
%ADD77R,0.0104X0.0013*%
%ADD78R,0.0337X0.0013*%
%ADD79R,0.0117X0.0013*%
%ADD80R,0.0285X0.0013*%
%ADD81R,0.0272X0.0013*%
%ADD82R,0.0324X0.0013*%
%ADD83R,0.0493X0.0013*%
%ADD84R,0.0402X0.0013*%
%ADD85R,0.0117X0.0013*%
%ADD86R,0.0117X0.0013*%
%ADD87R,0.0091X0.0013*%
%ADD88R,0.0324X0.0013*%
%ADD89R,0.0259X0.0013*%
%ADD90R,0.0104X0.0013*%
%ADD91R,0.0493X0.0013*%
%ADD92R,0.0402X0.0013*%
%ADD93R,0.0117X0.0013*%
%ADD94R,0.0104X0.0013*%
%ADD95R,0.0078X0.0013*%
%ADD96R,0.0091X0.0013*%
%ADD97R,0.0246X0.0013*%
%ADD98R,0.0104X0.0013*%
%ADD99R,0.0246X0.0013*%
%ADD100R,0.0324X0.0013*%
%ADD101R,0.0402X0.0013*%
%ADD102R,0.0078X0.0013*%
%ADD103R,0.0298X0.0013*%
%ADD104R,0.0091X0.0013*%
%ADD105R,0.0233X0.0013*%
%ADD106R,0.0104X0.0013*%
%ADD107R,0.0311X0.0013*%
%ADD108R,0.0480X0.0013*%
%ADD109R,0.0415X0.0013*%
%ADD110R,0.0104X0.0013*%
%ADD111R,0.0091X0.0013*%
%ADD112R,0.0078X0.0013*%
%ADD113R,0.0285X0.0013*%
%ADD114R,0.0233X0.0013*%
%ADD115R,0.0104X0.0013*%
%ADD116R,0.0220X0.0013*%
%ADD117R,0.0311X0.0013*%
%ADD118R,0.0480X0.0013*%
%ADD119R,0.0091X0.0013*%
%ADD120R,0.0220X0.0013*%
%ADD121R,0.0220X0.0013*%
%ADD122R,0.0324X0.0013*%
%ADD123R,0.0143X0.0013*%
%ADD124R,0.0207X0.0013*%
%ADD125R,0.0091X0.0013*%
%ADD126R,0.0259X0.0013*%
%ADD127R,0.0207X0.0013*%
%ADD128R,0.0130X0.0013*%
%ADD129R,0.0428X0.0013*%
%ADD130R,0.0207X0.0013*%
%ADD131R,0.0337X0.0013*%
%ADD132R,0.0259X0.0013*%
%ADD133R,0.0194X0.0013*%
%ADD134R,0.0428X0.0013*%
%ADD135R,0.0415X0.0013*%
%ADD136R,0.0194X0.0013*%
%ADD137R,0.0181X0.0013*%
%ADD138R,0.0480X0.0013*%
%ADD139R,0.0078X0.0013*%
%ADD140R,0.0130X0.0013*%
%ADD141R,0.0156X0.0013*%
%ADD142R,0.0428X0.0013*%
%ADD143R,0.0181X0.0013*%
%ADD144R,0.0480X0.0013*%
%ADD145R,0.0169X0.0013*%
%ADD146R,0.0065X0.0013*%
%ADD147R,0.0169X0.0013*%
%ADD148R,0.0156X0.0013*%
%ADD149R,0.0376X0.0013*%
%ADD150R,0.0065X0.0013*%
%ADD151R,0.0130X0.0013*%
%ADD152R,0.0143X0.0013*%
%ADD153R,0.0376X0.0013*%
%ADD154R,0.0065X0.0013*%
%ADD155R,0.0130X0.0013*%
%ADD156R,0.0143X0.0013*%
%ADD157R,0.0389X0.0013*%
%ADD158R,0.0065X0.0013*%
%ADD159R,0.0013X0.0013*%
%ADD160R,0.0065X0.0013*%
%ADD161R,0.0026X0.0013*%
%ADD162R,0.0052X0.0013*%
%ADD163R,0.0091X0.0013*%
%ADD164R,0.0207X0.0013*%
%ADD165R,0.0065X0.0013*%
%ADD166R,0.0026X0.0013*%
%ADD167R,0.0052X0.0013*%
%ADD168R,0.0169X0.0013*%
%ADD169R,0.0026X0.0013*%
%ADD170R,0.0052X0.0013*%
%ADD171R,0.0156X0.0013*%
%ADD172R,0.0169X0.0013*%
%ADD173R,0.0441X0.0013*%
%ADD174R,0.0039X0.0013*%
%ADD175R,0.0156X0.0013*%
%ADD176R,0.0233X0.0013*%
%ADD177R,0.0454X0.0013*%
%ADD178R,0.0039X0.0013*%
%ADD179R,0.0246X0.0013*%
%ADD180R,0.0143X0.0013*%
%ADD181R,0.0182X0.0013*%
%ADD182R,0.0259X0.0013*%
%ADD183R,0.0039X0.0013*%
%ADD184R,0.0182X0.0013*%
%ADD185R,0.0272X0.0013*%
%ADD186R,0.0026X0.0013*%
%ADD187R,0.0285X0.0013*%
%ADD188R,0.0026X0.0013*%
%ADD189R,0.0013X0.0013*%
%ADD190R,0.0285X0.0013*%
%ADD191R,0.0039X0.0013*%
%ADD192R,0.0026X0.0013*%
%ADD193R,0.0194X0.0013*%
%ADD194R,0.0026X0.0013*%
%ADD195R,0.0298X0.0013*%
%ADD196R,0.0078X0.0013*%
%ADD197R,0.0013X0.0013*%
%ADD198R,0.0220X0.0013*%
%ADD199R,0.0052X0.0013*%
%ADD200R,0.0272X0.0013*%
%ADD201R,0.0220X0.0013*%
%ADD202R,0.0324X0.0013*%
%ADD203R,0.0104X0.0013*%
%ADD204R,0.0013X0.0013*%
%ADD205R,0.0207X0.0013*%
%ADD206R,0.0233X0.0013*%
%ADD207R,0.0324X0.0013*%
%ADD208R,0.0207X0.0013*%
%ADD209R,0.0246X0.0013*%
%ADD210R,0.0311X0.0013*%
%ADD211R,0.0311X0.0013*%
%ADD212R,0.0013X0.0013*%
%ADD213R,0.0246X0.0013*%
%ADD214R,0.0220X0.0013*%
%ADD215R,0.0337X0.0013*%
%ADD216R,0.0285X0.0013*%
%ADD217R,0.0143X0.0013*%
%ADD218R,0.0389X0.0013*%
%ADD219R,0.0428X0.0013*%
%ADD220R,0.0285X0.0013*%
%ADD221R,0.0298X0.0013*%
%ADD222R,0.0246X0.0013*%
%ADD223R,0.0402X0.0013*%
%ADD224R,0.0441X0.0013*%
%ADD225R,0.0428X0.0013*%
%ADD226R,0.0480X0.0013*%
%ADD227R,0.0363X0.0013*%
%ADD228R,0.0350X0.0013*%
%ADD229R,0.0519X0.0013*%
%ADD230R,0.0506X0.0013*%
%ADD231R,0.4253X0.0013*%
%ADD232R,0.4253X0.0013*%
%ADD233R,0.4253X0.0013*%
%ADD234R,0.4253X0.0013*%
%ADD235R,0.1530X0.0013*%
%ADD236R,0.1076X0.0013*%
%ADD237R,0.1608X0.0013*%
%ADD238R,0.1452X0.0013*%
%ADD239R,0.0233X0.0013*%
%ADD240R,0.1569X0.0013*%
%ADD241R,0.1413X0.0013*%
%ADD242R,0.0207X0.0013*%
%ADD243R,0.1556X0.0013*%
%ADD244R,0.1387X0.0013*%
%ADD245R,0.1543X0.0013*%
%ADD246R,0.1374X0.0013*%
%ADD247R,0.1530X0.0013*%
%ADD248R,0.1361X0.0013*%
%ADD249R,0.1530X0.0013*%
%ADD250R,0.1349X0.0013*%
%ADD251R,0.1517X0.0013*%
%ADD252R,0.1336X0.0013*%
%ADD253R,0.1517X0.0013*%
%ADD254R,0.1336X0.0013*%
%ADD255R,0.1517X0.0013*%
%ADD256R,0.1323X0.0013*%
%ADD257R,0.0181X0.0013*%
%ADD258R,0.0272X0.0013*%
%ADD259R,0.0182X0.0013*%
%ADD260R,0.1504X0.0013*%
%ADD261R,0.1323X0.0013*%
%ADD262R,0.1504X0.0013*%
%ADD263R,0.1310X0.0013*%
%ADD264R,0.1491X0.0013*%
%ADD265R,0.1310X0.0013*%
%ADD266R,0.0013X0.0013*%
%ADD267R,0.1491X0.0013*%
%ADD268R,0.1310X0.0013*%
%ADD269R,0.1478X0.0013*%
%ADD270R,0.1310X0.0013*%
%ADD271R,0.1478X0.0013*%
%ADD272R,0.0052X0.0013*%
%ADD273R,0.1478X0.0013*%
%ADD274R,0.1465X0.0013*%
%ADD275R,0.1621X0.0013*%
%ADD276R,0.1465X0.0013*%
%ADD277R,0.1595X0.0013*%
%ADD278R,0.1556X0.0013*%
%ADD279R,0.1452X0.0013*%
%ADD280R,0.1504X0.0013*%
%ADD281R,0.1452X0.0013*%
%ADD282R,0.1465X0.0013*%
%ADD283R,0.1439X0.0013*%
%ADD284R,0.1426X0.0013*%
%ADD285R,0.1439X0.0013*%
%ADD286R,0.1400X0.0013*%
%ADD287R,0.1374X0.0013*%
%ADD288R,0.1426X0.0013*%
%ADD289R,0.0272X0.0013*%
%ADD290R,0.1426X0.0013*%
%ADD291R,0.1349X0.0013*%
%ADD292R,0.0311X0.0013*%
%ADD293R,0.1426X0.0013*%
%ADD294R,0.0350X0.0013*%
%ADD295R,0.1413X0.0013*%
%ADD296R,0.1413X0.0013*%
%ADD297R,0.0454X0.0013*%
%ADD298R,0.1400X0.0013*%
%ADD299R,0.0506X0.0013*%
%ADD300R,0.0065X0.0013*%
%ADD301R,0.0195X0.0013*%
%ADD302R,0.1400X0.0013*%
%ADD303R,0.0181X0.0013*%
%ADD304R,0.1387X0.0013*%
%ADD305R,0.0233X0.0013*%
%ADD306R,0.1387X0.0013*%
%ADD307R,0.1310X0.0013*%
%ADD308R,0.1374X0.0013*%
%ADD309R,0.1310X0.0013*%
%ADD310R,0.1374X0.0013*%
%ADD311R,0.1323X0.0013*%
%ADD312R,0.0259X0.0013*%
%ADD313R,0.1361X0.0013*%
%ADD314R,0.1336X0.0013*%
%ADD315R,0.0259X0.0013*%
%ADD316R,0.1336X0.0013*%
%ADD317R,0.0259X0.0013*%
%ADD318R,0.1348X0.0013*%
%ADD319R,0.1336X0.0013*%
%ADD320R,0.1361X0.0013*%
%ADD321R,0.0207X0.0013*%
%ADD322R,0.0285X0.0013*%
%ADD323R,0.1387X0.0013*%
%ADD324R,0.0389X0.0013*%
%ADD325R,0.1426X0.0013*%
%ADD326R,0.0337X0.0013*%
%ADD327R,0.1349X0.0013*%
%ADD328R,0.4188X0.0013*%
%ADD329R,0.4175X0.0013*%
%ADD330R,0.4162X0.0013*%
%ADD331R,0.4149X0.0013*%
%ADD332R,0.4123X0.0013*%
%ADD333R,0.4110X0.0013*%
%ADD334R,0.4097X0.0013*%
%ADD335R,0.4084X0.0013*%
%ADD336R,0.4071X0.0013*%
%ADD337R,0.4045X0.0013*%
%ADD338R,0.4033X0.0013*%
%ADD339R,0.4007X0.0013*%
%ADD340R,0.3994X0.0013*%
%ADD341R,0.3968X0.0013*%
%ADD342R,0.3942X0.0013*%
%ADD343R,0.3916X0.0013*%
%ADD344R,0.3877X0.0013*%
%ADD345R,0.3851X0.0013*%
%ADD346R,0.3812X0.0013*%
%ADD347R,0.3786X0.0013*%
%ADD348R,0.3734X0.0013*%
%ADD349R,0.3682X0.0013*%
%ADD350R,0.3643X0.0013*%
%ADD351R,0.3566X0.0013*%
%ADD352R,0.4331X0.0017*%
%ADD353R,0.4331X0.0017*%
%ADD354R,0.0034X0.0017*%
%ADD355R,0.4228X0.0017*%
%ADD356R,0.4262X0.0017*%
%ADD357R,0.4296X0.0017*%
%ADD358R,0.0275X0.0017*%
%ADD359R,0.0275X0.0017*%
%ADD360R,0.0103X0.0017*%
%ADD361R,0.0223X0.0017*%
%ADD362R,0.0292X0.0017*%
%ADD363R,0.0172X0.0017*%
%ADD364R,0.0344X0.0017*%
%ADD365R,0.0395X0.0017*%
%ADD366R,0.0137X0.0017*%
%ADD367R,0.0223X0.0017*%
%ADD368R,0.0292X0.0017*%
%ADD369R,0.0258X0.0017*%
%ADD370R,0.0086X0.0017*%
%ADD371R,0.0189X0.0017*%
%ADD372R,0.0069X0.0017*%
%ADD373R,0.0086X0.0017*%
%ADD374R,0.0120X0.0017*%
%ADD375R,0.0327X0.0017*%
%ADD376R,0.0120X0.0017*%
%ADD377R,0.0206X0.0017*%
%ADD378R,0.0241X0.0017*%
%ADD379R,0.0258X0.0017*%
%ADD380R,0.0309X0.0017*%
%ADD381R,0.0155X0.0017*%
%ADD382R,0.0206X0.0017*%
%ADD383R,0.0155X0.0017*%
%ADD384R,0.0189X0.0017*%
%ADD385R,0.0309X0.0017*%
%ADD386R,0.0103X0.0017*%
%ADD387R,0.0120X0.0017*%
%ADD388R,0.0275X0.0017*%
%ADD389R,0.0223X0.0017*%
%ADD390R,0.0241X0.0017*%
%ADD391R,0.0292X0.0017*%
%ADD392R,0.0017X0.0017*%
%ADD393R,0.0326X0.0017*%
%ADD394R,0.0017X0.0017*%
%ADD395R,0.0138X0.0017*%
%ADD396R,0.0344X0.0017*%
%ADD397R,0.0052X0.0017*%
%ADD398R,0.0052X0.0017*%
%ADD399R,0.0361X0.0017*%
%ADD400R,0.0636X0.0017*%
%ADD401R,0.0378X0.0017*%
%ADD402R,0.0172X0.0017*%
%ADD403R,0.0619X0.0017*%
%ADD404R,0.0378X0.0017*%
%ADD405R,0.0034X0.0017*%
%ADD406R,0.0172X0.0017*%
%ADD407R,0.0189X0.0017*%
%ADD408R,0.0086X0.0017*%
%ADD409R,0.0258X0.0017*%
%ADD410R,0.0120X0.0017*%
%ADD411R,0.0412X0.0017*%
%ADD412R,0.0430X0.0017*%
%ADD413R,0.0241X0.0017*%
%ADD414R,0.0430X0.0017*%
%ADD415R,0.0395X0.0017*%
%ADD416R,0.0464X0.0017*%
%ADD417R,0.0309X0.0017*%
%ADD418R,0.0464X0.0017*%
%ADD419R,0.0447X0.0017*%
%ADD420R,0.4193X0.0017*%
%ADD421R,0.4124X0.0017*%
%ADD422R,0.4021X0.0017*%
%ADD423R,0.3937X0.0021*%
%ADD424R,0.3937X0.0021*%
%ADD425R,0.3875X0.0021*%
%ADD426R,0.3854X0.0021*%
%ADD427R,0.3875X0.0021*%
%ADD428R,0.0394X0.0021*%
%ADD429R,0.0311X0.0021*%
%ADD430R,0.0269X0.0021*%
%ADD431R,0.0290X0.0021*%
%ADD432R,0.0207X0.0021*%
%ADD433R,0.0352X0.0021*%
%ADD434R,0.0124X0.0021*%
%ADD435R,0.0311X0.0021*%
%ADD436R,0.0373X0.0021*%
%ADD437R,0.0228X0.0021*%
%ADD438R,0.0249X0.0021*%
%ADD439R,0.0207X0.0021*%
%ADD440R,0.0290X0.0021*%
%ADD441R,0.0166X0.0021*%
%ADD442R,0.0332X0.0021*%
%ADD443R,0.0104X0.0021*%
%ADD444R,0.0311X0.0021*%
%ADD445R,0.0373X0.0021*%
%ADD446R,0.0207X0.0021*%
%ADD447R,0.0166X0.0021*%
%ADD448R,0.0249X0.0021*%
%ADD449R,0.0311X0.0021*%
%ADD450R,0.0104X0.0021*%
%ADD451R,0.0290X0.0021*%
%ADD452R,0.0373X0.0021*%
%ADD453R,0.0186X0.0021*%
%ADD454R,0.0145X0.0021*%
%ADD455R,0.0249X0.0021*%
%ADD456R,0.0166X0.0021*%
%ADD457R,0.0290X0.0021*%
%ADD458R,0.0104X0.0021*%
%ADD459R,0.0166X0.0021*%
%ADD460R,0.0145X0.0021*%
%ADD461R,0.0124X0.0021*%
%ADD462R,0.0186X0.0021*%
%ADD463R,0.0269X0.0021*%
%ADD464R,0.0083X0.0021*%
%ADD465R,0.0104X0.0021*%
%ADD466R,0.0622X0.0021*%
%ADD467R,0.0207X0.0021*%
%ADD468R,0.0228X0.0021*%
%ADD469R,0.0104X0.0021*%
%ADD470R,0.0622X0.0021*%
%ADD471R,0.0228X0.0021*%
%ADD472R,0.0290X0.0021*%
%ADD473R,0.0207X0.0021*%
%ADD474R,0.0124X0.0021*%
%ADD475R,0.0311X0.0021*%
%ADD476R,0.0207X0.0021*%
%ADD477R,0.0124X0.0021*%
%ADD478R,0.0622X0.0021*%
%ADD479R,0.0228X0.0021*%
%ADD480R,0.0124X0.0021*%
%ADD481R,0.0228X0.0021*%
%ADD482R,0.0166X0.0021*%
%ADD483R,0.0373X0.0021*%
%ADD484R,0.0249X0.0021*%
%ADD485R,0.0104X0.0021*%
%ADD486R,0.0104X0.0021*%
%ADD487R,0.0207X0.0021*%
%ADD488R,0.0166X0.0021*%
%ADD489R,0.0269X0.0021*%
%ADD490R,0.0124X0.0021*%
%ADD491R,0.0166X0.0021*%
%ADD492R,0.0622X0.0021*%
%ADD493R,0.0559X0.0021*%
%ADD494R,0.0269X0.0021*%
%ADD495R,0.0186X0.0021*%
%ADD496R,0.0083X0.0021*%
%ADD497R,0.0559X0.0021*%
%ADD498R,0.0083X0.0021*%
%ADD499R,0.0186X0.0021*%
%ADD500R,0.0539X0.0021*%
%ADD501R,0.0062X0.0021*%
%ADD502R,0.0041X0.0021*%
%ADD503R,0.0269X0.0021*%
%ADD504R,0.0145X0.0021*%
%ADD505R,0.0041X0.0021*%
%ADD506R,0.0332X0.0021*%
%ADD507R,0.0021X0.0021*%
%ADD508R,0.0332X0.0021*%
%ADD509R,0.0249X0.0021*%
%ADD510R,0.0601X0.0021*%
%ADD511R,0.0062X0.0021*%
%ADD512R,0.0601X0.0021*%
%ADD513R,0.0394X0.0021*%
%ADD514R,0.0290X0.0021*%
%ADD515R,0.0601X0.0021*%
%ADD516R,0.1471X0.0021*%
%ADD517R,0.1285X0.0021*%
%ADD518R,0.0622X0.0021*%
%ADD519R,0.3833X0.0021*%
%ADD520R,0.3813X0.0021*%
%ADD521R,0.3771X0.0021*%
%ADD522R,0.3709X0.0021*%
%ADD523R,0.3585X0.0021*%
%ADD524R,0.3937X0.0018*%
%ADD525R,0.3937X0.0018*%
%ADD526R,0.3901X0.0018*%
%ADD527R,0.3864X0.0018*%
%ADD528R,0.3901X0.0018*%
%ADD529R,0.0653X0.0018*%
%ADD530R,0.0526X0.0018*%
%ADD531R,0.0327X0.0018*%
%ADD532R,0.0218X0.0018*%
%ADD533R,0.0127X0.0018*%
%ADD534R,0.0254X0.0018*%
%ADD535R,0.0653X0.0018*%
%ADD536R,0.0653X0.0018*%
%ADD537R,0.0472X0.0018*%
%ADD538R,0.0272X0.0018*%
%ADD539R,0.0218X0.0018*%
%ADD540R,0.0181X0.0018*%
%ADD541R,0.0091X0.0018*%
%ADD542R,0.0653X0.0018*%
%ADD543R,0.0635X0.0018*%
%ADD544R,0.0435X0.0018*%
%ADD545R,0.0254X0.0018*%
%ADD546R,0.0181X0.0018*%
%ADD547R,0.0091X0.0018*%
%ADD548R,0.0200X0.0018*%
%ADD549R,0.0671X0.0018*%
%ADD550R,0.0635X0.0018*%
%ADD551R,0.0417X0.0018*%
%ADD552R,0.0181X0.0018*%
%ADD553R,0.0091X0.0018*%
%ADD554R,0.0671X0.0018*%
%ADD555R,0.0635X0.0018*%
%ADD556R,0.0399X0.0018*%
%ADD557R,0.0200X0.0018*%
%ADD558R,0.0163X0.0018*%
%ADD559R,0.0127X0.0018*%
%ADD560R,0.0671X0.0018*%
%ADD561R,0.0399X0.0018*%
%ADD562R,0.0163X0.0018*%
%ADD563R,0.0145X0.0018*%
%ADD564R,0.0381X0.0018*%
%ADD565R,0.0689X0.0018*%
%ADD566R,0.0381X0.0018*%
%ADD567R,0.0145X0.0018*%
%ADD568R,0.0381X0.0018*%
%ADD569R,0.0708X0.0018*%
%ADD570R,0.0381X0.0018*%
%ADD571R,0.0236X0.0018*%
%ADD572R,0.0163X0.0018*%
%ADD573R,0.0145X0.0018*%
%ADD574R,0.0381X0.0018*%
%ADD575R,0.0708X0.0018*%
%ADD576R,0.0363X0.0018*%
%ADD577R,0.0109X0.0018*%
%ADD578R,0.0127X0.0018*%
%ADD579R,0.0726X0.0018*%
%ADD580R,0.0363X0.0018*%
%ADD581R,0.0272X0.0018*%
%ADD582R,0.0127X0.0018*%
%ADD583R,0.0018X0.0018*%
%ADD584R,0.0109X0.0018*%
%ADD585R,0.0744X0.0018*%
%ADD586R,0.0363X0.0018*%
%ADD587R,0.0272X0.0018*%
%ADD588R,0.0127X0.0018*%
%ADD589R,0.0018X0.0018*%
%ADD590R,0.0109X0.0018*%
%ADD591R,0.0109X0.0018*%
%ADD592R,0.0744X0.0018*%
%ADD593R,0.0290X0.0018*%
%ADD594R,0.0127X0.0018*%
%ADD595R,0.0018X0.0018*%
%ADD596R,0.0073X0.0018*%
%ADD597R,0.0762X0.0018*%
%ADD598R,0.0290X0.0018*%
%ADD599R,0.0109X0.0018*%
%ADD600R,0.0036X0.0018*%
%ADD601R,0.0073X0.0018*%
%ADD602R,0.0163X0.0018*%
%ADD603R,0.0798X0.0018*%
%ADD604R,0.0054X0.0018*%
%ADD605R,0.0762X0.0018*%
%ADD606R,0.0635X0.0018*%
%ADD607R,0.0073X0.0018*%
%ADD608R,0.0290X0.0018*%
%ADD609R,0.0109X0.0018*%
%ADD610R,0.0054X0.0018*%
%ADD611R,0.0073X0.0018*%
%ADD612R,0.0127X0.0018*%
%ADD613R,0.0726X0.0018*%
%ADD614R,0.0073X0.0018*%
%ADD615R,0.0036X0.0018*%
%ADD616R,0.0145X0.0018*%
%ADD617R,0.0689X0.0018*%
%ADD618R,0.0181X0.0018*%
%ADD619R,0.0272X0.0018*%
%ADD620R,0.0091X0.0018*%
%ADD621R,0.0036X0.0018*%
%ADD622R,0.0381X0.0018*%
%ADD623R,0.0671X0.0018*%
%ADD624R,0.0254X0.0018*%
%ADD625R,0.0236X0.0018*%
%ADD626R,0.0200X0.0018*%
%ADD627R,0.0109X0.0018*%
%ADD628R,0.0145X0.0018*%
%ADD629R,0.0363X0.0018*%
%ADD630R,0.0145X0.0018*%
%ADD631R,0.0073X0.0018*%
%ADD632R,0.0689X0.0018*%
%ADD633R,0.0181X0.0018*%
%ADD634R,0.0653X0.0018*%
%ADD635R,0.0218X0.0018*%
%ADD636R,0.0181X0.0018*%
%ADD637R,0.0708X0.0018*%
%ADD638R,0.0290X0.0018*%
%ADD639R,0.0181X0.0018*%
%ADD640R,0.1306X0.0018*%
%ADD641R,0.2558X0.0018*%
%ADD642R,0.3864X0.0018*%
%ADD643R,0.3846X0.0018*%
%ADD644R,0.3792X0.0018*%
%ADD645R,0.3737X0.0018*%
%ADD646R,0.3610X0.0018*%
%ADD647R,0.0025X0.0006*%
%ADD648R,0.0012X0.0006*%
%ADD649R,0.0019X0.0006*%
%ADD650R,0.0043X0.0006*%
%ADD651R,0.0043X0.0006*%
%ADD652R,0.0074X0.0006*%
%ADD653R,0.0062X0.0006*%
%ADD654R,0.0081X0.0006*%
%ADD655R,0.0099X0.0006*%
%ADD656R,0.0087X0.0006*%
%ADD657R,0.0050X0.0006*%
%ADD658R,0.0105X0.0006*%
%ADD659R,0.0118X0.0006*%
%ADD660R,0.0112X0.0006*%
%ADD661R,0.0112X0.0006*%
%ADD662R,0.0130X0.0006*%
%ADD663R,0.0174X0.0006*%
%ADD664R,0.0056X0.0006*%
%ADD665R,0.0056X0.0006*%
%ADD666R,0.0149X0.0006*%
%ADD667R,0.0043X0.0006*%
%ADD668R,0.0043X0.0006*%
%ADD669R,0.0180X0.0006*%
%ADD670R,0.0174X0.0006*%
%ADD671R,0.0056X0.0006*%
%ADD672R,0.0056X0.0006*%
%ADD673R,0.0180X0.0006*%
%ADD674R,0.0161X0.0006*%
%ADD675R,0.0180X0.0006*%
%ADD676R,0.0186X0.0006*%
%ADD677R,0.0167X0.0006*%
%ADD678R,0.0068X0.0006*%
%ADD679R,0.0186X0.0006*%
%ADD680R,0.0074X0.0006*%
%ADD681R,0.0037X0.0006*%
%ADD682R,0.0050X0.0006*%
%ADD683R,0.0025X0.0006*%
%ADD684R,0.0050X0.0006*%
%ADD685R,0.0081X0.0006*%
%ADD686R,0.0050X0.0006*%
%ADD687R,0.0006X0.0006*%
%ADD688R,0.0037X0.0006*%
%ADD689R,0.0037X0.0006*%
%ADD690R,0.0037X0.0006*%
%ADD691R,0.0180X0.0006*%
%ADD692R,0.0192X0.0006*%
%ADD693R,0.0167X0.0006*%
%ADD694R,0.0174X0.0006*%
%ADD695R,0.0192X0.0006*%
%ADD696R,0.0161X0.0006*%
%ADD697R,0.0043X0.0006*%
%ADD698R,0.0050X0.0006*%
%ADD699R,0.0043X0.0006*%
%ADD700R,0.0050X0.0006*%
%ADD701R,0.0037X0.0006*%
%ADD702R,0.0081X0.0006*%
%ADD703R,0.0062X0.0006*%
%ADD704R,0.0068X0.0006*%
%ADD705R,0.0068X0.0006*%
%ADD706R,0.0012X0.0006*%
%ADD707R,0.0006X0.0006*%
%ADD708R,0.0031X0.0006*%
%ADD709R,0.0019X0.0006*%
%ADD710R,0.0161X0.0006*%
%ADD711R,0.0143X0.0006*%
%ADD712R,0.0136X0.0006*%
%ADD713R,0.0149X0.0006*%
%ADD714R,0.0174X0.0006*%
%ADD715R,0.0112X0.0006*%
%ADD716R,0.0149X0.0006*%
%ADD717R,0.0099X0.0006*%
%ADD718R,0.0105X0.0006*%
%ADD719R,0.0130X0.0006*%
%ADD720R,0.0136X0.0006*%
%ADD721R,0.0099X0.0006*%
%ADD722R,0.0118X0.0006*%
%ADD723R,0.0093X0.0006*%
%ADD724R,0.0031X0.0006*%
%ADD725R,0.0087X0.0006*%
%ADD726R,0.0124X0.0006*%
%ADD727R,0.0136X0.0006*%
%ADD728R,0.0112X0.0006*%
%ADD729R,0.0130X0.0006*%
%ADD730R,0.0136X0.0006*%
%ADD731R,0.0155X0.0006*%
%ADD732R,0.0062X0.0006*%
%ADD733R,0.0068X0.0006*%
%ADD734R,0.0031X0.0006*%
%ADD735R,0.0062X0.0006*%
%ADD736R,0.0019X0.0006*%
%ADD737R,0.0006X0.0006*%
%ADD738R,0.0198X0.0006*%
%ADD739R,0.0124X0.0006*%
%ADD740R,0.0198X0.0006*%
%ADD741R,0.0198X0.0006*%
%ADD742R,0.0198X0.0006*%
%ADD743R,0.0155X0.0006*%
%ADD744R,0.0149X0.0006*%
%ADD745R,0.0130X0.0006*%
%ADD746R,0.0093X0.0006*%
%ADD747R,0.0105X0.0006*%
%ADD748R,0.0217X0.0006*%
%ADD749R,0.0006X0.0006*%
%ADD750R,0.0217X0.0006*%
%ADD751R,0.0229X0.0006*%
%ADD752R,0.0229X0.0006*%
%ADD753R,0.0242X0.0006*%
%ADD754R,0.0248X0.0006*%
%ADD755R,0.0260X0.0006*%
%ADD756R,0.0273X0.0006*%
%ADD757R,0.0291X0.0006*%
%ADD758R,0.0081X0.0006*%
%ADD759R,0.0291X0.0006*%
%ADD760R,0.0304X0.0006*%
%ADD761R,0.0304X0.0006*%
%ADD762R,0.0440X0.0006*%
%ADD763R,0.0453X0.0006*%
%ADD764R,0.0459X0.0006*%
%ADD765R,0.0459X0.0006*%
%ADD766R,0.0471X0.0006*%
%ADD767R,0.0471X0.0006*%
%ADD768R,0.0477X0.0006*%
%ADD769R,0.0484X0.0006*%
%ADD770R,0.0484X0.0006*%
%ADD771R,0.0496X0.0006*%
%ADD772R,0.0496X0.0006*%
%ADD773R,0.0502X0.0006*%
%ADD774R,0.0502X0.0006*%
%ADD775R,0.0496X0.0006*%
%ADD776R,0.0496X0.0006*%
%ADD777R,0.0490X0.0006*%
%ADD778R,0.0484X0.0006*%
%ADD779R,0.0484X0.0006*%
%ADD780R,0.0477X0.0006*%
%ADD781R,0.0471X0.0006*%
%ADD782R,0.0471X0.0006*%
%ADD783R,0.0465X0.0006*%
%ADD784R,0.0465X0.0006*%
%ADD785R,0.0465X0.0006*%
%ADD786R,0.0459X0.0006*%
%ADD787R,0.0453X0.0006*%
%ADD788R,0.0453X0.0006*%
%ADD789R,0.0477X0.0006*%
%ADD790R,0.0502X0.0006*%
%ADD791R,0.0508X0.0006*%
%ADD792R,0.0508X0.0006*%
%ADD793R,0.0515X0.0006*%
%ADD794R,0.0521X0.0006*%
%ADD795R,0.0527X0.0006*%
%ADD796R,0.0527X0.0006*%
%ADD797R,0.0533X0.0006*%
%ADD798R,0.0539X0.0006*%
%ADD799R,0.0539X0.0006*%
%ADD800R,0.0546X0.0006*%
%ADD801R,0.0539X0.0006*%
%ADD802R,0.0539X0.0006*%
%ADD803R,0.0527X0.0006*%
%ADD804R,0.0527X0.0006*%
%ADD805R,0.0515X0.0006*%
%ADD806R,0.0508X0.0006*%
%ADD807R,0.0521X0.0006*%
%ADD808R,0.0558X0.0006*%
%ADD809R,0.0558X0.0006*%
%ADD810R,0.0583X0.0006*%
%ADD811R,0.0614X0.0006*%
%ADD812R,0.0614X0.0006*%
%ADD813R,0.0645X0.0006*%
%ADD814R,0.0670X0.0006*%
%ADD815R,0.0688X0.0006*%
%ADD816R,0.0688X0.0006*%
%ADD817R,0.0682X0.0006*%
%ADD818R,0.0682X0.0006*%
%ADD819R,0.0676X0.0006*%
%ADD820R,0.0676X0.0006*%
%ADD821R,0.0670X0.0006*%
%ADD822R,0.0663X0.0006*%
%ADD823R,0.0663X0.0006*%
%ADD824R,0.0657X0.0006*%
%ADD825R,0.0657X0.0006*%
%ADD826R,0.0657X0.0006*%
%ADD827R,0.0663X0.0006*%
%ADD828R,0.0651X0.0006*%
%ADD829R,0.0651X0.0006*%
%ADD830R,0.0620X0.0006*%
%ADD831R,0.0589X0.0006*%
%ADD832R,0.0589X0.0006*%
%ADD833R,0.0533X0.0006*%
%ADD834R,0.0484X0.0006*%
%ADD835R,0.0484X0.0006*%
%ADD836R,0.0502X0.0006*%
%ADD837R,0.0546X0.0006*%
%ADD838R,0.0564X0.0006*%
%ADD839R,0.0564X0.0006*%
%ADD840R,0.0577X0.0006*%
%ADD841R,0.0577X0.0006*%
%ADD842R,0.0632X0.0006*%
%ADD843R,0.1259X0.0006*%
%ADD844R,0.1259X0.0006*%
%ADD845R,0.1246X0.0006*%
%ADD846R,0.1234X0.0006*%
%ADD847R,0.1234X0.0006*%
%ADD848R,0.1221X0.0006*%
%ADD849R,0.1209X0.0006*%
%ADD850R,0.1209X0.0006*%
%ADD851R,0.1197X0.0006*%
%ADD852R,0.1197X0.0006*%
%ADD853R,0.1246X0.0006*%
%ADD854R,0.1271X0.0006*%
%ADD855R,0.1277X0.0006*%
%ADD856R,0.1283X0.0006*%
%ADD857R,0.1296X0.0006*%
%ADD858R,0.1308X0.0006*%
%ADD859R,0.1321X0.0006*%
%ADD860R,0.1333X0.0006*%
%ADD861R,0.1333X0.0006*%
%ADD862R,0.1345X0.0006*%
%ADD863R,0.1358X0.0006*%
%ADD864R,0.1370X0.0006*%
%ADD865R,0.1383X0.0006*%
%ADD866R,0.1395X0.0006*%
%ADD867R,0.1407X0.0006*%
%ADD868R,0.1420X0.0006*%
%ADD869R,0.1420X0.0006*%
%ADD870R,0.1432X0.0006*%
%ADD871R,0.1445X0.0006*%
%ADD872R,0.1457X0.0006*%
%ADD873R,0.1457X0.0006*%
%ADD874R,0.1432X0.0006*%
%ADD875R,0.0335X0.0006*%
%ADD876R,0.0322X0.0006*%
%ADD877R,0.0639X0.0006*%
%ADD878R,0.0310X0.0006*%
%ADD879R,0.0601X0.0006*%
%ADD880R,0.0291X0.0006*%
%ADD881R,0.0577X0.0006*%
%ADD882R,0.0291X0.0006*%
%ADD883R,0.0279X0.0006*%
%ADD884R,0.0279X0.0006*%
%ADD885R,0.0217X0.0006*%
%ADD886R,0.0415X0.0006*%
%ADD887R,0.0217X0.0006*%
%ADD888R,0.0391X0.0006*%
%ADD889R,0.0366X0.0006*%
%ADD890R,0.0341X0.0006*%
%ADD891R,0.0341X0.0006*%
%ADD892R,0.0329X0.0006*%
%ADD893R,0.0329X0.0006*%
%ADD894R,0.0316X0.0006*%
%ADD895R,0.0316X0.0006*%
%ADD896R,0.0304X0.0006*%
%ADD897R,0.0291X0.0006*%
%ADD898R,0.0279X0.0006*%
%ADD899R,0.0267X0.0006*%
%ADD900R,0.0267X0.0006*%
%ADD901R,0.0254X0.0006*%
%ADD902R,0.0254X0.0006*%
%ADD903R,0.0242X0.0006*%
D10*
X000450Y001639D02*
X000450Y019811D01*
X000950Y019475D02*
X001200Y019725D01*
X001700Y019725D01*
X001950Y019475D01*
X002200Y019725D01*
X002700Y019725D01*
X002950Y019475D01*
X003200Y019725D01*
X003700Y019725D01*
X003950Y019475D01*
X004200Y019725D01*
X004700Y019725D01*
X004950Y019475D01*
X005200Y019725D01*
X005700Y019725D01*
X005950Y019475D01*
X006200Y019725D01*
X006700Y019725D01*
X006950Y019475D01*
X007200Y019725D01*
X007700Y019725D01*
X007950Y019475D01*
X008200Y019725D01*
X008700Y019725D01*
X008950Y019475D01*
X009200Y019725D01*
X009700Y019725D01*
X009950Y019475D01*
X010200Y019725D01*
X010700Y019725D01*
X010950Y019475D01*
X010950Y018975D01*
X010700Y018725D01*
X010200Y018725D01*
X009950Y018975D01*
X009700Y018725D01*
X009200Y018725D01*
X008950Y018975D01*
X008700Y018725D01*
X008200Y018725D01*
X007950Y018975D01*
X007700Y018725D01*
X007200Y018725D01*
X006950Y018975D01*
X006700Y018725D01*
X006200Y018725D01*
X005950Y018975D01*
X005700Y018725D01*
X005200Y018725D01*
X004950Y018975D01*
X004700Y018725D01*
X004200Y018725D01*
X003950Y018975D01*
X003700Y018725D01*
X003200Y018725D01*
X002950Y018975D01*
X002700Y018725D01*
X002200Y018725D01*
X001950Y018975D01*
X001700Y018725D01*
X001200Y018725D01*
X000950Y018975D01*
X000950Y019475D01*
X001300Y019975D02*
X001300Y020475D01*
X001550Y020725D01*
X002050Y020725D01*
X002300Y020475D01*
X002550Y020725D01*
X003050Y020725D01*
X003300Y020475D01*
X003550Y020725D01*
X004050Y020725D01*
X004300Y020475D01*
X004550Y020725D01*
X005050Y020725D01*
X005300Y020475D01*
X005550Y020725D01*
X006050Y020725D01*
X006300Y020475D01*
X006550Y020725D01*
X007050Y020725D01*
X007300Y020475D01*
X007550Y020725D01*
X008050Y020725D01*
X008300Y020475D01*
X008550Y020725D01*
X009050Y020725D01*
X009300Y020475D01*
X009550Y020725D01*
X010050Y020725D01*
X010300Y020475D01*
X010550Y020725D01*
X011050Y020725D01*
X011300Y020475D01*
X011300Y019975D01*
X011050Y019725D01*
X010550Y019725D01*
X010300Y019975D01*
X010050Y019725D01*
X009550Y019725D01*
X009300Y019975D01*
X009050Y019725D01*
X008550Y019725D01*
X008300Y019975D01*
X008050Y019725D01*
X007550Y019725D01*
X007300Y019975D01*
X007050Y019725D01*
X006550Y019725D01*
X006300Y019975D01*
X006050Y019725D01*
X005550Y019725D01*
X005300Y019975D01*
X005050Y019725D01*
X004550Y019725D01*
X004300Y019975D01*
X004050Y019725D01*
X003550Y019725D01*
X003300Y019975D01*
X003050Y019725D01*
X002550Y019725D01*
X002300Y019975D01*
X002050Y019725D01*
X001550Y019725D01*
X001300Y019975D01*
X000450Y019811D02*
X000452Y019885D01*
X000458Y019959D01*
X000467Y020032D01*
X000481Y020105D01*
X000498Y020177D01*
X000519Y020248D01*
X000544Y020318D01*
X000572Y020386D01*
X000604Y020453D01*
X000639Y020518D01*
X000678Y020581D01*
X000720Y020642D01*
X000765Y020701D01*
X000813Y020757D01*
X000864Y020811D01*
X000918Y020862D01*
X000974Y020910D01*
X001033Y020955D01*
X001094Y020997D01*
X001157Y021036D01*
X001222Y021071D01*
X001289Y021103D01*
X001357Y021131D01*
X001427Y021156D01*
X001498Y021177D01*
X001570Y021194D01*
X001643Y021208D01*
X001716Y021217D01*
X001790Y021223D01*
X001864Y021225D01*
X019743Y021225D01*
X019700Y020725D02*
X019200Y020725D01*
X018950Y020475D01*
X018700Y020725D01*
X018200Y020725D01*
X017950Y020475D01*
X017700Y020725D01*
X017200Y020725D01*
X016950Y020475D01*
X016700Y020725D01*
X016200Y020725D01*
X015950Y020475D01*
X015700Y020725D01*
X015200Y020725D01*
X014950Y020475D01*
X014700Y020725D01*
X014200Y020725D01*
X013950Y020475D01*
X013700Y020725D01*
X013200Y020725D01*
X012950Y020475D01*
X012700Y020725D01*
X012200Y020725D01*
X011950Y020475D01*
X011950Y019975D01*
X012200Y019725D01*
X012700Y019725D01*
X012950Y019975D01*
X013200Y019725D01*
X013700Y019725D01*
X013950Y019975D01*
X014200Y019725D01*
X014700Y019725D01*
X014950Y019975D01*
X015200Y019725D01*
X015700Y019725D01*
X015950Y019975D01*
X016200Y019725D01*
X016700Y019725D01*
X016950Y019975D01*
X017200Y019725D01*
X017700Y019725D01*
X017950Y019975D01*
X018200Y019725D01*
X018700Y019725D01*
X018950Y019975D01*
X019200Y019725D01*
X019700Y019725D01*
X019950Y019975D01*
X019950Y020475D01*
X019700Y020725D01*
X019743Y021225D02*
X019793Y021223D01*
X019844Y021218D01*
X019893Y021209D01*
X019942Y021196D01*
X019990Y021180D01*
X020037Y021161D01*
X020082Y021139D01*
X020125Y021113D01*
X020167Y021084D01*
X020206Y021052D01*
X020243Y021018D01*
X020277Y020981D01*
X020309Y020942D01*
X020338Y020900D01*
X020364Y020857D01*
X020386Y020812D01*
X020405Y020765D01*
X020421Y020717D01*
X020434Y020668D01*
X020443Y020619D01*
X020448Y020568D01*
X020450Y020518D01*
X020450Y016225D01*
X021450Y015225D01*
X021450Y002225D01*
X020450Y001225D01*
X020450Y000932D01*
X019950Y000975D02*
X019950Y001475D01*
X019700Y001725D01*
X019200Y001725D01*
X018950Y001475D01*
X018700Y001725D01*
X018200Y001725D01*
X017950Y001475D01*
X017700Y001725D01*
X017200Y001725D01*
X016950Y001475D01*
X016700Y001725D01*
X016200Y001725D01*
X015950Y001475D01*
X015700Y001725D01*
X015200Y001725D01*
X014950Y001475D01*
X014700Y001725D01*
X014200Y001725D01*
X013950Y001475D01*
X013950Y000975D01*
X014200Y000725D01*
X014700Y000725D01*
X014950Y000975D01*
X015200Y000725D01*
X015700Y000725D01*
X015950Y000975D01*
X016200Y000725D01*
X016700Y000725D01*
X016950Y000975D01*
X017200Y000725D01*
X017700Y000725D01*
X017950Y000975D01*
X018200Y000725D01*
X018700Y000725D01*
X018950Y000975D01*
X019200Y000725D01*
X019700Y000725D01*
X019950Y000975D01*
X020450Y000932D02*
X020448Y000882D01*
X020443Y000831D01*
X020434Y000782D01*
X020421Y000733D01*
X020405Y000685D01*
X020386Y000638D01*
X020364Y000593D01*
X020338Y000550D01*
X020309Y000508D01*
X020277Y000469D01*
X020243Y000432D01*
X020206Y000398D01*
X020167Y000366D01*
X020125Y000337D01*
X020082Y000311D01*
X020037Y000289D01*
X019990Y000270D01*
X019942Y000254D01*
X019893Y000241D01*
X019844Y000232D01*
X019793Y000227D01*
X019743Y000225D01*
X001864Y000225D01*
X001790Y000227D01*
X001716Y000233D01*
X001643Y000242D01*
X001570Y000256D01*
X001498Y000273D01*
X001427Y000294D01*
X001357Y000319D01*
X001289Y000347D01*
X001222Y000379D01*
X001157Y000414D01*
X001094Y000453D01*
X001033Y000495D01*
X000974Y000540D01*
X000918Y000588D01*
X000864Y000639D01*
X000813Y000693D01*
X000765Y000749D01*
X000720Y000808D01*
X000678Y000869D01*
X000639Y000932D01*
X000604Y000997D01*
X000572Y001064D01*
X000544Y001132D01*
X000519Y001202D01*
X000498Y001273D01*
X000481Y001345D01*
X000467Y001418D01*
X000458Y001491D01*
X000452Y001565D01*
X000450Y001639D01*
X001200Y003225D02*
X001700Y003225D01*
X001950Y003475D01*
X001950Y003975D01*
X001700Y004225D01*
X001950Y004475D01*
X001950Y004975D01*
X001700Y005225D01*
X001950Y005475D01*
X001950Y005975D01*
X001700Y006225D01*
X001950Y006475D01*
X001950Y006975D01*
X001700Y007225D01*
X001950Y007475D01*
X001950Y007975D01*
X001700Y008225D01*
X001950Y008475D01*
X001950Y008975D01*
X001700Y009225D01*
X001200Y009225D01*
X000950Y008975D01*
X000950Y008475D01*
X001200Y008225D01*
X000950Y007975D01*
X000950Y007475D01*
X001200Y007225D01*
X000950Y006975D01*
X000950Y006475D01*
X001200Y006225D01*
X000950Y005975D01*
X000950Y005475D01*
X001200Y005225D01*
X000950Y004975D01*
X000950Y004475D01*
X001200Y004225D01*
X000950Y003975D01*
X000950Y003475D01*
X001200Y003225D01*
X006950Y001475D02*
X006950Y000975D01*
X007200Y000725D01*
X007700Y000725D01*
X007950Y000975D01*
X008200Y000725D01*
X008700Y000725D01*
X008950Y000975D01*
X009200Y000725D01*
X009700Y000725D01*
X009950Y000975D01*
X010200Y000725D01*
X010700Y000725D01*
X010950Y000975D01*
X011200Y000725D01*
X011700Y000725D01*
X011950Y000975D01*
X012200Y000725D01*
X012700Y000725D01*
X012950Y000975D01*
X012950Y001475D01*
X012700Y001725D01*
X012200Y001725D01*
X011950Y001475D01*
X011700Y001725D01*
X011200Y001725D01*
X010950Y001475D01*
X010700Y001725D01*
X010200Y001725D01*
X009950Y001475D01*
X009700Y001725D01*
X009200Y001725D01*
X008950Y001475D01*
X008700Y001725D01*
X008200Y001725D01*
X007950Y001475D01*
X007700Y001725D01*
X007200Y001725D01*
X006950Y001475D01*
X011718Y008835D02*
X011560Y008993D01*
X011560Y012457D01*
X011718Y012615D01*
X015182Y012615D01*
X015340Y012457D01*
X015340Y008993D01*
X015182Y008835D01*
X011718Y008835D01*
X007384Y012610D02*
X007384Y013240D01*
X007227Y013397D01*
X006794Y013397D01*
X006006Y013397D02*
X005416Y013397D01*
X005416Y012453D01*
X006006Y012453D01*
X005895Y012019D02*
X005344Y012019D01*
X005068Y011861D02*
X004832Y011625D01*
X005068Y011389D01*
X005068Y011861D01*
X004832Y011901D02*
X004832Y011625D01*
X004832Y011349D01*
X004556Y011231D02*
X004005Y011231D01*
X004005Y012019D01*
X004556Y012019D01*
X005344Y011231D02*
X005895Y011231D01*
X005895Y012019D01*
X006794Y012453D02*
X007227Y012453D01*
X007384Y012610D01*
X013241Y014969D02*
X013241Y015481D01*
X014659Y015481D02*
X014659Y014969D01*
X018818Y012475D02*
X018818Y011975D01*
X018950Y011975D02*
X018950Y012475D01*
X019200Y012725D01*
X020700Y012725D01*
X020950Y012475D01*
X020950Y011975D01*
X020700Y011725D01*
X019200Y011725D01*
X018950Y011475D01*
X018950Y010975D01*
X019200Y010725D01*
X020700Y010725D01*
X020950Y010475D01*
X020950Y009975D01*
X020700Y009725D01*
X019200Y009725D01*
X018950Y009975D01*
X018950Y010475D01*
X019200Y010725D01*
X019200Y011725D02*
X018950Y011975D01*
X020700Y011725D02*
X020950Y011475D01*
X020950Y010975D01*
X020700Y010725D01*
X020650Y007925D02*
X019662Y007925D01*
X019150Y007531D02*
X019150Y006319D01*
X019662Y005925D02*
X020638Y005925D01*
X021150Y006319D02*
X021150Y007531D01*
X019650Y006925D02*
X019652Y006969D01*
X019658Y007013D01*
X019668Y007056D01*
X019681Y007098D01*
X019698Y007139D01*
X019719Y007178D01*
X019743Y007215D01*
X019770Y007250D01*
X019800Y007282D01*
X019833Y007312D01*
X019869Y007338D01*
X019906Y007362D01*
X019946Y007381D01*
X019987Y007398D01*
X020030Y007410D01*
X020073Y007419D01*
X020117Y007424D01*
X020161Y007425D01*
X020205Y007422D01*
X020249Y007415D01*
X020292Y007404D01*
X020334Y007390D01*
X020374Y007372D01*
X020413Y007350D01*
X020449Y007326D01*
X020483Y007298D01*
X020515Y007267D01*
X020544Y007233D01*
X020570Y007197D01*
X020592Y007159D01*
X020611Y007119D01*
X020626Y007077D01*
X020638Y007035D01*
X020646Y006991D01*
X020650Y006947D01*
X020650Y006903D01*
X020646Y006859D01*
X020638Y006815D01*
X020626Y006773D01*
X020611Y006731D01*
X020592Y006691D01*
X020570Y006653D01*
X020544Y006617D01*
X020515Y006583D01*
X020483Y006552D01*
X020449Y006524D01*
X020413Y006500D01*
X020374Y006478D01*
X020334Y006460D01*
X020292Y006446D01*
X020249Y006435D01*
X020205Y006428D01*
X020161Y006425D01*
X020117Y006426D01*
X020073Y006431D01*
X020030Y006440D01*
X019987Y006452D01*
X019946Y006469D01*
X019906Y006488D01*
X019869Y006512D01*
X019833Y006538D01*
X019800Y006568D01*
X019770Y006600D01*
X019743Y006635D01*
X019719Y006672D01*
X019698Y006711D01*
X019681Y006752D01*
X019668Y006794D01*
X019658Y006837D01*
X019652Y006881D01*
X019650Y006925D01*
D11*
X019450Y017625D02*
X019250Y017975D01*
X019650Y017975D01*
X019450Y017625D01*
X018650Y017625D02*
X018450Y017975D01*
X018250Y017625D01*
X018650Y017625D01*
X003000Y007925D02*
X003000Y007525D01*
X002650Y007725D01*
X003000Y007925D01*
X002650Y006925D02*
X003000Y006725D01*
X002650Y006525D01*
X002650Y006925D01*
X000800Y020125D02*
X001100Y020225D01*
X000800Y020325D01*
X000800Y020125D01*
D12*
X007850Y013275D02*
X008350Y013275D01*
X014914Y009150D02*
X014916Y009170D01*
X014921Y009190D01*
X014931Y009208D01*
X014943Y009225D01*
X014958Y009239D01*
X014976Y009249D01*
X014995Y009257D01*
X015015Y009261D01*
X015035Y009261D01*
X015055Y009257D01*
X015074Y009249D01*
X015092Y009239D01*
X015107Y009225D01*
X015119Y009208D01*
X015129Y009190D01*
X015134Y009170D01*
X015136Y009150D01*
X015134Y009130D01*
X015129Y009110D01*
X015119Y009092D01*
X015107Y009075D01*
X015092Y009061D01*
X015074Y009051D01*
X015055Y009043D01*
X015035Y009039D01*
X015015Y009039D01*
X014995Y009043D01*
X014976Y009051D01*
X014958Y009061D01*
X014943Y009075D01*
X014931Y009092D01*
X014921Y009110D01*
X014916Y009130D01*
X014914Y009150D01*
D13*
X011624Y002897D02*
X011390Y002897D01*
X011332Y002839D01*
X011332Y002663D01*
X011682Y002663D01*
X011682Y002839D01*
X011624Y002897D01*
X011682Y002529D02*
X011332Y002529D01*
X011332Y002295D02*
X011682Y002529D01*
X011682Y002295D02*
X011332Y002295D01*
X011390Y002160D02*
X011332Y002102D01*
X011332Y001985D01*
X011390Y001927D01*
X011624Y001927D01*
X011682Y001985D01*
X011682Y002102D01*
X011624Y002160D01*
X011507Y002160D01*
X011507Y002044D01*
X012282Y001941D02*
X012515Y001941D01*
X012632Y002058D01*
X012515Y002174D01*
X012282Y002174D01*
X012399Y002309D02*
X012399Y002368D01*
X012632Y002368D01*
X012632Y002426D02*
X012632Y002309D01*
X012632Y002555D02*
X012399Y002555D01*
X012399Y002730D01*
X012457Y002788D01*
X012632Y002788D01*
X012282Y002368D02*
X012223Y002368D01*
X010632Y002479D02*
X010282Y002479D01*
X010282Y002613D02*
X010282Y002789D01*
X010340Y002847D01*
X010574Y002847D01*
X010632Y002789D01*
X010632Y002613D01*
X010282Y002613D01*
X010282Y002245D02*
X010632Y002479D01*
X010632Y002245D02*
X010282Y002245D01*
X010340Y002110D02*
X010282Y002052D01*
X010282Y001935D01*
X010340Y001877D01*
X010574Y001877D01*
X010632Y001935D01*
X010632Y002052D01*
X010574Y002110D01*
X010457Y002110D01*
X010457Y001994D01*
X009682Y001975D02*
X009624Y001917D01*
X009682Y001975D02*
X009682Y002092D01*
X009624Y002150D01*
X009507Y002150D01*
X009449Y002092D01*
X009449Y002034D01*
X009507Y001917D01*
X009332Y001917D01*
X009332Y002150D01*
X009332Y002285D02*
X009565Y002285D01*
X009682Y002402D01*
X009565Y002519D01*
X009332Y002519D01*
X007614Y002415D02*
X007614Y002298D01*
X007556Y002240D01*
X007439Y002298D02*
X007439Y002415D01*
X007497Y002474D01*
X007556Y002474D01*
X007614Y002415D01*
X007439Y002298D02*
X007380Y002240D01*
X007322Y002240D01*
X007264Y002298D01*
X007264Y002415D01*
X007322Y002474D01*
X007264Y002608D02*
X007264Y002842D01*
X007264Y002725D02*
X007614Y002725D01*
X007614Y002105D02*
X007497Y001988D01*
X007497Y002047D02*
X007497Y001872D01*
X007614Y001872D02*
X007264Y001872D01*
X007264Y002047D01*
X007322Y002105D01*
X007439Y002105D01*
X007497Y002047D01*
X002507Y003760D02*
X002507Y003877D01*
X002449Y003935D01*
X002332Y003935D01*
X002332Y003819D01*
X002215Y003935D02*
X002157Y003877D01*
X002157Y003760D01*
X002215Y003702D01*
X002449Y003702D01*
X002507Y003760D01*
X002507Y004070D02*
X002157Y004070D01*
X002507Y004304D01*
X002157Y004304D01*
X002157Y004438D02*
X002157Y004614D01*
X002215Y004672D01*
X002449Y004672D01*
X002507Y004614D01*
X002507Y004438D01*
X002157Y004438D01*
X002157Y005442D02*
X002332Y005442D01*
X002274Y005559D01*
X002274Y005617D01*
X002332Y005675D01*
X002449Y005675D01*
X002507Y005617D01*
X002507Y005500D01*
X002449Y005442D01*
X002157Y005442D02*
X002157Y005675D01*
X002157Y005810D02*
X002390Y005810D01*
X002507Y005927D01*
X002390Y006044D01*
X002157Y006044D01*
X002157Y006442D02*
X002157Y006617D01*
X002215Y006675D01*
X002332Y006675D01*
X002390Y006617D01*
X002390Y006442D01*
X002390Y006559D02*
X002507Y006675D01*
X002507Y006810D02*
X002157Y007044D01*
X002157Y006810D02*
X002507Y007044D01*
X002157Y007442D02*
X002157Y007675D01*
X002157Y007559D02*
X002507Y007559D01*
X002507Y007810D02*
X002157Y008044D01*
X002139Y008247D02*
X002139Y008422D01*
X002197Y008480D01*
X002314Y008480D01*
X002372Y008422D01*
X002372Y008247D01*
X002372Y008363D02*
X002489Y008480D01*
X002431Y008615D02*
X002489Y008673D01*
X002489Y008790D01*
X002431Y008849D01*
X002372Y008849D01*
X002314Y008790D01*
X002314Y008673D01*
X002255Y008615D01*
X002197Y008615D01*
X002139Y008673D01*
X002139Y008790D01*
X002197Y008849D01*
X002139Y008983D02*
X002139Y009217D01*
X002139Y009100D02*
X002489Y009100D01*
X002120Y009416D02*
X002120Y009766D01*
X002003Y009766D02*
X002237Y009766D01*
X001868Y009707D02*
X001868Y009591D01*
X001810Y009532D01*
X001635Y009532D01*
X001635Y009416D02*
X001635Y009766D01*
X001810Y009766D01*
X001868Y009707D01*
X001752Y009532D02*
X001868Y009416D01*
X001500Y009416D02*
X001500Y009649D01*
X001383Y009766D01*
X001267Y009649D01*
X001267Y009416D01*
X001132Y009474D02*
X001132Y009766D01*
X001267Y009591D02*
X001500Y009591D01*
X001132Y009474D02*
X001073Y009416D01*
X000957Y009416D01*
X000898Y009474D01*
X000898Y009766D01*
X002139Y008247D02*
X002489Y008247D01*
X002507Y008044D02*
X002157Y007810D01*
X002157Y006442D02*
X002507Y006442D01*
X006550Y012525D02*
X006550Y013325D01*
X007345Y013831D02*
X005255Y013831D01*
X005255Y014619D01*
X007345Y014619D01*
X007345Y013831D01*
X004750Y014833D02*
X004750Y014950D01*
X004692Y015009D01*
X004400Y015009D01*
X004458Y015143D02*
X004516Y015143D01*
X004575Y015202D01*
X004575Y015318D01*
X004633Y015377D01*
X004692Y015377D01*
X004750Y015318D01*
X004750Y015202D01*
X004692Y015143D01*
X004458Y015143D02*
X004400Y015202D01*
X004400Y015318D01*
X004458Y015377D01*
X004400Y015512D02*
X004400Y015687D01*
X004458Y015745D01*
X004516Y015745D01*
X004575Y015687D01*
X004575Y015512D01*
X004575Y015687D02*
X004633Y015745D01*
X004692Y015745D01*
X004750Y015687D01*
X004750Y015512D01*
X004400Y015512D01*
X004400Y014775D02*
X004692Y014775D01*
X004750Y014833D01*
X004609Y017555D02*
X004668Y017613D01*
X004668Y017730D01*
X004609Y017788D01*
X004492Y017788D01*
X004492Y017672D01*
X004376Y017788D02*
X004317Y017730D01*
X004317Y017613D01*
X004376Y017555D01*
X004609Y017555D01*
X004668Y017923D02*
X004317Y017923D01*
X004668Y018157D01*
X004317Y018157D01*
X004317Y018291D02*
X004317Y018467D01*
X004376Y018525D01*
X004609Y018525D01*
X004668Y018467D01*
X004668Y018291D01*
X004317Y018291D01*
X003663Y018281D02*
X003313Y018281D01*
X003313Y018515D01*
X003488Y018398D02*
X003488Y018281D01*
X003488Y018147D02*
X003547Y018088D01*
X003547Y017913D01*
X003663Y017913D02*
X003313Y017913D01*
X003313Y018088D01*
X003371Y018147D01*
X003488Y018147D01*
X003547Y018030D02*
X003663Y018147D01*
X003663Y017778D02*
X003430Y017778D01*
X003313Y017662D01*
X003430Y017545D01*
X003663Y017545D01*
X003488Y017545D02*
X003488Y017778D01*
X002663Y017720D02*
X002663Y017603D01*
X002605Y017545D01*
X002488Y017603D02*
X002488Y017720D01*
X002547Y017778D01*
X002605Y017778D01*
X002663Y017720D01*
X002663Y017913D02*
X002313Y017913D01*
X002313Y018088D01*
X002371Y018147D01*
X002605Y018147D01*
X002663Y018088D01*
X002663Y017913D01*
X002371Y017778D02*
X002313Y017720D01*
X002313Y017603D01*
X002371Y017545D01*
X002430Y017545D01*
X002488Y017603D01*
X002488Y018281D02*
X002488Y018515D01*
X002430Y018515D02*
X002663Y018515D01*
X002430Y018515D02*
X002313Y018398D01*
X002430Y018281D01*
X002663Y018281D01*
X001663Y018331D02*
X001663Y018565D01*
X001663Y018331D02*
X001313Y018331D01*
X001371Y018197D02*
X001313Y018138D01*
X001313Y018021D01*
X001371Y017963D01*
X001605Y017963D01*
X001663Y018021D01*
X001663Y018138D01*
X001605Y018197D01*
X001605Y017828D02*
X001663Y017770D01*
X001663Y017653D01*
X001605Y017595D01*
X001488Y017653D02*
X001488Y017770D01*
X001547Y017828D01*
X001605Y017828D01*
X001488Y017653D02*
X001430Y017595D01*
X001371Y017595D01*
X001313Y017653D01*
X001313Y017770D01*
X001371Y017828D01*
X014169Y017502D02*
X014169Y017152D01*
X014169Y017269D02*
X014345Y017269D01*
X014403Y017327D01*
X014403Y017444D01*
X014345Y017502D01*
X014169Y017502D01*
X014538Y017502D02*
X014538Y017152D01*
X014654Y017269D01*
X014771Y017152D01*
X014771Y017502D01*
X014906Y017502D02*
X014906Y017152D01*
X015140Y017152D02*
X015140Y017502D01*
X015023Y017386D01*
X014906Y017502D01*
X015274Y017386D02*
X015274Y017327D01*
X015333Y017327D01*
X015333Y017386D01*
X015274Y017386D01*
X015274Y017210D02*
X015274Y017152D01*
X015333Y017152D01*
X015333Y017210D01*
X015274Y017210D01*
X018327Y017118D02*
X018677Y016885D01*
X018677Y017118D02*
X018327Y016885D01*
X018327Y016750D02*
X018327Y016517D01*
X018327Y016633D02*
X018677Y016633D01*
X019250Y016692D02*
X019250Y016517D01*
X019601Y016517D01*
X019484Y016517D02*
X019484Y016692D01*
X019425Y016750D01*
X019309Y016750D01*
X019250Y016692D01*
X019250Y016885D02*
X019601Y017118D01*
X019601Y016885D02*
X019250Y017118D01*
X019601Y016750D02*
X019484Y016633D01*
D14*
X019520Y013175D02*
X019613Y013175D01*
X019567Y013175D02*
X019567Y012895D01*
X019613Y012895D02*
X019520Y012895D01*
X019716Y012942D02*
X019763Y012895D01*
X019857Y012895D01*
X019903Y012942D01*
X020011Y012942D02*
X020058Y012895D01*
X020151Y012895D01*
X020198Y012942D01*
X020198Y012988D01*
X020151Y013035D01*
X020058Y013035D01*
X020011Y013082D01*
X020011Y013129D01*
X020058Y013175D01*
X020151Y013175D01*
X020198Y013129D01*
X020306Y013175D02*
X020306Y012895D01*
X020306Y012988D02*
X020446Y012988D01*
X020493Y013035D01*
X020493Y013129D01*
X020446Y013175D01*
X020306Y013175D01*
X019903Y013129D02*
X019857Y013175D01*
X019763Y013175D01*
X019716Y013129D01*
X019716Y012942D01*
X018898Y012859D02*
X018898Y012672D01*
X018898Y012766D02*
X018618Y012766D01*
X018711Y012672D01*
X019532Y005116D02*
X019672Y005116D01*
X019719Y005069D01*
X019719Y004976D01*
X019672Y004929D01*
X019532Y004929D01*
X019532Y004836D02*
X019532Y005116D01*
X019626Y004929D02*
X019719Y004836D01*
X019827Y004883D02*
X019827Y004976D01*
X019874Y005023D01*
X019967Y005023D01*
X020014Y004976D01*
X020014Y004929D01*
X019827Y004929D01*
X019827Y004883D02*
X019874Y004836D01*
X019967Y004836D01*
X020122Y004836D02*
X020262Y004836D01*
X020308Y004883D01*
X020262Y004929D01*
X020168Y004929D01*
X020122Y004976D01*
X020168Y005023D01*
X020308Y005023D01*
X020416Y004976D02*
X020463Y005023D01*
X020556Y005023D01*
X020603Y004976D01*
X020603Y004929D01*
X020416Y004929D01*
X020416Y004883D02*
X020416Y004976D01*
X020416Y004883D02*
X020463Y004836D01*
X020556Y004836D01*
X020758Y004883D02*
X020758Y005069D01*
X020711Y005023D02*
X020804Y005023D01*
X020758Y004883D02*
X020804Y004836D01*
X008687Y002742D02*
X008594Y002835D01*
X008407Y002835D01*
X008407Y002649D02*
X008594Y002649D01*
X008687Y002742D01*
X008640Y002541D02*
X008687Y002494D01*
X008687Y002401D01*
X008640Y002354D01*
X008640Y002253D02*
X008687Y002253D01*
X008687Y002207D01*
X008640Y002207D01*
X008640Y002253D01*
X008640Y002099D02*
X008687Y002052D01*
X008687Y001959D01*
X008640Y001912D01*
X008547Y002005D02*
X008547Y002052D01*
X008594Y002099D01*
X008640Y002099D01*
X008547Y002052D02*
X008500Y002099D01*
X008454Y002099D01*
X008407Y002052D01*
X008407Y001959D01*
X008454Y001912D01*
X008454Y002354D02*
X008407Y002401D01*
X008407Y002494D01*
X008454Y002541D01*
X008500Y002541D01*
X008547Y002494D01*
X008594Y002541D01*
X008640Y002541D01*
X008547Y002494D02*
X008547Y002447D01*
X003775Y011211D02*
X003495Y011211D01*
X003495Y011351D01*
X003541Y011398D01*
X003635Y011398D01*
X003682Y011351D01*
X003682Y011211D01*
X003775Y011506D02*
X003495Y011506D01*
X003495Y011693D02*
X003775Y011693D01*
X003682Y011599D01*
X003775Y011506D01*
X003775Y011800D02*
X003495Y011800D01*
X003495Y011940D01*
X003541Y011987D01*
X003635Y011987D01*
X003682Y011940D01*
X003682Y011800D01*
X003682Y011894D02*
X003775Y011987D01*
X002654Y013570D02*
X002654Y013631D01*
X002656Y013647D01*
X002660Y013662D01*
X002668Y013677D01*
X002678Y013689D01*
X002690Y013699D01*
X002705Y013707D01*
X002720Y013711D01*
X002736Y013713D01*
X001827Y013713D01*
X001735Y014060D02*
X001735Y014142D01*
X000794Y014244D01*
X000794Y014448D01*
X001735Y014551D01*
X001735Y014632D01*
X000651Y014530D01*
X000632Y014526D01*
X000613Y014520D01*
X000596Y014510D01*
X000580Y014498D01*
X000567Y014483D01*
X000556Y014466D01*
X000549Y014448D01*
X000549Y014224D02*
X000556Y014206D01*
X000567Y014189D01*
X000580Y014174D01*
X000596Y014162D01*
X000613Y014152D01*
X000632Y014146D01*
X000651Y014142D01*
X001735Y014060D01*
X000550Y014224D02*
X000541Y014261D01*
X000535Y014298D01*
X000533Y014336D01*
X000535Y014374D01*
X000541Y014411D01*
X000550Y014448D01*
X000651Y014735D02*
X002246Y014816D01*
X002264Y014819D01*
X002281Y014826D01*
X002296Y014835D01*
X002309Y014848D01*
X002318Y014863D01*
X002325Y014880D01*
X002328Y014898D01*
X002327Y014898D02*
X002327Y015552D01*
X002328Y015552D02*
X002325Y015570D01*
X002318Y015587D01*
X002309Y015602D01*
X002296Y015615D01*
X002281Y015624D01*
X002264Y015631D01*
X002246Y015634D01*
X000651Y015716D01*
X000635Y015714D01*
X000620Y015710D01*
X000605Y015702D01*
X000593Y015692D01*
X000583Y015680D01*
X000575Y015665D01*
X000571Y015650D01*
X000569Y015634D01*
X000570Y015634D02*
X000570Y015634D01*
X000569Y015634D02*
X000571Y015618D01*
X000575Y015603D01*
X000583Y015588D01*
X000593Y015576D01*
X000605Y015566D01*
X000620Y015558D01*
X000635Y015554D01*
X000651Y015552D01*
X002000Y015470D01*
X002000Y014980D01*
X000651Y014898D01*
X000635Y014896D01*
X000620Y014892D01*
X000605Y014884D01*
X000593Y014874D01*
X000583Y014862D01*
X000575Y014847D01*
X000571Y014832D01*
X000569Y014816D01*
X000571Y014800D01*
X000575Y014785D01*
X000583Y014770D01*
X000593Y014758D01*
X000605Y014748D01*
X000620Y014740D01*
X000635Y014736D01*
X000651Y014734D01*
X000712Y013713D02*
X000120Y013713D01*
X000120Y016737D01*
X000712Y016737D01*
X000651Y016308D02*
X001735Y016390D01*
X001735Y016308D01*
X000794Y016206D01*
X000794Y016002D01*
X001735Y015899D01*
X001735Y015818D01*
X000651Y015920D01*
X000632Y015924D01*
X000613Y015930D01*
X000596Y015940D01*
X000580Y015952D01*
X000567Y015967D01*
X000556Y015984D01*
X000549Y016002D01*
X000549Y016227D02*
X000556Y016245D01*
X000567Y016262D01*
X000580Y016277D01*
X000596Y016289D01*
X000613Y016299D01*
X000632Y016305D01*
X000651Y016309D01*
X000550Y016226D02*
X000541Y016189D01*
X000535Y016152D01*
X000533Y016114D01*
X000535Y016076D01*
X000541Y016039D01*
X000550Y016002D01*
X001827Y016737D02*
X002736Y016737D01*
X002720Y016739D01*
X002705Y016743D01*
X002690Y016751D01*
X002678Y016761D01*
X002668Y016773D01*
X002660Y016788D01*
X002656Y016803D01*
X002654Y016819D01*
X002654Y016881D01*
X002777Y016022D02*
X002777Y016022D01*
X002793Y016020D01*
X002808Y016016D01*
X002823Y016008D01*
X002835Y015998D01*
X002845Y015986D01*
X002853Y015971D01*
X002857Y015956D01*
X002859Y015940D01*
X002859Y014510D01*
X002859Y014510D01*
X002857Y014494D01*
X002853Y014479D01*
X002845Y014464D01*
X002835Y014452D01*
X002823Y014442D01*
X002808Y014434D01*
X002793Y014430D01*
X002777Y014428D01*
X002757Y014430D01*
X002738Y014436D01*
X002720Y014445D01*
X002705Y014458D01*
X002692Y014473D01*
X002683Y014491D01*
X002677Y014510D01*
X002675Y014530D01*
X002675Y014530D01*
X002675Y015920D01*
X002677Y015940D01*
X002683Y015959D01*
X002692Y015977D01*
X002705Y015992D01*
X002720Y016005D01*
X002738Y016014D01*
X002757Y016020D01*
X002777Y016022D01*
X003063Y016022D02*
X003799Y016022D01*
X003819Y016022D02*
X003819Y016410D01*
X003799Y016410D02*
X003656Y016410D01*
X002328Y015552D02*
X002328Y015552D01*
X003063Y014428D02*
X003799Y014428D01*
X003819Y014428D02*
X003819Y014040D01*
X003799Y014040D02*
X003656Y014040D01*
X000120Y013713D02*
X000120Y013713D01*
D15*
X005207Y017893D02*
X005345Y017755D01*
X005207Y017893D02*
X005620Y017893D01*
X005620Y018030D02*
X005620Y017755D01*
X005551Y018190D02*
X005620Y018259D01*
X005620Y018396D01*
X005551Y018465D01*
X005482Y018465D01*
X005414Y018396D01*
X005414Y018328D01*
X005414Y018396D02*
X005345Y018465D01*
X005276Y018465D01*
X005207Y018396D01*
X005207Y018259D01*
X005276Y018190D01*
X006207Y018259D02*
X006276Y018190D01*
X006207Y018259D02*
X006207Y018396D01*
X006276Y018465D01*
X006345Y018465D01*
X006620Y018190D01*
X006620Y018465D01*
X006620Y018030D02*
X006620Y017755D01*
X006620Y017893D02*
X006207Y017893D01*
X006345Y017755D01*
X007138Y017524D02*
X007276Y017661D01*
X007207Y017730D01*
X007345Y017890D02*
X007207Y018028D01*
X007620Y018028D01*
X007620Y018165D02*
X007620Y017890D01*
X007620Y018325D02*
X007620Y018600D01*
X007620Y018463D02*
X007207Y018463D01*
X007345Y018325D01*
X007138Y017524D02*
X007207Y017455D01*
X008238Y017524D02*
X008376Y017661D01*
X008307Y017730D01*
X008445Y017890D02*
X008307Y018028D01*
X008720Y018028D01*
X008720Y018165D02*
X008720Y017890D01*
X009138Y017924D02*
X009276Y018061D01*
X009207Y018130D01*
X009276Y018290D02*
X009207Y018359D01*
X009207Y018496D01*
X009276Y018565D01*
X009551Y018565D01*
X009620Y018496D01*
X009620Y018359D01*
X009551Y018290D01*
X009414Y018359D02*
X009414Y018565D01*
X009414Y018359D02*
X009345Y018290D01*
X009276Y018290D01*
X009138Y017924D02*
X009207Y017855D01*
X008720Y018394D02*
X008651Y018325D01*
X008376Y018600D01*
X008651Y018600D01*
X008720Y018531D01*
X008720Y018394D01*
X008651Y018325D02*
X008376Y018325D01*
X008307Y018394D01*
X008307Y018531D01*
X008376Y018600D01*
X008238Y017524D02*
X008307Y017455D01*
X010207Y018324D02*
X010207Y018461D01*
X010276Y018530D01*
X010345Y018530D01*
X010414Y018461D01*
X010414Y018324D01*
X010345Y018255D01*
X010276Y018255D01*
X010207Y018324D01*
X010414Y018324D02*
X010482Y018255D01*
X010551Y018255D01*
X010620Y018324D01*
X010620Y018461D01*
X010551Y018530D01*
X010482Y018530D01*
X010414Y018461D01*
X012207Y018530D02*
X012207Y018255D01*
X012207Y018530D02*
X012276Y018530D01*
X012551Y018255D01*
X012620Y018255D01*
X013207Y018130D02*
X013276Y018061D01*
X013138Y017924D01*
X013207Y017855D01*
X013414Y018290D02*
X013414Y018496D01*
X013482Y018565D01*
X013551Y018565D01*
X013620Y018496D01*
X013620Y018359D01*
X013551Y018290D01*
X013414Y018290D01*
X013276Y018428D01*
X013207Y018565D01*
X014307Y018565D02*
X014307Y018290D01*
X014514Y018290D01*
X014445Y018428D01*
X014445Y018496D01*
X014514Y018565D01*
X014651Y018565D01*
X014720Y018496D01*
X014720Y018359D01*
X014651Y018290D01*
X014376Y018061D02*
X014307Y018130D01*
X014376Y018061D02*
X014238Y017924D01*
X014307Y017855D01*
X015207Y018361D02*
X015414Y018155D01*
X015414Y018430D01*
X015620Y018361D02*
X015207Y018361D01*
X016138Y017924D02*
X016276Y018061D01*
X016207Y018130D01*
X016276Y018290D02*
X016207Y018359D01*
X016207Y018496D01*
X016276Y018565D01*
X016345Y018565D01*
X016414Y018496D01*
X016482Y018565D01*
X016551Y018565D01*
X016620Y018496D01*
X016620Y018359D01*
X016551Y018290D01*
X016414Y018428D02*
X016414Y018496D01*
X016138Y017924D02*
X016207Y017855D01*
X015810Y017303D02*
X015736Y017229D01*
X015589Y017376D01*
X015516Y017303D01*
X017207Y018324D02*
X017276Y018255D01*
X017207Y018324D02*
X017207Y018461D01*
X017276Y018530D01*
X017345Y018530D01*
X017620Y018255D01*
X017620Y018530D01*
X018207Y018393D02*
X018345Y018255D01*
X018207Y018393D02*
X018620Y018393D01*
X018620Y018530D02*
X018620Y018255D01*
X019207Y018324D02*
X019207Y018461D01*
X019276Y018530D01*
X019551Y018255D01*
X019620Y018324D01*
X019620Y018461D01*
X019551Y018530D01*
X019276Y018530D01*
X019207Y018324D02*
X019276Y018255D01*
X019551Y018255D01*
X019501Y002665D02*
X019364Y002665D01*
X019295Y002596D01*
X019295Y002528D01*
X019364Y002390D01*
X019157Y002390D01*
X019157Y002665D01*
X019501Y002665D02*
X019570Y002596D01*
X019570Y002459D01*
X019501Y002390D01*
X019570Y002230D02*
X019295Y002230D01*
X019157Y002093D01*
X019295Y001955D01*
X019570Y001955D01*
X019364Y001955D02*
X019364Y002230D01*
X018570Y002230D02*
X018295Y002230D01*
X018157Y002093D01*
X018295Y001955D01*
X018570Y001955D01*
X018364Y001955D02*
X018364Y002230D01*
X018364Y002390D02*
X018364Y002665D01*
X018570Y002596D02*
X018157Y002596D01*
X018364Y002390D01*
X017570Y002459D02*
X017501Y002390D01*
X017570Y002459D02*
X017570Y002596D01*
X017501Y002665D01*
X017432Y002665D01*
X017364Y002596D01*
X017364Y002528D01*
X017364Y002596D02*
X017295Y002665D01*
X017226Y002665D01*
X017157Y002596D01*
X017157Y002459D01*
X017226Y002390D01*
X017295Y002230D02*
X017157Y002093D01*
X017295Y001955D01*
X017570Y001955D01*
X017364Y001955D02*
X017364Y002230D01*
X017295Y002230D02*
X017570Y002230D01*
X016570Y002230D02*
X016295Y002230D01*
X016157Y002093D01*
X016295Y001955D01*
X016570Y001955D01*
X016364Y001955D02*
X016364Y002230D01*
X016226Y002390D02*
X016157Y002459D01*
X016157Y002596D01*
X016226Y002665D01*
X016295Y002665D01*
X016570Y002390D01*
X016570Y002665D01*
X015470Y002665D02*
X015470Y002390D01*
X015470Y002528D02*
X015057Y002528D01*
X015195Y002390D01*
X015195Y002230D02*
X015057Y002093D01*
X015195Y001955D01*
X015470Y001955D01*
X015264Y001955D02*
X015264Y002230D01*
X015195Y002230D02*
X015470Y002230D01*
X014570Y002230D02*
X014295Y002230D01*
X014157Y002093D01*
X014295Y001955D01*
X014570Y001955D01*
X014364Y001955D02*
X014364Y002230D01*
X014501Y002390D02*
X014226Y002390D01*
X014157Y002459D01*
X014157Y002596D01*
X014226Y002665D01*
X014501Y002390D01*
X014570Y002459D01*
X014570Y002596D01*
X014501Y002665D01*
X014226Y002665D01*
D16*
X013950Y002725D02*
X014450Y003225D01*
X014700Y003225D01*
X012950Y002725D02*
X012450Y003225D01*
X011450Y003225D01*
X008450Y003225D02*
X007450Y003225D01*
X006950Y002725D01*
X018950Y003225D02*
X019300Y003225D01*
X019800Y002725D01*
X019550Y017325D02*
X016050Y017325D01*
X013950Y017325D02*
X012950Y017325D01*
X009850Y017325D02*
X005350Y017325D01*
X004950Y017725D01*
X019550Y017325D02*
X019950Y017725D01*
D17*
X016054Y016296D02*
X016055Y014351D01*
X015194Y014351D01*
X015194Y016296D01*
X016054Y016296D01*
X011429Y014946D02*
X011430Y013001D01*
X010569Y013001D01*
X010569Y014946D01*
X011429Y014946D01*
X008580Y015001D02*
X007719Y015001D01*
X007719Y016946D01*
X008579Y016946D01*
X008580Y015001D01*
X003124Y012705D02*
X003124Y011844D01*
X001179Y011844D01*
X001179Y012704D01*
X003124Y012705D01*
X007970Y007424D02*
X008831Y007424D01*
X008831Y005479D01*
X007971Y005479D01*
X007970Y007424D01*
X009120Y007449D02*
X009981Y007449D01*
X009981Y005504D01*
X009121Y005504D01*
X009120Y007449D01*
X010220Y007449D02*
X011081Y007449D01*
X011081Y005504D01*
X010221Y005504D01*
X010220Y007449D01*
X014444Y007496D02*
X014444Y005551D01*
X015305Y005551D01*
X015304Y007496D01*
X014444Y007496D01*
X015970Y007499D02*
X016831Y007499D01*
X016831Y005554D01*
X015971Y005554D01*
X015970Y007499D01*
X016671Y009204D02*
X017531Y009204D01*
X017531Y011149D01*
X016670Y011149D01*
X016671Y009204D01*
X017871Y009204D02*
X018731Y009204D01*
X018731Y011149D01*
X017870Y011149D01*
X017871Y009204D01*
X018979Y009554D02*
X018979Y008694D01*
X020924Y008694D01*
X020924Y009555D01*
X018979Y009554D01*
D18*
X018215Y007948D02*
X018119Y007948D01*
X018070Y007899D01*
X017969Y007899D02*
X017969Y007803D01*
X017921Y007754D01*
X017776Y007754D01*
X017872Y007754D02*
X017969Y007658D01*
X018070Y007658D02*
X018264Y007851D01*
X018264Y007899D01*
X018215Y007948D01*
X017969Y007899D02*
X017921Y007948D01*
X017776Y007948D01*
X017776Y007658D01*
X018070Y007658D02*
X018264Y007658D01*
X016825Y007740D02*
X016631Y007740D01*
X016777Y007885D01*
X016777Y007594D01*
X016530Y007594D02*
X016337Y007594D01*
X016434Y007594D02*
X016434Y007885D01*
X016337Y007788D01*
X016236Y007836D02*
X016187Y007885D01*
X016090Y007885D01*
X016042Y007836D01*
X016042Y007643D01*
X016090Y007594D01*
X016187Y007594D01*
X016236Y007643D01*
X015914Y008370D02*
X015720Y008370D01*
X015817Y008370D02*
X015817Y008660D01*
X015720Y008563D01*
X015619Y008660D02*
X015619Y008418D01*
X015571Y008370D01*
X015474Y008370D01*
X015426Y008418D01*
X015426Y008660D01*
X015042Y007885D02*
X015042Y007595D01*
X014945Y007595D02*
X015139Y007595D01*
X014945Y007788D02*
X015042Y007885D01*
X014844Y007837D02*
X014796Y007885D01*
X014699Y007885D01*
X014651Y007837D01*
X014651Y007643D01*
X014699Y007595D01*
X014796Y007595D01*
X014844Y007643D01*
X016940Y011244D02*
X016892Y011293D01*
X016892Y011486D01*
X016940Y011535D01*
X017037Y011535D01*
X017086Y011486D01*
X017187Y011486D02*
X017235Y011535D01*
X017332Y011535D01*
X017380Y011486D01*
X017380Y011438D01*
X017332Y011390D01*
X017380Y011341D01*
X017380Y011293D01*
X017332Y011244D01*
X017235Y011244D01*
X017187Y011293D01*
X017086Y011293D02*
X017037Y011244D01*
X016940Y011244D01*
X017284Y011390D02*
X017332Y011390D01*
X018092Y011486D02*
X018092Y011293D01*
X018140Y011244D01*
X018237Y011244D01*
X018286Y011293D01*
X018387Y011390D02*
X018580Y011390D01*
X018532Y011535D02*
X018387Y011390D01*
X018286Y011486D02*
X018237Y011535D01*
X018140Y011535D01*
X018092Y011486D01*
X018532Y011535D02*
X018532Y011244D01*
X021019Y009313D02*
X021019Y009217D01*
X021068Y009168D01*
X021068Y009067D02*
X021019Y009019D01*
X021019Y008922D01*
X021068Y008874D01*
X021261Y008874D01*
X021309Y008922D01*
X021309Y009019D01*
X021261Y009067D01*
X021309Y009168D02*
X021116Y009362D01*
X021068Y009362D01*
X021019Y009313D01*
X021309Y009362D02*
X021309Y009168D01*
X015763Y016416D02*
X015812Y016464D01*
X015812Y016657D01*
X015763Y016706D01*
X015667Y016706D01*
X015618Y016657D01*
X015618Y016609D01*
X015667Y016561D01*
X015812Y016561D01*
X015763Y016416D02*
X015667Y016416D01*
X015618Y016464D01*
X015517Y016464D02*
X015469Y016416D01*
X015372Y016416D01*
X015324Y016464D01*
X015324Y016657D01*
X015372Y016706D01*
X015469Y016706D01*
X015517Y016657D01*
X014103Y015740D02*
X013910Y015740D01*
X014006Y015740D02*
X014006Y016030D01*
X013910Y015933D01*
X013808Y015982D02*
X013808Y016030D01*
X013808Y015982D02*
X013712Y015885D01*
X013712Y015740D01*
X013712Y015885D02*
X013615Y015982D01*
X013615Y016030D01*
X011437Y015257D02*
X011437Y015209D01*
X011388Y015161D01*
X011437Y015112D01*
X011437Y015064D01*
X011388Y015016D01*
X011292Y015016D01*
X011243Y015064D01*
X011142Y015016D02*
X010949Y015016D01*
X011045Y015016D02*
X011045Y015306D01*
X010949Y015209D01*
X010847Y015257D02*
X010799Y015306D01*
X010702Y015306D01*
X010654Y015257D01*
X010654Y015064D01*
X010702Y015016D01*
X010799Y015016D01*
X010847Y015064D01*
X011243Y015257D02*
X011292Y015306D01*
X011388Y015306D01*
X011437Y015257D01*
X011388Y015161D02*
X011340Y015161D01*
X009164Y015818D02*
X009115Y015770D01*
X009019Y015770D01*
X008970Y015818D01*
X008970Y015915D02*
X009067Y015963D01*
X009115Y015963D01*
X009164Y015915D01*
X009164Y015818D01*
X008970Y015915D02*
X008970Y016060D01*
X009164Y016060D01*
X008869Y016012D02*
X008821Y016060D01*
X008724Y016060D01*
X008676Y016012D01*
X008676Y015818D01*
X008724Y015770D01*
X008821Y015770D01*
X008869Y015818D01*
X008827Y013774D02*
X008682Y013774D01*
X008682Y013484D01*
X008827Y013484D01*
X008875Y013532D01*
X008875Y013726D01*
X008827Y013774D01*
X008977Y013677D02*
X009073Y013774D01*
X009073Y013484D01*
X008977Y013484D02*
X009170Y013484D01*
X009376Y011060D02*
X009521Y011060D01*
X009569Y011012D01*
X009569Y010915D01*
X009521Y010867D01*
X009376Y010867D01*
X009472Y010867D02*
X009569Y010770D01*
X009670Y010818D02*
X009719Y010770D01*
X009815Y010770D01*
X009864Y010818D01*
X009864Y011012D01*
X009815Y011060D01*
X009719Y011060D01*
X009670Y011012D01*
X009670Y010963D01*
X009719Y010915D01*
X009864Y010915D01*
X009376Y010770D02*
X009376Y011060D01*
X006430Y011256D02*
X006140Y011256D01*
X006140Y011401D01*
X006188Y011450D01*
X006285Y011450D01*
X006333Y011401D01*
X006333Y011256D01*
X006333Y011353D02*
X006430Y011450D01*
X006430Y011551D02*
X006430Y011744D01*
X006430Y011647D02*
X006140Y011647D01*
X006237Y011551D01*
X006237Y011845D02*
X006140Y011942D01*
X006430Y011942D01*
X006430Y011845D02*
X006430Y012039D01*
X005241Y012746D02*
X005241Y012842D01*
X005193Y012891D01*
X005193Y012992D02*
X005096Y012992D01*
X005096Y013137D01*
X005145Y013185D01*
X005193Y013185D01*
X005241Y013137D01*
X005241Y013040D01*
X005193Y012992D01*
X005096Y012992D02*
X004999Y013089D01*
X004951Y013185D01*
X004999Y012891D02*
X004951Y012842D01*
X004951Y012746D01*
X004999Y012697D01*
X005193Y012697D01*
X005241Y012746D01*
X005135Y013990D02*
X004845Y013990D01*
X004845Y014183D01*
X004893Y014285D02*
X004845Y014333D01*
X004845Y014430D01*
X004893Y014478D01*
X004942Y014478D01*
X005135Y014285D01*
X005135Y014478D01*
X004990Y014087D02*
X004990Y013990D01*
X004965Y015051D02*
X004965Y015196D01*
X005013Y015244D01*
X005110Y015244D01*
X005158Y015196D01*
X005158Y015051D01*
X005158Y015147D02*
X005255Y015244D01*
X005110Y015345D02*
X005110Y015539D01*
X005255Y015490D02*
X004965Y015490D01*
X005110Y015345D01*
X005255Y015051D02*
X004965Y015051D01*
X004915Y016251D02*
X004915Y016396D01*
X004963Y016444D01*
X005060Y016444D01*
X005108Y016396D01*
X005108Y016251D01*
X005108Y016347D02*
X005205Y016444D01*
X005157Y016545D02*
X005205Y016594D01*
X005205Y016690D01*
X005157Y016739D01*
X005060Y016739D01*
X005012Y016690D01*
X005012Y016642D01*
X005060Y016545D01*
X004915Y016545D01*
X004915Y016739D01*
X004915Y016251D02*
X005205Y016251D01*
X001081Y012362D02*
X001032Y012362D01*
X000839Y012555D01*
X000790Y012555D01*
X000790Y012362D01*
X000839Y012261D02*
X000790Y012212D01*
X000790Y012115D01*
X000839Y012067D01*
X001032Y012067D01*
X001081Y012115D01*
X001081Y012212D01*
X001032Y012261D01*
X001085Y011378D02*
X001085Y011185D01*
X001085Y011281D02*
X000795Y011281D01*
X000892Y011185D01*
X000940Y011083D02*
X000988Y011035D01*
X000988Y010890D01*
X000988Y010987D02*
X001085Y011083D01*
X000940Y011083D02*
X000843Y011083D01*
X000795Y011035D01*
X000795Y010890D01*
X001085Y010890D01*
X008042Y005311D02*
X008042Y005118D01*
X008090Y005069D01*
X008187Y005069D01*
X008236Y005118D01*
X008337Y005069D02*
X008530Y005069D01*
X008434Y005069D02*
X008434Y005360D01*
X008337Y005263D01*
X008236Y005311D02*
X008187Y005360D01*
X008090Y005360D01*
X008042Y005311D01*
X008631Y005311D02*
X008680Y005360D01*
X008777Y005360D01*
X008825Y005311D01*
X008825Y005263D01*
X008631Y005069D01*
X008825Y005069D01*
X009341Y005115D02*
X009534Y005115D01*
X009635Y005115D02*
X009829Y005115D01*
X009732Y005115D02*
X009732Y005405D01*
X009635Y005308D01*
X009341Y005405D02*
X009341Y005115D01*
X010315Y005138D02*
X010363Y005090D01*
X010460Y005090D01*
X010508Y005138D01*
X010610Y005090D02*
X010803Y005090D01*
X010706Y005090D02*
X010706Y005380D01*
X010610Y005283D01*
X010508Y005332D02*
X010460Y005380D01*
X010363Y005380D01*
X010315Y005332D01*
X010315Y005138D01*
X010904Y005138D02*
X011098Y005332D01*
X011098Y005138D01*
X011049Y005090D01*
X010953Y005090D01*
X010904Y005138D01*
X010904Y005332D01*
X010953Y005380D01*
X011049Y005380D01*
X011098Y005332D01*
D19*
X010000Y008675D02*
X009100Y008675D01*
X009100Y010675D01*
X010000Y010675D01*
X010000Y008675D01*
X008550Y011175D02*
X006550Y011175D01*
X006550Y012075D01*
X008550Y012075D01*
X008550Y011175D01*
X007350Y014875D02*
X005350Y014875D01*
X005350Y015775D01*
X007350Y015775D01*
X007350Y014875D01*
X007350Y016075D02*
X007350Y016975D01*
X005350Y016975D01*
X005350Y016075D01*
X007350Y016075D01*
X003150Y011675D02*
X003150Y010775D01*
X001150Y010775D01*
X001150Y011675D01*
X003150Y011675D01*
X017500Y007588D02*
X017500Y005588D01*
X018400Y005588D01*
X018400Y007588D01*
X017500Y007588D01*
D20*
X019800Y003225D02*
X019802Y003275D01*
X019808Y003325D01*
X019818Y003375D01*
X019831Y003423D01*
X019848Y003471D01*
X019869Y003517D01*
X019893Y003561D01*
X019921Y003603D01*
X019952Y003643D01*
X019986Y003680D01*
X020023Y003715D01*
X020062Y003746D01*
X020103Y003775D01*
X020147Y003800D01*
X020193Y003822D01*
X020240Y003840D01*
X020288Y003854D01*
X020337Y003865D01*
X020387Y003872D01*
X020437Y003875D01*
X020488Y003874D01*
X020538Y003869D01*
X020588Y003860D01*
X020636Y003848D01*
X020684Y003831D01*
X020730Y003811D01*
X020775Y003788D01*
X020818Y003761D01*
X020858Y003731D01*
X020896Y003698D01*
X020931Y003662D01*
X020964Y003623D01*
X020993Y003582D01*
X021019Y003539D01*
X021042Y003494D01*
X021061Y003447D01*
X021076Y003399D01*
X021088Y003350D01*
X021096Y003300D01*
X021100Y003250D01*
X021100Y003200D01*
X021096Y003150D01*
X021088Y003100D01*
X021076Y003051D01*
X021061Y003003D01*
X021042Y002956D01*
X021019Y002911D01*
X020993Y002868D01*
X020964Y002827D01*
X020931Y002788D01*
X020896Y002752D01*
X020858Y002719D01*
X020818Y002689D01*
X020775Y002662D01*
X020730Y002639D01*
X020684Y002619D01*
X020636Y002602D01*
X020588Y002590D01*
X020538Y002581D01*
X020488Y002576D01*
X020437Y002575D01*
X020387Y002578D01*
X020337Y002585D01*
X020288Y002596D01*
X020240Y002610D01*
X020193Y002628D01*
X020147Y002650D01*
X020103Y002675D01*
X020062Y002704D01*
X020023Y002735D01*
X019986Y002770D01*
X019952Y002807D01*
X019921Y002847D01*
X019893Y002889D01*
X019869Y002933D01*
X019848Y002979D01*
X019831Y003027D01*
X019818Y003075D01*
X019808Y003125D01*
X019802Y003175D01*
X019800Y003225D01*
X019800Y014725D02*
X019802Y014775D01*
X019808Y014825D01*
X019818Y014875D01*
X019831Y014923D01*
X019848Y014971D01*
X019869Y015017D01*
X019893Y015061D01*
X019921Y015103D01*
X019952Y015143D01*
X019986Y015180D01*
X020023Y015215D01*
X020062Y015246D01*
X020103Y015275D01*
X020147Y015300D01*
X020193Y015322D01*
X020240Y015340D01*
X020288Y015354D01*
X020337Y015365D01*
X020387Y015372D01*
X020437Y015375D01*
X020488Y015374D01*
X020538Y015369D01*
X020588Y015360D01*
X020636Y015348D01*
X020684Y015331D01*
X020730Y015311D01*
X020775Y015288D01*
X020818Y015261D01*
X020858Y015231D01*
X020896Y015198D01*
X020931Y015162D01*
X020964Y015123D01*
X020993Y015082D01*
X021019Y015039D01*
X021042Y014994D01*
X021061Y014947D01*
X021076Y014899D01*
X021088Y014850D01*
X021096Y014800D01*
X021100Y014750D01*
X021100Y014700D01*
X021096Y014650D01*
X021088Y014600D01*
X021076Y014551D01*
X021061Y014503D01*
X021042Y014456D01*
X021019Y014411D01*
X020993Y014368D01*
X020964Y014327D01*
X020931Y014288D01*
X020896Y014252D01*
X020858Y014219D01*
X020818Y014189D01*
X020775Y014162D01*
X020730Y014139D01*
X020684Y014119D01*
X020636Y014102D01*
X020588Y014090D01*
X020538Y014081D01*
X020488Y014076D01*
X020437Y014075D01*
X020387Y014078D01*
X020337Y014085D01*
X020288Y014096D01*
X020240Y014110D01*
X020193Y014128D01*
X020147Y014150D01*
X020103Y014175D01*
X020062Y014204D01*
X020023Y014235D01*
X019986Y014270D01*
X019952Y014307D01*
X019921Y014347D01*
X019893Y014389D01*
X019869Y014433D01*
X019848Y014479D01*
X019831Y014527D01*
X019818Y014575D01*
X019808Y014625D01*
X019802Y014675D01*
X019800Y014725D01*
X002273Y014359D02*
X002275Y014385D01*
X002281Y014411D01*
X002291Y014436D01*
X002304Y014459D01*
X002320Y014479D01*
X002340Y014497D01*
X002362Y014512D01*
X002385Y014524D01*
X002411Y014532D01*
X002437Y014536D01*
X002463Y014536D01*
X002489Y014532D01*
X002515Y014524D01*
X002539Y014512D01*
X002560Y014497D01*
X002580Y014479D01*
X002596Y014459D01*
X002609Y014436D01*
X002619Y014411D01*
X002625Y014385D01*
X002627Y014359D01*
X002625Y014333D01*
X002619Y014307D01*
X002609Y014282D01*
X002596Y014259D01*
X002580Y014239D01*
X002560Y014221D01*
X002538Y014206D01*
X002515Y014194D01*
X002489Y014186D01*
X002463Y014182D01*
X002437Y014182D01*
X002411Y014186D01*
X002385Y014194D01*
X002361Y014206D01*
X002340Y014221D01*
X002320Y014239D01*
X002304Y014259D01*
X002291Y014282D01*
X002281Y014307D01*
X002275Y014333D01*
X002273Y014359D01*
X002273Y016091D02*
X002275Y016117D01*
X002281Y016143D01*
X002291Y016168D01*
X002304Y016191D01*
X002320Y016211D01*
X002340Y016229D01*
X002362Y016244D01*
X002385Y016256D01*
X002411Y016264D01*
X002437Y016268D01*
X002463Y016268D01*
X002489Y016264D01*
X002515Y016256D01*
X002539Y016244D01*
X002560Y016229D01*
X002580Y016211D01*
X002596Y016191D01*
X002609Y016168D01*
X002619Y016143D01*
X002625Y016117D01*
X002627Y016091D01*
X002625Y016065D01*
X002619Y016039D01*
X002609Y016014D01*
X002596Y015991D01*
X002580Y015971D01*
X002560Y015953D01*
X002538Y015938D01*
X002515Y015926D01*
X002489Y015918D01*
X002463Y015914D01*
X002437Y015914D01*
X002411Y015918D01*
X002385Y015926D01*
X002361Y015938D01*
X002340Y015953D01*
X002320Y015971D01*
X002304Y015991D01*
X002291Y016014D01*
X002281Y016039D01*
X002275Y016065D01*
X002273Y016091D01*
X001800Y001225D02*
X001802Y001275D01*
X001808Y001325D01*
X001818Y001375D01*
X001831Y001423D01*
X001848Y001471D01*
X001869Y001517D01*
X001893Y001561D01*
X001921Y001603D01*
X001952Y001643D01*
X001986Y001680D01*
X002023Y001715D01*
X002062Y001746D01*
X002103Y001775D01*
X002147Y001800D01*
X002193Y001822D01*
X002240Y001840D01*
X002288Y001854D01*
X002337Y001865D01*
X002387Y001872D01*
X002437Y001875D01*
X002488Y001874D01*
X002538Y001869D01*
X002588Y001860D01*
X002636Y001848D01*
X002684Y001831D01*
X002730Y001811D01*
X002775Y001788D01*
X002818Y001761D01*
X002858Y001731D01*
X002896Y001698D01*
X002931Y001662D01*
X002964Y001623D01*
X002993Y001582D01*
X003019Y001539D01*
X003042Y001494D01*
X003061Y001447D01*
X003076Y001399D01*
X003088Y001350D01*
X003096Y001300D01*
X003100Y001250D01*
X003100Y001200D01*
X003096Y001150D01*
X003088Y001100D01*
X003076Y001051D01*
X003061Y001003D01*
X003042Y000956D01*
X003019Y000911D01*
X002993Y000868D01*
X002964Y000827D01*
X002931Y000788D01*
X002896Y000752D01*
X002858Y000719D01*
X002818Y000689D01*
X002775Y000662D01*
X002730Y000639D01*
X002684Y000619D01*
X002636Y000602D01*
X002588Y000590D01*
X002538Y000581D01*
X002488Y000576D01*
X002437Y000575D01*
X002387Y000578D01*
X002337Y000585D01*
X002288Y000596D01*
X002240Y000610D01*
X002193Y000628D01*
X002147Y000650D01*
X002103Y000675D01*
X002062Y000704D01*
X002023Y000735D01*
X001986Y000770D01*
X001952Y000807D01*
X001921Y000847D01*
X001893Y000889D01*
X001869Y000933D01*
X001848Y000979D01*
X001831Y001027D01*
X001818Y001075D01*
X001808Y001125D01*
X001802Y001175D01*
X001800Y001225D01*
D21*
X020855Y007010D02*
X020880Y006985D01*
X020905Y006985D01*
X020930Y007010D01*
X020930Y007060D01*
X020955Y007085D01*
X020980Y007085D01*
X021005Y007060D01*
X021005Y007010D01*
X020980Y006985D01*
X020855Y007010D02*
X020855Y007060D01*
X020880Y007085D01*
X020905Y007133D02*
X020855Y007183D01*
X021005Y007183D01*
X021005Y007133D02*
X021005Y007233D01*
D22*
X005615Y003751D03*
D23*
X005609Y003764D03*
D24*
X005615Y003777D03*
D25*
X005615Y003790D03*
D26*
X005615Y003803D03*
D27*
X005615Y003816D03*
D28*
X005609Y003829D03*
D29*
X005609Y003842D03*
D30*
X005609Y003855D03*
D31*
X005609Y003868D03*
D32*
X005615Y003881D03*
D33*
X005609Y003894D03*
D34*
X005615Y003907D03*
D35*
X005615Y003919D03*
D36*
X005615Y003932D03*
D37*
X005609Y003945D03*
D38*
X005609Y003958D03*
D39*
X005609Y003971D03*
D40*
X005615Y003984D03*
D41*
X005609Y003997D03*
D42*
X005615Y004010D03*
D43*
X005609Y004023D03*
D44*
X005615Y004036D03*
D45*
X005609Y004049D03*
D46*
X005615Y004062D03*
D47*
X005609Y004075D03*
D48*
X005609Y004088D03*
X005609Y005851D03*
D49*
X005615Y005826D03*
X005615Y004101D03*
D50*
X005609Y004114D03*
D51*
X005609Y004127D03*
D52*
X005615Y004140D03*
D53*
X005609Y004153D03*
D54*
X005609Y004166D03*
D55*
X003833Y004179D03*
D56*
X004293Y004179D03*
X004578Y004620D03*
X005071Y004581D03*
X005667Y004620D03*
X005667Y004425D03*
D57*
X005687Y004373D03*
X005388Y004334D03*
X005090Y004464D03*
X004559Y004503D03*
X004507Y004179D03*
X004183Y004710D03*
X005687Y004659D03*
X005946Y005281D03*
X005907Y005398D03*
X005894Y005437D03*
X005855Y005527D03*
X005842Y005566D03*
D58*
X004818Y004179D03*
X003690Y004334D03*
X003690Y004373D03*
X003690Y004425D03*
X003690Y004464D03*
X003690Y004503D03*
X003690Y004581D03*
X003690Y004620D03*
X003690Y004659D03*
X003690Y004710D03*
D59*
X005084Y004503D03*
X005136Y004179D03*
X005395Y004710D03*
X005952Y005242D03*
X005875Y005475D03*
X005797Y005683D03*
X005784Y005722D03*
X005019Y005683D03*
D60*
X005427Y004179D03*
X006944Y004503D03*
D61*
X006004Y004179D03*
D62*
X006575Y004179D03*
X006951Y004334D03*
X006951Y004710D03*
X005343Y005774D03*
D63*
X007243Y004179D03*
D64*
X006121Y004321D03*
X006121Y004347D03*
X006121Y004386D03*
X006121Y004412D03*
X006121Y004568D03*
X006121Y004607D03*
X006121Y004633D03*
X006121Y004672D03*
X003709Y004192D03*
D65*
X004066Y004192D03*
X004299Y004192D03*
X004546Y004451D03*
X004183Y004672D03*
X005103Y004412D03*
X005375Y004672D03*
X006128Y005579D03*
D66*
X006270Y004477D03*
X005116Y004347D03*
X004818Y004477D03*
X004507Y004192D03*
X004183Y004607D03*
X004183Y004633D03*
D67*
X004818Y004192D03*
X006944Y004347D03*
X006944Y004723D03*
D68*
X006277Y004192D03*
X005706Y004321D03*
X005706Y004697D03*
X005719Y004723D03*
X005136Y004192D03*
X005110Y004386D03*
X004539Y004412D03*
X005317Y005450D03*
X005589Y005488D03*
D69*
X005427Y004192D03*
X004818Y004231D03*
D70*
X005097Y004451D03*
X005719Y004762D03*
X005745Y004192D03*
X006536Y004347D03*
X005589Y005450D03*
X005019Y005696D03*
D71*
X005356Y005735D03*
X005589Y005268D03*
X006575Y004192D03*
D72*
X006951Y004321D03*
X006977Y004192D03*
X006951Y004516D03*
X005589Y005229D03*
D73*
X007489Y004762D03*
X007489Y004231D03*
X007476Y004192D03*
D74*
X003703Y004205D03*
X003690Y004270D03*
X003690Y004283D03*
X003690Y004308D03*
X003690Y004360D03*
X003690Y004399D03*
X003690Y004438D03*
X003690Y004490D03*
X003690Y004529D03*
X003690Y004555D03*
X003690Y004594D03*
X003690Y004646D03*
X003690Y004684D03*
X003690Y004736D03*
D75*
X004066Y004205D03*
X005116Y004360D03*
X005739Y004205D03*
X006270Y004490D03*
X006517Y004399D03*
D76*
X006283Y004205D03*
X005713Y004308D03*
X005363Y004646D03*
X005259Y005255D03*
X005025Y005307D03*
X004533Y004399D03*
X004299Y004205D03*
D77*
X004299Y004244D03*
X004507Y004205D03*
X004520Y004308D03*
X004053Y004283D03*
X004053Y004270D03*
X004053Y004244D03*
X005129Y004270D03*
X005129Y004283D03*
X005285Y005307D03*
X005311Y005372D03*
D78*
X004818Y004205D03*
X006957Y004308D03*
X006957Y004529D03*
X006957Y004684D03*
D79*
X006277Y004270D03*
X005732Y004244D03*
X005719Y004270D03*
X005719Y004283D03*
X005382Y004399D03*
X005136Y004205D03*
X005123Y004308D03*
X004811Y004490D03*
X004526Y004360D03*
X004176Y004594D03*
X005317Y005411D03*
D80*
X005038Y004736D03*
X004598Y004736D03*
X004818Y004270D03*
X005427Y004205D03*
D81*
X005045Y004684D03*
X004811Y004283D03*
X005589Y005307D03*
X005356Y005709D03*
X006575Y004205D03*
D82*
X006977Y004205D03*
D83*
X007489Y004205D03*
X007489Y004736D03*
D84*
X003696Y004218D03*
D85*
X004059Y004218D03*
X004526Y004334D03*
X004811Y004503D03*
X005732Y004218D03*
X006277Y004710D03*
X005589Y005527D03*
D86*
X004306Y004218D03*
D87*
X004500Y004218D03*
X004046Y004334D03*
X005136Y004218D03*
X005589Y005566D03*
X006134Y005475D03*
D88*
X006977Y004218D03*
X004811Y004218D03*
D89*
X005051Y004659D03*
X004598Y004710D03*
X005427Y004218D03*
X005648Y004581D03*
X006568Y004218D03*
D90*
X006504Y004425D03*
X006283Y004218D03*
D91*
X007489Y004218D03*
X007489Y004749D03*
D92*
X006925Y004477D03*
X003696Y004231D03*
D93*
X004059Y004231D03*
X004526Y004347D03*
X005123Y004321D03*
X005356Y004633D03*
X005732Y004231D03*
X006277Y004697D03*
X006510Y004412D03*
X006134Y005514D03*
X005589Y005514D03*
X005317Y005424D03*
X005265Y005268D03*
D94*
X005311Y005385D03*
X005583Y005540D03*
X004818Y004516D03*
X004520Y004321D03*
X004299Y004231D03*
X004183Y004568D03*
D95*
X004183Y004516D03*
X004040Y004386D03*
X004040Y004347D03*
X004312Y004347D03*
X004312Y004321D03*
X004507Y004231D03*
X005583Y005579D03*
X006128Y005450D03*
D96*
X005136Y004231D03*
X004046Y004321D03*
D97*
X004591Y004672D03*
X004811Y004321D03*
X005421Y004231D03*
X005356Y005670D03*
X005356Y005696D03*
D98*
X006128Y005488D03*
X006283Y004723D03*
X006283Y004231D03*
D99*
X006575Y004231D03*
X005058Y004633D03*
X005019Y005385D03*
X004993Y005424D03*
D100*
X006977Y004231D03*
D101*
X006925Y004399D03*
X003696Y004244D03*
D102*
X004040Y004360D03*
X004183Y004529D03*
X004312Y004308D03*
X004507Y004244D03*
X005337Y004594D03*
X006128Y005462D03*
D103*
X004811Y004244D03*
D104*
X005136Y004244D03*
X004306Y004270D03*
X004306Y004283D03*
X004046Y004308D03*
X005291Y005333D03*
X005589Y005553D03*
D105*
X005337Y005631D03*
X005025Y005372D03*
X005064Y004594D03*
X004585Y004646D03*
X005414Y004244D03*
X006568Y004244D03*
X006568Y004594D03*
X005764Y005787D03*
D106*
X006128Y005501D03*
X006283Y004736D03*
X006283Y004244D03*
D107*
X006970Y004244D03*
X006128Y005787D03*
D108*
X007495Y004684D03*
X007495Y004646D03*
X007495Y004594D03*
X007495Y004555D03*
X007495Y004529D03*
X007495Y004490D03*
X007495Y004438D03*
X007495Y004399D03*
X007495Y004360D03*
X007495Y004308D03*
X007495Y004283D03*
X007495Y004270D03*
X007495Y004244D03*
D109*
X003690Y004257D03*
X003690Y004296D03*
X003690Y004542D03*
D110*
X004053Y004257D03*
X005129Y004296D03*
X005726Y004257D03*
D111*
X005136Y004257D03*
X004306Y004257D03*
X004306Y004296D03*
X004046Y004296D03*
X005291Y005320D03*
D112*
X004507Y004257D03*
X004183Y004542D03*
D113*
X004818Y004257D03*
D114*
X005414Y004257D03*
X005025Y005359D03*
D115*
X006283Y004257D03*
D116*
X006562Y004257D03*
D117*
X006970Y004257D03*
D118*
X007495Y004257D03*
X007495Y004296D03*
X007495Y004542D03*
D119*
X005304Y005346D03*
X004811Y004529D03*
X004513Y004283D03*
X004513Y004270D03*
X004176Y004555D03*
D120*
X005032Y005631D03*
X005019Y005657D03*
X005408Y004736D03*
X005667Y004438D03*
X005408Y004283D03*
X005408Y004270D03*
D121*
X005732Y004775D03*
X006562Y004646D03*
X006562Y004555D03*
X006562Y004270D03*
X005045Y005618D03*
D122*
X005589Y005255D03*
X006964Y004646D03*
X006964Y004594D03*
X006964Y004555D03*
X006964Y004283D03*
X006964Y004270D03*
D123*
X006264Y004283D03*
X006264Y004529D03*
X004176Y004646D03*
D124*
X005077Y004555D03*
X005077Y004529D03*
X005233Y005216D03*
X006555Y004283D03*
D125*
X005304Y005359D03*
X004811Y004542D03*
X004513Y004296D03*
D126*
X004818Y004296D03*
D127*
X005401Y004296D03*
X005025Y005644D03*
X006128Y005644D03*
D128*
X005713Y004296D03*
D129*
X006121Y004296D03*
X006121Y004542D03*
D130*
X006555Y004296D03*
X005077Y004542D03*
D131*
X006957Y004542D03*
X006957Y004296D03*
D132*
X005648Y004490D03*
X004818Y004308D03*
D133*
X004565Y004555D03*
X004176Y004736D03*
X005317Y005501D03*
X005784Y005709D03*
X005771Y005748D03*
X006134Y005631D03*
X005680Y004646D03*
X005680Y004399D03*
X005395Y004308D03*
X006549Y004308D03*
D134*
X006121Y004308D03*
X006121Y004360D03*
X006121Y004399D03*
X006121Y004438D03*
X006121Y004555D03*
X006121Y004594D03*
X006121Y004646D03*
D135*
X006918Y004412D03*
X005233Y005579D03*
X003690Y004723D03*
X003690Y004697D03*
X003690Y004672D03*
X003690Y004633D03*
X003690Y004607D03*
X003690Y004568D03*
X003690Y004516D03*
X003690Y004477D03*
X003690Y004451D03*
X003690Y004412D03*
X003690Y004386D03*
X003690Y004347D03*
X003690Y004321D03*
D136*
X005084Y004516D03*
X005395Y004321D03*
X005680Y004386D03*
X006549Y004672D03*
X005849Y005540D03*
X005836Y005579D03*
X005797Y005670D03*
X005771Y005735D03*
X005019Y005670D03*
D137*
X005790Y005696D03*
X006244Y004451D03*
X006542Y004321D03*
D138*
X007495Y004321D03*
X007495Y004347D03*
X007495Y004386D03*
X007495Y004412D03*
X007495Y004451D03*
X007495Y004477D03*
X007495Y004516D03*
X007495Y004568D03*
X007495Y004607D03*
X007495Y004633D03*
X007495Y004672D03*
X007495Y004697D03*
X007495Y004723D03*
D139*
X004312Y004334D03*
X004040Y004373D03*
D140*
X004183Y004620D03*
X005116Y004334D03*
X006270Y004503D03*
D141*
X006529Y004373D03*
X005700Y004334D03*
X005375Y004373D03*
X005103Y004425D03*
X004546Y004464D03*
X004183Y004659D03*
X006128Y005566D03*
D142*
X006121Y004659D03*
X006121Y004620D03*
X006121Y004581D03*
X006121Y004425D03*
X006121Y004373D03*
X006121Y004334D03*
X006912Y004425D03*
X006912Y004464D03*
D143*
X006542Y004334D03*
D144*
X007495Y004334D03*
X007495Y004373D03*
X007495Y004425D03*
X007495Y004464D03*
X007495Y004503D03*
X007495Y004581D03*
X007495Y004620D03*
X007495Y004659D03*
X007495Y004710D03*
D145*
X005952Y005268D03*
X005693Y004672D03*
X005693Y004347D03*
X005382Y004347D03*
X004552Y004477D03*
X004176Y004697D03*
X005239Y005229D03*
X005317Y005488D03*
D146*
X004319Y004399D03*
X004319Y004360D03*
X006484Y004438D03*
D147*
X005693Y004360D03*
X005382Y004360D03*
X005382Y004684D03*
X005914Y005372D03*
X004552Y004490D03*
D148*
X004546Y004438D03*
X004183Y004684D03*
X005103Y004399D03*
X005700Y004684D03*
X006257Y004684D03*
X006529Y004684D03*
X006529Y004529D03*
X006529Y004360D03*
D149*
X006938Y004360D03*
X006938Y004490D03*
D150*
X005382Y004425D03*
X004319Y004373D03*
X004176Y004503D03*
D151*
X004533Y004373D03*
X005324Y005437D03*
X006128Y005527D03*
X006283Y004749D03*
D152*
X005719Y004749D03*
X005706Y004710D03*
X005369Y004659D03*
X005110Y004373D03*
X004811Y004464D03*
X004539Y004425D03*
X005252Y005242D03*
X005589Y005475D03*
D153*
X006938Y004373D03*
D154*
X004319Y004386D03*
D155*
X004533Y004386D03*
X005375Y004386D03*
X006283Y004762D03*
X006128Y005540D03*
D156*
X006264Y004516D03*
X006523Y004386D03*
D157*
X006931Y004386D03*
D158*
X005589Y005592D03*
X004033Y004438D03*
X004033Y004399D03*
D159*
X004176Y004399D03*
X004811Y004646D03*
D160*
X004811Y004568D03*
X005019Y005294D03*
X004033Y004412D03*
D161*
X004183Y004412D03*
X004014Y004568D03*
X005388Y004451D03*
D162*
X004325Y004451D03*
X004325Y004412D03*
X004183Y004477D03*
X004027Y004477D03*
X004027Y004451D03*
D163*
X005343Y004607D03*
X005382Y004412D03*
X005278Y005294D03*
D164*
X005401Y004723D03*
X005674Y004633D03*
X005674Y004412D03*
X004572Y004568D03*
D165*
X004033Y004425D03*
X005330Y004581D03*
X006134Y005437D03*
X005019Y005722D03*
D166*
X004818Y004620D03*
X004183Y004425D03*
X004014Y004581D03*
D167*
X004027Y004464D03*
X004183Y004464D03*
X004325Y004425D03*
X004818Y004581D03*
D168*
X004811Y004425D03*
X005317Y005475D03*
D169*
X004183Y004438D03*
X004014Y004555D03*
X004014Y004594D03*
D170*
X004027Y004490D03*
X004183Y004490D03*
X004325Y004438D03*
X004818Y004594D03*
X005388Y004438D03*
D171*
X004818Y004438D03*
D172*
X005097Y004438D03*
X005589Y005462D03*
X005940Y005307D03*
X006134Y005592D03*
D173*
X006905Y004438D03*
D174*
X004811Y004607D03*
X004332Y004477D03*
X004176Y004451D03*
X004021Y004516D03*
D175*
X004818Y004451D03*
D176*
X005064Y004607D03*
X004585Y004633D03*
X004183Y004762D03*
X005661Y004607D03*
X005661Y004451D03*
X006568Y004607D03*
X006568Y004633D03*
X006128Y005670D03*
X006128Y005696D03*
D177*
X006899Y004451D03*
D178*
X006134Y005398D03*
X004332Y004503D03*
X004332Y004464D03*
X004021Y004503D03*
D179*
X005356Y005683D03*
X005654Y004464D03*
D180*
X006264Y004464D03*
D181*
X005946Y005294D03*
X005907Y005385D03*
X005894Y005424D03*
X005881Y005450D03*
X005868Y005488D03*
X005855Y005514D03*
X005388Y004697D03*
X005090Y004477D03*
X004559Y004516D03*
X004183Y004723D03*
D182*
X004598Y004723D03*
X004598Y004697D03*
X005051Y004672D03*
X005414Y004762D03*
X005648Y004477D03*
X005764Y005800D03*
D183*
X005589Y005631D03*
X005589Y005618D03*
X005317Y004555D03*
X004332Y004490D03*
X004021Y004529D03*
D184*
X004559Y004529D03*
X005090Y004490D03*
X005959Y005255D03*
X005933Y005333D03*
X005920Y005346D03*
X005894Y005411D03*
X005881Y005462D03*
X005868Y005501D03*
X005842Y005553D03*
X005829Y005592D03*
X005816Y005618D03*
X005816Y005631D03*
X005803Y005657D03*
D185*
X005356Y005722D03*
X005045Y004710D03*
X005641Y004503D03*
D186*
X006128Y005385D03*
X004338Y004516D03*
D187*
X005635Y004516D03*
X006128Y005761D03*
D188*
X006128Y005372D03*
X004338Y004555D03*
X004338Y004529D03*
D189*
X004345Y004594D03*
X005304Y004529D03*
X005589Y005657D03*
D190*
X006128Y005748D03*
X005414Y004775D03*
X005635Y004555D03*
X005635Y004529D03*
X004183Y004775D03*
D191*
X004021Y004542D03*
X005589Y005644D03*
D192*
X004338Y004542D03*
D193*
X004565Y004542D03*
X005810Y005644D03*
X006549Y004542D03*
D194*
X005311Y004542D03*
D195*
X005628Y004542D03*
D196*
X004818Y004555D03*
D197*
X004345Y004568D03*
X004345Y004607D03*
X004008Y004607D03*
X005589Y005670D03*
D198*
X005304Y005514D03*
X005071Y004568D03*
X004578Y004607D03*
D199*
X005324Y004568D03*
X006128Y005424D03*
D200*
X005589Y005294D03*
X005045Y004697D03*
X005641Y004568D03*
D201*
X006562Y004568D03*
D202*
X006964Y004568D03*
X006964Y004633D03*
X006964Y004672D03*
X005032Y004762D03*
D203*
X005350Y004620D03*
X005272Y005281D03*
X005311Y005398D03*
X004183Y004581D03*
D204*
X004345Y004581D03*
X004008Y004620D03*
D205*
X004183Y004749D03*
X004572Y004581D03*
D206*
X004585Y004659D03*
X005064Y004620D03*
X005298Y005527D03*
X006128Y005683D03*
X006568Y004620D03*
X006568Y004581D03*
D207*
X006964Y004581D03*
X006964Y004659D03*
X005589Y005242D03*
D208*
X005025Y005333D03*
X005025Y005346D03*
X004572Y004594D03*
X006128Y005657D03*
X006283Y004775D03*
D209*
X005654Y004594D03*
X005006Y005411D03*
X004591Y004684D03*
D210*
X004598Y004762D03*
X006970Y004607D03*
D211*
X006970Y004620D03*
D212*
X004811Y004633D03*
D213*
X005058Y004646D03*
X005589Y005333D03*
X005589Y005346D03*
X005330Y005618D03*
D214*
X006562Y004659D03*
D215*
X006957Y004697D03*
X005350Y005761D03*
D216*
X005038Y004723D03*
D217*
X005719Y004736D03*
X005589Y005501D03*
X005317Y005462D03*
X005019Y005709D03*
X006134Y005553D03*
D218*
X006944Y004736D03*
D219*
X003696Y004749D03*
D220*
X004598Y004749D03*
D221*
X005032Y004749D03*
X005589Y005281D03*
D222*
X005408Y004749D03*
X005019Y005398D03*
D223*
X006938Y004749D03*
D224*
X005324Y005800D03*
X003703Y004762D03*
D225*
X006925Y004762D03*
D226*
X003722Y004775D03*
D227*
X004585Y004775D03*
D228*
X005032Y004775D03*
X005589Y005216D03*
D229*
X006893Y004775D03*
D230*
X007482Y004775D03*
D231*
X005609Y004788D03*
X005609Y004827D03*
X005609Y005073D03*
D232*
X005609Y005061D03*
X005609Y005086D03*
X005609Y005125D03*
X005609Y005177D03*
X005609Y005022D03*
X005609Y004970D03*
X005609Y004931D03*
X005609Y004879D03*
X005609Y004840D03*
X005609Y004814D03*
X005609Y004801D03*
D233*
X005609Y004853D03*
X005609Y004892D03*
X005609Y004918D03*
X005609Y004944D03*
X005609Y004983D03*
X005609Y005009D03*
X005609Y005048D03*
X005609Y005099D03*
X005609Y005138D03*
X005609Y005164D03*
D234*
X005609Y005151D03*
X005609Y005112D03*
X005609Y005035D03*
X005609Y004996D03*
X005609Y004957D03*
X005609Y004905D03*
X005609Y004866D03*
X005609Y005190D03*
D235*
X004247Y005203D03*
D236*
X005576Y005203D03*
D237*
X006931Y005203D03*
D238*
X004209Y005216D03*
D239*
X005350Y005657D03*
X005959Y005216D03*
D240*
X006951Y005216D03*
D241*
X004189Y005229D03*
D242*
X005764Y005761D03*
X005959Y005229D03*
D243*
X006957Y005229D03*
D244*
X004176Y005242D03*
D245*
X006964Y005242D03*
D246*
X004170Y005255D03*
D247*
X006970Y005255D03*
D248*
X007055Y005696D03*
X004176Y005761D03*
X004163Y005540D03*
X004163Y005268D03*
D249*
X006970Y005268D03*
D250*
X007048Y005722D03*
X007048Y005774D03*
X004157Y005566D03*
X004157Y005281D03*
D251*
X006977Y005281D03*
D252*
X004150Y005294D03*
X004150Y005424D03*
X004150Y005579D03*
D253*
X006977Y005294D03*
D254*
X004150Y005307D03*
X004150Y005592D03*
D255*
X006977Y005307D03*
D256*
X004144Y005320D03*
X004144Y005605D03*
X004144Y005644D03*
D257*
X005025Y005320D03*
X006128Y005605D03*
D258*
X005589Y005320D03*
D259*
X005920Y005359D03*
X005933Y005320D03*
D260*
X006983Y005320D03*
D261*
X004144Y005333D03*
X004144Y005411D03*
X004144Y005618D03*
X004144Y005631D03*
X004144Y005657D03*
X004157Y005709D03*
D262*
X006983Y005333D03*
D263*
X004137Y005346D03*
X004137Y005372D03*
D264*
X006990Y005372D03*
X006990Y005346D03*
D265*
X004137Y005359D03*
D266*
X006134Y005359D03*
D267*
X006990Y005359D03*
D268*
X004137Y005385D03*
D269*
X006996Y005385D03*
D270*
X004137Y005398D03*
D271*
X006996Y005398D03*
D272*
X006128Y005411D03*
D273*
X006996Y005411D03*
D274*
X007003Y005424D03*
X007003Y005450D03*
D275*
X004293Y005437D03*
D276*
X007003Y005437D03*
D277*
X004280Y005450D03*
D278*
X004260Y005462D03*
D279*
X007009Y005462D03*
D280*
X004234Y005475D03*
D281*
X007009Y005475D03*
D282*
X004215Y005488D03*
D283*
X007016Y005488D03*
X007016Y005514D03*
D284*
X004196Y005501D03*
D285*
X007016Y005501D03*
D286*
X004183Y005514D03*
D287*
X004170Y005527D03*
D288*
X007022Y005527D03*
D289*
X005291Y005540D03*
D290*
X007022Y005540D03*
D291*
X007048Y005787D03*
X004157Y005553D03*
D292*
X005272Y005553D03*
X005350Y005748D03*
D293*
X007022Y005553D03*
D294*
X005252Y005566D03*
D295*
X007029Y005566D03*
D296*
X007029Y005579D03*
D297*
X005213Y005592D03*
D298*
X007035Y005592D03*
X007035Y005618D03*
D299*
X005200Y005605D03*
D300*
X005589Y005605D03*
D301*
X005823Y005605D03*
D302*
X007035Y005605D03*
D303*
X006128Y005618D03*
D304*
X007042Y005631D03*
X007042Y005657D03*
D305*
X005350Y005644D03*
D306*
X007042Y005644D03*
D307*
X004150Y005670D03*
D308*
X007048Y005670D03*
D309*
X004150Y005683D03*
D310*
X007048Y005683D03*
D311*
X004157Y005696D03*
D312*
X006128Y005709D03*
D313*
X007055Y005709D03*
D314*
X004163Y005722D03*
D315*
X006128Y005722D03*
D316*
X007055Y005735D03*
X007055Y005761D03*
X004163Y005735D03*
D317*
X006128Y005735D03*
D318*
X004170Y005748D03*
D319*
X007055Y005748D03*
D320*
X004189Y005774D03*
D321*
X005764Y005774D03*
D322*
X006128Y005774D03*
D323*
X004202Y005787D03*
D324*
X005337Y005787D03*
D325*
X004221Y005800D03*
D326*
X006128Y005800D03*
D327*
X007035Y005800D03*
D328*
X005615Y005813D03*
D329*
X005609Y005838D03*
D330*
X005615Y005864D03*
D331*
X005609Y005877D03*
D332*
X005609Y005890D03*
D333*
X005615Y005903D03*
D334*
X005609Y005916D03*
D335*
X005615Y005929D03*
D336*
X005609Y005942D03*
D337*
X005609Y005955D03*
D338*
X005615Y005968D03*
D339*
X005615Y005981D03*
D340*
X005609Y005994D03*
D341*
X005609Y006007D03*
D342*
X005609Y006020D03*
D343*
X005609Y006033D03*
D344*
X005615Y006046D03*
D345*
X005615Y006059D03*
D346*
X005609Y006072D03*
D347*
X005609Y006085D03*
D348*
X005609Y006098D03*
D349*
X005609Y006111D03*
D350*
X005615Y006124D03*
D351*
X005615Y006137D03*
D352*
X016807Y003025D03*
D353*
X016807Y003042D03*
X016807Y003059D03*
D354*
X016137Y003472D03*
X015741Y003317D03*
X015552Y003386D03*
X015552Y003403D03*
X015140Y003472D03*
X014659Y003077D03*
X018388Y003386D03*
X018560Y003334D03*
D355*
X016807Y003077D03*
X016807Y003644D03*
D356*
X016807Y003626D03*
X016807Y003094D03*
D357*
X016807Y003111D03*
D358*
X016669Y003266D03*
X016669Y003472D03*
X016669Y003489D03*
X017030Y003403D03*
X017030Y003386D03*
X017030Y003369D03*
X017030Y003352D03*
X017030Y003334D03*
X017924Y003334D03*
X017924Y003317D03*
X017924Y003300D03*
X017924Y003283D03*
X017924Y003266D03*
X017924Y003231D03*
X017924Y003214D03*
X017924Y003197D03*
X017924Y003180D03*
X017924Y003352D03*
X018817Y003145D03*
X018817Y003575D03*
X016137Y003145D03*
X015965Y003609D03*
X015655Y003609D03*
X014779Y003180D03*
X014779Y003162D03*
X014796Y003128D03*
D359*
X015140Y003128D03*
X015140Y003145D03*
D360*
X015140Y003352D03*
X015140Y003369D03*
X015380Y003283D03*
X015380Y003266D03*
X015398Y003128D03*
X015587Y003283D03*
X015587Y003300D03*
X015707Y003420D03*
X015896Y003283D03*
X015896Y003266D03*
X015879Y003128D03*
X016137Y003369D03*
X016377Y003266D03*
X016394Y003128D03*
X016790Y003197D03*
X016824Y003162D03*
X017288Y003472D03*
X017580Y003197D03*
X018216Y003197D03*
X018216Y003214D03*
X018216Y003231D03*
X018216Y003266D03*
X018216Y003283D03*
X018216Y003300D03*
X018216Y003317D03*
X018216Y003334D03*
X018216Y003352D03*
X018216Y003369D03*
X018216Y003386D03*
X018216Y003403D03*
X018216Y003420D03*
X018216Y003437D03*
X018216Y003472D03*
X018216Y003489D03*
X018216Y003506D03*
X018216Y003523D03*
X018216Y003541D03*
X018216Y003558D03*
X018216Y003575D03*
X018525Y003437D03*
X018422Y003283D03*
X018216Y003180D03*
X018216Y003162D03*
D361*
X017589Y003231D03*
X017022Y003472D03*
X015630Y003128D03*
X015320Y003558D03*
D362*
X016128Y003128D03*
X017297Y003145D03*
X017915Y003369D03*
X017915Y003472D03*
X017915Y003489D03*
X017915Y003506D03*
X017915Y003523D03*
X018826Y003523D03*
X018826Y003506D03*
X018826Y003489D03*
X018826Y003472D03*
X018826Y003437D03*
X018826Y003420D03*
X018826Y003403D03*
X018826Y003386D03*
X018826Y003369D03*
X018826Y003352D03*
X018826Y003334D03*
X018826Y003317D03*
X018826Y003300D03*
X018826Y003283D03*
X018826Y003266D03*
X018826Y003231D03*
X018826Y003214D03*
X018826Y003197D03*
X018826Y003180D03*
X018826Y003162D03*
X018826Y003541D03*
X018826Y003558D03*
D363*
X018491Y003541D03*
X018216Y003609D03*
X018457Y003180D03*
X017511Y003369D03*
X016841Y003128D03*
X015930Y003420D03*
X015930Y003437D03*
X015673Y003523D03*
X015621Y003180D03*
X015346Y003420D03*
X015346Y003437D03*
D364*
X017305Y003128D03*
D365*
X017881Y003128D03*
X014839Y003472D03*
X014839Y003489D03*
D366*
X015363Y003369D03*
X015363Y003352D03*
X015363Y003334D03*
X015604Y003231D03*
X015690Y003472D03*
X015913Y003369D03*
X015913Y003352D03*
X015913Y003334D03*
X016137Y003317D03*
X016360Y003334D03*
X016360Y003352D03*
X018216Y003128D03*
X018439Y003214D03*
X018439Y003231D03*
X018508Y003489D03*
X018216Y003592D03*
D367*
X018482Y003592D03*
X018465Y003128D03*
X017572Y003472D03*
X017297Y003558D03*
X017297Y003162D03*
X016317Y003541D03*
X016317Y003558D03*
X015956Y003558D03*
X015956Y003575D03*
X015647Y003592D03*
X016128Y003197D03*
D368*
X016678Y003214D03*
X016678Y003231D03*
X016678Y003506D03*
X016678Y003523D03*
X014787Y003231D03*
X014787Y003214D03*
X014787Y003197D03*
X018809Y003128D03*
X018809Y003592D03*
D369*
X018482Y003609D03*
X017297Y003575D03*
X017022Y003437D03*
X017022Y003420D03*
X017022Y003317D03*
X017022Y003300D03*
X017022Y003283D03*
X016317Y003592D03*
X015320Y003592D03*
X014787Y003145D03*
D370*
X015406Y003145D03*
X015578Y003317D03*
X015715Y003386D03*
X015715Y003403D03*
X015887Y003231D03*
X015887Y003214D03*
X016128Y003386D03*
X016386Y003231D03*
X016386Y003214D03*
X016386Y003197D03*
X018414Y003300D03*
X018414Y003317D03*
D371*
X018448Y003162D03*
X017589Y003214D03*
X017297Y003180D03*
X017022Y003231D03*
X017297Y003541D03*
X016334Y003489D03*
X016334Y003472D03*
X015939Y003472D03*
X015939Y003489D03*
X015939Y003506D03*
X015664Y003541D03*
X015664Y003558D03*
X015630Y003162D03*
X015630Y003145D03*
D372*
X015569Y003334D03*
X015569Y003352D03*
X015724Y003369D03*
X015879Y003197D03*
X015879Y003180D03*
X015879Y003162D03*
X015879Y003145D03*
X016137Y003403D03*
X016137Y003420D03*
X016394Y003180D03*
X016394Y003162D03*
X015398Y003162D03*
X015398Y003180D03*
X015398Y003197D03*
X015140Y003403D03*
X015140Y003420D03*
X017288Y003386D03*
X017288Y003334D03*
X018405Y003334D03*
X018542Y003386D03*
D373*
X018534Y003403D03*
X018534Y003420D03*
X017297Y003420D03*
X017297Y003403D03*
X017297Y003437D03*
X017297Y003317D03*
X017297Y003300D03*
X017297Y003283D03*
X017297Y003266D03*
X017022Y003197D03*
X016815Y003180D03*
X016403Y003145D03*
X015389Y003214D03*
X015389Y003231D03*
X015131Y003386D03*
D374*
X015372Y003317D03*
X015372Y003300D03*
X016128Y003334D03*
X016128Y003352D03*
X016833Y003145D03*
X017572Y003523D03*
X018517Y003472D03*
D375*
X017898Y003558D03*
X017898Y003145D03*
X017297Y003592D03*
X015320Y003609D03*
D376*
X015595Y003266D03*
X015698Y003437D03*
X015905Y003317D03*
X015905Y003300D03*
X016369Y003300D03*
X016369Y003317D03*
X016369Y003283D03*
X017022Y003523D03*
X017297Y003506D03*
X017297Y003489D03*
X017297Y003231D03*
X018207Y003145D03*
X018431Y003266D03*
D377*
X018457Y003145D03*
X018491Y003558D03*
X018491Y003575D03*
X016326Y003523D03*
X016326Y003506D03*
X015140Y003231D03*
X015140Y003214D03*
D378*
X015140Y003197D03*
X015140Y003180D03*
X015140Y003162D03*
X015329Y003575D03*
X015965Y003592D03*
X016137Y003180D03*
X017030Y003266D03*
D379*
X016661Y003283D03*
X016661Y003300D03*
X016661Y003317D03*
X016661Y003334D03*
X016661Y003352D03*
X016661Y003369D03*
X016661Y003386D03*
X016661Y003403D03*
X016661Y003420D03*
X016661Y003437D03*
X016128Y003162D03*
X017572Y003266D03*
X017572Y003283D03*
X017572Y003300D03*
D380*
X017907Y003162D03*
X017907Y003541D03*
X018800Y003609D03*
X016686Y003541D03*
X014796Y003283D03*
X014796Y003266D03*
D381*
X015612Y003214D03*
X015612Y003197D03*
X015681Y003489D03*
X015681Y003506D03*
X015922Y003403D03*
X015922Y003386D03*
X016351Y003386D03*
X016351Y003403D03*
X016351Y003369D03*
X017297Y003523D03*
X017503Y003352D03*
X017503Y003334D03*
X017503Y003317D03*
X017297Y003214D03*
X017297Y003197D03*
X018448Y003197D03*
X018500Y003506D03*
X018500Y003523D03*
D382*
X017563Y003489D03*
X017030Y003489D03*
X016137Y003214D03*
X015947Y003523D03*
X015947Y003541D03*
X015655Y003575D03*
X015329Y003541D03*
X015329Y003523D03*
X015329Y003506D03*
D383*
X015355Y003403D03*
X015355Y003386D03*
X017022Y003506D03*
X017022Y003214D03*
D384*
X017572Y003506D03*
X016128Y003231D03*
X015337Y003472D03*
X015337Y003489D03*
D385*
X014796Y003248D03*
D386*
X015380Y003248D03*
X015896Y003248D03*
X016377Y003248D03*
X018216Y003248D03*
X018216Y003455D03*
D387*
X018431Y003248D03*
X017297Y003248D03*
X015698Y003455D03*
X015595Y003248D03*
D388*
X016669Y003248D03*
X016669Y003455D03*
X017924Y003248D03*
D389*
X017022Y003248D03*
D390*
X017030Y003455D03*
X017580Y003248D03*
D391*
X017915Y003455D03*
X018826Y003455D03*
X018826Y003248D03*
D392*
X016128Y003489D03*
X015750Y003300D03*
X015750Y003283D03*
X015544Y003420D03*
D393*
X014805Y003317D03*
X014805Y003300D03*
X016695Y003558D03*
D394*
X015131Y003489D03*
X018379Y003420D03*
X018379Y003403D03*
X018568Y003317D03*
X018568Y003300D03*
D395*
X015140Y003317D03*
X015140Y003334D03*
D396*
X014813Y003334D03*
X014813Y003352D03*
X014813Y003369D03*
X016704Y003575D03*
X017889Y003575D03*
D397*
X017297Y003369D03*
X017297Y003352D03*
X015733Y003352D03*
X015733Y003334D03*
X015561Y003369D03*
X015131Y003437D03*
D398*
X016128Y003437D03*
X018396Y003369D03*
X018396Y003352D03*
X018551Y003352D03*
X018551Y003369D03*
D399*
X014822Y003386D03*
X014822Y003403D03*
D400*
X017743Y003403D03*
X017743Y003386D03*
D401*
X017872Y003592D03*
X014830Y003437D03*
X014830Y003420D03*
D402*
X016343Y003420D03*
X016343Y003437D03*
D403*
X017752Y003437D03*
X017752Y003420D03*
D404*
X014830Y003455D03*
D405*
X015140Y003455D03*
X016137Y003455D03*
D406*
X015930Y003455D03*
X015346Y003455D03*
D407*
X016334Y003455D03*
D408*
X017297Y003455D03*
D409*
X017572Y003455D03*
D410*
X018517Y003455D03*
D411*
X014865Y003575D03*
X014848Y003541D03*
X014848Y003523D03*
X014848Y003506D03*
D412*
X014856Y003558D03*
D413*
X016308Y003575D03*
D414*
X014873Y003592D03*
D415*
X016712Y003592D03*
D416*
X017864Y003609D03*
X014891Y003609D03*
D417*
X016308Y003609D03*
D418*
X016729Y003609D03*
D419*
X017305Y003609D03*
D420*
X016807Y003661D03*
D421*
X016807Y003678D03*
D422*
X016807Y003695D03*
D423*
X011458Y016975D03*
D424*
X011458Y016996D03*
D425*
X011427Y017016D03*
D426*
X011458Y017037D03*
D427*
X011469Y017058D03*
D428*
X011241Y017659D03*
X009707Y017079D03*
D429*
X010350Y017079D03*
X010743Y017079D03*
X011013Y017265D03*
X011013Y017472D03*
D430*
X011282Y017079D03*
D431*
X011645Y017079D03*
X012038Y017431D03*
X012556Y017597D03*
D432*
X012577Y017472D03*
X011976Y017079D03*
X011002Y017534D03*
X010712Y017597D03*
X010381Y017597D03*
X010111Y017203D03*
D433*
X012339Y017079D03*
D434*
X012660Y017079D03*
X011334Y017203D03*
X011334Y017265D03*
X011334Y017307D03*
X010671Y017265D03*
X010671Y017472D03*
X010422Y017472D03*
X010422Y017203D03*
D435*
X012049Y017472D03*
X013251Y017141D03*
X013251Y017079D03*
D436*
X009697Y017099D03*
X009697Y017244D03*
X009697Y017493D03*
D437*
X010122Y017493D03*
X010122Y017244D03*
X010370Y017099D03*
X012173Y017638D03*
X012567Y017493D03*
D438*
X011645Y017493D03*
X011645Y017244D03*
X010733Y017099D03*
D439*
X011292Y017099D03*
D440*
X011645Y017099D03*
D441*
X011976Y017099D03*
D442*
X012328Y017099D03*
D443*
X012650Y017099D03*
X011551Y017638D03*
D444*
X012049Y017493D03*
X012546Y017638D03*
X013251Y017099D03*
D445*
X013240Y017161D03*
X009697Y017161D03*
X009697Y017182D03*
X009697Y017224D03*
X009697Y017286D03*
X009697Y017327D03*
X009697Y017348D03*
X009697Y017389D03*
X009697Y017410D03*
X009697Y017452D03*
X009697Y017514D03*
X009697Y017555D03*
X009697Y017576D03*
X009697Y017617D03*
X009697Y017120D03*
D446*
X010111Y017514D03*
X010381Y017120D03*
X010712Y017120D03*
X011292Y017617D03*
X012577Y017452D03*
D447*
X012163Y017576D03*
X011976Y017120D03*
X011313Y017120D03*
X011313Y017576D03*
X010919Y017327D03*
X010401Y017161D03*
X010401Y017555D03*
D448*
X010132Y017452D03*
X010132Y017410D03*
X010132Y017389D03*
X010132Y017348D03*
X010132Y017327D03*
X010132Y017286D03*
X011002Y017514D03*
X011023Y017182D03*
X011645Y017182D03*
X011645Y017161D03*
X011645Y017120D03*
X011645Y017224D03*
X011645Y017286D03*
X011645Y017327D03*
X011645Y017348D03*
X011645Y017389D03*
X011645Y017410D03*
X011645Y017452D03*
X011645Y017514D03*
X012018Y017348D03*
X012018Y017327D03*
X012328Y017182D03*
D449*
X012339Y017120D03*
D450*
X012339Y017389D03*
X012650Y017120D03*
X011551Y017617D03*
X010432Y017410D03*
X010432Y017389D03*
X010432Y017348D03*
X010432Y017327D03*
X010432Y017286D03*
D451*
X012038Y017410D03*
X012038Y017452D03*
X012556Y017617D03*
X013261Y017120D03*
D452*
X009697Y017141D03*
X009697Y017203D03*
X009697Y017265D03*
X009697Y017307D03*
X009697Y017431D03*
X009697Y017472D03*
X009697Y017534D03*
X009697Y017597D03*
D453*
X010101Y017534D03*
X010391Y017141D03*
X010702Y017141D03*
X010930Y017307D03*
X011303Y017597D03*
D454*
X011323Y017534D03*
X011323Y017141D03*
X010681Y017203D03*
X010681Y017534D03*
X010412Y017534D03*
X012608Y017307D03*
D455*
X012018Y017307D03*
X011645Y017307D03*
X011645Y017265D03*
X011645Y017203D03*
X011645Y017141D03*
X011645Y017431D03*
X011645Y017472D03*
X011645Y017534D03*
X010132Y017431D03*
X010132Y017307D03*
D456*
X011313Y017472D03*
X011976Y017141D03*
X012163Y017597D03*
D457*
X012328Y017141D03*
X011023Y017203D03*
D458*
X010432Y017265D03*
X010432Y017307D03*
X010432Y017431D03*
X012650Y017141D03*
D459*
X012598Y017348D03*
X010691Y017161D03*
X010691Y017555D03*
D460*
X010681Y017514D03*
X010412Y017514D03*
X010412Y017182D03*
X010681Y017182D03*
X011013Y017161D03*
X011013Y017555D03*
X011323Y017555D03*
X011323Y017514D03*
X012339Y017327D03*
X012608Y017327D03*
X012608Y017286D03*
D461*
X012328Y017348D03*
X011582Y017555D03*
X011334Y017348D03*
X011334Y017327D03*
X011334Y017286D03*
X011334Y017224D03*
X011334Y017182D03*
X011334Y017161D03*
X010671Y017224D03*
X010671Y017452D03*
X010422Y017452D03*
X010422Y017224D03*
D462*
X010101Y017182D03*
X010391Y017576D03*
X010702Y017576D03*
X010930Y017348D03*
X011987Y017182D03*
X011987Y017161D03*
X012132Y017555D03*
X012173Y017617D03*
D463*
X012339Y017161D03*
D464*
X012639Y017161D03*
X011562Y017576D03*
X010049Y017555D03*
D465*
X010660Y017410D03*
X010660Y017389D03*
X010660Y017348D03*
X010660Y017327D03*
X010660Y017286D03*
X012629Y017224D03*
X012629Y017182D03*
D466*
X013116Y017182D03*
X013116Y017224D03*
X013116Y017286D03*
X013116Y017327D03*
X013116Y017348D03*
X013116Y017389D03*
X013116Y017410D03*
X013116Y017452D03*
X013116Y017514D03*
X013116Y017555D03*
D467*
X011997Y017203D03*
D468*
X012339Y017203D03*
X012567Y017534D03*
X010122Y017472D03*
X010122Y017265D03*
D469*
X010660Y017307D03*
X010660Y017431D03*
X012629Y017203D03*
D470*
X013116Y017203D03*
X013116Y017265D03*
X013116Y017307D03*
X013116Y017431D03*
X013116Y017472D03*
X013116Y017534D03*
D471*
X012567Y017514D03*
X010723Y017617D03*
X010370Y017617D03*
X010122Y017224D03*
D472*
X011023Y017224D03*
D473*
X011997Y017224D03*
D474*
X011334Y017244D03*
X010671Y017244D03*
X010422Y017244D03*
X010422Y017493D03*
X010671Y017493D03*
D475*
X010743Y017638D03*
X011013Y017244D03*
D476*
X011997Y017244D03*
D477*
X012619Y017244D03*
D478*
X013116Y017244D03*
X013116Y017493D03*
D479*
X012007Y017265D03*
D480*
X012619Y017265D03*
D481*
X012007Y017286D03*
X010950Y017286D03*
D482*
X012328Y017307D03*
D483*
X009697Y017369D03*
D484*
X010132Y017369D03*
X011645Y017369D03*
D485*
X010432Y017369D03*
D486*
X010660Y017369D03*
D487*
X010940Y017369D03*
D488*
X011313Y017369D03*
D489*
X012028Y017369D03*
D490*
X012328Y017369D03*
D491*
X012598Y017369D03*
D492*
X013116Y017369D03*
D493*
X011116Y017389D03*
X011116Y017410D03*
D494*
X012028Y017389D03*
D495*
X012587Y017389D03*
X012587Y017410D03*
D496*
X012328Y017410D03*
D497*
X011116Y017431D03*
D498*
X012328Y017431D03*
D499*
X012587Y017431D03*
D500*
X011127Y017452D03*
D501*
X012339Y017452D03*
D502*
X012328Y017472D03*
D503*
X011282Y017638D03*
X011013Y017493D03*
D504*
X011323Y017493D03*
D505*
X012328Y017493D03*
D506*
X012059Y017514D03*
D507*
X012339Y017514D03*
D508*
X012059Y017534D03*
D509*
X012556Y017555D03*
X012556Y017576D03*
D510*
X013105Y017576D03*
X013105Y017617D03*
D511*
X011551Y017597D03*
D512*
X013105Y017597D03*
D513*
X009707Y017638D03*
D514*
X010360Y017638D03*
D515*
X013105Y017638D03*
D516*
X010267Y017659D03*
D517*
X012100Y017659D03*
D518*
X013074Y017659D03*
D519*
X011469Y017680D03*
D520*
X011458Y017700D03*
D521*
X011458Y017721D03*
D522*
X011469Y017742D03*
D523*
X011469Y017762D03*
D524*
X009959Y003075D03*
D525*
X009959Y003093D03*
D526*
X009941Y003111D03*
D527*
X009959Y003129D03*
D528*
X009959Y003148D03*
D529*
X008318Y003166D03*
D530*
X008980Y003166D03*
D531*
X009606Y003166D03*
D532*
X009642Y003220D03*
X009969Y003166D03*
X010277Y003166D03*
X009551Y003656D03*
D533*
X010794Y003656D03*
X010794Y003166D03*
D534*
X011057Y003166D03*
D535*
X011583Y003166D03*
X008336Y003656D03*
D536*
X008318Y003184D03*
D537*
X008971Y003184D03*
D538*
X009615Y003184D03*
D539*
X009969Y003184D03*
X011057Y003184D03*
D540*
X011039Y003238D03*
X011039Y003565D03*
X010277Y003184D03*
X009969Y003238D03*
X008826Y003492D03*
X008826Y003510D03*
X008826Y003547D03*
D541*
X009052Y003456D03*
X009052Y003438D03*
X009034Y003402D03*
X009070Y003547D03*
X009070Y003565D03*
X009343Y003238D03*
X009633Y003456D03*
X009633Y003492D03*
X009615Y003547D03*
X009814Y003492D03*
X010123Y003492D03*
X010322Y003547D03*
X010322Y003565D03*
X010794Y003619D03*
X010794Y003184D03*
D542*
X011583Y003184D03*
D543*
X008308Y003202D03*
X008308Y003256D03*
X008308Y003311D03*
X008308Y003365D03*
X008308Y003583D03*
D544*
X008953Y003202D03*
D545*
X009334Y003311D03*
X009624Y003202D03*
D546*
X009642Y003256D03*
X009969Y003202D03*
X010277Y003202D03*
X009007Y003365D03*
D547*
X009343Y003583D03*
X010322Y003583D03*
X010794Y003637D03*
X010794Y003202D03*
D548*
X011048Y003202D03*
D549*
X011592Y003202D03*
D550*
X008308Y003220D03*
X008308Y003293D03*
X008308Y003347D03*
X008308Y003601D03*
D551*
X008943Y003220D03*
D552*
X009969Y003220D03*
X010277Y003220D03*
X011039Y003220D03*
D553*
X010794Y003220D03*
D554*
X011592Y003220D03*
D555*
X008308Y003238D03*
X008308Y003275D03*
X008308Y003329D03*
X008308Y003383D03*
X008308Y003402D03*
X008308Y003438D03*
X008308Y003456D03*
X008308Y003492D03*
X008308Y003510D03*
X008308Y003547D03*
X008308Y003565D03*
X008308Y003619D03*
D556*
X008934Y003238D03*
D557*
X009343Y003275D03*
X009343Y003547D03*
X009633Y003238D03*
X011048Y003492D03*
X011048Y003510D03*
X011048Y003547D03*
D558*
X011030Y003275D03*
X010286Y003275D03*
X010286Y003238D03*
X009651Y003275D03*
X009343Y003565D03*
X008816Y003565D03*
X008816Y003456D03*
D559*
X009814Y003565D03*
X010123Y003565D03*
X010304Y003438D03*
X010304Y003402D03*
X010304Y003383D03*
X010776Y003402D03*
X010776Y003238D03*
X011012Y003329D03*
D560*
X011592Y003238D03*
X011592Y003492D03*
X011592Y003510D03*
X011592Y003547D03*
X011592Y003565D03*
D561*
X008934Y003256D03*
D562*
X009343Y003256D03*
X009560Y003637D03*
X010286Y003256D03*
X011030Y003256D03*
D563*
X011021Y003583D03*
X010295Y003365D03*
X010295Y003311D03*
X009969Y003256D03*
X009642Y003311D03*
D564*
X010649Y003311D03*
X010649Y003365D03*
X010649Y003256D03*
D565*
X011583Y003256D03*
X011583Y003583D03*
D566*
X008925Y003275D03*
D567*
X009025Y003383D03*
X009969Y003275D03*
X010295Y003329D03*
X011021Y003456D03*
D568*
X010649Y003492D03*
X010649Y003510D03*
X010649Y003547D03*
X010649Y003565D03*
X010649Y003329D03*
X010649Y003275D03*
D569*
X011574Y003275D03*
X011574Y003438D03*
X011574Y003619D03*
D570*
X008925Y003293D03*
D571*
X009343Y003293D03*
D572*
X009651Y003293D03*
X010286Y003293D03*
D573*
X010295Y003347D03*
X009969Y003293D03*
X011021Y003293D03*
D574*
X010649Y003293D03*
X010649Y003347D03*
D575*
X011574Y003293D03*
D576*
X008916Y003311D03*
D577*
X009969Y003311D03*
X009969Y003365D03*
D578*
X009597Y003583D03*
X009070Y003583D03*
X011012Y003311D03*
D579*
X011565Y003311D03*
D580*
X008916Y003329D03*
D581*
X009343Y003329D03*
X009343Y003492D03*
D582*
X009651Y003329D03*
D583*
X009814Y003329D03*
X010123Y003329D03*
D584*
X009969Y003329D03*
D585*
X011556Y003329D03*
D586*
X008916Y003347D03*
D587*
X009343Y003347D03*
D588*
X009651Y003347D03*
D589*
X009814Y003347D03*
X010123Y003347D03*
D590*
X009969Y003347D03*
D591*
X009588Y003601D03*
X010331Y003656D03*
X010785Y003601D03*
X011003Y003347D03*
D592*
X011556Y003347D03*
X011538Y003656D03*
D593*
X009334Y003365D03*
D594*
X009651Y003365D03*
D595*
X009814Y003365D03*
X010123Y003365D03*
D596*
X010331Y003637D03*
X010985Y003365D03*
D597*
X011547Y003365D03*
D598*
X009334Y003383D03*
X009334Y003402D03*
X009334Y003438D03*
X009334Y003456D03*
D599*
X009606Y003565D03*
X009624Y003510D03*
X009642Y003438D03*
X009642Y003402D03*
X009642Y003383D03*
X009823Y003510D03*
X009823Y003547D03*
X010114Y003547D03*
X010114Y003510D03*
X010313Y003510D03*
X010313Y003492D03*
X010313Y003456D03*
X010785Y003438D03*
X008789Y003438D03*
D600*
X009823Y003383D03*
X010114Y003383D03*
D601*
X009969Y003383D03*
X009969Y003402D03*
X009969Y003438D03*
D602*
X010758Y003383D03*
D603*
X011529Y003383D03*
D604*
X010123Y003402D03*
X009814Y003402D03*
D605*
X011547Y003402D03*
D606*
X008308Y003420D03*
X008308Y003474D03*
X008308Y003529D03*
D607*
X009043Y003420D03*
X009061Y003474D03*
X009823Y003474D03*
X010114Y003474D03*
D608*
X009334Y003420D03*
D609*
X009642Y003420D03*
X009823Y003529D03*
X010114Y003529D03*
X010313Y003474D03*
X010785Y003420D03*
D610*
X010123Y003420D03*
X009814Y003420D03*
D611*
X009969Y003420D03*
D612*
X010304Y003420D03*
D613*
X011565Y003420D03*
D614*
X010331Y003619D03*
X010114Y003456D03*
X010114Y003438D03*
X009823Y003438D03*
X009823Y003456D03*
X009061Y003492D03*
X009061Y003510D03*
D615*
X009969Y003492D03*
X009969Y003456D03*
D616*
X010114Y003619D03*
X009823Y003619D03*
X009569Y003619D03*
X010767Y003456D03*
D617*
X011583Y003456D03*
D618*
X011039Y003474D03*
X008826Y003474D03*
X008826Y003529D03*
D619*
X009343Y003474D03*
D620*
X009615Y003529D03*
X009633Y003474D03*
X009070Y003529D03*
X010322Y003529D03*
D621*
X009969Y003474D03*
D622*
X010649Y003474D03*
X010649Y003529D03*
D623*
X011592Y003529D03*
X011592Y003474D03*
D624*
X009334Y003510D03*
D625*
X009343Y003529D03*
D626*
X011048Y003529D03*
D627*
X008789Y003583D03*
D628*
X009823Y003583D03*
X010114Y003583D03*
D629*
X010658Y003583D03*
D630*
X010114Y003601D03*
X009823Y003601D03*
X009080Y003601D03*
D631*
X010331Y003601D03*
D632*
X011583Y003601D03*
D633*
X009080Y003619D03*
D634*
X008318Y003637D03*
D635*
X009079Y003637D03*
D636*
X009823Y003637D03*
X010114Y003637D03*
D637*
X011556Y003637D03*
D638*
X009080Y003656D03*
D639*
X009823Y003656D03*
X010114Y003656D03*
D640*
X008662Y003674D03*
D641*
X010631Y003674D03*
D642*
X009959Y003692D03*
D643*
X009950Y003710D03*
D644*
X009959Y003728D03*
D645*
X009950Y003746D03*
D646*
X009959Y003764D03*
D647*
X005011Y006725D03*
D648*
X005427Y006725D03*
D649*
X006006Y006725D03*
X006446Y006725D03*
D650*
X006366Y006806D03*
X006366Y006812D03*
X006366Y006824D03*
X006366Y006830D03*
X006366Y006874D03*
X006366Y006886D03*
X006366Y006892D03*
X006198Y006892D03*
X006198Y006886D03*
X006198Y006874D03*
X006198Y006868D03*
X006198Y006861D03*
X006198Y006855D03*
X006198Y006843D03*
X006198Y006837D03*
X006198Y006830D03*
X006198Y006824D03*
X006198Y006812D03*
X006198Y006806D03*
X006198Y006799D03*
X006198Y006793D03*
X006198Y006781D03*
X006198Y006775D03*
X006198Y006768D03*
X006198Y006762D03*
X006198Y006750D03*
X006198Y006744D03*
X006198Y006737D03*
X006198Y006731D03*
X006198Y006954D03*
X006198Y006961D03*
X006198Y006967D03*
X006006Y007202D03*
X006006Y007209D03*
X006006Y007215D03*
X006006Y007221D03*
X006006Y007233D03*
X006006Y007240D03*
X006006Y007246D03*
X006006Y007252D03*
X006006Y007264D03*
X006006Y007271D03*
X006006Y007277D03*
X006006Y007283D03*
X006006Y007295D03*
X006006Y007302D03*
X006006Y007308D03*
X006006Y007314D03*
X006006Y007320D03*
X006006Y007333D03*
X006006Y007339D03*
X006006Y007345D03*
X006006Y007351D03*
X005913Y007277D03*
X005913Y007271D03*
X005913Y007264D03*
X005913Y007252D03*
X005913Y007246D03*
X005913Y007240D03*
X005913Y007233D03*
X005913Y007221D03*
X005913Y007215D03*
X005913Y007209D03*
X005913Y007202D03*
X005684Y007190D03*
X005684Y007184D03*
X005603Y007116D03*
X005516Y007066D03*
X005516Y007060D03*
X005516Y007054D03*
X005516Y007047D03*
X005516Y007035D03*
X005516Y007029D03*
X005516Y007023D03*
X005516Y007016D03*
X005516Y007004D03*
X005516Y006998D03*
X005516Y006992D03*
X005516Y006985D03*
X005516Y006973D03*
X005516Y006967D03*
X005516Y006961D03*
X005516Y006954D03*
X005516Y006874D03*
X005516Y006868D03*
X005516Y006861D03*
X005516Y006855D03*
X005516Y006843D03*
X005516Y006837D03*
X005516Y006830D03*
X005516Y006824D03*
X005516Y006750D03*
X005516Y006744D03*
X005516Y006737D03*
X005516Y006731D03*
X005603Y006930D03*
X005603Y006936D03*
X005709Y006861D03*
X005839Y006806D03*
X005839Y006799D03*
X005851Y006837D03*
X005851Y006843D03*
X005864Y006886D03*
X005864Y006892D03*
X005876Y006923D03*
X005876Y006930D03*
X005888Y006967D03*
X005814Y006737D03*
X005814Y006731D03*
X005541Y007277D03*
X005541Y007283D03*
X005541Y007295D03*
X005541Y007302D03*
X005194Y007277D03*
X005194Y007271D03*
X005194Y007264D03*
X005194Y007252D03*
X005194Y007246D03*
X005194Y007240D03*
X005194Y007233D03*
X005194Y007221D03*
X005194Y007215D03*
X005194Y007209D03*
X005194Y007202D03*
X005194Y007190D03*
X005194Y007184D03*
X005194Y007178D03*
X005194Y007171D03*
X005194Y007159D03*
X005194Y007153D03*
X005194Y007147D03*
X005194Y007140D03*
X005194Y007128D03*
X005194Y007122D03*
X005101Y007264D03*
X005194Y007333D03*
X005194Y007339D03*
X005194Y007345D03*
X005194Y007351D03*
X004958Y007295D03*
X004946Y007264D03*
X004946Y007215D03*
X004717Y007215D03*
X004717Y007221D03*
X004717Y007233D03*
X004717Y007240D03*
X004717Y007246D03*
X004717Y007252D03*
X004717Y007264D03*
X004717Y007209D03*
X004717Y007128D03*
X004717Y007122D03*
X004717Y007116D03*
X004717Y007109D03*
X004717Y007097D03*
X004717Y007091D03*
X004717Y007085D03*
X004717Y007078D03*
X004717Y007066D03*
X004717Y007060D03*
X004717Y007054D03*
X004717Y007047D03*
X004717Y007035D03*
X004717Y007029D03*
X004717Y007023D03*
X004717Y007016D03*
X004717Y007004D03*
X004717Y006998D03*
X004717Y006992D03*
X004717Y006985D03*
X004717Y006973D03*
X004717Y006967D03*
X004717Y006961D03*
X004717Y006954D03*
X004717Y006874D03*
X004717Y006868D03*
X004717Y006861D03*
X004717Y006855D03*
X004717Y006843D03*
X004717Y006837D03*
X004717Y006830D03*
X004717Y006824D03*
X004717Y006812D03*
X004717Y006806D03*
X004717Y006799D03*
X004717Y006793D03*
X004717Y006781D03*
X004717Y006775D03*
X004717Y006768D03*
X004717Y006762D03*
X004717Y006750D03*
X004717Y006744D03*
X004717Y006737D03*
X004717Y006731D03*
X004946Y006793D03*
X004946Y006799D03*
X004624Y007202D03*
X004624Y007209D03*
X004624Y007215D03*
X004624Y007221D03*
X004624Y007233D03*
X004624Y007240D03*
X004624Y007246D03*
X004624Y007252D03*
X004624Y007264D03*
X004624Y007271D03*
X004624Y007277D03*
X004717Y007339D03*
X004717Y007345D03*
X004717Y007351D03*
X006639Y007283D03*
X006639Y007190D03*
X006639Y007184D03*
X006781Y007271D03*
X006781Y007277D03*
X006781Y007283D03*
D651*
X006645Y007302D03*
X006632Y007277D03*
X006632Y007271D03*
X006632Y007264D03*
X006632Y007215D03*
X006632Y007209D03*
X006632Y007202D03*
X006558Y007308D03*
X006422Y007271D03*
X006422Y007264D03*
X006422Y007252D03*
X006422Y007221D03*
X006422Y007215D03*
X006422Y007209D03*
X006422Y007202D03*
X006155Y007209D03*
X006155Y007215D03*
X006155Y007221D03*
X006155Y007233D03*
X006155Y007240D03*
X006155Y007246D03*
X006155Y007252D03*
X006155Y007264D03*
X006155Y007271D03*
X006155Y007277D03*
X006155Y007283D03*
X006155Y007295D03*
X006155Y007302D03*
X006155Y007308D03*
X006155Y007314D03*
X006155Y007320D03*
X006155Y007333D03*
X006155Y007339D03*
X006155Y007345D03*
X006155Y007351D03*
X006155Y007128D03*
X006155Y007122D03*
X006093Y006905D03*
X006093Y006899D03*
X006093Y006892D03*
X006093Y006886D03*
X006093Y006874D03*
X006093Y006830D03*
X006093Y006824D03*
X006093Y006812D03*
X006093Y006806D03*
X006093Y006799D03*
X006093Y006744D03*
X006093Y006737D03*
X006093Y006731D03*
X005944Y006793D03*
X005944Y006799D03*
X005944Y006806D03*
X005944Y006812D03*
X005857Y006861D03*
X005857Y006868D03*
X005857Y006874D03*
X005870Y006899D03*
X005870Y006905D03*
X005845Y006824D03*
X005789Y006812D03*
X005783Y006830D03*
X005690Y006799D03*
X005640Y006812D03*
X005634Y006830D03*
X005634Y006837D03*
X005628Y006855D03*
X005628Y006861D03*
X005622Y006868D03*
X005622Y006874D03*
X005616Y006886D03*
X005616Y006892D03*
X005616Y006899D03*
X005609Y006917D03*
X005597Y006954D03*
X005597Y006961D03*
X005740Y006954D03*
X005665Y006731D03*
X005764Y007202D03*
X005764Y007209D03*
X005764Y007215D03*
X005764Y007221D03*
X005764Y007252D03*
X005764Y007264D03*
X005764Y007271D03*
X005764Y007277D03*
X005337Y007283D03*
X004952Y007283D03*
X004952Y007277D03*
X004952Y007271D03*
X004952Y007190D03*
X004865Y007215D03*
X004865Y007221D03*
X004865Y007233D03*
X004865Y007240D03*
X004865Y007246D03*
X004865Y007252D03*
X004859Y007283D03*
X004859Y007190D03*
X004859Y007184D03*
X004865Y006874D03*
X004865Y006868D03*
X004865Y006861D03*
X004865Y006855D03*
X004865Y006843D03*
X004865Y006837D03*
X004865Y006830D03*
X004865Y006824D03*
X004865Y006812D03*
X004865Y006806D03*
X004865Y006799D03*
X004865Y006793D03*
X004865Y006781D03*
X004865Y006775D03*
X004865Y006768D03*
X004865Y006762D03*
X004865Y006750D03*
X004865Y006744D03*
X004865Y006737D03*
X004865Y006731D03*
X004952Y006781D03*
X005095Y006793D03*
X005095Y006799D03*
X005095Y006806D03*
X005095Y006812D03*
X005095Y006824D03*
X005095Y006830D03*
X005095Y006874D03*
X005095Y006886D03*
X005095Y006892D03*
X005095Y006899D03*
X005095Y006905D03*
X005200Y006874D03*
X005200Y006868D03*
X005200Y006861D03*
X005200Y006855D03*
X005200Y006843D03*
X005200Y006837D03*
X005200Y006830D03*
X005200Y006824D03*
X005200Y006812D03*
X005200Y006806D03*
X005200Y006799D03*
X005200Y006793D03*
X005200Y006781D03*
X005200Y006775D03*
X005200Y006768D03*
X005200Y006762D03*
X005200Y006750D03*
X005200Y006744D03*
X005200Y006737D03*
X005200Y006731D03*
X005095Y006731D03*
X005095Y006737D03*
X005095Y006744D03*
X005200Y006954D03*
X005200Y006961D03*
X005200Y006967D03*
X005368Y006874D03*
X005368Y006868D03*
X005368Y006861D03*
X005368Y006855D03*
X005368Y006843D03*
X005368Y006837D03*
X005368Y006830D03*
X005368Y006824D03*
X004475Y007202D03*
X004475Y007209D03*
X004475Y007215D03*
X004475Y007264D03*
X004475Y007271D03*
X004475Y007277D03*
X006372Y006905D03*
X006372Y006899D03*
X006372Y006799D03*
X006372Y006793D03*
X006515Y006874D03*
X006515Y006886D03*
X006515Y006892D03*
D652*
X006214Y006923D03*
X006065Y007122D03*
X006344Y007351D03*
X006183Y007581D03*
X005544Y007159D03*
X005501Y006923D03*
X005501Y006775D03*
X005668Y006781D03*
X005743Y006905D03*
X005216Y006923D03*
X005024Y006967D03*
X004844Y006923D03*
X004806Y007122D03*
X004806Y007351D03*
X005073Y007581D03*
X005011Y006731D03*
D653*
X004850Y006917D03*
X004726Y007171D03*
X004726Y007302D03*
X004608Y007308D03*
X004490Y007308D03*
X004850Y007308D03*
X005203Y007302D03*
X005550Y007314D03*
X005550Y007264D03*
X005668Y007159D03*
X005780Y007308D03*
X005898Y007308D03*
X006146Y007171D03*
X006208Y006917D03*
X006388Y006923D03*
X006493Y006923D03*
X006388Y006775D03*
X006437Y007171D03*
X006437Y007302D03*
X006760Y007314D03*
X005743Y006923D03*
X005817Y006762D03*
X005668Y006762D03*
X005507Y006781D03*
X005427Y006731D03*
X005383Y006775D03*
D654*
X005423Y006961D03*
X005287Y006961D03*
X005312Y007314D03*
X005027Y007351D03*
X004841Y007314D03*
X004841Y007159D03*
X004803Y006961D03*
X005665Y006793D03*
X005814Y006793D03*
X006006Y006731D03*
X006019Y006967D03*
X006031Y007159D03*
X005839Y007351D03*
X006285Y006961D03*
X006446Y006731D03*
X006707Y007351D03*
X005076Y008988D03*
D655*
X006344Y007339D03*
X006338Y007333D03*
X005606Y007122D03*
X005426Y006954D03*
X005011Y006737D03*
X004806Y006954D03*
D656*
X004738Y007159D03*
X004738Y007314D03*
X005216Y007314D03*
X005427Y006737D03*
X005836Y007122D03*
X006505Y007122D03*
X006505Y007351D03*
D657*
X006431Y007295D03*
X006419Y007246D03*
X006419Y007240D03*
X006419Y007233D03*
X006431Y007184D03*
X006431Y007178D03*
X006505Y007116D03*
X006642Y007178D03*
X006716Y007116D03*
X006784Y007264D03*
X006772Y007302D03*
X006642Y007295D03*
X006152Y007202D03*
X006152Y007190D03*
X006152Y007184D03*
X006009Y007184D03*
X006009Y007190D03*
X005910Y007190D03*
X005910Y007184D03*
X005904Y007178D03*
X005836Y007116D03*
X005761Y007233D03*
X005761Y007240D03*
X005761Y007246D03*
X005681Y007202D03*
X005681Y007178D03*
X005681Y007171D03*
X005662Y007314D03*
X005544Y007308D03*
X005544Y007271D03*
X005334Y007295D03*
X005197Y007283D03*
X005098Y007283D03*
X005098Y007277D03*
X005098Y007271D03*
X005092Y007295D03*
X004961Y007302D03*
X004949Y007209D03*
X004949Y007202D03*
X004955Y007184D03*
X004955Y007178D03*
X004961Y007171D03*
X004856Y007178D03*
X004856Y007295D03*
X004720Y007283D03*
X004720Y007277D03*
X004720Y007271D03*
X004720Y007202D03*
X004720Y007190D03*
X004720Y007184D03*
X004621Y007184D03*
X004621Y007190D03*
X004614Y007178D03*
X004546Y007116D03*
X004478Y007184D03*
X004478Y007190D03*
X004472Y007221D03*
X004472Y007233D03*
X004472Y007240D03*
X004472Y007246D03*
X004472Y007252D03*
X004478Y007283D03*
X004614Y007295D03*
X004621Y007283D03*
X005073Y007568D03*
X005290Y006967D03*
X005371Y006899D03*
X005371Y006892D03*
X005371Y006886D03*
X005377Y006905D03*
X005426Y006967D03*
X005513Y006899D03*
X005513Y006892D03*
X005513Y006886D03*
X005513Y006812D03*
X005513Y006806D03*
X005513Y006799D03*
X005371Y006799D03*
X005371Y006806D03*
X005371Y006812D03*
X005203Y006886D03*
X005203Y006892D03*
X005203Y006899D03*
X005092Y006917D03*
X005092Y006868D03*
X005092Y006781D03*
X004955Y006775D03*
X004955Y006824D03*
X004806Y006967D03*
X004720Y006899D03*
X004720Y006892D03*
X004720Y006886D03*
X005594Y006967D03*
X005600Y006942D03*
X005606Y006923D03*
X005743Y006942D03*
X005873Y006917D03*
X005879Y006936D03*
X005879Y006942D03*
X005885Y006954D03*
X005885Y006961D03*
X005954Y006824D03*
X005954Y006775D03*
X005817Y006744D03*
X005668Y006744D03*
X005668Y006737D03*
X006201Y006899D03*
X006201Y006905D03*
X006369Y006868D03*
X006381Y006917D03*
X006511Y006905D03*
X006511Y006899D03*
X006511Y006868D03*
X006381Y006781D03*
X005910Y007283D03*
X005904Y007295D03*
X006183Y007568D03*
X006183Y009000D03*
X005073Y009000D03*
D658*
X005076Y007593D03*
X005027Y007345D03*
X005281Y007339D03*
X005839Y007345D03*
X005839Y007128D03*
X006006Y006737D03*
X006446Y006737D03*
X006707Y007345D03*
X004549Y007345D03*
X004549Y007128D03*
D659*
X005033Y007128D03*
X005281Y007333D03*
X005430Y006750D03*
X005008Y006744D03*
X006713Y007128D03*
D660*
X006443Y006954D03*
X005426Y006744D03*
X005024Y006961D03*
X004806Y007339D03*
D661*
X006003Y006744D03*
X006505Y007128D03*
X006505Y007345D03*
X006177Y008976D03*
X005079Y008976D03*
D662*
X004549Y007339D03*
X005839Y007339D03*
X006446Y006744D03*
D663*
X006505Y007153D03*
X006505Y007320D03*
X006090Y007140D03*
X006028Y006843D03*
X006028Y006750D03*
X005030Y006750D03*
X005030Y006843D03*
X005030Y007153D03*
D664*
X005033Y007116D03*
X005082Y007308D03*
X004965Y007308D03*
X005200Y007295D03*
X005380Y006917D03*
X005510Y006905D03*
X005510Y006793D03*
X005380Y006781D03*
X005665Y006750D03*
X005740Y006930D03*
X005740Y006936D03*
X005678Y007209D03*
X006012Y007178D03*
X006502Y006917D03*
X006645Y007171D03*
X006763Y007159D03*
X006775Y007295D03*
X006657Y007314D03*
X004723Y007295D03*
X004723Y007178D03*
X004487Y007171D03*
X004487Y007302D03*
X004723Y006905D03*
D665*
X004859Y006905D03*
X005089Y006923D03*
X005206Y006905D03*
X005089Y006775D03*
X005374Y006793D03*
X005076Y007159D03*
X005089Y007302D03*
X004853Y007302D03*
X004853Y007171D03*
X004611Y007171D03*
X004481Y007178D03*
X004481Y007295D03*
X004611Y007302D03*
X005330Y007302D03*
X005343Y007655D03*
X005771Y007295D03*
X005777Y007302D03*
X005901Y007302D03*
X005901Y007171D03*
X006019Y007171D03*
X006149Y007178D03*
X006260Y007295D03*
X006651Y007308D03*
X006769Y007308D03*
X006440Y006967D03*
X006285Y006967D03*
X006087Y006917D03*
X006081Y006923D03*
X006087Y006775D03*
X005814Y006750D03*
X005777Y007171D03*
X005771Y007178D03*
X005913Y007655D03*
D666*
X005613Y007339D03*
X005613Y007240D03*
X005253Y006942D03*
X005042Y006861D03*
X005030Y007140D03*
X006040Y006861D03*
X006450Y006750D03*
X006505Y007140D03*
X006505Y007333D03*
D667*
X006639Y007289D03*
X006366Y006818D03*
X006198Y006818D03*
X006198Y006849D03*
X006198Y006787D03*
X006198Y006756D03*
X006198Y006948D03*
X006006Y007227D03*
X006006Y007258D03*
X006006Y007289D03*
X006006Y007326D03*
X005913Y007258D03*
X005913Y007227D03*
X005851Y006849D03*
X005516Y006849D03*
X005516Y006948D03*
X005516Y006979D03*
X005516Y007010D03*
X005541Y007289D03*
X005194Y007258D03*
X005194Y007227D03*
X005194Y007165D03*
X005194Y007134D03*
X005101Y007258D03*
X004946Y007258D03*
X004717Y007258D03*
X004717Y007227D03*
X004717Y007134D03*
X004717Y007103D03*
X004717Y007072D03*
X004717Y007010D03*
X004717Y006979D03*
X004717Y006948D03*
X004717Y006849D03*
X004717Y006818D03*
X004717Y006787D03*
X004717Y006756D03*
X004624Y007227D03*
X004624Y007258D03*
D668*
X004475Y007258D03*
X004859Y007289D03*
X004865Y007258D03*
X004865Y007227D03*
X005095Y007289D03*
X005200Y006948D03*
X005200Y006849D03*
X005200Y006818D03*
X005200Y006787D03*
X005200Y006756D03*
X005095Y006787D03*
X005095Y006818D03*
X005095Y006911D03*
X004952Y006818D03*
X004952Y006787D03*
X004865Y006787D03*
X004865Y006818D03*
X004865Y006849D03*
X004865Y006756D03*
X005368Y006818D03*
X005368Y006849D03*
X005609Y006911D03*
X005628Y006849D03*
X005777Y006849D03*
X005845Y006818D03*
X005870Y006911D03*
X005882Y006948D03*
X005740Y006948D03*
X005944Y006787D03*
X006093Y006818D03*
X006155Y007134D03*
X006155Y007227D03*
X006155Y007258D03*
X006155Y007289D03*
X006155Y007326D03*
X006422Y007258D03*
X006558Y007165D03*
X006632Y007258D03*
X005764Y007258D03*
D669*
X005027Y006756D03*
D670*
X005451Y006756D03*
X005259Y007326D03*
X004782Y007326D03*
D671*
X004723Y006911D03*
X005510Y006787D03*
X005665Y006756D03*
X005678Y007165D03*
X006205Y006911D03*
D672*
X006651Y007165D03*
X006260Y007289D03*
X005814Y006756D03*
X005206Y006911D03*
X004853Y006911D03*
D673*
X006025Y006756D03*
D674*
X006450Y006756D03*
X006505Y007326D03*
D675*
X006087Y007153D03*
X006087Y007147D03*
X005603Y007147D03*
X005448Y006936D03*
X005448Y006930D03*
X005448Y006762D03*
X005027Y006762D03*
X005027Y006837D03*
X004785Y006930D03*
X004785Y006936D03*
X004785Y007153D03*
X004785Y007320D03*
X005262Y007320D03*
D676*
X005086Y007624D03*
X006022Y006762D03*
X006171Y007624D03*
X006171Y008945D03*
X005086Y008945D03*
D677*
X005082Y008951D03*
X006174Y008951D03*
X006174Y007618D03*
X006713Y007153D03*
X006446Y006762D03*
X005603Y007140D03*
X005609Y007320D03*
X005082Y007618D03*
X005027Y006936D03*
D678*
X004971Y006830D03*
X004965Y006768D03*
X005082Y006768D03*
X005213Y006917D03*
X005504Y006917D03*
X005665Y006775D03*
X005665Y006768D03*
X005814Y006768D03*
X005814Y006775D03*
X005963Y006768D03*
X005963Y006830D03*
X005740Y006917D03*
X005665Y007215D03*
X005324Y007308D03*
X005337Y007661D03*
X005919Y007661D03*
X006552Y007314D03*
X006552Y007159D03*
X006657Y007159D03*
X006490Y006768D03*
X006397Y006768D03*
D679*
X005445Y006768D03*
D680*
X005817Y006781D03*
X006078Y006768D03*
X005792Y007159D03*
X005792Y007314D03*
X006270Y007308D03*
X004503Y007314D03*
X004503Y007159D03*
D681*
X004807Y007116D03*
X004949Y006812D03*
X004949Y006806D03*
X005637Y006824D03*
X005693Y006812D03*
X005693Y006806D03*
X005699Y006824D03*
X005699Y006830D03*
X005699Y006837D03*
X005705Y006843D03*
X005705Y006855D03*
X005712Y006868D03*
X005712Y006874D03*
X005718Y006886D03*
X005718Y006892D03*
X005761Y006892D03*
X005768Y006886D03*
X005768Y006874D03*
X005780Y006843D03*
X005780Y006837D03*
X005792Y006806D03*
X005792Y006799D03*
X005842Y006812D03*
X005848Y006830D03*
X005854Y006855D03*
X005743Y006961D03*
X005910Y007649D03*
X005346Y007649D03*
X006499Y006775D03*
D682*
X006425Y007190D03*
X006425Y007277D03*
X006425Y007283D03*
X006257Y007283D03*
X006257Y007277D03*
X006257Y007271D03*
X006257Y007264D03*
X006257Y007252D03*
X006257Y007246D03*
X006257Y007240D03*
X006257Y007233D03*
X006257Y007221D03*
X006257Y007215D03*
X006257Y007209D03*
X006257Y007202D03*
X006257Y007190D03*
X006257Y007184D03*
X006257Y007178D03*
X006257Y007171D03*
X006257Y007159D03*
X006257Y007153D03*
X006257Y007147D03*
X006257Y007140D03*
X006257Y007128D03*
X006257Y007122D03*
X006257Y007333D03*
X006257Y007339D03*
X006257Y007345D03*
X006257Y007351D03*
X005768Y007283D03*
X005768Y007190D03*
X005768Y007184D03*
X005613Y006905D03*
X005340Y007122D03*
X005340Y007128D03*
X005340Y007140D03*
X005340Y007147D03*
X005340Y007153D03*
X005340Y007159D03*
X005340Y007171D03*
X005340Y007178D03*
X005340Y007184D03*
X005340Y007190D03*
X005340Y007202D03*
X005340Y007209D03*
X005340Y007215D03*
X005340Y007221D03*
X005340Y007233D03*
X005340Y007240D03*
X005340Y007246D03*
X005340Y007252D03*
X005340Y007264D03*
X005340Y007271D03*
X005340Y007277D03*
X004862Y007277D03*
X004862Y007271D03*
X004862Y007264D03*
X004862Y007209D03*
X004862Y007202D03*
X004862Y006899D03*
X004862Y006892D03*
X004862Y006886D03*
X005947Y006781D03*
X006090Y006781D03*
X006090Y006793D03*
X006090Y006868D03*
D683*
X006499Y006781D03*
X006555Y007171D03*
X006555Y007302D03*
X005904Y007643D03*
X005352Y007643D03*
X005303Y006923D03*
X004974Y006923D03*
D684*
X005377Y006911D03*
X005377Y006787D03*
X005513Y006818D03*
X005600Y006948D03*
X005538Y007165D03*
X005761Y007227D03*
X005910Y007289D03*
X006419Y007227D03*
X006431Y007289D03*
X006778Y007289D03*
X006784Y007258D03*
X006505Y006911D03*
X006375Y006911D03*
X006375Y006787D03*
X005334Y007289D03*
X005197Y007289D03*
X004955Y007289D03*
X004720Y007289D03*
X004621Y007289D03*
X004478Y007289D03*
X004472Y007227D03*
D685*
X005665Y006787D03*
X005814Y006787D03*
D686*
X005947Y006818D03*
X006090Y006787D03*
X006090Y006911D03*
X006257Y007134D03*
X006257Y007165D03*
X006257Y007227D03*
X006257Y007258D03*
X005768Y007289D03*
X005340Y007258D03*
X005340Y007227D03*
X005340Y007165D03*
X005340Y007134D03*
D687*
X005355Y007636D03*
X006502Y006787D03*
D688*
X005786Y006824D03*
X005774Y006855D03*
X005774Y006861D03*
X005774Y006868D03*
X005644Y006806D03*
X005644Y006799D03*
X005631Y006843D03*
D689*
X005637Y006818D03*
X005693Y006818D03*
X005705Y006849D03*
X006766Y007165D03*
D690*
X005786Y006818D03*
D691*
X006025Y006837D03*
D692*
X006440Y006837D03*
X006440Y006843D03*
X006440Y006855D03*
X006440Y006861D03*
X005603Y007153D03*
D693*
X005033Y006849D03*
D694*
X005613Y007326D03*
X006028Y006849D03*
D695*
X006440Y006849D03*
D696*
X006443Y006930D03*
X006716Y007147D03*
X006034Y006855D03*
X005036Y006855D03*
X005024Y006942D03*
X004546Y007153D03*
X004546Y007320D03*
D697*
X004624Y007196D03*
X004717Y007041D03*
X004717Y006880D03*
X005194Y007196D03*
X005516Y007041D03*
X005684Y007196D03*
X005839Y007357D03*
X005913Y007196D03*
X005864Y006880D03*
X006198Y006880D03*
X006366Y006880D03*
D698*
X006425Y007196D03*
X006257Y007196D03*
X005613Y007357D03*
X005340Y007196D03*
X004862Y007196D03*
X004862Y006880D03*
D699*
X005095Y006880D03*
X005200Y006880D03*
X004952Y007196D03*
X004549Y007357D03*
X004475Y007196D03*
X005622Y006880D03*
X005764Y007196D03*
X006093Y006880D03*
X006515Y006880D03*
X006632Y007196D03*
X006707Y007357D03*
X006502Y007357D03*
D700*
X006152Y007196D03*
X006009Y007196D03*
X005513Y006880D03*
X005371Y006880D03*
X005024Y007357D03*
X004720Y007196D03*
D701*
X004807Y007357D03*
X005278Y007357D03*
X005712Y006880D03*
X005768Y006880D03*
X006344Y007357D03*
D702*
X005882Y007314D03*
X005882Y007159D03*
X005740Y006899D03*
X004735Y006923D03*
X004593Y007159D03*
X004593Y007314D03*
X006180Y008988D03*
D703*
X006183Y008994D03*
X005073Y008994D03*
X005073Y007574D03*
X004968Y007165D03*
X004850Y007165D03*
X004608Y007165D03*
X004490Y007165D03*
X005507Y006911D03*
X005780Y007165D03*
X005898Y007165D03*
X006022Y007165D03*
X006183Y007574D03*
D704*
X006143Y007165D03*
X005740Y006911D03*
D705*
X005386Y006923D03*
X005206Y007308D03*
X005281Y007351D03*
X005076Y007314D03*
X004729Y007308D03*
X004729Y006917D03*
D706*
X004974Y006917D03*
X005668Y007302D03*
X005966Y006917D03*
X006363Y007308D03*
X006555Y007295D03*
X006555Y007178D03*
D707*
X005306Y006917D03*
D708*
X005969Y006923D03*
X006068Y007116D03*
X006353Y007314D03*
X006186Y007562D03*
X006186Y009007D03*
D709*
X005070Y009013D03*
X005070Y007556D03*
X005082Y007171D03*
X005535Y007178D03*
X006298Y006923D03*
D710*
X006028Y006930D03*
X006022Y006936D03*
X006022Y006942D03*
X006505Y007147D03*
X006710Y007320D03*
X005613Y007333D03*
X005030Y007147D03*
X005030Y006930D03*
D711*
X005250Y006930D03*
X005250Y006936D03*
X005603Y007246D03*
X005839Y007333D03*
X005839Y007140D03*
X006248Y006936D03*
X006440Y006942D03*
X006304Y007320D03*
X004549Y007333D03*
X004549Y007140D03*
D712*
X006022Y006954D03*
X006245Y006930D03*
X006710Y007333D03*
D713*
X006716Y007140D03*
X006443Y006936D03*
X006251Y006942D03*
X005619Y007233D03*
D714*
X005451Y006942D03*
X004782Y006942D03*
X004782Y007140D03*
X004782Y007147D03*
X004782Y007333D03*
D715*
X004806Y007134D03*
X004806Y006948D03*
X005426Y006948D03*
D716*
X005606Y007134D03*
X006022Y006948D03*
X005024Y006948D03*
X005024Y007326D03*
D717*
X005284Y006948D03*
D718*
X006279Y006948D03*
D719*
X006440Y006948D03*
X005839Y007134D03*
X004549Y007134D03*
D720*
X005024Y006954D03*
X005024Y007333D03*
X005594Y007252D03*
D721*
X005613Y007351D03*
X005290Y006954D03*
X006282Y006954D03*
D722*
X006019Y006961D03*
D723*
X006068Y007128D03*
X006279Y007314D03*
X006347Y007345D03*
X006180Y007587D03*
X005926Y007674D03*
X005330Y007674D03*
X005281Y007345D03*
X005033Y007122D03*
X004803Y007345D03*
X006180Y008982D03*
X006713Y007122D03*
X006440Y006961D03*
D724*
X005740Y006967D03*
X005535Y007171D03*
X005665Y007308D03*
X005070Y007562D03*
X005070Y009007D03*
D725*
X004546Y007351D03*
X004546Y007122D03*
X004806Y007128D03*
X006133Y007159D03*
X006456Y007159D03*
X006456Y007314D03*
D726*
X006177Y007599D03*
X005606Y007128D03*
X005024Y007339D03*
X005079Y007599D03*
X005079Y008969D03*
X006177Y008969D03*
D727*
X006177Y008963D03*
X005079Y008963D03*
X005079Y007605D03*
X005030Y007134D03*
X005625Y007227D03*
X006177Y007605D03*
D728*
X006065Y007134D03*
X005575Y007258D03*
D729*
X006502Y007134D03*
D730*
X006716Y007134D03*
D731*
X006174Y007612D03*
X005839Y007320D03*
X005839Y007153D03*
X005839Y007147D03*
X005027Y007320D03*
X005082Y007612D03*
X004549Y007147D03*
X005082Y008957D03*
X006174Y008957D03*
D732*
X006264Y007302D03*
X006443Y007308D03*
X004974Y007314D03*
X004974Y007159D03*
D733*
X004729Y007165D03*
D734*
X005082Y007165D03*
D735*
X006443Y007165D03*
D736*
X006769Y007171D03*
X006186Y007556D03*
X006186Y009013D03*
D737*
X005535Y007184D03*
D738*
X005024Y007221D03*
X005024Y007233D03*
X005024Y007240D03*
X005024Y007246D03*
X005024Y007252D03*
D739*
X005613Y007345D03*
X005637Y007221D03*
X006710Y007339D03*
D740*
X006710Y007252D03*
X006710Y007246D03*
X006710Y007240D03*
X006710Y007233D03*
X006710Y007221D03*
X006170Y007630D03*
X005085Y007630D03*
X005085Y008938D03*
X006170Y008938D03*
D741*
X005024Y007227D03*
D742*
X006710Y007227D03*
D743*
X005839Y007326D03*
X004549Y007326D03*
D744*
X006307Y007326D03*
X006710Y007326D03*
D745*
X006502Y007339D03*
D746*
X005076Y007587D03*
X005076Y008982D03*
D747*
X006180Y007593D03*
D748*
X005089Y007636D03*
D749*
X005901Y007636D03*
D750*
X006167Y007636D03*
D751*
X005089Y007643D03*
X005089Y008926D03*
D752*
X006167Y008926D03*
X006167Y007643D03*
D753*
X005089Y007649D03*
D754*
X006164Y007649D03*
X006164Y008920D03*
X005092Y008920D03*
D755*
X005092Y008914D03*
X006164Y008914D03*
X006164Y007655D03*
X005092Y007655D03*
D756*
X005092Y007661D03*
X006164Y007661D03*
D757*
X005095Y007667D03*
X005628Y009087D03*
D758*
X005330Y007667D03*
X005926Y007667D03*
D759*
X006161Y007667D03*
D760*
X005095Y007674D03*
D761*
X006161Y007674D03*
X005628Y009038D03*
X005628Y009044D03*
X005628Y009050D03*
X005628Y009062D03*
D762*
X006099Y007680D03*
X005157Y007680D03*
D763*
X005157Y007686D03*
X005250Y007915D03*
X006006Y007915D03*
X006012Y007903D03*
X006099Y007686D03*
X005628Y008926D03*
D764*
X006003Y007934D03*
X006003Y007928D03*
X006016Y007897D03*
X005247Y007909D03*
X005241Y007897D03*
X005154Y007692D03*
D765*
X005253Y007928D03*
X005253Y007934D03*
X006009Y007909D03*
X006102Y007692D03*
D766*
X005154Y007698D03*
D767*
X006102Y007698D03*
D768*
X006105Y007705D03*
X006062Y007816D03*
X006056Y007822D03*
X006050Y007835D03*
X005206Y007835D03*
X005200Y007822D03*
X005194Y007816D03*
X005151Y007705D03*
X005628Y008920D03*
D769*
X006053Y008467D03*
X006065Y007810D03*
X006065Y007804D03*
X005253Y007959D03*
X005253Y007965D03*
X005197Y008108D03*
X005197Y008461D03*
X005148Y007711D03*
D770*
X005191Y007804D03*
X005191Y007810D03*
X005203Y008467D03*
X006059Y008461D03*
X006059Y008108D03*
X006003Y007965D03*
X006003Y007959D03*
X006109Y007711D03*
D771*
X006102Y007742D03*
X006090Y007760D03*
X006078Y008120D03*
X006040Y008480D03*
X005210Y008089D03*
X005253Y007977D03*
X005172Y007773D03*
X005160Y007754D03*
X005148Y007723D03*
X005148Y007717D03*
D772*
X005154Y007742D03*
X005166Y007760D03*
X005179Y008120D03*
X005216Y008480D03*
X006046Y008089D03*
X006003Y007977D03*
X006084Y007773D03*
X006096Y007754D03*
X006109Y007723D03*
X006109Y007717D03*
D773*
X006105Y007729D03*
X006099Y007748D03*
X006043Y008083D03*
X005213Y008083D03*
X005225Y008492D03*
X005157Y007748D03*
X005151Y007729D03*
D774*
X005151Y007736D03*
X005219Y008486D03*
X006037Y008486D03*
X006105Y007736D03*
D775*
X005166Y007767D03*
D776*
X006090Y007767D03*
D777*
X006081Y007779D03*
X006081Y007785D03*
X006074Y007791D03*
X006000Y007971D03*
X006050Y008095D03*
X006056Y008101D03*
X006050Y008473D03*
X005206Y008473D03*
X005200Y008101D03*
X005206Y008095D03*
X005256Y007971D03*
X005182Y007791D03*
X005175Y007785D03*
X005175Y007779D03*
D778*
X005185Y007798D03*
X006065Y008114D03*
D779*
X006071Y007798D03*
X005191Y008114D03*
D780*
X005200Y007829D03*
X006056Y007829D03*
D781*
X006040Y007853D03*
X005253Y007946D03*
X005222Y007866D03*
X005210Y007847D03*
X005210Y007841D03*
D782*
X005216Y007853D03*
X006003Y007946D03*
X006034Y007866D03*
X006046Y007847D03*
X006046Y007841D03*
D783*
X006037Y007860D03*
X005219Y007860D03*
D784*
X005225Y007872D03*
X005231Y007878D03*
X005231Y007884D03*
X005256Y007940D03*
X006000Y007940D03*
X006031Y007872D03*
D785*
X006025Y007878D03*
X006025Y007884D03*
D786*
X006022Y007891D03*
X005234Y007891D03*
D787*
X005244Y007903D03*
D788*
X005250Y007922D03*
X006006Y007922D03*
D789*
X006000Y007953D03*
X005256Y007953D03*
D790*
X005256Y007984D03*
X006000Y007984D03*
D791*
X006078Y008449D03*
X006028Y008498D03*
X005228Y008498D03*
X005253Y007996D03*
X005253Y007990D03*
D792*
X005179Y008449D03*
X006003Y007996D03*
X006003Y007990D03*
D793*
X006000Y008002D03*
X006031Y008070D03*
X006019Y008504D03*
X005628Y008914D03*
X005231Y008064D03*
X005256Y008002D03*
D794*
X005253Y008008D03*
X006003Y008008D03*
D795*
X005256Y008015D03*
D796*
X006000Y008015D03*
D797*
X006003Y008021D03*
X006015Y008052D03*
X005253Y008021D03*
X005240Y008052D03*
X005160Y008442D03*
D798*
X005256Y008033D03*
X005256Y008027D03*
X006006Y008517D03*
X005628Y008907D03*
D799*
X005250Y008517D03*
X006000Y008033D03*
X006000Y008027D03*
D800*
X006003Y008039D03*
X005253Y008039D03*
D801*
X005250Y008046D03*
D802*
X006006Y008046D03*
D803*
X006099Y008126D03*
X006012Y008511D03*
X005237Y008058D03*
D804*
X005244Y008511D03*
X006019Y008058D03*
D805*
X006025Y008064D03*
X005225Y008070D03*
X005237Y008504D03*
D806*
X005222Y008077D03*
X006034Y008077D03*
D807*
X005160Y008126D03*
D808*
X005141Y008132D03*
X005141Y008436D03*
D809*
X006115Y008436D03*
X006115Y008132D03*
D810*
X006133Y008139D03*
X005123Y008139D03*
D811*
X005101Y008145D03*
D812*
X006155Y008145D03*
D813*
X006171Y008151D03*
X005086Y008151D03*
D814*
X005067Y008157D03*
X005048Y008194D03*
X005048Y008201D03*
X005048Y008356D03*
X005048Y008368D03*
X006208Y008368D03*
X006208Y008356D03*
X006208Y008201D03*
X006208Y008194D03*
X006189Y008157D03*
D815*
X005058Y008163D03*
X005058Y008405D03*
D816*
X006198Y008405D03*
X006198Y008163D03*
D817*
X006202Y008170D03*
X006202Y008399D03*
X005055Y008399D03*
X005055Y008170D03*
D818*
X005055Y008176D03*
X005055Y008393D03*
X006202Y008393D03*
X006202Y008176D03*
D819*
X005051Y008182D03*
X005051Y008188D03*
X005051Y008374D03*
X005051Y008380D03*
X005051Y008387D03*
X005064Y008411D03*
D820*
X006192Y008411D03*
X006205Y008387D03*
X006205Y008380D03*
X006205Y008374D03*
X006205Y008188D03*
X006205Y008182D03*
D821*
X006208Y008207D03*
X006208Y008362D03*
X005048Y008362D03*
X005048Y008207D03*
D822*
X005045Y008213D03*
X005045Y008219D03*
X005045Y008225D03*
X005045Y008232D03*
X005045Y008337D03*
X005045Y008343D03*
X005045Y008349D03*
X005628Y008883D03*
D823*
X006211Y008349D03*
X006211Y008343D03*
X006211Y008337D03*
X006211Y008232D03*
X006211Y008225D03*
X006211Y008219D03*
X006211Y008213D03*
D824*
X006214Y008238D03*
X006214Y008269D03*
X005042Y008269D03*
X005042Y008238D03*
X005042Y008331D03*
D825*
X005042Y008325D03*
X005042Y008318D03*
X005042Y008312D03*
X005042Y008306D03*
X005042Y008294D03*
X005042Y008287D03*
X005042Y008281D03*
X005042Y008275D03*
X005042Y008263D03*
X005042Y008256D03*
X005042Y008250D03*
X005042Y008244D03*
X006214Y008244D03*
X006214Y008250D03*
X006214Y008256D03*
X006214Y008263D03*
X006214Y008275D03*
X006214Y008281D03*
X006214Y008287D03*
X006214Y008294D03*
X006214Y008306D03*
X006214Y008312D03*
X006214Y008318D03*
X006214Y008325D03*
D826*
X006214Y008300D03*
X005042Y008300D03*
D827*
X006211Y008331D03*
D828*
X005082Y008418D03*
D829*
X006174Y008418D03*
D830*
X006152Y008424D03*
X005104Y008424D03*
D831*
X005120Y008430D03*
D832*
X006136Y008430D03*
D833*
X006096Y008442D03*
D834*
X005191Y008455D03*
D835*
X006065Y008455D03*
D836*
X006031Y008492D03*
D837*
X005997Y008523D03*
X005259Y008523D03*
D838*
X005268Y008529D03*
D839*
X005988Y008529D03*
D840*
X005281Y008535D03*
D841*
X005975Y008535D03*
D842*
X005947Y008542D03*
X005309Y008542D03*
D843*
X005628Y008548D03*
X005628Y008560D03*
X005628Y008690D03*
D844*
X005628Y008554D03*
D845*
X005628Y008566D03*
X005628Y008573D03*
X005628Y008684D03*
D846*
X005628Y008672D03*
X005628Y008579D03*
D847*
X005628Y008585D03*
D848*
X005628Y008591D03*
X005628Y008597D03*
X005628Y008604D03*
X005628Y008659D03*
X005628Y008666D03*
D849*
X005628Y008653D03*
X005628Y008610D03*
D850*
X005628Y008616D03*
D851*
X005628Y008622D03*
X005628Y008628D03*
X005628Y008635D03*
X005628Y008641D03*
D852*
X005628Y008647D03*
D853*
X005628Y008678D03*
D854*
X005628Y008697D03*
D855*
X005631Y008703D03*
D856*
X005628Y008709D03*
D857*
X005628Y008715D03*
D858*
X005628Y008721D03*
X005628Y008728D03*
D859*
X005628Y008734D03*
D860*
X005628Y008740D03*
D861*
X005628Y008746D03*
D862*
X005628Y008752D03*
D863*
X005628Y008759D03*
X005628Y008765D03*
D864*
X005628Y008771D03*
D865*
X005628Y008777D03*
X005628Y008783D03*
D866*
X005628Y008790D03*
D867*
X005628Y008796D03*
X005628Y008876D03*
D868*
X005628Y008802D03*
D869*
X005628Y008808D03*
X005628Y008870D03*
D870*
X005628Y008814D03*
D871*
X005628Y008821D03*
X005628Y008827D03*
X005628Y008858D03*
D872*
X005628Y008833D03*
D873*
X005628Y008839D03*
X005628Y008845D03*
X005628Y008852D03*
D874*
X005628Y008864D03*
D875*
X005098Y008883D03*
X006158Y008883D03*
D876*
X006158Y008889D03*
X005098Y008889D03*
D877*
X005628Y008889D03*
D878*
X005098Y008895D03*
X006158Y008895D03*
D879*
X005628Y008895D03*
D880*
X005095Y008901D03*
D881*
X005628Y008901D03*
D882*
X006161Y008901D03*
D883*
X005095Y008907D03*
D884*
X005628Y009106D03*
X005628Y009112D03*
X005628Y009124D03*
X005628Y009131D03*
X006161Y008907D03*
D885*
X005089Y008932D03*
D886*
X005628Y008932D03*
D887*
X006167Y008932D03*
D888*
X005628Y008938D03*
D889*
X005628Y008945D03*
D890*
X005628Y008951D03*
X005628Y008957D03*
D891*
X005628Y008963D03*
D892*
X005628Y008969D03*
X005628Y008976D03*
X005628Y008982D03*
X005628Y008988D03*
X005628Y009000D03*
D893*
X005628Y008994D03*
D894*
X005628Y009007D03*
X005628Y009013D03*
X005628Y009019D03*
X005628Y009031D03*
D895*
X005628Y009025D03*
D896*
X005628Y009056D03*
D897*
X005628Y009069D03*
X005628Y009075D03*
X005628Y009081D03*
X005628Y009093D03*
X005628Y009100D03*
D898*
X005628Y009118D03*
D899*
X005628Y009137D03*
X005628Y009143D03*
X005628Y009155D03*
X005628Y009162D03*
D900*
X005628Y009149D03*
D901*
X005628Y009168D03*
X005628Y009174D03*
X005628Y009186D03*
X005628Y009193D03*
D902*
X005628Y009180D03*
D903*
X005628Y009199D03*
M02*
