G75*
%MOIN*%
%OFA0B0*%
%FSLAX24Y24*%
%IPPOS*%
%LPD*%
%AMOC8*
5,1,8,0,0,1.08239X$1,22.5*
%
%ADD10C,0.0080*%
%ADD11C,0.0020*%
%ADD12R,0.0033X0.0017*%
%ADD13R,0.0017X0.0017*%
%ADD14R,0.0067X0.0017*%
%ADD15R,0.0017X0.0017*%
%ADD16R,0.0017X0.0017*%
%ADD17R,0.0017X0.0017*%
%ADD18R,0.0033X0.0017*%
%ADD19R,0.0033X0.0017*%
%ADD20R,0.0017X0.0017*%
%ADD21R,0.0017X0.0017*%
%ADD22R,0.0033X0.0017*%
%ADD23R,0.0017X0.0017*%
%ADD24R,0.0017X0.0017*%
%ADD25R,0.0050X0.0017*%
%ADD26R,0.0083X0.0017*%
%ADD27R,0.0200X0.0017*%
%ADD28R,0.0317X0.0017*%
%ADD29R,0.0117X0.0017*%
%ADD30R,0.0167X0.0017*%
%ADD31R,0.0033X0.0017*%
%ADD32R,0.0050X0.0017*%
%ADD33R,0.0033X0.0017*%
%ADD34R,0.0067X0.0017*%
%ADD35R,0.0150X0.0017*%
%ADD36R,0.0450X0.0017*%
%ADD37R,0.0267X0.0017*%
%ADD38R,0.0050X0.0017*%
%ADD39R,0.0283X0.0017*%
%ADD40R,0.0483X0.0017*%
%ADD41R,0.0367X0.0017*%
%ADD42R,0.0183X0.0017*%
%ADD43R,0.0133X0.0017*%
%ADD44R,0.0183X0.0017*%
%ADD45R,0.0067X0.0017*%
%ADD46R,0.0350X0.0017*%
%ADD47R,0.0083X0.0017*%
%ADD48R,0.0483X0.0017*%
%ADD49R,0.0417X0.0017*%
%ADD50R,0.0250X0.0017*%
%ADD51R,0.0050X0.0017*%
%ADD52R,0.0250X0.0017*%
%ADD53R,0.0267X0.0017*%
%ADD54R,0.0150X0.0017*%
%ADD55R,0.0150X0.0017*%
%ADD56R,0.0100X0.0017*%
%ADD57R,0.0100X0.0017*%
%ADD58R,0.0083X0.0017*%
%ADD59R,0.0083X0.0017*%
%ADD60R,0.0400X0.0017*%
%ADD61R,0.0217X0.0017*%
%ADD62R,0.0050X0.0017*%
%ADD63R,0.0117X0.0017*%
%ADD64R,0.0100X0.0017*%
%ADD65R,0.0100X0.0017*%
%ADD66R,0.0067X0.0017*%
%ADD67R,0.0117X0.0017*%
%ADD68R,0.0067X0.0017*%
%ADD69R,0.0133X0.0017*%
%ADD70R,0.0067X0.0017*%
%ADD71R,0.0067X0.0017*%
%ADD72R,0.0150X0.0017*%
%ADD73R,0.0033X0.0017*%
%ADD74R,0.0050X0.0017*%
%ADD75R,0.0083X0.0017*%
%ADD76R,0.0050X0.0017*%
%ADD77R,0.0350X0.0017*%
%ADD78R,0.0400X0.0017*%
%ADD79R,0.0450X0.0017*%
%ADD80R,0.0083X0.0017*%
%ADD81R,0.0467X0.0017*%
%ADD82R,0.0050X0.0017*%
%ADD83R,0.0317X0.0017*%
%ADD84R,0.0317X0.0017*%
%ADD85R,0.0317X0.0017*%
%ADD86R,0.0100X0.0017*%
%ADD87R,0.0150X0.0017*%
%ADD88R,0.0233X0.0017*%
%ADD89R,0.0217X0.0017*%
%ADD90R,0.0233X0.0017*%
%ADD91R,0.0300X0.0017*%
%ADD92R,0.0083X0.0017*%
%ADD93R,0.0133X0.0017*%
%ADD94R,0.0167X0.0017*%
%ADD95R,0.0183X0.0017*%
%ADD96R,0.0183X0.0017*%
%ADD97R,0.0167X0.0017*%
%ADD98R,0.0133X0.0017*%
%ADD99R,0.0033X0.0017*%
%ADD100R,0.0317X0.0017*%
%ADD101R,0.0250X0.0017*%
%ADD102R,0.0217X0.0017*%
%ADD103R,0.0583X0.0017*%
%ADD104R,0.0417X0.0017*%
%ADD105R,0.0600X0.0017*%
%ADD106R,0.0367X0.0017*%
%ADD107R,0.0467X0.0017*%
%ADD108R,0.0567X0.0017*%
%ADD109R,0.0267X0.0017*%
%ADD110R,0.0183X0.0017*%
%ADD111R,0.0217X0.0017*%
%ADD112R,0.0133X0.0017*%
%ADD113R,0.0017X0.0017*%
%ADD114R,0.6146X0.0025*%
%ADD115R,0.6442X0.0025*%
%ADD116R,0.6591X0.0025*%
%ADD117R,0.6739X0.0025*%
%ADD118R,0.6788X0.0025*%
%ADD119R,0.6887X0.0025*%
%ADD120R,0.6985X0.0025*%
%ADD121R,0.7035X0.0025*%
%ADD122R,0.7134X0.0025*%
%ADD123R,0.7183X0.0025*%
%ADD124R,0.7232X0.0025*%
%ADD125R,0.7282X0.0025*%
%ADD126R,0.7331X0.0025*%
%ADD127R,0.7380X0.0025*%
%ADD128R,0.7430X0.0025*%
%ADD129R,0.7479X0.0025*%
%ADD130R,0.7479X0.0025*%
%ADD131R,0.2814X0.0025*%
%ADD132R,0.4665X0.0025*%
%ADD133R,0.2814X0.0025*%
%ADD134R,0.4690X0.0025*%
%ADD135R,0.4690X0.0025*%
%ADD136R,0.2839X0.0025*%
%ADD137R,0.4715X0.0025*%
%ADD138R,0.0568X0.0025*%
%ADD139R,0.0074X0.0025*%
%ADD140R,0.0099X0.0025*%
%ADD141R,0.0025X0.0025*%
%ADD142R,0.0123X0.0025*%
%ADD143R,0.0222X0.0025*%
%ADD144R,0.0247X0.0025*%
%ADD145R,0.0025X0.0025*%
%ADD146R,0.0049X0.0025*%
%ADD147R,0.0074X0.0025*%
%ADD148R,0.3826X0.0025*%
%ADD149R,0.0592X0.0025*%
%ADD150R,0.0074X0.0025*%
%ADD151R,0.0049X0.0025*%
%ADD152R,0.0197X0.0025*%
%ADD153R,0.0099X0.0025*%
%ADD154R,0.0074X0.0025*%
%ADD155R,0.0123X0.0025*%
%ADD156R,0.3851X0.0025*%
%ADD157R,0.0617X0.0025*%
%ADD158R,0.0099X0.0025*%
%ADD159R,0.0173X0.0025*%
%ADD160R,0.3875X0.0025*%
%ADD161R,0.0617X0.0025*%
%ADD162R,0.0025X0.0025*%
%ADD163R,0.0346X0.0025*%
%ADD164R,0.0173X0.0025*%
%ADD165R,0.0123X0.0025*%
%ADD166R,0.3875X0.0025*%
%ADD167R,0.0049X0.0025*%
%ADD168R,0.0222X0.0025*%
%ADD169R,0.0148X0.0025*%
%ADD170R,0.0642X0.0025*%
%ADD171R,0.0346X0.0025*%
%ADD172R,0.0123X0.0025*%
%ADD173R,0.3900X0.0025*%
%ADD174R,0.0642X0.0025*%
%ADD175R,0.0197X0.0025*%
%ADD176R,0.0099X0.0025*%
%ADD177R,0.0272X0.0025*%
%ADD178R,0.3900X0.0025*%
%ADD179R,0.0666X0.0025*%
%ADD180R,0.3925X0.0025*%
%ADD181R,0.0025X0.0025*%
%ADD182R,0.3949X0.0025*%
%ADD183R,0.0666X0.0025*%
%ADD184R,0.0074X0.0025*%
%ADD185R,0.0518X0.0025*%
%ADD186R,0.1012X0.0025*%
%ADD187R,0.0123X0.0025*%
%ADD188R,0.4961X0.0025*%
%ADD189R,0.0518X0.0025*%
%ADD190R,0.1012X0.0025*%
%ADD191R,0.4961X0.0025*%
%ADD192R,0.0666X0.0025*%
%ADD193R,0.0543X0.0025*%
%ADD194R,0.0469X0.0025*%
%ADD195R,0.0518X0.0025*%
%ADD196R,0.0691X0.0025*%
%ADD197R,0.4221X0.0025*%
%ADD198R,0.0543X0.0025*%
%ADD199R,0.0469X0.0025*%
%ADD200R,0.0716X0.0025*%
%ADD201R,0.4221X0.0025*%
%ADD202R,0.7874X0.0025*%
%ADD203R,0.7874X0.0025*%
%ADD204R,0.7874X0.0025*%
%ADD205R,0.0740X0.0025*%
%ADD206R,0.0148X0.0025*%
%ADD207R,0.0173X0.0025*%
%ADD208R,0.1506X0.0025*%
%ADD209R,0.0740X0.0025*%
%ADD210R,0.0148X0.0025*%
%ADD211R,0.0173X0.0025*%
%ADD212R,0.1506X0.0025*%
%ADD213R,0.0716X0.0025*%
%ADD214R,0.0716X0.0025*%
%ADD215R,0.0049X0.0025*%
%ADD216R,0.0691X0.0025*%
%ADD217R,0.0247X0.0025*%
%ADD218R,0.0691X0.0025*%
%ADD219R,0.0666X0.0025*%
%ADD220R,0.0666X0.0025*%
%ADD221R,0.0197X0.0025*%
%ADD222R,0.0247X0.0025*%
%ADD223R,0.0271X0.0025*%
%ADD224R,0.1555X0.0025*%
%ADD225R,0.2271X0.0025*%
%ADD226R,0.0617X0.0025*%
%ADD227R,0.0691X0.0025*%
%ADD228R,0.0222X0.0025*%
%ADD229R,0.0173X0.0025*%
%ADD230R,0.2641X0.0025*%
%ADD231R,0.2271X0.0025*%
%ADD232R,0.2666X0.0025*%
%ADD233R,0.2296X0.0025*%
%ADD234R,0.2691X0.0025*%
%ADD235R,0.2296X0.0025*%
%ADD236R,0.1407X0.0025*%
%ADD237R,0.4097X0.0025*%
%ADD238R,0.3554X0.0025*%
%ADD239R,0.0592X0.0025*%
%ADD240R,0.3456X0.0025*%
%ADD241R,0.0494X0.0025*%
%ADD242R,0.3431X0.0025*%
%ADD243R,0.0469X0.0025*%
%ADD244R,0.3406X0.0025*%
%ADD245R,0.0444X0.0025*%
%ADD246R,0.3382X0.0025*%
%ADD247R,0.0420X0.0025*%
%ADD248R,0.3357X0.0025*%
%ADD249R,0.0395X0.0025*%
%ADD250R,0.3357X0.0025*%
%ADD251R,0.0395X0.0025*%
%ADD252R,0.3332X0.0025*%
%ADD253R,0.0370X0.0025*%
%ADD254R,0.3332X0.0025*%
%ADD255R,0.0370X0.0025*%
%ADD256R,0.0296X0.0025*%
%ADD257R,0.0321X0.0025*%
%ADD258R,0.1481X0.0025*%
%ADD259R,0.1456X0.0025*%
%ADD260R,0.1407X0.0025*%
%ADD261R,0.0346X0.0025*%
%ADD262R,0.0691X0.0025*%
%ADD263R,0.0173X0.0025*%
%ADD264R,0.0099X0.0025*%
%ADD265R,0.1407X0.0025*%
%ADD266R,0.0346X0.0025*%
%ADD267R,0.1382X0.0025*%
%ADD268R,0.0420X0.0025*%
%ADD269R,0.1382X0.0025*%
%ADD270R,0.1358X0.0025*%
%ADD271R,0.1333X0.0025*%
%ADD272R,0.1333X0.0025*%
%ADD273R,0.1308X0.0025*%
%ADD274R,0.0197X0.0025*%
%ADD275R,0.0148X0.0025*%
%ADD276R,0.1308X0.0025*%
%ADD277R,0.1284X0.0025*%
%ADD278R,0.0148X0.0025*%
%ADD279R,0.0197X0.0025*%
%ADD280R,0.1308X0.0025*%
%ADD281R,0.2172X0.0025*%
%ADD282R,0.2172X0.0025*%
%ADD283R,0.2221X0.0025*%
%ADD284R,0.2246X0.0025*%
%ADD285R,0.3382X0.0025*%
%ADD286R,0.3406X0.0025*%
%ADD287R,0.0444X0.0025*%
%ADD288R,0.3431X0.0025*%
%ADD289R,0.0469X0.0025*%
%ADD290R,0.0518X0.0025*%
%ADD291R,0.0889X0.0025*%
%ADD292R,0.0568X0.0025*%
%ADD293R,0.0815X0.0025*%
%ADD294R,0.0790X0.0025*%
%ADD295R,0.0765X0.0025*%
%ADD296R,0.0370X0.0025*%
%ADD297R,0.0666X0.0025*%
%ADD298R,0.0765X0.0025*%
%ADD299R,0.0790X0.0025*%
%ADD300R,0.0469X0.0025*%
%ADD301R,0.0913X0.0025*%
%ADD302R,0.0592X0.0025*%
%ADD303R,0.5011X0.0025*%
%ADD304R,0.4986X0.0025*%
%ADD305R,0.4986X0.0025*%
%ADD306R,0.0691X0.0025*%
%ADD307R,0.4961X0.0025*%
%ADD308R,0.0370X0.0025*%
%ADD309R,0.4937X0.0025*%
%ADD310R,0.4937X0.0025*%
%ADD311R,0.0642X0.0025*%
%ADD312R,0.0025X0.0025*%
%ADD313R,0.0099X0.0025*%
%ADD314R,0.4912X0.0025*%
%ADD315R,0.4912X0.0025*%
%ADD316R,0.4912X0.0025*%
%ADD317R,0.4887X0.0025*%
%ADD318R,0.0222X0.0025*%
%ADD319R,0.4863X0.0025*%
%ADD320R,0.0592X0.0025*%
%ADD321R,0.0864X0.0025*%
%ADD322R,0.4863X0.0025*%
%ADD323R,0.0568X0.0025*%
%ADD324R,0.0864X0.0025*%
%ADD325R,0.4838X0.0025*%
%ADD326R,0.4838X0.0025*%
%ADD327R,0.4813X0.0025*%
%ADD328R,0.0889X0.0025*%
%ADD329R,0.4789X0.0025*%
%ADD330R,0.0938X0.0025*%
%ADD331R,0.7380X0.0025*%
%ADD332R,0.7183X0.0025*%
%ADD333R,0.7134X0.0025*%
%ADD334R,0.6985X0.0025*%
%ADD335R,0.6788X0.0025*%
%ADD336R,0.6739X0.0025*%
%ADD337R,0.6442X0.0025*%
%ADD338C,0.0050*%
%ADD339R,0.0082X0.0009*%
%ADD340R,0.0164X0.0009*%
%ADD341R,0.0027X0.0009*%
%ADD342R,0.0036X0.0009*%
%ADD343R,0.0146X0.0009*%
%ADD344R,0.0046X0.0009*%
%ADD345R,0.0037X0.0009*%
%ADD346R,0.0128X0.0009*%
%ADD347R,0.0192X0.0009*%
%ADD348R,0.0046X0.0009*%
%ADD349R,0.0036X0.0009*%
%ADD350R,0.0055X0.0009*%
%ADD351R,0.0173X0.0009*%
%ADD352R,0.0064X0.0009*%
%ADD353R,0.0155X0.0009*%
%ADD354R,0.0192X0.0009*%
%ADD355R,0.0055X0.0009*%
%ADD356R,0.0064X0.0009*%
%ADD357R,0.0173X0.0009*%
%ADD358R,0.0055X0.0009*%
%ADD359R,0.0183X0.0009*%
%ADD360R,0.0201X0.0009*%
%ADD361R,0.0064X0.0009*%
%ADD362R,0.0073X0.0009*%
%ADD363R,0.0182X0.0009*%
%ADD364R,0.0082X0.0009*%
%ADD365R,0.0073X0.0009*%
%ADD366R,0.0183X0.0009*%
%ADD367R,0.0046X0.0009*%
%ADD368R,0.0055X0.0009*%
%ADD369R,0.0055X0.0009*%
%ADD370R,0.0082X0.0009*%
%ADD371R,0.0173X0.0009*%
%ADD372R,0.0037X0.0009*%
%ADD373R,0.0155X0.0009*%
%ADD374R,0.0091X0.0009*%
%ADD375R,0.0055X0.0009*%
%ADD376R,0.0091X0.0009*%
%ADD377R,0.0064X0.0009*%
%ADD378R,0.0100X0.0009*%
%ADD379R,0.0109X0.0009*%
%ADD380R,0.0009X0.0009*%
%ADD381R,0.0155X0.0009*%
%ADD382R,0.0219X0.0009*%
%ADD383R,0.0064X0.0009*%
%ADD384R,0.0219X0.0009*%
%ADD385R,0.0046X0.0009*%
%ADD386R,0.0183X0.0009*%
%ADD387R,0.0192X0.0009*%
%ADD388R,0.0219X0.0009*%
%ADD389R,0.0046X0.0009*%
%ADD390R,0.0027X0.0009*%
%ADD391R,0.0110X0.0009*%
%ADD392R,0.0110X0.0009*%
%ADD393R,0.0119X0.0009*%
%ADD394R,0.0064X0.0009*%
%ADD395R,0.0055X0.0009*%
%ADD396R,0.0055X0.0009*%
%ADD397R,0.0046X0.0009*%
%ADD398R,0.0091X0.0009*%
%ADD399R,0.0100X0.0009*%
%ADD400R,0.0073X0.0009*%
%ADD401R,0.0073X0.0009*%
%ADD402R,0.0146X0.0009*%
%ADD403R,0.0128X0.0009*%
%ADD404R,0.0182X0.0009*%
%ADD405R,0.0119X0.0009*%
%ADD406R,0.0137X0.0009*%
%ADD407R,0.0100X0.0009*%
%ADD408R,0.0027X0.0009*%
%ADD409R,0.0009X0.0009*%
%ADD410R,0.0037X0.0009*%
%ADD411R,0.0027X0.0009*%
%ADD412R,0.0027X0.0009*%
%ADD413R,0.0036X0.0009*%
%ADD414R,0.0027X0.0009*%
%ADD415R,0.0036X0.0009*%
%ADD416R,0.0210X0.0009*%
%ADD417R,0.0283X0.0009*%
%ADD418R,0.0310X0.0009*%
%ADD419R,0.0037X0.0009*%
%ADD420R,0.0027X0.0009*%
%ADD421R,0.0128X0.0009*%
%ADD422R,0.0018X0.0009*%
%ADD423R,0.0274X0.0009*%
%ADD424R,0.0338X0.0009*%
%ADD425R,0.0392X0.0009*%
%ADD426R,0.0018X0.0009*%
%ADD427R,0.0119X0.0009*%
%ADD428R,0.0091X0.0009*%
%ADD429R,0.0082X0.0009*%
%ADD430R,0.0109X0.0009*%
%ADD431R,0.0027X0.0009*%
%ADD432R,0.0046X0.0009*%
%ADD433R,0.0146X0.0009*%
%ADD434R,0.0164X0.0009*%
%ADD435R,0.0018X0.0009*%
%ADD436R,0.0018X0.0009*%
%ADD437R,0.0018X0.0009*%
%ADD438R,0.0064X0.0009*%
%ADD439R,0.0155X0.0009*%
%ADD440R,0.0137X0.0009*%
%ADD441R,0.0018X0.0009*%
%ADD442R,0.0146X0.0009*%
%ADD443R,0.0164X0.0009*%
%ADD444R,0.0046X0.0009*%
%ADD445R,0.0329X0.0009*%
%ADD446R,0.0265X0.0009*%
%ADD447R,0.0064X0.0009*%
%ADD448R,0.0100X0.0009*%
%ADD449R,0.1341X0.0009*%
%ADD450R,0.1305X0.0009*%
%ADD451R,0.1278X0.0009*%
%ADD452R,0.1214X0.0009*%
%ADD453R,0.0025X0.0006*%
%ADD454R,0.0012X0.0006*%
%ADD455R,0.0019X0.0006*%
%ADD456R,0.0043X0.0006*%
%ADD457R,0.0043X0.0006*%
%ADD458R,0.0074X0.0006*%
%ADD459R,0.0062X0.0006*%
%ADD460R,0.0081X0.0006*%
%ADD461R,0.0099X0.0006*%
%ADD462R,0.0087X0.0006*%
%ADD463R,0.0050X0.0006*%
%ADD464R,0.0105X0.0006*%
%ADD465R,0.0118X0.0006*%
%ADD466R,0.0112X0.0006*%
%ADD467R,0.0112X0.0006*%
%ADD468R,0.0130X0.0006*%
%ADD469R,0.0174X0.0006*%
%ADD470R,0.0056X0.0006*%
%ADD471R,0.0056X0.0006*%
%ADD472R,0.0149X0.0006*%
%ADD473R,0.0043X0.0006*%
%ADD474R,0.0043X0.0006*%
%ADD475R,0.0180X0.0006*%
%ADD476R,0.0174X0.0006*%
%ADD477R,0.0056X0.0006*%
%ADD478R,0.0056X0.0006*%
%ADD479R,0.0180X0.0006*%
%ADD480R,0.0161X0.0006*%
%ADD481R,0.0180X0.0006*%
%ADD482R,0.0186X0.0006*%
%ADD483R,0.0167X0.0006*%
%ADD484R,0.0068X0.0006*%
%ADD485R,0.0186X0.0006*%
%ADD486R,0.0074X0.0006*%
%ADD487R,0.0037X0.0006*%
%ADD488R,0.0050X0.0006*%
%ADD489R,0.0025X0.0006*%
%ADD490R,0.0050X0.0006*%
%ADD491R,0.0081X0.0006*%
%ADD492R,0.0050X0.0006*%
%ADD493R,0.0006X0.0006*%
%ADD494R,0.0037X0.0006*%
%ADD495R,0.0037X0.0006*%
%ADD496R,0.0037X0.0006*%
%ADD497R,0.0180X0.0006*%
%ADD498R,0.0192X0.0006*%
%ADD499R,0.0167X0.0006*%
%ADD500R,0.0174X0.0006*%
%ADD501R,0.0192X0.0006*%
%ADD502R,0.0161X0.0006*%
%ADD503R,0.0043X0.0006*%
%ADD504R,0.0050X0.0006*%
%ADD505R,0.0043X0.0006*%
%ADD506R,0.0050X0.0006*%
%ADD507R,0.0037X0.0006*%
%ADD508R,0.0081X0.0006*%
%ADD509R,0.0062X0.0006*%
%ADD510R,0.0068X0.0006*%
%ADD511R,0.0068X0.0006*%
%ADD512R,0.0012X0.0006*%
%ADD513R,0.0006X0.0006*%
%ADD514R,0.0031X0.0006*%
%ADD515R,0.0019X0.0006*%
%ADD516R,0.0161X0.0006*%
%ADD517R,0.0143X0.0006*%
%ADD518R,0.0136X0.0006*%
%ADD519R,0.0149X0.0006*%
%ADD520R,0.0174X0.0006*%
%ADD521R,0.0112X0.0006*%
%ADD522R,0.0149X0.0006*%
%ADD523R,0.0099X0.0006*%
%ADD524R,0.0105X0.0006*%
%ADD525R,0.0130X0.0006*%
%ADD526R,0.0136X0.0006*%
%ADD527R,0.0099X0.0006*%
%ADD528R,0.0118X0.0006*%
%ADD529R,0.0093X0.0006*%
%ADD530R,0.0031X0.0006*%
%ADD531R,0.0087X0.0006*%
%ADD532R,0.0124X0.0006*%
%ADD533R,0.0136X0.0006*%
%ADD534R,0.0112X0.0006*%
%ADD535R,0.0130X0.0006*%
%ADD536R,0.0136X0.0006*%
%ADD537R,0.0155X0.0006*%
%ADD538R,0.0062X0.0006*%
%ADD539R,0.0068X0.0006*%
%ADD540R,0.0031X0.0006*%
%ADD541R,0.0062X0.0006*%
%ADD542R,0.0019X0.0006*%
%ADD543R,0.0006X0.0006*%
%ADD544R,0.0198X0.0006*%
%ADD545R,0.0124X0.0006*%
%ADD546R,0.0198X0.0006*%
%ADD547R,0.0198X0.0006*%
%ADD548R,0.0198X0.0006*%
%ADD549R,0.0155X0.0006*%
%ADD550R,0.0149X0.0006*%
%ADD551R,0.0130X0.0006*%
%ADD552R,0.0093X0.0006*%
%ADD553R,0.0105X0.0006*%
%ADD554R,0.0217X0.0006*%
%ADD555R,0.0006X0.0006*%
%ADD556R,0.0217X0.0006*%
%ADD557R,0.0229X0.0006*%
%ADD558R,0.0229X0.0006*%
%ADD559R,0.0242X0.0006*%
%ADD560R,0.0248X0.0006*%
%ADD561R,0.0260X0.0006*%
%ADD562R,0.0273X0.0006*%
%ADD563R,0.0291X0.0006*%
%ADD564R,0.0081X0.0006*%
%ADD565R,0.0291X0.0006*%
%ADD566R,0.0304X0.0006*%
%ADD567R,0.0304X0.0006*%
%ADD568R,0.0440X0.0006*%
%ADD569R,0.0453X0.0006*%
%ADD570R,0.0459X0.0006*%
%ADD571R,0.0459X0.0006*%
%ADD572R,0.0471X0.0006*%
%ADD573R,0.0471X0.0006*%
%ADD574R,0.0477X0.0006*%
%ADD575R,0.0484X0.0006*%
%ADD576R,0.0484X0.0006*%
%ADD577R,0.0496X0.0006*%
%ADD578R,0.0496X0.0006*%
%ADD579R,0.0502X0.0006*%
%ADD580R,0.0502X0.0006*%
%ADD581R,0.0496X0.0006*%
%ADD582R,0.0496X0.0006*%
%ADD583R,0.0490X0.0006*%
%ADD584R,0.0484X0.0006*%
%ADD585R,0.0484X0.0006*%
%ADD586R,0.0477X0.0006*%
%ADD587R,0.0471X0.0006*%
%ADD588R,0.0471X0.0006*%
%ADD589R,0.0465X0.0006*%
%ADD590R,0.0465X0.0006*%
%ADD591R,0.0465X0.0006*%
%ADD592R,0.0459X0.0006*%
%ADD593R,0.0453X0.0006*%
%ADD594R,0.0453X0.0006*%
%ADD595R,0.0477X0.0006*%
%ADD596R,0.0502X0.0006*%
%ADD597R,0.0508X0.0006*%
%ADD598R,0.0508X0.0006*%
%ADD599R,0.0515X0.0006*%
%ADD600R,0.0521X0.0006*%
%ADD601R,0.0527X0.0006*%
%ADD602R,0.0527X0.0006*%
%ADD603R,0.0533X0.0006*%
%ADD604R,0.0539X0.0006*%
%ADD605R,0.0539X0.0006*%
%ADD606R,0.0546X0.0006*%
%ADD607R,0.0539X0.0006*%
%ADD608R,0.0539X0.0006*%
%ADD609R,0.0527X0.0006*%
%ADD610R,0.0527X0.0006*%
%ADD611R,0.0515X0.0006*%
%ADD612R,0.0508X0.0006*%
%ADD613R,0.0521X0.0006*%
%ADD614R,0.0558X0.0006*%
%ADD615R,0.0558X0.0006*%
%ADD616R,0.0583X0.0006*%
%ADD617R,0.0614X0.0006*%
%ADD618R,0.0614X0.0006*%
%ADD619R,0.0645X0.0006*%
%ADD620R,0.0670X0.0006*%
%ADD621R,0.0688X0.0006*%
%ADD622R,0.0688X0.0006*%
%ADD623R,0.0682X0.0006*%
%ADD624R,0.0682X0.0006*%
%ADD625R,0.0676X0.0006*%
%ADD626R,0.0676X0.0006*%
%ADD627R,0.0670X0.0006*%
%ADD628R,0.0663X0.0006*%
%ADD629R,0.0663X0.0006*%
%ADD630R,0.0657X0.0006*%
%ADD631R,0.0657X0.0006*%
%ADD632R,0.0657X0.0006*%
%ADD633R,0.0663X0.0006*%
%ADD634R,0.0651X0.0006*%
%ADD635R,0.0651X0.0006*%
%ADD636R,0.0620X0.0006*%
%ADD637R,0.0589X0.0006*%
%ADD638R,0.0589X0.0006*%
%ADD639R,0.0533X0.0006*%
%ADD640R,0.0484X0.0006*%
%ADD641R,0.0484X0.0006*%
%ADD642R,0.0502X0.0006*%
%ADD643R,0.0546X0.0006*%
%ADD644R,0.0564X0.0006*%
%ADD645R,0.0564X0.0006*%
%ADD646R,0.0577X0.0006*%
%ADD647R,0.0577X0.0006*%
%ADD648R,0.0632X0.0006*%
%ADD649R,0.1259X0.0006*%
%ADD650R,0.1259X0.0006*%
%ADD651R,0.1246X0.0006*%
%ADD652R,0.1234X0.0006*%
%ADD653R,0.1234X0.0006*%
%ADD654R,0.1221X0.0006*%
%ADD655R,0.1209X0.0006*%
%ADD656R,0.1209X0.0006*%
%ADD657R,0.1197X0.0006*%
%ADD658R,0.1197X0.0006*%
%ADD659R,0.1246X0.0006*%
%ADD660R,0.1271X0.0006*%
%ADD661R,0.1277X0.0006*%
%ADD662R,0.1283X0.0006*%
%ADD663R,0.1296X0.0006*%
%ADD664R,0.1308X0.0006*%
%ADD665R,0.1321X0.0006*%
%ADD666R,0.1333X0.0006*%
%ADD667R,0.1333X0.0006*%
%ADD668R,0.1345X0.0006*%
%ADD669R,0.1358X0.0006*%
%ADD670R,0.1370X0.0006*%
%ADD671R,0.1383X0.0006*%
%ADD672R,0.1395X0.0006*%
%ADD673R,0.1407X0.0006*%
%ADD674R,0.1420X0.0006*%
%ADD675R,0.1420X0.0006*%
%ADD676R,0.1432X0.0006*%
%ADD677R,0.1445X0.0006*%
%ADD678R,0.1457X0.0006*%
%ADD679R,0.1457X0.0006*%
%ADD680R,0.1432X0.0006*%
%ADD681R,0.0335X0.0006*%
%ADD682R,0.0322X0.0006*%
%ADD683R,0.0639X0.0006*%
%ADD684R,0.0310X0.0006*%
%ADD685R,0.0601X0.0006*%
%ADD686R,0.0291X0.0006*%
%ADD687R,0.0577X0.0006*%
%ADD688R,0.0291X0.0006*%
%ADD689R,0.0279X0.0006*%
%ADD690R,0.0279X0.0006*%
%ADD691R,0.0217X0.0006*%
%ADD692R,0.0415X0.0006*%
%ADD693R,0.0217X0.0006*%
%ADD694R,0.0391X0.0006*%
%ADD695R,0.0366X0.0006*%
%ADD696R,0.0341X0.0006*%
%ADD697R,0.0341X0.0006*%
%ADD698R,0.0329X0.0006*%
%ADD699R,0.0329X0.0006*%
%ADD700R,0.0316X0.0006*%
%ADD701R,0.0316X0.0006*%
%ADD702R,0.0304X0.0006*%
%ADD703R,0.0291X0.0006*%
%ADD704R,0.0279X0.0006*%
%ADD705R,0.0267X0.0006*%
%ADD706R,0.0267X0.0006*%
%ADD707R,0.0254X0.0006*%
%ADD708R,0.0254X0.0006*%
%ADD709R,0.0242X0.0006*%
D10*
X003335Y002881D02*
X003965Y002881D01*
X003965Y002882D02*
X003981Y002887D01*
X003997Y002895D01*
X004011Y002905D01*
X004023Y002917D01*
X004033Y002932D01*
X004040Y002948D01*
X004044Y002965D01*
X004045Y002982D01*
X004043Y003000D01*
X004043Y003550D02*
X004045Y003568D01*
X004044Y003585D01*
X004040Y003602D01*
X004033Y003618D01*
X004023Y003633D01*
X004011Y003645D01*
X003997Y003655D01*
X003981Y003663D01*
X003965Y003668D01*
X003965Y003669D02*
X003335Y003669D01*
X003335Y003668D02*
X003319Y003663D01*
X003303Y003655D01*
X003289Y003645D01*
X003277Y003633D01*
X003267Y003618D01*
X003260Y003602D01*
X003256Y003585D01*
X003255Y003568D01*
X003257Y003550D01*
X003257Y003000D02*
X003255Y002982D01*
X003256Y002965D01*
X003260Y002948D01*
X003267Y002932D01*
X003277Y002917D01*
X003289Y002905D01*
X003303Y002895D01*
X003319Y002887D01*
X003335Y002882D01*
D11*
X003341Y003795D02*
X003414Y003868D01*
X003377Y003868D02*
X003487Y003868D01*
X003487Y003795D02*
X003487Y004015D01*
X003377Y004015D01*
X003341Y003978D01*
X003341Y003905D01*
X003377Y003868D01*
X003266Y003905D02*
X003193Y003905D01*
X003266Y003795D02*
X003120Y003795D01*
X003045Y003832D02*
X003009Y003795D01*
X002935Y003795D01*
X002899Y003832D01*
X002899Y003868D01*
X002935Y003905D01*
X003009Y003905D01*
X003045Y003942D01*
X003045Y003978D01*
X003009Y004015D01*
X002935Y004015D01*
X002899Y003978D01*
X002825Y004015D02*
X002825Y003795D01*
X002678Y003795D01*
X002751Y003905D02*
X002825Y003905D01*
X002825Y004015D02*
X002678Y004015D01*
X002604Y004015D02*
X002457Y004015D01*
X002530Y004015D02*
X002530Y003795D01*
X003120Y004015D02*
X003266Y004015D01*
X003266Y003795D01*
X003562Y003905D02*
X003708Y003905D01*
X003783Y003832D02*
X003783Y003978D01*
X003819Y004015D01*
X003893Y004015D01*
X003929Y003978D01*
X003929Y003832D01*
X003893Y003795D01*
X003819Y003795D01*
X003783Y003832D01*
X004004Y004015D02*
X004150Y004015D01*
X004077Y004015D02*
X004077Y003795D01*
X004225Y003832D02*
X004225Y004015D01*
X004371Y004015D02*
X004371Y003832D01*
X004335Y003795D01*
X004261Y003795D01*
X004225Y003832D01*
X004446Y003795D02*
X004446Y003942D01*
X004519Y004015D01*
X004592Y003942D01*
X004592Y003795D01*
X004592Y003905D02*
X004446Y003905D01*
D12*
X005627Y004108D03*
X005643Y004008D03*
X005710Y003858D03*
X005743Y003708D03*
X005627Y003425D03*
X005760Y004392D03*
X005710Y004525D03*
X005627Y004641D03*
X005627Y004658D03*
X005627Y004875D03*
X005593Y004958D03*
X005693Y004958D03*
X005527Y005208D03*
X005693Y005408D03*
X005577Y005491D03*
X009310Y004125D03*
X010026Y004125D03*
X013409Y004125D03*
X013709Y004525D03*
X013726Y004575D03*
X015609Y004392D03*
X016409Y004492D03*
X016559Y004392D03*
X016575Y004608D03*
D13*
X016550Y004608D03*
X016534Y004608D03*
X016500Y004608D03*
X016467Y004575D03*
X016434Y004575D03*
X016417Y004542D03*
X016384Y004525D03*
X016384Y004492D03*
X016367Y004492D03*
X016417Y004458D03*
X016434Y004492D03*
X016467Y004525D03*
X016484Y004525D03*
X016484Y004542D03*
X016500Y004542D03*
X016600Y004608D03*
X016617Y004608D03*
X016650Y004608D03*
X016700Y004575D03*
X016717Y004575D03*
X016734Y004542D03*
X016767Y004492D03*
X016784Y004492D03*
X016800Y004458D03*
X016717Y004458D03*
X016700Y004492D03*
X016667Y004525D03*
X016650Y004542D03*
X016584Y004392D03*
X016534Y004392D03*
X016367Y004342D03*
X016350Y004342D03*
X016350Y004392D03*
X016367Y004225D03*
X016384Y004192D03*
X016434Y004225D03*
X016467Y004192D03*
X016484Y004192D03*
X016500Y004192D03*
X016500Y004125D03*
X016484Y004125D03*
X016534Y004125D03*
X016600Y004125D03*
X016617Y004125D03*
X016650Y004125D03*
X016650Y004192D03*
X016667Y004192D03*
X016700Y004225D03*
X016717Y004258D03*
X016734Y004275D03*
X016784Y004258D03*
X016800Y004258D03*
X016800Y004275D03*
X016784Y004225D03*
X016767Y004225D03*
X016734Y004342D03*
X016734Y004392D03*
X016200Y004125D03*
X016184Y004125D03*
X016167Y004125D03*
X015967Y004258D03*
X015967Y004275D03*
X015967Y004308D03*
X015967Y004342D03*
X015950Y004342D03*
X015900Y004275D03*
X015884Y004258D03*
X015934Y004225D03*
X015817Y004192D03*
X015817Y004125D03*
X015700Y004125D03*
X015667Y004125D03*
X015650Y004125D03*
X015650Y004192D03*
X015634Y004192D03*
X015600Y004225D03*
X015550Y004192D03*
X015534Y004225D03*
X015534Y004342D03*
X015517Y004342D03*
X015517Y004392D03*
X015584Y004392D03*
X015584Y004458D03*
X015600Y004492D03*
X015634Y004525D03*
X015650Y004525D03*
X015650Y004542D03*
X015667Y004542D03*
X015667Y004608D03*
X015700Y004608D03*
X015767Y004608D03*
X015784Y004608D03*
X015817Y004608D03*
X015817Y004542D03*
X015834Y004525D03*
X015850Y004525D03*
X015900Y004542D03*
X015884Y004575D03*
X015950Y004492D03*
X015967Y004458D03*
X015884Y004458D03*
X015850Y004392D03*
X015717Y004392D03*
X015534Y004492D03*
X015550Y004525D03*
X015600Y004575D03*
X015367Y004458D03*
X015350Y004458D03*
X015350Y004492D03*
X015334Y004492D03*
X015300Y004542D03*
X015284Y004575D03*
X015234Y004525D03*
X015184Y004542D03*
X015184Y004608D03*
X015167Y004608D03*
X015067Y004608D03*
X015050Y004608D03*
X015050Y004542D03*
X015017Y004525D03*
X015000Y004525D03*
X014984Y004492D03*
X014950Y004492D03*
X014934Y004492D03*
X014934Y004525D03*
X014934Y004542D03*
X014984Y004575D03*
X014867Y004575D03*
X014867Y004608D03*
X014934Y004258D03*
X014950Y004258D03*
X014984Y004225D03*
X015000Y004225D03*
X015017Y004192D03*
X015050Y004192D03*
X015050Y004125D03*
X015067Y004125D03*
X015167Y004125D03*
X015184Y004125D03*
X015184Y004192D03*
X015250Y004225D03*
X015284Y004258D03*
X015284Y004275D03*
X015300Y004308D03*
X015300Y004342D03*
X015367Y004342D03*
X015367Y004308D03*
X015367Y004275D03*
X015350Y004275D03*
X015350Y004258D03*
X015334Y004225D03*
X015300Y004192D03*
X015367Y004392D03*
X015284Y004458D03*
X014950Y004192D03*
X014934Y004192D03*
X014717Y004125D03*
X014701Y004125D03*
X014684Y004125D03*
X014384Y004125D03*
X014101Y004275D03*
X014101Y004308D03*
X014101Y004342D03*
X014101Y004392D03*
X014034Y004392D03*
X014034Y004342D03*
X014034Y004308D03*
X014001Y004258D03*
X013984Y004225D03*
X013967Y004225D03*
X013934Y004192D03*
X013917Y004192D03*
X013917Y004125D03*
X013934Y004125D03*
X013884Y004125D03*
X013817Y004125D03*
X013801Y004125D03*
X013767Y004125D03*
X013767Y004192D03*
X013751Y004192D03*
X013701Y004258D03*
X013684Y004258D03*
X013684Y004275D03*
X013617Y004275D03*
X013617Y004258D03*
X013634Y004225D03*
X013434Y004125D03*
X013384Y004125D03*
X013617Y004458D03*
X013634Y004492D03*
X013651Y004525D03*
X013684Y004525D03*
X013701Y004492D03*
X013684Y004458D03*
X013734Y004525D03*
X013751Y004525D03*
X013751Y004542D03*
X013767Y004542D03*
X013767Y004608D03*
X013801Y004608D03*
X013817Y004608D03*
X013884Y004608D03*
X013917Y004608D03*
X013934Y004608D03*
X013984Y004575D03*
X014001Y004575D03*
X014034Y004542D03*
X014051Y004525D03*
X014067Y004492D03*
X014001Y004492D03*
X013967Y004525D03*
X013934Y004542D03*
X013917Y004542D03*
X013701Y004575D03*
X014001Y004192D03*
X014034Y004192D03*
X014051Y004192D03*
X014067Y004225D03*
X014184Y004575D03*
X014267Y004608D03*
X014284Y004608D03*
X014334Y004575D03*
X014351Y004542D03*
X014301Y004525D03*
X014284Y004542D03*
X014267Y004542D03*
X014334Y004492D03*
X014351Y004458D03*
X014384Y004608D03*
X014534Y004575D03*
X013117Y004492D03*
X013034Y004808D03*
X012967Y004808D03*
X012751Y004375D03*
X012751Y004342D03*
X012817Y004342D03*
X012817Y004308D03*
X012801Y004275D03*
X012684Y004225D03*
X012617Y004192D03*
X012617Y004125D03*
X012601Y004125D03*
X012434Y004125D03*
X012318Y004258D03*
X012268Y004225D03*
X012218Y004308D03*
X012218Y004342D03*
X012284Y004342D03*
X012284Y004375D03*
X011951Y004125D03*
X011668Y004375D03*
X011668Y004492D03*
X011751Y004492D03*
X011734Y004575D03*
X011751Y004608D03*
X011784Y004641D03*
X011868Y004641D03*
X011901Y004691D03*
X011851Y004725D03*
X011901Y004791D03*
X011551Y004342D03*
X011501Y004275D03*
X011484Y004258D03*
X011551Y004225D03*
X011568Y004258D03*
X011418Y004125D03*
X010401Y004125D03*
X010051Y004125D03*
X010001Y004125D03*
X009601Y004125D03*
X009285Y004125D03*
X009251Y004125D03*
X009251Y004192D03*
X009285Y004192D03*
X009185Y004225D03*
X009135Y004192D03*
X009118Y004192D03*
X009101Y004225D03*
X009068Y004258D03*
X009051Y004275D03*
X009035Y004308D03*
X009001Y004375D03*
X009001Y004392D03*
X009068Y004392D03*
X009118Y004308D03*
X009135Y004275D03*
X009068Y004542D03*
X009068Y004575D03*
X009001Y004575D03*
X009001Y004608D03*
X009001Y004542D03*
X009101Y004658D03*
X009118Y004691D03*
X009068Y004725D03*
X009118Y004791D03*
X009135Y004791D03*
X009251Y004791D03*
X009285Y004791D03*
X009301Y004808D03*
X010318Y004808D03*
X005768Y004375D03*
X005735Y004342D03*
X005718Y004342D03*
X005718Y004308D03*
X005735Y004308D03*
X005718Y004275D03*
X005718Y004258D03*
X005685Y004258D03*
X005685Y004275D03*
X005718Y004192D03*
X005735Y004192D03*
X005735Y004125D03*
X005718Y004125D03*
X005718Y004108D03*
X005685Y004108D03*
X005668Y004108D03*
X005652Y004108D03*
X005685Y004125D03*
X005602Y004108D03*
X005568Y004108D03*
X005552Y004108D03*
X005552Y004125D03*
X005568Y004125D03*
X005535Y004125D03*
X005535Y004192D03*
X005552Y004192D03*
X005552Y004225D03*
X005535Y004225D03*
X005535Y004258D03*
X005552Y004258D03*
X005568Y004258D03*
X005568Y004275D03*
X005552Y004275D03*
X005535Y004375D03*
X005535Y004392D03*
X005552Y004392D03*
X005568Y004392D03*
X005602Y004375D03*
X005652Y004542D03*
X005668Y004542D03*
X005685Y004542D03*
X005718Y004575D03*
X005735Y004575D03*
X005735Y004608D03*
X005718Y004608D03*
X005685Y004658D03*
X005668Y004658D03*
X005652Y004658D03*
X005652Y004641D03*
X005602Y004641D03*
X005602Y004658D03*
X005568Y004658D03*
X005568Y004691D03*
X005552Y004691D03*
X005535Y004691D03*
X005535Y004725D03*
X005552Y004725D03*
X005552Y004791D03*
X005535Y004791D03*
X005535Y004808D03*
X005552Y004808D03*
X005568Y004808D03*
X005602Y004875D03*
X005652Y004875D03*
X005668Y004875D03*
X005668Y004958D03*
X005652Y004958D03*
X005652Y004991D03*
X005618Y004991D03*
X005618Y004958D03*
X005568Y004958D03*
X005618Y005025D03*
X005652Y005025D03*
X005718Y005025D03*
X005735Y005025D03*
X005735Y005058D03*
X005718Y005058D03*
X005718Y005075D03*
X005735Y005075D03*
X005685Y005141D03*
X005652Y005108D03*
X005535Y005141D03*
X005535Y005225D03*
X005535Y005258D03*
X005552Y005258D03*
X005552Y005291D03*
X005452Y005408D03*
X005435Y005408D03*
X005385Y005375D03*
X005435Y005475D03*
X005435Y005491D03*
X005452Y005491D03*
X005452Y005475D03*
X005552Y005491D03*
X005602Y005491D03*
X005602Y005475D03*
X005618Y005475D03*
X005668Y005408D03*
X005718Y005408D03*
X005718Y004991D03*
X005735Y004991D03*
X005735Y004958D03*
X005718Y004958D03*
X005718Y004808D03*
X005735Y004808D03*
X005735Y004725D03*
X005718Y004725D03*
X005718Y004691D03*
X005735Y004691D03*
X005685Y004691D03*
X005668Y004691D03*
X005735Y004525D03*
X005552Y004542D03*
X005535Y004542D03*
X005552Y004008D03*
X005568Y004008D03*
X005568Y003975D03*
X005552Y003975D03*
X005552Y003958D03*
X005535Y003958D03*
X005535Y003975D03*
X005535Y003925D03*
X005535Y003892D03*
X005552Y003892D03*
X005552Y003858D03*
X005568Y003858D03*
X005568Y003842D03*
X005552Y003842D03*
X005535Y003842D03*
X005535Y003858D03*
X005602Y003842D03*
X005618Y003842D03*
X005618Y003858D03*
X005618Y003892D03*
X005618Y003925D03*
X005618Y003958D03*
X005618Y003975D03*
X005618Y004008D03*
X005652Y003975D03*
X005652Y003958D03*
X005652Y003925D03*
X005652Y003892D03*
X005652Y003858D03*
X005652Y003842D03*
X005668Y003842D03*
X005685Y003842D03*
X005685Y003858D03*
X005718Y003842D03*
X005735Y003858D03*
X005735Y003892D03*
X005718Y003892D03*
X005718Y003925D03*
X005735Y003925D03*
X005735Y003958D03*
X005718Y003958D03*
X005718Y003975D03*
X005735Y003975D03*
X005685Y003975D03*
X005685Y004008D03*
X005668Y004008D03*
X005668Y003808D03*
X005652Y003808D03*
X005618Y003808D03*
X005602Y003808D03*
X005618Y003625D03*
X005618Y003592D03*
X005618Y003575D03*
X005618Y003542D03*
X005652Y003542D03*
X005652Y003575D03*
X005652Y003592D03*
X005685Y003625D03*
X005718Y003592D03*
X005735Y003592D03*
X005735Y003575D03*
X005718Y003575D03*
X005718Y003542D03*
X005735Y003542D03*
X005652Y003508D03*
X005618Y003508D03*
X005552Y003508D03*
X005535Y003508D03*
X005535Y003542D03*
X005535Y003575D03*
X005535Y003592D03*
X005552Y003592D03*
X005552Y003575D03*
X005552Y003625D03*
X005568Y003625D03*
X005568Y003442D03*
X005602Y003425D03*
X005652Y003425D03*
X005668Y003425D03*
X005668Y003442D03*
X005685Y003442D03*
X005852Y003708D03*
X005268Y005375D03*
X005268Y005408D03*
X005268Y005475D03*
X005268Y005491D03*
X005152Y005491D03*
X005152Y005475D03*
X005152Y005408D03*
X005152Y005375D03*
X005135Y005375D03*
X005035Y005408D03*
X005018Y005408D03*
X005018Y005475D03*
X005018Y005491D03*
X005035Y005491D03*
X005035Y005475D03*
D14*
X005093Y005375D03*
X005127Y005558D03*
X005427Y005375D03*
X005593Y004542D03*
X005627Y003442D03*
X009043Y004375D03*
X009076Y004308D03*
X009093Y004275D03*
X009110Y004258D03*
X009143Y004225D03*
X009026Y004458D03*
X009026Y004492D03*
X009026Y004525D03*
X009043Y004608D03*
X009060Y004641D03*
X009060Y004658D03*
X009076Y004691D03*
X009110Y004725D03*
X009576Y004725D03*
X009576Y004691D03*
X009576Y004658D03*
X009576Y004641D03*
X009576Y004608D03*
X009576Y004575D03*
X009576Y004542D03*
X009576Y004525D03*
X009576Y004492D03*
X009576Y004458D03*
X009576Y004392D03*
X009576Y004375D03*
X009576Y004342D03*
X009576Y004308D03*
X009576Y004275D03*
X009576Y004258D03*
X009576Y004225D03*
X009576Y004192D03*
X010026Y004192D03*
X010026Y004225D03*
X010026Y004258D03*
X010026Y004275D03*
X010026Y004308D03*
X010026Y004342D03*
X010026Y004375D03*
X010026Y004392D03*
X010026Y004458D03*
X010026Y004492D03*
X010026Y004525D03*
X010026Y004542D03*
X010026Y004575D03*
X010026Y004608D03*
X010026Y004641D03*
X010026Y004658D03*
X010026Y004691D03*
X010026Y004725D03*
X010026Y004791D03*
X010026Y004808D03*
X009576Y004808D03*
X009576Y004791D03*
X010843Y004791D03*
X010843Y004808D03*
X010843Y004725D03*
X010843Y004691D03*
X010843Y004658D03*
X010843Y004641D03*
X010843Y004608D03*
X010843Y004575D03*
X010843Y004542D03*
X010843Y004525D03*
X010843Y004492D03*
X010843Y004458D03*
X010843Y004392D03*
X010843Y004375D03*
X010843Y004342D03*
X010843Y004308D03*
X010843Y004275D03*
X010843Y004258D03*
X010843Y004225D03*
X010843Y004192D03*
X011443Y004258D03*
X011443Y004275D03*
X011443Y004308D03*
X011443Y004342D03*
X011443Y004375D03*
X011443Y004392D03*
X011443Y004458D03*
X011443Y004492D03*
X011443Y004525D03*
X011443Y004542D03*
X011443Y004575D03*
X011443Y004608D03*
X011443Y004641D03*
X011443Y004658D03*
X011443Y004691D03*
X011443Y004725D03*
X011443Y004791D03*
X011443Y004808D03*
X011776Y004575D03*
X011826Y004641D03*
X011859Y004691D03*
X011893Y004725D03*
X011976Y004725D03*
X011976Y004691D03*
X011976Y004658D03*
X011976Y004641D03*
X011976Y004608D03*
X011976Y004575D03*
X011976Y004542D03*
X011976Y004525D03*
X011976Y004492D03*
X011976Y004458D03*
X011976Y004392D03*
X011976Y004375D03*
X011976Y004342D03*
X011976Y004308D03*
X011976Y004275D03*
X011976Y004258D03*
X011976Y004225D03*
X011976Y004192D03*
X012259Y004308D03*
X012276Y004275D03*
X012276Y004258D03*
X012309Y004225D03*
X012243Y004375D03*
X012243Y004392D03*
X012243Y004458D03*
X012243Y004492D03*
X012243Y004525D03*
X012243Y004542D03*
X012243Y004575D03*
X012243Y004608D03*
X012243Y004641D03*
X012243Y004658D03*
X012243Y004691D03*
X012243Y004725D03*
X012243Y004791D03*
X012243Y004808D03*
X012792Y004808D03*
X012792Y004791D03*
X012792Y004725D03*
X012792Y004691D03*
X012792Y004658D03*
X012792Y004641D03*
X012792Y004608D03*
X012792Y004575D03*
X012792Y004542D03*
X012792Y004525D03*
X012792Y004492D03*
X012792Y004458D03*
X012792Y004392D03*
X012792Y004375D03*
X012776Y004308D03*
X012759Y004275D03*
X012759Y004258D03*
X012726Y004225D03*
X013409Y004225D03*
X013409Y004258D03*
X013409Y004275D03*
X013409Y004308D03*
X013409Y004342D03*
X013409Y004375D03*
X013409Y004392D03*
X013409Y004458D03*
X013409Y004525D03*
X013409Y004542D03*
X013409Y004575D03*
X013409Y004608D03*
X013409Y004641D03*
X013409Y004658D03*
X013409Y004691D03*
X013409Y004725D03*
X013409Y004791D03*
X013409Y004808D03*
X013709Y004542D03*
X013626Y004392D03*
X013626Y004375D03*
X013676Y004225D03*
X013709Y004192D03*
X013409Y004192D03*
X014026Y004225D03*
X014076Y004375D03*
X014009Y004525D03*
X013992Y004542D03*
X014409Y004542D03*
X014409Y004525D03*
X014409Y004575D03*
X014409Y004392D03*
X014409Y004375D03*
X014409Y004342D03*
X014409Y004308D03*
X014409Y004275D03*
X014409Y004258D03*
X014409Y004225D03*
X014409Y004192D03*
X014709Y004192D03*
X014709Y004225D03*
X014709Y004258D03*
X014709Y004275D03*
X014709Y004308D03*
X014709Y004342D03*
X014709Y004375D03*
X014709Y004392D03*
X014709Y004458D03*
X014709Y004492D03*
X014709Y004525D03*
X014709Y004542D03*
X014709Y004641D03*
X014709Y004658D03*
X014709Y004691D03*
X014709Y004725D03*
X015275Y004525D03*
X015342Y004375D03*
X015609Y004542D03*
X015859Y004542D03*
X015909Y004492D03*
X015925Y004458D03*
X015942Y004392D03*
X015925Y004258D03*
X016175Y004258D03*
X016175Y004275D03*
X016175Y004308D03*
X016175Y004342D03*
X016175Y004375D03*
X016175Y004392D03*
X016175Y004458D03*
X016175Y004492D03*
X016175Y004525D03*
X016175Y004542D03*
X016175Y004575D03*
X016175Y004608D03*
X016175Y004641D03*
X016175Y004658D03*
X016175Y004691D03*
X016175Y004725D03*
X016175Y004791D03*
X016175Y004808D03*
X016492Y004392D03*
X016692Y004542D03*
X016709Y004525D03*
X016759Y004458D03*
X016775Y004392D03*
X016775Y004342D03*
X016775Y004308D03*
X016709Y004192D03*
X016175Y004192D03*
X016175Y004225D03*
X011709Y004492D03*
X011593Y004342D03*
X011543Y004275D03*
X011526Y004258D03*
D15*
X011584Y004275D03*
X011634Y004342D03*
X011584Y004392D03*
X011701Y004542D03*
X011818Y004575D03*
X011884Y004658D03*
X011818Y004691D03*
X011934Y004725D03*
X012234Y004275D03*
X012351Y004225D03*
X012417Y004192D03*
X012417Y004125D03*
X012717Y004258D03*
X012767Y004225D03*
X013134Y004525D03*
X013367Y004808D03*
X013667Y004542D03*
X013667Y004525D03*
X013601Y004458D03*
X013601Y004342D03*
X013601Y004308D03*
X013601Y004275D03*
X013667Y004308D03*
X013667Y004342D03*
X013717Y004225D03*
X013667Y004192D03*
X013784Y004192D03*
X013784Y004125D03*
X013901Y004125D03*
X013951Y004192D03*
X014017Y004192D03*
X014017Y004258D03*
X014017Y004275D03*
X014084Y004275D03*
X014084Y004258D03*
X014084Y004458D03*
X014084Y004492D03*
X014017Y004458D03*
X013951Y004525D03*
X013951Y004542D03*
X013901Y004608D03*
X013784Y004608D03*
X013784Y004542D03*
X014201Y004608D03*
X014251Y004608D03*
X014317Y004575D03*
X014317Y004525D03*
X014367Y004525D03*
X014367Y004542D03*
X014434Y004608D03*
X014551Y004608D03*
X014551Y004575D03*
X014667Y004608D03*
X014851Y004608D03*
X014917Y004492D03*
X014967Y004492D03*
X015034Y004542D03*
X015034Y004608D03*
X015084Y004608D03*
X015150Y004608D03*
X015200Y004608D03*
X015200Y004542D03*
X015267Y004575D03*
X015317Y004542D03*
X015317Y004525D03*
X015267Y004492D03*
X015567Y004525D03*
X015567Y004542D03*
X015617Y004575D03*
X015684Y004608D03*
X015800Y004608D03*
X015800Y004542D03*
X015867Y004575D03*
X015917Y004525D03*
X015867Y004492D03*
X015984Y004375D03*
X015984Y004342D03*
X015917Y004308D03*
X015867Y004225D03*
X015917Y004192D03*
X015800Y004192D03*
X015800Y004125D03*
X015684Y004125D03*
X015734Y004392D03*
X015567Y004392D03*
X015200Y004192D03*
X015200Y004125D03*
X015150Y004125D03*
X015084Y004125D03*
X015034Y004125D03*
X015034Y004192D03*
X014967Y004258D03*
X014917Y004225D03*
X014734Y004125D03*
X014434Y004125D03*
X014367Y004392D03*
X016150Y004125D03*
X016400Y004392D03*
X016450Y004392D03*
X016450Y004458D03*
X016450Y004492D03*
X016400Y004525D03*
X016400Y004542D03*
X016450Y004575D03*
X016517Y004608D03*
X016634Y004608D03*
X016750Y004525D03*
X016817Y004375D03*
X016817Y004342D03*
X016750Y004192D03*
X016634Y004192D03*
X016634Y004125D03*
X016517Y004125D03*
X012001Y004125D03*
X011518Y004192D03*
X011468Y004125D03*
X010868Y004125D03*
X010801Y004192D03*
X010384Y004125D03*
X009734Y004808D03*
X009318Y004808D03*
X009268Y004791D03*
X009151Y004808D03*
X009151Y004725D03*
X009085Y004608D03*
X009018Y004641D03*
X009085Y004375D03*
X009085Y004342D03*
X009018Y004342D03*
X009085Y004225D03*
X009151Y004258D03*
X009201Y004225D03*
X009268Y004192D03*
X009268Y004125D03*
X005818Y004375D03*
X005818Y004392D03*
X005702Y004392D03*
X005635Y004392D03*
X005585Y004392D03*
X005518Y004392D03*
X005518Y004375D03*
X005585Y004275D03*
X005585Y004258D03*
X005518Y004225D03*
X005518Y004192D03*
X005585Y004125D03*
X005585Y004108D03*
X005585Y004008D03*
X005635Y003975D03*
X005635Y003958D03*
X005635Y003925D03*
X005635Y003892D03*
X005635Y003858D03*
X005635Y003842D03*
X005635Y003808D03*
X005585Y003808D03*
X005585Y003842D03*
X005518Y003892D03*
X005518Y003925D03*
X005518Y003958D03*
X005518Y003975D03*
X005702Y003975D03*
X005702Y003958D03*
X005702Y004008D03*
X005752Y003925D03*
X005702Y003842D03*
X005702Y003625D03*
X005702Y003592D03*
X005702Y003575D03*
X005752Y003542D03*
X005752Y003508D03*
X005702Y003442D03*
X005635Y003508D03*
X005635Y003542D03*
X005635Y003575D03*
X005635Y003592D03*
X005585Y003625D03*
X005518Y003592D03*
X005518Y003575D03*
X005518Y003542D03*
X005518Y003508D03*
X005585Y003442D03*
X005518Y003708D03*
X005702Y004108D03*
X005702Y004125D03*
X005752Y004192D03*
X005702Y004258D03*
X005702Y004275D03*
X005702Y004542D03*
X005702Y004575D03*
X005635Y004542D03*
X005518Y004525D03*
X005585Y004658D03*
X005585Y004691D03*
X005518Y004725D03*
X005518Y004791D03*
X005518Y004808D03*
X005518Y004941D03*
X005518Y004958D03*
X005635Y004958D03*
X005635Y004991D03*
X005635Y005025D03*
X005585Y005108D03*
X005585Y005141D03*
X005518Y005225D03*
X005518Y005258D03*
X005518Y005375D03*
X005585Y005475D03*
X005752Y005375D03*
X005752Y005291D03*
X005752Y005075D03*
X005752Y005058D03*
X005752Y005025D03*
X005752Y004991D03*
X005752Y004958D03*
X005752Y004941D03*
X005702Y004808D03*
X005702Y004725D03*
X005702Y004691D03*
X005335Y005375D03*
X005285Y005375D03*
X005285Y005408D03*
X005285Y005475D03*
X005285Y005491D03*
X005168Y005491D03*
X005168Y005475D03*
X005168Y005408D03*
X005168Y005375D03*
X005052Y005375D03*
X005052Y005408D03*
D16*
X005068Y005391D03*
X005085Y005391D03*
X005035Y005391D03*
X005035Y005425D03*
X005018Y005425D03*
X005018Y005458D03*
X005002Y005458D03*
X005035Y005458D03*
X005035Y005508D03*
X005018Y005508D03*
X005068Y005541D03*
X005152Y005508D03*
X005152Y005458D03*
X005152Y005425D03*
X005152Y005391D03*
X005268Y005391D03*
X005268Y005425D03*
X005268Y005458D03*
X005268Y005508D03*
X005202Y005541D03*
X005352Y005541D03*
X005435Y005541D03*
X005452Y005541D03*
X005452Y005508D03*
X005435Y005508D03*
X005435Y005458D03*
X005452Y005458D03*
X005452Y005425D03*
X005435Y005425D03*
X005435Y005391D03*
X005452Y005391D03*
X005535Y005391D03*
X005552Y005391D03*
X005618Y005391D03*
X005652Y005425D03*
X005668Y005425D03*
X005685Y005425D03*
X005685Y005391D03*
X005735Y005391D03*
X005735Y005308D03*
X005602Y005308D03*
X005552Y005241D03*
X005535Y005241D03*
X005535Y005191D03*
X005535Y005158D03*
X005552Y005158D03*
X005552Y005125D03*
X005618Y004975D03*
X005652Y004975D03*
X005718Y004975D03*
X005735Y004975D03*
X005735Y005041D03*
X005718Y005041D03*
X005685Y004858D03*
X005685Y004825D03*
X005718Y004825D03*
X005718Y004775D03*
X005735Y004775D03*
X005735Y004741D03*
X005718Y004741D03*
X005718Y004708D03*
X005735Y004708D03*
X005685Y004558D03*
X005718Y004442D03*
X005735Y004442D03*
X005735Y004408D03*
X005718Y004408D03*
X005718Y004208D03*
X005735Y004208D03*
X005735Y004175D03*
X005718Y004175D03*
X005718Y004142D03*
X005735Y004142D03*
X005685Y004092D03*
X005668Y004092D03*
X005668Y004025D03*
X005618Y004025D03*
X005568Y004092D03*
X005552Y004142D03*
X005535Y004142D03*
X005535Y004175D03*
X005552Y004175D03*
X005535Y004208D03*
X005535Y003942D03*
X005552Y003942D03*
X005618Y003942D03*
X005652Y003942D03*
X005718Y003942D03*
X005735Y003942D03*
X005735Y003875D03*
X005718Y003875D03*
X005652Y003875D03*
X005618Y003875D03*
X005552Y003875D03*
X005535Y003875D03*
X005618Y003642D03*
X005652Y003642D03*
X005668Y003642D03*
X005685Y003642D03*
X005685Y003608D03*
X005668Y003608D03*
X005652Y003608D03*
X005618Y003608D03*
X005568Y003608D03*
X005552Y003608D03*
X005535Y003608D03*
X005535Y003525D03*
X005535Y003492D03*
X005552Y003492D03*
X005552Y003458D03*
X005618Y003492D03*
X005618Y003525D03*
X005652Y003525D03*
X005652Y003492D03*
X005652Y003458D03*
X005668Y003458D03*
X005685Y003458D03*
X005718Y003458D03*
X005718Y003492D03*
X005735Y003492D03*
X005735Y003525D03*
X005718Y003525D03*
X005718Y003608D03*
X005852Y003725D03*
X005568Y004708D03*
X005552Y004708D03*
X005535Y004708D03*
X005535Y004741D03*
X005552Y004741D03*
X005535Y004775D03*
X005535Y004825D03*
X005552Y004825D03*
X005568Y004825D03*
X005568Y004858D03*
X005602Y005458D03*
X005652Y005458D03*
X005535Y005508D03*
X009001Y004558D03*
X009068Y004558D03*
X009068Y004442D03*
X009068Y004408D03*
X009001Y004408D03*
X008985Y004408D03*
X009001Y004442D03*
X009118Y004292D03*
X009135Y004292D03*
X009118Y004208D03*
X009101Y004208D03*
X009218Y004208D03*
X009235Y004208D03*
X009235Y004142D03*
X009218Y004142D03*
X009301Y004175D03*
X009135Y004708D03*
X009168Y004741D03*
X009218Y004775D03*
X009235Y004775D03*
X009185Y004825D03*
X009168Y004825D03*
X009118Y004775D03*
X009101Y004775D03*
X009068Y004741D03*
X009051Y004708D03*
X009251Y004858D03*
X009285Y004858D03*
X009601Y004858D03*
X010318Y004858D03*
X010318Y004825D03*
X010818Y004858D03*
X011418Y004858D03*
X011718Y004558D03*
X011801Y004558D03*
X011851Y004625D03*
X011834Y004708D03*
X011918Y004708D03*
X011918Y004825D03*
X011951Y004858D03*
X012218Y004858D03*
X012268Y004858D03*
X012284Y004358D03*
X012384Y004208D03*
X012368Y004142D03*
X012318Y004175D03*
X012484Y004175D03*
X012667Y004142D03*
X012734Y004292D03*
X012751Y004358D03*
X013117Y004475D03*
X012817Y004858D03*
X013434Y004858D03*
X013684Y004558D03*
X013684Y004475D03*
X013701Y004475D03*
X013617Y004475D03*
X013801Y004558D03*
X013817Y004558D03*
X013984Y004558D03*
X014001Y004558D03*
X014001Y004475D03*
X014034Y004442D03*
X014034Y004408D03*
X014101Y004408D03*
X014101Y004442D03*
X014101Y004292D03*
X014034Y004292D03*
X014051Y004208D03*
X013967Y004208D03*
X013967Y004142D03*
X013817Y004175D03*
X013801Y004175D03*
X013751Y004208D03*
X013734Y004208D03*
X013684Y004175D03*
X013651Y004208D03*
X013734Y004142D03*
X013751Y004142D03*
X014217Y004558D03*
X014234Y004558D03*
X014351Y004558D03*
X014351Y004475D03*
X014567Y004558D03*
X014584Y004558D03*
X014751Y004558D03*
X014767Y004558D03*
X014817Y004558D03*
X014834Y004558D03*
X014751Y004625D03*
X014684Y004775D03*
X014950Y004558D03*
X014950Y004475D03*
X014934Y004475D03*
X015067Y004558D03*
X015167Y004558D03*
X015284Y004558D03*
X015300Y004558D03*
X015284Y004475D03*
X015300Y004442D03*
X015300Y004408D03*
X015367Y004408D03*
X015367Y004442D03*
X015350Y004475D03*
X015517Y004442D03*
X015517Y004408D03*
X015517Y004358D03*
X015584Y004442D03*
X015600Y004475D03*
X015534Y004475D03*
X015584Y004558D03*
X015700Y004558D03*
X015750Y004558D03*
X015767Y004558D03*
X015784Y004558D03*
X015817Y004558D03*
X015884Y004558D03*
X015900Y004558D03*
X015884Y004475D03*
X015900Y004442D03*
X015900Y004408D03*
X015967Y004408D03*
X015967Y004442D03*
X015950Y004475D03*
X015967Y004292D03*
X015900Y004292D03*
X015934Y004208D03*
X015900Y004175D03*
X015884Y004175D03*
X015850Y004208D03*
X015834Y004208D03*
X015784Y004175D03*
X015767Y004175D03*
X015784Y004142D03*
X015834Y004142D03*
X015850Y004142D03*
X015700Y004175D03*
X015634Y004175D03*
X015634Y004142D03*
X015584Y004175D03*
X015534Y004208D03*
X015367Y004292D03*
X015300Y004292D03*
X015234Y004208D03*
X015284Y004175D03*
X015250Y004142D03*
X015234Y004142D03*
X015217Y004142D03*
X015167Y004175D03*
X015100Y004175D03*
X015017Y004208D03*
X015000Y004208D03*
X014950Y004175D03*
X014934Y004208D03*
X015000Y004142D03*
X015017Y004142D03*
X014684Y004142D03*
X014384Y004142D03*
X016200Y004142D03*
X016367Y004208D03*
X016384Y004208D03*
X016417Y004175D03*
X016467Y004142D03*
X016534Y004175D03*
X016600Y004175D03*
X016617Y004175D03*
X016667Y004208D03*
X016667Y004142D03*
X016734Y004175D03*
X016767Y004208D03*
X016800Y004292D03*
X016734Y004292D03*
X016734Y004408D03*
X016734Y004442D03*
X016717Y004475D03*
X016784Y004475D03*
X016800Y004442D03*
X016717Y004558D03*
X016617Y004558D03*
X016600Y004558D03*
X016550Y004558D03*
X016534Y004558D03*
X016417Y004558D03*
X016434Y004475D03*
X016417Y004442D03*
X016367Y004475D03*
X016350Y004442D03*
X016350Y004408D03*
X016350Y004358D03*
X016200Y004858D03*
X011734Y004475D03*
X011718Y004442D03*
X011684Y004408D03*
X011651Y004358D03*
X011601Y004408D03*
X011568Y004358D03*
X011601Y004292D03*
X011534Y004208D03*
X011484Y004142D03*
X011651Y004475D03*
X010401Y004175D03*
D17*
X010384Y004142D03*
X010868Y004858D03*
X011468Y004858D03*
X011768Y004625D03*
X011884Y004775D03*
X012001Y004858D03*
X012301Y004292D03*
X012651Y004208D03*
X012717Y004175D03*
X012767Y004858D03*
X012951Y004825D03*
X013601Y004442D03*
X013601Y004408D03*
X013667Y004408D03*
X013667Y004442D03*
X013667Y004292D03*
X013601Y004292D03*
X013901Y004175D03*
X013951Y004208D03*
X013951Y004142D03*
X014017Y004175D03*
X014017Y004475D03*
X014084Y004475D03*
X014017Y004558D03*
X013901Y004558D03*
X014201Y004558D03*
X014251Y004558D03*
X014367Y004442D03*
X014367Y004408D03*
X014434Y004142D03*
X014734Y004142D03*
X014967Y004175D03*
X015084Y004175D03*
X015150Y004175D03*
X015317Y004208D03*
X015567Y004175D03*
X015617Y004208D03*
X015617Y004142D03*
X015684Y004175D03*
X015567Y004408D03*
X015684Y004558D03*
X015800Y004558D03*
X015984Y004358D03*
X016150Y004142D03*
X016400Y004175D03*
X016450Y004208D03*
X016450Y004142D03*
X016517Y004175D03*
X016684Y004208D03*
X016684Y004142D03*
X016817Y004358D03*
X016517Y004558D03*
X016400Y004408D03*
X016334Y004358D03*
X016150Y004858D03*
X015150Y004558D03*
X015084Y004558D03*
X014967Y004558D03*
X014967Y004475D03*
X014851Y004558D03*
X014734Y004625D03*
X014667Y004625D03*
X014734Y004775D03*
X011518Y004292D03*
X009734Y004858D03*
X009268Y004858D03*
X009085Y004775D03*
X009085Y004741D03*
X009085Y004625D03*
X009018Y004625D03*
X009018Y004358D03*
X009085Y004358D03*
X009151Y004175D03*
X009201Y004142D03*
X009318Y004175D03*
X005752Y004175D03*
X005752Y004208D03*
X005702Y004142D03*
X005702Y004092D03*
X005585Y004092D03*
X005518Y004142D03*
X005518Y004175D03*
X005518Y004208D03*
X005518Y003942D03*
X005518Y003875D03*
X005635Y003875D03*
X005635Y003942D03*
X005702Y003875D03*
X005518Y003725D03*
X005635Y003642D03*
X005635Y003608D03*
X005702Y003608D03*
X005635Y003525D03*
X005635Y003492D03*
X005635Y003458D03*
X005702Y003458D03*
X005702Y003492D03*
X005518Y003492D03*
X005518Y003525D03*
X005518Y004708D03*
X005518Y004741D03*
X005518Y004775D03*
X005585Y004825D03*
X005702Y004825D03*
X005702Y004858D03*
X005752Y004775D03*
X005702Y004708D03*
X005752Y004975D03*
X005752Y005041D03*
X005752Y005125D03*
X005635Y004975D03*
X005518Y005158D03*
X005518Y005191D03*
X005518Y005241D03*
X005585Y005308D03*
X005585Y005508D03*
X005518Y005541D03*
X005752Y005541D03*
X005285Y005508D03*
X005285Y005458D03*
X005285Y005425D03*
X005285Y005391D03*
X005168Y005391D03*
X005168Y005425D03*
X005168Y005458D03*
X005168Y005508D03*
X005168Y005541D03*
X005052Y005541D03*
X005052Y005508D03*
X005052Y005391D03*
D18*
X005627Y005458D03*
X005643Y005391D03*
X005710Y005391D03*
X005593Y004858D03*
X005710Y004558D03*
X005643Y004025D03*
X005577Y003458D03*
X009310Y004858D03*
X012243Y004858D03*
X013842Y004558D03*
X013842Y004175D03*
X014659Y004558D03*
X014792Y004558D03*
X015609Y004175D03*
X015809Y004142D03*
X015725Y004558D03*
X016575Y004558D03*
D19*
X016375Y004408D03*
X016175Y004142D03*
X015659Y004175D03*
X015542Y004408D03*
X015125Y004175D03*
X015059Y004175D03*
X014709Y004142D03*
X014409Y004142D03*
X013876Y004175D03*
X013876Y004558D03*
X014709Y004775D03*
X016175Y004858D03*
X012792Y004858D03*
X011976Y004858D03*
X011443Y004858D03*
X010843Y004858D03*
X005727Y004625D03*
X005727Y004358D03*
X005610Y003458D03*
X005560Y005508D03*
D20*
X005618Y005441D03*
X005668Y005441D03*
X005452Y005441D03*
X005435Y005441D03*
X005435Y005525D03*
X005452Y005525D03*
X005302Y005525D03*
X005268Y005525D03*
X005202Y005525D03*
X005152Y005525D03*
X005135Y005525D03*
X005085Y005525D03*
X005068Y005525D03*
X005035Y005525D03*
X005035Y005441D03*
X005018Y005441D03*
X005002Y005441D03*
X005152Y005441D03*
X005268Y005441D03*
X005535Y005175D03*
X005552Y004841D03*
X005568Y004841D03*
X005602Y004841D03*
X005618Y004841D03*
X005652Y004841D03*
X005668Y004841D03*
X005685Y004841D03*
X005718Y004841D03*
X005718Y004758D03*
X005735Y004758D03*
X005535Y004758D03*
X005718Y004425D03*
X005735Y004425D03*
X005735Y004158D03*
X005718Y004158D03*
X005668Y004075D03*
X005652Y004075D03*
X005618Y004075D03*
X005602Y004075D03*
X005552Y004158D03*
X005535Y004158D03*
X005852Y003742D03*
X005735Y003475D03*
X005718Y003475D03*
X005685Y003475D03*
X005652Y003475D03*
X005618Y003475D03*
X005568Y003475D03*
X005552Y003475D03*
X005535Y003475D03*
X009001Y004425D03*
X009068Y004425D03*
X009168Y004158D03*
X009185Y004158D03*
X009185Y004758D03*
X009101Y004758D03*
X009218Y004841D03*
X009235Y004841D03*
X011501Y004158D03*
X011618Y004425D03*
X011868Y004758D03*
X012334Y004158D03*
X012701Y004158D03*
X012934Y004841D03*
X013701Y004158D03*
X014001Y004158D03*
X014034Y004425D03*
X014101Y004425D03*
X014684Y004758D03*
X014984Y004158D03*
X015250Y004158D03*
X015300Y004425D03*
X015367Y004425D03*
X015517Y004425D03*
X015584Y004425D03*
X015584Y004158D03*
X015600Y004158D03*
X015884Y004158D03*
X015900Y004425D03*
X015967Y004425D03*
X016200Y004158D03*
X016417Y004158D03*
X016434Y004158D03*
X016700Y004158D03*
X016717Y004158D03*
X016734Y004425D03*
X016800Y004425D03*
X016417Y004425D03*
X016367Y004425D03*
X016350Y004425D03*
X016200Y004841D03*
D21*
X016150Y004841D03*
X015867Y004158D03*
X015267Y004158D03*
X014967Y004158D03*
X014734Y004758D03*
X014367Y004425D03*
X013667Y004425D03*
X013601Y004425D03*
X013717Y004158D03*
X012951Y004841D03*
X011934Y004841D03*
X011701Y004425D03*
X010384Y004158D03*
X009201Y004758D03*
X009201Y004841D03*
X009085Y004758D03*
X005752Y004758D03*
X005702Y004841D03*
X005635Y004841D03*
X005585Y004841D03*
X005518Y004758D03*
X005518Y005175D03*
X005518Y005525D03*
X005285Y005525D03*
X005218Y005525D03*
X005168Y005525D03*
X005168Y005441D03*
X005285Y005441D03*
X005052Y005525D03*
X005752Y005525D03*
X005518Y004158D03*
X005585Y004075D03*
X005635Y004075D03*
X005518Y003742D03*
X005585Y003475D03*
X005635Y003475D03*
X005702Y003475D03*
D22*
X005727Y003508D03*
X005727Y004225D03*
X005793Y004375D03*
X005793Y004392D03*
X005727Y004392D03*
X005727Y004458D03*
X005610Y004392D03*
X005727Y004791D03*
X005543Y004958D03*
X005560Y005141D03*
X005360Y005375D03*
X011443Y004125D03*
X011976Y004125D03*
X013976Y004192D03*
X014226Y004608D03*
X014342Y004525D03*
X014409Y004608D03*
X014409Y004125D03*
X015542Y004392D03*
X015775Y004125D03*
X015942Y004308D03*
X016375Y004392D03*
X016425Y004392D03*
D23*
X016384Y004508D03*
X016467Y004591D03*
X016484Y004591D03*
X016650Y004591D03*
X016667Y004591D03*
X016767Y004508D03*
X016784Y004242D03*
X016717Y004242D03*
X016417Y004242D03*
X016384Y004242D03*
X016367Y004242D03*
X015950Y004242D03*
X015884Y004242D03*
X015850Y004508D03*
X015850Y004591D03*
X015834Y004591D03*
X015934Y004508D03*
X015650Y004591D03*
X015634Y004591D03*
X015550Y004508D03*
X015334Y004508D03*
X015250Y004508D03*
X015234Y004591D03*
X015217Y004591D03*
X015017Y004591D03*
X015000Y004591D03*
X014984Y004591D03*
X014984Y004508D03*
X015000Y004508D03*
X014867Y004591D03*
X014934Y004242D03*
X014950Y004242D03*
X014984Y004242D03*
X015300Y004325D03*
X015367Y004325D03*
X015350Y004242D03*
X015334Y004242D03*
X015534Y004242D03*
X015550Y004242D03*
X015584Y004242D03*
X014534Y004591D03*
X014334Y004508D03*
X014301Y004591D03*
X014184Y004591D03*
X014067Y004508D03*
X013984Y004508D03*
X013984Y004591D03*
X013967Y004591D03*
X013751Y004591D03*
X013734Y004591D03*
X013634Y004508D03*
X013634Y004242D03*
X013701Y004242D03*
X014001Y004242D03*
X014034Y004325D03*
X014101Y004325D03*
X013117Y004508D03*
X012817Y004325D03*
X012784Y004242D03*
X012701Y004242D03*
X012334Y004242D03*
X012251Y004242D03*
X012218Y004325D03*
X011834Y004591D03*
X011801Y004675D03*
X011684Y004508D03*
X011534Y004325D03*
X009168Y004242D03*
X009068Y004242D03*
X009101Y004325D03*
X009068Y004591D03*
X009001Y004591D03*
X009035Y004675D03*
X009118Y004675D03*
X005735Y004591D03*
X005718Y004591D03*
X005718Y004675D03*
X005685Y004675D03*
X005668Y004675D03*
X005652Y004675D03*
X005602Y004675D03*
X005552Y004675D03*
X005568Y004508D03*
X005735Y004508D03*
X005735Y004325D03*
X005718Y004325D03*
X005718Y004242D03*
X005735Y004242D03*
X005568Y004242D03*
X005568Y003992D03*
X005552Y003992D03*
X005535Y003992D03*
X005618Y003992D03*
X005652Y003992D03*
X005668Y003992D03*
X005718Y003992D03*
X005718Y003908D03*
X005735Y003908D03*
X005652Y003908D03*
X005618Y003908D03*
X005535Y003908D03*
X005552Y003825D03*
X005568Y003825D03*
X005602Y003825D03*
X005618Y003825D03*
X005685Y003825D03*
X005652Y003558D03*
X005618Y003558D03*
X005552Y003558D03*
X005535Y003558D03*
X005718Y003558D03*
X005735Y003558D03*
X005735Y004925D03*
X005735Y005008D03*
X005718Y005008D03*
X005652Y005008D03*
X005618Y005008D03*
X005652Y004925D03*
X005568Y004925D03*
X005535Y005275D03*
X005652Y005275D03*
X005452Y005358D03*
X005368Y005358D03*
X005352Y005358D03*
X005268Y005358D03*
X005118Y005358D03*
X005085Y005358D03*
D24*
X005102Y005358D03*
X005285Y005358D03*
X005335Y005358D03*
X005518Y005358D03*
X005585Y005275D03*
X005752Y005358D03*
X005752Y005008D03*
X005635Y005008D03*
X005518Y004925D03*
X005702Y004675D03*
X005518Y004508D03*
X005518Y004242D03*
X005702Y004242D03*
X005635Y003992D03*
X005585Y003992D03*
X005635Y003908D03*
X005585Y003825D03*
X005518Y003908D03*
X005702Y003825D03*
X005752Y003908D03*
X005635Y003558D03*
X005518Y003558D03*
X009018Y004325D03*
X009085Y004242D03*
X011768Y004508D03*
X013601Y004325D03*
X013667Y004325D03*
X013717Y004508D03*
X013717Y004591D03*
X013951Y004591D03*
X014317Y004591D03*
X014317Y004508D03*
X014917Y004508D03*
X014917Y004242D03*
X014967Y004242D03*
X015267Y004242D03*
X015567Y004242D03*
X015617Y004508D03*
X015867Y004508D03*
X015917Y004325D03*
X016400Y004242D03*
X016450Y004508D03*
X016634Y004591D03*
X016684Y004591D03*
X016684Y004508D03*
X016750Y004325D03*
D25*
X016767Y004275D03*
X016750Y004258D03*
X016734Y004225D03*
X016567Y004125D03*
X016400Y004225D03*
X016384Y004458D03*
X016434Y004525D03*
X016450Y004542D03*
X016734Y004492D03*
X015934Y004275D03*
X015900Y004225D03*
X015884Y004392D03*
X015884Y004525D03*
X015734Y004608D03*
X015600Y004525D03*
X015567Y004492D03*
X015550Y004458D03*
X015334Y004392D03*
X015334Y004342D03*
X015334Y004308D03*
X015317Y004275D03*
X015317Y004258D03*
X015317Y004458D03*
X015300Y004492D03*
X014967Y004525D03*
X014951Y004225D03*
X014984Y004192D03*
X015567Y004225D03*
X015734Y004125D03*
X014317Y004542D03*
X014034Y004492D03*
X014067Y004392D03*
X014067Y004342D03*
X014067Y004308D03*
X013851Y004125D03*
X013651Y004258D03*
X013651Y004275D03*
X013651Y004458D03*
X013667Y004492D03*
X013851Y004608D03*
X013001Y004808D03*
X012784Y004342D03*
X012251Y004342D03*
X009035Y004392D03*
X009035Y004542D03*
X009035Y004575D03*
X005718Y005141D03*
X005618Y005108D03*
X005568Y004375D03*
X005652Y003625D03*
D26*
X005802Y003708D03*
X005652Y004375D03*
X005702Y005108D03*
X005635Y005141D03*
X011568Y004308D03*
X011634Y004392D03*
X011684Y004458D03*
X011751Y004542D03*
X011834Y004658D03*
X014984Y004542D03*
X015250Y004542D03*
X015250Y004192D03*
X015667Y004392D03*
X015867Y004192D03*
D27*
X005627Y003708D03*
D28*
X005685Y003725D03*
D29*
X005785Y003742D03*
D30*
X005610Y003742D03*
D31*
X005710Y003742D03*
X005643Y005441D03*
X005327Y005525D03*
X005110Y005525D03*
X016392Y004425D03*
D32*
X016417Y004508D03*
X016750Y004242D03*
X015917Y004242D03*
X015900Y004508D03*
X015584Y004508D03*
X015334Y004325D03*
X015300Y004242D03*
X014951Y004508D03*
X014067Y004325D03*
X013667Y004242D03*
X009035Y004591D03*
X005685Y005275D03*
X005618Y005275D03*
X005652Y003825D03*
D33*
X005693Y003992D03*
X005627Y004675D03*
X005577Y004675D03*
X005393Y005358D03*
D34*
X005643Y004858D03*
X005627Y004092D03*
X009026Y004475D03*
X009076Y004292D03*
X009093Y004708D03*
X009126Y004741D03*
X009576Y004741D03*
X009576Y004708D03*
X009576Y004775D03*
X009576Y004625D03*
X009576Y004558D03*
X009576Y004475D03*
X009576Y004442D03*
X009576Y004408D03*
X009576Y004358D03*
X009576Y004292D03*
X009576Y004208D03*
X009576Y004175D03*
X010026Y004175D03*
X010026Y004208D03*
X010026Y004142D03*
X010026Y004292D03*
X010026Y004358D03*
X010026Y004408D03*
X010026Y004442D03*
X010026Y004475D03*
X010026Y004558D03*
X010026Y004625D03*
X010026Y004708D03*
X010026Y004741D03*
X010026Y004775D03*
X010843Y004775D03*
X010843Y004741D03*
X010843Y004708D03*
X010843Y004625D03*
X010843Y004558D03*
X010843Y004475D03*
X010843Y004442D03*
X010843Y004408D03*
X010843Y004358D03*
X010843Y004292D03*
X010843Y004208D03*
X010843Y004175D03*
X011443Y004142D03*
X011443Y004292D03*
X011443Y004358D03*
X011443Y004408D03*
X011443Y004442D03*
X011443Y004475D03*
X011443Y004558D03*
X011443Y004625D03*
X011443Y004708D03*
X011443Y004741D03*
X011443Y004775D03*
X011443Y004825D03*
X011759Y004558D03*
X011809Y004625D03*
X011876Y004708D03*
X011976Y004708D03*
X011976Y004625D03*
X011976Y004558D03*
X011976Y004475D03*
X011976Y004442D03*
X011976Y004408D03*
X011976Y004358D03*
X011976Y004292D03*
X011976Y004208D03*
X011976Y004175D03*
X011976Y004142D03*
X012259Y004292D03*
X012243Y004358D03*
X012243Y004408D03*
X012243Y004442D03*
X012243Y004475D03*
X012243Y004558D03*
X012243Y004625D03*
X012243Y004708D03*
X012243Y004741D03*
X012243Y004775D03*
X012243Y004825D03*
X012792Y004825D03*
X012792Y004775D03*
X012792Y004741D03*
X012792Y004708D03*
X012792Y004625D03*
X012792Y004558D03*
X012792Y004475D03*
X012792Y004442D03*
X012792Y004408D03*
X012792Y004358D03*
X012776Y004292D03*
X012526Y004175D03*
X011693Y004475D03*
X011643Y004408D03*
X011559Y004292D03*
X010843Y004825D03*
X013409Y004775D03*
X013409Y004741D03*
X013409Y004708D03*
X013409Y004625D03*
X013409Y004558D03*
X013409Y004442D03*
X013409Y004408D03*
X013409Y004358D03*
X013409Y004292D03*
X013409Y004208D03*
X013409Y004175D03*
X013409Y004142D03*
X013626Y004358D03*
X013942Y004558D03*
X014076Y004358D03*
X014009Y004208D03*
X014409Y004208D03*
X014409Y004175D03*
X014409Y004292D03*
X014409Y004358D03*
X014409Y004408D03*
X014409Y004442D03*
X014409Y004558D03*
X014709Y004558D03*
X014709Y004475D03*
X014709Y004442D03*
X014709Y004408D03*
X014709Y004358D03*
X014709Y004292D03*
X014709Y004208D03*
X014709Y004175D03*
X015009Y004175D03*
X015275Y004208D03*
X015342Y004358D03*
X015575Y004208D03*
X016175Y004208D03*
X016175Y004175D03*
X016175Y004292D03*
X016175Y004358D03*
X016175Y004408D03*
X016175Y004442D03*
X016175Y004475D03*
X016175Y004558D03*
X016175Y004625D03*
X016175Y004708D03*
X016175Y004741D03*
X016175Y004775D03*
X016175Y004825D03*
X016775Y004408D03*
X016725Y004208D03*
X014709Y004708D03*
X014709Y004741D03*
D35*
X012517Y004125D03*
D36*
X010634Y004125D03*
D37*
X009460Y004125D03*
X015125Y004575D03*
D38*
X015117Y004608D03*
X015117Y004125D03*
X014051Y004258D03*
X014051Y004275D03*
X014051Y004458D03*
X013634Y004342D03*
X013634Y004308D03*
X009051Y004342D03*
X005668Y004392D03*
X005668Y004525D03*
D39*
X012517Y004142D03*
D40*
X013201Y004825D03*
X010634Y004142D03*
D41*
X009426Y004142D03*
D42*
X005652Y005125D03*
X013851Y004142D03*
X016567Y004142D03*
D43*
X015709Y004142D03*
X009226Y004175D03*
D44*
X015117Y004142D03*
D45*
X014709Y004158D03*
X014709Y004425D03*
X014409Y004425D03*
X014409Y004158D03*
X013409Y004158D03*
X013409Y004425D03*
X013409Y004758D03*
X012792Y004758D03*
X012792Y004841D03*
X012792Y004425D03*
X012243Y004425D03*
X011976Y004425D03*
X011976Y004158D03*
X011659Y004425D03*
X011443Y004425D03*
X011443Y004758D03*
X011443Y004841D03*
X011976Y004841D03*
X012243Y004841D03*
X012243Y004758D03*
X010843Y004758D03*
X010843Y004841D03*
X010843Y004425D03*
X010026Y004425D03*
X010026Y004158D03*
X009576Y004425D03*
X009576Y004758D03*
X009143Y004758D03*
X010026Y004758D03*
X016175Y004758D03*
X016175Y004425D03*
D46*
X012517Y004158D03*
D47*
X011451Y004158D03*
D48*
X010634Y004158D03*
X013201Y004841D03*
D49*
X009401Y004158D03*
D50*
X016567Y004158D03*
D51*
X016767Y004425D03*
X016167Y004158D03*
X015934Y004425D03*
X015550Y004425D03*
X015334Y004425D03*
X014067Y004425D03*
X009035Y004425D03*
D52*
X015117Y004158D03*
X015734Y004158D03*
D53*
X013859Y004158D03*
D54*
X012634Y004175D03*
D55*
X012401Y004175D03*
X011934Y004741D03*
D56*
X011459Y004175D03*
X012709Y004208D03*
X013959Y004175D03*
D57*
X013742Y004175D03*
X013742Y004558D03*
X012326Y004208D03*
X015225Y004175D03*
X015225Y004558D03*
X016675Y004175D03*
D58*
X016467Y004175D03*
X016467Y004558D03*
X015634Y004558D03*
X015017Y004558D03*
X014301Y004558D03*
X005118Y005541D03*
D59*
X009168Y004775D03*
X009168Y004208D03*
X011668Y004442D03*
X011968Y004825D03*
X014401Y004475D03*
X015834Y004175D03*
X016667Y004558D03*
D60*
X010609Y004175D03*
D61*
X009435Y004175D03*
X005635Y005541D03*
D62*
X005585Y005391D03*
X009035Y004558D03*
X009035Y004442D03*
X009035Y004408D03*
X013651Y004475D03*
X014067Y004442D03*
X014067Y004408D03*
X014067Y004292D03*
X014617Y004558D03*
X014967Y004208D03*
X015334Y004292D03*
X015334Y004408D03*
X015334Y004442D03*
X015317Y004475D03*
X015550Y004442D03*
X015567Y004475D03*
X015850Y004558D03*
X015917Y004475D03*
X015934Y004442D03*
X015934Y004408D03*
X015934Y004292D03*
X015734Y004175D03*
X016384Y004442D03*
X016400Y004475D03*
X016417Y004208D03*
X016567Y004175D03*
X016767Y004292D03*
X016767Y004442D03*
X016750Y004475D03*
D63*
X014251Y004575D03*
X012684Y004192D03*
X012351Y004192D03*
X005585Y004525D03*
D64*
X011459Y004192D03*
X014609Y004608D03*
X015792Y004392D03*
D65*
X014392Y004492D03*
X011959Y004791D03*
X011959Y004808D03*
X009193Y004791D03*
X009193Y004192D03*
D66*
X005727Y004375D03*
X015292Y004225D03*
X015592Y004192D03*
X016425Y004192D03*
D67*
X011951Y004775D03*
X011468Y004208D03*
X005668Y005308D03*
D68*
X011609Y004358D03*
X013692Y004208D03*
X015892Y004208D03*
D69*
X016659Y004392D03*
X011476Y004225D03*
X009226Y004808D03*
D70*
X009076Y004675D03*
X009026Y004508D03*
X009060Y004325D03*
X009126Y004242D03*
X009576Y004242D03*
X009576Y004325D03*
X009576Y004508D03*
X009576Y004591D03*
X009576Y004675D03*
X010026Y004675D03*
X010026Y004591D03*
X010026Y004508D03*
X010026Y004325D03*
X010026Y004242D03*
X010843Y004242D03*
X010843Y004325D03*
X010843Y004508D03*
X010843Y004591D03*
X010843Y004675D03*
X011443Y004675D03*
X011443Y004591D03*
X011443Y004508D03*
X011443Y004325D03*
X011726Y004508D03*
X011976Y004508D03*
X011976Y004591D03*
X011976Y004675D03*
X012243Y004675D03*
X012243Y004591D03*
X012243Y004508D03*
X012259Y004325D03*
X012293Y004242D03*
X011976Y004242D03*
X011976Y004325D03*
X012776Y004325D03*
X012792Y004508D03*
X012792Y004591D03*
X012792Y004675D03*
X013409Y004675D03*
X013409Y004591D03*
X013409Y004325D03*
X013409Y004242D03*
X013676Y004508D03*
X014026Y004508D03*
X014042Y004242D03*
X014409Y004242D03*
X014409Y004325D03*
X014409Y004591D03*
X014709Y004508D03*
X014709Y004675D03*
X014709Y004325D03*
X014709Y004242D03*
X016175Y004242D03*
X016175Y004325D03*
X016175Y004508D03*
X016175Y004591D03*
X016175Y004675D03*
X016725Y004508D03*
X005693Y004925D03*
D71*
X005610Y004925D03*
X012742Y004242D03*
X015292Y004508D03*
D72*
X011484Y004242D03*
D73*
X005727Y005275D03*
X005727Y005358D03*
X005560Y005275D03*
X005427Y005358D03*
X005143Y005358D03*
X005543Y004925D03*
X005543Y004508D03*
X005543Y004242D03*
D74*
X009051Y004358D03*
X009051Y004625D03*
X013634Y004442D03*
X013634Y004408D03*
X013634Y004292D03*
X014051Y004475D03*
X014701Y004625D03*
X015117Y004558D03*
D75*
X011584Y004325D03*
D76*
X013634Y004325D03*
X015950Y004325D03*
X016784Y004325D03*
D77*
X016550Y004342D03*
D78*
X015742Y004342D03*
D79*
X015750Y004358D03*
X016584Y004358D03*
D80*
X014401Y004458D03*
X011801Y004608D03*
X011734Y004525D03*
X011618Y004375D03*
D81*
X015742Y004375D03*
X016575Y004375D03*
D82*
X013634Y004425D03*
D83*
X013284Y004475D03*
D84*
X013284Y004492D03*
D85*
X013284Y004508D03*
X014701Y004591D03*
D86*
X014392Y004508D03*
X014242Y004591D03*
D87*
X005652Y004508D03*
D88*
X013259Y004525D03*
X013859Y004575D03*
D89*
X016584Y004575D03*
D90*
X015742Y004575D03*
D91*
X014709Y004575D03*
D92*
X011851Y004675D03*
X011784Y004591D03*
D93*
X016559Y004591D03*
D94*
X015742Y004591D03*
D95*
X015117Y004591D03*
D96*
X013851Y004591D03*
X005618Y005358D03*
D97*
X014759Y004608D03*
D98*
X011943Y004758D03*
D99*
X014709Y004758D03*
X016175Y004841D03*
X005243Y005525D03*
D100*
X013201Y004808D03*
D101*
X010184Y004808D03*
X009868Y004808D03*
D102*
X009435Y004808D03*
X005635Y004941D03*
X005635Y005375D03*
D103*
X010018Y004825D03*
D104*
X009401Y004825D03*
D105*
X010026Y004841D03*
D106*
X009426Y004841D03*
D107*
X013192Y004858D03*
D108*
X010026Y004858D03*
D109*
X009460Y004858D03*
D110*
X005652Y005291D03*
D111*
X005635Y005525D03*
D112*
X005277Y005541D03*
D113*
X005652Y005375D03*
X005668Y005391D03*
D114*
X011025Y009725D03*
X011025Y014440D03*
D115*
X011025Y009750D03*
D116*
X011025Y009774D03*
X011025Y014390D03*
D117*
X011025Y009799D03*
D118*
X011025Y009824D03*
D119*
X011025Y009848D03*
X011025Y014316D03*
D120*
X011025Y009873D03*
D121*
X011025Y009898D03*
X011025Y014267D03*
D122*
X011025Y009922D03*
D123*
X011025Y009947D03*
D124*
X011025Y009972D03*
X011025Y014193D03*
D125*
X011025Y014168D03*
X011025Y009997D03*
D126*
X011025Y010021D03*
X011025Y014143D03*
D127*
X011025Y010046D03*
D128*
X011025Y010071D03*
X011025Y014094D03*
D129*
X011025Y010095D03*
D130*
X011025Y010120D03*
D131*
X013383Y010145D03*
X013407Y010194D03*
D132*
X009594Y010145D03*
D133*
X013407Y010169D03*
D134*
X009581Y010169D03*
D135*
X009581Y010194D03*
D136*
X013420Y010219D03*
D137*
X009569Y010219D03*
D138*
X012457Y013946D03*
X012457Y013995D03*
X012457Y014045D03*
X014530Y013995D03*
X014555Y010243D03*
D139*
X014185Y010243D03*
X014037Y010243D03*
X013617Y010293D03*
X013617Y010416D03*
X013469Y010416D03*
X013469Y010293D03*
X013321Y010836D03*
X013395Y011033D03*
X013518Y010959D03*
X013790Y011033D03*
X013913Y010959D03*
X014111Y010836D03*
X014185Y011033D03*
X013321Y011823D03*
X013321Y011872D03*
X013370Y011947D03*
X012728Y011033D03*
X012728Y010836D03*
X012605Y010416D03*
X012185Y010293D03*
X011865Y010293D03*
X011865Y010416D03*
X011716Y010416D03*
X011420Y010243D03*
X011149Y010416D03*
X010877Y010836D03*
X010877Y011033D03*
X010581Y010959D03*
X010581Y010910D03*
X010581Y010836D03*
X011371Y011033D03*
X009001Y011033D03*
X008853Y010959D03*
X008853Y010910D03*
X008853Y010836D03*
X009001Y010836D03*
X008705Y010959D03*
X012704Y013699D03*
X012704Y013748D03*
X013666Y013748D03*
X013666Y013699D03*
X013864Y013625D03*
X013864Y013576D03*
X014111Y013625D03*
X014111Y013699D03*
D140*
X014098Y013576D03*
X013975Y013872D03*
X013654Y013625D03*
X013185Y013625D03*
X012691Y013625D03*
X012222Y013625D03*
X012222Y013748D03*
X013802Y011749D03*
X014098Y011823D03*
X014024Y011033D03*
X013901Y010910D03*
X013629Y011033D03*
X013506Y010910D03*
X013234Y011033D03*
X012988Y010836D03*
X012864Y010959D03*
X012445Y010959D03*
X012297Y010836D03*
X012000Y010836D03*
X011852Y010910D03*
X011852Y010959D03*
X012050Y010416D03*
X012050Y010243D03*
X011729Y010243D03*
X011679Y010367D03*
X011581Y010416D03*
X011581Y010293D03*
X011136Y010367D03*
X011186Y010836D03*
X011186Y010910D03*
X011186Y010959D03*
X011038Y010959D03*
X011038Y010910D03*
X011038Y011033D03*
X010593Y011033D03*
X009729Y010836D03*
X009557Y010836D03*
X009285Y010836D03*
X009137Y010910D03*
X009137Y010959D03*
X008693Y010910D03*
X008693Y010836D03*
X012617Y010367D03*
X012617Y010293D03*
X012617Y010243D03*
X012766Y010243D03*
X013580Y010243D03*
X013901Y010243D03*
X013876Y010367D03*
X014098Y010540D03*
D141*
X014111Y010416D03*
X014185Y010367D03*
X014012Y010416D03*
X013716Y010243D03*
X013420Y010243D03*
X013395Y010910D03*
X013395Y010959D03*
X013518Y011033D03*
X013790Y010910D03*
X013913Y011033D03*
X014111Y010910D03*
X014185Y010910D03*
X013148Y011749D03*
X011815Y010836D03*
X010778Y011033D03*
X008754Y011033D03*
X013987Y013748D03*
X014135Y013872D03*
D142*
X013642Y013576D03*
X012951Y013625D03*
X012679Y013576D03*
X012235Y013576D03*
X012235Y013699D03*
X012284Y011033D03*
X011667Y010959D03*
X011667Y010910D03*
X011494Y010910D03*
X011494Y010959D03*
X011149Y010293D03*
X011149Y010243D03*
X009273Y011033D03*
X013296Y010243D03*
X013469Y010367D03*
D143*
X012975Y010243D03*
X012383Y010416D03*
X012383Y010910D03*
X012803Y010910D03*
X010359Y010910D03*
X010359Y010959D03*
X010359Y011033D03*
X009618Y011033D03*
X009372Y010959D03*
X009372Y010910D03*
D144*
X012074Y010910D03*
X012074Y010959D03*
X012395Y010243D03*
X013309Y011626D03*
X014049Y011626D03*
D145*
X011914Y010243D03*
D146*
X012025Y010293D03*
X012025Y010367D03*
X011729Y010293D03*
X011531Y010243D03*
X011433Y010293D03*
X011433Y010367D03*
X011433Y010416D03*
X011605Y011033D03*
X011828Y011033D03*
X012025Y011033D03*
X012297Y010959D03*
X012593Y010959D03*
X012593Y010910D03*
X012716Y010959D03*
X013234Y010959D03*
X013309Y010910D03*
X013629Y010959D03*
X013704Y010910D03*
X013802Y010959D03*
X014024Y010959D03*
X014197Y010959D03*
X014024Y010367D03*
X014024Y010293D03*
X013901Y010293D03*
X013901Y010416D03*
X013629Y010367D03*
X013309Y010367D03*
X013309Y010416D03*
X013309Y010293D03*
X012766Y010293D03*
X012766Y010367D03*
X012766Y010416D03*
X014172Y010293D03*
X011161Y011033D03*
X010890Y010959D03*
X010890Y010910D03*
X010272Y010836D03*
X008989Y010910D03*
X008989Y010959D03*
X013185Y013699D03*
X013185Y013748D03*
X013852Y013748D03*
X013852Y013699D03*
X014123Y013748D03*
D147*
X013716Y010836D03*
X013765Y010293D03*
X013148Y010836D03*
X011297Y010416D03*
X011297Y010367D03*
X011297Y010293D03*
X011297Y010243D03*
D148*
X009125Y010243D03*
D149*
X014567Y010268D03*
X014543Y013921D03*
D150*
X014111Y013674D03*
X014111Y013650D03*
X013987Y013847D03*
X013864Y013650D03*
X013864Y013600D03*
X013666Y013674D03*
X013666Y013724D03*
X013666Y013773D03*
X013173Y013773D03*
X013173Y013674D03*
X013173Y013650D03*
X012951Y013600D03*
X012704Y013674D03*
X012704Y013724D03*
X012704Y013773D03*
X012457Y013847D03*
X013346Y011922D03*
X013346Y011897D03*
X013321Y011848D03*
X013395Y011009D03*
X013395Y010984D03*
X013518Y010934D03*
X013617Y011009D03*
X013790Y011009D03*
X013790Y010984D03*
X013913Y010934D03*
X014012Y011009D03*
X014185Y011009D03*
X014185Y010984D03*
X014111Y010860D03*
X014111Y010515D03*
X014111Y010466D03*
X014185Y010268D03*
X014037Y010268D03*
X013913Y010268D03*
X013889Y010466D03*
X013617Y010441D03*
X013617Y010391D03*
X013617Y010317D03*
X013296Y010268D03*
X013296Y010441D03*
X013321Y010860D03*
X013222Y011009D03*
X012852Y010860D03*
X012580Y010860D03*
X012580Y010885D03*
X012580Y010984D03*
X012580Y011009D03*
X012432Y010860D03*
X012284Y010860D03*
X012136Y010860D03*
X011988Y010860D03*
X011988Y010885D03*
X011988Y010984D03*
X011840Y011009D03*
X011840Y010860D03*
X011716Y010441D03*
X011716Y010268D03*
X011420Y010268D03*
X011445Y010441D03*
X011149Y010391D03*
X010877Y010811D03*
X010778Y011058D03*
X010581Y011009D03*
X010581Y010984D03*
X010581Y010934D03*
X010581Y010885D03*
X010581Y010860D03*
X010285Y010860D03*
X010038Y011107D03*
X009717Y010860D03*
X009421Y010860D03*
X009273Y010860D03*
X009273Y011009D03*
X009001Y011009D03*
X009001Y010860D03*
X008853Y010860D03*
X008853Y010885D03*
X008853Y010934D03*
X008853Y010984D03*
X008705Y010984D03*
X011173Y011009D03*
X011173Y011058D03*
X011494Y010860D03*
X012037Y010391D03*
X012037Y010268D03*
X012778Y010466D03*
X012284Y011009D03*
D151*
X012297Y010984D03*
X012297Y010934D03*
X012297Y010885D03*
X012445Y011009D03*
X012593Y010934D03*
X012716Y010934D03*
X012716Y010984D03*
X012716Y011009D03*
X012864Y011009D03*
X012716Y010860D03*
X012766Y010441D03*
X012766Y010391D03*
X012766Y010342D03*
X012766Y010317D03*
X012766Y010268D03*
X013309Y010317D03*
X013309Y010342D03*
X013309Y010391D03*
X013605Y010268D03*
X013629Y010342D03*
X013901Y010342D03*
X013901Y010317D03*
X014024Y010317D03*
X014024Y010342D03*
X014098Y010441D03*
X013901Y010441D03*
X014098Y010885D03*
X014024Y010934D03*
X014024Y010984D03*
X013901Y010984D03*
X013901Y011058D03*
X013704Y010885D03*
X013629Y010934D03*
X013629Y010984D03*
X013506Y010984D03*
X013506Y011058D03*
X013309Y010885D03*
X013234Y010934D03*
X013234Y010984D03*
X012148Y011009D03*
X012000Y011009D03*
X011729Y011058D03*
X011482Y011009D03*
X011038Y010860D03*
X010988Y010811D03*
X010890Y010860D03*
X010890Y010885D03*
X010890Y010934D03*
X010890Y010984D03*
X010890Y011009D03*
X011433Y010391D03*
X011433Y010342D03*
X011433Y010317D03*
X011556Y010342D03*
X011704Y010342D03*
X011729Y010317D03*
X012025Y010317D03*
X012025Y010342D03*
X011803Y010811D03*
X010026Y011132D03*
X009285Y010984D03*
X009285Y010885D03*
X009137Y010860D03*
X009137Y011009D03*
X008989Y010984D03*
X008989Y010934D03*
X008989Y010885D03*
X012864Y013526D03*
X012864Y013896D03*
X013185Y013724D03*
X013852Y013724D03*
X013852Y013674D03*
X013975Y013773D03*
X013975Y013798D03*
X014123Y013798D03*
X014123Y013773D03*
X014123Y013724D03*
D152*
X013407Y013724D03*
X012667Y013526D03*
X014049Y012021D03*
X014049Y011971D03*
X013852Y011848D03*
X014049Y011675D03*
X013531Y011724D03*
X013555Y011848D03*
X012297Y011058D03*
X012420Y010466D03*
X012395Y010268D03*
X012963Y010268D03*
X012963Y010441D03*
X011655Y010811D03*
D153*
X011482Y010885D03*
X011482Y010984D03*
X011186Y010984D03*
X011186Y010934D03*
X011186Y010885D03*
X011186Y010860D03*
X011038Y010885D03*
X011038Y010934D03*
X011038Y010984D03*
X011038Y011009D03*
X010890Y011058D03*
X010272Y010811D03*
X009581Y010860D03*
X009433Y010984D03*
X009137Y010984D03*
X009137Y010885D03*
X008742Y011058D03*
X008693Y010934D03*
X008693Y010885D03*
X008693Y010860D03*
X008693Y010811D03*
X011433Y010466D03*
X011581Y010317D03*
X012198Y010515D03*
X012617Y010391D03*
X012617Y010342D03*
X012617Y010317D03*
X012617Y010268D03*
X013284Y010466D03*
X013012Y010860D03*
X012864Y010984D03*
X012445Y010984D03*
X012148Y010984D03*
X011852Y010984D03*
X011852Y010934D03*
X011852Y010885D03*
X011828Y011058D03*
X013383Y011971D03*
X013555Y011922D03*
X013555Y011675D03*
X013802Y011724D03*
X014098Y013551D03*
X014098Y013600D03*
X013975Y013896D03*
X013654Y013798D03*
X013654Y013650D03*
X013654Y013600D03*
X013185Y013600D03*
X013185Y013798D03*
X012889Y013921D03*
X012691Y013798D03*
X012691Y013650D03*
X012691Y013600D03*
X012222Y013600D03*
X012222Y013724D03*
X012222Y013773D03*
X012222Y013798D03*
D154*
X011346Y011009D03*
X011346Y010860D03*
X011297Y010466D03*
X011297Y010441D03*
X011297Y010391D03*
X011297Y010342D03*
X011297Y010317D03*
X011297Y010268D03*
X010729Y010984D03*
X008878Y011058D03*
X013148Y010860D03*
X013716Y010860D03*
X013765Y010317D03*
D155*
X013617Y010466D03*
X013469Y010391D03*
X013469Y010342D03*
X013469Y010317D03*
X013321Y010811D03*
X013518Y010860D03*
X013518Y010885D03*
X013395Y011058D03*
X013913Y010885D03*
X013913Y010860D03*
X014111Y010811D03*
X014111Y010564D03*
X014185Y011058D03*
X014086Y011774D03*
X014086Y011798D03*
X014086Y012070D03*
X013815Y011897D03*
X013815Y011774D03*
X013321Y011798D03*
X012753Y011058D03*
X012728Y010811D03*
X012136Y010885D03*
X012037Y011058D03*
X011667Y010984D03*
X011667Y010934D03*
X011667Y010885D03*
X011667Y010860D03*
X011494Y010934D03*
X011593Y011058D03*
X011173Y010811D03*
X011149Y010342D03*
X011149Y010317D03*
X011149Y010268D03*
X011716Y010466D03*
X012185Y010317D03*
X010581Y010811D03*
X010408Y011107D03*
X009890Y010885D03*
X009421Y010885D03*
X009125Y010934D03*
X012235Y013847D03*
X012679Y013847D03*
X013420Y013600D03*
X013642Y013847D03*
X013987Y013921D03*
X013864Y013551D03*
X013864Y013526D03*
X014086Y013526D03*
D156*
X009112Y010268D03*
D157*
X014580Y010293D03*
D158*
X013778Y010416D03*
X013160Y010416D03*
X013160Y010293D03*
X012568Y010836D03*
X012568Y011033D03*
X013136Y011823D03*
X013136Y011872D03*
X010741Y010959D03*
X010741Y010910D03*
X010741Y010836D03*
D159*
X009865Y010959D03*
X009643Y010910D03*
X012408Y010293D03*
X012951Y010293D03*
X012951Y010367D03*
X012951Y010416D03*
X013568Y011872D03*
X013839Y011823D03*
X012951Y013699D03*
X012951Y013748D03*
D160*
X009100Y010293D03*
D161*
X010853Y011132D03*
X011593Y011132D03*
X011593Y011107D03*
X014580Y010342D03*
X014580Y010317D03*
X014555Y013896D03*
X012457Y014069D03*
D162*
X012852Y013551D03*
X013420Y013847D03*
X013839Y013847D03*
X013839Y013798D03*
X013839Y013773D03*
X014135Y013847D03*
X014135Y013896D03*
X013913Y011009D03*
X013790Y010934D03*
X013716Y010934D03*
X013518Y011009D03*
X013395Y010934D03*
X013321Y010934D03*
X013420Y010466D03*
X013765Y010441D03*
X014012Y010441D03*
X014012Y010391D03*
X014111Y010391D03*
X014185Y010391D03*
X014185Y010342D03*
X014185Y010317D03*
X014185Y010934D03*
X014111Y010934D03*
X012654Y010466D03*
X011568Y010441D03*
X011198Y010466D03*
X011618Y011009D03*
X010729Y011009D03*
X009421Y011009D03*
X008853Y011009D03*
D163*
X013037Y010317D03*
X013185Y013921D03*
D164*
X012951Y013798D03*
X012951Y013773D03*
X012951Y013724D03*
X012951Y013674D03*
X012951Y013650D03*
X012654Y013896D03*
X012260Y013896D03*
X012260Y013526D03*
X013420Y013650D03*
X013420Y013674D03*
X013420Y013773D03*
X013420Y013798D03*
X013617Y013896D03*
X013987Y014020D03*
X014061Y011724D03*
X013296Y011675D03*
X013296Y011650D03*
X013518Y010811D03*
X013913Y010811D03*
X012951Y010391D03*
X012408Y010342D03*
X012408Y010317D03*
X012284Y010811D03*
X009865Y010984D03*
X009865Y011009D03*
X009643Y010934D03*
X009643Y010885D03*
X009618Y010984D03*
X009618Y011009D03*
X009273Y010811D03*
X009026Y011058D03*
D165*
X008853Y010811D03*
X010729Y010811D03*
X011865Y010391D03*
X011865Y010342D03*
X011865Y010317D03*
X012556Y010811D03*
X013716Y010811D03*
X013790Y011058D03*
X013790Y011922D03*
D166*
X009100Y010342D03*
X009100Y010317D03*
D167*
X011334Y010885D03*
X011334Y010934D03*
X011334Y010984D03*
X013136Y011774D03*
X013136Y011798D03*
X013728Y010342D03*
D168*
X012975Y010342D03*
X012975Y010466D03*
X012803Y010885D03*
X012408Y010441D03*
X012111Y010466D03*
X011642Y010391D03*
X010359Y010885D03*
X010359Y010934D03*
X010359Y010984D03*
X010359Y011009D03*
X010359Y011058D03*
X009372Y010934D03*
X009273Y011058D03*
X012284Y013921D03*
X013592Y013921D03*
X013617Y013526D03*
D169*
X013629Y013551D03*
X013975Y013971D03*
X012667Y013551D03*
X012445Y013600D03*
X012247Y013551D03*
X013555Y011897D03*
X013827Y011798D03*
X013309Y011724D03*
X013234Y011058D03*
X012988Y010811D03*
X012420Y010885D03*
X012000Y010811D03*
X012074Y010441D03*
X012198Y010342D03*
X011038Y011058D03*
X010618Y011058D03*
X010421Y011132D03*
X009878Y011058D03*
X009878Y010934D03*
X009754Y010811D03*
X009014Y010811D03*
X013629Y011058D03*
X014024Y011058D03*
D170*
X014592Y010416D03*
X014592Y010367D03*
X014567Y013872D03*
D171*
X012321Y010367D03*
X007261Y011749D03*
X007261Y011823D03*
X007261Y011872D03*
X007261Y011947D03*
X007261Y012045D03*
X007261Y012712D03*
X007261Y012786D03*
X007261Y012835D03*
X007261Y012959D03*
X007261Y013033D03*
X007261Y013082D03*
D172*
X011346Y010836D03*
X011865Y010367D03*
X013741Y011626D03*
X013765Y011947D03*
D173*
X009088Y010416D03*
X009088Y010367D03*
D174*
X014592Y010391D03*
X014567Y013847D03*
D175*
X013185Y013551D03*
X013136Y011971D03*
X013728Y011601D03*
X013086Y010885D03*
X013827Y010391D03*
D176*
X013160Y010391D03*
X013160Y010811D03*
X013753Y011650D03*
X013778Y011675D03*
X013136Y011848D03*
X010741Y010934D03*
X010741Y010885D03*
X010741Y010860D03*
D177*
X012358Y010391D03*
D178*
X009088Y010391D03*
D179*
X010877Y011107D03*
X012284Y011107D03*
X012284Y011132D03*
X014604Y010564D03*
X014604Y010515D03*
X014604Y010466D03*
X014604Y010441D03*
X014580Y013773D03*
X014580Y013798D03*
D180*
X009075Y010441D03*
D181*
X011914Y010466D03*
D182*
X009088Y010466D03*
D183*
X012284Y011083D03*
X014604Y010490D03*
D184*
X014111Y010490D03*
X013987Y013822D03*
D185*
X013666Y010490D03*
D186*
X012827Y010490D03*
D187*
X012185Y010490D03*
X013296Y011700D03*
X013420Y013822D03*
X012951Y013822D03*
X012457Y013822D03*
X009890Y011083D03*
D188*
X009594Y010490D03*
D189*
X013666Y010515D03*
D190*
X012827Y010515D03*
D191*
X009594Y010515D03*
X009594Y013600D03*
X009594Y013650D03*
X009594Y013674D03*
X009594Y013724D03*
D192*
X014580Y013748D03*
X014604Y010540D03*
D193*
X013679Y010540D03*
D194*
X013099Y010540D03*
D195*
X012556Y010540D03*
X014506Y014045D03*
D196*
X014592Y013699D03*
X014592Y013625D03*
X011729Y010540D03*
D197*
X009223Y010540D03*
D198*
X012543Y010564D03*
X013679Y010564D03*
X014518Y014020D03*
D199*
X013099Y010564D03*
D200*
X011741Y010564D03*
D201*
X009223Y010564D03*
D202*
X011025Y010589D03*
X011025Y010638D03*
X011025Y010688D03*
X011025Y010737D03*
X011025Y010762D03*
X011025Y011181D03*
X011025Y011231D03*
X011025Y011255D03*
X011025Y011305D03*
X011025Y011354D03*
X011025Y012341D03*
X011025Y012391D03*
X011025Y013403D03*
X011025Y013428D03*
X011025Y013477D03*
D203*
X011025Y013452D03*
X011025Y012366D03*
X011025Y011329D03*
X011025Y011280D03*
X011025Y011206D03*
X011025Y010712D03*
X011025Y010663D03*
X011025Y010614D03*
D204*
X011025Y010786D03*
X011025Y013502D03*
D205*
X014592Y012514D03*
X014592Y010811D03*
D206*
X013753Y011971D03*
X013136Y011922D03*
X013136Y011897D03*
X012543Y011058D03*
X011383Y011058D03*
X011359Y010811D03*
X009557Y010811D03*
X013185Y013847D03*
D207*
X012457Y013798D03*
X012457Y013773D03*
X013049Y011009D03*
X013049Y010984D03*
X013074Y010934D03*
X010087Y010934D03*
X010087Y010885D03*
X010087Y010860D03*
X010087Y010811D03*
X010087Y010984D03*
X010087Y011009D03*
X010087Y011058D03*
D208*
X007841Y011009D03*
X007841Y010984D03*
X007841Y010934D03*
X007841Y010885D03*
X007841Y010860D03*
X007841Y010811D03*
D209*
X014592Y010836D03*
X014592Y013279D03*
D210*
X013975Y013946D03*
X013975Y013995D03*
X013629Y013872D03*
X013407Y013625D03*
X012667Y013872D03*
X012247Y013872D03*
X013827Y011872D03*
X014074Y011749D03*
X013901Y010836D03*
X013506Y010836D03*
X011655Y010836D03*
X009878Y010910D03*
X009878Y011033D03*
X009631Y010959D03*
D211*
X010087Y010959D03*
X010087Y010910D03*
X010087Y010836D03*
X010087Y011033D03*
X013074Y010959D03*
X013074Y010910D03*
D212*
X007841Y010910D03*
X007841Y010959D03*
X007841Y011033D03*
X007841Y010836D03*
D213*
X014604Y010860D03*
X014604Y010885D03*
X014604Y011601D03*
X014604Y012144D03*
X014604Y012564D03*
X014604Y013230D03*
X014604Y013255D03*
X014604Y013526D03*
X014604Y013551D03*
D214*
X014604Y013576D03*
X014604Y012539D03*
X014604Y010910D03*
D215*
X011334Y010910D03*
X011334Y010959D03*
D216*
X014617Y010934D03*
X014617Y010984D03*
X014617Y011058D03*
X014617Y011650D03*
X014617Y011675D03*
X014617Y011724D03*
X014617Y011774D03*
X014617Y011798D03*
X014617Y011848D03*
X014617Y011897D03*
X014617Y011922D03*
X014617Y011971D03*
X014617Y012021D03*
X014617Y012070D03*
X014617Y012095D03*
X014617Y012588D03*
X014617Y012638D03*
X014617Y013131D03*
X014617Y013181D03*
D217*
X013975Y014069D03*
X014049Y011650D03*
X012074Y010934D03*
D218*
X014617Y010959D03*
X014617Y011626D03*
X014617Y011749D03*
X014617Y011823D03*
X014617Y011872D03*
X014617Y011947D03*
X014617Y012045D03*
X014617Y012119D03*
X014617Y012662D03*
X014617Y013156D03*
D219*
X014629Y013107D03*
X014629Y013057D03*
X014629Y013008D03*
X014629Y012983D03*
X014629Y012934D03*
X014629Y012884D03*
X014629Y012860D03*
X014629Y012810D03*
X014629Y012761D03*
X014629Y012736D03*
X014629Y012687D03*
X014629Y011009D03*
D220*
X014629Y011033D03*
X014629Y012712D03*
X014629Y012786D03*
X014629Y012835D03*
X014629Y012959D03*
X014629Y013033D03*
X014629Y013082D03*
D221*
X013037Y011033D03*
X012445Y013625D03*
D222*
X013185Y013526D03*
X013185Y013896D03*
X013012Y011058D03*
D223*
X009594Y011058D03*
D224*
X007866Y011058D03*
D225*
X013827Y011083D03*
D226*
X011593Y011083D03*
D227*
X010890Y011083D03*
D228*
X010359Y011083D03*
X014037Y011996D03*
D229*
X013741Y011996D03*
X010087Y011083D03*
D230*
X008409Y011083D03*
D231*
X012766Y012144D03*
X013827Y011107D03*
D232*
X008421Y011107D03*
D233*
X013815Y011132D03*
D234*
X008434Y011132D03*
D235*
X013815Y011157D03*
D236*
X011939Y011157D03*
D237*
X009137Y011157D03*
D238*
X013185Y011379D03*
D239*
X007385Y011379D03*
D240*
X013234Y011403D03*
X013234Y012317D03*
D241*
X007335Y012440D03*
X007335Y013353D03*
X007335Y011403D03*
D242*
X013247Y011428D03*
D243*
X007323Y011428D03*
X007323Y012465D03*
D244*
X013259Y011453D03*
D245*
X007310Y011453D03*
X007310Y012490D03*
D246*
X013272Y011478D03*
D247*
X007298Y011478D03*
X007298Y012514D03*
D248*
X013284Y011502D03*
D249*
X007286Y011502D03*
X007286Y012539D03*
D250*
X013284Y012218D03*
X013284Y012193D03*
X013284Y011527D03*
D251*
X013457Y011774D03*
X007286Y011527D03*
X007286Y012193D03*
X007286Y012218D03*
X007286Y012564D03*
X007286Y013230D03*
X007286Y013255D03*
D252*
X013296Y011552D03*
D253*
X007273Y011552D03*
X007273Y011601D03*
X007273Y012095D03*
X007273Y012144D03*
X007273Y012588D03*
X007273Y012638D03*
X007273Y013131D03*
X007273Y013181D03*
D254*
X013296Y012169D03*
X013296Y011576D03*
D255*
X007273Y011576D03*
X007273Y011626D03*
X007273Y012119D03*
X007273Y012169D03*
X007273Y012662D03*
X007273Y013156D03*
D256*
X014049Y011601D03*
D257*
X013321Y011601D03*
D258*
X012371Y011601D03*
D259*
X012358Y011626D03*
D260*
X012358Y011650D03*
X012358Y011675D03*
D261*
X007261Y011675D03*
X007261Y011650D03*
X007261Y011724D03*
X007261Y011774D03*
X007261Y011798D03*
X007261Y011848D03*
X007261Y011897D03*
X007261Y011922D03*
X007261Y011971D03*
X007261Y012021D03*
X007261Y012070D03*
X007261Y012687D03*
X007261Y012736D03*
X007261Y012761D03*
X007261Y012810D03*
X007261Y012860D03*
X007261Y012884D03*
X007261Y012934D03*
X007261Y012983D03*
X007261Y013008D03*
X007261Y013057D03*
X007261Y013107D03*
D262*
X014617Y013205D03*
X014617Y012613D03*
X014617Y011996D03*
X014617Y011700D03*
D263*
X014061Y011700D03*
X013543Y011700D03*
D264*
X013778Y011700D03*
D265*
X012358Y011700D03*
D266*
X007261Y011700D03*
X007261Y011996D03*
X007261Y012909D03*
D267*
X012346Y011724D03*
D268*
X013444Y011749D03*
X007298Y012243D03*
X007298Y013279D03*
D269*
X012346Y011749D03*
D270*
X012334Y011774D03*
X012334Y011798D03*
D271*
X012321Y011823D03*
X012321Y011872D03*
D272*
X012321Y011848D03*
D273*
X012309Y011897D03*
X012309Y011922D03*
D274*
X014049Y011947D03*
X014049Y012045D03*
X013407Y013699D03*
X013407Y013748D03*
X013975Y014045D03*
D275*
X013185Y013872D03*
X013185Y013576D03*
X013136Y011947D03*
D276*
X012309Y011947D03*
D277*
X012297Y011971D03*
D278*
X013383Y011996D03*
D279*
X013136Y011996D03*
D280*
X012309Y011996D03*
D281*
X012741Y012021D03*
X012741Y012070D03*
D282*
X012741Y012045D03*
D283*
X012741Y012095D03*
D284*
X012753Y012119D03*
D285*
X013272Y012243D03*
D286*
X013259Y012267D03*
D287*
X007310Y012267D03*
X007310Y013304D03*
D288*
X013247Y012292D03*
D289*
X007323Y012292D03*
D290*
X007348Y012317D03*
D291*
X014518Y012415D03*
D292*
X007372Y012415D03*
D293*
X014555Y012440D03*
X014555Y013353D03*
D294*
X014567Y012465D03*
D295*
X014580Y012490D03*
D296*
X007273Y012613D03*
X007273Y013205D03*
D297*
X014629Y012909D03*
D298*
X014580Y013304D03*
D299*
X014567Y013329D03*
D300*
X007323Y013329D03*
D301*
X014506Y013378D03*
D302*
X007385Y013378D03*
D303*
X009594Y013526D03*
D304*
X009581Y013551D03*
D305*
X009581Y013576D03*
D306*
X014592Y013600D03*
X014592Y013650D03*
X014592Y013674D03*
X014592Y013724D03*
D307*
X009594Y013699D03*
X009594Y013625D03*
D308*
X012358Y013650D03*
X012358Y013674D03*
D309*
X009606Y013748D03*
D310*
X009606Y013773D03*
X009606Y013798D03*
D311*
X014567Y013822D03*
D312*
X014135Y013822D03*
X013839Y013822D03*
D313*
X013654Y013822D03*
X013185Y013822D03*
X012691Y013822D03*
X012222Y013822D03*
D314*
X009618Y013822D03*
D315*
X009618Y013847D03*
D316*
X009618Y013872D03*
D317*
X009631Y013896D03*
D318*
X012630Y013921D03*
D319*
X009643Y013921D03*
D320*
X014543Y013946D03*
D321*
X013272Y013946D03*
X013272Y013995D03*
D322*
X009643Y013946D03*
D323*
X012457Y013971D03*
X012457Y014020D03*
X014481Y014069D03*
X014530Y013971D03*
D324*
X013272Y013971D03*
X013272Y014020D03*
D325*
X009655Y013971D03*
D326*
X009655Y013995D03*
D327*
X009668Y014020D03*
X009692Y014069D03*
D328*
X013284Y014045D03*
D329*
X009680Y014045D03*
D330*
X013284Y014069D03*
D331*
X011025Y014119D03*
D332*
X011025Y014217D03*
D333*
X011025Y014242D03*
D334*
X011025Y014291D03*
D335*
X011025Y014341D03*
D336*
X011025Y014365D03*
D337*
X011025Y014415D03*
D338*
X011587Y013050D02*
X011587Y012700D01*
X011587Y012817D02*
X011411Y012934D01*
X011280Y012875D02*
X011221Y012934D01*
X011105Y012934D01*
X011046Y012875D01*
X011046Y012817D01*
X011280Y012817D01*
X011280Y012875D02*
X011280Y012758D01*
X011221Y012700D01*
X011105Y012700D01*
X010911Y012700D02*
X010911Y012934D01*
X010795Y012934D02*
X010736Y012934D01*
X010795Y012934D02*
X010911Y012817D01*
X011411Y012700D02*
X011587Y012817D01*
X011721Y012817D02*
X011897Y012817D01*
X011955Y012758D01*
X011897Y012700D01*
X011721Y012700D01*
X011721Y012875D01*
X011780Y012934D01*
X011897Y012934D01*
X012090Y013050D02*
X012090Y012700D01*
X012323Y012700D02*
X012323Y013050D01*
X012207Y012934D01*
X012090Y013050D01*
X012826Y013050D02*
X012826Y012817D01*
X012943Y012700D01*
X013060Y012817D01*
X013060Y013050D01*
X013195Y012934D02*
X013195Y012700D01*
X013195Y012875D02*
X013428Y012875D01*
X013428Y012934D02*
X013428Y012700D01*
X013563Y012758D02*
X013621Y012700D01*
X013738Y012700D01*
X013797Y012758D01*
X013738Y012875D02*
X013621Y012875D01*
X013563Y012817D01*
X013563Y012758D01*
X013738Y012875D02*
X013797Y012934D01*
X013797Y012992D01*
X013738Y013050D01*
X013621Y013050D01*
X013563Y012992D01*
X013428Y012934D02*
X013311Y013050D01*
X013195Y012934D01*
X011265Y011895D02*
X011265Y011662D01*
X011265Y011837D02*
X011031Y011837D01*
X011031Y011895D02*
X011031Y011662D01*
X011031Y011895D02*
X011148Y012012D01*
X011265Y011895D01*
X010236Y012700D02*
X010119Y012700D01*
X010178Y012700D02*
X010178Y013050D01*
X010236Y013050D02*
X010119Y013050D01*
D339*
X013472Y009315D03*
X013289Y009160D03*
X013234Y009141D03*
X013189Y009123D03*
X013691Y009141D03*
X014019Y008192D03*
X013700Y007982D03*
X013234Y007973D03*
X013700Y007481D03*
X013700Y007225D03*
X014001Y007271D03*
X014138Y007435D03*
X014786Y007444D03*
X014831Y007225D03*
X012851Y007252D03*
D340*
X014580Y007225D03*
D341*
X014412Y007225D03*
X014247Y007225D03*
X014147Y007481D03*
X013983Y007481D03*
X013891Y007654D03*
X013590Y007982D03*
X013472Y008110D03*
X013453Y008128D03*
X013161Y008512D03*
X012851Y008430D03*
X012860Y008384D03*
X012869Y008347D03*
X012961Y008156D03*
X012952Y008128D03*
X012952Y008110D03*
X012942Y008092D03*
X012942Y008083D03*
X012915Y007973D03*
X012906Y007919D03*
X012897Y007891D03*
X012869Y007763D03*
X012860Y007718D03*
X012851Y007681D03*
X013335Y007481D03*
X013499Y007481D03*
X013335Y007225D03*
X014183Y008001D03*
X014238Y008211D03*
X014275Y008347D03*
X014065Y008384D03*
X014065Y008393D03*
X014056Y008366D03*
X014056Y008347D03*
X014028Y008284D03*
X014019Y008274D03*
X013983Y008220D03*
X013901Y008110D03*
X013882Y008092D03*
X014074Y008430D03*
X014329Y008557D03*
X014357Y008712D03*
X014357Y008731D03*
X014357Y008749D03*
X014357Y008758D03*
X014357Y008776D03*
X014275Y009059D03*
X012869Y008758D03*
X012860Y008731D03*
X012851Y008712D03*
X012851Y008694D03*
X012851Y008685D03*
X012805Y008712D03*
X012805Y008731D03*
X012805Y008749D03*
X012787Y008877D03*
X012787Y008886D03*
X012769Y009014D03*
X012769Y009032D03*
X012769Y009050D03*
X012769Y009059D03*
X012358Y007398D03*
D342*
X012600Y007462D03*
X012682Y007380D03*
X012600Y007225D03*
X012847Y007654D03*
X012847Y007672D03*
X012856Y007700D03*
X012865Y007736D03*
X012865Y007745D03*
X012874Y007782D03*
X012874Y007791D03*
X012892Y007855D03*
X012901Y007909D03*
X012910Y007937D03*
X012920Y007982D03*
X012938Y008065D03*
X012956Y008147D03*
X012965Y008174D03*
X012974Y008211D03*
X012974Y008220D03*
X012983Y008238D03*
X012983Y008274D03*
X012993Y008284D03*
X012993Y008302D03*
X013002Y008320D03*
X013002Y008329D03*
X013002Y008347D03*
X013020Y008430D03*
X013029Y008448D03*
X013029Y008457D03*
X013038Y008475D03*
X013038Y008493D03*
X013047Y008512D03*
X013047Y008521D03*
X013047Y008539D03*
X013066Y008603D03*
X013066Y008621D03*
X013075Y008630D03*
X013075Y008649D03*
X013075Y008667D03*
X013120Y008667D03*
X013129Y008630D03*
X013129Y008621D03*
X013129Y008603D03*
X013148Y008539D03*
X013157Y008521D03*
X013166Y008493D03*
X013175Y008475D03*
X013193Y008448D03*
X013202Y008430D03*
X013248Y008366D03*
X013412Y008174D03*
X013431Y008156D03*
X013494Y008083D03*
X013513Y008065D03*
X013549Y008019D03*
X013568Y008001D03*
X013595Y007973D03*
X013631Y007937D03*
X013650Y007919D03*
X013677Y007891D03*
X013713Y007846D03*
X013732Y007827D03*
X013750Y007809D03*
X013768Y007791D03*
X013777Y007782D03*
X013796Y007763D03*
X013814Y007745D03*
X013814Y007736D03*
X013850Y007700D03*
X013869Y007681D03*
X013878Y007672D03*
X013923Y007617D03*
X013987Y007225D03*
X014152Y007225D03*
X014745Y007316D03*
X014188Y008019D03*
X014188Y008037D03*
X014197Y008046D03*
X014197Y008065D03*
X014206Y008083D03*
X014206Y008092D03*
X014225Y008147D03*
X014225Y008156D03*
X014225Y008174D03*
X014234Y008192D03*
X014243Y008220D03*
X014243Y008238D03*
X014252Y008274D03*
X014197Y008320D03*
X014206Y008329D03*
X014179Y008302D03*
X014234Y008366D03*
X014279Y008366D03*
X014316Y008512D03*
X014316Y008521D03*
X014325Y008539D03*
X014334Y008576D03*
X014334Y008585D03*
X014343Y008603D03*
X014343Y008621D03*
X014343Y008630D03*
X014352Y008649D03*
X014352Y008667D03*
X014352Y008685D03*
X014352Y008694D03*
X014270Y008731D03*
X014270Y008749D03*
X014270Y008758D03*
X014270Y008776D03*
X014252Y008840D03*
X014234Y008858D03*
X014334Y008904D03*
X014334Y008922D03*
X014325Y008931D03*
X014316Y008968D03*
X014298Y009014D03*
X014288Y009032D03*
X014279Y009050D03*
X014252Y009096D03*
X014243Y009114D03*
X014234Y009123D03*
X014343Y008886D03*
X014343Y008877D03*
X014352Y008840D03*
X014352Y008822D03*
X014352Y008813D03*
X014252Y008685D03*
X013987Y008685D03*
X013987Y008694D03*
X013987Y008712D03*
X013987Y008731D03*
X013987Y008749D03*
X013987Y008758D03*
X013987Y008813D03*
X013987Y008822D03*
X013987Y008840D03*
X013987Y008858D03*
X013933Y008968D03*
X013896Y009014D03*
X013777Y008877D03*
X013777Y008858D03*
X013777Y008840D03*
X013777Y008822D03*
X013777Y008813D03*
X013777Y008776D03*
X013777Y008758D03*
X013777Y008749D03*
X013777Y008731D03*
X013777Y008712D03*
X013777Y008694D03*
X013777Y008685D03*
X013777Y008667D03*
X013777Y008649D03*
X013677Y008731D03*
X013987Y008667D03*
X014042Y008320D03*
X014033Y008302D03*
X013878Y008083D03*
X013120Y008840D03*
X013129Y008877D03*
X013129Y008886D03*
X013157Y008968D03*
X013166Y008986D03*
X013166Y008995D03*
X013175Y009014D03*
X013193Y009050D03*
X013212Y009077D03*
X012983Y008968D03*
X012956Y008931D03*
X012947Y008922D03*
X012920Y008886D03*
X012920Y008877D03*
X012910Y008858D03*
X012901Y008840D03*
X012892Y008822D03*
X012874Y008776D03*
X012865Y008749D03*
X012828Y008585D03*
X012828Y008576D03*
X012828Y008557D03*
X012856Y008393D03*
X012865Y008366D03*
X012892Y008302D03*
X012901Y008284D03*
X012901Y008274D03*
X013504Y007225D03*
D343*
X013166Y007225D03*
X012290Y007225D03*
X013586Y008147D03*
X013933Y008776D03*
X013586Y009351D03*
X014361Y007335D03*
X014836Y007462D03*
D344*
X014749Y007398D03*
X014749Y007307D03*
X014923Y007307D03*
X014412Y007307D03*
X014412Y007316D03*
X014412Y007289D03*
X014412Y007271D03*
X014412Y007252D03*
X014412Y007243D03*
X014412Y007380D03*
X014412Y007398D03*
X014412Y007435D03*
X014156Y007243D03*
X013983Y007316D03*
X013983Y007335D03*
X013983Y007353D03*
X013983Y007371D03*
X013983Y007380D03*
X013983Y007398D03*
X013983Y007435D03*
X013983Y007444D03*
X013983Y007462D03*
X013599Y007371D03*
X013599Y007353D03*
X013599Y007335D03*
X013499Y007243D03*
X013335Y007243D03*
X013335Y007252D03*
X013335Y007271D03*
X013335Y007289D03*
X013335Y007307D03*
X013335Y007316D03*
X013335Y007398D03*
X013335Y007435D03*
X013335Y007444D03*
X013335Y007462D03*
X013499Y007462D03*
X012915Y007398D03*
X012906Y007371D03*
X012888Y007316D03*
X012879Y007289D03*
X012824Y007289D03*
X012815Y007307D03*
X012815Y007316D03*
X012805Y007335D03*
X012787Y007380D03*
X012769Y007435D03*
X012760Y007462D03*
X012851Y007225D03*
X012605Y007243D03*
X012240Y007371D03*
X012231Y007398D03*
X013025Y008110D03*
X013043Y008092D03*
X013052Y008083D03*
X013070Y008065D03*
X013107Y008037D03*
X013280Y008329D03*
X013262Y008347D03*
X013234Y008384D03*
X013125Y008649D03*
X013116Y008813D03*
X013116Y008822D03*
X013125Y008858D03*
X012997Y008986D03*
X013006Y008995D03*
X013025Y009014D03*
X013043Y009032D03*
X013079Y009059D03*
X013198Y009059D03*
X013225Y009096D03*
X013481Y008822D03*
X013472Y008813D03*
X013435Y008776D03*
X013417Y008758D03*
X013408Y008749D03*
X013390Y008731D03*
X013371Y008712D03*
X013326Y008667D03*
X013517Y008858D03*
X013618Y008858D03*
X013618Y008813D03*
X013663Y008776D03*
X013691Y008749D03*
X013663Y008712D03*
X013645Y008694D03*
X013636Y008685D03*
X013618Y008667D03*
X013609Y008649D03*
X013983Y008649D03*
X014074Y008649D03*
X014238Y008667D03*
X014256Y008694D03*
X014202Y008877D03*
X014074Y008877D03*
X013983Y008877D03*
X013919Y008986D03*
X013855Y009050D03*
X014129Y009233D03*
X014193Y009169D03*
X014202Y009160D03*
X014220Y009141D03*
X014302Y008475D03*
X014293Y008457D03*
X014293Y008448D03*
X014284Y008430D03*
X014156Y008284D03*
X014147Y008274D03*
X013855Y008065D03*
X013818Y008037D03*
X013791Y008019D03*
X012833Y008603D03*
X012833Y008621D03*
D345*
X012837Y008512D03*
X012837Y008493D03*
X012883Y008320D03*
X013011Y008366D03*
X013011Y008384D03*
X013011Y008393D03*
X013056Y008557D03*
X013056Y008576D03*
X013056Y008585D03*
X013139Y008585D03*
X013139Y008576D03*
X013184Y008457D03*
X013230Y008393D03*
X013440Y008147D03*
X013485Y008092D03*
X013659Y007909D03*
X013704Y007855D03*
X013832Y007718D03*
X013832Y008046D03*
X014088Y008512D03*
X014088Y008521D03*
X014215Y008347D03*
X014261Y008302D03*
X014215Y008128D03*
X014215Y008110D03*
X014307Y008493D03*
X014261Y008712D03*
X014261Y008813D03*
X014261Y008822D03*
X014307Y008986D03*
X014307Y008995D03*
X014261Y009077D03*
X013914Y008995D03*
X013613Y008840D03*
X013613Y008822D03*
X013184Y009032D03*
X013139Y008922D03*
X012929Y008904D03*
X013011Y008128D03*
X012929Y008019D03*
X012883Y007827D03*
X012837Y007636D03*
X012837Y007617D03*
X012454Y007225D03*
D346*
X013695Y007234D03*
X014836Y007234D03*
D347*
X014576Y007234D03*
X014585Y007453D03*
D348*
X014749Y007408D03*
X014749Y007298D03*
X014923Y007389D03*
X014412Y007389D03*
X014412Y007408D03*
X014412Y007426D03*
X014412Y007325D03*
X014412Y007298D03*
X014412Y007280D03*
X014412Y007234D03*
X014247Y007234D03*
X014147Y007471D03*
X013983Y007471D03*
X013983Y007453D03*
X013983Y007426D03*
X013983Y007408D03*
X013983Y007389D03*
X013983Y007362D03*
X013983Y007325D03*
X013599Y007362D03*
X013499Y007471D03*
X013335Y007471D03*
X013335Y007453D03*
X013335Y007426D03*
X013335Y007408D03*
X013335Y007389D03*
X013335Y007325D03*
X013335Y007298D03*
X013335Y007280D03*
X013335Y007234D03*
X013499Y007234D03*
X013225Y007471D03*
X012879Y007298D03*
X012815Y007298D03*
X012805Y007325D03*
X012787Y007389D03*
X012778Y007408D03*
X012760Y007471D03*
X012678Y007389D03*
X012459Y007234D03*
X012358Y007408D03*
X012349Y007426D03*
X012231Y007426D03*
X012231Y007408D03*
X012231Y007389D03*
X013015Y008119D03*
X013061Y008074D03*
X013253Y008357D03*
X013198Y008439D03*
X013180Y008466D03*
X013362Y008703D03*
X013426Y008767D03*
X013444Y008785D03*
X013463Y008804D03*
X013490Y008831D03*
X013618Y008849D03*
X013682Y008740D03*
X013654Y008703D03*
X013627Y008676D03*
X013618Y008658D03*
X013864Y009041D03*
X014211Y009150D03*
X014229Y009132D03*
X014247Y008676D03*
X014311Y008503D03*
X014302Y008466D03*
X014138Y008265D03*
X013864Y008074D03*
X013846Y008055D03*
X013116Y008804D03*
X013125Y008849D03*
X012988Y008977D03*
X013015Y009004D03*
X012961Y008941D03*
X013189Y009041D03*
X013207Y009068D03*
X013216Y009087D03*
X013307Y009196D03*
X012833Y008612D03*
X012833Y008594D03*
D349*
X012847Y008439D03*
X012892Y008293D03*
X012910Y008265D03*
X012920Y008247D03*
X012974Y008229D03*
X012983Y008247D03*
X012983Y008265D03*
X012993Y008293D03*
X012993Y008311D03*
X013020Y008402D03*
X013020Y008420D03*
X013029Y008439D03*
X013029Y008466D03*
X013038Y008503D03*
X013047Y008530D03*
X013047Y008548D03*
X013066Y008594D03*
X013066Y008612D03*
X013075Y008658D03*
X013120Y008658D03*
X013129Y008612D03*
X013148Y008548D03*
X013166Y008503D03*
X013212Y008420D03*
X013221Y008402D03*
X013239Y008375D03*
X013421Y008165D03*
X013449Y008138D03*
X013504Y008074D03*
X013558Y008010D03*
X013577Y007992D03*
X013604Y007964D03*
X013622Y007946D03*
X013640Y007928D03*
X013668Y007900D03*
X013686Y007882D03*
X013723Y007836D03*
X013741Y007818D03*
X013805Y007754D03*
X013841Y007709D03*
X013860Y007690D03*
X013668Y007964D03*
X014015Y008265D03*
X014170Y008293D03*
X014188Y008311D03*
X014225Y008357D03*
X014252Y008265D03*
X014252Y008247D03*
X014243Y008229D03*
X014234Y008201D03*
X014225Y008165D03*
X014197Y008074D03*
X014197Y008055D03*
X014188Y008010D03*
X014079Y008439D03*
X013987Y008658D03*
X013987Y008676D03*
X013987Y008703D03*
X013987Y008740D03*
X013987Y008785D03*
X013987Y008804D03*
X013987Y008831D03*
X013987Y008849D03*
X013942Y008959D03*
X013923Y008977D03*
X013905Y009004D03*
X013777Y008849D03*
X013777Y008831D03*
X013777Y008804D03*
X013777Y008785D03*
X013777Y008740D03*
X013777Y008703D03*
X013777Y008676D03*
X013777Y008658D03*
X013640Y008785D03*
X013622Y008804D03*
X013321Y008658D03*
X013120Y008831D03*
X013129Y008895D03*
X013148Y008941D03*
X013148Y008959D03*
X013157Y008977D03*
X013166Y009004D03*
X012974Y008959D03*
X012938Y008913D03*
X012901Y008849D03*
X012892Y008831D03*
X012874Y008785D03*
X012974Y008201D03*
X012965Y008165D03*
X012956Y008138D03*
X012938Y008055D03*
X012910Y007946D03*
X012901Y007900D03*
X012892Y007864D03*
X012874Y007773D03*
X012865Y007754D03*
X012856Y007709D03*
X012856Y007690D03*
X012847Y007663D03*
X012938Y007471D03*
X012600Y007471D03*
X012600Y007234D03*
X014152Y007234D03*
X014325Y008530D03*
X014325Y008548D03*
X014343Y008612D03*
X014352Y008658D03*
X014352Y008676D03*
X014352Y008703D03*
X014270Y008740D03*
X014270Y008767D03*
X014270Y008785D03*
X014270Y008804D03*
X014252Y008831D03*
X014243Y008849D03*
X014352Y008849D03*
X014352Y008831D03*
X014352Y008804D03*
X014343Y008895D03*
X014334Y008913D03*
X014325Y008941D03*
X014316Y008959D03*
X014316Y008977D03*
X014298Y009004D03*
X014288Y009041D03*
X014270Y009068D03*
D350*
X014152Y009214D03*
X014115Y009242D03*
X013805Y009087D03*
X013513Y008849D03*
X013330Y008676D03*
X013111Y008767D03*
X013111Y008785D03*
X012828Y008658D03*
X013294Y008311D03*
X013084Y008055D03*
X013148Y008010D03*
X012938Y007453D03*
X012920Y007408D03*
X012910Y007389D03*
X012901Y007362D03*
X012892Y007325D03*
X012774Y007426D03*
X012764Y007453D03*
X012600Y007453D03*
X012600Y007389D03*
X012600Y007362D03*
X012600Y007325D03*
X012600Y007298D03*
X012600Y007280D03*
X012336Y007280D03*
X012317Y007298D03*
X012244Y007362D03*
X013504Y007389D03*
X013504Y007408D03*
X013504Y007426D03*
X013504Y007453D03*
X013604Y007389D03*
X013604Y007325D03*
X013504Y007325D03*
X013504Y007298D03*
X013504Y007280D03*
X013777Y007280D03*
X013796Y007325D03*
X013796Y007362D03*
X013796Y007389D03*
X013777Y007426D03*
X013987Y007234D03*
X014079Y007362D03*
X014152Y007362D03*
X014152Y007325D03*
X014152Y007298D03*
X014152Y007280D03*
X014270Y007280D03*
X014252Y007408D03*
X013777Y008010D03*
X014115Y008247D03*
X014279Y008420D03*
X014288Y008439D03*
X014225Y008658D03*
X013330Y009214D03*
X013120Y009087D03*
X014918Y007408D03*
X014927Y007362D03*
X014927Y007325D03*
X014918Y007298D03*
D351*
X014831Y007453D03*
X014348Y007471D03*
X013700Y007453D03*
X013161Y007234D03*
X012285Y007234D03*
X013463Y009196D03*
D352*
X013380Y009260D03*
X014065Y009278D03*
X014275Y008402D03*
X013344Y008265D03*
X014284Y007298D03*
X014758Y007280D03*
X014758Y007426D03*
X012851Y007234D03*
D353*
X013700Y007243D03*
X013700Y007462D03*
X014831Y007243D03*
D354*
X014576Y007243D03*
X014576Y007462D03*
D355*
X014407Y007371D03*
X014288Y007307D03*
X014252Y007243D03*
X014152Y007252D03*
X014152Y007271D03*
X014152Y007289D03*
X014152Y007307D03*
X014152Y007316D03*
X014152Y007335D03*
X014152Y007353D03*
X014152Y007371D03*
X014152Y007380D03*
X014079Y007371D03*
X014069Y007353D03*
X014060Y007335D03*
X014252Y007398D03*
X013796Y007398D03*
X013796Y007380D03*
X013796Y007371D03*
X013796Y007353D03*
X013796Y007335D03*
X013796Y007316D03*
X013796Y007307D03*
X013604Y007307D03*
X013604Y007316D03*
X013604Y007380D03*
X013604Y007398D03*
X013504Y007398D03*
X013504Y007435D03*
X013504Y007444D03*
X013504Y007335D03*
X013504Y007316D03*
X013504Y007307D03*
X013504Y007289D03*
X013504Y007271D03*
X013504Y007252D03*
X013339Y007335D03*
X013339Y007380D03*
X012938Y007462D03*
X012910Y007380D03*
X012901Y007353D03*
X012892Y007335D03*
X012783Y007398D03*
X012764Y007444D03*
X012600Y007398D03*
X012600Y007380D03*
X012600Y007371D03*
X012600Y007353D03*
X012600Y007335D03*
X012600Y007316D03*
X012600Y007307D03*
X012600Y007289D03*
X012600Y007271D03*
X012600Y007252D03*
X012345Y007271D03*
X012308Y007307D03*
X012345Y007435D03*
X012290Y007481D03*
X013129Y008019D03*
X013166Y008001D03*
X013330Y008274D03*
X013321Y008284D03*
X013303Y008302D03*
X013285Y008320D03*
X013111Y008749D03*
X013111Y008758D03*
X013111Y008776D03*
X013066Y009050D03*
X013321Y009205D03*
X013339Y009223D03*
X013348Y009233D03*
X013640Y008877D03*
X013814Y009077D03*
X013841Y009059D03*
X014079Y009269D03*
X014142Y009223D03*
X014161Y009205D03*
X014206Y008649D03*
X012828Y008649D03*
X012828Y008667D03*
X012828Y008630D03*
X014754Y007289D03*
X014900Y007271D03*
X014918Y007289D03*
X014927Y007316D03*
X014927Y007335D03*
X014927Y007353D03*
X014927Y007371D03*
X014927Y007380D03*
X014918Y007398D03*
D356*
X014895Y007435D03*
X014831Y007481D03*
X014293Y007316D03*
X014275Y007289D03*
X014147Y007462D03*
X013992Y007243D03*
X013773Y007271D03*
X013627Y007271D03*
X013499Y007380D03*
X012851Y007243D03*
X012605Y007444D03*
X012340Y007444D03*
X012249Y007444D03*
X012258Y007353D03*
X012294Y007316D03*
X013335Y008685D03*
X013508Y008840D03*
X013171Y009114D03*
X014074Y008220D03*
X014101Y008238D03*
D357*
X014348Y007353D03*
X014831Y007252D03*
X013700Y007252D03*
X013161Y007243D03*
X012294Y007252D03*
D358*
X012326Y007289D03*
X012235Y007380D03*
X012235Y007435D03*
X012454Y007252D03*
X012454Y007243D03*
X012792Y007371D03*
X012883Y007307D03*
X012929Y007435D03*
X012929Y007444D03*
X013230Y007444D03*
X013230Y007435D03*
X013230Y007462D03*
X013230Y007398D03*
X013230Y007380D03*
X013230Y007371D03*
X013230Y007353D03*
X013230Y007335D03*
X013230Y007316D03*
X013230Y007307D03*
X013230Y007289D03*
X013230Y007271D03*
X013613Y007289D03*
X013786Y007289D03*
X014042Y007316D03*
X014088Y007380D03*
X014653Y007380D03*
X014653Y007398D03*
X014653Y007435D03*
X014653Y007335D03*
X014653Y007316D03*
X014653Y007307D03*
X014653Y007289D03*
X014653Y007271D03*
X013704Y008758D03*
X013786Y009096D03*
X014179Y009187D03*
X013102Y009077D03*
X013093Y008046D03*
D359*
X013741Y008110D03*
X014343Y007462D03*
X014590Y007444D03*
X014590Y007371D03*
X014590Y007353D03*
X012290Y007243D03*
D360*
X014334Y007444D03*
X014580Y007252D03*
D361*
X014767Y007271D03*
X014767Y007435D03*
X014266Y007435D03*
X014266Y007380D03*
X014266Y007271D03*
X014256Y007252D03*
X013755Y008001D03*
X014056Y008211D03*
X014266Y008384D03*
X014266Y008393D03*
X013755Y009114D03*
X013736Y009123D03*
X014047Y009287D03*
X013134Y009096D03*
X013107Y008731D03*
X013107Y008712D03*
X012669Y007398D03*
X012276Y007335D03*
D362*
X013102Y008685D03*
X013102Y008694D03*
X013394Y009269D03*
X013440Y009296D03*
X013996Y009315D03*
X014033Y009296D03*
X013878Y008877D03*
X014142Y008630D03*
X014142Y007444D03*
X013996Y007252D03*
D363*
X013166Y007252D03*
D364*
X014886Y007262D03*
D365*
X014781Y007262D03*
X013996Y007262D03*
D366*
X014590Y007262D03*
X014590Y007344D03*
D367*
X014412Y007262D03*
X013983Y007344D03*
X013599Y007344D03*
X013335Y007262D03*
X012897Y007344D03*
X012805Y007344D03*
X013034Y008101D03*
X013171Y008484D03*
X013125Y008639D03*
X013380Y008722D03*
X013599Y008639D03*
X013672Y008722D03*
X013627Y008868D03*
X013882Y009023D03*
X014220Y008868D03*
X014293Y009023D03*
X014247Y009105D03*
X013034Y009023D03*
D368*
X013230Y007344D03*
X014261Y007262D03*
D369*
X014152Y007262D03*
X014152Y007344D03*
X014060Y007344D03*
X013796Y007344D03*
X013504Y007262D03*
X013805Y008028D03*
X013120Y008028D03*
X012828Y008639D03*
X012600Y007344D03*
X012600Y007262D03*
X014188Y009178D03*
X014927Y007344D03*
D370*
X013755Y007262D03*
X013645Y007262D03*
X012851Y007262D03*
D371*
X013171Y007262D03*
D372*
X012454Y007262D03*
X012929Y008028D03*
X013056Y008566D03*
X013139Y008566D03*
X014215Y008338D03*
X014307Y008484D03*
D373*
X012294Y007262D03*
D374*
X012847Y007271D03*
X013650Y007444D03*
X013750Y007444D03*
X014006Y007289D03*
X014288Y007371D03*
X014882Y007444D03*
X013887Y008649D03*
X013494Y008174D03*
X013394Y008220D03*
D375*
X013312Y008293D03*
X013056Y009041D03*
X013093Y009068D03*
X013358Y009242D03*
X013832Y009068D03*
X014170Y009196D03*
X014088Y008229D03*
X014261Y007426D03*
X014261Y007389D03*
X014051Y007325D03*
X013786Y007298D03*
X013786Y007408D03*
X013613Y007408D03*
X013230Y007408D03*
X013230Y007426D03*
X013230Y007453D03*
X013230Y007389D03*
X013230Y007362D03*
X013230Y007325D03*
X013230Y007298D03*
X013230Y007280D03*
X012929Y007426D03*
X014653Y007426D03*
X014653Y007408D03*
X014653Y007389D03*
X014653Y007325D03*
X014653Y007298D03*
X014653Y007280D03*
X014909Y007280D03*
X014909Y007426D03*
D376*
X014133Y007426D03*
X014006Y007280D03*
X013385Y008229D03*
X012618Y007426D03*
X012290Y007471D03*
X013668Y009150D03*
X013494Y009324D03*
X013978Y009324D03*
D377*
X014092Y009260D03*
X013408Y009278D03*
X013107Y008740D03*
X012833Y008676D03*
X013362Y008247D03*
X013180Y007992D03*
X013736Y007992D03*
X013618Y007426D03*
X013609Y007298D03*
X013618Y007280D03*
X014302Y007325D03*
X012285Y007325D03*
D378*
X012851Y007280D03*
X013262Y007964D03*
X013517Y008165D03*
X014129Y007408D03*
X014010Y007298D03*
D379*
X014015Y007307D03*
X013640Y009160D03*
X013330Y009169D03*
D380*
X012358Y007389D03*
X014749Y007325D03*
D381*
X014357Y007344D03*
D382*
X013421Y007344D03*
D383*
X012267Y007344D03*
X013152Y009105D03*
X013773Y009105D03*
D384*
X013421Y007371D03*
X013421Y007353D03*
D385*
X012796Y007353D03*
X013873Y009032D03*
D386*
X014590Y007362D03*
D387*
X014339Y007362D03*
X014339Y007453D03*
D388*
X013421Y007362D03*
D389*
X012796Y007362D03*
X013399Y008740D03*
D390*
X013152Y008530D03*
X012851Y008420D03*
X012851Y008402D03*
X012860Y008375D03*
X012869Y008357D03*
X012952Y008119D03*
X012942Y008074D03*
X012915Y007964D03*
X012906Y007928D03*
X012897Y007882D03*
X013463Y008119D03*
X013517Y008055D03*
X013992Y008229D03*
X014028Y008293D03*
X014037Y008311D03*
X014056Y008357D03*
X014065Y008375D03*
X014074Y008402D03*
X014074Y008420D03*
X014275Y008357D03*
X014339Y008594D03*
X014357Y008740D03*
X014357Y008767D03*
X014357Y008785D03*
X013882Y007663D03*
X014749Y007389D03*
X012851Y008703D03*
X012860Y008740D03*
X012869Y008767D03*
X012805Y008740D03*
X012805Y008703D03*
X012787Y008895D03*
X012778Y008959D03*
X012769Y009041D03*
X012769Y009068D03*
D391*
X013923Y009342D03*
X013951Y008165D03*
X014124Y007389D03*
D392*
X014124Y007398D03*
X013923Y008156D03*
D393*
X014831Y007471D03*
X012632Y007408D03*
D394*
X013353Y008256D03*
X014914Y007417D03*
D395*
X014754Y007417D03*
X014252Y007417D03*
X013504Y007417D03*
X012920Y007417D03*
X014124Y008256D03*
X014279Y008411D03*
X014106Y009251D03*
D396*
X013786Y007417D03*
X013613Y007417D03*
X013230Y007417D03*
X014653Y007417D03*
D397*
X014412Y007417D03*
X013983Y007417D03*
X013335Y007417D03*
X012778Y007417D03*
X012358Y007417D03*
X012231Y007417D03*
X013116Y008795D03*
X013453Y008795D03*
D398*
X013951Y009333D03*
X014133Y007417D03*
D399*
X012623Y007417D03*
X013517Y009333D03*
D400*
X013421Y009287D03*
X013339Y008694D03*
X013376Y008238D03*
X013212Y007982D03*
X013677Y007973D03*
X013631Y007435D03*
X013768Y007435D03*
X012609Y007435D03*
D401*
X013102Y008676D03*
X013102Y008703D03*
X014015Y009306D03*
X014133Y008895D03*
X014261Y008375D03*
X014142Y007453D03*
D402*
X012290Y007453D03*
D403*
X012290Y007462D03*
D404*
X014580Y007471D03*
D405*
X013700Y007471D03*
D406*
X013882Y008147D03*
X014576Y007481D03*
X013599Y009169D03*
X013891Y009351D03*
D407*
X013974Y008174D03*
X013408Y008211D03*
X014357Y007481D03*
D408*
X013910Y007636D03*
X013536Y008037D03*
X013526Y008046D03*
X014001Y008238D03*
X014047Y008329D03*
X014083Y008448D03*
X014083Y008457D03*
X014083Y008475D03*
X014083Y008493D03*
X014092Y008539D03*
X014092Y008557D03*
X014266Y008329D03*
X014266Y008320D03*
X014256Y008284D03*
X014348Y008858D03*
X013526Y008877D03*
X013317Y008649D03*
X013143Y008557D03*
X012833Y008539D03*
X012833Y008521D03*
X012842Y008475D03*
X012842Y008457D03*
X012842Y008448D03*
X012879Y008329D03*
X012924Y008238D03*
X012970Y008192D03*
X012933Y008046D03*
X012933Y008037D03*
X012924Y008001D03*
X012888Y007846D03*
X012879Y007809D03*
X012933Y007481D03*
X012760Y007481D03*
X013225Y007481D03*
X012796Y008776D03*
X012796Y008813D03*
X012796Y008822D03*
X012888Y008813D03*
X013134Y008904D03*
X013143Y008931D03*
X012760Y009096D03*
X012760Y009114D03*
X012760Y009123D03*
X012760Y009141D03*
X012751Y009160D03*
X012751Y009169D03*
X012751Y009187D03*
X012751Y009205D03*
D409*
X012933Y008211D03*
X012596Y007481D03*
X014056Y008858D03*
D410*
X014261Y008703D03*
X014088Y008530D03*
X014088Y008503D03*
X014215Y008138D03*
X014215Y008119D03*
X013786Y007773D03*
X013704Y007864D03*
X013914Y007627D03*
X012883Y007818D03*
X012837Y007627D03*
X012883Y008311D03*
X013011Y008357D03*
X013011Y008375D03*
X012837Y008503D03*
X012883Y008804D03*
X012929Y008895D03*
X013613Y008831D03*
X014261Y009087D03*
D411*
X014065Y008868D03*
X014357Y008722D03*
X013891Y008101D03*
X013545Y008028D03*
X013901Y007645D03*
X012860Y007727D03*
X012805Y008722D03*
X012769Y009023D03*
D412*
X012760Y009105D03*
X012751Y009178D03*
X013234Y009105D03*
X012842Y008484D03*
X012879Y007800D03*
X012842Y007645D03*
X014047Y008338D03*
X014083Y008484D03*
X014092Y008566D03*
X014348Y008639D03*
D413*
X014334Y008566D03*
X014270Y008722D03*
X014343Y008868D03*
X013987Y008868D03*
X013987Y008722D03*
X013777Y008722D03*
X013777Y008639D03*
X013777Y008868D03*
X013522Y008868D03*
X013175Y009023D03*
X013129Y008868D03*
X012910Y008868D03*
X012856Y008722D03*
X012828Y008566D03*
X013038Y008484D03*
X013002Y008338D03*
X012874Y008338D03*
X012965Y008183D03*
X012947Y008101D03*
X013403Y008183D03*
X013476Y008101D03*
X013759Y007800D03*
X013823Y007727D03*
X014188Y008028D03*
X014206Y008101D03*
X014234Y008183D03*
X014270Y008338D03*
X013075Y008639D03*
D414*
X013134Y008594D03*
X012833Y008548D03*
X012833Y008530D03*
X012842Y008466D03*
X012924Y008229D03*
X013006Y008138D03*
X012924Y008010D03*
X012924Y007992D03*
X012888Y007836D03*
X012796Y008785D03*
X012796Y008804D03*
X012760Y009087D03*
X012760Y009132D03*
X012751Y009196D03*
X012751Y009214D03*
X013134Y008913D03*
X014083Y008466D03*
X014092Y008548D03*
X014266Y008311D03*
X014256Y008293D03*
X014001Y008247D03*
D415*
X014252Y008256D03*
X013695Y007873D03*
X013212Y008411D03*
X013020Y008411D03*
X012983Y008256D03*
X012910Y008256D03*
X012892Y007873D03*
X013148Y008950D03*
X013631Y008795D03*
X013777Y008795D03*
X013987Y008795D03*
X013951Y008950D03*
X014270Y008795D03*
X014352Y008795D03*
X014325Y008950D03*
D416*
X013453Y007928D03*
D417*
X013444Y007937D03*
D418*
X013421Y007946D03*
D419*
X013613Y007955D03*
D420*
X013554Y007955D03*
X012915Y007955D03*
X012851Y008411D03*
X012778Y008950D03*
X014074Y008411D03*
D421*
X013303Y007955D03*
D422*
X013914Y008119D03*
X013531Y008658D03*
X013531Y008676D03*
X013531Y008703D03*
X013531Y008740D03*
X013531Y008767D03*
X013531Y008785D03*
X013531Y008804D03*
X013531Y008831D03*
X013312Y008831D03*
X013312Y008849D03*
X013312Y008804D03*
X013312Y008785D03*
X013312Y008767D03*
X013312Y008740D03*
X013312Y008703D03*
X012801Y008767D03*
X012792Y008831D03*
X012792Y008849D03*
X012755Y009150D03*
X013951Y008941D03*
D423*
X013732Y008119D03*
D424*
X013727Y008128D03*
D425*
X013727Y008138D03*
D426*
X013969Y008211D03*
X014088Y008576D03*
X013951Y008931D03*
X013531Y008886D03*
X013531Y008822D03*
X013531Y008813D03*
X013531Y008776D03*
X013531Y008758D03*
X013531Y008749D03*
X013531Y008731D03*
X013531Y008712D03*
X013531Y008694D03*
X013531Y008685D03*
X013531Y008667D03*
X013531Y008649D03*
X013312Y008712D03*
X013312Y008731D03*
X013312Y008749D03*
X013312Y008758D03*
X013312Y008776D03*
X013312Y008813D03*
X013312Y008822D03*
X013312Y008840D03*
X013312Y008858D03*
X013312Y008877D03*
X013312Y008886D03*
X012792Y008858D03*
X012792Y008840D03*
X012801Y008758D03*
X012764Y009077D03*
X012746Y009223D03*
X012929Y008220D03*
X013002Y008147D03*
D427*
X013435Y008192D03*
X013545Y008156D03*
D428*
X013476Y008183D03*
X013996Y008183D03*
D429*
X014037Y008201D03*
X013718Y009132D03*
X013453Y009306D03*
X013262Y009150D03*
X013216Y009132D03*
D430*
X013421Y008201D03*
D431*
X014010Y008256D03*
X012879Y008795D03*
X012796Y008795D03*
D432*
X013271Y008338D03*
D433*
X014142Y008639D03*
D434*
X013923Y008639D03*
D435*
X013531Y008639D03*
X013531Y008722D03*
X013312Y008722D03*
X013312Y008639D03*
X013312Y008868D03*
X012792Y008868D03*
D436*
X012783Y008913D03*
X012783Y008941D03*
X012774Y008977D03*
X012774Y009004D03*
X014060Y008658D03*
D437*
X013248Y009114D03*
X013285Y009187D03*
X012774Y008995D03*
X012774Y008986D03*
X012774Y008968D03*
X012783Y008931D03*
X012783Y008922D03*
X012783Y008904D03*
X012810Y008694D03*
X012810Y008685D03*
D438*
X013107Y008722D03*
D439*
X013928Y008767D03*
D440*
X013727Y008767D03*
D441*
X013531Y008795D03*
X013312Y008795D03*
D442*
X014133Y008886D03*
D443*
X013923Y008886D03*
X013714Y008886D03*
D444*
X012970Y008950D03*
D445*
X013476Y009178D03*
D446*
X013472Y009187D03*
D447*
X013371Y009251D03*
D448*
X013545Y009342D03*
D449*
X013262Y009360D03*
D450*
X013244Y009369D03*
D451*
X013230Y009379D03*
D452*
X013198Y009388D03*
D453*
X009889Y006825D03*
D454*
X009473Y006825D03*
D455*
X008894Y006825D03*
X008454Y006825D03*
D456*
X008534Y006906D03*
X008534Y006912D03*
X008534Y006924D03*
X008534Y006930D03*
X008534Y006974D03*
X008534Y006986D03*
X008534Y006992D03*
X008702Y006992D03*
X008702Y006986D03*
X008702Y006974D03*
X008702Y006968D03*
X008702Y006961D03*
X008702Y006955D03*
X008702Y006943D03*
X008702Y006937D03*
X008702Y006930D03*
X008702Y006924D03*
X008702Y006912D03*
X008702Y006906D03*
X008702Y006899D03*
X008702Y006893D03*
X008702Y006881D03*
X008702Y006875D03*
X008702Y006868D03*
X008702Y006862D03*
X008702Y006850D03*
X008702Y006844D03*
X008702Y006837D03*
X008702Y006831D03*
X008702Y007054D03*
X008702Y007061D03*
X008702Y007067D03*
X008894Y007302D03*
X008894Y007309D03*
X008894Y007315D03*
X008894Y007321D03*
X008894Y007333D03*
X008894Y007340D03*
X008894Y007346D03*
X008894Y007352D03*
X008894Y007364D03*
X008894Y007371D03*
X008894Y007377D03*
X008894Y007383D03*
X008894Y007395D03*
X008894Y007402D03*
X008894Y007408D03*
X008894Y007414D03*
X008894Y007420D03*
X008894Y007433D03*
X008894Y007439D03*
X008894Y007445D03*
X008894Y007451D03*
X008987Y007377D03*
X008987Y007371D03*
X008987Y007364D03*
X008987Y007352D03*
X008987Y007346D03*
X008987Y007340D03*
X008987Y007333D03*
X008987Y007321D03*
X008987Y007315D03*
X008987Y007309D03*
X008987Y007302D03*
X009216Y007290D03*
X009216Y007284D03*
X009297Y007216D03*
X009384Y007166D03*
X009384Y007160D03*
X009384Y007154D03*
X009384Y007147D03*
X009384Y007135D03*
X009384Y007129D03*
X009384Y007123D03*
X009384Y007116D03*
X009384Y007104D03*
X009384Y007098D03*
X009384Y007092D03*
X009384Y007085D03*
X009384Y007073D03*
X009384Y007067D03*
X009384Y007061D03*
X009384Y007054D03*
X009384Y006974D03*
X009384Y006968D03*
X009384Y006961D03*
X009384Y006955D03*
X009384Y006943D03*
X009384Y006937D03*
X009384Y006930D03*
X009384Y006924D03*
X009384Y006850D03*
X009384Y006844D03*
X009384Y006837D03*
X009384Y006831D03*
X009297Y007030D03*
X009297Y007036D03*
X009191Y006961D03*
X009061Y006906D03*
X009061Y006899D03*
X009049Y006937D03*
X009049Y006943D03*
X009036Y006986D03*
X009036Y006992D03*
X009024Y007023D03*
X009024Y007030D03*
X009012Y007067D03*
X009086Y006837D03*
X009086Y006831D03*
X009359Y007377D03*
X009359Y007383D03*
X009359Y007395D03*
X009359Y007402D03*
X009706Y007377D03*
X009706Y007371D03*
X009706Y007364D03*
X009706Y007352D03*
X009706Y007346D03*
X009706Y007340D03*
X009706Y007333D03*
X009706Y007321D03*
X009706Y007315D03*
X009706Y007309D03*
X009706Y007302D03*
X009706Y007290D03*
X009706Y007284D03*
X009706Y007278D03*
X009706Y007271D03*
X009706Y007259D03*
X009706Y007253D03*
X009706Y007247D03*
X009706Y007240D03*
X009706Y007228D03*
X009706Y007222D03*
X009799Y007364D03*
X009706Y007433D03*
X009706Y007439D03*
X009706Y007445D03*
X009706Y007451D03*
X009942Y007395D03*
X009954Y007364D03*
X009954Y007315D03*
X010183Y007315D03*
X010183Y007321D03*
X010183Y007333D03*
X010183Y007340D03*
X010183Y007346D03*
X010183Y007352D03*
X010183Y007364D03*
X010183Y007309D03*
X010183Y007228D03*
X010183Y007222D03*
X010183Y007216D03*
X010183Y007209D03*
X010183Y007197D03*
X010183Y007191D03*
X010183Y007185D03*
X010183Y007178D03*
X010183Y007166D03*
X010183Y007160D03*
X010183Y007154D03*
X010183Y007147D03*
X010183Y007135D03*
X010183Y007129D03*
X010183Y007123D03*
X010183Y007116D03*
X010183Y007104D03*
X010183Y007098D03*
X010183Y007092D03*
X010183Y007085D03*
X010183Y007073D03*
X010183Y007067D03*
X010183Y007061D03*
X010183Y007054D03*
X010183Y006974D03*
X010183Y006968D03*
X010183Y006961D03*
X010183Y006955D03*
X010183Y006943D03*
X010183Y006937D03*
X010183Y006930D03*
X010183Y006924D03*
X010183Y006912D03*
X010183Y006906D03*
X010183Y006899D03*
X010183Y006893D03*
X010183Y006881D03*
X010183Y006875D03*
X010183Y006868D03*
X010183Y006862D03*
X010183Y006850D03*
X010183Y006844D03*
X010183Y006837D03*
X010183Y006831D03*
X009954Y006893D03*
X009954Y006899D03*
X010276Y007302D03*
X010276Y007309D03*
X010276Y007315D03*
X010276Y007321D03*
X010276Y007333D03*
X010276Y007340D03*
X010276Y007346D03*
X010276Y007352D03*
X010276Y007364D03*
X010276Y007371D03*
X010276Y007377D03*
X010183Y007439D03*
X010183Y007445D03*
X010183Y007451D03*
X008261Y007383D03*
X008261Y007290D03*
X008261Y007284D03*
X008119Y007371D03*
X008119Y007377D03*
X008119Y007383D03*
D457*
X008255Y007402D03*
X008268Y007377D03*
X008268Y007371D03*
X008268Y007364D03*
X008268Y007315D03*
X008268Y007309D03*
X008268Y007302D03*
X008342Y007408D03*
X008478Y007371D03*
X008478Y007364D03*
X008478Y007352D03*
X008478Y007321D03*
X008478Y007315D03*
X008478Y007309D03*
X008478Y007302D03*
X008745Y007309D03*
X008745Y007315D03*
X008745Y007321D03*
X008745Y007333D03*
X008745Y007340D03*
X008745Y007346D03*
X008745Y007352D03*
X008745Y007364D03*
X008745Y007371D03*
X008745Y007377D03*
X008745Y007383D03*
X008745Y007395D03*
X008745Y007402D03*
X008745Y007408D03*
X008745Y007414D03*
X008745Y007420D03*
X008745Y007433D03*
X008745Y007439D03*
X008745Y007445D03*
X008745Y007451D03*
X008745Y007228D03*
X008745Y007222D03*
X008807Y007005D03*
X008807Y006999D03*
X008807Y006992D03*
X008807Y006986D03*
X008807Y006974D03*
X008807Y006930D03*
X008807Y006924D03*
X008807Y006912D03*
X008807Y006906D03*
X008807Y006899D03*
X008807Y006844D03*
X008807Y006837D03*
X008807Y006831D03*
X008956Y006893D03*
X008956Y006899D03*
X008956Y006906D03*
X008956Y006912D03*
X009043Y006961D03*
X009043Y006968D03*
X009043Y006974D03*
X009030Y006999D03*
X009030Y007005D03*
X009055Y006924D03*
X009111Y006912D03*
X009117Y006930D03*
X009210Y006899D03*
X009260Y006912D03*
X009266Y006930D03*
X009266Y006937D03*
X009272Y006955D03*
X009272Y006961D03*
X009278Y006968D03*
X009278Y006974D03*
X009284Y006986D03*
X009284Y006992D03*
X009284Y006999D03*
X009291Y007017D03*
X009303Y007054D03*
X009303Y007061D03*
X009160Y007054D03*
X009235Y006831D03*
X009532Y006924D03*
X009532Y006930D03*
X009532Y006937D03*
X009532Y006943D03*
X009532Y006955D03*
X009532Y006961D03*
X009532Y006968D03*
X009532Y006974D03*
X009700Y006974D03*
X009700Y006968D03*
X009700Y006961D03*
X009700Y006955D03*
X009700Y006943D03*
X009700Y006937D03*
X009700Y006930D03*
X009700Y006924D03*
X009700Y006912D03*
X009700Y006906D03*
X009700Y006899D03*
X009700Y006893D03*
X009700Y006881D03*
X009700Y006875D03*
X009700Y006868D03*
X009700Y006862D03*
X009700Y006850D03*
X009700Y006844D03*
X009700Y006837D03*
X009700Y006831D03*
X009805Y006831D03*
X009805Y006837D03*
X009805Y006844D03*
X009805Y006893D03*
X009805Y006899D03*
X009805Y006906D03*
X009805Y006912D03*
X009805Y006924D03*
X009805Y006930D03*
X009805Y006974D03*
X009805Y006986D03*
X009805Y006992D03*
X009805Y006999D03*
X009805Y007005D03*
X009700Y007054D03*
X009700Y007061D03*
X009700Y007067D03*
X009948Y006881D03*
X010035Y006881D03*
X010035Y006875D03*
X010035Y006868D03*
X010035Y006862D03*
X010035Y006850D03*
X010035Y006844D03*
X010035Y006837D03*
X010035Y006831D03*
X010035Y006893D03*
X010035Y006899D03*
X010035Y006906D03*
X010035Y006912D03*
X010035Y006924D03*
X010035Y006930D03*
X010035Y006937D03*
X010035Y006943D03*
X010035Y006955D03*
X010035Y006961D03*
X010035Y006968D03*
X010035Y006974D03*
X010041Y007284D03*
X010041Y007290D03*
X010035Y007315D03*
X010035Y007321D03*
X010035Y007333D03*
X010035Y007340D03*
X010035Y007346D03*
X010035Y007352D03*
X010041Y007383D03*
X009948Y007383D03*
X009948Y007377D03*
X009948Y007371D03*
X009948Y007290D03*
X009563Y007383D03*
X009136Y007377D03*
X009136Y007371D03*
X009136Y007364D03*
X009136Y007352D03*
X009136Y007321D03*
X009136Y007315D03*
X009136Y007309D03*
X009136Y007302D03*
X008528Y007005D03*
X008528Y006999D03*
X008528Y006899D03*
X008528Y006893D03*
X008385Y006974D03*
X008385Y006986D03*
X008385Y006992D03*
X010425Y007302D03*
X010425Y007309D03*
X010425Y007315D03*
X010425Y007364D03*
X010425Y007371D03*
X010425Y007377D03*
D458*
X010094Y007451D03*
X010094Y007222D03*
X010056Y007023D03*
X009876Y007067D03*
X009684Y007023D03*
X009889Y006831D03*
X009399Y006875D03*
X009399Y007023D03*
X009232Y006881D03*
X009157Y007005D03*
X009356Y007259D03*
X008835Y007222D03*
X008686Y007023D03*
X008556Y007451D03*
X008717Y007681D03*
X009827Y007681D03*
D459*
X009697Y007402D03*
X009350Y007414D03*
X009350Y007364D03*
X009232Y007259D03*
X009120Y007408D03*
X009002Y007408D03*
X008754Y007271D03*
X008692Y007017D03*
X008513Y007023D03*
X008407Y007023D03*
X008513Y006875D03*
X008463Y007271D03*
X008463Y007402D03*
X008140Y007414D03*
X009157Y007023D03*
X009083Y006862D03*
X009232Y006862D03*
X009393Y006881D03*
X009473Y006831D03*
X009517Y006875D03*
X010050Y007017D03*
X010174Y007271D03*
X010174Y007402D03*
X010292Y007408D03*
X010410Y007408D03*
X010050Y007408D03*
D460*
X010059Y007414D03*
X010059Y007259D03*
X010097Y007061D03*
X009873Y007451D03*
X009588Y007414D03*
X009613Y007061D03*
X009477Y007061D03*
X009235Y006893D03*
X009086Y006893D03*
X008894Y006831D03*
X008881Y007067D03*
X008869Y007259D03*
X009061Y007451D03*
X008615Y007061D03*
X008454Y006831D03*
X008193Y007451D03*
X009824Y009088D03*
D461*
X008556Y007439D03*
X008562Y007433D03*
X009294Y007222D03*
X009474Y007054D03*
X009889Y006837D03*
X010094Y007054D03*
D462*
X010162Y007259D03*
X010162Y007414D03*
X009684Y007414D03*
X009473Y006837D03*
X009064Y007222D03*
X008395Y007222D03*
X008395Y007451D03*
D463*
X008469Y007395D03*
X008481Y007346D03*
X008481Y007340D03*
X008481Y007333D03*
X008469Y007284D03*
X008469Y007278D03*
X008395Y007216D03*
X008258Y007278D03*
X008184Y007216D03*
X008116Y007364D03*
X008128Y007402D03*
X008258Y007395D03*
X008389Y007005D03*
X008389Y006999D03*
X008389Y006968D03*
X008519Y007017D03*
X008531Y006968D03*
X008519Y006881D03*
X008699Y006999D03*
X008699Y007005D03*
X008946Y006924D03*
X008946Y006875D03*
X009083Y006844D03*
X009232Y006844D03*
X009232Y006837D03*
X009387Y006899D03*
X009387Y006906D03*
X009387Y006912D03*
X009387Y006986D03*
X009387Y006992D03*
X009387Y006999D03*
X009294Y007023D03*
X009300Y007042D03*
X009306Y007067D03*
X009157Y007042D03*
X009027Y007017D03*
X009021Y007036D03*
X009021Y007042D03*
X009015Y007054D03*
X009015Y007061D03*
X009064Y007216D03*
X008996Y007278D03*
X008990Y007284D03*
X008990Y007290D03*
X008990Y007383D03*
X008996Y007395D03*
X008891Y007290D03*
X008891Y007284D03*
X008748Y007284D03*
X008748Y007290D03*
X008748Y007302D03*
X008717Y007668D03*
X009139Y007346D03*
X009139Y007340D03*
X009139Y007333D03*
X009219Y007302D03*
X009219Y007278D03*
X009219Y007271D03*
X009238Y007414D03*
X009356Y007408D03*
X009356Y007371D03*
X009566Y007395D03*
X009703Y007383D03*
X009802Y007383D03*
X009802Y007377D03*
X009802Y007371D03*
X009808Y007395D03*
X009939Y007402D03*
X009951Y007309D03*
X009951Y007302D03*
X009945Y007284D03*
X009945Y007278D03*
X009939Y007271D03*
X010044Y007278D03*
X010044Y007395D03*
X010180Y007383D03*
X010180Y007377D03*
X010180Y007371D03*
X010180Y007302D03*
X010180Y007290D03*
X010180Y007284D03*
X010279Y007284D03*
X010279Y007290D03*
X010286Y007278D03*
X010354Y007216D03*
X010422Y007284D03*
X010422Y007290D03*
X010428Y007321D03*
X010428Y007333D03*
X010428Y007340D03*
X010428Y007346D03*
X010428Y007352D03*
X010422Y007383D03*
X010286Y007395D03*
X010279Y007383D03*
X010094Y007067D03*
X010180Y006999D03*
X010180Y006992D03*
X010180Y006986D03*
X009945Y006924D03*
X009945Y006875D03*
X009808Y006881D03*
X009808Y006968D03*
X009808Y007017D03*
X009697Y006999D03*
X009697Y006992D03*
X009697Y006986D03*
X009610Y007067D03*
X009529Y006999D03*
X009529Y006992D03*
X009529Y006986D03*
X009523Y007005D03*
X009474Y007067D03*
X009529Y006912D03*
X009529Y006906D03*
X009529Y006899D03*
X009827Y007668D03*
X009827Y009100D03*
X008717Y009100D03*
D464*
X009824Y007693D03*
X009873Y007445D03*
X009619Y007439D03*
X009061Y007445D03*
X009061Y007228D03*
X008894Y006837D03*
X008454Y006837D03*
X008193Y007445D03*
X010351Y007445D03*
X010351Y007228D03*
D465*
X009867Y007228D03*
X009619Y007433D03*
X009470Y006850D03*
X009892Y006844D03*
X008187Y007228D03*
D466*
X008457Y007054D03*
X009474Y006844D03*
X009876Y007061D03*
X010094Y007439D03*
D467*
X008897Y006844D03*
X008395Y007228D03*
X008395Y007445D03*
X008723Y009076D03*
X009821Y009076D03*
D468*
X010351Y007439D03*
X009061Y007439D03*
X008454Y006844D03*
D469*
X008395Y007253D03*
X008395Y007420D03*
X008810Y007240D03*
X008872Y006943D03*
X008872Y006850D03*
X009870Y006850D03*
X009870Y006943D03*
X009870Y007253D03*
D470*
X009867Y007216D03*
X009818Y007408D03*
X009935Y007408D03*
X009700Y007395D03*
X009520Y007017D03*
X009390Y007005D03*
X009390Y006893D03*
X009520Y006881D03*
X009235Y006850D03*
X009160Y007030D03*
X009160Y007036D03*
X009222Y007309D03*
X008888Y007278D03*
X008398Y007017D03*
X008255Y007271D03*
X008137Y007259D03*
X008125Y007395D03*
X008243Y007414D03*
X010177Y007395D03*
X010177Y007278D03*
X010413Y007271D03*
X010413Y007402D03*
X010177Y007005D03*
D471*
X010041Y007005D03*
X009811Y007023D03*
X009694Y007005D03*
X009811Y006875D03*
X009526Y006893D03*
X009086Y006850D03*
X008813Y006875D03*
X008813Y007017D03*
X008819Y007023D03*
X008615Y007067D03*
X008460Y007067D03*
X008751Y007278D03*
X008881Y007271D03*
X008999Y007271D03*
X009123Y007271D03*
X009129Y007278D03*
X009129Y007395D03*
X009123Y007402D03*
X008999Y007402D03*
X008987Y007755D03*
X008640Y007395D03*
X008249Y007408D03*
X008131Y007408D03*
X009570Y007402D03*
X009811Y007402D03*
X009824Y007259D03*
X010047Y007271D03*
X010047Y007402D03*
X010289Y007402D03*
X010419Y007395D03*
X010419Y007278D03*
X010289Y007271D03*
X009557Y007755D03*
D472*
X009288Y007439D03*
X009288Y007340D03*
X009647Y007042D03*
X009858Y006961D03*
X009870Y007240D03*
X008860Y006961D03*
X008450Y006850D03*
X008395Y007240D03*
X008395Y007433D03*
D473*
X008261Y007389D03*
X008702Y007048D03*
X008702Y006949D03*
X008702Y006918D03*
X008702Y006887D03*
X008702Y006856D03*
X008534Y006918D03*
X009049Y006949D03*
X009384Y006949D03*
X009384Y007048D03*
X009384Y007079D03*
X009384Y007110D03*
X009359Y007389D03*
X009706Y007358D03*
X009706Y007327D03*
X009706Y007265D03*
X009706Y007234D03*
X009799Y007358D03*
X009954Y007358D03*
X010183Y007358D03*
X010183Y007327D03*
X010183Y007234D03*
X010183Y007203D03*
X010183Y007172D03*
X010183Y007110D03*
X010183Y007079D03*
X010183Y007048D03*
X010183Y006949D03*
X010183Y006918D03*
X010183Y006887D03*
X010183Y006856D03*
X010276Y007327D03*
X010276Y007358D03*
X008987Y007358D03*
X008987Y007327D03*
X008894Y007327D03*
X008894Y007358D03*
X008894Y007389D03*
X008894Y007426D03*
D474*
X008745Y007426D03*
X008745Y007389D03*
X008745Y007358D03*
X008745Y007327D03*
X008745Y007234D03*
X008478Y007358D03*
X008342Y007265D03*
X008268Y007358D03*
X008807Y006918D03*
X008956Y006887D03*
X009055Y006918D03*
X009123Y006949D03*
X009160Y007048D03*
X009030Y007011D03*
X009018Y007048D03*
X009272Y006949D03*
X009291Y007011D03*
X009532Y006949D03*
X009532Y006918D03*
X009700Y006918D03*
X009700Y006949D03*
X009700Y006887D03*
X009700Y006856D03*
X009805Y006887D03*
X009805Y006918D03*
X009805Y007011D03*
X009700Y007048D03*
X009948Y006918D03*
X009948Y006887D03*
X010035Y006887D03*
X010035Y006918D03*
X010035Y006949D03*
X010035Y006856D03*
X010035Y007327D03*
X010035Y007358D03*
X010041Y007389D03*
X009805Y007389D03*
X010425Y007358D03*
X009136Y007358D03*
D475*
X009873Y006856D03*
D476*
X009449Y006856D03*
X009641Y007426D03*
X010118Y007426D03*
D477*
X010177Y007011D03*
X009390Y006887D03*
X009235Y006856D03*
X009222Y007265D03*
X008695Y007011D03*
D478*
X008640Y007389D03*
X008249Y007265D03*
X009086Y006856D03*
X009694Y007011D03*
X010047Y007011D03*
D479*
X008875Y006856D03*
D480*
X008450Y006856D03*
X008395Y007426D03*
D481*
X008813Y007253D03*
X008813Y007247D03*
X009297Y007247D03*
X009452Y007036D03*
X009452Y007030D03*
X009452Y006862D03*
X009873Y006862D03*
X009873Y006937D03*
X010115Y007030D03*
X010115Y007036D03*
X010115Y007253D03*
X010115Y007420D03*
X009638Y007420D03*
D482*
X009814Y007724D03*
X008729Y007724D03*
X008878Y006862D03*
X008729Y009045D03*
X009814Y009045D03*
D483*
X009818Y009051D03*
X008726Y009051D03*
X008726Y007718D03*
X009291Y007420D03*
X009297Y007240D03*
X009873Y007036D03*
X009818Y007718D03*
X008454Y006862D03*
X008187Y007253D03*
D484*
X008243Y007259D03*
X008348Y007259D03*
X008348Y007414D03*
X008410Y006868D03*
X008503Y006868D03*
X008937Y006868D03*
X008937Y006930D03*
X009086Y006875D03*
X009086Y006868D03*
X009235Y006868D03*
X009235Y006875D03*
X009160Y007017D03*
X009396Y007017D03*
X009687Y007017D03*
X009818Y006868D03*
X009935Y006868D03*
X009929Y006930D03*
X009576Y007408D03*
X009235Y007315D03*
X008981Y007761D03*
X009563Y007761D03*
D485*
X009455Y006868D03*
D486*
X009083Y006881D03*
X008823Y006868D03*
X009108Y007259D03*
X009108Y007414D03*
X008630Y007408D03*
X010397Y007414D03*
X010397Y007259D03*
D487*
X010093Y007216D03*
X009951Y006912D03*
X009951Y006906D03*
X009263Y006924D03*
X009207Y006912D03*
X009207Y006906D03*
X009201Y006924D03*
X009201Y006930D03*
X009201Y006937D03*
X009195Y006943D03*
X009195Y006955D03*
X009188Y006968D03*
X009188Y006974D03*
X009182Y006986D03*
X009182Y006992D03*
X009139Y006992D03*
X009133Y006986D03*
X009133Y006974D03*
X009120Y006943D03*
X009120Y006937D03*
X009108Y006906D03*
X009108Y006899D03*
X009058Y006912D03*
X009052Y006930D03*
X009046Y006955D03*
X009157Y007061D03*
X008990Y007749D03*
X009554Y007749D03*
X008401Y006875D03*
D488*
X008643Y007222D03*
X008643Y007228D03*
X008643Y007240D03*
X008643Y007247D03*
X008643Y007253D03*
X008643Y007259D03*
X008643Y007271D03*
X008643Y007278D03*
X008643Y007284D03*
X008643Y007290D03*
X008643Y007302D03*
X008643Y007309D03*
X008643Y007315D03*
X008643Y007321D03*
X008643Y007333D03*
X008643Y007340D03*
X008643Y007346D03*
X008643Y007352D03*
X008643Y007364D03*
X008643Y007371D03*
X008643Y007377D03*
X008643Y007383D03*
X008643Y007433D03*
X008643Y007439D03*
X008643Y007445D03*
X008643Y007451D03*
X008475Y007383D03*
X008475Y007377D03*
X008475Y007290D03*
X008810Y006968D03*
X008810Y006893D03*
X008810Y006881D03*
X008953Y006881D03*
X009288Y007005D03*
X009133Y007284D03*
X009133Y007290D03*
X009133Y007383D03*
X009560Y007377D03*
X009560Y007371D03*
X009560Y007364D03*
X009560Y007352D03*
X009560Y007346D03*
X009560Y007340D03*
X009560Y007333D03*
X009560Y007321D03*
X009560Y007315D03*
X009560Y007309D03*
X009560Y007302D03*
X009560Y007290D03*
X009560Y007284D03*
X009560Y007278D03*
X009560Y007271D03*
X009560Y007259D03*
X009560Y007253D03*
X009560Y007247D03*
X009560Y007240D03*
X009560Y007228D03*
X009560Y007222D03*
X010038Y007302D03*
X010038Y007309D03*
X010038Y007364D03*
X010038Y007371D03*
X010038Y007377D03*
X010038Y006999D03*
X010038Y006992D03*
X010038Y006986D03*
D489*
X009926Y007023D03*
X009597Y007023D03*
X009548Y007743D03*
X008996Y007743D03*
X008345Y007402D03*
X008345Y007271D03*
X008401Y006881D03*
D490*
X008525Y006887D03*
X008525Y007011D03*
X008395Y007011D03*
X008481Y007327D03*
X008469Y007389D03*
X008122Y007389D03*
X008116Y007358D03*
X008990Y007389D03*
X009139Y007327D03*
X009362Y007265D03*
X009300Y007048D03*
X009387Y006918D03*
X009523Y006887D03*
X009523Y007011D03*
X009566Y007389D03*
X009703Y007389D03*
X009945Y007389D03*
X010180Y007389D03*
X010279Y007389D03*
X010422Y007389D03*
X010428Y007327D03*
D491*
X009235Y006887D03*
X009086Y006887D03*
D492*
X008953Y006918D03*
X008810Y006887D03*
X008810Y007011D03*
X008643Y007234D03*
X008643Y007265D03*
X008643Y007327D03*
X008643Y007358D03*
X009133Y007389D03*
X009560Y007358D03*
X009560Y007327D03*
X009560Y007265D03*
X009560Y007234D03*
D493*
X009545Y007736D03*
X008398Y006887D03*
D494*
X009114Y006924D03*
X009126Y006955D03*
X009126Y006961D03*
X009126Y006968D03*
X009256Y006906D03*
X009256Y006899D03*
X009269Y006943D03*
D495*
X009263Y006918D03*
X009207Y006918D03*
X009195Y006949D03*
X008134Y007265D03*
D496*
X009114Y006918D03*
D497*
X008875Y006937D03*
D498*
X008460Y006937D03*
X008460Y006943D03*
X008460Y006955D03*
X008460Y006961D03*
X009297Y007253D03*
D499*
X009867Y006949D03*
D500*
X009288Y007426D03*
X008872Y006949D03*
D501*
X008460Y006949D03*
D502*
X008457Y007030D03*
X008866Y006955D03*
X008184Y007247D03*
X009876Y007042D03*
X009864Y006955D03*
X010354Y007253D03*
X010354Y007420D03*
D503*
X010276Y007296D03*
X010183Y007141D03*
X010183Y006980D03*
X009706Y007296D03*
X009384Y007141D03*
X009216Y007296D03*
X009061Y007457D03*
X008987Y007296D03*
X009036Y006980D03*
X008702Y006980D03*
X008534Y006980D03*
D504*
X008475Y007296D03*
X008643Y007296D03*
X009288Y007457D03*
X009560Y007296D03*
X010038Y007296D03*
X010038Y006980D03*
D505*
X009805Y006980D03*
X009700Y006980D03*
X009278Y006980D03*
X009136Y007296D03*
X008807Y006980D03*
X008385Y006980D03*
X008268Y007296D03*
X008193Y007457D03*
X008398Y007457D03*
X009948Y007296D03*
X010351Y007457D03*
X010425Y007296D03*
D506*
X010180Y007296D03*
X009876Y007457D03*
X009529Y006980D03*
X009387Y006980D03*
X008891Y007296D03*
X008748Y007296D03*
D507*
X008556Y007457D03*
X009133Y006980D03*
X009188Y006980D03*
X009622Y007457D03*
X010093Y007457D03*
D508*
X010307Y007414D03*
X010307Y007259D03*
X010165Y007023D03*
X009160Y006999D03*
X009018Y007259D03*
X009018Y007414D03*
X008720Y009088D03*
D509*
X008717Y009094D03*
X009827Y009094D03*
X009827Y007674D03*
X009932Y007265D03*
X010050Y007265D03*
X010292Y007265D03*
X010410Y007265D03*
X009393Y007011D03*
X009120Y007265D03*
X009002Y007265D03*
X008878Y007265D03*
X008717Y007674D03*
D510*
X008757Y007265D03*
X009160Y007011D03*
D511*
X009514Y007023D03*
X009694Y007408D03*
X009619Y007451D03*
X009824Y007414D03*
X010171Y007408D03*
X010171Y007017D03*
D512*
X009926Y007017D03*
X009232Y007402D03*
X008934Y007017D03*
X008537Y007408D03*
X008345Y007395D03*
X008345Y007278D03*
D513*
X009594Y007017D03*
D514*
X008931Y007023D03*
X008832Y007216D03*
X008547Y007414D03*
X008714Y007662D03*
X008714Y009107D03*
D515*
X009830Y009113D03*
X009830Y007656D03*
X009818Y007271D03*
X009365Y007278D03*
X008602Y007023D03*
D516*
X008872Y007030D03*
X008878Y007036D03*
X008878Y007042D03*
X008395Y007247D03*
X008190Y007420D03*
X009288Y007433D03*
X009870Y007247D03*
X009870Y007030D03*
D517*
X009650Y007030D03*
X009650Y007036D03*
X009297Y007346D03*
X009061Y007433D03*
X009061Y007240D03*
X008652Y007036D03*
X008460Y007042D03*
X008596Y007420D03*
X010351Y007433D03*
X010351Y007240D03*
D518*
X008878Y007054D03*
X008655Y007030D03*
X008190Y007433D03*
D519*
X008184Y007240D03*
X008457Y007036D03*
X008649Y007042D03*
X009281Y007333D03*
D520*
X009449Y007042D03*
X010118Y007042D03*
X010118Y007240D03*
X010118Y007247D03*
X010118Y007433D03*
D521*
X010094Y007234D03*
X010094Y007048D03*
X009474Y007048D03*
D522*
X009294Y007234D03*
X008878Y007048D03*
X009876Y007048D03*
X009876Y007426D03*
D523*
X009616Y007048D03*
D524*
X008621Y007048D03*
D525*
X008460Y007048D03*
X009061Y007234D03*
X010351Y007234D03*
D526*
X009876Y007054D03*
X009876Y007433D03*
X009306Y007352D03*
D527*
X009288Y007451D03*
X009610Y007054D03*
X008618Y007054D03*
D528*
X008881Y007061D03*
D529*
X008832Y007228D03*
X008621Y007414D03*
X008553Y007445D03*
X008720Y007687D03*
X008974Y007774D03*
X009570Y007774D03*
X009619Y007445D03*
X009867Y007222D03*
X010097Y007445D03*
X008460Y007061D03*
X008187Y007222D03*
X008720Y009082D03*
D530*
X009830Y009107D03*
X009830Y007662D03*
X009365Y007271D03*
X009235Y007408D03*
X009160Y007067D03*
D531*
X008767Y007259D03*
X008444Y007259D03*
X008444Y007414D03*
X010094Y007228D03*
X010354Y007222D03*
X010354Y007451D03*
D532*
X009876Y007439D03*
X009821Y007699D03*
X009294Y007228D03*
X008723Y007699D03*
X008723Y009069D03*
X009821Y009069D03*
D533*
X009821Y009063D03*
X008723Y009063D03*
X008723Y007705D03*
X009275Y007327D03*
X009870Y007234D03*
X009821Y007705D03*
D534*
X009325Y007358D03*
X008835Y007234D03*
D535*
X008398Y007234D03*
D536*
X008184Y007234D03*
D537*
X008726Y007712D03*
X009061Y007420D03*
X009061Y007253D03*
X009061Y007247D03*
X009873Y007420D03*
X009818Y007712D03*
X010351Y007247D03*
X009818Y009057D03*
X008726Y009057D03*
D538*
X008636Y007402D03*
X008457Y007408D03*
X009926Y007414D03*
X009926Y007259D03*
D539*
X010171Y007265D03*
D540*
X009818Y007265D03*
D541*
X008457Y007265D03*
D542*
X008714Y007656D03*
X008131Y007271D03*
X008714Y009113D03*
D543*
X009365Y007284D03*
D544*
X009876Y007321D03*
X009876Y007333D03*
X009876Y007340D03*
X009876Y007346D03*
X009876Y007352D03*
D545*
X009288Y007445D03*
X009263Y007321D03*
X008190Y007439D03*
D546*
X008190Y007352D03*
X008190Y007346D03*
X008190Y007340D03*
X008190Y007333D03*
X008190Y007321D03*
X008730Y007730D03*
X009815Y007730D03*
X009815Y009038D03*
X008730Y009038D03*
D547*
X009876Y007327D03*
D548*
X008190Y007327D03*
D549*
X009061Y007426D03*
X010351Y007426D03*
D550*
X008593Y007426D03*
X008190Y007426D03*
D551*
X008398Y007439D03*
D552*
X009824Y007687D03*
X009824Y009082D03*
D553*
X008720Y007693D03*
D554*
X009811Y007736D03*
D555*
X008999Y007736D03*
D556*
X008733Y007736D03*
D557*
X009811Y007743D03*
X009811Y009026D03*
D558*
X008733Y009026D03*
X008733Y007743D03*
D559*
X009811Y007749D03*
D560*
X008736Y007749D03*
X008736Y009020D03*
X009808Y009020D03*
D561*
X009808Y009014D03*
X008736Y009014D03*
X008736Y007755D03*
X009808Y007755D03*
D562*
X009808Y007761D03*
X008736Y007761D03*
D563*
X009805Y007767D03*
X009272Y009187D03*
D564*
X009570Y007767D03*
X008974Y007767D03*
D565*
X008739Y007767D03*
D566*
X009805Y007774D03*
D567*
X008739Y007774D03*
X009272Y009138D03*
X009272Y009144D03*
X009272Y009150D03*
X009272Y009162D03*
D568*
X008801Y007780D03*
X009743Y007780D03*
D569*
X009743Y007786D03*
X009650Y008015D03*
X008894Y008015D03*
X008888Y008003D03*
X008801Y007786D03*
X009272Y009026D03*
D570*
X008897Y008034D03*
X008897Y008028D03*
X008884Y007997D03*
X009653Y008009D03*
X009659Y007997D03*
X009746Y007792D03*
D571*
X009647Y008028D03*
X009647Y008034D03*
X008891Y008009D03*
X008798Y007792D03*
D572*
X009746Y007798D03*
D573*
X008798Y007798D03*
D574*
X008795Y007805D03*
X008838Y007916D03*
X008844Y007922D03*
X008850Y007935D03*
X009694Y007935D03*
X009700Y007922D03*
X009706Y007916D03*
X009749Y007805D03*
X009272Y009020D03*
D575*
X009703Y008561D03*
X009703Y008208D03*
X009647Y008065D03*
X009647Y008059D03*
X009753Y007811D03*
X008835Y007904D03*
X008835Y007910D03*
X008847Y008567D03*
D576*
X008841Y008561D03*
X008841Y008208D03*
X008897Y008065D03*
X008897Y008059D03*
X008791Y007811D03*
X009709Y007904D03*
X009709Y007910D03*
X009697Y008567D03*
D577*
X009690Y008189D03*
X009647Y008077D03*
X009728Y007873D03*
X009740Y007854D03*
X009753Y007823D03*
X009753Y007817D03*
X008810Y007860D03*
X008798Y007842D03*
X008823Y008220D03*
X008860Y008580D03*
D578*
X008854Y008189D03*
X008897Y008077D03*
X008816Y007873D03*
X008804Y007854D03*
X008791Y007823D03*
X008791Y007817D03*
X009734Y007860D03*
X009746Y007842D03*
X009721Y008220D03*
X009684Y008580D03*
D579*
X009675Y008592D03*
X009687Y008183D03*
X009743Y007848D03*
X009749Y007829D03*
X008801Y007848D03*
X008795Y007829D03*
X008857Y008183D03*
D580*
X008795Y007836D03*
X008863Y008586D03*
X009681Y008586D03*
X009749Y007836D03*
D581*
X009734Y007867D03*
D582*
X008810Y007867D03*
D583*
X008819Y007879D03*
X008819Y007885D03*
X008826Y007891D03*
X008900Y008071D03*
X008850Y008195D03*
X008844Y008201D03*
X008850Y008573D03*
X009694Y008573D03*
X009700Y008201D03*
X009694Y008195D03*
X009644Y008071D03*
X009718Y007891D03*
X009725Y007885D03*
X009725Y007879D03*
D584*
X009715Y007898D03*
X008835Y008214D03*
D585*
X008829Y007898D03*
X009709Y008214D03*
D586*
X009700Y007929D03*
X008844Y007929D03*
D587*
X008860Y007953D03*
X009647Y008046D03*
X009678Y007966D03*
X009690Y007947D03*
X009690Y007941D03*
D588*
X009684Y007953D03*
X008897Y008046D03*
X008866Y007966D03*
X008854Y007947D03*
X008854Y007941D03*
D589*
X008863Y007960D03*
X009681Y007960D03*
D590*
X009675Y007972D03*
X009669Y007978D03*
X009669Y007984D03*
X009644Y008040D03*
X008900Y008040D03*
X008869Y007972D03*
D591*
X008875Y007978D03*
X008875Y007984D03*
D592*
X008878Y007991D03*
X009666Y007991D03*
D593*
X009656Y008003D03*
D594*
X009650Y008022D03*
X008894Y008022D03*
D595*
X008900Y008053D03*
X009644Y008053D03*
D596*
X009644Y008084D03*
X008900Y008084D03*
D597*
X008823Y008549D03*
X008872Y008598D03*
X009672Y008598D03*
X009647Y008096D03*
X009647Y008090D03*
D598*
X009721Y008549D03*
X008897Y008096D03*
X008897Y008090D03*
D599*
X008900Y008102D03*
X008869Y008170D03*
X008881Y008604D03*
X009272Y009014D03*
X009669Y008164D03*
X009644Y008102D03*
D600*
X009647Y008108D03*
X008897Y008108D03*
D601*
X009644Y008115D03*
D602*
X008900Y008115D03*
D603*
X008897Y008121D03*
X008885Y008152D03*
X009647Y008121D03*
X009660Y008152D03*
X009740Y008542D03*
D604*
X009644Y008133D03*
X009644Y008127D03*
X008894Y008617D03*
X009272Y009007D03*
D605*
X009650Y008617D03*
X008900Y008133D03*
X008900Y008127D03*
D606*
X008897Y008139D03*
X009647Y008139D03*
D607*
X009650Y008146D03*
D608*
X008894Y008146D03*
D609*
X008801Y008226D03*
X008888Y008611D03*
X009663Y008158D03*
D610*
X009656Y008611D03*
X008881Y008158D03*
D611*
X008875Y008164D03*
X009675Y008170D03*
X009663Y008604D03*
D612*
X009678Y008177D03*
X008866Y008177D03*
D613*
X009740Y008226D03*
D614*
X009759Y008232D03*
X009759Y008536D03*
D615*
X008785Y008536D03*
X008785Y008232D03*
D616*
X008767Y008239D03*
X009777Y008239D03*
D617*
X009799Y008245D03*
D618*
X008745Y008245D03*
D619*
X008729Y008251D03*
X009814Y008251D03*
D620*
X009833Y008257D03*
X009852Y008294D03*
X009852Y008301D03*
X009852Y008456D03*
X009852Y008468D03*
X008692Y008468D03*
X008692Y008456D03*
X008692Y008301D03*
X008692Y008294D03*
X008711Y008257D03*
D621*
X009842Y008263D03*
X009842Y008505D03*
D622*
X008702Y008505D03*
X008702Y008263D03*
D623*
X008698Y008270D03*
X008698Y008499D03*
X009845Y008499D03*
X009845Y008270D03*
D624*
X009845Y008276D03*
X009845Y008493D03*
X008698Y008493D03*
X008698Y008276D03*
D625*
X009849Y008282D03*
X009849Y008288D03*
X009849Y008474D03*
X009849Y008480D03*
X009849Y008487D03*
X009836Y008511D03*
D626*
X008708Y008511D03*
X008695Y008487D03*
X008695Y008480D03*
X008695Y008474D03*
X008695Y008288D03*
X008695Y008282D03*
D627*
X008692Y008307D03*
X008692Y008462D03*
X009852Y008462D03*
X009852Y008307D03*
D628*
X009855Y008313D03*
X009855Y008319D03*
X009855Y008325D03*
X009855Y008332D03*
X009855Y008437D03*
X009855Y008443D03*
X009855Y008449D03*
X009272Y008983D03*
D629*
X008689Y008449D03*
X008689Y008443D03*
X008689Y008437D03*
X008689Y008332D03*
X008689Y008325D03*
X008689Y008319D03*
X008689Y008313D03*
D630*
X008686Y008338D03*
X008686Y008369D03*
X009858Y008369D03*
X009858Y008338D03*
X009858Y008431D03*
D631*
X009858Y008425D03*
X009858Y008418D03*
X009858Y008412D03*
X009858Y008406D03*
X009858Y008394D03*
X009858Y008387D03*
X009858Y008381D03*
X009858Y008375D03*
X009858Y008363D03*
X009858Y008356D03*
X009858Y008350D03*
X009858Y008344D03*
X008686Y008344D03*
X008686Y008350D03*
X008686Y008356D03*
X008686Y008363D03*
X008686Y008375D03*
X008686Y008381D03*
X008686Y008387D03*
X008686Y008394D03*
X008686Y008406D03*
X008686Y008412D03*
X008686Y008418D03*
X008686Y008425D03*
D632*
X008686Y008400D03*
X009858Y008400D03*
D633*
X008689Y008431D03*
D634*
X009818Y008518D03*
D635*
X008726Y008518D03*
D636*
X008748Y008524D03*
X009796Y008524D03*
D637*
X009780Y008530D03*
D638*
X008764Y008530D03*
D639*
X008804Y008542D03*
D640*
X009709Y008555D03*
D641*
X008835Y008555D03*
D642*
X008869Y008592D03*
D643*
X008903Y008623D03*
X009641Y008623D03*
D644*
X009632Y008629D03*
D645*
X008912Y008629D03*
D646*
X009619Y008635D03*
D647*
X008925Y008635D03*
D648*
X008953Y008642D03*
X009591Y008642D03*
D649*
X009272Y008648D03*
X009272Y008660D03*
X009272Y008790D03*
D650*
X009272Y008654D03*
D651*
X009272Y008666D03*
X009272Y008673D03*
X009272Y008784D03*
D652*
X009272Y008772D03*
X009272Y008679D03*
D653*
X009272Y008685D03*
D654*
X009272Y008691D03*
X009272Y008697D03*
X009272Y008704D03*
X009272Y008759D03*
X009272Y008766D03*
D655*
X009272Y008753D03*
X009272Y008710D03*
D656*
X009272Y008716D03*
D657*
X009272Y008722D03*
X009272Y008728D03*
X009272Y008735D03*
X009272Y008741D03*
D658*
X009272Y008747D03*
D659*
X009272Y008778D03*
D660*
X009272Y008797D03*
D661*
X009269Y008803D03*
D662*
X009272Y008809D03*
D663*
X009272Y008815D03*
D664*
X009272Y008821D03*
X009272Y008828D03*
D665*
X009272Y008834D03*
D666*
X009272Y008840D03*
D667*
X009272Y008846D03*
D668*
X009272Y008852D03*
D669*
X009272Y008859D03*
X009272Y008865D03*
D670*
X009272Y008871D03*
D671*
X009272Y008877D03*
X009272Y008883D03*
D672*
X009272Y008890D03*
D673*
X009272Y008896D03*
X009272Y008976D03*
D674*
X009272Y008902D03*
D675*
X009272Y008908D03*
X009272Y008970D03*
D676*
X009272Y008914D03*
D677*
X009272Y008921D03*
X009272Y008927D03*
X009272Y008958D03*
D678*
X009272Y008933D03*
D679*
X009272Y008939D03*
X009272Y008945D03*
X009272Y008952D03*
D680*
X009272Y008964D03*
D681*
X009802Y008983D03*
X008742Y008983D03*
D682*
X008742Y008989D03*
X009802Y008989D03*
D683*
X009272Y008989D03*
D684*
X009802Y008995D03*
X008742Y008995D03*
D685*
X009272Y008995D03*
D686*
X009805Y009001D03*
D687*
X009272Y009001D03*
D688*
X008739Y009001D03*
D689*
X009805Y009007D03*
D690*
X009272Y009206D03*
X009272Y009212D03*
X009272Y009224D03*
X009272Y009231D03*
X008739Y009007D03*
D691*
X009811Y009032D03*
D692*
X009272Y009032D03*
D693*
X008733Y009032D03*
D694*
X009272Y009038D03*
D695*
X009272Y009045D03*
D696*
X009272Y009051D03*
X009272Y009057D03*
D697*
X009272Y009063D03*
D698*
X009272Y009069D03*
X009272Y009076D03*
X009272Y009082D03*
X009272Y009088D03*
X009272Y009100D03*
D699*
X009272Y009094D03*
D700*
X009272Y009107D03*
X009272Y009113D03*
X009272Y009119D03*
X009272Y009131D03*
D701*
X009272Y009125D03*
D702*
X009272Y009156D03*
D703*
X009272Y009169D03*
X009272Y009175D03*
X009272Y009181D03*
X009272Y009193D03*
X009272Y009200D03*
D704*
X009272Y009218D03*
D705*
X009272Y009237D03*
X009272Y009243D03*
X009272Y009255D03*
X009272Y009262D03*
D706*
X009272Y009249D03*
D707*
X009272Y009268D03*
X009272Y009274D03*
X009272Y009286D03*
X009272Y009293D03*
D708*
X009272Y009280D03*
D709*
X009272Y009299D03*
M02*
