G75*
%MOIN*%
%OFA0B0*%
%FSLAX24Y24*%
%IPPOS*%
%LPD*%
%AMOC8*
5,1,8,0,0,1.08239X$1,22.5*
%
%ADD10C,0.0080*%
%ADD11R,0.0709X0.0630*%
%ADD12R,0.0630X0.0710*%
%ADD13R,0.0472X0.0551*%
%ADD14R,0.0710X0.0630*%
%ADD15C,0.0394*%
%ADD16R,0.0630X0.0709*%
%ADD17R,0.0551X0.0551*%
%ADD18R,0.0551X0.0630*%
%ADD19R,0.0591X0.0138*%
%ADD20R,0.0138X0.0591*%
%ADD21R,0.1220X0.0197*%
%ADD22R,0.0984X0.0787*%
%ADD23R,0.1299X0.0787*%
%ADD24C,0.0000*%
%ADD25C,0.0740*%
%ADD26R,0.0740X0.0740*%
%ADD27OC8,0.0740*%
%ADD28R,0.0394X0.0787*%
%ADD29R,0.0130X0.0630*%
%ADD30C,0.0298*%
%ADD31C,0.0120*%
%ADD32C,0.0160*%
%ADD33C,0.0240*%
%ADD34C,0.0100*%
D10*
X000450Y001639D02*
X000450Y019811D01*
X000452Y019885D01*
X000458Y019959D01*
X000467Y020032D01*
X000481Y020105D01*
X000498Y020177D01*
X000519Y020248D01*
X000544Y020318D01*
X000572Y020386D01*
X000604Y020453D01*
X000639Y020518D01*
X000678Y020581D01*
X000720Y020642D01*
X000765Y020701D01*
X000813Y020757D01*
X000864Y020811D01*
X000918Y020862D01*
X000974Y020910D01*
X001033Y020955D01*
X001094Y020997D01*
X001157Y021036D01*
X001222Y021071D01*
X001289Y021103D01*
X001357Y021131D01*
X001427Y021156D01*
X001498Y021177D01*
X001570Y021194D01*
X001643Y021208D01*
X001716Y021217D01*
X001790Y021223D01*
X001864Y021225D01*
X019743Y021225D01*
X019793Y021223D01*
X019844Y021218D01*
X019893Y021209D01*
X019942Y021196D01*
X019990Y021180D01*
X020037Y021161D01*
X020082Y021139D01*
X020125Y021113D01*
X020167Y021084D01*
X020206Y021052D01*
X020243Y021018D01*
X020277Y020981D01*
X020309Y020942D01*
X020338Y020900D01*
X020364Y020857D01*
X020386Y020812D01*
X020405Y020765D01*
X020421Y020717D01*
X020434Y020668D01*
X020443Y020619D01*
X020448Y020568D01*
X020450Y020518D01*
X020450Y016225D01*
X021450Y015225D01*
X021450Y002225D01*
X020450Y001225D01*
X020450Y000932D01*
X020448Y000882D01*
X020443Y000831D01*
X020434Y000782D01*
X020421Y000733D01*
X020405Y000685D01*
X020386Y000638D01*
X020364Y000593D01*
X020338Y000550D01*
X020309Y000508D01*
X020277Y000469D01*
X020243Y000432D01*
X020206Y000398D01*
X020167Y000366D01*
X020125Y000337D01*
X020082Y000311D01*
X020037Y000289D01*
X019990Y000270D01*
X019942Y000254D01*
X019893Y000241D01*
X019844Y000232D01*
X019793Y000227D01*
X019743Y000225D01*
X001864Y000225D01*
X001790Y000227D01*
X001716Y000233D01*
X001643Y000242D01*
X001570Y000256D01*
X001498Y000273D01*
X001427Y000294D01*
X001357Y000319D01*
X001289Y000347D01*
X001222Y000379D01*
X001157Y000414D01*
X001094Y000453D01*
X001033Y000495D01*
X000974Y000540D01*
X000918Y000588D01*
X000864Y000639D01*
X000813Y000693D01*
X000765Y000749D01*
X000720Y000808D01*
X000678Y000869D01*
X000639Y000932D01*
X000604Y000997D01*
X000572Y001064D01*
X000544Y001132D01*
X000519Y001202D01*
X000498Y001273D01*
X000481Y001345D01*
X000467Y001418D01*
X000458Y001491D01*
X000452Y001565D01*
X000450Y001639D01*
X019197Y011725D02*
X019763Y011725D01*
D11*
X018300Y010726D03*
X018300Y009624D03*
X017100Y009624D03*
X017100Y010726D03*
X016400Y007076D03*
X016400Y005974D03*
X014875Y005974D03*
X014875Y007076D03*
X010650Y007026D03*
X009550Y007026D03*
X009550Y005924D03*
X010650Y005924D03*
X008400Y005899D03*
X008400Y007001D03*
X011000Y013424D03*
X011000Y014526D03*
X008150Y015424D03*
X008150Y016526D03*
X015625Y015876D03*
X015625Y014774D03*
D12*
X008110Y011625D03*
X006990Y011625D03*
X006910Y015325D03*
X005790Y015325D03*
X005790Y016525D03*
X006910Y016525D03*
X002710Y011225D03*
X001590Y011225D03*
D13*
X004359Y011625D03*
X005541Y011625D03*
D14*
X009550Y010235D03*
X009550Y009115D03*
X017950Y007147D03*
X017950Y006028D03*
D15*
X019950Y017225D03*
X000950Y002225D03*
D16*
X001599Y012275D03*
X002701Y012275D03*
X005649Y014225D03*
X006951Y014225D03*
X019399Y009125D03*
X020501Y009125D03*
D17*
X008100Y012777D03*
X008100Y014273D03*
D18*
X006951Y012925D03*
X005849Y012925D03*
D19*
X011167Y012300D03*
X011167Y011985D03*
X011167Y011670D03*
X011167Y011355D03*
X011167Y011040D03*
X011167Y010725D03*
X011167Y010410D03*
X011167Y010095D03*
X011167Y009780D03*
X011167Y009465D03*
X011167Y009150D03*
X015733Y009150D03*
X015733Y009465D03*
X015733Y009780D03*
X015733Y010095D03*
X015733Y010410D03*
X015733Y010725D03*
X015733Y011040D03*
X015733Y011355D03*
X015733Y011670D03*
X015733Y011985D03*
X015733Y012300D03*
D20*
X015025Y013008D03*
X014710Y013008D03*
X014395Y013008D03*
X014080Y013008D03*
X013765Y013008D03*
X013450Y013008D03*
X013135Y013008D03*
X012820Y013008D03*
X012505Y013008D03*
X012190Y013008D03*
X011875Y013008D03*
X011875Y008442D03*
X012190Y008442D03*
X012505Y008442D03*
X012820Y008442D03*
X013135Y008442D03*
X013450Y008442D03*
X013765Y008442D03*
X014080Y008442D03*
X014395Y008442D03*
X014710Y008442D03*
X015025Y008442D03*
D21*
X003631Y014595D03*
X003631Y014910D03*
X003631Y015225D03*
X003631Y015540D03*
X003631Y015855D03*
D22*
X001269Y016977D03*
X001269Y013473D03*
D23*
X003592Y013473D03*
X003592Y016977D03*
D24*
X002273Y016091D02*
X002275Y016117D01*
X002281Y016143D01*
X002291Y016168D01*
X002304Y016191D01*
X002320Y016211D01*
X002340Y016229D01*
X002362Y016244D01*
X002385Y016256D01*
X002411Y016264D01*
X002437Y016268D01*
X002463Y016268D01*
X002489Y016264D01*
X002515Y016256D01*
X002539Y016244D01*
X002560Y016229D01*
X002580Y016211D01*
X002596Y016191D01*
X002609Y016168D01*
X002619Y016143D01*
X002625Y016117D01*
X002627Y016091D01*
X002625Y016065D01*
X002619Y016039D01*
X002609Y016014D01*
X002596Y015991D01*
X002580Y015971D01*
X002560Y015953D01*
X002538Y015938D01*
X002515Y015926D01*
X002489Y015918D01*
X002463Y015914D01*
X002437Y015914D01*
X002411Y015918D01*
X002385Y015926D01*
X002361Y015938D01*
X002340Y015953D01*
X002320Y015971D01*
X002304Y015991D01*
X002291Y016014D01*
X002281Y016039D01*
X002275Y016065D01*
X002273Y016091D01*
X002273Y014359D02*
X002275Y014385D01*
X002281Y014411D01*
X002291Y014436D01*
X002304Y014459D01*
X002320Y014479D01*
X002340Y014497D01*
X002362Y014512D01*
X002385Y014524D01*
X002411Y014532D01*
X002437Y014536D01*
X002463Y014536D01*
X002489Y014532D01*
X002515Y014524D01*
X002539Y014512D01*
X002560Y014497D01*
X002580Y014479D01*
X002596Y014459D01*
X002609Y014436D01*
X002619Y014411D01*
X002625Y014385D01*
X002627Y014359D01*
X002625Y014333D01*
X002619Y014307D01*
X002609Y014282D01*
X002596Y014259D01*
X002580Y014239D01*
X002560Y014221D01*
X002538Y014206D01*
X002515Y014194D01*
X002489Y014186D01*
X002463Y014182D01*
X002437Y014182D01*
X002411Y014186D01*
X002385Y014194D01*
X002361Y014206D01*
X002340Y014221D01*
X002320Y014239D01*
X002304Y014259D01*
X002291Y014282D01*
X002281Y014307D01*
X002275Y014333D01*
X002273Y014359D01*
X001800Y001225D02*
X001802Y001275D01*
X001808Y001325D01*
X001818Y001375D01*
X001831Y001423D01*
X001848Y001471D01*
X001869Y001517D01*
X001893Y001561D01*
X001921Y001603D01*
X001952Y001643D01*
X001986Y001680D01*
X002023Y001715D01*
X002062Y001746D01*
X002103Y001775D01*
X002147Y001800D01*
X002193Y001822D01*
X002240Y001840D01*
X002288Y001854D01*
X002337Y001865D01*
X002387Y001872D01*
X002437Y001875D01*
X002488Y001874D01*
X002538Y001869D01*
X002588Y001860D01*
X002636Y001848D01*
X002684Y001831D01*
X002730Y001811D01*
X002775Y001788D01*
X002818Y001761D01*
X002858Y001731D01*
X002896Y001698D01*
X002931Y001662D01*
X002964Y001623D01*
X002993Y001582D01*
X003019Y001539D01*
X003042Y001494D01*
X003061Y001447D01*
X003076Y001399D01*
X003088Y001350D01*
X003096Y001300D01*
X003100Y001250D01*
X003100Y001200D01*
X003096Y001150D01*
X003088Y001100D01*
X003076Y001051D01*
X003061Y001003D01*
X003042Y000956D01*
X003019Y000911D01*
X002993Y000868D01*
X002964Y000827D01*
X002931Y000788D01*
X002896Y000752D01*
X002858Y000719D01*
X002818Y000689D01*
X002775Y000662D01*
X002730Y000639D01*
X002684Y000619D01*
X002636Y000602D01*
X002588Y000590D01*
X002538Y000581D01*
X002488Y000576D01*
X002437Y000575D01*
X002387Y000578D01*
X002337Y000585D01*
X002288Y000596D01*
X002240Y000610D01*
X002193Y000628D01*
X002147Y000650D01*
X002103Y000675D01*
X002062Y000704D01*
X002023Y000735D01*
X001986Y000770D01*
X001952Y000807D01*
X001921Y000847D01*
X001893Y000889D01*
X001869Y000933D01*
X001848Y000979D01*
X001831Y001027D01*
X001818Y001075D01*
X001808Y001125D01*
X001802Y001175D01*
X001800Y001225D01*
X019800Y003225D02*
X019802Y003275D01*
X019808Y003325D01*
X019818Y003375D01*
X019831Y003423D01*
X019848Y003471D01*
X019869Y003517D01*
X019893Y003561D01*
X019921Y003603D01*
X019952Y003643D01*
X019986Y003680D01*
X020023Y003715D01*
X020062Y003746D01*
X020103Y003775D01*
X020147Y003800D01*
X020193Y003822D01*
X020240Y003840D01*
X020288Y003854D01*
X020337Y003865D01*
X020387Y003872D01*
X020437Y003875D01*
X020488Y003874D01*
X020538Y003869D01*
X020588Y003860D01*
X020636Y003848D01*
X020684Y003831D01*
X020730Y003811D01*
X020775Y003788D01*
X020818Y003761D01*
X020858Y003731D01*
X020896Y003698D01*
X020931Y003662D01*
X020964Y003623D01*
X020993Y003582D01*
X021019Y003539D01*
X021042Y003494D01*
X021061Y003447D01*
X021076Y003399D01*
X021088Y003350D01*
X021096Y003300D01*
X021100Y003250D01*
X021100Y003200D01*
X021096Y003150D01*
X021088Y003100D01*
X021076Y003051D01*
X021061Y003003D01*
X021042Y002956D01*
X021019Y002911D01*
X020993Y002868D01*
X020964Y002827D01*
X020931Y002788D01*
X020896Y002752D01*
X020858Y002719D01*
X020818Y002689D01*
X020775Y002662D01*
X020730Y002639D01*
X020684Y002619D01*
X020636Y002602D01*
X020588Y002590D01*
X020538Y002581D01*
X020488Y002576D01*
X020437Y002575D01*
X020387Y002578D01*
X020337Y002585D01*
X020288Y002596D01*
X020240Y002610D01*
X020193Y002628D01*
X020147Y002650D01*
X020103Y002675D01*
X020062Y002704D01*
X020023Y002735D01*
X019986Y002770D01*
X019952Y002807D01*
X019921Y002847D01*
X019893Y002889D01*
X019869Y002933D01*
X019848Y002979D01*
X019831Y003027D01*
X019818Y003075D01*
X019808Y003125D01*
X019802Y003175D01*
X019800Y003225D01*
X019800Y014725D02*
X019802Y014775D01*
X019808Y014825D01*
X019818Y014875D01*
X019831Y014923D01*
X019848Y014971D01*
X019869Y015017D01*
X019893Y015061D01*
X019921Y015103D01*
X019952Y015143D01*
X019986Y015180D01*
X020023Y015215D01*
X020062Y015246D01*
X020103Y015275D01*
X020147Y015300D01*
X020193Y015322D01*
X020240Y015340D01*
X020288Y015354D01*
X020337Y015365D01*
X020387Y015372D01*
X020437Y015375D01*
X020488Y015374D01*
X020538Y015369D01*
X020588Y015360D01*
X020636Y015348D01*
X020684Y015331D01*
X020730Y015311D01*
X020775Y015288D01*
X020818Y015261D01*
X020858Y015231D01*
X020896Y015198D01*
X020931Y015162D01*
X020964Y015123D01*
X020993Y015082D01*
X021019Y015039D01*
X021042Y014994D01*
X021061Y014947D01*
X021076Y014899D01*
X021088Y014850D01*
X021096Y014800D01*
X021100Y014750D01*
X021100Y014700D01*
X021096Y014650D01*
X021088Y014600D01*
X021076Y014551D01*
X021061Y014503D01*
X021042Y014456D01*
X021019Y014411D01*
X020993Y014368D01*
X020964Y014327D01*
X020931Y014288D01*
X020896Y014252D01*
X020858Y014219D01*
X020818Y014189D01*
X020775Y014162D01*
X020730Y014139D01*
X020684Y014119D01*
X020636Y014102D01*
X020588Y014090D01*
X020538Y014081D01*
X020488Y014076D01*
X020437Y014075D01*
X020387Y014078D01*
X020337Y014085D01*
X020288Y014096D01*
X020240Y014110D01*
X020193Y014128D01*
X020147Y014150D01*
X020103Y014175D01*
X020062Y014204D01*
X020023Y014235D01*
X019986Y014270D01*
X019952Y014307D01*
X019921Y014347D01*
X019893Y014389D01*
X019869Y014433D01*
X019848Y014479D01*
X019831Y014527D01*
X019818Y014575D01*
X019808Y014625D01*
X019802Y014675D01*
X019800Y014725D01*
D25*
X018450Y020225D03*
X017450Y020225D03*
X016450Y020225D03*
X015450Y020225D03*
X014450Y020225D03*
X013450Y020225D03*
X012450Y020225D03*
X010800Y020225D03*
X009800Y020225D03*
X008800Y020225D03*
X007800Y020225D03*
X006800Y020225D03*
X005800Y020225D03*
X004800Y020225D03*
X003800Y020225D03*
X002800Y020225D03*
X001800Y020225D03*
X001450Y019225D03*
X002450Y019225D03*
X003450Y019225D03*
X004450Y019225D03*
X005450Y019225D03*
X006450Y019225D03*
X007450Y019225D03*
X008450Y019225D03*
X009450Y019225D03*
X010450Y019225D03*
X001450Y008725D03*
X001450Y007725D03*
X001450Y006725D03*
X001450Y005725D03*
X001450Y004725D03*
X001450Y003725D03*
X007450Y001225D03*
X008450Y001225D03*
X009450Y001225D03*
X010450Y001225D03*
X011450Y001225D03*
X012450Y001225D03*
X014450Y001225D03*
X015450Y001225D03*
X016450Y001225D03*
X017450Y001225D03*
X018450Y001225D03*
X019450Y001225D03*
D26*
X019450Y020225D03*
D27*
X019450Y012225D03*
X019450Y011225D03*
X019450Y010225D03*
X020450Y010225D03*
X020450Y011225D03*
X020450Y012225D03*
D28*
X020900Y007925D03*
X019400Y007925D03*
X019400Y005925D03*
X020900Y005925D03*
D29*
X014422Y015225D03*
X013950Y015225D03*
X013478Y015225D03*
D30*
X013200Y015725D03*
X013200Y016225D03*
X013950Y016725D03*
X014950Y016725D03*
X016950Y016725D03*
X016950Y015725D03*
X017950Y015725D03*
X018950Y015725D03*
X018950Y016725D03*
X017950Y016725D03*
X017450Y017675D03*
X018950Y018725D03*
X018900Y019675D03*
X017950Y019725D03*
X016950Y019725D03*
X015950Y019725D03*
X014950Y019725D03*
X014100Y018975D03*
X013950Y019725D03*
X012950Y019725D03*
X011450Y019225D03*
X010950Y018225D03*
X010000Y018225D03*
X011550Y016825D03*
X010950Y016225D03*
X010200Y016075D03*
X008700Y014775D03*
X007500Y015825D03*
X007550Y017025D03*
X007000Y017225D03*
X005950Y017725D03*
X005950Y018725D03*
X004950Y018725D03*
X004950Y017725D03*
X002950Y018225D03*
X001950Y018225D03*
X002687Y015212D03*
X002687Y014862D03*
X004687Y014862D03*
X004687Y014562D03*
X005087Y013362D03*
X005087Y012562D03*
X006150Y012275D03*
X006150Y013575D03*
X008700Y012975D03*
X008700Y012275D03*
X008950Y011225D03*
X008300Y009675D03*
X007800Y009225D03*
X008950Y008075D03*
X009950Y008075D03*
X011200Y008075D03*
X012500Y009125D03*
X013450Y009775D03*
X013950Y009775D03*
X013950Y009125D03*
X014450Y009125D03*
X014800Y010075D03*
X014800Y010475D03*
X014900Y011775D03*
X014900Y012275D03*
X015950Y013225D03*
X016950Y013225D03*
X016950Y014225D03*
X018500Y013425D03*
X019450Y013725D03*
X018950Y014225D03*
X019950Y015725D03*
X019950Y016725D03*
X019950Y017725D03*
X014900Y014725D03*
X013850Y014375D03*
X013150Y012425D03*
X012350Y011675D03*
X012700Y011525D03*
X011800Y010775D03*
X010450Y009775D03*
X012450Y006725D03*
X011450Y006225D03*
X011450Y005225D03*
X012450Y005225D03*
X012450Y003725D03*
X012950Y003725D03*
X012950Y001725D03*
X011950Y001725D03*
X010950Y001725D03*
X008950Y003725D03*
X007950Y005225D03*
X006950Y006425D03*
X005950Y005225D03*
X005950Y004225D03*
X004450Y004225D03*
X004450Y005225D03*
X004450Y006225D03*
X004450Y007225D03*
X004450Y008225D03*
X004450Y009225D03*
X004450Y010225D03*
X004450Y010725D03*
X003350Y010775D03*
X002950Y010225D03*
X002950Y009225D03*
X002950Y008225D03*
X002950Y007225D03*
X002950Y006225D03*
X002950Y005225D03*
X002950Y004225D03*
X001950Y002225D03*
X004450Y002225D03*
X004450Y001225D03*
X005950Y001225D03*
X005950Y002225D03*
X009950Y005225D03*
X006450Y008225D03*
X005950Y009225D03*
X003350Y011775D03*
X003350Y012325D03*
X001450Y010225D03*
X001950Y007225D03*
X006950Y018725D03*
X007950Y018725D03*
X016450Y010125D03*
X016250Y009075D03*
X016450Y008425D03*
X017000Y007225D03*
X015550Y006475D03*
X017450Y004725D03*
X017450Y003725D03*
X016450Y003725D03*
X015950Y001725D03*
X014950Y001725D03*
X013950Y001725D03*
X016950Y001725D03*
X017950Y001725D03*
X018950Y001725D03*
X019950Y002225D03*
X019000Y004025D03*
X018450Y004725D03*
X019950Y005225D03*
X020950Y004725D03*
X018850Y006725D03*
X018850Y008225D03*
X018450Y008225D03*
X018550Y008825D03*
X020000Y008075D03*
X020850Y010725D03*
X018650Y011338D03*
D31*
X018650Y011076D01*
X018300Y010726D01*
X017751Y011275D01*
X016550Y011275D01*
X016315Y011040D01*
X015733Y011040D01*
X015735Y010726D02*
X015733Y010725D01*
X015735Y010726D02*
X017100Y010726D01*
X016360Y009465D02*
X015733Y009465D01*
X015733Y009150D02*
X016175Y009150D01*
X016250Y009075D01*
X016360Y009465D02*
X017950Y007875D01*
X017950Y007147D01*
X017000Y007225D02*
X016400Y007225D01*
X016400Y007076D01*
X016400Y007750D01*
X016225Y007925D01*
X015200Y007925D01*
X015025Y008100D01*
X015025Y008442D01*
X014395Y008442D02*
X014395Y007480D01*
X014850Y007025D01*
X014874Y007125D01*
X014875Y007076D01*
X014876Y007175D01*
X015350Y007175D01*
X015550Y006975D01*
X015550Y006475D01*
X014080Y005395D02*
X016300Y003175D01*
X018300Y003175D01*
X019450Y002025D01*
X019450Y001225D01*
X018450Y001225D02*
X018450Y002025D01*
X017600Y002875D01*
X016250Y002875D01*
X013850Y005275D01*
X013850Y007800D01*
X013765Y007885D01*
X013765Y008442D01*
X013750Y008427D01*
X013450Y008442D02*
X013450Y007787D01*
X013600Y007637D01*
X013600Y005175D01*
X016250Y002550D01*
X016850Y002550D01*
X017450Y001925D01*
X017450Y001225D01*
X016450Y001225D02*
X016450Y001925D01*
X013350Y005025D01*
X013350Y007425D01*
X013135Y007640D01*
X013135Y008442D01*
X012820Y008442D02*
X012820Y007542D01*
X013100Y007263D01*
X013100Y004825D01*
X015400Y002525D01*
X015400Y001275D01*
X015450Y001225D01*
X014450Y001225D02*
X014450Y003075D01*
X012850Y004675D01*
X012850Y007113D01*
X012505Y007457D01*
X012505Y008442D01*
X011875Y008442D02*
X011875Y007600D01*
X011300Y007025D01*
X010651Y007025D01*
X010650Y007026D01*
X011167Y009150D02*
X009585Y009150D01*
X009550Y009115D01*
X009950Y009675D02*
X009050Y009675D01*
X008600Y009225D01*
X007800Y009225D01*
X009950Y009675D02*
X010160Y009465D01*
X011167Y009465D01*
X011167Y009780D02*
X011955Y009780D01*
X012700Y010525D01*
X012700Y011525D01*
X012350Y011675D02*
X012105Y011670D01*
X011167Y011670D01*
X011167Y011985D02*
X010690Y011985D01*
X010450Y012225D01*
X010450Y012875D01*
X010649Y013074D01*
X011000Y013424D01*
X012190Y013008D02*
X012190Y017215D01*
X013250Y018275D01*
X018000Y018275D01*
X018450Y018725D01*
X018450Y020225D01*
X019450Y020225D02*
X019450Y018725D01*
X018700Y017975D01*
X013450Y017975D01*
X012505Y017030D01*
X012505Y013008D01*
X012820Y013008D02*
X012820Y016845D01*
X013650Y017675D01*
X017450Y017675D01*
X015450Y019175D02*
X015450Y020225D01*
X015800Y020875D02*
X016450Y020225D01*
X015800Y020875D02*
X002250Y020875D01*
X001800Y020425D01*
X001800Y020225D01*
X005850Y016625D02*
X005850Y016525D01*
X005790Y016525D01*
X005850Y016625D02*
X005950Y016725D01*
X006910Y016525D02*
X007000Y016565D01*
X007000Y017225D01*
X007410Y015825D02*
X006910Y015325D01*
X006950Y015465D01*
X007410Y015825D02*
X007500Y015825D01*
X009900Y016375D02*
X012250Y018725D01*
X012950Y018725D01*
X013450Y019225D01*
X013450Y020225D01*
X014100Y018975D02*
X015250Y018975D01*
X015450Y019175D01*
X014422Y015225D02*
X014450Y014725D01*
X014450Y014475D01*
X013800Y013825D01*
X013800Y013044D01*
X013765Y013008D01*
X013478Y013036D02*
X013450Y013008D01*
X013478Y013036D02*
X013478Y015225D01*
X014395Y013544D02*
X015625Y014774D01*
X014950Y013725D02*
X018200Y013725D01*
X018500Y013425D01*
X018875Y012300D02*
X018950Y012225D01*
X019448Y012225D01*
X019450Y012223D01*
X019150Y011775D02*
X018950Y011975D01*
X015743Y011975D01*
X015733Y011985D01*
X015733Y012300D02*
X018875Y012300D01*
X019150Y011775D02*
X019197Y011725D01*
X018818Y011670D02*
X019263Y011225D01*
X019448Y011225D01*
X019450Y011223D01*
X019763Y011725D02*
X019948Y011725D01*
X020450Y011223D01*
X019450Y010225D02*
X019450Y009176D01*
X019399Y009125D01*
X020000Y008575D02*
X020000Y008075D01*
X020000Y008575D02*
X020501Y009076D01*
X020501Y009125D01*
X019400Y007925D02*
X019399Y007926D01*
X019400Y005925D02*
X019350Y005925D01*
X019400Y005725D02*
X019400Y004425D01*
X019000Y004025D01*
X014080Y005395D02*
X014080Y008442D01*
X014250Y009475D02*
X014400Y009625D01*
X014550Y009475D01*
X014400Y009515D02*
X014400Y009625D01*
X014800Y010075D02*
X015095Y009780D01*
X015733Y009780D01*
X015733Y010095D02*
X015180Y010095D01*
X014800Y010475D01*
X014400Y010875D02*
X014550Y011025D01*
X014400Y011175D01*
X014465Y011040D02*
X014400Y010975D01*
X014900Y012275D02*
X015025Y012400D01*
X015025Y013008D01*
X014710Y013008D02*
X014710Y013485D01*
X014950Y013725D01*
X014395Y013544D02*
X014395Y013008D01*
X014400Y013003D01*
X013135Y013008D02*
X013135Y012440D01*
X013150Y012425D01*
X011167Y011355D02*
X010820Y011355D01*
X010200Y011975D01*
X010200Y016075D01*
X009900Y016375D02*
X009900Y011925D01*
X010785Y011040D01*
X011167Y011040D01*
X010885Y011040D01*
X010750Y010725D02*
X009650Y011825D01*
X009650Y018425D01*
X010450Y019225D01*
X009450Y019225D02*
X009450Y018625D01*
X009400Y018575D01*
X009400Y011775D01*
X010400Y010775D01*
X010400Y010775D01*
X010763Y010413D01*
X011164Y010413D01*
X011167Y010410D01*
X011162Y010100D02*
X010725Y010100D01*
X009150Y011675D01*
X009150Y018525D01*
X008450Y019225D01*
X015733Y011670D02*
X018818Y011670D01*
X011167Y010725D02*
X010750Y010725D01*
X011162Y010100D02*
X011167Y010095D01*
D32*
X008110Y011625D02*
X008100Y011635D01*
X006951Y012925D02*
X006951Y014225D01*
X005649Y014225D02*
X002950Y014225D01*
X002700Y013975D01*
X002250Y013975D01*
X002050Y014175D01*
X002050Y015075D01*
X002830Y015855D01*
X003631Y015855D01*
X003631Y015540D02*
X004415Y015540D01*
X004750Y015875D01*
X004750Y016225D01*
X005050Y016525D01*
X005790Y016525D01*
X005790Y015325D02*
X005000Y015325D01*
X004900Y015225D01*
X003631Y015225D01*
X003450Y019225D02*
X003450Y019875D01*
X003800Y020225D01*
X002800Y020225D02*
X002450Y019875D01*
X002450Y019225D01*
X001450Y019225D02*
X001450Y019875D01*
X001800Y020225D01*
X005450Y019875D02*
X005450Y019225D01*
X005450Y019875D02*
X005800Y020225D01*
X006450Y019875D02*
X006450Y019225D01*
X006450Y019875D02*
X006800Y020225D01*
X007450Y019875D02*
X007450Y019225D01*
X007450Y019875D02*
X007800Y020225D01*
X008450Y019875D02*
X008450Y019225D01*
X008450Y019875D02*
X008800Y020225D01*
X009450Y019875D02*
X009800Y020225D01*
X009450Y019875D02*
X009450Y019225D01*
X010450Y019225D02*
X010450Y019875D01*
X010800Y020225D01*
X017100Y010726D02*
X017101Y010725D01*
X017550Y010725D01*
X017750Y010525D01*
X017750Y009125D01*
X018050Y008825D01*
X018550Y008825D01*
X019399Y009125D02*
X019399Y007926D01*
X019400Y007925D02*
X019400Y005925D01*
X019350Y005925D02*
X019350Y005825D01*
X019350Y005775D01*
X019400Y005725D01*
X019450Y005725D02*
X019350Y005825D01*
X019350Y005925D02*
X018850Y005925D01*
X018747Y006028D01*
X017950Y006028D01*
X012450Y006725D02*
X012450Y006725D01*
X012450Y006725D01*
X011950Y006225D01*
X011950Y004725D01*
X011450Y004225D01*
X009950Y004225D01*
X009550Y004625D01*
X009550Y005924D01*
D33*
X009550Y007026D02*
X008425Y007026D01*
X008400Y007001D01*
X008324Y006925D01*
X006650Y006925D01*
X005450Y005725D01*
X001450Y005725D01*
X007050Y008275D02*
X007050Y009825D01*
X008100Y010875D01*
X008100Y011635D01*
X008100Y012777D01*
X006990Y011625D02*
X005541Y011625D01*
X006951Y014225D02*
X006999Y014273D01*
X008100Y014273D01*
X008100Y015374D01*
X008150Y015424D01*
X004450Y019225D02*
X004450Y019875D01*
X004750Y020175D01*
X007050Y008275D02*
X008324Y007001D01*
X008400Y007001D01*
X007450Y006051D01*
X007450Y004225D01*
X009450Y002225D01*
X009450Y001225D01*
X009550Y007026D02*
X010650Y007026D01*
D34*
X000733Y001171D02*
X000893Y000894D01*
X001119Y000668D01*
X001396Y000508D01*
X001704Y000425D01*
X001864Y000415D01*
X002044Y000415D01*
X001993Y000434D01*
X001993Y000434D01*
X001750Y000638D01*
X001750Y000638D01*
X001591Y000912D01*
X001591Y000912D01*
X001536Y001225D01*
X001536Y001225D01*
X001591Y001538D01*
X001591Y001538D01*
X001750Y001812D01*
X001750Y001812D01*
X001750Y001812D01*
X001993Y002016D01*
X001993Y002016D01*
X002291Y002125D01*
X002609Y002125D01*
X002907Y002016D01*
X002907Y002016D01*
X003150Y001812D01*
X003150Y001812D01*
X003309Y001538D01*
X003309Y001538D01*
X003364Y001225D01*
X003364Y001225D01*
X003309Y000912D01*
X003309Y000912D01*
X003150Y000638D01*
X003150Y000638D01*
X003150Y000638D01*
X002907Y000434D01*
X002907Y000434D01*
X002856Y000415D01*
X019743Y000415D01*
X019824Y000421D01*
X019978Y000471D01*
X020109Y000566D01*
X020204Y000697D01*
X020254Y000851D01*
X020260Y000932D01*
X020260Y001304D01*
X021260Y002304D01*
X021260Y002828D01*
X021150Y002638D01*
X021150Y002638D01*
X021150Y002638D01*
X020907Y002434D01*
X020907Y002434D01*
X020609Y002325D01*
X020291Y002325D01*
X019993Y002434D01*
X019993Y002434D01*
X019750Y002638D01*
X019750Y002638D01*
X019591Y002912D01*
X019591Y002912D01*
X019536Y003225D01*
X019591Y003538D01*
X019591Y003538D01*
X019750Y003812D01*
X019993Y004016D01*
X019993Y004016D01*
X020291Y004125D01*
X020609Y004125D01*
X020907Y004016D01*
X020907Y004016D01*
X021150Y003812D01*
X021150Y003812D01*
X021260Y003622D01*
X021260Y014328D01*
X021150Y014138D01*
X021150Y014138D01*
X021150Y014138D01*
X020907Y013934D01*
X020907Y013934D01*
X020609Y013825D01*
X020291Y013825D01*
X019993Y013934D01*
X019993Y013934D01*
X019750Y014138D01*
X019750Y014138D01*
X019591Y014412D01*
X019591Y014412D01*
X019536Y014725D01*
X019536Y014725D01*
X019591Y015038D01*
X019591Y015038D01*
X019750Y015312D01*
X019750Y015312D01*
X019750Y015312D01*
X019993Y015516D01*
X019993Y015516D01*
X020291Y015625D01*
X020609Y015625D01*
X020880Y015526D01*
X020260Y016146D01*
X020260Y017119D01*
X020227Y017040D01*
X020135Y016948D01*
X020015Y016898D01*
X019885Y016898D01*
X019765Y016948D01*
X019673Y017040D01*
X019623Y017160D01*
X019623Y017290D01*
X019673Y017410D01*
X019765Y017502D01*
X019885Y017552D01*
X020015Y017552D01*
X020135Y017502D01*
X020227Y017410D01*
X020260Y017331D01*
X020260Y020518D01*
X020254Y020599D01*
X020204Y020753D01*
X020109Y020884D01*
X019978Y020979D01*
X019824Y021029D01*
X019743Y021035D01*
X015909Y021035D01*
X016257Y020686D01*
X016351Y020725D01*
X016549Y020725D01*
X016733Y020649D01*
X016874Y020508D01*
X016950Y020324D01*
X016950Y020126D01*
X017026Y019942D01*
X017167Y019801D01*
X017351Y019725D01*
X017549Y019725D01*
X017733Y019801D01*
X017874Y019942D01*
X017950Y020126D01*
X017950Y020324D01*
X017874Y020508D01*
X017733Y020649D01*
X017549Y020725D01*
X017351Y020725D01*
X017167Y020649D01*
X017026Y020508D01*
X016950Y020324D01*
X016950Y020126D01*
X016874Y019942D01*
X016733Y019801D01*
X016549Y019725D01*
X016351Y019725D01*
X016167Y019801D01*
X016026Y019942D01*
X015950Y020126D01*
X015950Y020324D01*
X015989Y020418D01*
X015721Y020685D01*
X015646Y020685D01*
X015733Y020649D01*
X015874Y020508D01*
X015950Y020324D01*
X015950Y020126D01*
X015874Y019942D01*
X015733Y019801D01*
X015640Y019763D01*
X015640Y019096D01*
X015529Y018985D01*
X015329Y018785D01*
X014304Y018785D01*
X014258Y018739D01*
X014155Y018696D01*
X014045Y018696D01*
X013942Y018739D01*
X013864Y018817D01*
X013821Y018920D01*
X013821Y019030D01*
X013864Y019133D01*
X013942Y019211D01*
X014045Y019254D01*
X014155Y019254D01*
X014258Y019211D01*
X014304Y019165D01*
X015171Y019165D01*
X015260Y019254D01*
X015260Y019763D01*
X015167Y019801D01*
X015026Y019942D01*
X014950Y020126D01*
X014950Y020324D01*
X015026Y020508D01*
X015167Y020649D01*
X015254Y020685D01*
X014646Y020685D01*
X014733Y020649D01*
X014874Y020508D01*
X014950Y020324D01*
X014950Y020126D01*
X014874Y019942D01*
X014733Y019801D01*
X014549Y019725D01*
X014351Y019725D01*
X014167Y019801D01*
X014026Y019942D01*
X013950Y020126D01*
X013950Y020324D01*
X014026Y020508D01*
X014167Y020649D01*
X014254Y020685D01*
X013646Y020685D01*
X013733Y020649D01*
X013874Y020508D01*
X013950Y020324D01*
X013950Y020126D01*
X013874Y019942D01*
X013733Y019801D01*
X013640Y019763D01*
X013640Y019146D01*
X013529Y019035D01*
X013140Y018646D01*
X013029Y018535D01*
X012329Y018535D01*
X010148Y016354D01*
X010255Y016354D01*
X010358Y016311D01*
X010436Y016233D01*
X010479Y016130D01*
X010479Y016075D01*
X012000Y016075D01*
X012000Y017294D01*
X013060Y018354D01*
X013171Y018465D01*
X017921Y018465D01*
X018260Y018804D01*
X018260Y019763D01*
X018167Y019801D01*
X018026Y019942D01*
X017950Y020126D01*
X017950Y020324D01*
X018026Y020508D01*
X018167Y020649D01*
X018351Y020725D01*
X018549Y020725D01*
X018733Y020649D01*
X018874Y020508D01*
X018950Y020324D01*
X018950Y020126D01*
X018874Y019942D01*
X018733Y019801D01*
X018640Y019763D01*
X018640Y018646D01*
X018529Y018535D01*
X018159Y018165D01*
X018621Y018165D01*
X019260Y018804D01*
X019260Y019725D01*
X019026Y019725D01*
X018950Y019801D01*
X018950Y020649D01*
X019026Y020725D01*
X019874Y020725D01*
X019950Y020649D01*
X019950Y019801D01*
X019874Y019725D01*
X019640Y019725D01*
X019640Y018646D01*
X019529Y018535D01*
X018779Y017785D01*
X017706Y017785D01*
X017729Y017730D01*
X017729Y017620D01*
X017686Y017517D01*
X017608Y017439D01*
X017505Y017396D01*
X017395Y017396D01*
X017292Y017439D01*
X017246Y017485D01*
X013729Y017485D01*
X013010Y016766D01*
X013010Y013432D01*
X013012Y013434D01*
X013258Y013434D01*
X013288Y013404D01*
X013288Y014851D01*
X013283Y014856D01*
X013283Y015594D01*
X013359Y015670D01*
X013596Y015670D01*
X013673Y015594D01*
X013673Y014856D01*
X013668Y014851D01*
X013668Y013961D01*
X013721Y014015D01*
X014260Y014554D01*
X014260Y014720D01*
X014254Y014830D01*
X014227Y014856D01*
X014227Y015594D01*
X014304Y015670D01*
X014541Y015670D01*
X014617Y015594D01*
X014617Y015140D01*
X014636Y014808D01*
X014640Y014804D01*
X014640Y014730D01*
X014644Y014657D01*
X014640Y014652D01*
X014640Y014396D01*
X013990Y013746D01*
X013990Y013453D01*
X013991Y013454D01*
X014080Y013454D01*
X014080Y013008D01*
X014080Y013008D01*
X014080Y013454D01*
X014169Y013454D01*
X014185Y013449D01*
X014185Y013631D01*
X015121Y014566D01*
X015121Y015151D01*
X015209Y015239D01*
X016041Y015239D01*
X016129Y015151D01*
X016129Y014397D01*
X016041Y014309D01*
X015457Y014309D01*
X015063Y013915D01*
X018279Y013915D01*
X018490Y013704D01*
X018555Y013704D01*
X018658Y013661D01*
X018736Y013583D01*
X018779Y013480D01*
X018779Y013370D01*
X018736Y013267D01*
X018658Y013189D01*
X018555Y013146D01*
X018445Y013146D01*
X018342Y013189D01*
X018264Y013267D01*
X018221Y013370D01*
X018221Y013435D01*
X018121Y013535D01*
X015029Y013535D01*
X014927Y013434D01*
X015148Y013434D01*
X015224Y013358D01*
X015224Y012659D01*
X015215Y012650D01*
X015215Y012321D01*
X015179Y012285D01*
X015179Y012220D01*
X015136Y012117D01*
X015058Y012039D01*
X014955Y011996D01*
X014845Y011996D01*
X014742Y012039D01*
X014664Y012117D01*
X014621Y012220D01*
X014621Y012330D01*
X014664Y012433D01*
X014742Y012511D01*
X014835Y012550D01*
X014835Y012585D01*
X014833Y012583D01*
X014600Y012583D01*
X014600Y011272D01*
X014632Y011240D01*
X015308Y011240D01*
X015308Y011478D01*
X015343Y011512D01*
X015308Y011547D01*
X015308Y011793D01*
X015343Y011827D01*
X015308Y011862D01*
X015308Y012108D01*
X015343Y012142D01*
X015308Y012177D01*
X015308Y012423D01*
X015384Y012499D01*
X016083Y012499D01*
X016091Y012490D01*
X018954Y012490D01*
X018981Y012463D01*
X019243Y012725D01*
X019657Y012725D01*
X019936Y012446D01*
X020235Y012745D01*
X020665Y012745D01*
X020970Y012440D01*
X020970Y012010D01*
X020671Y011711D01*
X020950Y011432D01*
X020950Y011018D01*
X020671Y010739D01*
X020970Y010440D01*
X020970Y010275D01*
X020500Y010275D01*
X020500Y010175D01*
X020970Y010175D01*
X020970Y010010D01*
X020665Y009705D01*
X020500Y009705D01*
X020500Y010175D01*
X020400Y010175D01*
X020400Y009705D01*
X020235Y009705D01*
X019936Y010004D01*
X019657Y009725D01*
X019640Y009725D01*
X019640Y009609D01*
X019768Y009609D01*
X019844Y009533D01*
X019844Y008717D01*
X019768Y008641D01*
X019609Y008641D01*
X019609Y008449D01*
X019651Y008449D01*
X019727Y008373D01*
X019727Y008144D01*
X019764Y008233D01*
X019810Y008279D01*
X019810Y008654D01*
X019921Y008765D01*
X020056Y008900D01*
X020056Y009533D01*
X020132Y009609D01*
X020870Y009609D01*
X020946Y009533D01*
X020946Y008717D01*
X020870Y008641D01*
X020334Y008641D01*
X020190Y008496D01*
X020190Y008279D01*
X020236Y008233D01*
X020279Y008130D01*
X020279Y008020D01*
X020236Y007917D01*
X020158Y007839D01*
X020055Y007796D01*
X019945Y007796D01*
X019842Y007839D01*
X019764Y007917D01*
X019727Y008006D01*
X019727Y007477D01*
X019651Y007401D01*
X019610Y007401D01*
X019610Y006449D01*
X019651Y006449D01*
X019727Y006373D01*
X019727Y005477D01*
X019651Y005401D01*
X019590Y005401D01*
X019590Y004346D01*
X019279Y004035D01*
X019279Y003970D01*
X019236Y003867D01*
X019158Y003789D01*
X019055Y003746D01*
X018945Y003746D01*
X018842Y003789D01*
X018764Y003867D01*
X018721Y003970D01*
X018721Y004080D01*
X018764Y004183D01*
X018842Y004261D01*
X018945Y004304D01*
X019010Y004304D01*
X019210Y004504D01*
X019210Y005401D01*
X019149Y005401D01*
X019073Y005477D01*
X019073Y005715D01*
X018763Y005715D01*
X018660Y005818D01*
X018435Y005818D01*
X018435Y005659D01*
X018359Y005583D01*
X017619Y005583D01*
X016950Y004913D01*
X016862Y004825D01*
X014947Y004825D01*
X016387Y003385D01*
X018387Y003385D01*
X019537Y002235D01*
X019660Y002112D01*
X019660Y001701D01*
X019745Y001666D01*
X019891Y001520D01*
X019970Y001328D01*
X019970Y001122D01*
X019891Y000930D01*
X019745Y000784D01*
X019553Y000705D01*
X019347Y000705D01*
X019155Y000784D01*
X019009Y000930D01*
X018939Y001099D01*
X018874Y000942D01*
X018733Y000801D01*
X018549Y000725D01*
X018351Y000725D01*
X018167Y000801D01*
X018026Y000942D01*
X017950Y001126D01*
X017950Y001324D01*
X018026Y001508D01*
X018167Y001649D01*
X018260Y001687D01*
X018260Y001946D01*
X017521Y002685D01*
X016984Y002685D01*
X016986Y002683D01*
X017040Y002629D01*
X017040Y002626D01*
X017586Y002058D01*
X017640Y002004D01*
X017640Y002001D01*
X017642Y002000D01*
X017640Y001923D01*
X017640Y001687D01*
X017733Y001649D01*
X017874Y001508D01*
X017950Y001324D01*
X017950Y001126D01*
X017874Y000942D01*
X017733Y000801D01*
X017549Y000725D01*
X017351Y000725D01*
X017167Y000801D01*
X017026Y000942D01*
X016950Y001126D01*
X016950Y001324D01*
X017026Y001508D01*
X017167Y001649D01*
X017260Y001687D01*
X017260Y001849D01*
X016769Y002360D01*
X016284Y002360D01*
X016640Y002004D01*
X016640Y001687D01*
X016733Y001649D01*
X016874Y001508D01*
X016950Y001324D01*
X016950Y001126D01*
X016874Y000942D01*
X016733Y000801D01*
X016549Y000725D01*
X016351Y000725D01*
X016167Y000801D01*
X016026Y000942D01*
X015950Y001126D01*
X015950Y001324D01*
X016026Y001508D01*
X016167Y001649D01*
X016260Y001687D01*
X016260Y001846D01*
X015590Y002516D01*
X015590Y001708D01*
X015733Y001649D01*
X015874Y001508D01*
X015950Y001324D01*
X015950Y001126D01*
X015874Y000942D01*
X015733Y000801D01*
X015549Y000725D01*
X015351Y000725D01*
X015167Y000801D01*
X015026Y000942D01*
X014950Y001126D01*
X014950Y001324D01*
X015026Y001508D01*
X015167Y001649D01*
X015210Y001667D01*
X015210Y002446D01*
X014640Y003016D01*
X014640Y001687D01*
X014733Y001649D01*
X014874Y001508D01*
X014950Y001324D01*
X014950Y001126D01*
X014874Y000942D01*
X014733Y000801D01*
X014549Y000725D01*
X014351Y000725D01*
X014167Y000801D01*
X014026Y000942D01*
X013950Y001126D01*
X013950Y001324D01*
X014026Y001508D01*
X014167Y001649D01*
X014260Y001687D01*
X014260Y002996D01*
X012660Y004596D01*
X012660Y006541D01*
X012608Y006489D01*
X012505Y006446D01*
X012468Y006446D01*
X012160Y006138D01*
X012160Y004638D01*
X012037Y004515D01*
X011537Y004015D01*
X009863Y004015D01*
X009740Y004138D01*
X009340Y004538D01*
X009340Y005479D01*
X009142Y005479D01*
X009066Y005555D01*
X009066Y006293D01*
X009142Y006369D01*
X009958Y006369D01*
X010034Y006293D01*
X010034Y005555D01*
X009958Y005479D01*
X009760Y005479D01*
X009760Y004712D01*
X010037Y004435D01*
X011363Y004435D01*
X011740Y004812D01*
X011740Y006312D01*
X012171Y006743D01*
X012171Y006780D01*
X012214Y006883D01*
X012292Y006961D01*
X012395Y007004D01*
X012505Y007004D01*
X012608Y006961D01*
X012660Y006909D01*
X012660Y007034D01*
X012315Y007379D01*
X012315Y008006D01*
X012279Y007996D01*
X012190Y007996D01*
X012190Y008442D01*
X012190Y008887D01*
X012102Y008887D01*
X012092Y008884D01*
X012473Y009265D01*
X014163Y009265D01*
X014337Y009265D01*
X014337Y009265D01*
X014463Y009265D01*
X014637Y009265D01*
X014637Y009265D01*
X015308Y009265D01*
X015308Y009027D01*
X015384Y008951D01*
X015999Y008951D01*
X016014Y008917D01*
X016092Y008839D01*
X016195Y008796D01*
X016305Y008796D01*
X016408Y008839D01*
X016486Y008917D01*
X016523Y009005D01*
X017740Y007788D01*
X017740Y007612D01*
X017533Y007612D01*
X017445Y007524D01*
X017445Y006770D01*
X017533Y006682D01*
X017750Y006682D01*
X017750Y006473D01*
X017541Y006473D01*
X017465Y006396D01*
X017465Y005852D01*
X016738Y005125D01*
X014647Y005125D01*
X014290Y005482D01*
X014290Y007316D01*
X014391Y007216D01*
X014391Y006707D01*
X014467Y006631D01*
X015283Y006631D01*
X015359Y006707D01*
X015359Y006897D01*
X015360Y006896D01*
X015360Y006679D01*
X015314Y006633D01*
X015271Y006530D01*
X015271Y006433D01*
X015249Y006439D01*
X014925Y006439D01*
X014925Y006024D01*
X014825Y006024D01*
X014825Y006439D01*
X014501Y006439D01*
X014463Y006429D01*
X014429Y006409D01*
X014401Y006381D01*
X014381Y006347D01*
X014371Y006309D01*
X014371Y006024D01*
X014825Y006024D01*
X014825Y005924D01*
X014371Y005924D01*
X014371Y005639D01*
X014381Y005601D01*
X014401Y005567D01*
X014429Y005539D01*
X014463Y005519D01*
X014501Y005509D01*
X014825Y005509D01*
X014825Y005924D01*
X014925Y005924D01*
X014925Y006024D01*
X015379Y006024D01*
X015379Y006251D01*
X015392Y006239D01*
X015495Y006196D01*
X015605Y006196D01*
X015708Y006239D01*
X015786Y006317D01*
X015829Y006420D01*
X015829Y006530D01*
X015786Y006633D01*
X015740Y006679D01*
X015740Y007054D01*
X015540Y007254D01*
X015429Y007365D01*
X015359Y007365D01*
X015359Y007445D01*
X015283Y007521D01*
X014623Y007521D01*
X014585Y007559D01*
X014585Y008006D01*
X014621Y007996D01*
X014710Y007996D01*
X014798Y007996D01*
X014837Y008006D01*
X014837Y008007D02*
X014850Y008007D01*
X014845Y008011D02*
X015010Y007846D01*
X015121Y007735D01*
X016146Y007735D01*
X016210Y007671D01*
X016210Y007521D01*
X015992Y007521D01*
X015916Y007445D01*
X015916Y006707D01*
X015992Y006631D01*
X016808Y006631D01*
X016884Y006707D01*
X016884Y006971D01*
X016945Y006946D01*
X017055Y006946D01*
X017158Y006989D01*
X017236Y007067D01*
X017279Y007170D01*
X017279Y007280D01*
X017236Y007383D01*
X017158Y007461D01*
X017055Y007504D01*
X016945Y007504D01*
X016860Y007469D01*
X016808Y007521D01*
X016590Y007521D01*
X016590Y007829D01*
X016415Y008004D01*
X016304Y008115D01*
X015279Y008115D01*
X015224Y008170D01*
X015224Y008791D01*
X015148Y008867D01*
X014902Y008867D01*
X014881Y008846D01*
X014871Y008857D01*
X014837Y008877D01*
X014798Y008887D01*
X014710Y008887D01*
X014710Y008442D01*
X014710Y008442D01*
X014710Y008887D01*
X014621Y008887D01*
X014583Y008877D01*
X014549Y008857D01*
X014538Y008846D01*
X014518Y008867D01*
X014272Y008867D01*
X014252Y008846D01*
X014211Y008887D01*
X013949Y008887D01*
X013908Y008846D01*
X013888Y008867D01*
X013642Y008867D01*
X013607Y008832D01*
X013573Y008867D01*
X013327Y008867D01*
X013293Y008832D01*
X013258Y008867D01*
X013012Y008867D01*
X012978Y008832D01*
X012943Y008867D01*
X012697Y008867D01*
X012663Y008832D01*
X012628Y008867D01*
X012382Y008867D01*
X012362Y008846D01*
X012351Y008857D01*
X012317Y008877D01*
X012279Y008887D01*
X012190Y008887D01*
X012190Y008442D01*
X012190Y008442D01*
X012190Y008442D01*
X012190Y007996D01*
X012102Y007996D01*
X012085Y008001D01*
X012085Y007513D01*
X011510Y006938D01*
X011387Y006815D01*
X011154Y006815D01*
X011154Y006649D01*
X011066Y006561D01*
X010234Y006561D01*
X010146Y006649D01*
X010146Y006756D01*
X010054Y006756D01*
X010054Y006649D01*
X009966Y006561D01*
X009134Y006561D01*
X009046Y006649D01*
X009046Y006756D01*
X008904Y006756D01*
X008904Y006624D01*
X008816Y006536D01*
X008317Y006536D01*
X008144Y006364D01*
X008350Y006364D01*
X008350Y005949D01*
X008450Y005949D01*
X008450Y006364D01*
X008774Y006364D01*
X008812Y006354D01*
X008846Y006334D01*
X008874Y006306D01*
X008894Y006272D01*
X008904Y006234D01*
X008904Y005949D01*
X008450Y005949D01*
X008450Y005849D01*
X008904Y005849D01*
X008904Y005564D01*
X008894Y005526D01*
X008874Y005492D01*
X008846Y005464D01*
X008812Y005444D01*
X008774Y005434D01*
X008450Y005434D01*
X008450Y005849D01*
X008350Y005849D01*
X007896Y005849D01*
X007896Y005564D01*
X007906Y005526D01*
X007926Y005492D01*
X007954Y005464D01*
X007988Y005444D01*
X008026Y005434D01*
X008350Y005434D01*
X008350Y005849D01*
X008350Y005949D01*
X007896Y005949D01*
X007896Y006115D01*
X007720Y005939D01*
X007720Y004337D01*
X009679Y002378D01*
X009720Y002279D01*
X009720Y001676D01*
X009745Y001666D01*
X009891Y001520D01*
X009951Y001373D01*
X009968Y001425D01*
X010005Y001498D01*
X010053Y001564D01*
X010111Y001622D01*
X010177Y001670D01*
X010250Y001707D01*
X010328Y001732D01*
X010400Y001744D01*
X010400Y001275D01*
X010500Y001275D01*
X011400Y001275D01*
X011400Y001744D01*
X011328Y001732D01*
X011250Y001707D01*
X011177Y001670D01*
X011111Y001622D01*
X011053Y001564D01*
X011005Y001498D01*
X010968Y001425D01*
X010950Y001369D01*
X010932Y001425D01*
X010895Y001498D01*
X010847Y001564D01*
X010789Y001622D01*
X010723Y001670D01*
X010650Y001707D01*
X010572Y001732D01*
X010500Y001744D01*
X010500Y001275D01*
X010500Y001175D01*
X010931Y001175D01*
X011400Y001175D01*
X011400Y001275D01*
X011500Y001275D01*
X011500Y001744D01*
X011572Y001732D01*
X011650Y001707D01*
X011723Y001670D01*
X011789Y001622D01*
X011847Y001564D01*
X011895Y001498D01*
X011932Y001425D01*
X011949Y001373D01*
X012009Y001520D01*
X012155Y001666D01*
X012347Y001745D01*
X012553Y001745D01*
X012745Y001666D01*
X012891Y001520D01*
X012970Y001328D01*
X012970Y001122D01*
X012891Y000930D01*
X012745Y000784D01*
X012553Y000705D01*
X012347Y000705D01*
X012155Y000784D01*
X012009Y000930D01*
X011949Y001077D01*
X011932Y001025D01*
X011895Y000952D01*
X011847Y000886D01*
X011789Y000828D01*
X011723Y000780D01*
X011650Y000743D01*
X011572Y000718D01*
X011500Y000706D01*
X011500Y001175D01*
X011400Y001175D01*
X011400Y000706D01*
X011328Y000718D01*
X011250Y000743D01*
X011177Y000780D01*
X011111Y000828D01*
X011053Y000886D01*
X011005Y000952D01*
X010968Y001025D01*
X010950Y001081D01*
X010932Y001025D01*
X010895Y000952D01*
X010847Y000886D01*
X010789Y000828D01*
X010723Y000780D01*
X010650Y000743D01*
X010572Y000718D01*
X010500Y000706D01*
X010500Y001175D01*
X010400Y001175D01*
X010400Y000706D01*
X010328Y000718D01*
X010250Y000743D01*
X010177Y000780D01*
X010111Y000828D01*
X010053Y000886D01*
X010005Y000952D01*
X009968Y001025D01*
X009951Y001077D01*
X009891Y000930D01*
X009745Y000784D01*
X009553Y000705D01*
X009347Y000705D01*
X009155Y000784D01*
X009009Y000930D01*
X008939Y001099D01*
X008874Y000942D01*
X008733Y000801D01*
X008549Y000725D01*
X008351Y000725D01*
X008167Y000801D01*
X008026Y000942D01*
X007950Y001126D01*
X007874Y000942D01*
X007733Y000801D01*
X007549Y000725D01*
X007351Y000725D01*
X007167Y000801D01*
X007026Y000942D01*
X006950Y001126D01*
X006950Y001324D01*
X007026Y001508D01*
X007167Y001649D01*
X007351Y001725D01*
X007549Y001725D01*
X007733Y001649D01*
X007874Y001508D01*
X007950Y001324D01*
X007950Y001126D01*
X007950Y001324D01*
X008026Y001508D01*
X008167Y001649D01*
X008351Y001725D01*
X008549Y001725D01*
X008733Y001649D01*
X008874Y001508D01*
X008939Y001351D01*
X009009Y001520D01*
X009155Y001666D01*
X009180Y001676D01*
X009180Y002113D01*
X007297Y003996D01*
X007221Y004072D01*
X007180Y004171D01*
X007180Y006105D01*
X007221Y006204D01*
X007672Y006655D01*
X006762Y006655D01*
X005603Y005496D01*
X005504Y005455D01*
X001901Y005455D01*
X001891Y005430D01*
X001745Y005284D01*
X001598Y005224D01*
X001650Y005207D01*
X001723Y005170D01*
X001789Y005122D01*
X001847Y005064D01*
X001895Y004998D01*
X001932Y004925D01*
X001957Y004847D01*
X001969Y004775D01*
X001500Y004775D01*
X001500Y004675D01*
X001969Y004675D01*
X001957Y004603D01*
X001932Y004525D01*
X001895Y004452D01*
X001847Y004386D01*
X001789Y004328D01*
X001723Y004280D01*
X001650Y004243D01*
X001594Y004225D01*
X001650Y004207D01*
X001723Y004170D01*
X001789Y004122D01*
X001847Y004064D01*
X001895Y003998D01*
X001932Y003925D01*
X001957Y003847D01*
X001969Y003775D01*
X001500Y003775D01*
X001400Y003775D01*
X001400Y004206D01*
X001400Y004675D01*
X001500Y004675D01*
X001500Y003775D01*
X001500Y003675D01*
X001969Y003675D01*
X001957Y003603D01*
X001932Y003525D01*
X001895Y003452D01*
X001847Y003386D01*
X001789Y003328D01*
X001723Y003280D01*
X001650Y003243D01*
X001572Y003218D01*
X001500Y003206D01*
X001500Y003675D01*
X001400Y003675D01*
X001400Y003206D01*
X001328Y003218D01*
X001250Y003243D01*
X001177Y003280D01*
X001111Y003328D01*
X001053Y003386D01*
X001005Y003452D01*
X000968Y003525D01*
X000943Y003603D01*
X000931Y003675D01*
X001400Y003675D01*
X001400Y003775D01*
X000931Y003775D01*
X000943Y003847D01*
X000968Y003925D01*
X001005Y003998D01*
X001053Y004064D01*
X001111Y004122D01*
X001177Y004170D01*
X001250Y004207D01*
X001306Y004225D01*
X001250Y004243D01*
X001177Y004280D01*
X001111Y004328D01*
X001053Y004386D01*
X001005Y004452D01*
X000968Y004525D01*
X000943Y004603D01*
X000931Y004675D01*
X001400Y004675D01*
X001400Y004775D01*
X000931Y004775D01*
X000943Y004847D01*
X000968Y004925D01*
X001005Y004998D01*
X001053Y005064D01*
X001111Y005122D01*
X001177Y005170D01*
X001250Y005207D01*
X001302Y005224D01*
X001155Y005284D01*
X001009Y005430D01*
X000930Y005622D01*
X000930Y005828D01*
X001009Y006020D01*
X001155Y006166D01*
X001324Y006236D01*
X001167Y006301D01*
X001026Y006442D01*
X000950Y006626D01*
X000950Y006824D01*
X001026Y007008D01*
X001167Y007149D01*
X001351Y007225D01*
X001549Y007225D01*
X001733Y007301D01*
X001874Y007442D01*
X001950Y007626D01*
X001950Y007824D01*
X001874Y008008D01*
X001733Y008149D01*
X001549Y008225D01*
X001351Y008225D01*
X001167Y008149D01*
X001026Y008008D01*
X000950Y007824D01*
X000950Y007626D01*
X001026Y007442D01*
X001167Y007301D01*
X001351Y007225D01*
X001549Y007225D01*
X001733Y007149D01*
X001874Y007008D01*
X001950Y006824D01*
X001950Y006626D01*
X001874Y006442D01*
X001733Y006301D01*
X001576Y006236D01*
X001745Y006166D01*
X001891Y006020D01*
X001901Y005995D01*
X005338Y005995D01*
X006421Y007078D01*
X006497Y007154D01*
X006596Y007195D01*
X007748Y007195D01*
X006897Y008046D01*
X006821Y008122D01*
X006780Y008221D01*
X006780Y009879D01*
X006821Y009978D01*
X007830Y010987D01*
X007830Y011120D01*
X007733Y011120D01*
X007645Y011208D01*
X007645Y012042D01*
X007733Y012130D01*
X007830Y012130D01*
X007830Y012351D01*
X007762Y012351D01*
X007674Y012439D01*
X007674Y013115D01*
X007762Y013203D01*
X008438Y013203D01*
X008526Y013115D01*
X008526Y012439D01*
X008438Y012351D01*
X008370Y012351D01*
X008370Y012130D01*
X008487Y012130D01*
X008575Y012042D01*
X008575Y011208D01*
X008487Y011120D01*
X008370Y011120D01*
X008370Y010821D01*
X008329Y010722D01*
X007320Y009713D01*
X007320Y008387D01*
X008241Y007466D01*
X008816Y007466D01*
X008904Y007378D01*
X008904Y007296D01*
X009046Y007296D01*
X009046Y007403D01*
X009134Y007491D01*
X009966Y007491D01*
X010054Y007403D01*
X010054Y007296D01*
X010146Y007296D01*
X010146Y007403D01*
X010234Y007491D01*
X011066Y007491D01*
X011154Y007403D01*
X011154Y007235D01*
X011213Y007235D01*
X011665Y007687D01*
X011665Y008075D01*
X011656Y008084D01*
X011656Y008799D01*
X011675Y008818D01*
X011675Y009033D01*
X012190Y009548D01*
X012190Y009548D01*
X012307Y009665D01*
X013194Y009665D01*
X013171Y009720D01*
X013171Y009830D01*
X013214Y009933D01*
X013270Y009989D01*
X013270Y011250D01*
X012979Y011542D01*
X012979Y011470D01*
X012936Y011367D01*
X012890Y011321D01*
X012890Y010446D01*
X012779Y010335D01*
X012034Y009590D01*
X011590Y009590D01*
X011592Y009588D01*
X011592Y009342D01*
X011557Y009308D01*
X011592Y009273D01*
X011592Y009027D01*
X011516Y008951D01*
X010817Y008951D01*
X010809Y008960D01*
X010035Y008960D01*
X010035Y008746D01*
X009959Y008670D01*
X009141Y008670D01*
X009065Y008746D01*
X009065Y009421D01*
X008679Y009035D01*
X008004Y009035D01*
X007958Y008989D01*
X007855Y008946D01*
X007745Y008946D01*
X007642Y008989D01*
X007564Y009067D01*
X007521Y009170D01*
X007521Y009280D01*
X007564Y009383D01*
X007642Y009461D01*
X007745Y009504D01*
X007855Y009504D01*
X007958Y009461D01*
X008004Y009415D01*
X008521Y009415D01*
X008971Y009865D01*
X009054Y009865D01*
X009045Y009900D01*
X009045Y010185D01*
X009500Y010185D01*
X009500Y010285D01*
X009500Y010700D01*
X009175Y010700D01*
X009137Y010690D01*
X009103Y010670D01*
X009075Y010642D01*
X009055Y010608D01*
X009045Y010570D01*
X009045Y010285D01*
X009500Y010285D01*
X009600Y010285D01*
X009600Y010700D01*
X009856Y010700D01*
X009071Y011485D01*
X008960Y011596D01*
X008960Y018446D01*
X008643Y018764D01*
X008549Y018725D01*
X008351Y018725D01*
X008167Y018801D01*
X008026Y018942D01*
X007950Y019126D01*
X007950Y019324D01*
X008026Y019508D01*
X008167Y019649D01*
X008240Y019679D01*
X008240Y019962D01*
X008330Y020052D01*
X008300Y020126D01*
X008300Y020324D01*
X008376Y020508D01*
X008517Y020649D01*
X008604Y020685D01*
X007996Y020685D01*
X008083Y020649D01*
X008224Y020508D01*
X008300Y020324D01*
X008300Y020126D01*
X008224Y019942D01*
X008083Y019801D01*
X007899Y019725D01*
X007701Y019725D01*
X007660Y019742D01*
X007660Y019679D01*
X007733Y019649D01*
X007874Y019508D01*
X007950Y019324D01*
X007950Y019126D01*
X007874Y018942D01*
X007733Y018801D01*
X007549Y018725D01*
X007351Y018725D01*
X007167Y018801D01*
X007026Y018942D01*
X006950Y019126D01*
X006950Y019324D01*
X007026Y019508D01*
X007167Y019649D01*
X007240Y019679D01*
X007240Y019962D01*
X007330Y020052D01*
X007300Y020126D01*
X007300Y020324D01*
X007376Y020508D01*
X007517Y020649D01*
X007604Y020685D01*
X006996Y020685D01*
X007083Y020649D01*
X007224Y020508D01*
X007300Y020324D01*
X007300Y020126D01*
X007224Y019942D01*
X007083Y019801D01*
X006899Y019725D01*
X006701Y019725D01*
X006660Y019742D01*
X006660Y019679D01*
X006733Y019649D01*
X006874Y019508D01*
X006950Y019324D01*
X006950Y019126D01*
X006874Y018942D01*
X006733Y018801D01*
X006549Y018725D01*
X006351Y018725D01*
X006167Y018801D01*
X006026Y018942D01*
X005950Y019126D01*
X005950Y019324D01*
X006026Y019508D01*
X006167Y019649D01*
X006240Y019679D01*
X006240Y019962D01*
X006330Y020052D01*
X006300Y020126D01*
X006300Y020324D01*
X006376Y020508D01*
X006517Y020649D01*
X006604Y020685D01*
X005996Y020685D01*
X006083Y020649D01*
X006224Y020508D01*
X006300Y020324D01*
X006300Y020126D01*
X006224Y019942D01*
X006083Y019801D01*
X005899Y019725D01*
X005701Y019725D01*
X005660Y019742D01*
X005660Y019679D01*
X005733Y019649D01*
X005874Y019508D01*
X005950Y019324D01*
X005950Y019126D01*
X005874Y018942D01*
X005733Y018801D01*
X005549Y018725D01*
X005351Y018725D01*
X005167Y018801D01*
X005026Y018942D01*
X004958Y019107D01*
X004957Y019103D01*
X004932Y019025D01*
X004895Y018952D01*
X004847Y018886D01*
X004789Y018828D01*
X004723Y018780D01*
X004650Y018743D01*
X004572Y018718D01*
X004500Y018706D01*
X004500Y019175D01*
X004400Y019175D01*
X004400Y018706D01*
X004328Y018718D01*
X004250Y018743D01*
X004177Y018780D01*
X004111Y018828D01*
X004053Y018886D01*
X004005Y018952D01*
X003968Y019025D01*
X003943Y019103D01*
X003942Y019107D01*
X003874Y018942D01*
X003733Y018801D01*
X003549Y018725D01*
X003351Y018725D01*
X003167Y018801D01*
X003026Y018942D01*
X002950Y019126D01*
X002950Y019324D01*
X003026Y019508D01*
X003167Y019649D01*
X003240Y019679D01*
X003240Y019962D01*
X003330Y020052D01*
X003300Y020126D01*
X003300Y020324D01*
X003376Y020508D01*
X003517Y020649D01*
X003604Y020685D01*
X002996Y020685D01*
X003083Y020649D01*
X003224Y020508D01*
X003300Y020324D01*
X003300Y020126D01*
X003224Y019942D01*
X003083Y019801D01*
X002899Y019725D01*
X002701Y019725D01*
X002660Y019742D01*
X002660Y019679D01*
X002733Y019649D01*
X002874Y019508D01*
X002950Y019324D01*
X002950Y019126D01*
X002874Y018942D01*
X002733Y018801D01*
X002549Y018725D01*
X002351Y018725D01*
X002167Y018801D01*
X002026Y018942D01*
X001950Y019126D01*
X001950Y019324D01*
X002026Y019508D01*
X002167Y019649D01*
X002240Y019679D01*
X002240Y019962D01*
X002330Y020052D01*
X002300Y020126D01*
X002300Y020324D01*
X002376Y020508D01*
X002517Y020649D01*
X002604Y020685D01*
X002329Y020685D01*
X002188Y020544D01*
X002224Y020508D01*
X002300Y020324D01*
X002300Y020126D01*
X002224Y019942D01*
X002083Y019801D01*
X001899Y019725D01*
X001701Y019725D01*
X001660Y019742D01*
X001660Y019679D01*
X001733Y019649D01*
X001874Y019508D01*
X001950Y019324D01*
X001950Y019126D01*
X001874Y018942D01*
X001733Y018801D01*
X001549Y018725D01*
X001351Y018725D01*
X001167Y018801D01*
X001026Y018942D01*
X000950Y019126D01*
X000950Y019324D01*
X001026Y019508D01*
X001167Y019649D01*
X001240Y019679D01*
X001240Y019962D01*
X001330Y020052D01*
X001300Y020126D01*
X001300Y020324D01*
X001376Y020508D01*
X001517Y020649D01*
X001701Y020725D01*
X001831Y020725D01*
X002060Y020954D01*
X002141Y021035D01*
X001864Y021035D01*
X001704Y021025D01*
X001396Y020942D01*
X001119Y020782D01*
X000893Y020556D01*
X000733Y020279D01*
X000650Y019971D01*
X000640Y019811D01*
X000640Y017775D01*
X004333Y017775D01*
X004450Y017658D01*
X004450Y015872D01*
X004540Y015962D01*
X004540Y016312D01*
X004840Y016612D01*
X004963Y016735D01*
X005345Y016735D01*
X005345Y016934D01*
X005421Y017010D01*
X006159Y017010D01*
X006235Y016934D01*
X006235Y016116D01*
X006159Y016040D01*
X005421Y016040D01*
X005345Y016116D01*
X005345Y016315D01*
X005137Y016315D01*
X004960Y016138D01*
X004960Y015788D01*
X004837Y015665D01*
X004607Y015435D01*
X004813Y015435D01*
X004913Y015535D01*
X005345Y015535D01*
X005345Y015734D01*
X005421Y015810D01*
X006159Y015810D01*
X006235Y015734D01*
X006235Y014916D01*
X006159Y014840D01*
X005421Y014840D01*
X005345Y014916D01*
X005345Y015115D01*
X005087Y015115D01*
X004987Y015015D01*
X004371Y015015D01*
X004371Y014768D01*
X004381Y014751D01*
X004391Y014713D01*
X004391Y014595D01*
X003631Y014595D01*
X002871Y014595D01*
X002871Y014477D01*
X002881Y014439D01*
X002883Y014435D01*
X002863Y014435D01*
X002777Y014349D01*
X002777Y014424D01*
X002727Y014544D01*
X002635Y014636D01*
X002515Y014686D01*
X002385Y014686D01*
X002300Y014651D01*
X002300Y015028D01*
X002891Y015619D01*
X002891Y015388D01*
X002896Y015382D01*
X002891Y015377D01*
X002891Y015073D01*
X002896Y015068D01*
X002891Y015062D01*
X002891Y014768D01*
X002881Y014751D01*
X002871Y014713D01*
X002871Y014595D01*
X003631Y014595D01*
X003631Y014595D01*
X003631Y014595D01*
X004391Y014595D01*
X004391Y014477D01*
X004381Y014439D01*
X004379Y014435D01*
X005204Y014435D01*
X005204Y014633D01*
X005280Y014709D01*
X006018Y014709D01*
X006094Y014633D01*
X006094Y013817D01*
X006018Y013741D01*
X005280Y013741D01*
X005204Y013817D01*
X005204Y014015D01*
X004450Y014015D01*
X004450Y013139D01*
X004450Y013138D01*
X004450Y013056D01*
X004450Y012973D01*
X004450Y012973D01*
X004450Y012973D01*
X004391Y012915D01*
X004333Y012856D01*
X004333Y012856D01*
X004157Y012681D01*
X004157Y012681D01*
X004098Y012623D01*
X004040Y012565D01*
X004039Y012565D01*
X004039Y012565D01*
X003956Y012565D01*
X003874Y012565D01*
X003874Y012566D01*
X003166Y012569D01*
X003166Y012325D01*
X002751Y012325D01*
X002751Y012225D01*
X002751Y011771D01*
X003036Y011771D01*
X003074Y011781D01*
X003108Y011801D01*
X003136Y011829D01*
X003156Y011863D01*
X003166Y011901D01*
X003166Y012225D01*
X002751Y012225D01*
X002651Y012225D01*
X002651Y011771D01*
X002366Y011771D01*
X002350Y011775D01*
X002350Y011723D01*
X002375Y011730D01*
X002660Y011730D01*
X002660Y011275D01*
X002760Y011275D01*
X003175Y011275D01*
X003175Y011600D01*
X003165Y011638D01*
X003145Y011672D01*
X003117Y011700D01*
X003083Y011720D01*
X003045Y011730D01*
X002760Y011730D01*
X002760Y011275D01*
X002760Y011175D01*
X003175Y011175D01*
X003175Y010850D01*
X003165Y010812D01*
X003145Y010778D01*
X003117Y010750D01*
X003083Y010730D01*
X003045Y010720D01*
X002760Y010720D01*
X002760Y011175D01*
X002660Y011175D01*
X002660Y010720D01*
X002375Y010720D01*
X002350Y010727D01*
X002350Y010542D01*
X002233Y010425D01*
X000640Y010425D01*
X000640Y002331D01*
X000673Y002410D01*
X000765Y002502D01*
X000885Y002552D01*
X001015Y002552D01*
X001135Y002502D01*
X001227Y002410D01*
X001277Y002290D01*
X001277Y002160D01*
X001227Y002040D01*
X001135Y001948D01*
X001015Y001898D01*
X000885Y001898D01*
X000765Y001948D01*
X000673Y002040D01*
X000640Y002119D01*
X000640Y001639D01*
X000650Y001479D01*
X000733Y001171D01*
X000723Y001210D02*
X001539Y001210D01*
X001551Y001309D02*
X000696Y001309D01*
X000670Y001407D02*
X001568Y001407D01*
X001586Y001506D02*
X000649Y001506D01*
X000642Y001604D02*
X001630Y001604D01*
X001686Y001703D02*
X000640Y001703D01*
X000640Y001801D02*
X001743Y001801D01*
X001854Y001900D02*
X001018Y001900D01*
X000882Y001900D02*
X000640Y001900D01*
X000640Y001998D02*
X000715Y001998D01*
X000649Y002097D02*
X000640Y002097D01*
X000640Y002392D02*
X000665Y002392D01*
X000640Y002491D02*
X000753Y002491D01*
X000640Y002589D02*
X008704Y002589D01*
X008606Y002688D02*
X000640Y002688D01*
X000640Y002786D02*
X008507Y002786D01*
X008409Y002885D02*
X000640Y002885D01*
X000640Y002983D02*
X008310Y002983D01*
X008212Y003082D02*
X000640Y003082D01*
X000640Y003180D02*
X008113Y003180D01*
X008015Y003279D02*
X001719Y003279D01*
X001837Y003377D02*
X007916Y003377D01*
X007818Y003476D02*
X001906Y003476D01*
X001948Y003574D02*
X007719Y003574D01*
X007621Y003673D02*
X001968Y003673D01*
X001950Y003870D02*
X007424Y003870D01*
X007325Y003968D02*
X001910Y003968D01*
X001844Y004067D02*
X007227Y004067D01*
X007183Y004165D02*
X001729Y004165D01*
X001690Y004264D02*
X007180Y004264D01*
X007180Y004362D02*
X001822Y004362D01*
X001899Y004461D02*
X007180Y004461D01*
X007180Y004559D02*
X001943Y004559D01*
X001966Y004658D02*
X007180Y004658D01*
X007180Y004756D02*
X001500Y004756D01*
X001500Y004658D02*
X001400Y004658D01*
X001400Y004756D02*
X000640Y004756D01*
X000640Y004658D02*
X000934Y004658D01*
X000957Y004559D02*
X000640Y004559D01*
X000640Y004461D02*
X001001Y004461D01*
X001078Y004362D02*
X000640Y004362D01*
X000640Y004264D02*
X001210Y004264D01*
X001171Y004165D02*
X000640Y004165D01*
X000640Y004067D02*
X001056Y004067D01*
X000990Y003968D02*
X000640Y003968D01*
X000640Y003870D02*
X000950Y003870D01*
X000932Y003673D02*
X000640Y003673D01*
X000640Y003771D02*
X001400Y003771D01*
X001400Y003673D02*
X001500Y003673D01*
X001500Y003771D02*
X007522Y003771D01*
X007892Y004165D02*
X009713Y004165D01*
X009812Y004067D02*
X007990Y004067D01*
X008089Y003968D02*
X013288Y003968D01*
X013190Y004067D02*
X011588Y004067D01*
X011687Y004165D02*
X013091Y004165D01*
X012993Y004264D02*
X011785Y004264D01*
X011884Y004362D02*
X012894Y004362D01*
X012796Y004461D02*
X011982Y004461D01*
X012081Y004559D02*
X012697Y004559D01*
X012660Y004658D02*
X012160Y004658D01*
X012160Y004756D02*
X012660Y004756D01*
X012660Y004855D02*
X012160Y004855D01*
X012160Y004953D02*
X012660Y004953D01*
X012660Y005052D02*
X012160Y005052D01*
X012160Y005150D02*
X012660Y005150D01*
X012660Y005249D02*
X012160Y005249D01*
X012160Y005347D02*
X012660Y005347D01*
X012660Y005446D02*
X012160Y005446D01*
X012160Y005544D02*
X012660Y005544D01*
X012660Y005643D02*
X012160Y005643D01*
X012160Y005741D02*
X012660Y005741D01*
X012660Y005840D02*
X012160Y005840D01*
X012160Y005938D02*
X012660Y005938D01*
X012660Y006037D02*
X012160Y006037D01*
X012160Y006135D02*
X012660Y006135D01*
X012660Y006234D02*
X012255Y006234D01*
X012354Y006332D02*
X012660Y006332D01*
X012660Y006431D02*
X012452Y006431D01*
X012648Y006529D02*
X012660Y006529D01*
X012646Y006923D02*
X012660Y006923D01*
X012660Y007022D02*
X011594Y007022D01*
X011692Y007120D02*
X012574Y007120D01*
X012475Y007219D02*
X011791Y007219D01*
X011889Y007317D02*
X012377Y007317D01*
X012315Y007416D02*
X011988Y007416D01*
X012085Y007514D02*
X012315Y007514D01*
X012315Y007613D02*
X012085Y007613D01*
X012085Y007711D02*
X012315Y007711D01*
X012315Y007810D02*
X012085Y007810D01*
X012085Y007908D02*
X012315Y007908D01*
X012190Y008007D02*
X012190Y008007D01*
X012190Y008105D02*
X012190Y008105D01*
X012190Y008204D02*
X012190Y008204D01*
X012190Y008302D02*
X012190Y008302D01*
X012190Y008401D02*
X012190Y008401D01*
X012190Y008499D02*
X012190Y008499D01*
X012190Y008598D02*
X012190Y008598D01*
X012190Y008696D02*
X012190Y008696D01*
X012190Y008795D02*
X012190Y008795D01*
X012101Y008893D02*
X016038Y008893D01*
X016462Y008893D02*
X016635Y008893D01*
X016733Y008795D02*
X015220Y008795D01*
X015224Y008696D02*
X016832Y008696D01*
X016930Y008598D02*
X015224Y008598D01*
X015224Y008499D02*
X017029Y008499D01*
X017127Y008401D02*
X015224Y008401D01*
X015224Y008302D02*
X017226Y008302D01*
X017324Y008204D02*
X015224Y008204D01*
X014948Y007908D02*
X014585Y007908D01*
X014585Y007810D02*
X015047Y007810D01*
X014845Y008011D02*
X014837Y008006D01*
X014710Y008007D02*
X014710Y008007D01*
X014710Y007996D02*
X014710Y008442D01*
X014710Y008442D01*
X014710Y007996D01*
X014710Y008105D02*
X014710Y008105D01*
X014710Y008204D02*
X014710Y008204D01*
X014710Y008302D02*
X014710Y008302D01*
X014710Y008401D02*
X014710Y008401D01*
X014710Y008499D02*
X014710Y008499D01*
X014710Y008598D02*
X014710Y008598D01*
X014710Y008696D02*
X014710Y008696D01*
X014710Y008795D02*
X014710Y008795D01*
X014463Y009265D02*
X014463Y009265D01*
X014450Y009465D02*
X014400Y009515D01*
X014450Y009465D02*
X015733Y009465D01*
X016159Y009675D02*
X016159Y009903D01*
X016124Y009938D01*
X016159Y009972D01*
X016159Y010218D01*
X016138Y010238D01*
X016149Y010249D01*
X016169Y010283D01*
X016179Y010321D01*
X016179Y010410D01*
X015733Y010410D01*
X015288Y010410D01*
X015288Y010321D01*
X015298Y010285D01*
X015259Y010285D01*
X015079Y010465D01*
X015079Y010530D01*
X015036Y010633D01*
X014958Y010711D01*
X014855Y010754D01*
X014745Y010754D01*
X014642Y010711D01*
X014600Y010669D01*
X014600Y010778D01*
X014662Y010840D01*
X015308Y010840D01*
X015308Y010602D01*
X015329Y010582D01*
X015318Y010571D01*
X015298Y010537D01*
X015288Y010499D01*
X015288Y010410D01*
X015733Y010410D01*
X015733Y010410D01*
X015733Y010410D01*
X016179Y010410D01*
X016179Y010499D01*
X016169Y010536D01*
X016616Y010536D01*
X016616Y010357D01*
X016692Y010281D01*
X017508Y010281D01*
X017540Y010313D01*
X017540Y010063D01*
X017512Y010079D01*
X017474Y010089D01*
X017150Y010089D01*
X017150Y009674D01*
X017050Y009674D01*
X017050Y010089D01*
X016726Y010089D01*
X016688Y010079D01*
X016654Y010059D01*
X016626Y010031D01*
X016606Y009997D01*
X016596Y009959D01*
X016596Y009674D01*
X017050Y009674D01*
X017050Y009574D01*
X016596Y009574D01*
X016596Y009526D01*
X016447Y009675D01*
X016159Y009675D01*
X016159Y009681D02*
X016596Y009681D01*
X016596Y009780D02*
X016159Y009780D01*
X016159Y009878D02*
X016596Y009878D01*
X016600Y009977D02*
X016159Y009977D01*
X016159Y010075D02*
X016682Y010075D01*
X017050Y010075D02*
X017150Y010075D01*
X017150Y009977D02*
X017050Y009977D01*
X017050Y009878D02*
X017150Y009878D01*
X017150Y009780D02*
X017050Y009780D01*
X017050Y009681D02*
X017150Y009681D01*
X017150Y009574D02*
X017150Y009159D01*
X017474Y009159D01*
X017512Y009169D01*
X017540Y009185D01*
X017540Y009038D01*
X017663Y008915D01*
X017963Y008615D01*
X018366Y008615D01*
X018392Y008589D01*
X018495Y008546D01*
X018605Y008546D01*
X018708Y008589D01*
X018786Y008667D01*
X018829Y008770D01*
X018829Y008880D01*
X018786Y008983D01*
X018708Y009061D01*
X018605Y009104D01*
X018495Y009104D01*
X018392Y009061D01*
X018366Y009035D01*
X018137Y009035D01*
X018013Y009159D01*
X018250Y009159D01*
X018250Y009574D01*
X018350Y009574D01*
X018350Y009674D01*
X018250Y009674D01*
X018250Y010089D01*
X017960Y010089D01*
X017960Y010261D01*
X018716Y010261D01*
X018804Y010349D01*
X018804Y010934D01*
X018860Y010989D01*
X018860Y011125D01*
X018903Y011168D01*
X018947Y011272D01*
X018950Y011269D01*
X018950Y011018D01*
X019243Y010725D01*
X018950Y010432D01*
X018950Y010018D01*
X019243Y009725D01*
X019260Y009725D01*
X019260Y009609D01*
X019030Y009609D01*
X018954Y009533D01*
X018954Y008717D01*
X019030Y008641D01*
X019189Y008641D01*
X019189Y008449D01*
X019149Y008449D01*
X019073Y008373D01*
X019073Y007477D01*
X019149Y007401D01*
X019190Y007401D01*
X019190Y006449D01*
X019149Y006449D01*
X019073Y006373D01*
X019073Y006135D01*
X018937Y006135D01*
X018834Y006238D01*
X018435Y006238D01*
X018435Y006396D01*
X018359Y006473D01*
X018100Y006473D01*
X018100Y006682D01*
X018367Y006682D01*
X018455Y006770D01*
X018455Y007524D01*
X018367Y007612D01*
X018160Y007612D01*
X018160Y007962D01*
X016963Y009159D01*
X017050Y009159D01*
X017050Y009574D01*
X017150Y009574D01*
X017150Y009484D02*
X017050Y009484D01*
X017050Y009386D02*
X017150Y009386D01*
X017150Y009287D02*
X017050Y009287D01*
X017050Y009189D02*
X017150Y009189D01*
X017032Y009090D02*
X017540Y009090D01*
X017586Y008992D02*
X017130Y008992D01*
X017229Y008893D02*
X017685Y008893D01*
X017783Y008795D02*
X017327Y008795D01*
X017426Y008696D02*
X017882Y008696D01*
X017623Y008499D02*
X019189Y008499D01*
X019189Y008598D02*
X018717Y008598D01*
X018798Y008696D02*
X018975Y008696D01*
X018954Y008795D02*
X018829Y008795D01*
X018824Y008893D02*
X018954Y008893D01*
X018954Y008992D02*
X018778Y008992D01*
X018639Y009090D02*
X018954Y009090D01*
X018954Y009189D02*
X018746Y009189D01*
X018774Y009217D01*
X018794Y009251D01*
X018804Y009289D01*
X018804Y009574D01*
X018350Y009574D01*
X018350Y009159D01*
X018674Y009159D01*
X018712Y009169D01*
X018746Y009189D01*
X018804Y009287D02*
X018954Y009287D01*
X018954Y009386D02*
X018804Y009386D01*
X018804Y009484D02*
X018954Y009484D01*
X019003Y009583D02*
X018350Y009583D01*
X018350Y009674D02*
X018804Y009674D01*
X018804Y009959D01*
X018794Y009997D01*
X018774Y010031D01*
X018746Y010059D01*
X018712Y010079D01*
X018674Y010089D01*
X018350Y010089D01*
X018350Y009674D01*
X018350Y009681D02*
X018250Y009681D01*
X018250Y009780D02*
X018350Y009780D01*
X018350Y009878D02*
X018250Y009878D01*
X018250Y009977D02*
X018350Y009977D01*
X018350Y010075D02*
X018250Y010075D01*
X017960Y010174D02*
X018950Y010174D01*
X018950Y010272D02*
X018727Y010272D01*
X018804Y010371D02*
X018950Y010371D01*
X018987Y010469D02*
X018804Y010469D01*
X018804Y010568D02*
X019085Y010568D01*
X019184Y010666D02*
X018804Y010666D01*
X018804Y010765D02*
X019203Y010765D01*
X019243Y010725D02*
X019657Y010725D01*
X019936Y010446D01*
X020229Y010739D01*
X019950Y011018D01*
X019950Y011432D01*
X019961Y011443D01*
X019869Y011535D01*
X019847Y011535D01*
X019950Y011432D01*
X019950Y011018D01*
X019657Y010725D01*
X019243Y010725D01*
X019105Y010863D02*
X018804Y010863D01*
X018832Y010962D02*
X019006Y010962D01*
X018950Y011060D02*
X018860Y011060D01*
X018894Y011159D02*
X018950Y011159D01*
X018940Y011257D02*
X018950Y011257D01*
X019697Y010765D02*
X020203Y010765D01*
X020156Y010666D02*
X019716Y010666D01*
X019815Y010568D02*
X020057Y010568D01*
X019959Y010469D02*
X019913Y010469D01*
X019795Y010863D02*
X020105Y010863D01*
X020006Y010962D02*
X019894Y010962D01*
X019950Y011060D02*
X019950Y011060D01*
X019950Y011159D02*
X019950Y011159D01*
X019950Y011257D02*
X019950Y011257D01*
X019950Y011356D02*
X019950Y011356D01*
X019950Y011454D02*
X019928Y011454D01*
X020731Y011651D02*
X021260Y011651D01*
X021260Y011553D02*
X020830Y011553D01*
X020928Y011454D02*
X021260Y011454D01*
X021260Y011356D02*
X020950Y011356D01*
X020950Y011257D02*
X021260Y011257D01*
X021260Y011159D02*
X020950Y011159D01*
X020950Y011060D02*
X021260Y011060D01*
X021260Y010962D02*
X020894Y010962D01*
X020795Y010863D02*
X021260Y010863D01*
X021260Y010765D02*
X020697Y010765D01*
X020744Y010666D02*
X021260Y010666D01*
X021260Y010568D02*
X020843Y010568D01*
X020941Y010469D02*
X021260Y010469D01*
X021260Y010371D02*
X020970Y010371D01*
X020970Y010174D02*
X021260Y010174D01*
X021260Y010272D02*
X020500Y010272D01*
X020500Y010174D02*
X020400Y010174D01*
X020400Y010075D02*
X020500Y010075D01*
X020500Y009977D02*
X020400Y009977D01*
X020400Y009878D02*
X020500Y009878D01*
X020500Y009780D02*
X020400Y009780D01*
X020160Y009780D02*
X019712Y009780D01*
X019640Y009681D02*
X021260Y009681D01*
X021260Y009583D02*
X020897Y009583D01*
X020946Y009484D02*
X021260Y009484D01*
X021260Y009386D02*
X020946Y009386D01*
X020946Y009287D02*
X021260Y009287D01*
X021260Y009189D02*
X020946Y009189D01*
X020946Y009090D02*
X021260Y009090D01*
X021260Y008992D02*
X020946Y008992D01*
X020946Y008893D02*
X021260Y008893D01*
X021260Y008795D02*
X020946Y008795D01*
X020925Y008696D02*
X021260Y008696D01*
X021260Y008598D02*
X020291Y008598D01*
X020193Y008499D02*
X021260Y008499D01*
X021189Y008439D02*
X021155Y008458D01*
X021117Y008469D01*
X020948Y008469D01*
X020948Y007973D01*
X021247Y007973D01*
X021247Y008338D01*
X021237Y008377D01*
X021217Y008411D01*
X021189Y008439D01*
X021223Y008401D02*
X021260Y008401D01*
X021247Y008302D02*
X021260Y008302D01*
X021247Y008204D02*
X021260Y008204D01*
X021247Y008105D02*
X021260Y008105D01*
X021247Y008007D02*
X021260Y008007D01*
X021260Y007908D02*
X020948Y007908D01*
X020948Y007877D02*
X020948Y007973D01*
X020852Y007973D01*
X020852Y007877D01*
X020948Y007877D01*
X021247Y007877D01*
X021247Y007512D01*
X021237Y007473D01*
X021217Y007439D01*
X021189Y007411D01*
X021155Y007392D01*
X021117Y007381D01*
X020948Y007381D01*
X020948Y007877D01*
X020948Y007810D02*
X020852Y007810D01*
X020852Y007877D02*
X020852Y007381D01*
X020683Y007381D01*
X020645Y007392D01*
X020611Y007411D01*
X020583Y007439D01*
X020563Y007473D01*
X020553Y007512D01*
X020553Y007877D01*
X020852Y007877D01*
X020852Y007908D02*
X020227Y007908D01*
X020274Y008007D02*
X020553Y008007D01*
X020553Y007973D02*
X020852Y007973D01*
X020852Y008469D01*
X020683Y008469D01*
X020645Y008458D01*
X020611Y008439D01*
X020583Y008411D01*
X020563Y008377D01*
X020553Y008338D01*
X020553Y007973D01*
X020553Y008105D02*
X020279Y008105D01*
X020249Y008204D02*
X020553Y008204D01*
X020553Y008302D02*
X020190Y008302D01*
X020190Y008401D02*
X020577Y008401D01*
X020852Y008401D02*
X020948Y008401D01*
X020948Y008302D02*
X020852Y008302D01*
X020852Y008204D02*
X020948Y008204D01*
X020948Y008105D02*
X020852Y008105D01*
X020852Y008007D02*
X020948Y008007D01*
X020948Y007711D02*
X020852Y007711D01*
X020852Y007613D02*
X020948Y007613D01*
X020948Y007514D02*
X020852Y007514D01*
X020852Y007416D02*
X020948Y007416D01*
X021193Y007416D02*
X021260Y007416D01*
X021247Y007514D02*
X021260Y007514D01*
X021247Y007613D02*
X021260Y007613D01*
X021247Y007711D02*
X021260Y007711D01*
X021247Y007810D02*
X021260Y007810D01*
X021260Y007317D02*
X019610Y007317D01*
X019610Y007219D02*
X021260Y007219D01*
X021260Y007120D02*
X019610Y007120D01*
X019610Y007022D02*
X021260Y007022D01*
X021260Y006923D02*
X019610Y006923D01*
X019610Y006825D02*
X021260Y006825D01*
X021260Y006726D02*
X019610Y006726D01*
X019610Y006628D02*
X021260Y006628D01*
X021260Y006529D02*
X019610Y006529D01*
X019669Y006431D02*
X020603Y006431D01*
X020611Y006439D02*
X020583Y006411D01*
X020563Y006377D01*
X020553Y006338D01*
X020553Y005973D01*
X020852Y005973D01*
X020852Y005877D01*
X020948Y005877D01*
X020948Y005973D01*
X021247Y005973D01*
X021247Y006338D01*
X021237Y006377D01*
X021217Y006411D01*
X021189Y006439D01*
X021155Y006458D01*
X021117Y006469D01*
X020948Y006469D01*
X020948Y005973D01*
X020852Y005973D01*
X020852Y006469D01*
X020683Y006469D01*
X020645Y006458D01*
X020611Y006439D01*
X020553Y006332D02*
X019727Y006332D01*
X019727Y006234D02*
X020553Y006234D01*
X020553Y006135D02*
X019727Y006135D01*
X019727Y006037D02*
X020553Y006037D01*
X020553Y005877D02*
X020553Y005512D01*
X020563Y005473D01*
X020583Y005439D01*
X020611Y005411D01*
X020645Y005392D01*
X020683Y005381D01*
X020852Y005381D01*
X020852Y005877D01*
X020553Y005877D01*
X020553Y005840D02*
X019727Y005840D01*
X019727Y005938D02*
X020852Y005938D01*
X020948Y005938D02*
X021260Y005938D01*
X021247Y005877D02*
X020948Y005877D01*
X020948Y005381D01*
X021117Y005381D01*
X021155Y005392D01*
X021189Y005411D01*
X021217Y005439D01*
X021237Y005473D01*
X021247Y005512D01*
X021247Y005877D01*
X021247Y005840D02*
X021260Y005840D01*
X021247Y005741D02*
X021260Y005741D01*
X021247Y005643D02*
X021260Y005643D01*
X021247Y005544D02*
X021260Y005544D01*
X021260Y005446D02*
X021221Y005446D01*
X021260Y005347D02*
X019590Y005347D01*
X019590Y005249D02*
X021260Y005249D01*
X021260Y005150D02*
X019590Y005150D01*
X019590Y005052D02*
X021260Y005052D01*
X021260Y004953D02*
X019590Y004953D01*
X019590Y004855D02*
X021260Y004855D01*
X021260Y004756D02*
X019590Y004756D01*
X019590Y004658D02*
X021260Y004658D01*
X021260Y004559D02*
X019590Y004559D01*
X019590Y004461D02*
X021260Y004461D01*
X021260Y004362D02*
X019590Y004362D01*
X019507Y004264D02*
X021260Y004264D01*
X021260Y004165D02*
X019409Y004165D01*
X019310Y004067D02*
X020131Y004067D01*
X019935Y003968D02*
X019278Y003968D01*
X019237Y003870D02*
X019818Y003870D01*
X019726Y003771D02*
X019116Y003771D01*
X018884Y003771D02*
X016001Y003771D01*
X016099Y003673D02*
X019669Y003673D01*
X019612Y003574D02*
X016198Y003574D01*
X016296Y003476D02*
X019580Y003476D01*
X019563Y003377D02*
X018395Y003377D01*
X018493Y003279D02*
X019546Y003279D01*
X019544Y003180D02*
X018592Y003180D01*
X018690Y003082D02*
X019561Y003082D01*
X019579Y002983D02*
X018789Y002983D01*
X018887Y002885D02*
X019607Y002885D01*
X019664Y002786D02*
X018986Y002786D01*
X019084Y002688D02*
X019721Y002688D01*
X019808Y002589D02*
X019183Y002589D01*
X019281Y002491D02*
X019925Y002491D01*
X020107Y002392D02*
X019380Y002392D01*
X019478Y002294D02*
X021250Y002294D01*
X021260Y002392D02*
X020793Y002392D01*
X020975Y002491D02*
X021260Y002491D01*
X021260Y002589D02*
X021092Y002589D01*
X021179Y002688D02*
X021260Y002688D01*
X021260Y002786D02*
X021236Y002786D01*
X021151Y002195D02*
X019577Y002195D01*
X019660Y002097D02*
X021053Y002097D01*
X020954Y001998D02*
X019660Y001998D01*
X019660Y001900D02*
X020856Y001900D01*
X020757Y001801D02*
X019660Y001801D01*
X019660Y001703D02*
X020659Y001703D01*
X020560Y001604D02*
X019806Y001604D01*
X019897Y001506D02*
X020462Y001506D01*
X020363Y001407D02*
X019937Y001407D01*
X019970Y001309D02*
X020265Y001309D01*
X020260Y001210D02*
X019970Y001210D01*
X019966Y001112D02*
X020260Y001112D01*
X020260Y001013D02*
X019925Y001013D01*
X019875Y000915D02*
X020259Y000915D01*
X020242Y000816D02*
X019776Y000816D01*
X019584Y000718D02*
X020210Y000718D01*
X020147Y000619D02*
X003128Y000619D01*
X003196Y000718D02*
X009316Y000718D01*
X009124Y000816D02*
X008748Y000816D01*
X008847Y000915D02*
X009025Y000915D01*
X008975Y001013D02*
X008903Y001013D01*
X008916Y001407D02*
X008963Y001407D01*
X009003Y001506D02*
X008875Y001506D01*
X008778Y001604D02*
X009094Y001604D01*
X009180Y001703D02*
X008604Y001703D01*
X008296Y001703D02*
X007604Y001703D01*
X007778Y001604D02*
X008122Y001604D01*
X008025Y001506D02*
X007875Y001506D01*
X007916Y001407D02*
X007984Y001407D01*
X007950Y001309D02*
X007950Y001309D01*
X007950Y001210D02*
X007950Y001210D01*
X007944Y001112D02*
X007956Y001112D01*
X007997Y001013D02*
X007903Y001013D01*
X007847Y000915D02*
X008053Y000915D01*
X008152Y000816D02*
X007748Y000816D01*
X007152Y000816D02*
X003253Y000816D01*
X003309Y000915D02*
X007053Y000915D01*
X006997Y001013D02*
X003327Y001013D01*
X003344Y001112D02*
X006956Y001112D01*
X006950Y001210D02*
X003361Y001210D01*
X003349Y001309D02*
X006950Y001309D01*
X006984Y001407D02*
X003332Y001407D01*
X003314Y001506D02*
X007025Y001506D01*
X007122Y001604D02*
X003270Y001604D01*
X003214Y001703D02*
X007296Y001703D01*
X008803Y002491D02*
X001147Y002491D01*
X001235Y002392D02*
X008901Y002392D01*
X009000Y002294D02*
X001275Y002294D01*
X001277Y002195D02*
X009098Y002195D01*
X009180Y002097D02*
X002687Y002097D01*
X002929Y001998D02*
X009180Y001998D01*
X009180Y001900D02*
X003046Y001900D01*
X003157Y001801D02*
X009180Y001801D01*
X009720Y001801D02*
X014260Y001801D01*
X014260Y001703D02*
X012656Y001703D01*
X012806Y001604D02*
X014122Y001604D01*
X014025Y001506D02*
X012897Y001506D01*
X012937Y001407D02*
X013984Y001407D01*
X013950Y001309D02*
X012970Y001309D01*
X012970Y001210D02*
X013950Y001210D01*
X013956Y001112D02*
X012966Y001112D01*
X012925Y001013D02*
X013997Y001013D01*
X014053Y000915D02*
X012875Y000915D01*
X012776Y000816D02*
X014152Y000816D01*
X014748Y000816D02*
X015152Y000816D01*
X015053Y000915D02*
X014847Y000915D01*
X014903Y001013D02*
X014997Y001013D01*
X014956Y001112D02*
X014944Y001112D01*
X014950Y001210D02*
X014950Y001210D01*
X014950Y001309D02*
X014950Y001309D01*
X014916Y001407D02*
X014984Y001407D01*
X015025Y001506D02*
X014875Y001506D01*
X014778Y001604D02*
X015122Y001604D01*
X015210Y001703D02*
X014640Y001703D01*
X014640Y001801D02*
X015210Y001801D01*
X015210Y001900D02*
X014640Y001900D01*
X014640Y001998D02*
X015210Y001998D01*
X015210Y002097D02*
X014640Y002097D01*
X014640Y002195D02*
X015210Y002195D01*
X015210Y002294D02*
X014640Y002294D01*
X014640Y002392D02*
X015210Y002392D01*
X015166Y002491D02*
X014640Y002491D01*
X014640Y002589D02*
X015067Y002589D01*
X014969Y002688D02*
X014640Y002688D01*
X014640Y002786D02*
X014870Y002786D01*
X014772Y002885D02*
X014640Y002885D01*
X014640Y002983D02*
X014673Y002983D01*
X014260Y002983D02*
X009074Y002983D01*
X009172Y002885D02*
X014260Y002885D01*
X014260Y002786D02*
X009271Y002786D01*
X009369Y002688D02*
X014260Y002688D01*
X014260Y002589D02*
X009468Y002589D01*
X009566Y002491D02*
X014260Y002491D01*
X014260Y002392D02*
X009665Y002392D01*
X009714Y002294D02*
X014260Y002294D01*
X014260Y002195D02*
X009720Y002195D01*
X009720Y002097D02*
X014260Y002097D01*
X014260Y001998D02*
X009720Y001998D01*
X009720Y001900D02*
X014260Y001900D01*
X014175Y003082D02*
X008975Y003082D01*
X008877Y003180D02*
X014076Y003180D01*
X013978Y003279D02*
X008778Y003279D01*
X008680Y003377D02*
X013879Y003377D01*
X013781Y003476D02*
X008581Y003476D01*
X008483Y003574D02*
X013682Y003574D01*
X013584Y003673D02*
X008384Y003673D01*
X008286Y003771D02*
X013485Y003771D01*
X013387Y003870D02*
X008187Y003870D01*
X007793Y004264D02*
X009615Y004264D01*
X009516Y004362D02*
X007720Y004362D01*
X007720Y004461D02*
X009418Y004461D01*
X009340Y004559D02*
X007720Y004559D01*
X007720Y004658D02*
X009340Y004658D01*
X009340Y004756D02*
X007720Y004756D01*
X007720Y004855D02*
X009340Y004855D01*
X009340Y004953D02*
X007720Y004953D01*
X007720Y005052D02*
X009340Y005052D01*
X009340Y005150D02*
X007720Y005150D01*
X007720Y005249D02*
X009340Y005249D01*
X009340Y005347D02*
X007720Y005347D01*
X007720Y005446D02*
X007985Y005446D01*
X007901Y005544D02*
X007720Y005544D01*
X007720Y005643D02*
X007896Y005643D01*
X007896Y005741D02*
X007720Y005741D01*
X007720Y005840D02*
X007896Y005840D01*
X007896Y006037D02*
X007817Y006037D01*
X007720Y005938D02*
X008350Y005938D01*
X008350Y005840D02*
X008450Y005840D01*
X008450Y005938D02*
X009066Y005938D01*
X009066Y005840D02*
X008904Y005840D01*
X008904Y005741D02*
X009066Y005741D01*
X009066Y005643D02*
X008904Y005643D01*
X008899Y005544D02*
X009077Y005544D01*
X008815Y005446D02*
X009340Y005446D01*
X009760Y005446D02*
X011740Y005446D01*
X011740Y005544D02*
X011140Y005544D01*
X011144Y005551D02*
X011154Y005589D01*
X011154Y005874D01*
X010700Y005874D01*
X010700Y005974D01*
X010600Y005974D01*
X010600Y006389D01*
X010276Y006389D01*
X010238Y006379D01*
X010204Y006359D01*
X010176Y006331D01*
X010156Y006297D01*
X010146Y006259D01*
X010146Y005974D01*
X010600Y005974D01*
X010600Y005874D01*
X010146Y005874D01*
X010146Y005589D01*
X010156Y005551D01*
X010176Y005517D01*
X010204Y005489D01*
X010238Y005469D01*
X010276Y005459D01*
X010600Y005459D01*
X010600Y005874D01*
X010700Y005874D01*
X010700Y005459D01*
X011024Y005459D01*
X011062Y005469D01*
X011096Y005489D01*
X011124Y005517D01*
X011144Y005551D01*
X011154Y005643D02*
X011740Y005643D01*
X011740Y005741D02*
X011154Y005741D01*
X011154Y005840D02*
X011740Y005840D01*
X011740Y005938D02*
X010700Y005938D01*
X010700Y005974D02*
X011154Y005974D01*
X011154Y006259D01*
X011144Y006297D01*
X011124Y006331D01*
X011096Y006359D01*
X011062Y006379D01*
X011024Y006389D01*
X010700Y006389D01*
X010700Y005974D01*
X010700Y006037D02*
X010600Y006037D01*
X010600Y006135D02*
X010700Y006135D01*
X010700Y006234D02*
X010600Y006234D01*
X010600Y006332D02*
X010700Y006332D01*
X010600Y005938D02*
X010034Y005938D01*
X010034Y005840D02*
X010146Y005840D01*
X010146Y005741D02*
X010034Y005741D01*
X010034Y005643D02*
X010146Y005643D01*
X010160Y005544D02*
X010023Y005544D01*
X009760Y005347D02*
X011740Y005347D01*
X011740Y005249D02*
X009760Y005249D01*
X009760Y005150D02*
X011740Y005150D01*
X011740Y005052D02*
X009760Y005052D01*
X009760Y004953D02*
X011740Y004953D01*
X011740Y004855D02*
X009760Y004855D01*
X009760Y004756D02*
X011684Y004756D01*
X011586Y004658D02*
X009814Y004658D01*
X009913Y004559D02*
X011487Y004559D01*
X011389Y004461D02*
X010011Y004461D01*
X010600Y005544D02*
X010700Y005544D01*
X010700Y005643D02*
X010600Y005643D01*
X010600Y005741D02*
X010700Y005741D01*
X010700Y005840D02*
X010600Y005840D01*
X010146Y006037D02*
X010034Y006037D01*
X010034Y006135D02*
X010146Y006135D01*
X010146Y006234D02*
X010034Y006234D01*
X009995Y006332D02*
X010177Y006332D01*
X010167Y006628D02*
X010033Y006628D01*
X010054Y006726D02*
X010146Y006726D01*
X010146Y007317D02*
X010054Y007317D01*
X010042Y007416D02*
X010158Y007416D01*
X011142Y007416D02*
X011394Y007416D01*
X011492Y007514D02*
X008193Y007514D01*
X008094Y007613D02*
X011591Y007613D01*
X011665Y007711D02*
X007996Y007711D01*
X007897Y007810D02*
X011665Y007810D01*
X011665Y007908D02*
X007799Y007908D01*
X007700Y008007D02*
X011665Y008007D01*
X011656Y008105D02*
X007602Y008105D01*
X007503Y008204D02*
X011656Y008204D01*
X011656Y008302D02*
X007405Y008302D01*
X007320Y008401D02*
X011656Y008401D01*
X011656Y008499D02*
X007320Y008499D01*
X007320Y008598D02*
X011656Y008598D01*
X011656Y008696D02*
X009985Y008696D01*
X010035Y008795D02*
X011656Y008795D01*
X011675Y008893D02*
X010035Y008893D01*
X010239Y009655D02*
X010140Y009754D01*
X010040Y009854D01*
X010045Y009862D01*
X010055Y009900D01*
X010055Y010185D01*
X009600Y010185D01*
X009600Y010285D01*
X010055Y010285D01*
X010055Y010501D01*
X010646Y009910D01*
X010748Y009910D01*
X010741Y009903D01*
X010741Y009657D01*
X010743Y009655D01*
X010239Y009655D01*
X010213Y009681D02*
X010741Y009681D01*
X010741Y009780D02*
X010114Y009780D01*
X010049Y009878D02*
X010741Y009878D01*
X010580Y009977D02*
X010055Y009977D01*
X010055Y010075D02*
X010481Y010075D01*
X010383Y010174D02*
X010055Y010174D01*
X010055Y010371D02*
X010186Y010371D01*
X010087Y010469D02*
X010055Y010469D01*
X010284Y010272D02*
X009600Y010272D01*
X009600Y010371D02*
X009500Y010371D01*
X009500Y010469D02*
X009600Y010469D01*
X009600Y010568D02*
X009500Y010568D01*
X009500Y010666D02*
X009600Y010666D01*
X009792Y010765D02*
X008346Y010765D01*
X008370Y010863D02*
X009693Y010863D01*
X009595Y010962D02*
X008370Y010962D01*
X008370Y011060D02*
X009496Y011060D01*
X009398Y011159D02*
X008525Y011159D01*
X008575Y011257D02*
X009299Y011257D01*
X009201Y011356D02*
X008575Y011356D01*
X008575Y011454D02*
X009102Y011454D01*
X009004Y011553D02*
X008575Y011553D01*
X008575Y011651D02*
X008960Y011651D01*
X008960Y011750D02*
X008575Y011750D01*
X008575Y011848D02*
X008960Y011848D01*
X008960Y011947D02*
X008575Y011947D01*
X008572Y012045D02*
X008960Y012045D01*
X008960Y012144D02*
X008370Y012144D01*
X008370Y012242D02*
X008960Y012242D01*
X008960Y012341D02*
X008370Y012341D01*
X008525Y012439D02*
X008960Y012439D01*
X008960Y012538D02*
X008526Y012538D01*
X008526Y012636D02*
X008960Y012636D01*
X008960Y012735D02*
X008526Y012735D01*
X008526Y012833D02*
X008960Y012833D01*
X008960Y012932D02*
X008526Y012932D01*
X008526Y013030D02*
X008960Y013030D01*
X008960Y013129D02*
X008512Y013129D01*
X008960Y013227D02*
X007357Y013227D01*
X007357Y013294D02*
X007281Y013370D01*
X007161Y013370D01*
X007161Y013741D01*
X007320Y013741D01*
X007396Y013817D01*
X007396Y014023D01*
X007694Y014023D01*
X007694Y013944D01*
X007771Y013867D01*
X008429Y013867D01*
X008506Y013944D01*
X008506Y014602D01*
X008429Y014679D01*
X008350Y014679D01*
X008350Y014979D01*
X008558Y014979D01*
X008634Y015055D01*
X008634Y015793D01*
X008558Y015869D01*
X007779Y015869D01*
X007779Y015880D01*
X007736Y015983D01*
X007658Y016061D01*
X007555Y016104D01*
X007445Y016104D01*
X007342Y016061D01*
X007264Y015983D01*
X007238Y015922D01*
X007126Y015810D01*
X006541Y015810D01*
X006465Y015734D01*
X006465Y014916D01*
X006541Y014840D01*
X007279Y014840D01*
X007355Y014916D01*
X007355Y015501D01*
X007413Y015559D01*
X007445Y015546D01*
X007555Y015546D01*
X007658Y015589D01*
X007666Y015596D01*
X007666Y015055D01*
X007742Y014979D01*
X007850Y014979D01*
X007850Y014679D01*
X007771Y014679D01*
X007694Y014602D01*
X007694Y014523D01*
X007396Y014523D01*
X007396Y014633D01*
X007320Y014709D01*
X006582Y014709D01*
X006506Y014633D01*
X006506Y013817D01*
X006582Y013741D01*
X006741Y013741D01*
X006741Y013370D01*
X006622Y013370D01*
X006546Y013294D01*
X006546Y012556D01*
X006622Y012480D01*
X007281Y012480D01*
X007357Y012556D01*
X007357Y013294D01*
X007325Y013326D02*
X008960Y013326D01*
X008960Y013424D02*
X007161Y013424D01*
X007161Y013523D02*
X008960Y013523D01*
X008960Y013621D02*
X007161Y013621D01*
X007161Y013720D02*
X008960Y013720D01*
X008960Y013818D02*
X007396Y013818D01*
X007396Y013917D02*
X007721Y013917D01*
X007694Y014015D02*
X007396Y014015D01*
X007396Y014606D02*
X007698Y014606D01*
X007850Y014705D02*
X007325Y014705D01*
X007340Y014902D02*
X007850Y014902D01*
X007850Y014803D02*
X004371Y014803D01*
X004371Y014902D02*
X005360Y014902D01*
X005345Y015000D02*
X004371Y015000D01*
X004665Y015493D02*
X004871Y015493D01*
X004763Y015591D02*
X005345Y015591D01*
X005345Y015690D02*
X004862Y015690D01*
X004960Y015788D02*
X005399Y015788D01*
X005378Y016084D02*
X004960Y016084D01*
X004960Y015985D02*
X007266Y015985D01*
X007279Y016040D02*
X007355Y016116D01*
X007355Y016934D01*
X007279Y017010D01*
X007190Y017010D01*
X007190Y017021D01*
X007236Y017067D01*
X007279Y017170D01*
X007279Y017280D01*
X007236Y017383D01*
X007158Y017461D01*
X007055Y017504D01*
X006945Y017504D01*
X006842Y017461D01*
X006764Y017383D01*
X006721Y017280D01*
X006721Y017170D01*
X006764Y017067D01*
X006810Y017021D01*
X006810Y017010D01*
X006541Y017010D01*
X006465Y016934D01*
X006465Y016116D01*
X006541Y016040D01*
X007279Y016040D01*
X007322Y016084D02*
X007395Y016084D01*
X007355Y016182D02*
X007648Y016182D01*
X007646Y016191D02*
X007656Y016153D01*
X007676Y016119D01*
X007704Y016091D01*
X007738Y016071D01*
X007776Y016061D01*
X008100Y016061D01*
X008100Y016476D01*
X008200Y016476D01*
X008200Y016061D01*
X008524Y016061D01*
X008562Y016071D01*
X008596Y016091D01*
X008624Y016119D01*
X008644Y016153D01*
X008654Y016191D01*
X008654Y016476D01*
X008200Y016476D01*
X008200Y016576D01*
X008960Y016576D01*
X008960Y016478D02*
X008200Y016478D01*
X008200Y016576D02*
X008654Y016576D01*
X008654Y016861D01*
X008644Y016899D01*
X008624Y016933D01*
X008596Y016961D01*
X008562Y016981D01*
X008524Y016991D01*
X008200Y016991D01*
X008200Y016576D01*
X008100Y016576D01*
X007355Y016576D01*
X007355Y016478D02*
X008100Y016478D01*
X008100Y016476D02*
X007646Y016476D01*
X007646Y016191D01*
X007646Y016281D02*
X007355Y016281D01*
X007355Y016379D02*
X007646Y016379D01*
X007646Y016576D02*
X007646Y016861D01*
X007656Y016899D01*
X007676Y016933D01*
X007704Y016961D01*
X007738Y016981D01*
X007776Y016991D01*
X008100Y016991D01*
X008100Y016576D01*
X008100Y016476D01*
X008100Y016379D02*
X008200Y016379D01*
X008200Y016281D02*
X008100Y016281D01*
X008100Y016182D02*
X008200Y016182D01*
X008200Y016084D02*
X008100Y016084D01*
X007734Y015985D02*
X008960Y015985D01*
X008960Y015887D02*
X007776Y015887D01*
X007717Y016084D02*
X007605Y016084D01*
X007203Y015887D02*
X004960Y015887D01*
X005004Y016182D02*
X005345Y016182D01*
X005345Y016281D02*
X005103Y016281D01*
X004706Y016478D02*
X004450Y016478D01*
X004450Y016576D02*
X004804Y016576D01*
X004903Y016675D02*
X004450Y016675D01*
X004450Y016773D02*
X005345Y016773D01*
X005345Y016872D02*
X004450Y016872D01*
X004450Y016970D02*
X005381Y016970D01*
X006199Y016970D02*
X006501Y016970D01*
X006465Y016872D02*
X006235Y016872D01*
X006235Y016773D02*
X006465Y016773D01*
X006465Y016675D02*
X006235Y016675D01*
X006235Y016576D02*
X006465Y016576D01*
X006465Y016478D02*
X006235Y016478D01*
X006235Y016379D02*
X006465Y016379D01*
X006465Y016281D02*
X006235Y016281D01*
X006235Y016182D02*
X006465Y016182D01*
X006498Y016084D02*
X006202Y016084D01*
X006181Y015788D02*
X006519Y015788D01*
X006465Y015690D02*
X006235Y015690D01*
X006235Y015591D02*
X006465Y015591D01*
X006465Y015493D02*
X006235Y015493D01*
X006235Y015394D02*
X006465Y015394D01*
X006465Y015296D02*
X006235Y015296D01*
X006235Y015197D02*
X006465Y015197D01*
X006465Y015099D02*
X006235Y015099D01*
X006235Y015000D02*
X006465Y015000D01*
X006480Y014902D02*
X006220Y014902D01*
X006022Y014705D02*
X006578Y014705D01*
X006506Y014606D02*
X006094Y014606D01*
X006094Y014508D02*
X006506Y014508D01*
X006506Y014409D02*
X006094Y014409D01*
X006094Y014311D02*
X006506Y014311D01*
X006506Y014212D02*
X006094Y014212D01*
X006094Y014114D02*
X006506Y014114D01*
X006506Y014015D02*
X006094Y014015D01*
X006094Y013917D02*
X006506Y013917D01*
X006506Y013818D02*
X006094Y013818D01*
X006144Y013390D02*
X005899Y013390D01*
X005899Y012975D01*
X006274Y012975D01*
X006274Y013260D01*
X006264Y013298D01*
X006244Y013332D01*
X006217Y013360D01*
X006182Y013380D01*
X006144Y013390D01*
X006248Y013326D02*
X006577Y013326D01*
X006546Y013227D02*
X006274Y013227D01*
X006274Y013129D02*
X006546Y013129D01*
X006546Y013030D02*
X006274Y013030D01*
X006274Y012875D02*
X005899Y012875D01*
X005899Y012975D01*
X005799Y012975D01*
X005799Y013390D01*
X005553Y013390D01*
X005515Y013380D01*
X005481Y013360D01*
X005453Y013332D01*
X005433Y013298D01*
X005423Y013260D01*
X005423Y012975D01*
X005799Y012975D01*
X005799Y012875D01*
X005899Y012875D01*
X005899Y012460D01*
X006144Y012460D01*
X006182Y012470D01*
X006217Y012490D01*
X006244Y012518D01*
X006264Y012552D01*
X006274Y012590D01*
X006274Y012875D01*
X006274Y012833D02*
X006546Y012833D01*
X006546Y012735D02*
X006274Y012735D01*
X006274Y012636D02*
X006546Y012636D01*
X006564Y012538D02*
X006256Y012538D01*
X005899Y012538D02*
X005799Y012538D01*
X005799Y012460D02*
X005799Y012875D01*
X005423Y012875D01*
X005423Y012590D01*
X005433Y012552D01*
X005453Y012518D01*
X005481Y012490D01*
X005515Y012470D01*
X005553Y012460D01*
X005799Y012460D01*
X005799Y012636D02*
X005899Y012636D01*
X005899Y012735D02*
X005799Y012735D01*
X005799Y012833D02*
X005899Y012833D01*
X005899Y012932D02*
X006546Y012932D01*
X006741Y013424D02*
X004450Y013424D01*
X004450Y013326D02*
X005449Y013326D01*
X005423Y013227D02*
X004450Y013227D01*
X004450Y013129D02*
X005423Y013129D01*
X005423Y013030D02*
X004450Y013030D01*
X004408Y012932D02*
X005799Y012932D01*
X005799Y013030D02*
X005899Y013030D01*
X005899Y013129D02*
X005799Y013129D01*
X005799Y013227D02*
X005899Y013227D01*
X005899Y013326D02*
X005799Y013326D01*
X005423Y012833D02*
X004309Y012833D01*
X004210Y012735D02*
X005423Y012735D01*
X005423Y012636D02*
X004111Y012636D01*
X003957Y012765D02*
X003088Y012770D01*
X003078Y012779D01*
X002324Y012779D01*
X002319Y012774D01*
X002150Y012775D01*
X002150Y010625D01*
X000640Y010625D01*
X000640Y013016D01*
X000657Y012987D01*
X000685Y012959D01*
X000719Y012940D01*
X000757Y012929D01*
X001219Y012929D01*
X001219Y013423D01*
X001319Y013423D01*
X001319Y013523D01*
X001911Y013523D01*
X001911Y013886D01*
X001901Y013925D01*
X001881Y013959D01*
X001853Y013987D01*
X001819Y014007D01*
X001781Y014017D01*
X001319Y014017D01*
X001319Y013523D01*
X001219Y013523D01*
X001219Y014017D01*
X000757Y014017D01*
X000719Y014007D01*
X000685Y013987D01*
X000657Y013959D01*
X000640Y013930D01*
X000640Y016520D01*
X000657Y016491D01*
X000685Y016463D01*
X000719Y016443D01*
X000757Y016433D01*
X001219Y016433D01*
X001219Y016927D01*
X001319Y016927D01*
X001319Y017027D01*
X001911Y017027D01*
X001911Y017390D01*
X001901Y017429D01*
X001881Y017463D01*
X001853Y017491D01*
X001819Y017510D01*
X001781Y017521D01*
X001319Y017521D01*
X001319Y017027D01*
X001219Y017027D01*
X001219Y017521D01*
X000757Y017521D01*
X000719Y017510D01*
X000685Y017491D01*
X000657Y017463D01*
X000640Y017434D01*
X000640Y017575D01*
X004250Y017575D01*
X004250Y017521D01*
X003642Y017521D01*
X003642Y017027D01*
X003542Y017027D01*
X003542Y017521D01*
X002922Y017521D01*
X002884Y017510D01*
X002850Y017491D01*
X002822Y017463D01*
X002802Y017429D01*
X002792Y017390D01*
X002792Y017027D01*
X003542Y017027D01*
X003542Y016927D01*
X003642Y016927D01*
X003642Y016433D01*
X004250Y016433D01*
X004250Y016103D01*
X002959Y016103D01*
X002940Y016085D01*
X002777Y016085D01*
X002777Y016156D01*
X002727Y016276D01*
X002635Y016368D01*
X002515Y016418D01*
X002385Y016418D01*
X002265Y016368D01*
X002173Y016276D01*
X002123Y016156D01*
X002123Y016026D01*
X002173Y015906D01*
X002265Y015814D01*
X002385Y015764D01*
X002414Y015764D01*
X001955Y015305D01*
X001820Y015170D01*
X001820Y014080D01*
X002020Y013880D01*
X002155Y013745D01*
X002792Y013745D01*
X002792Y013523D01*
X003542Y013523D01*
X003542Y013423D01*
X003642Y013423D01*
X003642Y012929D01*
X004122Y012929D01*
X003957Y012765D01*
X004026Y012833D02*
X000640Y012833D01*
X000640Y012735D02*
X001177Y012735D01*
X001164Y012721D02*
X001144Y012687D01*
X001134Y012649D01*
X001134Y012325D01*
X001549Y012325D01*
X001549Y012779D01*
X001264Y012779D01*
X001226Y012769D01*
X001192Y012749D01*
X001164Y012721D01*
X001134Y012636D02*
X000640Y012636D01*
X000640Y012538D02*
X001134Y012538D01*
X001134Y012439D02*
X000640Y012439D01*
X000640Y012341D02*
X001134Y012341D01*
X001134Y012225D02*
X001134Y011901D01*
X001144Y011863D01*
X001164Y011829D01*
X001192Y011801D01*
X001226Y011781D01*
X001264Y011771D01*
X001549Y011771D01*
X001549Y012225D01*
X001649Y012225D01*
X001649Y012325D01*
X002064Y012325D01*
X002064Y012649D01*
X002054Y012687D01*
X002034Y012721D01*
X002006Y012749D01*
X001972Y012769D01*
X001934Y012779D01*
X001649Y012779D01*
X001649Y012325D01*
X001549Y012325D01*
X001549Y012225D01*
X001134Y012225D01*
X001134Y012144D02*
X000640Y012144D01*
X000640Y012242D02*
X001549Y012242D01*
X001549Y012144D02*
X001649Y012144D01*
X001649Y012225D02*
X001649Y011771D01*
X001934Y011771D01*
X001972Y011781D01*
X002006Y011801D01*
X002034Y011829D01*
X002054Y011863D01*
X002064Y011901D01*
X002064Y012225D01*
X001649Y012225D01*
X001649Y012242D02*
X002150Y012242D01*
X002150Y012144D02*
X002064Y012144D01*
X002064Y012045D02*
X002150Y012045D01*
X002150Y011947D02*
X002064Y011947D01*
X002045Y011848D02*
X002150Y011848D01*
X002150Y011750D02*
X000640Y011750D01*
X000640Y011848D02*
X001153Y011848D01*
X001134Y011947D02*
X000640Y011947D01*
X000640Y012045D02*
X001134Y012045D01*
X001217Y011720D02*
X001183Y011700D01*
X001155Y011672D01*
X001135Y011638D01*
X001125Y011600D01*
X001125Y011275D01*
X001540Y011275D01*
X001540Y011175D01*
X001125Y011175D01*
X001125Y010850D01*
X001135Y010812D01*
X001155Y010778D01*
X001183Y010750D01*
X001217Y010730D01*
X001255Y010720D01*
X001540Y010720D01*
X001540Y011175D01*
X001640Y011175D01*
X001640Y010720D01*
X001925Y010720D01*
X001963Y010730D01*
X001997Y010750D01*
X002025Y010778D01*
X002045Y010812D01*
X002055Y010850D01*
X002055Y011175D01*
X001640Y011175D01*
X001640Y011275D01*
X001540Y011275D01*
X001540Y011730D01*
X001255Y011730D01*
X001217Y011720D01*
X001143Y011651D02*
X000640Y011651D01*
X000640Y011553D02*
X001125Y011553D01*
X001125Y011454D02*
X000640Y011454D01*
X000640Y011356D02*
X001125Y011356D01*
X001125Y011159D02*
X000640Y011159D01*
X000640Y011257D02*
X001540Y011257D01*
X001540Y011159D02*
X001640Y011159D01*
X001640Y011257D02*
X002150Y011257D01*
X002055Y011275D02*
X002055Y011600D01*
X002045Y011638D01*
X002025Y011672D01*
X001997Y011700D01*
X001963Y011720D01*
X001925Y011730D01*
X001640Y011730D01*
X001640Y011275D01*
X002055Y011275D01*
X002055Y011356D02*
X002150Y011356D01*
X002150Y011454D02*
X002055Y011454D01*
X002055Y011553D02*
X002150Y011553D01*
X002150Y011651D02*
X002037Y011651D01*
X001640Y011651D02*
X001540Y011651D01*
X001540Y011553D02*
X001640Y011553D01*
X001640Y011454D02*
X001540Y011454D01*
X001540Y011356D02*
X001640Y011356D01*
X001640Y011060D02*
X001540Y011060D01*
X001540Y010962D02*
X001640Y010962D01*
X001640Y010863D02*
X001540Y010863D01*
X001540Y010765D02*
X001640Y010765D01*
X002012Y010765D02*
X002150Y010765D01*
X002150Y010863D02*
X002055Y010863D01*
X002055Y010962D02*
X002150Y010962D01*
X002150Y011060D02*
X002055Y011060D01*
X002055Y011159D02*
X002150Y011159D01*
X002150Y010666D02*
X000640Y010666D01*
X000640Y010765D02*
X001169Y010765D01*
X001125Y010863D02*
X000640Y010863D01*
X000640Y010962D02*
X001125Y010962D01*
X001125Y011060D02*
X000640Y011060D01*
X000640Y010371D02*
X007214Y010371D01*
X007312Y010469D02*
X002277Y010469D01*
X002350Y010568D02*
X007411Y010568D01*
X007509Y010666D02*
X002350Y010666D01*
X002660Y010765D02*
X002760Y010765D01*
X002760Y010863D02*
X002660Y010863D01*
X002660Y010962D02*
X002760Y010962D01*
X002760Y011060D02*
X002660Y011060D01*
X002660Y011159D02*
X002760Y011159D01*
X002760Y011257D02*
X004003Y011257D01*
X004031Y011229D01*
X004065Y011210D01*
X004103Y011199D01*
X004309Y011199D01*
X004309Y011575D01*
X003973Y011575D01*
X003973Y011330D01*
X003983Y011292D01*
X004003Y011257D01*
X003973Y011356D02*
X003175Y011356D01*
X003175Y011454D02*
X003973Y011454D01*
X003973Y011553D02*
X003175Y011553D01*
X003157Y011651D02*
X004309Y011651D01*
X004309Y011675D02*
X004309Y011575D01*
X004409Y011575D01*
X004409Y011199D01*
X004615Y011199D01*
X004654Y011210D01*
X004688Y011229D01*
X004716Y011257D01*
X004735Y011292D01*
X004746Y011330D01*
X004746Y011575D01*
X004409Y011575D01*
X004409Y011675D01*
X004309Y011675D01*
X003973Y011675D01*
X003973Y011920D01*
X003983Y011958D01*
X004003Y011993D01*
X004031Y012021D01*
X004065Y012040D01*
X004103Y012051D01*
X004309Y012051D01*
X004309Y011675D01*
X004309Y011750D02*
X004409Y011750D01*
X004409Y011675D02*
X004409Y012051D01*
X004615Y012051D01*
X004654Y012040D01*
X004688Y012021D01*
X004716Y011993D01*
X004735Y011958D01*
X004746Y011920D01*
X004746Y011675D01*
X004409Y011675D01*
X004409Y011651D02*
X005174Y011651D01*
X005174Y011553D02*
X004746Y011553D01*
X004746Y011454D02*
X005174Y011454D01*
X005174Y011356D02*
X004746Y011356D01*
X004715Y011257D02*
X005213Y011257D01*
X005250Y011219D02*
X005831Y011219D01*
X005907Y011296D01*
X005907Y011375D01*
X006545Y011375D01*
X006545Y011216D01*
X006621Y011140D01*
X007359Y011140D01*
X007435Y011216D01*
X007435Y012034D01*
X007359Y012110D01*
X006621Y012110D01*
X006545Y012034D01*
X006545Y011875D01*
X005907Y011875D01*
X005907Y011954D01*
X005831Y012031D01*
X005250Y012031D01*
X005174Y011954D01*
X005174Y011296D01*
X005250Y011219D01*
X005174Y011750D02*
X004746Y011750D01*
X004746Y011848D02*
X005174Y011848D01*
X005174Y011947D02*
X004739Y011947D01*
X004636Y012045D02*
X006556Y012045D01*
X006545Y011947D02*
X005907Y011947D01*
X005442Y012538D02*
X003166Y012538D01*
X003166Y012439D02*
X007675Y012439D01*
X007674Y012538D02*
X007338Y012538D01*
X007357Y012636D02*
X007674Y012636D01*
X007674Y012735D02*
X007357Y012735D01*
X007357Y012833D02*
X007674Y012833D01*
X007674Y012932D02*
X007357Y012932D01*
X007357Y013030D02*
X007674Y013030D01*
X007688Y013129D02*
X007357Y013129D01*
X006741Y013523D02*
X004450Y013523D01*
X004450Y013621D02*
X006741Y013621D01*
X006741Y013720D02*
X004450Y013720D01*
X004450Y013818D02*
X005204Y013818D01*
X005204Y013917D02*
X004450Y013917D01*
X004391Y014508D02*
X005204Y014508D01*
X005204Y014606D02*
X004391Y014606D01*
X004391Y014705D02*
X005275Y014705D01*
X005345Y015099D02*
X005071Y015099D01*
X004465Y015887D02*
X004450Y015887D01*
X004450Y015985D02*
X004540Y015985D01*
X004540Y016084D02*
X004450Y016084D01*
X004450Y016182D02*
X004540Y016182D01*
X004540Y016281D02*
X004450Y016281D01*
X004450Y016379D02*
X004607Y016379D01*
X004250Y016379D02*
X002610Y016379D01*
X002723Y016281D02*
X004250Y016281D01*
X004250Y016182D02*
X002766Y016182D01*
X002884Y016443D02*
X002922Y016433D01*
X003542Y016433D01*
X003542Y016927D01*
X002792Y016927D01*
X002792Y016564D01*
X002802Y016525D01*
X002822Y016491D01*
X002850Y016463D01*
X002884Y016443D01*
X002836Y016478D02*
X001867Y016478D01*
X001881Y016491D02*
X001901Y016525D01*
X001911Y016564D01*
X001911Y016927D01*
X001319Y016927D01*
X001319Y016433D01*
X001781Y016433D01*
X001819Y016443D01*
X001853Y016463D01*
X001881Y016491D01*
X001911Y016576D02*
X002792Y016576D01*
X002792Y016675D02*
X001911Y016675D01*
X001911Y016773D02*
X002792Y016773D01*
X002792Y016872D02*
X001911Y016872D01*
X001911Y017069D02*
X002792Y017069D01*
X002792Y017167D02*
X001911Y017167D01*
X001911Y017266D02*
X002792Y017266D01*
X002792Y017364D02*
X001911Y017364D01*
X001881Y017463D02*
X002822Y017463D01*
X003542Y017463D02*
X003642Y017463D01*
X003642Y017364D02*
X003542Y017364D01*
X003542Y017266D02*
X003642Y017266D01*
X003642Y017167D02*
X003542Y017167D01*
X003542Y017069D02*
X003642Y017069D01*
X003542Y016970D02*
X001319Y016970D01*
X001319Y016872D02*
X001219Y016872D01*
X001219Y016773D02*
X001319Y016773D01*
X001319Y016675D02*
X001219Y016675D01*
X001219Y016576D02*
X001319Y016576D01*
X001319Y016478D02*
X001219Y016478D01*
X000670Y016478D02*
X000640Y016478D01*
X000640Y016379D02*
X002290Y016379D01*
X002177Y016281D02*
X000640Y016281D01*
X000640Y016182D02*
X002134Y016182D01*
X002123Y016084D02*
X000640Y016084D01*
X000640Y015985D02*
X002140Y015985D01*
X002192Y015887D02*
X000640Y015887D01*
X000640Y015788D02*
X002327Y015788D01*
X002339Y015690D02*
X000640Y015690D01*
X000640Y015591D02*
X002241Y015591D01*
X002142Y015493D02*
X000640Y015493D01*
X000640Y015394D02*
X002044Y015394D01*
X001945Y015296D02*
X000640Y015296D01*
X000640Y015197D02*
X001847Y015197D01*
X001820Y015099D02*
X000640Y015099D01*
X000640Y015000D02*
X001820Y015000D01*
X001820Y014902D02*
X000640Y014902D01*
X000640Y014803D02*
X001820Y014803D01*
X001820Y014705D02*
X000640Y014705D01*
X000640Y014606D02*
X001820Y014606D01*
X001820Y014508D02*
X000640Y014508D01*
X000640Y014409D02*
X001820Y014409D01*
X001820Y014311D02*
X000640Y014311D01*
X000640Y014212D02*
X001820Y014212D01*
X001820Y014114D02*
X000640Y014114D01*
X000640Y014015D02*
X000751Y014015D01*
X001219Y014015D02*
X001319Y014015D01*
X001319Y013917D02*
X001219Y013917D01*
X001219Y013818D02*
X001319Y013818D01*
X001319Y013720D02*
X001219Y013720D01*
X001219Y013621D02*
X001319Y013621D01*
X001319Y013523D02*
X003542Y013523D01*
X003542Y013424D02*
X001319Y013424D01*
X001319Y013423D02*
X001911Y013423D01*
X001911Y013060D01*
X001901Y013021D01*
X001881Y012987D01*
X001853Y012959D01*
X001819Y012940D01*
X001781Y012929D01*
X001319Y012929D01*
X001319Y013423D01*
X001319Y013326D02*
X001219Y013326D01*
X001219Y013227D02*
X001319Y013227D01*
X001319Y013129D02*
X001219Y013129D01*
X001219Y013030D02*
X001319Y013030D01*
X001319Y012932D02*
X001219Y012932D01*
X001549Y012735D02*
X001649Y012735D01*
X001649Y012636D02*
X001549Y012636D01*
X001549Y012538D02*
X001649Y012538D01*
X001649Y012439D02*
X001549Y012439D01*
X001549Y012341D02*
X001649Y012341D01*
X001649Y012045D02*
X001549Y012045D01*
X001549Y011947D02*
X001649Y011947D01*
X001649Y011848D02*
X001549Y011848D01*
X002064Y012341D02*
X002150Y012341D01*
X002150Y012439D02*
X002064Y012439D01*
X002064Y012538D02*
X002150Y012538D01*
X002150Y012636D02*
X002064Y012636D01*
X002021Y012735D02*
X002150Y012735D01*
X001903Y013030D02*
X002800Y013030D01*
X002802Y013021D02*
X002822Y012987D01*
X002850Y012959D01*
X002884Y012940D01*
X002922Y012929D01*
X003542Y012929D01*
X003542Y013423D01*
X002792Y013423D01*
X002792Y013060D01*
X002802Y013021D01*
X002792Y013129D02*
X001911Y013129D01*
X001911Y013227D02*
X002792Y013227D01*
X002792Y013326D02*
X001911Y013326D01*
X001911Y013621D02*
X002792Y013621D01*
X002792Y013720D02*
X001911Y013720D01*
X001911Y013818D02*
X002082Y013818D01*
X001983Y013917D02*
X001903Y013917D01*
X001885Y014015D02*
X001787Y014015D01*
X002300Y014705D02*
X002871Y014705D01*
X002871Y014606D02*
X002666Y014606D01*
X002743Y014508D02*
X002871Y014508D01*
X002837Y014409D02*
X002777Y014409D01*
X002891Y014803D02*
X002300Y014803D01*
X002300Y014902D02*
X002891Y014902D01*
X002891Y015000D02*
X002300Y015000D01*
X002371Y015099D02*
X002891Y015099D01*
X002891Y015197D02*
X002469Y015197D01*
X002568Y015296D02*
X002891Y015296D01*
X002891Y015394D02*
X002666Y015394D01*
X002765Y015493D02*
X002891Y015493D01*
X002891Y015591D02*
X002863Y015591D01*
X003542Y016478D02*
X003642Y016478D01*
X003642Y016576D02*
X003542Y016576D01*
X003542Y016675D02*
X003642Y016675D01*
X003642Y016773D02*
X003542Y016773D01*
X003542Y016872D02*
X003642Y016872D01*
X004250Y017561D02*
X000640Y017561D01*
X000640Y017463D02*
X000657Y017463D01*
X000640Y017857D02*
X008960Y017857D01*
X008960Y017955D02*
X000640Y017955D01*
X000640Y018054D02*
X008960Y018054D01*
X008960Y018152D02*
X000640Y018152D01*
X000640Y018251D02*
X008960Y018251D01*
X008960Y018349D02*
X000640Y018349D01*
X000640Y018448D02*
X008959Y018448D01*
X008860Y018546D02*
X000640Y018546D01*
X000640Y018645D02*
X008762Y018645D01*
X008663Y018743D02*
X008593Y018743D01*
X008307Y018743D02*
X007593Y018743D01*
X007774Y018842D02*
X008126Y018842D01*
X008028Y018940D02*
X007872Y018940D01*
X007914Y019039D02*
X007986Y019039D01*
X007950Y019137D02*
X007950Y019137D01*
X007950Y019236D02*
X007950Y019236D01*
X007946Y019334D02*
X007954Y019334D01*
X007995Y019433D02*
X007905Y019433D01*
X007851Y019531D02*
X008049Y019531D01*
X008147Y019630D02*
X007753Y019630D01*
X007693Y019728D02*
X007660Y019728D01*
X007907Y019728D02*
X008240Y019728D01*
X008240Y019827D02*
X008109Y019827D01*
X008207Y019925D02*
X008240Y019925D01*
X008258Y020024D02*
X008302Y020024D01*
X008299Y020122D02*
X008301Y020122D01*
X008300Y020221D02*
X008300Y020221D01*
X008300Y020319D02*
X008300Y020319D01*
X008261Y020418D02*
X008339Y020418D01*
X008384Y020516D02*
X008216Y020516D01*
X008118Y020615D02*
X008482Y020615D01*
X007482Y020615D02*
X007118Y020615D01*
X007216Y020516D02*
X007384Y020516D01*
X007339Y020418D02*
X007261Y020418D01*
X007300Y020319D02*
X007300Y020319D01*
X007300Y020221D02*
X007300Y020221D01*
X007299Y020122D02*
X007301Y020122D01*
X007302Y020024D02*
X007258Y020024D01*
X007240Y019925D02*
X007207Y019925D01*
X007240Y019827D02*
X007109Y019827D01*
X007240Y019728D02*
X006907Y019728D01*
X006753Y019630D02*
X007147Y019630D01*
X007049Y019531D02*
X006851Y019531D01*
X006905Y019433D02*
X006995Y019433D01*
X006954Y019334D02*
X006946Y019334D01*
X006950Y019236D02*
X006950Y019236D01*
X006950Y019137D02*
X006950Y019137D01*
X006914Y019039D02*
X006986Y019039D01*
X007028Y018940D02*
X006872Y018940D01*
X006774Y018842D02*
X007126Y018842D01*
X007307Y018743D02*
X006593Y018743D01*
X006307Y018743D02*
X005593Y018743D01*
X005774Y018842D02*
X006126Y018842D01*
X006028Y018940D02*
X005872Y018940D01*
X005914Y019039D02*
X005986Y019039D01*
X005950Y019137D02*
X005950Y019137D01*
X005950Y019236D02*
X005950Y019236D01*
X005946Y019334D02*
X005954Y019334D01*
X005995Y019433D02*
X005905Y019433D01*
X005851Y019531D02*
X006049Y019531D01*
X006147Y019630D02*
X005753Y019630D01*
X005693Y019728D02*
X005660Y019728D01*
X005907Y019728D02*
X006240Y019728D01*
X006240Y019827D02*
X006109Y019827D01*
X006207Y019925D02*
X006240Y019925D01*
X006258Y020024D02*
X006302Y020024D01*
X006299Y020122D02*
X006301Y020122D01*
X006300Y020221D02*
X006300Y020221D01*
X006300Y020319D02*
X006300Y020319D01*
X006261Y020418D02*
X006339Y020418D01*
X006384Y020516D02*
X006216Y020516D01*
X006118Y020615D02*
X006482Y020615D01*
X006660Y019728D02*
X006693Y019728D01*
X005240Y019728D02*
X004953Y019728D01*
X004922Y019718D02*
X005000Y019743D01*
X005073Y019780D01*
X005139Y019828D01*
X005197Y019886D01*
X005240Y019946D01*
X005240Y019679D01*
X005167Y019649D01*
X005026Y019508D01*
X004958Y019343D01*
X004957Y019347D01*
X004932Y019425D01*
X004895Y019498D01*
X004847Y019564D01*
X004789Y019622D01*
X004723Y019670D01*
X004650Y019707D01*
X004572Y019732D01*
X004500Y019744D01*
X004500Y019275D01*
X004400Y019275D01*
X004400Y019744D01*
X004328Y019732D01*
X004250Y019707D01*
X004177Y019670D01*
X004111Y019622D01*
X004053Y019564D01*
X004005Y019498D01*
X003968Y019425D01*
X003943Y019347D01*
X003942Y019343D01*
X003874Y019508D01*
X003733Y019649D01*
X003660Y019679D01*
X003660Y019742D01*
X003701Y019725D01*
X003899Y019725D01*
X004083Y019801D01*
X004224Y019942D01*
X004292Y020107D01*
X004293Y020103D01*
X004318Y020025D01*
X004355Y019952D01*
X004403Y019886D01*
X004461Y019828D01*
X004527Y019780D01*
X004600Y019743D01*
X004678Y019718D01*
X004750Y019706D01*
X004750Y020175D01*
X004850Y020175D01*
X004850Y019706D01*
X004922Y019718D01*
X004850Y019728D02*
X004750Y019728D01*
X004750Y019827D02*
X004850Y019827D01*
X004850Y019925D02*
X004750Y019925D01*
X004750Y020024D02*
X004850Y020024D01*
X004850Y020122D02*
X004750Y020122D01*
X004647Y019728D02*
X004585Y019728D01*
X004500Y019728D02*
X004400Y019728D01*
X004315Y019728D02*
X003907Y019728D01*
X003753Y019630D02*
X004122Y019630D01*
X004030Y019531D02*
X003851Y019531D01*
X003905Y019433D02*
X003972Y019433D01*
X003693Y019728D02*
X003660Y019728D01*
X003240Y019728D02*
X002907Y019728D01*
X002753Y019630D02*
X003147Y019630D01*
X003049Y019531D02*
X002851Y019531D01*
X002905Y019433D02*
X002995Y019433D01*
X002954Y019334D02*
X002946Y019334D01*
X002950Y019236D02*
X002950Y019236D01*
X002950Y019137D02*
X002950Y019137D01*
X002914Y019039D02*
X002986Y019039D01*
X003028Y018940D02*
X002872Y018940D01*
X002774Y018842D02*
X003126Y018842D01*
X003307Y018743D02*
X002593Y018743D01*
X002307Y018743D02*
X001593Y018743D01*
X001774Y018842D02*
X002126Y018842D01*
X002028Y018940D02*
X001872Y018940D01*
X001914Y019039D02*
X001986Y019039D01*
X001950Y019137D02*
X001950Y019137D01*
X001950Y019236D02*
X001950Y019236D01*
X001946Y019334D02*
X001954Y019334D01*
X001995Y019433D02*
X001905Y019433D01*
X001851Y019531D02*
X002049Y019531D01*
X002147Y019630D02*
X001753Y019630D01*
X001693Y019728D02*
X001660Y019728D01*
X001907Y019728D02*
X002240Y019728D01*
X002240Y019827D02*
X002109Y019827D01*
X002207Y019925D02*
X002240Y019925D01*
X002258Y020024D02*
X002302Y020024D01*
X002299Y020122D02*
X002301Y020122D01*
X002300Y020221D02*
X002300Y020221D01*
X002300Y020319D02*
X002300Y020319D01*
X002261Y020418D02*
X002339Y020418D01*
X002384Y020516D02*
X002216Y020516D01*
X002258Y020615D02*
X002482Y020615D01*
X002115Y021009D02*
X001645Y021009D01*
X001672Y020713D02*
X001050Y020713D01*
X000951Y020615D02*
X001482Y020615D01*
X001384Y020516D02*
X000870Y020516D01*
X000813Y020418D02*
X001339Y020418D01*
X001300Y020319D02*
X000756Y020319D01*
X000717Y020221D02*
X001300Y020221D01*
X001301Y020122D02*
X000691Y020122D01*
X000665Y020024D02*
X001302Y020024D01*
X001240Y019925D02*
X000647Y019925D01*
X000641Y019827D02*
X001240Y019827D01*
X001240Y019728D02*
X000640Y019728D01*
X000640Y019630D02*
X001147Y019630D01*
X001049Y019531D02*
X000640Y019531D01*
X000640Y019433D02*
X000995Y019433D01*
X000954Y019334D02*
X000640Y019334D01*
X000640Y019236D02*
X000950Y019236D01*
X000950Y019137D02*
X000640Y019137D01*
X000640Y019039D02*
X000986Y019039D01*
X001028Y018940D02*
X000640Y018940D01*
X000640Y018842D02*
X001126Y018842D01*
X001307Y018743D02*
X000640Y018743D01*
X001219Y017463D02*
X001319Y017463D01*
X001319Y017364D02*
X001219Y017364D01*
X001219Y017266D02*
X001319Y017266D01*
X001319Y017167D02*
X001219Y017167D01*
X001219Y017069D02*
X001319Y017069D01*
X003593Y018743D02*
X004251Y018743D01*
X004400Y018743D02*
X004500Y018743D01*
X004500Y018842D02*
X004400Y018842D01*
X004400Y018940D02*
X004500Y018940D01*
X004500Y019039D02*
X004400Y019039D01*
X004400Y019137D02*
X004500Y019137D01*
X004500Y019334D02*
X004400Y019334D01*
X004400Y019433D02*
X004500Y019433D01*
X004500Y019531D02*
X004400Y019531D01*
X004400Y019630D02*
X004500Y019630D01*
X004464Y019827D02*
X004109Y019827D01*
X004207Y019925D02*
X004375Y019925D01*
X004319Y020024D02*
X004258Y020024D01*
X004778Y019630D02*
X005147Y019630D01*
X005049Y019531D02*
X004870Y019531D01*
X004928Y019433D02*
X004995Y019433D01*
X005136Y019827D02*
X005240Y019827D01*
X005240Y019925D02*
X005225Y019925D01*
X004986Y019039D02*
X004936Y019039D01*
X004886Y018940D02*
X005028Y018940D01*
X005126Y018842D02*
X004802Y018842D01*
X004649Y018743D02*
X005307Y018743D01*
X004350Y017758D02*
X008960Y017758D01*
X008960Y017660D02*
X004448Y017660D01*
X004450Y017561D02*
X008960Y017561D01*
X008960Y017463D02*
X007155Y017463D01*
X007244Y017364D02*
X008960Y017364D01*
X008960Y017266D02*
X007279Y017266D01*
X007278Y017167D02*
X008960Y017167D01*
X008960Y017069D02*
X007237Y017069D01*
X007319Y016970D02*
X007719Y016970D01*
X007649Y016872D02*
X007355Y016872D01*
X007355Y016773D02*
X007646Y016773D01*
X007646Y016675D02*
X007355Y016675D01*
X007646Y016576D02*
X008100Y016576D01*
X008100Y016675D02*
X008200Y016675D01*
X008200Y016773D02*
X008100Y016773D01*
X008100Y016872D02*
X008200Y016872D01*
X008200Y016970D02*
X008100Y016970D01*
X008581Y016970D02*
X008960Y016970D01*
X008960Y016872D02*
X008651Y016872D01*
X008654Y016773D02*
X008960Y016773D01*
X008960Y016675D02*
X008654Y016675D01*
X008654Y016379D02*
X008960Y016379D01*
X008960Y016281D02*
X008654Y016281D01*
X008652Y016182D02*
X008960Y016182D01*
X008960Y016084D02*
X008583Y016084D01*
X008634Y015788D02*
X008960Y015788D01*
X008960Y015690D02*
X008634Y015690D01*
X008634Y015591D02*
X008960Y015591D01*
X008960Y015493D02*
X008634Y015493D01*
X008634Y015394D02*
X008960Y015394D01*
X008960Y015296D02*
X008634Y015296D01*
X008634Y015197D02*
X008960Y015197D01*
X008960Y015099D02*
X008634Y015099D01*
X008579Y015000D02*
X008960Y015000D01*
X008960Y014902D02*
X008350Y014902D01*
X008350Y014803D02*
X008960Y014803D01*
X008960Y014705D02*
X008350Y014705D01*
X008502Y014606D02*
X008960Y014606D01*
X008960Y014508D02*
X008506Y014508D01*
X008506Y014409D02*
X008960Y014409D01*
X008960Y014311D02*
X008506Y014311D01*
X008506Y014212D02*
X008960Y014212D01*
X008960Y014114D02*
X008506Y014114D01*
X008506Y014015D02*
X008960Y014015D01*
X008960Y013917D02*
X008479Y013917D01*
X007721Y015000D02*
X007355Y015000D01*
X007355Y015099D02*
X007666Y015099D01*
X007666Y015197D02*
X007355Y015197D01*
X007355Y015296D02*
X007666Y015296D01*
X007666Y015394D02*
X007355Y015394D01*
X007355Y015493D02*
X007666Y015493D01*
X007660Y015591D02*
X007666Y015591D01*
X006763Y017069D02*
X004450Y017069D01*
X004450Y017167D02*
X006722Y017167D01*
X006721Y017266D02*
X004450Y017266D01*
X004450Y017364D02*
X006756Y017364D01*
X006845Y017463D02*
X004450Y017463D01*
X004098Y018842D02*
X003774Y018842D01*
X003872Y018940D02*
X004014Y018940D01*
X003964Y019039D02*
X003914Y019039D01*
X003240Y019827D02*
X003109Y019827D01*
X003207Y019925D02*
X003240Y019925D01*
X003258Y020024D02*
X003302Y020024D01*
X003299Y020122D02*
X003301Y020122D01*
X003300Y020221D02*
X003300Y020221D01*
X003300Y020319D02*
X003300Y020319D01*
X003261Y020418D02*
X003339Y020418D01*
X003384Y020516D02*
X003216Y020516D01*
X003118Y020615D02*
X003482Y020615D01*
X002693Y019728D02*
X002660Y019728D01*
X001918Y020812D02*
X001170Y020812D01*
X001341Y020910D02*
X002016Y020910D01*
X003542Y013326D02*
X003642Y013326D01*
X003642Y013227D02*
X003542Y013227D01*
X003542Y013129D02*
X003642Y013129D01*
X003642Y013030D02*
X003542Y013030D01*
X003542Y012932D02*
X003642Y012932D01*
X002914Y012932D02*
X001789Y012932D01*
X000749Y012932D02*
X000640Y012932D01*
X002350Y011750D02*
X003973Y011750D01*
X003973Y011848D02*
X003147Y011848D01*
X003166Y011947D02*
X003980Y011947D01*
X004083Y012045D02*
X003166Y012045D01*
X003166Y012144D02*
X007830Y012144D01*
X007830Y012242D02*
X002751Y012242D01*
X002751Y012144D02*
X002651Y012144D01*
X002651Y012045D02*
X002751Y012045D01*
X002751Y011947D02*
X002651Y011947D01*
X002651Y011848D02*
X002751Y011848D01*
X002760Y011651D02*
X002660Y011651D01*
X002660Y011553D02*
X002760Y011553D01*
X002760Y011454D02*
X002660Y011454D01*
X002660Y011356D02*
X002760Y011356D01*
X003175Y011159D02*
X006603Y011159D01*
X006545Y011257D02*
X005868Y011257D01*
X005907Y011356D02*
X006545Y011356D01*
X007377Y011159D02*
X007694Y011159D01*
X007645Y011257D02*
X007435Y011257D01*
X007435Y011356D02*
X007645Y011356D01*
X007645Y011454D02*
X007435Y011454D01*
X007435Y011553D02*
X007645Y011553D01*
X007645Y011651D02*
X007435Y011651D01*
X007435Y011750D02*
X007645Y011750D01*
X007645Y011848D02*
X007435Y011848D01*
X007435Y011947D02*
X007645Y011947D01*
X007648Y012045D02*
X007424Y012045D01*
X007830Y012341D02*
X003166Y012341D01*
X004309Y012045D02*
X004409Y012045D01*
X004409Y011947D02*
X004309Y011947D01*
X004309Y011848D02*
X004409Y011848D01*
X004409Y011553D02*
X004309Y011553D01*
X004309Y011454D02*
X004409Y011454D01*
X004409Y011356D02*
X004309Y011356D01*
X004309Y011257D02*
X004409Y011257D01*
X003175Y011060D02*
X007830Y011060D01*
X007805Y010962D02*
X003175Y010962D01*
X003175Y010863D02*
X007706Y010863D01*
X007608Y010765D02*
X003131Y010765D01*
X001733Y009149D02*
X001549Y009225D01*
X001351Y009225D01*
X001167Y009149D01*
X001026Y009008D01*
X000950Y008824D01*
X000950Y008626D01*
X001026Y008442D01*
X001167Y008301D01*
X001351Y008225D01*
X001549Y008225D01*
X001733Y008301D01*
X001874Y008442D01*
X001950Y008626D01*
X001950Y008824D01*
X001874Y009008D01*
X001733Y009149D01*
X001792Y009090D02*
X006780Y009090D01*
X006780Y008992D02*
X001881Y008992D01*
X001922Y008893D02*
X006780Y008893D01*
X006780Y008795D02*
X001950Y008795D01*
X001950Y008696D02*
X006780Y008696D01*
X006780Y008598D02*
X001938Y008598D01*
X001898Y008499D02*
X006780Y008499D01*
X006780Y008401D02*
X001833Y008401D01*
X001734Y008302D02*
X006780Y008302D01*
X006787Y008204D02*
X001601Y008204D01*
X001777Y008105D02*
X006838Y008105D01*
X006937Y008007D02*
X001875Y008007D01*
X001915Y007908D02*
X007035Y007908D01*
X007134Y007810D02*
X001950Y007810D01*
X001950Y007711D02*
X007232Y007711D01*
X007331Y007613D02*
X001945Y007613D01*
X001904Y007514D02*
X007429Y007514D01*
X007528Y007416D02*
X001848Y007416D01*
X001749Y007317D02*
X007626Y007317D01*
X007725Y007219D02*
X001565Y007219D01*
X001762Y007120D02*
X006463Y007120D01*
X006365Y007022D02*
X001861Y007022D01*
X001909Y006923D02*
X006266Y006923D01*
X006168Y006825D02*
X001950Y006825D01*
X001950Y006726D02*
X006069Y006726D01*
X005971Y006628D02*
X001950Y006628D01*
X001910Y006529D02*
X005872Y006529D01*
X005774Y006431D02*
X001863Y006431D01*
X001764Y006332D02*
X005675Y006332D01*
X005577Y006234D02*
X001581Y006234D01*
X001775Y006135D02*
X005478Y006135D01*
X005380Y006037D02*
X001874Y006037D01*
X001319Y006234D02*
X000640Y006234D01*
X000640Y006332D02*
X001136Y006332D01*
X001037Y006431D02*
X000640Y006431D01*
X000640Y006529D02*
X000990Y006529D01*
X000950Y006628D02*
X000640Y006628D01*
X000640Y006726D02*
X000950Y006726D01*
X000950Y006825D02*
X000640Y006825D01*
X000640Y006923D02*
X000991Y006923D01*
X001039Y007022D02*
X000640Y007022D01*
X000640Y007120D02*
X001138Y007120D01*
X001151Y007317D02*
X000640Y007317D01*
X000640Y007219D02*
X001335Y007219D01*
X001052Y007416D02*
X000640Y007416D01*
X000640Y007514D02*
X000996Y007514D01*
X000955Y007613D02*
X000640Y007613D01*
X000640Y007711D02*
X000950Y007711D01*
X000950Y007810D02*
X000640Y007810D01*
X000640Y007908D02*
X000985Y007908D01*
X001025Y008007D02*
X000640Y008007D01*
X000640Y008105D02*
X001123Y008105D01*
X001299Y008204D02*
X000640Y008204D01*
X000640Y008302D02*
X001166Y008302D01*
X001067Y008401D02*
X000640Y008401D01*
X000640Y008499D02*
X001002Y008499D01*
X000962Y008598D02*
X000640Y008598D01*
X000640Y008696D02*
X000950Y008696D01*
X000950Y008795D02*
X000640Y008795D01*
X000640Y008893D02*
X000978Y008893D01*
X001019Y008992D02*
X000640Y008992D01*
X000640Y009090D02*
X001108Y009090D01*
X001262Y009189D02*
X000640Y009189D01*
X000640Y009287D02*
X006780Y009287D01*
X006780Y009189D02*
X001638Y009189D01*
X000640Y009386D02*
X006780Y009386D01*
X006780Y009484D02*
X000640Y009484D01*
X000640Y009583D02*
X006780Y009583D01*
X006780Y009681D02*
X000640Y009681D01*
X000640Y009780D02*
X006780Y009780D01*
X006780Y009878D02*
X000640Y009878D01*
X000640Y009977D02*
X006821Y009977D01*
X006918Y010075D02*
X000640Y010075D01*
X000640Y010174D02*
X007017Y010174D01*
X007115Y010272D02*
X000640Y010272D01*
X000640Y006135D02*
X001125Y006135D01*
X001026Y006037D02*
X000640Y006037D01*
X000640Y005938D02*
X000975Y005938D01*
X000935Y005840D02*
X000640Y005840D01*
X000640Y005741D02*
X000930Y005741D01*
X000930Y005643D02*
X000640Y005643D01*
X000640Y005544D02*
X000962Y005544D01*
X001003Y005446D02*
X000640Y005446D01*
X000640Y005347D02*
X001093Y005347D01*
X001242Y005249D02*
X000640Y005249D01*
X000640Y005150D02*
X001150Y005150D01*
X001044Y005052D02*
X000640Y005052D01*
X000640Y004953D02*
X000983Y004953D01*
X000945Y004855D02*
X000640Y004855D01*
X001400Y004559D02*
X001500Y004559D01*
X001500Y004461D02*
X001400Y004461D01*
X001400Y004362D02*
X001500Y004362D01*
X001500Y004264D02*
X001400Y004264D01*
X001400Y004165D02*
X001500Y004165D01*
X001500Y004067D02*
X001400Y004067D01*
X001400Y003968D02*
X001500Y003968D01*
X001500Y003870D02*
X001400Y003870D01*
X001400Y003574D02*
X001500Y003574D01*
X001500Y003476D02*
X001400Y003476D01*
X001400Y003377D02*
X001500Y003377D01*
X001500Y003279D02*
X001400Y003279D01*
X001181Y003279D02*
X000640Y003279D01*
X000640Y003377D02*
X001063Y003377D01*
X000994Y003476D02*
X000640Y003476D01*
X000640Y003574D02*
X000952Y003574D01*
X001251Y002097D02*
X002213Y002097D01*
X001971Y001998D02*
X001185Y001998D01*
X001556Y001112D02*
X000767Y001112D01*
X000824Y001013D02*
X001573Y001013D01*
X001591Y000915D02*
X000881Y000915D01*
X000971Y000816D02*
X001647Y000816D01*
X001704Y000718D02*
X001069Y000718D01*
X001204Y000619D02*
X001772Y000619D01*
X001889Y000521D02*
X001374Y000521D01*
X001757Y000422D02*
X002025Y000422D01*
X002875Y000422D02*
X019826Y000422D01*
X020045Y000521D02*
X003011Y000521D01*
X001955Y004855D02*
X007180Y004855D01*
X007180Y004953D02*
X001917Y004953D01*
X001856Y005052D02*
X007180Y005052D01*
X007180Y005150D02*
X001750Y005150D01*
X001658Y005249D02*
X007180Y005249D01*
X007180Y005347D02*
X001807Y005347D01*
X001897Y005446D02*
X007180Y005446D01*
X007180Y005544D02*
X005651Y005544D01*
X005749Y005643D02*
X007180Y005643D01*
X007180Y005741D02*
X005848Y005741D01*
X005946Y005840D02*
X007180Y005840D01*
X007180Y005938D02*
X006045Y005938D01*
X006143Y006037D02*
X007180Y006037D01*
X007192Y006135D02*
X006242Y006135D01*
X006340Y006234D02*
X007250Y006234D01*
X007349Y006332D02*
X006439Y006332D01*
X006537Y006431D02*
X007447Y006431D01*
X007546Y006529D02*
X006636Y006529D01*
X006734Y006628D02*
X007644Y006628D01*
X008211Y006431D02*
X011859Y006431D01*
X011957Y006529D02*
X008310Y006529D01*
X008350Y006332D02*
X008450Y006332D01*
X008450Y006234D02*
X008350Y006234D01*
X008350Y006135D02*
X008450Y006135D01*
X008450Y006037D02*
X008350Y006037D01*
X008350Y005741D02*
X008450Y005741D01*
X008450Y005643D02*
X008350Y005643D01*
X008350Y005544D02*
X008450Y005544D01*
X008450Y005446D02*
X008350Y005446D01*
X008904Y006037D02*
X009066Y006037D01*
X009066Y006135D02*
X008904Y006135D01*
X008904Y006234D02*
X009066Y006234D01*
X009105Y006332D02*
X008848Y006332D01*
X008904Y006628D02*
X009067Y006628D01*
X009046Y006726D02*
X008904Y006726D01*
X008904Y007317D02*
X009046Y007317D01*
X009058Y007416D02*
X008867Y007416D01*
X009115Y008696D02*
X007320Y008696D01*
X007320Y008795D02*
X009065Y008795D01*
X009065Y008893D02*
X007320Y008893D01*
X007320Y008992D02*
X007639Y008992D01*
X007554Y009090D02*
X007320Y009090D01*
X007320Y009189D02*
X007521Y009189D01*
X007524Y009287D02*
X007320Y009287D01*
X007320Y009386D02*
X007566Y009386D01*
X007697Y009484D02*
X007320Y009484D01*
X007320Y009583D02*
X008689Y009583D01*
X008787Y009681D02*
X007320Y009681D01*
X007386Y009780D02*
X008886Y009780D01*
X009051Y009878D02*
X007485Y009878D01*
X007583Y009977D02*
X009045Y009977D01*
X009045Y010075D02*
X007682Y010075D01*
X007780Y010174D02*
X009045Y010174D01*
X009045Y010371D02*
X007977Y010371D01*
X008076Y010469D02*
X009045Y010469D01*
X009045Y010568D02*
X008174Y010568D01*
X008273Y010666D02*
X009099Y010666D01*
X009500Y010272D02*
X007879Y010272D01*
X007903Y009484D02*
X008590Y009484D01*
X008832Y009189D02*
X009065Y009189D01*
X009065Y009287D02*
X008931Y009287D01*
X009029Y009386D02*
X009065Y009386D01*
X009065Y009090D02*
X008734Y009090D01*
X009065Y008992D02*
X007961Y008992D01*
X011154Y007317D02*
X011295Y007317D01*
X011495Y006923D02*
X012254Y006923D01*
X012189Y006825D02*
X011397Y006825D01*
X011154Y006726D02*
X012154Y006726D01*
X012056Y006628D02*
X011133Y006628D01*
X011123Y006332D02*
X011760Y006332D01*
X011740Y006234D02*
X011154Y006234D01*
X011154Y006135D02*
X011740Y006135D01*
X011740Y006037D02*
X011154Y006037D01*
X011875Y008442D02*
X011875Y008950D01*
X012390Y009465D01*
X014450Y009465D01*
X014400Y009625D02*
X014400Y010875D01*
X014400Y010975D01*
X014400Y011175D01*
X014400Y013003D01*
X014080Y013030D02*
X014080Y013030D01*
X014080Y013129D02*
X014080Y013129D01*
X014080Y013227D02*
X014080Y013227D01*
X014080Y013326D02*
X014080Y013326D01*
X014080Y013424D02*
X014080Y013424D01*
X013990Y013523D02*
X014185Y013523D01*
X014185Y013621D02*
X013990Y013621D01*
X013990Y013720D02*
X014274Y013720D01*
X014372Y013818D02*
X014062Y013818D01*
X014160Y013917D02*
X014471Y013917D01*
X014569Y014015D02*
X014259Y014015D01*
X014357Y014114D02*
X014668Y014114D01*
X014766Y014212D02*
X014456Y014212D01*
X014554Y014311D02*
X014865Y014311D01*
X014963Y014409D02*
X014640Y014409D01*
X014640Y014508D02*
X015062Y014508D01*
X015121Y014606D02*
X014640Y014606D01*
X014641Y014705D02*
X015121Y014705D01*
X015121Y014803D02*
X014640Y014803D01*
X014631Y014902D02*
X015121Y014902D01*
X015121Y015000D02*
X014625Y015000D01*
X014620Y015099D02*
X015121Y015099D01*
X015167Y015197D02*
X014617Y015197D01*
X014617Y015296D02*
X019740Y015296D01*
X019683Y015197D02*
X016083Y015197D01*
X016129Y015099D02*
X019626Y015099D01*
X019585Y015000D02*
X016129Y015000D01*
X016129Y014902D02*
X019567Y014902D01*
X019550Y014803D02*
X016129Y014803D01*
X016129Y014705D02*
X019540Y014705D01*
X019557Y014606D02*
X016129Y014606D01*
X016129Y014508D02*
X019574Y014508D01*
X019593Y014409D02*
X016129Y014409D01*
X016043Y014311D02*
X019650Y014311D01*
X019707Y014212D02*
X015360Y014212D01*
X015262Y014114D02*
X019779Y014114D01*
X019896Y014015D02*
X015163Y014015D01*
X015065Y013917D02*
X020040Y013917D01*
X020860Y013917D02*
X021260Y013917D01*
X021260Y014015D02*
X021004Y014015D01*
X021121Y014114D02*
X021260Y014114D01*
X021260Y014212D02*
X021193Y014212D01*
X021250Y014311D02*
X021260Y014311D01*
X021260Y013818D02*
X018376Y013818D01*
X018474Y013720D02*
X021260Y013720D01*
X021260Y013621D02*
X018698Y013621D01*
X018761Y013523D02*
X021260Y013523D01*
X021260Y013424D02*
X018779Y013424D01*
X018761Y013326D02*
X021260Y013326D01*
X021260Y013227D02*
X018696Y013227D01*
X018304Y013227D02*
X015224Y013227D01*
X015224Y013129D02*
X021260Y013129D01*
X021260Y013030D02*
X015224Y013030D01*
X015224Y012932D02*
X021260Y012932D01*
X021260Y012833D02*
X015224Y012833D01*
X015224Y012735D02*
X020224Y012735D01*
X020126Y012636D02*
X019746Y012636D01*
X019845Y012538D02*
X020027Y012538D01*
X020676Y012735D02*
X021260Y012735D01*
X021260Y012636D02*
X020774Y012636D01*
X020873Y012538D02*
X021260Y012538D01*
X021260Y012439D02*
X020970Y012439D01*
X020970Y012341D02*
X021260Y012341D01*
X021260Y012242D02*
X020970Y012242D01*
X020970Y012144D02*
X021260Y012144D01*
X021260Y012045D02*
X020970Y012045D01*
X020907Y011947D02*
X021260Y011947D01*
X021260Y011848D02*
X020808Y011848D01*
X020710Y011750D02*
X021260Y011750D01*
X021260Y010075D02*
X020970Y010075D01*
X020937Y009977D02*
X021260Y009977D01*
X021260Y009878D02*
X020838Y009878D01*
X020740Y009780D02*
X021260Y009780D01*
X020106Y009583D02*
X019794Y009583D01*
X019844Y009484D02*
X020056Y009484D01*
X020056Y009386D02*
X019844Y009386D01*
X019844Y009287D02*
X020056Y009287D01*
X020056Y009189D02*
X019844Y009189D01*
X019844Y009090D02*
X020056Y009090D01*
X020056Y008992D02*
X019844Y008992D01*
X019844Y008893D02*
X020049Y008893D01*
X019951Y008795D02*
X019844Y008795D01*
X019852Y008696D02*
X019823Y008696D01*
X019810Y008598D02*
X019609Y008598D01*
X019609Y008499D02*
X019810Y008499D01*
X019810Y008401D02*
X019699Y008401D01*
X019727Y008302D02*
X019810Y008302D01*
X019751Y008204D02*
X019727Y008204D01*
X019727Y007908D02*
X019773Y007908D01*
X019727Y007810D02*
X019912Y007810D01*
X020088Y007810D02*
X020553Y007810D01*
X020553Y007711D02*
X019727Y007711D01*
X019727Y007613D02*
X020553Y007613D01*
X020553Y007514D02*
X019727Y007514D01*
X019665Y007416D02*
X020607Y007416D01*
X020852Y006431D02*
X020948Y006431D01*
X020948Y006332D02*
X020852Y006332D01*
X020852Y006234D02*
X020948Y006234D01*
X020948Y006135D02*
X020852Y006135D01*
X020852Y006037D02*
X020948Y006037D01*
X020948Y005840D02*
X020852Y005840D01*
X020852Y005741D02*
X020948Y005741D01*
X020948Y005643D02*
X020852Y005643D01*
X020852Y005544D02*
X020948Y005544D01*
X020948Y005446D02*
X020852Y005446D01*
X020579Y005446D02*
X019695Y005446D01*
X019727Y005544D02*
X020553Y005544D01*
X020553Y005643D02*
X019727Y005643D01*
X019727Y005741D02*
X020553Y005741D01*
X021247Y006037D02*
X021260Y006037D01*
X021247Y006135D02*
X021260Y006135D01*
X021247Y006234D02*
X021260Y006234D01*
X021247Y006332D02*
X021260Y006332D01*
X021260Y006431D02*
X021197Y006431D01*
X019190Y006529D02*
X018100Y006529D01*
X018100Y006628D02*
X019190Y006628D01*
X019190Y006726D02*
X018411Y006726D01*
X018455Y006825D02*
X019190Y006825D01*
X019190Y006923D02*
X018455Y006923D01*
X018455Y007022D02*
X019190Y007022D01*
X019190Y007120D02*
X018455Y007120D01*
X018455Y007219D02*
X019190Y007219D01*
X019190Y007317D02*
X018455Y007317D01*
X018455Y007416D02*
X019135Y007416D01*
X019073Y007514D02*
X018455Y007514D01*
X018160Y007613D02*
X019073Y007613D01*
X019073Y007711D02*
X018160Y007711D01*
X018160Y007810D02*
X019073Y007810D01*
X019073Y007908D02*
X018160Y007908D01*
X018115Y008007D02*
X019073Y008007D01*
X019073Y008105D02*
X018017Y008105D01*
X017918Y008204D02*
X019073Y008204D01*
X019073Y008302D02*
X017820Y008302D01*
X017721Y008401D02*
X019101Y008401D01*
X018383Y008598D02*
X017524Y008598D01*
X017423Y008105D02*
X016314Y008105D01*
X016412Y008007D02*
X017521Y008007D01*
X017620Y007908D02*
X016511Y007908D01*
X016590Y007810D02*
X017718Y007810D01*
X017740Y007711D02*
X016590Y007711D01*
X016590Y007613D02*
X017740Y007613D01*
X017445Y007514D02*
X016815Y007514D01*
X016415Y008004D02*
X016415Y008004D01*
X016170Y007711D02*
X014585Y007711D01*
X014585Y007613D02*
X016210Y007613D01*
X015985Y007514D02*
X015290Y007514D01*
X015359Y007416D02*
X015916Y007416D01*
X015916Y007317D02*
X015477Y007317D01*
X015575Y007219D02*
X015916Y007219D01*
X015916Y007120D02*
X015674Y007120D01*
X015740Y007022D02*
X015916Y007022D01*
X015916Y006923D02*
X015740Y006923D01*
X015740Y006825D02*
X015916Y006825D01*
X015916Y006726D02*
X015740Y006726D01*
X015789Y006628D02*
X017750Y006628D01*
X017750Y006529D02*
X015829Y006529D01*
X015829Y006431D02*
X015995Y006431D01*
X015988Y006429D02*
X015954Y006409D01*
X015926Y006381D01*
X015906Y006347D01*
X015896Y006309D01*
X015896Y006024D01*
X016350Y006024D01*
X016350Y006439D01*
X016026Y006439D01*
X015988Y006429D01*
X015902Y006332D02*
X015793Y006332D01*
X015696Y006234D02*
X015896Y006234D01*
X015896Y006135D02*
X015379Y006135D01*
X015379Y006037D02*
X015896Y006037D01*
X015896Y005924D02*
X015896Y005639D01*
X015906Y005601D01*
X015926Y005567D01*
X015954Y005539D01*
X015988Y005519D01*
X016026Y005509D01*
X016350Y005509D01*
X016350Y005924D01*
X015896Y005924D01*
X015896Y005840D02*
X015379Y005840D01*
X015379Y005924D02*
X014925Y005924D01*
X014925Y005509D01*
X015249Y005509D01*
X015287Y005519D01*
X015321Y005539D01*
X015349Y005567D01*
X015369Y005601D01*
X015379Y005639D01*
X015379Y005924D01*
X015379Y005741D02*
X015896Y005741D01*
X015896Y005643D02*
X015379Y005643D01*
X015327Y005544D02*
X015948Y005544D01*
X016350Y005544D02*
X016450Y005544D01*
X016450Y005509D02*
X016774Y005509D01*
X016812Y005519D01*
X016846Y005539D01*
X016874Y005567D01*
X016894Y005601D01*
X016904Y005639D01*
X016904Y005924D01*
X016450Y005924D01*
X016450Y006024D01*
X016350Y006024D01*
X016350Y005924D01*
X016450Y005924D01*
X016450Y005509D01*
X016450Y005643D02*
X016350Y005643D01*
X016350Y005741D02*
X016450Y005741D01*
X016450Y005840D02*
X016350Y005840D01*
X016350Y005938D02*
X014925Y005938D01*
X014925Y005840D02*
X014825Y005840D01*
X014825Y005938D02*
X014290Y005938D01*
X014290Y005840D02*
X014371Y005840D01*
X014371Y005741D02*
X014290Y005741D01*
X014290Y005643D02*
X014371Y005643D01*
X014423Y005544D02*
X014290Y005544D01*
X014326Y005446D02*
X017059Y005446D01*
X017157Y005544D02*
X016852Y005544D01*
X016904Y005643D02*
X017256Y005643D01*
X017354Y005741D02*
X016904Y005741D01*
X016904Y005840D02*
X017453Y005840D01*
X017465Y005938D02*
X016450Y005938D01*
X016450Y006024D02*
X016904Y006024D01*
X016904Y006309D01*
X016894Y006347D01*
X016874Y006381D01*
X016846Y006409D01*
X016812Y006429D01*
X016774Y006439D01*
X016450Y006439D01*
X016450Y006024D01*
X016450Y006037D02*
X016350Y006037D01*
X016350Y006135D02*
X016450Y006135D01*
X016450Y006234D02*
X016350Y006234D01*
X016350Y006332D02*
X016450Y006332D01*
X016450Y006431D02*
X016350Y006431D01*
X016805Y006431D02*
X017499Y006431D01*
X017465Y006332D02*
X016898Y006332D01*
X016904Y006234D02*
X017465Y006234D01*
X017465Y006135D02*
X016904Y006135D01*
X016904Y006037D02*
X017465Y006037D01*
X017581Y005544D02*
X019073Y005544D01*
X019073Y005643D02*
X018419Y005643D01*
X018435Y005741D02*
X018737Y005741D01*
X018937Y006135D02*
X019073Y006135D01*
X019073Y006234D02*
X018838Y006234D01*
X019073Y006332D02*
X018435Y006332D01*
X018401Y006431D02*
X019131Y006431D01*
X019105Y005446D02*
X017482Y005446D01*
X017384Y005347D02*
X019210Y005347D01*
X019210Y005249D02*
X017285Y005249D01*
X017187Y005150D02*
X019210Y005150D01*
X019210Y005052D02*
X017088Y005052D01*
X016990Y004953D02*
X019210Y004953D01*
X019210Y004855D02*
X016891Y004855D01*
X016763Y005150D02*
X014622Y005150D01*
X014523Y005249D02*
X016862Y005249D01*
X016960Y005347D02*
X014425Y005347D01*
X014825Y005544D02*
X014925Y005544D01*
X014925Y005643D02*
X014825Y005643D01*
X014825Y005741D02*
X014925Y005741D01*
X014925Y006037D02*
X014825Y006037D01*
X014825Y006135D02*
X014925Y006135D01*
X014925Y006234D02*
X014825Y006234D01*
X014825Y006332D02*
X014925Y006332D01*
X014925Y006431D02*
X014825Y006431D01*
X014470Y006431D02*
X014290Y006431D01*
X014290Y006529D02*
X015271Y006529D01*
X015311Y006628D02*
X014290Y006628D01*
X014290Y006726D02*
X014391Y006726D01*
X014391Y006825D02*
X014290Y006825D01*
X014290Y006923D02*
X014391Y006923D01*
X014391Y007022D02*
X014290Y007022D01*
X014290Y007120D02*
X014391Y007120D01*
X014388Y007219D02*
X014290Y007219D01*
X014290Y006332D02*
X014377Y006332D01*
X014371Y006234D02*
X014290Y006234D01*
X014290Y006135D02*
X014371Y006135D01*
X014371Y006037D02*
X014290Y006037D01*
X015359Y006726D02*
X015360Y006726D01*
X015359Y006825D02*
X015360Y006825D01*
X015379Y006234D02*
X015404Y006234D01*
X016884Y006726D02*
X017489Y006726D01*
X017445Y006825D02*
X016884Y006825D01*
X016884Y006923D02*
X017445Y006923D01*
X017445Y007022D02*
X017191Y007022D01*
X017258Y007120D02*
X017445Y007120D01*
X017445Y007219D02*
X017279Y007219D01*
X017264Y007317D02*
X017445Y007317D01*
X017445Y007416D02*
X017204Y007416D01*
X016536Y008992D02*
X016517Y008992D01*
X016539Y009583D02*
X017050Y009583D01*
X017518Y010075D02*
X017540Y010075D01*
X017540Y010174D02*
X016159Y010174D01*
X016162Y010272D02*
X017540Y010272D01*
X018250Y009484D02*
X018350Y009484D01*
X018350Y009386D02*
X018250Y009386D01*
X018250Y009287D02*
X018350Y009287D01*
X018350Y009189D02*
X018250Y009189D01*
X018082Y009090D02*
X018461Y009090D01*
X018804Y009681D02*
X019260Y009681D01*
X019188Y009780D02*
X018804Y009780D01*
X018804Y009878D02*
X019090Y009878D01*
X018991Y009977D02*
X018800Y009977D01*
X018718Y010075D02*
X018950Y010075D01*
X019810Y009878D02*
X020062Y009878D01*
X019963Y009977D02*
X019909Y009977D01*
X019055Y012538D02*
X015215Y012538D01*
X015215Y012636D02*
X019154Y012636D01*
X018239Y013326D02*
X015224Y013326D01*
X015157Y013424D02*
X018221Y013424D01*
X018134Y013523D02*
X015016Y013523D01*
X014115Y014409D02*
X013668Y014409D01*
X013668Y014311D02*
X014017Y014311D01*
X013918Y014212D02*
X013668Y014212D01*
X013668Y014114D02*
X013820Y014114D01*
X013721Y014015D02*
X013668Y014015D01*
X013288Y014015D02*
X013010Y014015D01*
X013010Y013917D02*
X013288Y013917D01*
X013288Y013818D02*
X013010Y013818D01*
X013010Y013720D02*
X013288Y013720D01*
X013288Y013621D02*
X013010Y013621D01*
X013010Y013523D02*
X013288Y013523D01*
X013288Y013424D02*
X013267Y013424D01*
X013288Y014114D02*
X013010Y014114D01*
X013010Y014212D02*
X013288Y014212D01*
X013288Y014311D02*
X013010Y014311D01*
X013010Y014409D02*
X013288Y014409D01*
X013288Y014508D02*
X013010Y014508D01*
X013010Y014606D02*
X013288Y014606D01*
X013288Y014705D02*
X013010Y014705D01*
X013010Y014803D02*
X013288Y014803D01*
X013283Y014902D02*
X013010Y014902D01*
X013010Y015000D02*
X013283Y015000D01*
X013283Y015099D02*
X013010Y015099D01*
X013010Y015197D02*
X013283Y015197D01*
X013283Y015296D02*
X013010Y015296D01*
X013010Y015394D02*
X013283Y015394D01*
X013283Y015493D02*
X013010Y015493D01*
X013010Y015591D02*
X013283Y015591D01*
X013010Y015690D02*
X013864Y015690D01*
X013865Y015690D02*
X013827Y015680D01*
X013793Y015660D01*
X013765Y015632D01*
X013745Y015598D01*
X013735Y015560D01*
X013735Y015225D01*
X013950Y015225D01*
X014165Y015225D01*
X014165Y015560D01*
X014155Y015598D01*
X014135Y015632D01*
X014107Y015660D01*
X014073Y015680D01*
X014035Y015690D01*
X013950Y015690D01*
X013950Y015225D01*
X013950Y015225D01*
X013950Y015225D01*
X014165Y015225D01*
X014165Y014890D01*
X014155Y014852D01*
X014135Y014818D01*
X014107Y014790D01*
X014073Y014770D01*
X014035Y014760D01*
X013950Y014760D01*
X013950Y015225D01*
X013950Y015225D01*
X013950Y015225D01*
X013950Y015690D01*
X013865Y015690D01*
X013950Y015690D02*
X013950Y015690D01*
X014036Y015690D02*
X015121Y015690D01*
X015121Y015788D02*
X013010Y015788D01*
X013010Y015887D02*
X015575Y015887D01*
X015575Y015926D02*
X015575Y015826D01*
X015675Y015826D01*
X015675Y015411D01*
X015999Y015411D01*
X016037Y015421D01*
X016071Y015441D01*
X016099Y015469D01*
X016119Y015503D01*
X016129Y015541D01*
X016129Y015826D01*
X015675Y015826D01*
X015675Y015926D01*
X016129Y015926D01*
X016129Y016211D01*
X016119Y016249D01*
X016099Y016283D01*
X016071Y016311D01*
X016037Y016331D01*
X015999Y016341D01*
X015675Y016341D01*
X015675Y015926D01*
X015575Y015926D01*
X015121Y015926D01*
X015121Y016211D01*
X015131Y016249D01*
X015151Y016283D01*
X015179Y016311D01*
X015213Y016331D01*
X015251Y016341D01*
X015575Y016341D01*
X015575Y015926D01*
X015575Y015985D02*
X015675Y015985D01*
X015675Y015887D02*
X020520Y015887D01*
X020421Y015985D02*
X016129Y015985D01*
X016129Y016084D02*
X020323Y016084D01*
X020260Y016182D02*
X016129Y016182D01*
X016101Y016281D02*
X020260Y016281D01*
X020260Y016379D02*
X013010Y016379D01*
X013010Y016281D02*
X015149Y016281D01*
X015121Y016182D02*
X013010Y016182D01*
X013010Y016084D02*
X015121Y016084D01*
X015121Y015985D02*
X013010Y015985D01*
X013010Y016478D02*
X020260Y016478D01*
X020260Y016576D02*
X013010Y016576D01*
X013010Y016675D02*
X020260Y016675D01*
X020260Y016773D02*
X013017Y016773D01*
X013115Y016872D02*
X020260Y016872D01*
X020260Y016970D02*
X020157Y016970D01*
X020239Y017069D02*
X020260Y017069D01*
X020246Y017364D02*
X020260Y017364D01*
X020260Y017463D02*
X020175Y017463D01*
X020260Y017561D02*
X017705Y017561D01*
X017729Y017660D02*
X020260Y017660D01*
X020260Y017758D02*
X017717Y017758D01*
X017632Y017463D02*
X019725Y017463D01*
X019654Y017364D02*
X013608Y017364D01*
X013706Y017463D02*
X017268Y017463D01*
X018244Y018251D02*
X018707Y018251D01*
X018805Y018349D02*
X018343Y018349D01*
X018441Y018448D02*
X018904Y018448D01*
X019002Y018546D02*
X018540Y018546D01*
X018638Y018645D02*
X019101Y018645D01*
X019199Y018743D02*
X018640Y018743D01*
X018640Y018842D02*
X019260Y018842D01*
X019260Y018940D02*
X018640Y018940D01*
X018640Y019039D02*
X019260Y019039D01*
X019260Y019137D02*
X018640Y019137D01*
X018640Y019236D02*
X019260Y019236D01*
X019260Y019334D02*
X018640Y019334D01*
X018640Y019433D02*
X019260Y019433D01*
X019260Y019531D02*
X018640Y019531D01*
X018640Y019630D02*
X019260Y019630D01*
X019023Y019728D02*
X018640Y019728D01*
X018759Y019827D02*
X018950Y019827D01*
X018950Y019925D02*
X018857Y019925D01*
X018908Y020024D02*
X018950Y020024D01*
X018949Y020122D02*
X018950Y020122D01*
X018950Y020221D02*
X018950Y020221D01*
X018950Y020319D02*
X018950Y020319D01*
X018950Y020418D02*
X018911Y020418D01*
X018950Y020516D02*
X018866Y020516D01*
X018950Y020615D02*
X018768Y020615D01*
X018578Y020713D02*
X019014Y020713D01*
X018322Y020713D02*
X017578Y020713D01*
X017768Y020615D02*
X018132Y020615D01*
X018034Y020516D02*
X017866Y020516D01*
X017911Y020418D02*
X017989Y020418D01*
X017950Y020319D02*
X017950Y020319D01*
X017950Y020221D02*
X017950Y020221D01*
X017949Y020122D02*
X017951Y020122D01*
X017992Y020024D02*
X017908Y020024D01*
X017857Y019925D02*
X018043Y019925D01*
X018141Y019827D02*
X017759Y019827D01*
X017557Y019728D02*
X018260Y019728D01*
X018260Y019630D02*
X015640Y019630D01*
X015640Y019728D02*
X016343Y019728D01*
X016557Y019728D02*
X017343Y019728D01*
X017141Y019827D02*
X016759Y019827D01*
X016857Y019925D02*
X017043Y019925D01*
X016992Y020024D02*
X016908Y020024D01*
X016949Y020122D02*
X016951Y020122D01*
X016950Y020221D02*
X016950Y020221D01*
X016950Y020319D02*
X016950Y020319D01*
X016911Y020418D02*
X016989Y020418D01*
X017034Y020516D02*
X016866Y020516D01*
X016768Y020615D02*
X017132Y020615D01*
X017322Y020713D02*
X016578Y020713D01*
X016322Y020713D02*
X016231Y020713D01*
X016132Y020812D02*
X020161Y020812D01*
X020217Y020713D02*
X019886Y020713D01*
X019950Y020615D02*
X020249Y020615D01*
X020260Y020516D02*
X019950Y020516D01*
X019950Y020418D02*
X020260Y020418D01*
X020260Y020319D02*
X019950Y020319D01*
X019950Y020221D02*
X020260Y020221D01*
X020260Y020122D02*
X019950Y020122D01*
X019950Y020024D02*
X020260Y020024D01*
X020260Y019925D02*
X019950Y019925D01*
X019950Y019827D02*
X020260Y019827D01*
X020260Y019728D02*
X019877Y019728D01*
X019640Y019630D02*
X020260Y019630D01*
X020260Y019531D02*
X019640Y019531D01*
X019640Y019433D02*
X020260Y019433D01*
X020260Y019334D02*
X019640Y019334D01*
X019640Y019236D02*
X020260Y019236D01*
X020260Y019137D02*
X019640Y019137D01*
X019640Y019039D02*
X020260Y019039D01*
X020260Y018940D02*
X019640Y018940D01*
X019640Y018842D02*
X020260Y018842D01*
X020260Y018743D02*
X019640Y018743D01*
X019638Y018645D02*
X020260Y018645D01*
X020260Y018546D02*
X019540Y018546D01*
X019441Y018448D02*
X020260Y018448D01*
X020260Y018349D02*
X019343Y018349D01*
X019244Y018251D02*
X020260Y018251D01*
X020260Y018152D02*
X019146Y018152D01*
X019047Y018054D02*
X020260Y018054D01*
X020260Y017955D02*
X018949Y017955D01*
X018850Y017857D02*
X020260Y017857D01*
X019623Y017266D02*
X013509Y017266D01*
X013411Y017167D02*
X019623Y017167D01*
X019661Y017069D02*
X013312Y017069D01*
X013214Y016970D02*
X019743Y016970D01*
X020618Y015788D02*
X016129Y015788D01*
X016129Y015690D02*
X020717Y015690D01*
X020702Y015591D02*
X020815Y015591D01*
X020198Y015591D02*
X016129Y015591D01*
X016113Y015493D02*
X019965Y015493D01*
X019847Y015394D02*
X014617Y015394D01*
X014617Y015493D02*
X015137Y015493D01*
X015131Y015503D02*
X015151Y015469D01*
X015179Y015441D01*
X015213Y015421D01*
X015251Y015411D01*
X015575Y015411D01*
X015575Y015826D01*
X015121Y015826D01*
X015121Y015541D01*
X015131Y015503D01*
X015121Y015591D02*
X014617Y015591D01*
X014227Y015591D02*
X014157Y015591D01*
X014165Y015493D02*
X014227Y015493D01*
X014227Y015394D02*
X014165Y015394D01*
X014165Y015296D02*
X014227Y015296D01*
X014227Y015197D02*
X014165Y015197D01*
X014165Y015099D02*
X014227Y015099D01*
X014227Y015000D02*
X014165Y015000D01*
X014165Y014902D02*
X014227Y014902D01*
X014255Y014803D02*
X014120Y014803D01*
X013950Y014803D02*
X013950Y014803D01*
X013950Y014760D02*
X013950Y015225D01*
X013735Y015225D01*
X013735Y014890D01*
X013745Y014852D01*
X013765Y014818D01*
X013793Y014790D01*
X013827Y014770D01*
X013865Y014760D01*
X013950Y014760D01*
X013950Y014902D02*
X013950Y014902D01*
X013950Y015000D02*
X013950Y015000D01*
X013950Y015099D02*
X013950Y015099D01*
X013950Y015197D02*
X013950Y015197D01*
X013950Y015296D02*
X013950Y015296D01*
X013950Y015394D02*
X013950Y015394D01*
X013950Y015493D02*
X013950Y015493D01*
X013950Y015591D02*
X013950Y015591D01*
X013743Y015591D02*
X013673Y015591D01*
X013673Y015493D02*
X013735Y015493D01*
X013735Y015394D02*
X013673Y015394D01*
X013673Y015296D02*
X013735Y015296D01*
X013735Y015197D02*
X013673Y015197D01*
X013673Y015099D02*
X013735Y015099D01*
X013735Y015000D02*
X013673Y015000D01*
X013673Y014902D02*
X013735Y014902D01*
X013780Y014803D02*
X013668Y014803D01*
X013668Y014705D02*
X014260Y014705D01*
X014260Y014606D02*
X013668Y014606D01*
X013668Y014508D02*
X014214Y014508D01*
X015575Y015493D02*
X015675Y015493D01*
X015675Y015591D02*
X015575Y015591D01*
X015575Y015690D02*
X015675Y015690D01*
X015675Y015788D02*
X015575Y015788D01*
X015575Y016084D02*
X015675Y016084D01*
X015675Y016182D02*
X015575Y016182D01*
X015575Y016281D02*
X015675Y016281D01*
X018002Y018546D02*
X013040Y018546D01*
X013138Y018645D02*
X018101Y018645D01*
X018199Y018743D02*
X014262Y018743D01*
X013938Y018743D02*
X013237Y018743D01*
X013335Y018842D02*
X013853Y018842D01*
X013821Y018940D02*
X013434Y018940D01*
X013532Y019039D02*
X013824Y019039D01*
X013868Y019137D02*
X013631Y019137D01*
X013640Y019236D02*
X014000Y019236D01*
X014200Y019236D02*
X015242Y019236D01*
X015260Y019334D02*
X013640Y019334D01*
X013640Y019433D02*
X015260Y019433D01*
X015260Y019531D02*
X013640Y019531D01*
X013640Y019630D02*
X015260Y019630D01*
X015260Y019728D02*
X014557Y019728D01*
X014343Y019728D02*
X013640Y019728D01*
X013759Y019827D02*
X014141Y019827D01*
X014043Y019925D02*
X013857Y019925D01*
X013908Y020024D02*
X013992Y020024D01*
X013951Y020122D02*
X013949Y020122D01*
X013950Y020221D02*
X013950Y020221D01*
X013950Y020319D02*
X013950Y020319D01*
X013911Y020418D02*
X013989Y020418D01*
X014034Y020516D02*
X013866Y020516D01*
X013768Y020615D02*
X014132Y020615D01*
X014768Y020615D02*
X015132Y020615D01*
X015034Y020516D02*
X014866Y020516D01*
X014911Y020418D02*
X014989Y020418D01*
X014950Y020319D02*
X014950Y020319D01*
X014950Y020221D02*
X014950Y020221D01*
X014949Y020122D02*
X014951Y020122D01*
X014992Y020024D02*
X014908Y020024D01*
X014857Y019925D02*
X015043Y019925D01*
X015141Y019827D02*
X014759Y019827D01*
X015582Y019039D02*
X018260Y019039D01*
X018260Y019137D02*
X015640Y019137D01*
X015640Y019236D02*
X018260Y019236D01*
X018260Y019334D02*
X015640Y019334D01*
X015640Y019433D02*
X018260Y019433D01*
X018260Y019531D02*
X015640Y019531D01*
X015759Y019827D02*
X016141Y019827D01*
X016043Y019925D02*
X015857Y019925D01*
X015908Y020024D02*
X015992Y020024D01*
X015951Y020122D02*
X015949Y020122D01*
X015950Y020221D02*
X015950Y020221D01*
X015950Y020319D02*
X015950Y020319D01*
X015911Y020418D02*
X015989Y020418D01*
X015890Y020516D02*
X015866Y020516D01*
X015792Y020615D02*
X015768Y020615D01*
X016034Y020910D02*
X020072Y020910D01*
X019886Y021009D02*
X015935Y021009D01*
X015484Y018940D02*
X018260Y018940D01*
X018260Y018842D02*
X015385Y018842D01*
X013260Y019304D02*
X012871Y018915D01*
X012171Y018915D01*
X012060Y018804D01*
X009840Y016584D01*
X009840Y018346D01*
X010257Y018764D01*
X010351Y018725D01*
X010549Y018725D01*
X010733Y018801D01*
X010874Y018942D01*
X010950Y019126D01*
X010950Y019324D01*
X010874Y019508D01*
X010733Y019649D01*
X010660Y019679D01*
X010660Y019742D01*
X010701Y019725D01*
X010899Y019725D01*
X011083Y019801D01*
X011224Y019942D01*
X011300Y020126D01*
X011300Y020324D01*
X011224Y020508D01*
X011083Y020649D01*
X010996Y020685D01*
X012254Y020685D01*
X012167Y020649D01*
X012026Y020508D01*
X011950Y020324D01*
X011950Y020126D01*
X012026Y019942D01*
X012167Y019801D01*
X012351Y019725D01*
X012549Y019725D01*
X012733Y019801D01*
X012874Y019942D01*
X012950Y020126D01*
X012950Y020324D01*
X012874Y020508D01*
X012733Y020649D01*
X012646Y020685D01*
X013254Y020685D01*
X013167Y020649D01*
X013026Y020508D01*
X012950Y020324D01*
X012950Y020126D01*
X013026Y019942D01*
X013167Y019801D01*
X013260Y019763D01*
X013260Y019304D01*
X013260Y019334D02*
X010946Y019334D01*
X010950Y019236D02*
X013192Y019236D01*
X013093Y019137D02*
X010950Y019137D01*
X010914Y019039D02*
X012995Y019039D01*
X012896Y018940D02*
X010872Y018940D01*
X010774Y018842D02*
X012098Y018842D01*
X011999Y018743D02*
X010593Y018743D01*
X010307Y018743D02*
X010237Y018743D01*
X010138Y018645D02*
X011901Y018645D01*
X011802Y018546D02*
X010040Y018546D01*
X009941Y018448D02*
X011704Y018448D01*
X011605Y018349D02*
X009843Y018349D01*
X009840Y018251D02*
X011507Y018251D01*
X011408Y018152D02*
X009840Y018152D01*
X009840Y018054D02*
X011310Y018054D01*
X011211Y017955D02*
X009840Y017955D01*
X009840Y017857D02*
X011113Y017857D01*
X011014Y017758D02*
X009840Y017758D01*
X009840Y017660D02*
X010916Y017660D01*
X010817Y017561D02*
X009840Y017561D01*
X009840Y017463D02*
X010719Y017463D01*
X010620Y017364D02*
X009840Y017364D01*
X009840Y017266D02*
X010522Y017266D01*
X010423Y017167D02*
X009840Y017167D01*
X009840Y017069D02*
X010325Y017069D01*
X010226Y016970D02*
X009840Y016970D01*
X009840Y016872D02*
X010128Y016872D01*
X010029Y016773D02*
X009840Y016773D01*
X009840Y016675D02*
X009931Y016675D01*
X010173Y016379D02*
X012000Y016379D01*
X012000Y016281D02*
X010389Y016281D01*
X010458Y016182D02*
X012000Y016182D01*
X012000Y016084D02*
X010479Y016084D01*
X010271Y016478D02*
X012000Y016478D01*
X012000Y016576D02*
X010370Y016576D01*
X010468Y016675D02*
X012000Y016675D01*
X012000Y016773D02*
X010567Y016773D01*
X010665Y016872D02*
X012000Y016872D01*
X012000Y016970D02*
X010764Y016970D01*
X010862Y017069D02*
X012000Y017069D01*
X012000Y017167D02*
X010961Y017167D01*
X011059Y017266D02*
X012000Y017266D01*
X012070Y017364D02*
X011158Y017364D01*
X011256Y017463D02*
X012169Y017463D01*
X012267Y017561D02*
X011355Y017561D01*
X011453Y017660D02*
X012366Y017660D01*
X012464Y017758D02*
X011552Y017758D01*
X011650Y017857D02*
X012563Y017857D01*
X012661Y017955D02*
X011749Y017955D01*
X011847Y018054D02*
X012760Y018054D01*
X012858Y018152D02*
X011946Y018152D01*
X012044Y018251D02*
X012957Y018251D01*
X013055Y018349D02*
X012143Y018349D01*
X012241Y018448D02*
X013154Y018448D01*
X013260Y019433D02*
X010905Y019433D01*
X010851Y019531D02*
X013260Y019531D01*
X013260Y019630D02*
X010753Y019630D01*
X010693Y019728D02*
X010660Y019728D01*
X010907Y019728D02*
X012343Y019728D01*
X012557Y019728D02*
X013260Y019728D01*
X013141Y019827D02*
X012759Y019827D01*
X012857Y019925D02*
X013043Y019925D01*
X012992Y020024D02*
X012908Y020024D01*
X012949Y020122D02*
X012951Y020122D01*
X012950Y020221D02*
X012950Y020221D01*
X012950Y020319D02*
X012950Y020319D01*
X012911Y020418D02*
X012989Y020418D01*
X013034Y020516D02*
X012866Y020516D01*
X012768Y020615D02*
X013132Y020615D01*
X012132Y020615D02*
X011118Y020615D01*
X011216Y020516D02*
X012034Y020516D01*
X011989Y020418D02*
X011261Y020418D01*
X011300Y020319D02*
X011950Y020319D01*
X011950Y020221D02*
X011300Y020221D01*
X011299Y020122D02*
X011951Y020122D01*
X011992Y020024D02*
X011258Y020024D01*
X011207Y019925D02*
X012043Y019925D01*
X012141Y019827D02*
X011109Y019827D01*
X010390Y015725D02*
X012000Y015725D01*
X012000Y013432D01*
X011998Y013434D01*
X011752Y013434D01*
X011676Y013358D01*
X011676Y012659D01*
X011752Y012583D01*
X011998Y012583D01*
X012033Y012618D01*
X012067Y012583D01*
X012313Y012583D01*
X012348Y012618D01*
X012382Y012583D01*
X012628Y012583D01*
X012663Y012618D01*
X012697Y012583D01*
X012914Y012583D01*
X012914Y012583D01*
X012871Y012480D01*
X012871Y012370D01*
X012914Y012267D01*
X012992Y012189D01*
X013095Y012146D01*
X013205Y012146D01*
X013308Y012189D01*
X013386Y012267D01*
X013429Y012370D01*
X013429Y012480D01*
X013386Y012583D01*
X013573Y012583D01*
X013607Y012618D01*
X013642Y012583D01*
X013770Y012583D01*
X013770Y012500D01*
X013875Y012395D01*
X014200Y012395D01*
X014200Y011272D01*
X014190Y011262D01*
X014190Y011088D01*
X014200Y011078D01*
X014200Y011072D01*
X014190Y011062D01*
X014190Y010788D01*
X014200Y010778D01*
X014200Y009722D01*
X014190Y009712D01*
X014190Y009712D01*
X014143Y009665D01*
X013706Y009665D01*
X013729Y009720D01*
X013729Y009830D01*
X013686Y009933D01*
X013630Y009989D01*
X013630Y011400D01*
X013525Y011505D01*
X012865Y012165D01*
X011597Y012165D01*
X011602Y012173D01*
X011612Y012211D01*
X011612Y012300D01*
X011612Y012388D01*
X011602Y012427D01*
X011582Y012461D01*
X011554Y012489D01*
X011520Y012508D01*
X011482Y012519D01*
X011167Y012519D01*
X011167Y012300D01*
X011612Y012300D01*
X011167Y012300D01*
X011167Y012300D01*
X011167Y012300D01*
X011167Y012519D01*
X010852Y012519D01*
X010813Y012508D01*
X010779Y012489D01*
X010751Y012461D01*
X010731Y012427D01*
X010721Y012388D01*
X010721Y012300D01*
X011167Y012300D01*
X011167Y012300D01*
X010721Y012300D01*
X010721Y012222D01*
X010640Y012304D01*
X010640Y012796D01*
X010783Y012939D01*
X010823Y012979D01*
X011408Y012979D01*
X011484Y013055D01*
X011484Y013793D01*
X011408Y013869D01*
X010592Y013869D01*
X010516Y013793D01*
X010516Y013209D01*
X010515Y013208D01*
X010459Y013153D01*
X010459Y013153D01*
X010390Y013084D01*
X010390Y015725D01*
X010390Y015690D02*
X012000Y015690D01*
X012000Y015591D02*
X010390Y015591D01*
X010390Y015493D02*
X012000Y015493D01*
X012000Y015394D02*
X010390Y015394D01*
X010390Y015296D02*
X012000Y015296D01*
X012000Y015197D02*
X010390Y015197D01*
X010390Y015099D02*
X012000Y015099D01*
X012000Y015000D02*
X010390Y015000D01*
X010390Y014902D02*
X010507Y014902D01*
X010506Y014899D02*
X010496Y014861D01*
X010496Y014576D01*
X010950Y014576D01*
X010950Y014476D01*
X011050Y014476D01*
X011050Y014061D01*
X011374Y014061D01*
X011412Y014071D01*
X011446Y014091D01*
X011474Y014119D01*
X011494Y014153D01*
X011504Y014191D01*
X011504Y014476D01*
X011050Y014476D01*
X011050Y014576D01*
X011504Y014576D01*
X011504Y014861D01*
X011494Y014899D01*
X011474Y014933D01*
X011446Y014961D01*
X011412Y014981D01*
X011374Y014991D01*
X011050Y014991D01*
X011050Y014576D01*
X010950Y014576D01*
X010950Y014991D01*
X010626Y014991D01*
X010588Y014981D01*
X010554Y014961D01*
X010526Y014933D01*
X010506Y014899D01*
X010496Y014803D02*
X010390Y014803D01*
X010390Y014705D02*
X010496Y014705D01*
X010496Y014606D02*
X010390Y014606D01*
X010390Y014508D02*
X010950Y014508D01*
X010950Y014476D02*
X010496Y014476D01*
X010496Y014191D01*
X010506Y014153D01*
X010526Y014119D01*
X010554Y014091D01*
X010588Y014071D01*
X010626Y014061D01*
X010950Y014061D01*
X010950Y014476D01*
X010950Y014409D02*
X011050Y014409D01*
X011050Y014311D02*
X010950Y014311D01*
X010950Y014212D02*
X011050Y014212D01*
X011050Y014114D02*
X010950Y014114D01*
X010531Y014114D02*
X010390Y014114D01*
X010390Y014212D02*
X010496Y014212D01*
X010496Y014311D02*
X010390Y014311D01*
X010390Y014409D02*
X010496Y014409D01*
X010390Y014015D02*
X012000Y014015D01*
X012000Y013917D02*
X010390Y013917D01*
X010390Y013818D02*
X010541Y013818D01*
X010516Y013720D02*
X010390Y013720D01*
X010390Y013621D02*
X010516Y013621D01*
X010516Y013523D02*
X010390Y013523D01*
X010390Y013424D02*
X010516Y013424D01*
X010516Y013326D02*
X010390Y013326D01*
X010390Y013227D02*
X010516Y013227D01*
X010435Y013129D02*
X010390Y013129D01*
X010677Y012833D02*
X011676Y012833D01*
X011676Y012735D02*
X010640Y012735D01*
X010640Y012636D02*
X011700Y012636D01*
X011594Y012439D02*
X012871Y012439D01*
X012883Y012341D02*
X011612Y012341D01*
X011612Y012242D02*
X012939Y012242D01*
X012886Y012144D02*
X014200Y012144D01*
X014200Y012242D02*
X013361Y012242D01*
X013417Y012341D02*
X014200Y012341D01*
X014200Y012045D02*
X012985Y012045D01*
X013083Y011947D02*
X014200Y011947D01*
X014200Y011848D02*
X013182Y011848D01*
X013280Y011750D02*
X014200Y011750D01*
X014200Y011651D02*
X013379Y011651D01*
X013477Y011553D02*
X014200Y011553D01*
X014200Y011454D02*
X013576Y011454D01*
X013630Y011356D02*
X014200Y011356D01*
X014190Y011257D02*
X013630Y011257D01*
X013630Y011159D02*
X014190Y011159D01*
X014190Y011060D02*
X013630Y011060D01*
X013630Y010962D02*
X014190Y010962D01*
X014190Y010863D02*
X013630Y010863D01*
X013630Y010765D02*
X014200Y010765D01*
X014200Y010666D02*
X013630Y010666D01*
X013630Y010568D02*
X014200Y010568D01*
X014200Y010469D02*
X013630Y010469D01*
X013630Y010371D02*
X014200Y010371D01*
X014200Y010272D02*
X013630Y010272D01*
X013630Y010174D02*
X014200Y010174D01*
X014200Y010075D02*
X013630Y010075D01*
X013643Y009977D02*
X014200Y009977D01*
X014200Y009878D02*
X013709Y009878D01*
X013729Y009780D02*
X014200Y009780D01*
X014159Y009681D02*
X013713Y009681D01*
X013450Y009775D02*
X013450Y011325D01*
X012790Y011985D01*
X011167Y011985D01*
X011167Y012341D02*
X011167Y012341D01*
X011167Y012439D02*
X011167Y012439D01*
X010739Y012439D02*
X010640Y012439D01*
X010640Y012341D02*
X010721Y012341D01*
X010721Y012242D02*
X010702Y012242D01*
X010640Y012538D02*
X012895Y012538D01*
X013386Y012583D02*
X013386Y012583D01*
X013405Y012538D02*
X013770Y012538D01*
X013831Y012439D02*
X013429Y012439D01*
X013066Y011454D02*
X012972Y011454D01*
X012925Y011356D02*
X013165Y011356D01*
X013263Y011257D02*
X012890Y011257D01*
X012890Y011159D02*
X013270Y011159D01*
X013270Y011060D02*
X012890Y011060D01*
X012890Y010962D02*
X013270Y010962D01*
X013270Y010863D02*
X012890Y010863D01*
X012890Y010765D02*
X013270Y010765D01*
X013270Y010666D02*
X012890Y010666D01*
X012890Y010568D02*
X013270Y010568D01*
X013270Y010469D02*
X012890Y010469D01*
X012814Y010371D02*
X013270Y010371D01*
X013270Y010272D02*
X012716Y010272D01*
X012617Y010174D02*
X013270Y010174D01*
X013270Y010075D02*
X012519Y010075D01*
X012420Y009977D02*
X013257Y009977D01*
X013191Y009878D02*
X012322Y009878D01*
X012223Y009780D02*
X013171Y009780D01*
X013187Y009681D02*
X012125Y009681D01*
X012225Y009583D02*
X011592Y009583D01*
X011592Y009484D02*
X012126Y009484D01*
X012028Y009386D02*
X011592Y009386D01*
X011578Y009287D02*
X011929Y009287D01*
X011831Y009189D02*
X011592Y009189D01*
X011592Y009090D02*
X011732Y009090D01*
X011675Y008992D02*
X011556Y008992D01*
X012199Y008992D02*
X015344Y008992D01*
X015308Y009090D02*
X012298Y009090D01*
X012396Y009189D02*
X015308Y009189D01*
X014163Y009265D02*
X014163Y009265D01*
X015173Y010371D02*
X015288Y010371D01*
X015288Y010469D02*
X015079Y010469D01*
X015064Y010568D02*
X015316Y010568D01*
X015308Y010666D02*
X015003Y010666D01*
X015308Y010765D02*
X014600Y010765D01*
X014465Y011040D02*
X015733Y011040D01*
X015308Y011257D02*
X014615Y011257D01*
X014600Y011356D02*
X015308Y011356D01*
X015308Y011454D02*
X014600Y011454D01*
X014600Y011553D02*
X015308Y011553D01*
X015308Y011651D02*
X014600Y011651D01*
X014600Y011750D02*
X015308Y011750D01*
X015322Y011848D02*
X014600Y011848D01*
X014600Y011947D02*
X015308Y011947D01*
X015308Y012045D02*
X015064Y012045D01*
X015147Y012144D02*
X015342Y012144D01*
X015308Y012242D02*
X015179Y012242D01*
X015215Y012341D02*
X015308Y012341D01*
X015325Y012439D02*
X015215Y012439D01*
X014805Y012538D02*
X014600Y012538D01*
X014600Y012439D02*
X014670Y012439D01*
X014625Y012341D02*
X014600Y012341D01*
X014600Y012242D02*
X014621Y012242D01*
X014600Y012144D02*
X014653Y012144D01*
X014600Y012045D02*
X014736Y012045D01*
X016179Y010469D02*
X016616Y010469D01*
X016616Y010371D02*
X016179Y010371D01*
X012510Y010604D02*
X011876Y009970D01*
X011590Y009970D01*
X011592Y009972D01*
X011592Y010218D01*
X011557Y010253D01*
X011592Y010287D01*
X011592Y010533D01*
X011557Y010568D01*
X012474Y010568D01*
X012510Y010604D02*
X012510Y011321D01*
X012464Y011367D01*
X012445Y011412D01*
X012405Y011396D01*
X012295Y011396D01*
X012192Y011439D01*
X012151Y011480D01*
X012107Y011480D01*
X012030Y011478D01*
X012029Y011480D01*
X011590Y011480D01*
X011592Y011478D01*
X011592Y011232D01*
X011557Y011197D01*
X011592Y011163D01*
X011592Y010917D01*
X011557Y010882D01*
X011592Y010848D01*
X011592Y010602D01*
X011557Y010568D01*
X011592Y010666D02*
X012510Y010666D01*
X012510Y010765D02*
X011592Y010765D01*
X011577Y010863D02*
X012510Y010863D01*
X012510Y010962D02*
X011592Y010962D01*
X011592Y011060D02*
X012510Y011060D01*
X012510Y011159D02*
X011592Y011159D01*
X011592Y011257D02*
X012510Y011257D01*
X012475Y011356D02*
X011592Y011356D01*
X011592Y011454D02*
X012177Y011454D01*
X012375Y010469D02*
X011592Y010469D01*
X011592Y010371D02*
X012277Y010371D01*
X012178Y010272D02*
X011577Y010272D01*
X011592Y010174D02*
X012080Y010174D01*
X011981Y010075D02*
X011592Y010075D01*
X011592Y009977D02*
X011883Y009977D01*
X011676Y012932D02*
X010775Y012932D01*
X011459Y013030D02*
X011676Y013030D01*
X011676Y013129D02*
X011484Y013129D01*
X011484Y013227D02*
X011676Y013227D01*
X011676Y013326D02*
X011484Y013326D01*
X011484Y013424D02*
X011743Y013424D01*
X012000Y013523D02*
X011484Y013523D01*
X011484Y013621D02*
X012000Y013621D01*
X012000Y013720D02*
X011484Y013720D01*
X011459Y013818D02*
X012000Y013818D01*
X012000Y014114D02*
X011469Y014114D01*
X011504Y014212D02*
X012000Y014212D01*
X012000Y014311D02*
X011504Y014311D01*
X011504Y014409D02*
X012000Y014409D01*
X012000Y014508D02*
X011050Y014508D01*
X011050Y014606D02*
X010950Y014606D01*
X010950Y014705D02*
X011050Y014705D01*
X011050Y014803D02*
X010950Y014803D01*
X010950Y014902D02*
X011050Y014902D01*
X011493Y014902D02*
X012000Y014902D01*
X012000Y014803D02*
X011504Y014803D01*
X011504Y014705D02*
X012000Y014705D01*
X012000Y014606D02*
X011504Y014606D01*
X015016Y004756D02*
X019210Y004756D01*
X019210Y004658D02*
X015114Y004658D01*
X015213Y004559D02*
X019210Y004559D01*
X019167Y004461D02*
X015311Y004461D01*
X015410Y004362D02*
X019068Y004362D01*
X018847Y004264D02*
X015508Y004264D01*
X015607Y004165D02*
X018756Y004165D01*
X018721Y004067D02*
X015705Y004067D01*
X015804Y003968D02*
X018722Y003968D01*
X018763Y003870D02*
X015902Y003870D01*
X017076Y002589D02*
X017617Y002589D01*
X017716Y002491D02*
X017170Y002491D01*
X017265Y002392D02*
X017814Y002392D01*
X017913Y002294D02*
X017360Y002294D01*
X017454Y002195D02*
X018011Y002195D01*
X018110Y002097D02*
X017549Y002097D01*
X017642Y001998D02*
X018208Y001998D01*
X018260Y001900D02*
X017640Y001900D01*
X017640Y001801D02*
X018260Y001801D01*
X018260Y001703D02*
X017640Y001703D01*
X017778Y001604D02*
X018122Y001604D01*
X018025Y001506D02*
X017875Y001506D01*
X017916Y001407D02*
X017984Y001407D01*
X017950Y001309D02*
X017950Y001309D01*
X017950Y001210D02*
X017950Y001210D01*
X017944Y001112D02*
X017956Y001112D01*
X017997Y001013D02*
X017903Y001013D01*
X017847Y000915D02*
X018053Y000915D01*
X018152Y000816D02*
X017748Y000816D01*
X017152Y000816D02*
X016748Y000816D01*
X016847Y000915D02*
X017053Y000915D01*
X016997Y001013D02*
X016903Y001013D01*
X016944Y001112D02*
X016956Y001112D01*
X016950Y001210D02*
X016950Y001210D01*
X016950Y001309D02*
X016950Y001309D01*
X016916Y001407D02*
X016984Y001407D01*
X017025Y001506D02*
X016875Y001506D01*
X016778Y001604D02*
X017122Y001604D01*
X017260Y001703D02*
X016640Y001703D01*
X016640Y001801D02*
X017260Y001801D01*
X017211Y001900D02*
X016640Y001900D01*
X016640Y001998D02*
X017117Y001998D01*
X017022Y002097D02*
X016547Y002097D01*
X016449Y002195D02*
X016927Y002195D01*
X016833Y002294D02*
X016350Y002294D01*
X016108Y001998D02*
X015590Y001998D01*
X015590Y001900D02*
X016207Y001900D01*
X016260Y001801D02*
X015590Y001801D01*
X015604Y001703D02*
X016260Y001703D01*
X016122Y001604D02*
X015778Y001604D01*
X015875Y001506D02*
X016025Y001506D01*
X015984Y001407D02*
X015916Y001407D01*
X015950Y001309D02*
X015950Y001309D01*
X015950Y001210D02*
X015950Y001210D01*
X015944Y001112D02*
X015956Y001112D01*
X015997Y001013D02*
X015903Y001013D01*
X015847Y000915D02*
X016053Y000915D01*
X016152Y000816D02*
X015748Y000816D01*
X015590Y002097D02*
X016010Y002097D01*
X015911Y002195D02*
X015590Y002195D01*
X015590Y002294D02*
X015813Y002294D01*
X015714Y002392D02*
X015590Y002392D01*
X015590Y002491D02*
X015616Y002491D01*
X017779Y002965D02*
X018529Y002215D01*
X018640Y002104D01*
X018640Y001687D01*
X018733Y001649D01*
X018874Y001508D01*
X018939Y001351D01*
X019009Y001520D01*
X019155Y001666D01*
X019240Y001701D01*
X019240Y001938D01*
X018213Y002965D01*
X017779Y002965D01*
X017859Y002885D02*
X018294Y002885D01*
X018392Y002786D02*
X017958Y002786D01*
X018056Y002688D02*
X018491Y002688D01*
X018589Y002589D02*
X018155Y002589D01*
X018253Y002491D02*
X018688Y002491D01*
X018786Y002392D02*
X018352Y002392D01*
X018450Y002294D02*
X018885Y002294D01*
X018983Y002195D02*
X018549Y002195D01*
X018640Y002097D02*
X019082Y002097D01*
X019180Y001998D02*
X018640Y001998D01*
X018640Y001900D02*
X019240Y001900D01*
X019240Y001801D02*
X018640Y001801D01*
X018640Y001703D02*
X019240Y001703D01*
X019094Y001604D02*
X018778Y001604D01*
X018875Y001506D02*
X019003Y001506D01*
X018963Y001407D02*
X018916Y001407D01*
X018903Y001013D02*
X018975Y001013D01*
X019025Y000915D02*
X018847Y000915D01*
X018748Y000816D02*
X019124Y000816D01*
X019316Y000718D02*
X012584Y000718D01*
X012316Y000718D02*
X011570Y000718D01*
X011500Y000718D02*
X011400Y000718D01*
X011330Y000718D02*
X010570Y000718D01*
X010500Y000718D02*
X010400Y000718D01*
X010330Y000718D02*
X009584Y000718D01*
X009776Y000816D02*
X010128Y000816D01*
X010033Y000915D02*
X009875Y000915D01*
X009925Y001013D02*
X009974Y001013D01*
X009962Y001407D02*
X009937Y001407D01*
X009897Y001506D02*
X010011Y001506D01*
X010094Y001604D02*
X009806Y001604D01*
X009720Y001703D02*
X010242Y001703D01*
X010400Y001703D02*
X010500Y001703D01*
X010500Y001604D02*
X010400Y001604D01*
X010400Y001506D02*
X010500Y001506D01*
X010500Y001407D02*
X010400Y001407D01*
X010400Y001309D02*
X010500Y001309D01*
X010500Y001210D02*
X011400Y001210D01*
X011400Y001112D02*
X011500Y001112D01*
X011500Y001013D02*
X011400Y001013D01*
X011400Y000915D02*
X011500Y000915D01*
X011500Y000816D02*
X011400Y000816D01*
X011128Y000816D02*
X010772Y000816D01*
X010867Y000915D02*
X011033Y000915D01*
X010974Y001013D02*
X010926Y001013D01*
X010938Y001407D02*
X010962Y001407D01*
X011011Y001506D02*
X010889Y001506D01*
X010806Y001604D02*
X011094Y001604D01*
X011242Y001703D02*
X010658Y001703D01*
X010500Y001112D02*
X010400Y001112D01*
X010400Y001013D02*
X010500Y001013D01*
X010500Y000915D02*
X010400Y000915D01*
X010400Y000816D02*
X010500Y000816D01*
X011400Y001309D02*
X011500Y001309D01*
X011500Y001407D02*
X011400Y001407D01*
X011400Y001506D02*
X011500Y001506D01*
X011500Y001604D02*
X011400Y001604D01*
X011400Y001703D02*
X011500Y001703D01*
X011658Y001703D02*
X012244Y001703D01*
X012094Y001604D02*
X011806Y001604D01*
X011889Y001506D02*
X012003Y001506D01*
X011963Y001407D02*
X011938Y001407D01*
X011926Y001013D02*
X011975Y001013D01*
X012025Y000915D02*
X011867Y000915D01*
X011772Y000816D02*
X012124Y000816D01*
X020769Y004067D02*
X021260Y004067D01*
X021260Y003968D02*
X020965Y003968D01*
X021082Y003870D02*
X021260Y003870D01*
X021260Y003771D02*
X021174Y003771D01*
X021231Y003673D02*
X021260Y003673D01*
M02*
