G75*
%MOIN*%
%OFA0B0*%
%FSLAX24Y24*%
%IPPOS*%
%LPD*%
%AMOC8*
5,1,8,0,0,1.08239X$1,22.5*
%
%ADD10R,0.0789X0.0710*%
%ADD11R,0.0710X0.0790*%
%ADD12R,0.0552X0.0631*%
%ADD13R,0.0790X0.0710*%
%ADD14C,0.0474*%
%ADD15R,0.0710X0.0789*%
%ADD16R,0.0631X0.0631*%
%ADD17R,0.0631X0.0710*%
%ADD18R,0.0671X0.0218*%
%ADD19R,0.0218X0.0671*%
%ADD20R,0.1300X0.0277*%
%ADD21R,0.1064X0.0867*%
%ADD22R,0.1379X0.0867*%
%ADD23C,0.0434*%
%ADD24C,0.0820*%
%ADD25R,0.0820X0.0820*%
%ADD26OC8,0.0820*%
%ADD27R,0.0474X0.0867*%
%ADD28C,0.1380*%
%ADD29R,0.0210X0.0710*%
D10*
X008400Y005899D03*
X008400Y007001D03*
X009550Y007026D03*
X010650Y007026D03*
X010650Y005924D03*
X009550Y005924D03*
X014875Y005974D03*
X014875Y007076D03*
X016400Y007076D03*
X016400Y005974D03*
X017100Y009624D03*
X017100Y010726D03*
X018300Y010726D03*
X018300Y009624D03*
X015625Y014774D03*
X015625Y015876D03*
X011000Y014526D03*
X011000Y013424D03*
X008150Y015424D03*
X008150Y016526D03*
D11*
X006910Y016525D03*
X005790Y016525D03*
X005790Y015325D03*
X006910Y015325D03*
X006990Y011625D03*
X008110Y011625D03*
X002710Y011225D03*
X001590Y011225D03*
D12*
X004359Y011625D03*
X005541Y011625D03*
D13*
X009550Y010235D03*
X009550Y009115D03*
X017950Y007147D03*
X017950Y006028D03*
D14*
X000950Y002225D03*
X019950Y017225D03*
D15*
X019399Y009125D03*
X020501Y009125D03*
X006951Y014225D03*
X005649Y014225D03*
X002701Y012275D03*
X001599Y012275D03*
D16*
X008100Y012777D03*
X008100Y014273D03*
D17*
X006951Y012925D03*
X005849Y012925D03*
D18*
X011167Y012300D03*
X011167Y011985D03*
X011167Y011670D03*
X011167Y011355D03*
X011167Y011040D03*
X011167Y010725D03*
X011167Y010410D03*
X011167Y010095D03*
X011167Y009780D03*
X011167Y009465D03*
X011167Y009150D03*
X015733Y009150D03*
X015733Y009465D03*
X015733Y009780D03*
X015733Y010095D03*
X015733Y010410D03*
X015733Y010725D03*
X015733Y011040D03*
X015733Y011355D03*
X015733Y011670D03*
X015733Y011985D03*
X015733Y012300D03*
D19*
X015025Y013008D03*
X014710Y013008D03*
X014395Y013008D03*
X014080Y013008D03*
X013765Y013008D03*
X013450Y013008D03*
X013135Y013008D03*
X012820Y013008D03*
X012505Y013008D03*
X012190Y013008D03*
X011875Y013008D03*
X011875Y008442D03*
X012190Y008442D03*
X012505Y008442D03*
X012820Y008442D03*
X013135Y008442D03*
X013450Y008442D03*
X013765Y008442D03*
X014080Y008442D03*
X014395Y008442D03*
X014710Y008442D03*
X015025Y008442D03*
D20*
X003631Y014595D03*
X003631Y014910D03*
X003631Y015225D03*
X003631Y015540D03*
X003631Y015855D03*
D21*
X001269Y016977D03*
X001269Y013473D03*
D22*
X003592Y013473D03*
X003592Y016977D03*
D23*
X002450Y016091D03*
X002450Y014359D03*
D24*
X002450Y019225D03*
X001450Y019225D03*
X001800Y020225D03*
X002800Y020225D03*
X003800Y020225D03*
X004800Y020225D03*
X005800Y020225D03*
X006800Y020225D03*
X007800Y020225D03*
X008800Y020225D03*
X009800Y020225D03*
X010800Y020225D03*
X010450Y019225D03*
X009450Y019225D03*
X008450Y019225D03*
X007450Y019225D03*
X006450Y019225D03*
X005450Y019225D03*
X004450Y019225D03*
X003450Y019225D03*
X012450Y020225D03*
X013450Y020225D03*
X014450Y020225D03*
X015450Y020225D03*
X016450Y020225D03*
X017450Y020225D03*
X018450Y020225D03*
X001450Y008725D03*
X001450Y007725D03*
X001450Y006725D03*
X001450Y005725D03*
X001450Y004725D03*
X001450Y003725D03*
X007450Y001225D03*
X008450Y001225D03*
X009450Y001225D03*
X010450Y001225D03*
X011450Y001225D03*
X012450Y001225D03*
X014450Y001225D03*
X015450Y001225D03*
X016450Y001225D03*
X017450Y001225D03*
X018450Y001225D03*
X019450Y001225D03*
D25*
X019450Y020225D03*
D26*
X019450Y012225D03*
X019450Y011225D03*
X019450Y010225D03*
X020450Y010225D03*
X020450Y011225D03*
X020450Y012225D03*
D27*
X020900Y007925D03*
X019400Y007925D03*
X019400Y005925D03*
X020900Y005925D03*
D28*
X020450Y003225D03*
X020450Y014725D03*
X002450Y001225D03*
D29*
X013478Y015225D03*
X013950Y015225D03*
X014422Y015225D03*
M02*
