G75*
%MOIN*%
%OFA0B0*%
%FSLAX25Y25*%
%IPPOS*%
%LPD*%
%AMOC8*
5,1,8,0,0,1.08239X$1,22.5*
%
%ADD10C,0.00800*%
%ADD11C,0.00200*%
%ADD12R,0.00333X0.00167*%
%ADD13R,0.00167X0.00167*%
%ADD14R,0.00667X0.00167*%
%ADD15R,0.00167X0.00167*%
%ADD16R,0.00167X0.00167*%
%ADD17R,0.00167X0.00167*%
%ADD18R,0.00333X0.00167*%
%ADD19R,0.00333X0.00167*%
%ADD20R,0.00167X0.00167*%
%ADD21R,0.00167X0.00167*%
%ADD22R,0.00333X0.00167*%
%ADD23R,0.00167X0.00167*%
%ADD24R,0.00167X0.00167*%
%ADD25R,0.00500X0.00167*%
%ADD26R,0.00833X0.00167*%
%ADD27R,0.02000X0.00167*%
%ADD28R,0.03166X0.00167*%
%ADD29R,0.01167X0.00167*%
%ADD30R,0.01666X0.00167*%
%ADD31R,0.00333X0.00167*%
%ADD32R,0.00500X0.00167*%
%ADD33R,0.00333X0.00167*%
%ADD34R,0.00667X0.00167*%
%ADD35R,0.01500X0.00167*%
%ADD36R,0.04499X0.00167*%
%ADD37R,0.02666X0.00167*%
%ADD38R,0.00500X0.00167*%
%ADD39R,0.02833X0.00167*%
%ADD40R,0.04833X0.00167*%
%ADD41R,0.03666X0.00167*%
%ADD42R,0.01833X0.00167*%
%ADD43R,0.01333X0.00167*%
%ADD44R,0.01833X0.00167*%
%ADD45R,0.00667X0.00167*%
%ADD46R,0.03500X0.00167*%
%ADD47R,0.00833X0.00167*%
%ADD48R,0.04833X0.00167*%
%ADD49R,0.04166X0.00167*%
%ADD50R,0.02500X0.00167*%
%ADD51R,0.00500X0.00167*%
%ADD52R,0.02500X0.00167*%
%ADD53R,0.02666X0.00167*%
%ADD54R,0.01500X0.00167*%
%ADD55R,0.01500X0.00167*%
%ADD56R,0.01000X0.00167*%
%ADD57R,0.01000X0.00167*%
%ADD58R,0.00833X0.00167*%
%ADD59R,0.00833X0.00167*%
%ADD60R,0.04000X0.00167*%
%ADD61R,0.02166X0.00167*%
%ADD62R,0.00500X0.00167*%
%ADD63R,0.01167X0.00167*%
%ADD64R,0.01000X0.00167*%
%ADD65R,0.01000X0.00167*%
%ADD66R,0.00667X0.00167*%
%ADD67R,0.01167X0.00167*%
%ADD68R,0.00667X0.00167*%
%ADD69R,0.01333X0.00167*%
%ADD70R,0.00667X0.00167*%
%ADD71R,0.00667X0.00167*%
%ADD72R,0.01500X0.00167*%
%ADD73R,0.00333X0.00167*%
%ADD74R,0.00500X0.00167*%
%ADD75R,0.00833X0.00167*%
%ADD76R,0.00500X0.00167*%
%ADD77R,0.03500X0.00167*%
%ADD78R,0.04000X0.00167*%
%ADD79R,0.04499X0.00167*%
%ADD80R,0.00833X0.00167*%
%ADD81R,0.04666X0.00167*%
%ADD82R,0.00500X0.00167*%
%ADD83R,0.03167X0.00167*%
%ADD84R,0.03167X0.00167*%
%ADD85R,0.03167X0.00167*%
%ADD86R,0.01000X0.00167*%
%ADD87R,0.01500X0.00167*%
%ADD88R,0.02333X0.00167*%
%ADD89R,0.02167X0.00167*%
%ADD90R,0.02333X0.00167*%
%ADD91R,0.03000X0.00167*%
%ADD92R,0.00833X0.00167*%
%ADD93R,0.01333X0.00167*%
%ADD94R,0.01667X0.00167*%
%ADD95R,0.01833X0.00167*%
%ADD96R,0.01833X0.00167*%
%ADD97R,0.01666X0.00167*%
%ADD98R,0.01333X0.00167*%
%ADD99R,0.00333X0.00167*%
%ADD100R,0.03166X0.00167*%
%ADD101R,0.02500X0.00167*%
%ADD102R,0.02166X0.00167*%
%ADD103R,0.05833X0.00167*%
%ADD104R,0.04166X0.00167*%
%ADD105R,0.05999X0.00167*%
%ADD106R,0.03666X0.00167*%
%ADD107R,0.04666X0.00167*%
%ADD108R,0.05666X0.00167*%
%ADD109R,0.02666X0.00167*%
%ADD110R,0.01833X0.00167*%
%ADD111R,0.02166X0.00167*%
%ADD112R,0.01333X0.00167*%
%ADD113R,0.00167X0.00167*%
%ADD114R,0.61462X0.00247*%
%ADD115R,0.64424X0.00247*%
%ADD116R,0.65905X0.00247*%
%ADD117R,0.67385X0.00247*%
%ADD118R,0.67879X0.00247*%
%ADD119R,0.68867X0.00247*%
%ADD120R,0.69854X0.00247*%
%ADD121R,0.70348X0.00247*%
%ADD122R,0.71335X0.00247*%
%ADD123R,0.71829X0.00247*%
%ADD124R,0.72322X0.00247*%
%ADD125R,0.72816X0.00247*%
%ADD126R,0.73310X0.00247*%
%ADD127R,0.73804X0.00247*%
%ADD128R,0.74297X0.00247*%
%ADD129R,0.74791X0.00247*%
%ADD130R,0.74791X0.00247*%
%ADD131R,0.28139X0.00247*%
%ADD132R,0.46652X0.00247*%
%ADD133R,0.28139X0.00247*%
%ADD134R,0.46898X0.00247*%
%ADD135R,0.46898X0.00247*%
%ADD136R,0.28386X0.00247*%
%ADD137R,0.47145X0.00247*%
%ADD138R,0.05677X0.00247*%
%ADD139R,0.00741X0.00247*%
%ADD140R,0.00987X0.00247*%
%ADD141R,0.00247X0.00247*%
%ADD142R,0.01234X0.00247*%
%ADD143R,0.02222X0.00247*%
%ADD144R,0.02469X0.00247*%
%ADD145R,0.00246X0.00247*%
%ADD146R,0.00494X0.00247*%
%ADD147R,0.00740X0.00247*%
%ADD148R,0.38259X0.00247*%
%ADD149R,0.05924X0.00247*%
%ADD150R,0.00741X0.00247*%
%ADD151R,0.00494X0.00247*%
%ADD152R,0.01975X0.00247*%
%ADD153R,0.00987X0.00247*%
%ADD154R,0.00740X0.00247*%
%ADD155R,0.01234X0.00247*%
%ADD156R,0.38506X0.00247*%
%ADD157R,0.06171X0.00247*%
%ADD158R,0.00987X0.00247*%
%ADD159R,0.01728X0.00247*%
%ADD160R,0.38753X0.00247*%
%ADD161R,0.06171X0.00247*%
%ADD162R,0.00247X0.00247*%
%ADD163R,0.03456X0.00247*%
%ADD164R,0.01728X0.00247*%
%ADD165R,0.01234X0.00247*%
%ADD166R,0.38753X0.00247*%
%ADD167R,0.00493X0.00247*%
%ADD168R,0.02222X0.00247*%
%ADD169R,0.01481X0.00247*%
%ADD170R,0.06418X0.00247*%
%ADD171R,0.03456X0.00247*%
%ADD172R,0.01234X0.00247*%
%ADD173R,0.39000X0.00247*%
%ADD174R,0.06418X0.00247*%
%ADD175R,0.01974X0.00247*%
%ADD176R,0.00987X0.00247*%
%ADD177R,0.02715X0.00247*%
%ADD178R,0.39000X0.00247*%
%ADD179R,0.06665X0.00247*%
%ADD180R,0.39247X0.00247*%
%ADD181R,0.00246X0.00247*%
%ADD182R,0.39494X0.00247*%
%ADD183R,0.06665X0.00247*%
%ADD184R,0.00741X0.00247*%
%ADD185R,0.05183X0.00247*%
%ADD186R,0.10120X0.00247*%
%ADD187R,0.01234X0.00247*%
%ADD188R,0.49614X0.00247*%
%ADD189R,0.05183X0.00247*%
%ADD190R,0.10120X0.00247*%
%ADD191R,0.49614X0.00247*%
%ADD192R,0.06665X0.00247*%
%ADD193R,0.05430X0.00247*%
%ADD194R,0.04690X0.00247*%
%ADD195R,0.05183X0.00247*%
%ADD196R,0.06911X0.00247*%
%ADD197R,0.42209X0.00247*%
%ADD198R,0.05430X0.00247*%
%ADD199R,0.04690X0.00247*%
%ADD200R,0.07158X0.00247*%
%ADD201R,0.42209X0.00247*%
%ADD202R,0.78740X0.00247*%
%ADD203R,0.78740X0.00247*%
%ADD204R,0.78740X0.00247*%
%ADD205R,0.07405X0.00247*%
%ADD206R,0.01481X0.00247*%
%ADD207R,0.01728X0.00247*%
%ADD208R,0.15057X0.00247*%
%ADD209R,0.07405X0.00247*%
%ADD210R,0.01481X0.00247*%
%ADD211R,0.01728X0.00247*%
%ADD212R,0.15057X0.00247*%
%ADD213R,0.07158X0.00247*%
%ADD214R,0.07158X0.00247*%
%ADD215R,0.00493X0.00247*%
%ADD216R,0.06911X0.00247*%
%ADD217R,0.02469X0.00247*%
%ADD218R,0.06911X0.00247*%
%ADD219R,0.06664X0.00247*%
%ADD220R,0.06664X0.00247*%
%ADD221R,0.01974X0.00247*%
%ADD222R,0.02468X0.00247*%
%ADD223R,0.02715X0.00247*%
%ADD224R,0.15551X0.00247*%
%ADD225R,0.22709X0.00247*%
%ADD226R,0.06171X0.00247*%
%ADD227R,0.06911X0.00247*%
%ADD228R,0.02222X0.00247*%
%ADD229R,0.01728X0.00247*%
%ADD230R,0.26411X0.00247*%
%ADD231R,0.22709X0.00247*%
%ADD232R,0.26658X0.00247*%
%ADD233R,0.22956X0.00247*%
%ADD234R,0.26905X0.00247*%
%ADD235R,0.22956X0.00247*%
%ADD236R,0.14069X0.00247*%
%ADD237R,0.40975X0.00247*%
%ADD238R,0.35544X0.00247*%
%ADD239R,0.05924X0.00247*%
%ADD240R,0.34557X0.00247*%
%ADD241R,0.04937X0.00247*%
%ADD242R,0.34310X0.00247*%
%ADD243R,0.04690X0.00247*%
%ADD244R,0.34063X0.00247*%
%ADD245R,0.04443X0.00247*%
%ADD246R,0.33816X0.00247*%
%ADD247R,0.04196X0.00247*%
%ADD248R,0.33569X0.00247*%
%ADD249R,0.03950X0.00247*%
%ADD250R,0.33569X0.00247*%
%ADD251R,0.03950X0.00247*%
%ADD252R,0.33322X0.00247*%
%ADD253R,0.03703X0.00247*%
%ADD254R,0.33322X0.00247*%
%ADD255R,0.03703X0.00247*%
%ADD256R,0.02962X0.00247*%
%ADD257R,0.03209X0.00247*%
%ADD258R,0.14810X0.00247*%
%ADD259R,0.14563X0.00247*%
%ADD260R,0.14070X0.00247*%
%ADD261R,0.03456X0.00247*%
%ADD262R,0.06911X0.00247*%
%ADD263R,0.01728X0.00247*%
%ADD264R,0.00987X0.00247*%
%ADD265R,0.14070X0.00247*%
%ADD266R,0.03456X0.00247*%
%ADD267R,0.13823X0.00247*%
%ADD268R,0.04196X0.00247*%
%ADD269R,0.13823X0.00247*%
%ADD270R,0.13576X0.00247*%
%ADD271R,0.13329X0.00247*%
%ADD272R,0.13329X0.00247*%
%ADD273R,0.13082X0.00247*%
%ADD274R,0.01975X0.00247*%
%ADD275R,0.01481X0.00247*%
%ADD276R,0.13082X0.00247*%
%ADD277R,0.12835X0.00247*%
%ADD278R,0.01481X0.00247*%
%ADD279R,0.01974X0.00247*%
%ADD280R,0.13082X0.00247*%
%ADD281R,0.21721X0.00247*%
%ADD282R,0.21721X0.00247*%
%ADD283R,0.22215X0.00247*%
%ADD284R,0.22462X0.00247*%
%ADD285R,0.33816X0.00247*%
%ADD286R,0.34063X0.00247*%
%ADD287R,0.04443X0.00247*%
%ADD288R,0.34310X0.00247*%
%ADD289R,0.04690X0.00247*%
%ADD290R,0.05184X0.00247*%
%ADD291R,0.08886X0.00247*%
%ADD292R,0.05678X0.00247*%
%ADD293R,0.08145X0.00247*%
%ADD294R,0.07898X0.00247*%
%ADD295R,0.07652X0.00247*%
%ADD296R,0.03703X0.00247*%
%ADD297R,0.06664X0.00247*%
%ADD298R,0.07652X0.00247*%
%ADD299R,0.07898X0.00247*%
%ADD300R,0.04690X0.00247*%
%ADD301R,0.09133X0.00247*%
%ADD302R,0.05924X0.00247*%
%ADD303R,0.50107X0.00247*%
%ADD304R,0.49861X0.00247*%
%ADD305R,0.49861X0.00247*%
%ADD306R,0.06911X0.00247*%
%ADD307R,0.49614X0.00247*%
%ADD308R,0.03702X0.00247*%
%ADD309R,0.49367X0.00247*%
%ADD310R,0.49367X0.00247*%
%ADD311R,0.06418X0.00247*%
%ADD312R,0.00247X0.00247*%
%ADD313R,0.00987X0.00247*%
%ADD314R,0.49120X0.00247*%
%ADD315R,0.49120X0.00247*%
%ADD316R,0.49120X0.00247*%
%ADD317R,0.48873X0.00247*%
%ADD318R,0.02221X0.00247*%
%ADD319R,0.48626X0.00247*%
%ADD320R,0.05924X0.00247*%
%ADD321R,0.08639X0.00247*%
%ADD322R,0.48626X0.00247*%
%ADD323R,0.05677X0.00247*%
%ADD324R,0.08639X0.00247*%
%ADD325R,0.48380X0.00247*%
%ADD326R,0.48380X0.00247*%
%ADD327R,0.48133X0.00247*%
%ADD328R,0.08886X0.00247*%
%ADD329R,0.47886X0.00247*%
%ADD330R,0.09380X0.00247*%
%ADD331R,0.73804X0.00247*%
%ADD332R,0.71829X0.00247*%
%ADD333R,0.71335X0.00247*%
%ADD334R,0.69854X0.00247*%
%ADD335R,0.67879X0.00247*%
%ADD336R,0.67385X0.00247*%
%ADD337R,0.64424X0.00247*%
%ADD338C,0.00500*%
%ADD339R,0.00821X0.00091*%
%ADD340R,0.01643X0.00091*%
%ADD341R,0.00274X0.00091*%
%ADD342R,0.00365X0.00091*%
%ADD343R,0.01460X0.00091*%
%ADD344R,0.00456X0.00091*%
%ADD345R,0.00365X0.00091*%
%ADD346R,0.01278X0.00091*%
%ADD347R,0.01916X0.00091*%
%ADD348R,0.00456X0.00091*%
%ADD349R,0.00365X0.00091*%
%ADD350R,0.00548X0.00091*%
%ADD351R,0.01734X0.00091*%
%ADD352R,0.00639X0.00091*%
%ADD353R,0.01551X0.00091*%
%ADD354R,0.01916X0.00091*%
%ADD355R,0.00548X0.00091*%
%ADD356R,0.00639X0.00091*%
%ADD357R,0.01734X0.00091*%
%ADD358R,0.00547X0.00091*%
%ADD359R,0.01825X0.00091*%
%ADD360R,0.02007X0.00091*%
%ADD361R,0.00639X0.00091*%
%ADD362R,0.00730X0.00091*%
%ADD363R,0.01825X0.00091*%
%ADD364R,0.00822X0.00091*%
%ADD365R,0.00730X0.00091*%
%ADD366R,0.01825X0.00091*%
%ADD367R,0.00456X0.00091*%
%ADD368R,0.00547X0.00091*%
%ADD369R,0.00548X0.00091*%
%ADD370R,0.00821X0.00091*%
%ADD371R,0.01734X0.00091*%
%ADD372R,0.00365X0.00091*%
%ADD373R,0.01552X0.00091*%
%ADD374R,0.00913X0.00091*%
%ADD375R,0.00547X0.00091*%
%ADD376R,0.00913X0.00091*%
%ADD377R,0.00639X0.00091*%
%ADD378R,0.01004X0.00091*%
%ADD379R,0.01095X0.00091*%
%ADD380R,0.00091X0.00091*%
%ADD381R,0.01551X0.00091*%
%ADD382R,0.02190X0.00091*%
%ADD383R,0.00639X0.00091*%
%ADD384R,0.02190X0.00091*%
%ADD385R,0.00456X0.00091*%
%ADD386R,0.01825X0.00091*%
%ADD387R,0.01917X0.00091*%
%ADD388R,0.02190X0.00091*%
%ADD389R,0.00456X0.00091*%
%ADD390R,0.00274X0.00091*%
%ADD391R,0.01095X0.00091*%
%ADD392R,0.01095X0.00091*%
%ADD393R,0.01186X0.00091*%
%ADD394R,0.00639X0.00091*%
%ADD395R,0.00548X0.00091*%
%ADD396R,0.00547X0.00091*%
%ADD397R,0.00456X0.00091*%
%ADD398R,0.00913X0.00091*%
%ADD399R,0.01004X0.00091*%
%ADD400R,0.00730X0.00091*%
%ADD401R,0.00730X0.00091*%
%ADD402R,0.01460X0.00091*%
%ADD403R,0.01278X0.00091*%
%ADD404R,0.01825X0.00091*%
%ADD405R,0.01187X0.00091*%
%ADD406R,0.01369X0.00091*%
%ADD407R,0.01004X0.00091*%
%ADD408R,0.00274X0.00091*%
%ADD409R,0.00091X0.00091*%
%ADD410R,0.00365X0.00091*%
%ADD411R,0.00274X0.00091*%
%ADD412R,0.00274X0.00091*%
%ADD413R,0.00365X0.00091*%
%ADD414R,0.00274X0.00091*%
%ADD415R,0.00365X0.00091*%
%ADD416R,0.02099X0.00091*%
%ADD417R,0.02829X0.00091*%
%ADD418R,0.03103X0.00091*%
%ADD419R,0.00365X0.00091*%
%ADD420R,0.00274X0.00091*%
%ADD421R,0.01278X0.00091*%
%ADD422R,0.00183X0.00091*%
%ADD423R,0.02738X0.00091*%
%ADD424R,0.03376X0.00091*%
%ADD425R,0.03924X0.00091*%
%ADD426R,0.00183X0.00091*%
%ADD427R,0.01186X0.00091*%
%ADD428R,0.00913X0.00091*%
%ADD429R,0.00821X0.00091*%
%ADD430R,0.01095X0.00091*%
%ADD431R,0.00274X0.00091*%
%ADD432R,0.00456X0.00091*%
%ADD433R,0.01460X0.00091*%
%ADD434R,0.01643X0.00091*%
%ADD435R,0.00183X0.00091*%
%ADD436R,0.00182X0.00091*%
%ADD437R,0.00182X0.00091*%
%ADD438R,0.00639X0.00091*%
%ADD439R,0.01551X0.00091*%
%ADD440R,0.01369X0.00091*%
%ADD441R,0.00183X0.00091*%
%ADD442R,0.01460X0.00091*%
%ADD443R,0.01643X0.00091*%
%ADD444R,0.00456X0.00091*%
%ADD445R,0.03285X0.00091*%
%ADD446R,0.02646X0.00091*%
%ADD447R,0.00639X0.00091*%
%ADD448R,0.01004X0.00091*%
%ADD449R,0.13415X0.00091*%
%ADD450R,0.13049X0.00091*%
%ADD451R,0.12776X0.00091*%
%ADD452R,0.12137X0.00091*%
%ADD453R,0.00248X0.00062*%
%ADD454R,0.00124X0.00062*%
%ADD455R,0.00186X0.00062*%
%ADD456R,0.00434X0.00062*%
%ADD457R,0.00434X0.00062*%
%ADD458R,0.00744X0.00062*%
%ADD459R,0.00620X0.00062*%
%ADD460R,0.00806X0.00062*%
%ADD461R,0.00992X0.00062*%
%ADD462R,0.00868X0.00062*%
%ADD463R,0.00496X0.00062*%
%ADD464R,0.01054X0.00062*%
%ADD465R,0.01178X0.00062*%
%ADD466R,0.01116X0.00062*%
%ADD467R,0.01116X0.00062*%
%ADD468R,0.01302X0.00062*%
%ADD469R,0.01736X0.00062*%
%ADD470R,0.00558X0.00062*%
%ADD471R,0.00558X0.00062*%
%ADD472R,0.01488X0.00062*%
%ADD473R,0.00434X0.00062*%
%ADD474R,0.00434X0.00062*%
%ADD475R,0.01798X0.00062*%
%ADD476R,0.01736X0.00062*%
%ADD477R,0.00558X0.00062*%
%ADD478R,0.00558X0.00062*%
%ADD479R,0.01798X0.00062*%
%ADD480R,0.01612X0.00062*%
%ADD481R,0.01798X0.00062*%
%ADD482R,0.01860X0.00062*%
%ADD483R,0.01674X0.00062*%
%ADD484R,0.00682X0.00062*%
%ADD485R,0.01860X0.00062*%
%ADD486R,0.00744X0.00062*%
%ADD487R,0.00372X0.00062*%
%ADD488R,0.00496X0.00062*%
%ADD489R,0.00248X0.00062*%
%ADD490R,0.00496X0.00062*%
%ADD491R,0.00806X0.00062*%
%ADD492R,0.00496X0.00062*%
%ADD493R,0.00062X0.00062*%
%ADD494R,0.00372X0.00062*%
%ADD495R,0.00372X0.00062*%
%ADD496R,0.00372X0.00062*%
%ADD497R,0.01798X0.00062*%
%ADD498R,0.01922X0.00062*%
%ADD499R,0.01674X0.00062*%
%ADD500R,0.01736X0.00062*%
%ADD501R,0.01922X0.00062*%
%ADD502R,0.01612X0.00062*%
%ADD503R,0.00434X0.00062*%
%ADD504R,0.00496X0.00062*%
%ADD505R,0.00434X0.00062*%
%ADD506R,0.00496X0.00062*%
%ADD507R,0.00372X0.00062*%
%ADD508R,0.00806X0.00062*%
%ADD509R,0.00620X0.00062*%
%ADD510R,0.00682X0.00062*%
%ADD511R,0.00682X0.00062*%
%ADD512R,0.00124X0.00062*%
%ADD513R,0.00062X0.00062*%
%ADD514R,0.00310X0.00062*%
%ADD515R,0.00186X0.00062*%
%ADD516R,0.01612X0.00062*%
%ADD517R,0.01426X0.00062*%
%ADD518R,0.01364X0.00062*%
%ADD519R,0.01488X0.00062*%
%ADD520R,0.01736X0.00062*%
%ADD521R,0.01116X0.00062*%
%ADD522R,0.01488X0.00062*%
%ADD523R,0.00992X0.00062*%
%ADD524R,0.01054X0.00062*%
%ADD525R,0.01302X0.00062*%
%ADD526R,0.01364X0.00062*%
%ADD527R,0.00992X0.00062*%
%ADD528R,0.01178X0.00062*%
%ADD529R,0.00930X0.00062*%
%ADD530R,0.00310X0.00062*%
%ADD531R,0.00868X0.00062*%
%ADD532R,0.01240X0.00062*%
%ADD533R,0.01364X0.00062*%
%ADD534R,0.01116X0.00062*%
%ADD535R,0.01302X0.00062*%
%ADD536R,0.01364X0.00062*%
%ADD537R,0.01550X0.00062*%
%ADD538R,0.00620X0.00062*%
%ADD539R,0.00682X0.00062*%
%ADD540R,0.00310X0.00062*%
%ADD541R,0.00620X0.00062*%
%ADD542R,0.00186X0.00062*%
%ADD543R,0.00062X0.00062*%
%ADD544R,0.01984X0.00062*%
%ADD545R,0.01240X0.00062*%
%ADD546R,0.01984X0.00062*%
%ADD547R,0.01984X0.00062*%
%ADD548R,0.01984X0.00062*%
%ADD549R,0.01550X0.00062*%
%ADD550R,0.01488X0.00062*%
%ADD551R,0.01302X0.00062*%
%ADD552R,0.00930X0.00062*%
%ADD553R,0.01054X0.00062*%
%ADD554R,0.02170X0.00062*%
%ADD555R,0.00062X0.00062*%
%ADD556R,0.02170X0.00062*%
%ADD557R,0.02294X0.00062*%
%ADD558R,0.02294X0.00062*%
%ADD559R,0.02418X0.00062*%
%ADD560R,0.02480X0.00062*%
%ADD561R,0.02604X0.00062*%
%ADD562R,0.02728X0.00062*%
%ADD563R,0.02914X0.00062*%
%ADD564R,0.00806X0.00062*%
%ADD565R,0.02914X0.00062*%
%ADD566R,0.03038X0.00062*%
%ADD567R,0.03038X0.00062*%
%ADD568R,0.04402X0.00062*%
%ADD569R,0.04526X0.00062*%
%ADD570R,0.04588X0.00062*%
%ADD571R,0.04588X0.00062*%
%ADD572R,0.04712X0.00062*%
%ADD573R,0.04712X0.00062*%
%ADD574R,0.04774X0.00062*%
%ADD575R,0.04836X0.00062*%
%ADD576R,0.04836X0.00062*%
%ADD577R,0.04960X0.00062*%
%ADD578R,0.04960X0.00062*%
%ADD579R,0.05022X0.00062*%
%ADD580R,0.05022X0.00062*%
%ADD581R,0.04960X0.00062*%
%ADD582R,0.04960X0.00062*%
%ADD583R,0.04898X0.00062*%
%ADD584R,0.04836X0.00062*%
%ADD585R,0.04836X0.00062*%
%ADD586R,0.04774X0.00062*%
%ADD587R,0.04712X0.00062*%
%ADD588R,0.04712X0.00062*%
%ADD589R,0.04650X0.00062*%
%ADD590R,0.04650X0.00062*%
%ADD591R,0.04650X0.00062*%
%ADD592R,0.04588X0.00062*%
%ADD593R,0.04526X0.00062*%
%ADD594R,0.04526X0.00062*%
%ADD595R,0.04774X0.00062*%
%ADD596R,0.05022X0.00062*%
%ADD597R,0.05084X0.00062*%
%ADD598R,0.05084X0.00062*%
%ADD599R,0.05146X0.00062*%
%ADD600R,0.05208X0.00062*%
%ADD601R,0.05270X0.00062*%
%ADD602R,0.05270X0.00062*%
%ADD603R,0.05332X0.00062*%
%ADD604R,0.05394X0.00062*%
%ADD605R,0.05394X0.00062*%
%ADD606R,0.05456X0.00062*%
%ADD607R,0.05394X0.00062*%
%ADD608R,0.05394X0.00062*%
%ADD609R,0.05270X0.00062*%
%ADD610R,0.05270X0.00062*%
%ADD611R,0.05146X0.00062*%
%ADD612R,0.05084X0.00062*%
%ADD613R,0.05208X0.00062*%
%ADD614R,0.05580X0.00062*%
%ADD615R,0.05580X0.00062*%
%ADD616R,0.05828X0.00062*%
%ADD617R,0.06138X0.00062*%
%ADD618R,0.06138X0.00062*%
%ADD619R,0.06448X0.00062*%
%ADD620R,0.06696X0.00062*%
%ADD621R,0.06882X0.00062*%
%ADD622R,0.06882X0.00062*%
%ADD623R,0.06820X0.00062*%
%ADD624R,0.06820X0.00062*%
%ADD625R,0.06758X0.00062*%
%ADD626R,0.06758X0.00062*%
%ADD627R,0.06696X0.00062*%
%ADD628R,0.06634X0.00062*%
%ADD629R,0.06634X0.00062*%
%ADD630R,0.06572X0.00062*%
%ADD631R,0.06572X0.00062*%
%ADD632R,0.06572X0.00062*%
%ADD633R,0.06634X0.00062*%
%ADD634R,0.06510X0.00062*%
%ADD635R,0.06510X0.00062*%
%ADD636R,0.06200X0.00062*%
%ADD637R,0.05890X0.00062*%
%ADD638R,0.05890X0.00062*%
%ADD639R,0.05332X0.00062*%
%ADD640R,0.04836X0.00062*%
%ADD641R,0.04836X0.00062*%
%ADD642R,0.05022X0.00062*%
%ADD643R,0.05456X0.00062*%
%ADD644R,0.05642X0.00062*%
%ADD645R,0.05642X0.00062*%
%ADD646R,0.05766X0.00062*%
%ADD647R,0.05766X0.00062*%
%ADD648R,0.06324X0.00062*%
%ADD649R,0.12586X0.00062*%
%ADD650R,0.12586X0.00062*%
%ADD651R,0.12462X0.00062*%
%ADD652R,0.12338X0.00062*%
%ADD653R,0.12338X0.00062*%
%ADD654R,0.12214X0.00062*%
%ADD655R,0.12090X0.00062*%
%ADD656R,0.12090X0.00062*%
%ADD657R,0.11966X0.00062*%
%ADD658R,0.11966X0.00062*%
%ADD659R,0.12462X0.00062*%
%ADD660R,0.12710X0.00062*%
%ADD661R,0.12772X0.00062*%
%ADD662R,0.12834X0.00062*%
%ADD663R,0.12958X0.00062*%
%ADD664R,0.13082X0.00062*%
%ADD665R,0.13206X0.00062*%
%ADD666R,0.13330X0.00062*%
%ADD667R,0.13330X0.00062*%
%ADD668R,0.13454X0.00062*%
%ADD669R,0.13578X0.00062*%
%ADD670R,0.13702X0.00062*%
%ADD671R,0.13826X0.00062*%
%ADD672R,0.13950X0.00062*%
%ADD673R,0.14074X0.00062*%
%ADD674R,0.14198X0.00062*%
%ADD675R,0.14198X0.00062*%
%ADD676R,0.14322X0.00062*%
%ADD677R,0.14446X0.00062*%
%ADD678R,0.14570X0.00062*%
%ADD679R,0.14570X0.00062*%
%ADD680R,0.14322X0.00062*%
%ADD681R,0.03348X0.00062*%
%ADD682R,0.03224X0.00062*%
%ADD683R,0.06386X0.00062*%
%ADD684R,0.03100X0.00062*%
%ADD685R,0.06014X0.00062*%
%ADD686R,0.02914X0.00062*%
%ADD687R,0.05766X0.00062*%
%ADD688R,0.02914X0.00062*%
%ADD689R,0.02790X0.00062*%
%ADD690R,0.02790X0.00062*%
%ADD691R,0.02170X0.00062*%
%ADD692R,0.04154X0.00062*%
%ADD693R,0.02170X0.00062*%
%ADD694R,0.03906X0.00062*%
%ADD695R,0.03658X0.00062*%
%ADD696R,0.03410X0.00062*%
%ADD697R,0.03410X0.00062*%
%ADD698R,0.03286X0.00062*%
%ADD699R,0.03286X0.00062*%
%ADD700R,0.03162X0.00062*%
%ADD701R,0.03162X0.00062*%
%ADD702R,0.03038X0.00062*%
%ADD703R,0.02914X0.00062*%
%ADD704R,0.02790X0.00062*%
%ADD705R,0.02666X0.00062*%
%ADD706R,0.02666X0.00062*%
%ADD707R,0.02542X0.00062*%
%ADD708R,0.02542X0.00062*%
%ADD709R,0.02418X0.00062*%
D10*
X0033350Y0028813D02*
X0039650Y0028813D01*
X0039650Y0028812D02*
X0039709Y0028826D01*
X0039767Y0028843D01*
X0039824Y0028864D01*
X0039880Y0028888D01*
X0039934Y0028916D01*
X0039986Y0028946D01*
X0040037Y0028980D01*
X0040085Y0029017D01*
X0040131Y0029056D01*
X0040174Y0029099D01*
X0040215Y0029143D01*
X0040253Y0029191D01*
X0040288Y0029240D01*
X0040320Y0029292D01*
X0040349Y0029345D01*
X0040375Y0029400D01*
X0040397Y0029456D01*
X0040416Y0029514D01*
X0040432Y0029573D01*
X0040443Y0029632D01*
X0040452Y0029692D01*
X0040456Y0029753D01*
X0040457Y0029813D01*
X0040454Y0029874D01*
X0040448Y0029934D01*
X0040438Y0029994D01*
X0040438Y0035506D02*
X0040448Y0035566D01*
X0040454Y0035626D01*
X0040457Y0035687D01*
X0040456Y0035747D01*
X0040452Y0035808D01*
X0040443Y0035868D01*
X0040432Y0035927D01*
X0040416Y0035986D01*
X0040397Y0036044D01*
X0040375Y0036100D01*
X0040349Y0036155D01*
X0040320Y0036208D01*
X0040288Y0036260D01*
X0040253Y0036309D01*
X0040215Y0036357D01*
X0040174Y0036401D01*
X0040131Y0036444D01*
X0040085Y0036483D01*
X0040037Y0036520D01*
X0039986Y0036554D01*
X0039934Y0036584D01*
X0039880Y0036612D01*
X0039824Y0036636D01*
X0039767Y0036657D01*
X0039709Y0036674D01*
X0039650Y0036688D01*
X0039650Y0036687D02*
X0033350Y0036687D01*
X0033350Y0036688D02*
X0033291Y0036674D01*
X0033233Y0036657D01*
X0033176Y0036636D01*
X0033120Y0036612D01*
X0033066Y0036584D01*
X0033014Y0036554D01*
X0032963Y0036520D01*
X0032915Y0036483D01*
X0032869Y0036444D01*
X0032826Y0036401D01*
X0032785Y0036357D01*
X0032747Y0036309D01*
X0032712Y0036260D01*
X0032680Y0036208D01*
X0032651Y0036155D01*
X0032625Y0036100D01*
X0032603Y0036044D01*
X0032584Y0035986D01*
X0032568Y0035927D01*
X0032557Y0035868D01*
X0032548Y0035808D01*
X0032544Y0035747D01*
X0032543Y0035687D01*
X0032546Y0035626D01*
X0032552Y0035566D01*
X0032562Y0035506D01*
X0032562Y0029994D02*
X0032552Y0029934D01*
X0032546Y0029874D01*
X0032543Y0029813D01*
X0032544Y0029753D01*
X0032548Y0029692D01*
X0032557Y0029632D01*
X0032568Y0029573D01*
X0032584Y0029514D01*
X0032603Y0029456D01*
X0032625Y0029400D01*
X0032651Y0029345D01*
X0032680Y0029292D01*
X0032712Y0029240D01*
X0032747Y0029191D01*
X0032785Y0029143D01*
X0032826Y0029099D01*
X0032869Y0029056D01*
X0032915Y0029017D01*
X0032963Y0028980D01*
X0033014Y0028946D01*
X0033066Y0028916D01*
X0033120Y0028888D01*
X0033176Y0028864D01*
X0033233Y0028843D01*
X0033291Y0028826D01*
X0033350Y0028812D01*
D11*
X0033407Y0037950D02*
X0034141Y0038684D01*
X0033774Y0038684D02*
X0034875Y0038684D01*
X0034875Y0037950D02*
X0034875Y0040152D01*
X0033774Y0040152D01*
X0033407Y0039785D01*
X0033407Y0039051D01*
X0033774Y0038684D01*
X0032665Y0039051D02*
X0031931Y0039051D01*
X0031197Y0040152D02*
X0032665Y0040152D01*
X0032665Y0037950D01*
X0031197Y0037950D01*
X0030455Y0038317D02*
X0030088Y0037950D01*
X0029354Y0037950D01*
X0028987Y0038317D01*
X0028987Y0038684D01*
X0029354Y0039051D01*
X0030088Y0039051D01*
X0030455Y0039418D01*
X0030455Y0039785D01*
X0030088Y0040152D01*
X0029354Y0040152D01*
X0028987Y0039785D01*
X0028245Y0040152D02*
X0028245Y0037950D01*
X0026777Y0037950D01*
X0027511Y0039051D02*
X0028245Y0039051D01*
X0028245Y0040152D02*
X0026777Y0040152D01*
X0026035Y0040152D02*
X0024567Y0040152D01*
X0025301Y0040152D02*
X0025301Y0037950D01*
X0035617Y0039051D02*
X0037085Y0039051D01*
X0037827Y0038317D02*
X0037827Y0039785D01*
X0038194Y0040152D01*
X0038927Y0040152D01*
X0039294Y0039785D01*
X0039294Y0038317D01*
X0038927Y0037950D01*
X0038194Y0037950D01*
X0037827Y0038317D01*
X0040036Y0040152D02*
X0041504Y0040152D01*
X0040770Y0040152D02*
X0040770Y0037950D01*
X0042246Y0038317D02*
X0042246Y0040152D01*
X0043714Y0040152D02*
X0043714Y0038317D01*
X0043347Y0037950D01*
X0042613Y0037950D01*
X0042246Y0038317D01*
X0044456Y0037950D02*
X0044456Y0039418D01*
X0045190Y0040152D01*
X0045924Y0039418D01*
X0045924Y0037950D01*
X0045924Y0039051D02*
X0044456Y0039051D01*
D12*
X0056267Y0041082D03*
X0056433Y0040082D03*
X0057100Y0038583D03*
X0057433Y0037083D03*
X0056267Y0034250D03*
X0057600Y0043915D03*
X0057100Y0045248D03*
X0056267Y0046415D03*
X0056267Y0046582D03*
X0056267Y0048748D03*
X0055933Y0049581D03*
X0056933Y0049581D03*
X0055267Y0052081D03*
X0056933Y0054081D03*
X0055767Y0054914D03*
X0093095Y0041249D03*
X0100261Y0041249D03*
X0134090Y0041249D03*
X0137090Y0045248D03*
X0137256Y0045748D03*
X0156088Y0043915D03*
X0164086Y0044915D03*
X0165586Y0043915D03*
X0165753Y0046082D03*
D13*
X0166003Y0046082D03*
X0166169Y0046082D03*
X0166503Y0046082D03*
X0167003Y0045748D03*
X0167169Y0045748D03*
X0167336Y0045415D03*
X0167003Y0044915D03*
X0167169Y0044582D03*
X0167669Y0044915D03*
X0167836Y0044915D03*
X0168003Y0044582D03*
X0167336Y0043915D03*
X0167336Y0043415D03*
X0167336Y0042749D03*
X0167169Y0042582D03*
X0167003Y0042249D03*
X0166669Y0041915D03*
X0166503Y0041915D03*
X0166503Y0041249D03*
X0166169Y0041249D03*
X0166003Y0041249D03*
X0165336Y0041249D03*
X0165003Y0041249D03*
X0164836Y0041249D03*
X0164836Y0041915D03*
X0164670Y0041915D03*
X0165003Y0041915D03*
X0164336Y0042249D03*
X0163836Y0041915D03*
X0163670Y0042249D03*
X0163670Y0043415D03*
X0163503Y0043415D03*
X0163503Y0043915D03*
X0164170Y0044582D03*
X0164336Y0044915D03*
X0164670Y0045248D03*
X0164836Y0045248D03*
X0164836Y0045415D03*
X0165003Y0045415D03*
X0164670Y0045748D03*
X0164336Y0045748D03*
X0164170Y0045415D03*
X0163836Y0045248D03*
X0163836Y0044915D03*
X0163670Y0044915D03*
X0165003Y0046082D03*
X0165336Y0046082D03*
X0165503Y0046082D03*
X0166503Y0045415D03*
X0166669Y0045248D03*
X0165836Y0043915D03*
X0165336Y0043915D03*
X0167836Y0042582D03*
X0168003Y0042582D03*
X0168003Y0042749D03*
X0167836Y0042249D03*
X0167669Y0042249D03*
X0162003Y0041249D03*
X0161837Y0041249D03*
X0161670Y0041249D03*
X0159670Y0042582D03*
X0159670Y0042749D03*
X0159670Y0043082D03*
X0159670Y0043415D03*
X0159504Y0043415D03*
X0159004Y0042749D03*
X0158837Y0042582D03*
X0159337Y0042249D03*
X0158171Y0041915D03*
X0158171Y0041249D03*
X0157004Y0041249D03*
X0156671Y0041249D03*
X0156504Y0041249D03*
X0156504Y0041915D03*
X0156338Y0041915D03*
X0156004Y0042249D03*
X0155504Y0041915D03*
X0155338Y0042249D03*
X0155338Y0043415D03*
X0155171Y0043415D03*
X0155171Y0043915D03*
X0155838Y0043915D03*
X0155838Y0044582D03*
X0156004Y0044915D03*
X0156338Y0045248D03*
X0156504Y0045248D03*
X0156504Y0045415D03*
X0156671Y0045415D03*
X0156671Y0046082D03*
X0157004Y0046082D03*
X0157671Y0046082D03*
X0157837Y0046082D03*
X0158171Y0046082D03*
X0158171Y0045415D03*
X0158337Y0045248D03*
X0158504Y0045248D03*
X0159004Y0045415D03*
X0158837Y0045748D03*
X0159504Y0044915D03*
X0159670Y0044582D03*
X0158837Y0044582D03*
X0158504Y0043915D03*
X0157171Y0043915D03*
X0155338Y0044915D03*
X0155504Y0045248D03*
X0156004Y0045748D03*
X0153671Y0044582D03*
X0153505Y0044582D03*
X0153505Y0044915D03*
X0153338Y0044915D03*
X0152838Y0044582D03*
X0152338Y0045248D03*
X0151838Y0045415D03*
X0151838Y0046082D03*
X0151671Y0046082D03*
X0150671Y0046082D03*
X0150505Y0046082D03*
X0150505Y0045415D03*
X0150171Y0045248D03*
X0150005Y0045248D03*
X0149838Y0044915D03*
X0149505Y0044915D03*
X0149338Y0044915D03*
X0149338Y0045248D03*
X0149338Y0045415D03*
X0149838Y0045748D03*
X0148672Y0045748D03*
X0148672Y0046082D03*
X0145339Y0045748D03*
X0143839Y0046082D03*
X0143339Y0045748D03*
X0143506Y0045415D03*
X0143339Y0044915D03*
X0143506Y0044582D03*
X0143006Y0045248D03*
X0142839Y0045415D03*
X0142673Y0045415D03*
X0142673Y0046082D03*
X0142839Y0046082D03*
X0141839Y0045748D03*
X0140506Y0045248D03*
X0140340Y0045415D03*
X0140006Y0045748D03*
X0139840Y0045748D03*
X0139673Y0045248D03*
X0139340Y0045415D03*
X0139173Y0045415D03*
X0139173Y0046082D03*
X0139340Y0046082D03*
X0138840Y0046082D03*
X0138173Y0046082D03*
X0138006Y0046082D03*
X0137673Y0046082D03*
X0137673Y0045415D03*
X0137506Y0045415D03*
X0137506Y0045248D03*
X0137340Y0045248D03*
X0137006Y0044915D03*
X0136840Y0044582D03*
X0136340Y0044915D03*
X0136173Y0044582D03*
X0136506Y0045248D03*
X0136840Y0045248D03*
X0137006Y0045748D03*
X0136840Y0042749D03*
X0136840Y0042582D03*
X0137006Y0042582D03*
X0136340Y0042249D03*
X0136173Y0042582D03*
X0136173Y0042749D03*
X0137506Y0041915D03*
X0137673Y0041915D03*
X0137673Y0041249D03*
X0138006Y0041249D03*
X0138173Y0041249D03*
X0138840Y0041249D03*
X0139173Y0041249D03*
X0139340Y0041249D03*
X0139340Y0041915D03*
X0139173Y0041915D03*
X0139673Y0042249D03*
X0139840Y0042249D03*
X0140006Y0042582D03*
X0140340Y0043082D03*
X0140340Y0043415D03*
X0140340Y0043915D03*
X0141006Y0043915D03*
X0141006Y0043415D03*
X0141006Y0043082D03*
X0141006Y0042749D03*
X0140673Y0042249D03*
X0140506Y0041915D03*
X0140340Y0041915D03*
X0140006Y0041915D03*
X0140006Y0044915D03*
X0140673Y0044915D03*
X0143839Y0041249D03*
X0146839Y0041249D03*
X0147005Y0041249D03*
X0147172Y0041249D03*
X0149338Y0041915D03*
X0149505Y0041915D03*
X0149838Y0042249D03*
X0150005Y0042249D03*
X0150171Y0041915D03*
X0150505Y0041915D03*
X0150505Y0041249D03*
X0150671Y0041249D03*
X0151671Y0041249D03*
X0151838Y0041249D03*
X0151838Y0041915D03*
X0152505Y0042249D03*
X0152838Y0042582D03*
X0152838Y0042749D03*
X0153005Y0043082D03*
X0153005Y0043415D03*
X0153671Y0043415D03*
X0153671Y0043082D03*
X0153671Y0042749D03*
X0153505Y0042749D03*
X0153505Y0042582D03*
X0153338Y0042249D03*
X0153005Y0041915D03*
X0153671Y0043915D03*
X0153005Y0045415D03*
X0152838Y0045748D03*
X0149505Y0042582D03*
X0149338Y0042582D03*
X0134340Y0041249D03*
X0133840Y0041249D03*
X0131174Y0044915D03*
X0130341Y0048081D03*
X0129674Y0048081D03*
X0127508Y0043749D03*
X0127508Y0043415D03*
X0128174Y0043415D03*
X0128174Y0043082D03*
X0128008Y0042749D03*
X0126841Y0042249D03*
X0126175Y0041915D03*
X0126175Y0041249D03*
X0126008Y0041249D03*
X0124342Y0041249D03*
X0123175Y0042582D03*
X0122675Y0042249D03*
X0122175Y0043082D03*
X0122175Y0043415D03*
X0122842Y0043415D03*
X0122842Y0043749D03*
X0119509Y0041249D03*
X0116676Y0043749D03*
X0116676Y0044915D03*
X0117509Y0044915D03*
X0117342Y0045748D03*
X0117509Y0046082D03*
X0117842Y0046415D03*
X0118675Y0046415D03*
X0119009Y0046915D03*
X0118509Y0047248D03*
X0119009Y0047915D03*
X0115509Y0043415D03*
X0115009Y0042749D03*
X0114843Y0042582D03*
X0115509Y0042249D03*
X0115676Y0042582D03*
X0114176Y0041249D03*
X0104011Y0041249D03*
X0100511Y0041249D03*
X0100011Y0041249D03*
X0096012Y0041249D03*
X0092845Y0041249D03*
X0092512Y0041249D03*
X0092512Y0041915D03*
X0092845Y0041915D03*
X0091845Y0042249D03*
X0091345Y0041915D03*
X0091179Y0041915D03*
X0091012Y0042249D03*
X0090679Y0042582D03*
X0090512Y0042749D03*
X0090346Y0043082D03*
X0090012Y0043749D03*
X0090012Y0043915D03*
X0090679Y0043915D03*
X0091179Y0043082D03*
X0091345Y0042749D03*
X0090679Y0045415D03*
X0090679Y0045748D03*
X0090012Y0045748D03*
X0090012Y0045415D03*
X0090012Y0046082D03*
X0091012Y0046582D03*
X0091179Y0046915D03*
X0090679Y0047248D03*
X0091179Y0047915D03*
X0091345Y0047915D03*
X0092512Y0047915D03*
X0092845Y0047915D03*
X0093012Y0048081D03*
X0103177Y0048081D03*
X0057683Y0043749D03*
X0057350Y0043415D03*
X0057183Y0043415D03*
X0057183Y0043082D03*
X0057350Y0043082D03*
X0057183Y0042749D03*
X0057183Y0042582D03*
X0056850Y0042582D03*
X0056850Y0042749D03*
X0057183Y0041915D03*
X0057350Y0041915D03*
X0057350Y0041249D03*
X0057183Y0041249D03*
X0057183Y0041082D03*
X0056850Y0041082D03*
X0056683Y0041082D03*
X0056517Y0041082D03*
X0056850Y0041249D03*
X0056017Y0041082D03*
X0055683Y0041082D03*
X0055517Y0041082D03*
X0055517Y0041249D03*
X0055683Y0041249D03*
X0055350Y0041249D03*
X0055350Y0041915D03*
X0055517Y0041915D03*
X0055517Y0042249D03*
X0055350Y0042249D03*
X0055350Y0042582D03*
X0055517Y0042582D03*
X0055683Y0042582D03*
X0055683Y0042749D03*
X0055517Y0042749D03*
X0055350Y0043749D03*
X0055350Y0043915D03*
X0055517Y0043915D03*
X0055683Y0043915D03*
X0056017Y0043749D03*
X0056517Y0045415D03*
X0056683Y0045415D03*
X0056850Y0045415D03*
X0057183Y0045748D03*
X0057350Y0045748D03*
X0057350Y0046082D03*
X0057183Y0046082D03*
X0056850Y0046582D03*
X0056683Y0046582D03*
X0056517Y0046582D03*
X0056517Y0046415D03*
X0056017Y0046415D03*
X0056017Y0046582D03*
X0055683Y0046582D03*
X0055683Y0046915D03*
X0055517Y0046915D03*
X0055350Y0046915D03*
X0055350Y0047248D03*
X0055517Y0047248D03*
X0055517Y0047915D03*
X0055517Y0048081D03*
X0055683Y0048081D03*
X0055350Y0048081D03*
X0055350Y0047915D03*
X0056017Y0048748D03*
X0056517Y0048748D03*
X0056683Y0048748D03*
X0056683Y0049581D03*
X0056517Y0049581D03*
X0056517Y0049914D03*
X0056517Y0050248D03*
X0056183Y0050248D03*
X0056183Y0049914D03*
X0056183Y0049581D03*
X0055683Y0049581D03*
X0057183Y0049581D03*
X0057350Y0049581D03*
X0057350Y0049914D03*
X0057183Y0049914D03*
X0057183Y0050248D03*
X0057350Y0050248D03*
X0057350Y0050581D03*
X0057350Y0050748D03*
X0057183Y0050748D03*
X0057183Y0050581D03*
X0056517Y0051081D03*
X0056850Y0051414D03*
X0055350Y0051414D03*
X0055350Y0052248D03*
X0055350Y0052581D03*
X0055517Y0052581D03*
X0055517Y0052914D03*
X0054517Y0054081D03*
X0054350Y0054081D03*
X0053850Y0053747D03*
X0054350Y0054747D03*
X0054517Y0054747D03*
X0054517Y0054914D03*
X0054350Y0054914D03*
X0055517Y0054914D03*
X0056017Y0054914D03*
X0056017Y0054747D03*
X0056183Y0054747D03*
X0056683Y0054081D03*
X0057183Y0054081D03*
X0052684Y0054081D03*
X0052684Y0053747D03*
X0052684Y0054747D03*
X0052684Y0054914D03*
X0051517Y0054914D03*
X0051517Y0054747D03*
X0051517Y0054081D03*
X0051517Y0053747D03*
X0051351Y0053747D03*
X0050351Y0054081D03*
X0050184Y0054081D03*
X0050184Y0054747D03*
X0050351Y0054747D03*
X0050351Y0054914D03*
X0050184Y0054914D03*
X0057183Y0048081D03*
X0057350Y0048081D03*
X0057350Y0047248D03*
X0057183Y0047248D03*
X0057183Y0046915D03*
X0057350Y0046915D03*
X0056850Y0046915D03*
X0056683Y0046915D03*
X0057350Y0045248D03*
X0055517Y0045415D03*
X0055350Y0045415D03*
X0055517Y0040082D03*
X0055683Y0040082D03*
X0055683Y0039749D03*
X0055517Y0039749D03*
X0055517Y0039582D03*
X0055350Y0039582D03*
X0055350Y0039749D03*
X0055350Y0039249D03*
X0055350Y0038916D03*
X0055517Y0038916D03*
X0055517Y0038583D03*
X0055683Y0038583D03*
X0055683Y0038416D03*
X0055517Y0038416D03*
X0055350Y0038416D03*
X0055350Y0038583D03*
X0056017Y0038416D03*
X0056183Y0038416D03*
X0056183Y0038583D03*
X0056183Y0038916D03*
X0056183Y0039249D03*
X0056183Y0039582D03*
X0056183Y0039749D03*
X0056183Y0040082D03*
X0056517Y0039749D03*
X0056517Y0039582D03*
X0056517Y0039249D03*
X0056517Y0038916D03*
X0056517Y0038583D03*
X0056517Y0038416D03*
X0056683Y0038416D03*
X0056850Y0038416D03*
X0056850Y0038583D03*
X0057183Y0038416D03*
X0057350Y0038583D03*
X0057350Y0038916D03*
X0057183Y0038916D03*
X0057183Y0039249D03*
X0057350Y0039249D03*
X0057350Y0039582D03*
X0057183Y0039582D03*
X0057183Y0039749D03*
X0057350Y0039749D03*
X0056850Y0039749D03*
X0056850Y0040082D03*
X0056683Y0040082D03*
X0056683Y0038083D03*
X0056517Y0038083D03*
X0056183Y0038083D03*
X0056017Y0038083D03*
X0056183Y0036250D03*
X0056183Y0035916D03*
X0056183Y0035750D03*
X0056183Y0035416D03*
X0056183Y0035083D03*
X0056517Y0035083D03*
X0056517Y0035416D03*
X0056517Y0035750D03*
X0056517Y0035916D03*
X0056850Y0036250D03*
X0057183Y0035916D03*
X0057183Y0035750D03*
X0057350Y0035750D03*
X0057350Y0035916D03*
X0057350Y0035416D03*
X0057183Y0035416D03*
X0056850Y0034416D03*
X0056683Y0034416D03*
X0056683Y0034250D03*
X0056517Y0034250D03*
X0056017Y0034250D03*
X0055683Y0034416D03*
X0055517Y0035083D03*
X0055350Y0035083D03*
X0055350Y0035416D03*
X0055350Y0035750D03*
X0055350Y0035916D03*
X0055517Y0035916D03*
X0055517Y0035750D03*
X0055517Y0036250D03*
X0055683Y0036250D03*
X0058516Y0037083D03*
D14*
X0056267Y0034416D03*
X0055933Y0045415D03*
X0054267Y0053747D03*
X0051267Y0055580D03*
X0050934Y0053747D03*
X0090429Y0046082D03*
X0090596Y0046415D03*
X0090596Y0046582D03*
X0090762Y0046915D03*
X0091095Y0047248D03*
X0090262Y0045248D03*
X0090262Y0044915D03*
X0090262Y0044582D03*
X0090429Y0043749D03*
X0090762Y0043082D03*
X0090929Y0042749D03*
X0091095Y0042582D03*
X0091429Y0042249D03*
X0095762Y0042249D03*
X0095762Y0042582D03*
X0095762Y0042749D03*
X0095762Y0043082D03*
X0095762Y0043415D03*
X0095762Y0043749D03*
X0095762Y0043915D03*
X0095762Y0044582D03*
X0095762Y0044915D03*
X0095762Y0045248D03*
X0095762Y0045415D03*
X0095762Y0045748D03*
X0095762Y0046082D03*
X0095762Y0046415D03*
X0095762Y0046582D03*
X0095762Y0046915D03*
X0095762Y0047248D03*
X0095762Y0047915D03*
X0095762Y0048081D03*
X0100261Y0048081D03*
X0100261Y0047915D03*
X0100261Y0047248D03*
X0100261Y0046915D03*
X0100261Y0046582D03*
X0100261Y0046415D03*
X0100261Y0046082D03*
X0100261Y0045748D03*
X0100261Y0045415D03*
X0100261Y0045248D03*
X0100261Y0044915D03*
X0100261Y0044582D03*
X0100261Y0043915D03*
X0100261Y0043749D03*
X0100261Y0043415D03*
X0100261Y0043082D03*
X0100261Y0042749D03*
X0100261Y0042582D03*
X0100261Y0042249D03*
X0100261Y0041915D03*
X0095762Y0041915D03*
X0108427Y0041915D03*
X0108427Y0042249D03*
X0108427Y0042582D03*
X0108427Y0042749D03*
X0108427Y0043082D03*
X0108427Y0043415D03*
X0108427Y0043749D03*
X0108427Y0043915D03*
X0108427Y0044582D03*
X0108427Y0044915D03*
X0108427Y0045248D03*
X0108427Y0045415D03*
X0108427Y0045748D03*
X0108427Y0046082D03*
X0108427Y0046415D03*
X0108427Y0046582D03*
X0108427Y0046915D03*
X0108427Y0047248D03*
X0108427Y0047915D03*
X0108427Y0048081D03*
X0114426Y0048081D03*
X0114426Y0047915D03*
X0114426Y0047248D03*
X0114426Y0046915D03*
X0114426Y0046582D03*
X0114426Y0046415D03*
X0114426Y0046082D03*
X0114426Y0045748D03*
X0114426Y0045415D03*
X0114426Y0045248D03*
X0114426Y0044915D03*
X0114426Y0044582D03*
X0114426Y0043915D03*
X0114426Y0043749D03*
X0114426Y0043415D03*
X0114426Y0043082D03*
X0114426Y0042749D03*
X0114426Y0042582D03*
X0115259Y0042582D03*
X0115426Y0042749D03*
X0115926Y0043415D03*
X0117092Y0044915D03*
X0117759Y0045748D03*
X0118259Y0046415D03*
X0118592Y0046915D03*
X0118925Y0047248D03*
X0119759Y0047248D03*
X0119759Y0046915D03*
X0119759Y0046582D03*
X0119759Y0046415D03*
X0119759Y0046082D03*
X0119759Y0045748D03*
X0119759Y0045415D03*
X0119759Y0045248D03*
X0119759Y0044915D03*
X0119759Y0044582D03*
X0119759Y0043915D03*
X0119759Y0043749D03*
X0119759Y0043415D03*
X0119759Y0043082D03*
X0119759Y0042749D03*
X0119759Y0042582D03*
X0119759Y0042249D03*
X0119759Y0041915D03*
X0122592Y0043082D03*
X0122758Y0042749D03*
X0122758Y0042582D03*
X0123092Y0042249D03*
X0122425Y0043749D03*
X0122425Y0043915D03*
X0122425Y0044582D03*
X0122425Y0044915D03*
X0122425Y0045248D03*
X0122425Y0045415D03*
X0122425Y0045748D03*
X0122425Y0046082D03*
X0122425Y0046415D03*
X0122425Y0046582D03*
X0122425Y0046915D03*
X0122425Y0047248D03*
X0122425Y0047915D03*
X0122425Y0048081D03*
X0127924Y0048081D03*
X0127924Y0047915D03*
X0127924Y0047248D03*
X0127924Y0046915D03*
X0127924Y0046582D03*
X0127924Y0046415D03*
X0127924Y0046082D03*
X0127924Y0045748D03*
X0127924Y0045415D03*
X0127924Y0045248D03*
X0127924Y0044915D03*
X0127924Y0044582D03*
X0127924Y0043915D03*
X0127924Y0043749D03*
X0127758Y0043082D03*
X0127591Y0042749D03*
X0127591Y0042582D03*
X0127258Y0042249D03*
X0134090Y0042249D03*
X0134090Y0042582D03*
X0134090Y0042749D03*
X0134090Y0043082D03*
X0134090Y0043415D03*
X0134090Y0043749D03*
X0134090Y0043915D03*
X0134090Y0044582D03*
X0134090Y0045248D03*
X0134090Y0045415D03*
X0134090Y0045748D03*
X0134090Y0046082D03*
X0134090Y0046415D03*
X0134090Y0046582D03*
X0134090Y0046915D03*
X0134090Y0047248D03*
X0134090Y0047915D03*
X0134090Y0048081D03*
X0137090Y0045415D03*
X0136256Y0043915D03*
X0136256Y0043749D03*
X0136756Y0042249D03*
X0137090Y0041915D03*
X0140256Y0042249D03*
X0140756Y0043749D03*
X0140090Y0045248D03*
X0139923Y0045415D03*
X0144089Y0045415D03*
X0144089Y0045248D03*
X0144089Y0045748D03*
X0144089Y0043915D03*
X0144089Y0043749D03*
X0144089Y0043415D03*
X0144089Y0043082D03*
X0144089Y0042749D03*
X0144089Y0042582D03*
X0144089Y0042249D03*
X0144089Y0041915D03*
X0147089Y0041915D03*
X0147089Y0042249D03*
X0147089Y0042582D03*
X0147089Y0042749D03*
X0147089Y0043082D03*
X0147089Y0043415D03*
X0147089Y0043749D03*
X0147089Y0043915D03*
X0147089Y0044582D03*
X0147089Y0044915D03*
X0147089Y0045248D03*
X0147089Y0045415D03*
X0147089Y0046415D03*
X0147089Y0046582D03*
X0147089Y0046915D03*
X0147089Y0047248D03*
X0152755Y0045248D03*
X0153421Y0043749D03*
X0156088Y0045415D03*
X0158587Y0045415D03*
X0159087Y0044915D03*
X0159254Y0044582D03*
X0159420Y0043915D03*
X0159254Y0042582D03*
X0161753Y0042582D03*
X0161753Y0042749D03*
X0161753Y0043082D03*
X0161753Y0043415D03*
X0161753Y0043749D03*
X0161753Y0043915D03*
X0161753Y0044582D03*
X0161753Y0044915D03*
X0161753Y0045248D03*
X0161753Y0045415D03*
X0161753Y0045748D03*
X0161753Y0046082D03*
X0161753Y0046415D03*
X0161753Y0046582D03*
X0161753Y0046915D03*
X0161753Y0047248D03*
X0161753Y0047915D03*
X0161753Y0048081D03*
X0164920Y0043915D03*
X0166919Y0045415D03*
X0167086Y0045248D03*
X0167586Y0044582D03*
X0167753Y0043915D03*
X0167753Y0043415D03*
X0167753Y0043082D03*
X0167086Y0041915D03*
X0161753Y0041915D03*
X0161753Y0042249D03*
X0134090Y0041915D03*
D15*
X0136007Y0042749D03*
X0136007Y0043082D03*
X0136007Y0043415D03*
X0136673Y0043415D03*
X0136673Y0043082D03*
X0137173Y0042249D03*
X0136673Y0041915D03*
X0137840Y0041915D03*
X0137840Y0041249D03*
X0139006Y0041249D03*
X0139506Y0041915D03*
X0140173Y0041915D03*
X0140173Y0042582D03*
X0140173Y0042749D03*
X0140839Y0042749D03*
X0140839Y0042582D03*
X0140839Y0044582D03*
X0140839Y0044915D03*
X0140173Y0044582D03*
X0139506Y0045248D03*
X0139506Y0045415D03*
X0139006Y0046082D03*
X0137840Y0046082D03*
X0137840Y0045415D03*
X0136673Y0045415D03*
X0136673Y0045248D03*
X0136007Y0044582D03*
X0133674Y0048081D03*
X0131341Y0045248D03*
X0127674Y0042249D03*
X0127174Y0042582D03*
X0124175Y0041915D03*
X0124175Y0041249D03*
X0123508Y0042249D03*
X0122342Y0042749D03*
X0120009Y0041249D03*
X0116343Y0043415D03*
X0115843Y0043915D03*
X0115843Y0042749D03*
X0115176Y0041915D03*
X0114676Y0041249D03*
X0117009Y0045415D03*
X0118176Y0045748D03*
X0118842Y0046582D03*
X0118176Y0046915D03*
X0119342Y0047248D03*
X0108677Y0041249D03*
X0108010Y0041915D03*
X0103844Y0041249D03*
X0097345Y0048081D03*
X0093179Y0048081D03*
X0092679Y0047915D03*
X0091512Y0048081D03*
X0091512Y0047248D03*
X0090846Y0046082D03*
X0090179Y0046415D03*
X0090846Y0043749D03*
X0090846Y0043415D03*
X0090179Y0043415D03*
X0090846Y0042249D03*
X0091512Y0042582D03*
X0092012Y0042249D03*
X0092679Y0041915D03*
X0092679Y0041249D03*
X0058183Y0043749D03*
X0058183Y0043915D03*
X0057017Y0043915D03*
X0056350Y0043915D03*
X0055850Y0043915D03*
X0055183Y0043915D03*
X0055183Y0043749D03*
X0055850Y0042749D03*
X0055850Y0042582D03*
X0055183Y0042249D03*
X0055183Y0041915D03*
X0055850Y0041249D03*
X0055850Y0041082D03*
X0055850Y0040082D03*
X0056350Y0039749D03*
X0056350Y0039582D03*
X0056350Y0039249D03*
X0056350Y0038916D03*
X0056350Y0038583D03*
X0056350Y0038416D03*
X0056350Y0038083D03*
X0055850Y0038083D03*
X0055850Y0038416D03*
X0055183Y0038916D03*
X0055183Y0039249D03*
X0055183Y0039582D03*
X0055183Y0039749D03*
X0057017Y0039749D03*
X0057017Y0039582D03*
X0057017Y0040082D03*
X0057517Y0039249D03*
X0057017Y0038416D03*
X0057017Y0036250D03*
X0057017Y0035916D03*
X0057017Y0035750D03*
X0057517Y0035416D03*
X0057517Y0035083D03*
X0057017Y0034416D03*
X0056350Y0035083D03*
X0056350Y0035416D03*
X0056350Y0035750D03*
X0056350Y0035916D03*
X0055850Y0036250D03*
X0055183Y0035916D03*
X0055183Y0035750D03*
X0055183Y0035416D03*
X0055183Y0035083D03*
X0055850Y0034416D03*
X0055183Y0037083D03*
X0057017Y0041082D03*
X0057017Y0041249D03*
X0057517Y0041915D03*
X0057017Y0042582D03*
X0057017Y0042749D03*
X0057017Y0045415D03*
X0057017Y0045748D03*
X0056350Y0045415D03*
X0055183Y0045248D03*
X0055850Y0046582D03*
X0055850Y0046915D03*
X0055183Y0047248D03*
X0055183Y0047915D03*
X0055183Y0048081D03*
X0055183Y0049415D03*
X0055183Y0049581D03*
X0056350Y0049581D03*
X0056350Y0049914D03*
X0056350Y0050248D03*
X0055850Y0051081D03*
X0055850Y0051414D03*
X0055183Y0052248D03*
X0055183Y0052581D03*
X0055183Y0053747D03*
X0055850Y0054747D03*
X0057517Y0053747D03*
X0057517Y0052914D03*
X0057517Y0050748D03*
X0057517Y0050581D03*
X0057517Y0050248D03*
X0057517Y0049914D03*
X0057517Y0049581D03*
X0057517Y0049415D03*
X0057017Y0048081D03*
X0057017Y0047248D03*
X0057017Y0046915D03*
X0053350Y0053747D03*
X0052850Y0053747D03*
X0052850Y0054081D03*
X0052850Y0054747D03*
X0052850Y0054914D03*
X0051684Y0054914D03*
X0051684Y0054747D03*
X0051684Y0054081D03*
X0051684Y0053747D03*
X0050517Y0053747D03*
X0050517Y0054081D03*
X0142006Y0046082D03*
X0142506Y0046082D03*
X0143172Y0045748D03*
X0143172Y0045248D03*
X0143672Y0045248D03*
X0143672Y0045415D03*
X0144339Y0046082D03*
X0145506Y0046082D03*
X0145506Y0045748D03*
X0146672Y0046082D03*
X0148505Y0046082D03*
X0149172Y0044915D03*
X0149672Y0044915D03*
X0150338Y0045415D03*
X0150338Y0046082D03*
X0150838Y0046082D03*
X0151505Y0046082D03*
X0152005Y0046082D03*
X0152005Y0045415D03*
X0152671Y0045748D03*
X0153171Y0045415D03*
X0153171Y0045248D03*
X0152671Y0044915D03*
X0155671Y0045248D03*
X0155671Y0045415D03*
X0156171Y0045748D03*
X0156837Y0046082D03*
X0158004Y0046082D03*
X0158004Y0045415D03*
X0158670Y0045748D03*
X0159170Y0045248D03*
X0158670Y0044915D03*
X0159837Y0043749D03*
X0159837Y0043415D03*
X0159170Y0043082D03*
X0158670Y0042249D03*
X0159170Y0041915D03*
X0158004Y0041915D03*
X0158004Y0041249D03*
X0156837Y0041249D03*
X0157337Y0043915D03*
X0155671Y0043915D03*
X0152005Y0041915D03*
X0152005Y0041249D03*
X0151505Y0041249D03*
X0150838Y0041249D03*
X0150338Y0041249D03*
X0150338Y0041915D03*
X0149672Y0042582D03*
X0149172Y0042249D03*
X0147339Y0041249D03*
X0144339Y0041249D03*
X0143672Y0043915D03*
X0161504Y0041249D03*
X0164003Y0043915D03*
X0164503Y0043915D03*
X0164503Y0044582D03*
X0164503Y0044915D03*
X0164003Y0045248D03*
X0164003Y0045415D03*
X0164503Y0045748D03*
X0165170Y0046082D03*
X0166336Y0046082D03*
X0167503Y0045248D03*
X0168169Y0043749D03*
X0168169Y0043415D03*
X0167503Y0041915D03*
X0166336Y0041915D03*
X0166336Y0041249D03*
X0165170Y0041249D03*
D16*
X0165336Y0041749D03*
X0166003Y0041749D03*
X0166169Y0041749D03*
X0166669Y0042082D03*
X0166669Y0041416D03*
X0167336Y0041749D03*
X0167669Y0042082D03*
X0167336Y0042915D03*
X0168003Y0042915D03*
X0167336Y0044082D03*
X0167336Y0044415D03*
X0167169Y0044748D03*
X0167836Y0044748D03*
X0168003Y0044415D03*
X0167169Y0045582D03*
X0166169Y0045582D03*
X0166003Y0045582D03*
X0165503Y0045582D03*
X0165336Y0045582D03*
X0164170Y0045582D03*
X0164336Y0044748D03*
X0164170Y0044415D03*
X0163670Y0044748D03*
X0163503Y0044415D03*
X0163503Y0044082D03*
X0163503Y0043582D03*
X0163670Y0042082D03*
X0163836Y0042082D03*
X0164170Y0041749D03*
X0164670Y0041416D03*
X0162003Y0041416D03*
X0159337Y0042082D03*
X0159004Y0041749D03*
X0158837Y0041749D03*
X0158504Y0042082D03*
X0158337Y0042082D03*
X0157837Y0041749D03*
X0157671Y0041749D03*
X0157837Y0041416D03*
X0158337Y0041416D03*
X0158504Y0041416D03*
X0157004Y0041749D03*
X0156338Y0041749D03*
X0156338Y0041416D03*
X0155838Y0041749D03*
X0155338Y0042082D03*
X0155171Y0043582D03*
X0155171Y0044082D03*
X0155171Y0044415D03*
X0155338Y0044748D03*
X0155838Y0044415D03*
X0156004Y0044748D03*
X0155838Y0045582D03*
X0157004Y0045582D03*
X0157504Y0045582D03*
X0157671Y0045582D03*
X0157837Y0045582D03*
X0158171Y0045582D03*
X0158837Y0045582D03*
X0159004Y0045582D03*
X0158837Y0044748D03*
X0159004Y0044415D03*
X0159004Y0044082D03*
X0159670Y0044082D03*
X0159670Y0044415D03*
X0159504Y0044748D03*
X0159670Y0042915D03*
X0159004Y0042915D03*
X0153671Y0042915D03*
X0153005Y0042915D03*
X0152338Y0042082D03*
X0152838Y0041749D03*
X0152505Y0041416D03*
X0152338Y0041416D03*
X0152171Y0041416D03*
X0151671Y0041749D03*
X0151005Y0041749D03*
X0150171Y0042082D03*
X0150005Y0042082D03*
X0149505Y0041749D03*
X0149338Y0042082D03*
X0150005Y0041416D03*
X0150171Y0041416D03*
X0146839Y0041416D03*
X0143839Y0041416D03*
X0141006Y0042915D03*
X0140340Y0042915D03*
X0140506Y0042082D03*
X0139673Y0042082D03*
X0139673Y0041416D03*
X0138173Y0041749D03*
X0138006Y0041749D03*
X0137506Y0042082D03*
X0137340Y0042082D03*
X0136840Y0041749D03*
X0136506Y0042082D03*
X0137340Y0041416D03*
X0137506Y0041416D03*
X0137006Y0044748D03*
X0136840Y0044748D03*
X0136173Y0044748D03*
X0136840Y0045582D03*
X0138006Y0045582D03*
X0138173Y0045582D03*
X0139840Y0045582D03*
X0140006Y0045582D03*
X0140006Y0044748D03*
X0140340Y0044415D03*
X0140340Y0044082D03*
X0141006Y0044082D03*
X0141006Y0044415D03*
X0142173Y0045582D03*
X0142339Y0045582D03*
X0143506Y0045582D03*
X0143506Y0044748D03*
X0145672Y0045582D03*
X0145839Y0045582D03*
X0147505Y0045582D03*
X0147672Y0045582D03*
X0148172Y0045582D03*
X0148338Y0045582D03*
X0147505Y0046248D03*
X0146839Y0047748D03*
X0149505Y0045582D03*
X0149505Y0044748D03*
X0149338Y0044748D03*
X0150671Y0045582D03*
X0151671Y0045582D03*
X0152838Y0045582D03*
X0153005Y0045582D03*
X0152838Y0044748D03*
X0153005Y0044415D03*
X0153005Y0044082D03*
X0153671Y0044082D03*
X0153671Y0044415D03*
X0153505Y0044748D03*
X0162003Y0048581D03*
X0134340Y0048581D03*
X0131174Y0044748D03*
X0127508Y0043582D03*
X0127341Y0042915D03*
X0126675Y0041416D03*
X0124842Y0041749D03*
X0123842Y0042082D03*
X0123675Y0041416D03*
X0123175Y0041749D03*
X0122842Y0043582D03*
X0118509Y0046248D03*
X0118009Y0045582D03*
X0117176Y0045582D03*
X0117342Y0044748D03*
X0117176Y0044415D03*
X0116842Y0044082D03*
X0116509Y0043582D03*
X0116009Y0044082D03*
X0115676Y0043582D03*
X0116009Y0042915D03*
X0115343Y0042082D03*
X0114843Y0041416D03*
X0116509Y0044748D03*
X0118342Y0047081D03*
X0119175Y0047081D03*
X0119175Y0048248D03*
X0119509Y0048581D03*
X0122175Y0048581D03*
X0122675Y0048581D03*
X0128174Y0048581D03*
X0114176Y0048581D03*
X0108177Y0048581D03*
X0103177Y0048581D03*
X0103177Y0048248D03*
X0104011Y0041749D03*
X0096012Y0048581D03*
X0092845Y0048581D03*
X0092512Y0048581D03*
X0091845Y0048248D03*
X0091679Y0048248D03*
X0092179Y0047748D03*
X0092345Y0047748D03*
X0091679Y0047415D03*
X0091345Y0047081D03*
X0091179Y0047748D03*
X0091012Y0047748D03*
X0090679Y0047415D03*
X0090512Y0047081D03*
X0090679Y0045582D03*
X0090012Y0045582D03*
X0090012Y0044415D03*
X0090012Y0044082D03*
X0089846Y0044082D03*
X0090679Y0044082D03*
X0090679Y0044415D03*
X0091179Y0042915D03*
X0091345Y0042915D03*
X0091179Y0042082D03*
X0091012Y0042082D03*
X0092179Y0042082D03*
X0092345Y0042082D03*
X0092345Y0041416D03*
X0092179Y0041416D03*
X0093012Y0041749D03*
X0058516Y0037249D03*
X0057183Y0036083D03*
X0056850Y0036083D03*
X0056683Y0036083D03*
X0056517Y0036083D03*
X0056517Y0036416D03*
X0056683Y0036416D03*
X0056850Y0036416D03*
X0056183Y0036416D03*
X0056183Y0036083D03*
X0055683Y0036083D03*
X0055517Y0036083D03*
X0055350Y0036083D03*
X0055350Y0035250D03*
X0055350Y0034916D03*
X0055517Y0034916D03*
X0055517Y0034583D03*
X0056183Y0034916D03*
X0056183Y0035250D03*
X0056517Y0035250D03*
X0056517Y0034916D03*
X0056517Y0034583D03*
X0056683Y0034583D03*
X0056850Y0034583D03*
X0057183Y0034583D03*
X0057183Y0034916D03*
X0057350Y0034916D03*
X0057350Y0035250D03*
X0057183Y0035250D03*
X0057183Y0038749D03*
X0057350Y0038749D03*
X0057350Y0039416D03*
X0057183Y0039416D03*
X0056517Y0039416D03*
X0056183Y0039416D03*
X0055517Y0039416D03*
X0055350Y0039416D03*
X0055350Y0038749D03*
X0055517Y0038749D03*
X0056183Y0038749D03*
X0056517Y0038749D03*
X0056683Y0040249D03*
X0056183Y0040249D03*
X0055683Y0040916D03*
X0055517Y0041416D03*
X0055350Y0041416D03*
X0055350Y0041749D03*
X0055517Y0041749D03*
X0055350Y0042082D03*
X0056683Y0040916D03*
X0056850Y0040916D03*
X0057183Y0041416D03*
X0057350Y0041416D03*
X0057350Y0041749D03*
X0057183Y0041749D03*
X0057183Y0042082D03*
X0057350Y0042082D03*
X0057350Y0044082D03*
X0057183Y0044082D03*
X0057183Y0044415D03*
X0057350Y0044415D03*
X0056850Y0045582D03*
X0057183Y0047081D03*
X0057350Y0047081D03*
X0057350Y0047415D03*
X0057183Y0047415D03*
X0057183Y0047748D03*
X0057350Y0047748D03*
X0057183Y0048248D03*
X0056850Y0048248D03*
X0056850Y0048581D03*
X0055683Y0048581D03*
X0055683Y0048248D03*
X0055517Y0048248D03*
X0055350Y0048248D03*
X0055350Y0047748D03*
X0055350Y0047415D03*
X0055517Y0047415D03*
X0055517Y0047081D03*
X0055683Y0047081D03*
X0055350Y0047081D03*
X0056183Y0049748D03*
X0056517Y0049748D03*
X0057183Y0049748D03*
X0057350Y0049748D03*
X0057350Y0050414D03*
X0057183Y0050414D03*
X0055517Y0051248D03*
X0055517Y0051581D03*
X0055350Y0051581D03*
X0055350Y0051914D03*
X0055350Y0052414D03*
X0055517Y0052414D03*
X0056017Y0053081D03*
X0056183Y0053914D03*
X0056517Y0054247D03*
X0056683Y0054247D03*
X0056850Y0054247D03*
X0056850Y0053914D03*
X0057350Y0053914D03*
X0057350Y0053081D03*
X0056517Y0054581D03*
X0056017Y0054581D03*
X0055350Y0055080D03*
X0054517Y0055080D03*
X0054350Y0055080D03*
X0054350Y0055414D03*
X0054517Y0055414D03*
X0054517Y0054581D03*
X0054350Y0054581D03*
X0054350Y0054247D03*
X0054517Y0054247D03*
X0054517Y0053914D03*
X0054350Y0053914D03*
X0055350Y0053914D03*
X0055517Y0053914D03*
X0053517Y0055414D03*
X0052684Y0055080D03*
X0052684Y0054581D03*
X0052684Y0054247D03*
X0052684Y0053914D03*
X0051517Y0053914D03*
X0051517Y0054247D03*
X0051517Y0054581D03*
X0051517Y0055080D03*
X0052017Y0055414D03*
X0050684Y0055414D03*
X0050351Y0055080D03*
X0050184Y0055080D03*
X0050184Y0054581D03*
X0050018Y0054581D03*
X0050351Y0054581D03*
X0050351Y0054247D03*
X0050184Y0054247D03*
X0050351Y0053914D03*
X0050684Y0053914D03*
X0050851Y0053914D03*
D17*
X0050517Y0053914D03*
X0050517Y0055080D03*
X0050517Y0055414D03*
X0051684Y0055414D03*
X0051684Y0055080D03*
X0051684Y0054581D03*
X0051684Y0054247D03*
X0051684Y0053914D03*
X0052850Y0053914D03*
X0052850Y0054247D03*
X0052850Y0054581D03*
X0052850Y0055080D03*
X0055183Y0055414D03*
X0055850Y0055080D03*
X0057517Y0055414D03*
X0055850Y0053081D03*
X0055183Y0052414D03*
X0055183Y0051914D03*
X0055183Y0051581D03*
X0056350Y0049748D03*
X0057517Y0049748D03*
X0057517Y0050414D03*
X0057517Y0051248D03*
X0057017Y0048581D03*
X0057017Y0048248D03*
X0057517Y0047748D03*
X0057017Y0047081D03*
X0055850Y0048248D03*
X0055183Y0047748D03*
X0055183Y0047415D03*
X0055183Y0047081D03*
X0055183Y0042082D03*
X0055183Y0041749D03*
X0055183Y0041416D03*
X0055850Y0040916D03*
X0057017Y0040916D03*
X0057017Y0041416D03*
X0057517Y0041749D03*
X0057517Y0042082D03*
X0056350Y0039416D03*
X0056350Y0038749D03*
X0057017Y0038749D03*
X0055183Y0038749D03*
X0055183Y0039416D03*
X0055183Y0037249D03*
X0056350Y0036416D03*
X0056350Y0036083D03*
X0057017Y0036083D03*
X0056350Y0035250D03*
X0056350Y0034916D03*
X0056350Y0034583D03*
X0057017Y0034583D03*
X0057017Y0034916D03*
X0055183Y0034916D03*
X0055183Y0035250D03*
X0090179Y0043582D03*
X0090846Y0043582D03*
X0091512Y0041749D03*
X0092012Y0041416D03*
X0093179Y0041749D03*
X0090846Y0046248D03*
X0090179Y0046248D03*
X0090846Y0047415D03*
X0090846Y0047748D03*
X0092679Y0048581D03*
X0097345Y0048581D03*
X0103844Y0041416D03*
X0108677Y0048581D03*
X0114676Y0048581D03*
X0117676Y0046248D03*
X0118842Y0047748D03*
X0120009Y0048581D03*
X0123008Y0042915D03*
X0126508Y0042082D03*
X0127174Y0041749D03*
X0127674Y0048581D03*
X0129507Y0048248D03*
X0136007Y0044415D03*
X0136007Y0044082D03*
X0136673Y0044082D03*
X0136673Y0044415D03*
X0136673Y0042915D03*
X0136007Y0042915D03*
X0139006Y0041749D03*
X0139506Y0042082D03*
X0139506Y0041416D03*
X0140173Y0041749D03*
X0140173Y0044748D03*
X0140839Y0044748D03*
X0140173Y0045582D03*
X0139006Y0045582D03*
X0142006Y0045582D03*
X0142506Y0045582D03*
X0143672Y0044415D03*
X0143672Y0044082D03*
X0144339Y0041416D03*
X0147339Y0041416D03*
X0149672Y0041749D03*
X0150838Y0041749D03*
X0151505Y0041749D03*
X0153171Y0042082D03*
X0155671Y0041749D03*
X0156171Y0042082D03*
X0156171Y0041416D03*
X0156837Y0041749D03*
X0155671Y0044082D03*
X0156837Y0045582D03*
X0158004Y0045582D03*
X0159837Y0043582D03*
X0161504Y0041416D03*
X0164003Y0041749D03*
X0164503Y0042082D03*
X0164503Y0041416D03*
X0165170Y0041749D03*
X0166836Y0042082D03*
X0166836Y0041416D03*
X0168169Y0043582D03*
X0165170Y0045582D03*
X0164003Y0044082D03*
X0163337Y0043582D03*
X0161504Y0048581D03*
X0151505Y0045582D03*
X0150838Y0045582D03*
X0149672Y0045582D03*
X0149672Y0044748D03*
X0148505Y0045582D03*
X0147339Y0046248D03*
X0146672Y0046248D03*
X0147339Y0047748D03*
X0115176Y0042915D03*
D18*
X0122425Y0048581D03*
X0138423Y0045582D03*
X0138423Y0041749D03*
X0146589Y0045582D03*
X0147922Y0045582D03*
X0156088Y0041749D03*
X0158087Y0041416D03*
X0157254Y0045582D03*
X0165753Y0045582D03*
X0093095Y0048581D03*
X0057100Y0045582D03*
X0055933Y0048581D03*
X0056433Y0053914D03*
X0057100Y0053914D03*
X0056267Y0054581D03*
X0056433Y0040249D03*
X0055767Y0034583D03*
D19*
X0056100Y0034583D03*
X0057267Y0043582D03*
X0057267Y0046248D03*
X0055600Y0055080D03*
X0108427Y0048581D03*
X0114426Y0048581D03*
X0119759Y0048581D03*
X0127924Y0048581D03*
X0138756Y0045582D03*
X0138756Y0041749D03*
X0144089Y0041416D03*
X0147089Y0041416D03*
X0150588Y0041749D03*
X0151255Y0041749D03*
X0155421Y0044082D03*
X0156587Y0041749D03*
X0161754Y0041416D03*
X0163753Y0044082D03*
X0161754Y0048581D03*
X0147089Y0047748D03*
D20*
X0146839Y0047581D03*
X0149838Y0041582D03*
X0152505Y0041582D03*
X0153005Y0044248D03*
X0153671Y0044248D03*
X0155171Y0044248D03*
X0155838Y0044248D03*
X0155838Y0041582D03*
X0156004Y0041582D03*
X0158837Y0041582D03*
X0159004Y0044248D03*
X0159670Y0044248D03*
X0162003Y0041582D03*
X0164170Y0041582D03*
X0164336Y0041582D03*
X0167003Y0041582D03*
X0167169Y0041582D03*
X0167336Y0044248D03*
X0168003Y0044248D03*
X0164170Y0044248D03*
X0163670Y0044248D03*
X0163503Y0044248D03*
X0162003Y0048415D03*
X0141006Y0044248D03*
X0140340Y0044248D03*
X0140006Y0041582D03*
X0137006Y0041582D03*
X0129341Y0048415D03*
X0127008Y0041582D03*
X0123342Y0041582D03*
X0118675Y0047581D03*
X0116176Y0044248D03*
X0115009Y0041582D03*
X0091845Y0041582D03*
X0091679Y0041582D03*
X0090679Y0044248D03*
X0090012Y0044248D03*
X0091012Y0047581D03*
X0091845Y0047581D03*
X0092179Y0048415D03*
X0092345Y0048415D03*
X0057350Y0047581D03*
X0057183Y0047581D03*
X0057183Y0048415D03*
X0056850Y0048415D03*
X0056683Y0048415D03*
X0056517Y0048415D03*
X0056183Y0048415D03*
X0056017Y0048415D03*
X0055683Y0048415D03*
X0055517Y0048415D03*
X0055350Y0047581D03*
X0057183Y0044248D03*
X0057350Y0044248D03*
X0057350Y0041582D03*
X0057183Y0041582D03*
X0056683Y0040749D03*
X0056517Y0040749D03*
X0056183Y0040749D03*
X0056017Y0040749D03*
X0055517Y0041582D03*
X0055350Y0041582D03*
X0058516Y0037416D03*
X0057350Y0034750D03*
X0057183Y0034750D03*
X0056850Y0034750D03*
X0056517Y0034750D03*
X0056183Y0034750D03*
X0055683Y0034750D03*
X0055517Y0034750D03*
X0055350Y0034750D03*
X0055350Y0051748D03*
X0056183Y0054414D03*
X0056683Y0054414D03*
X0054517Y0054414D03*
X0054350Y0054414D03*
X0054350Y0055247D03*
X0054517Y0055247D03*
X0053017Y0055247D03*
X0052684Y0055247D03*
X0052017Y0055247D03*
X0051517Y0055247D03*
X0051351Y0055247D03*
X0050851Y0055247D03*
X0050684Y0055247D03*
X0050351Y0055247D03*
X0050351Y0054414D03*
X0050184Y0054414D03*
X0050018Y0054414D03*
X0051517Y0054414D03*
X0052684Y0054414D03*
D21*
X0052850Y0054414D03*
X0052850Y0055247D03*
X0052184Y0055247D03*
X0051684Y0055247D03*
X0051684Y0054414D03*
X0050517Y0055247D03*
X0055183Y0055247D03*
X0057517Y0055247D03*
X0055183Y0051748D03*
X0055850Y0048415D03*
X0056350Y0048415D03*
X0057017Y0048415D03*
X0057517Y0047581D03*
X0055183Y0047581D03*
X0055183Y0041582D03*
X0055850Y0040749D03*
X0056350Y0040749D03*
X0055183Y0037416D03*
X0055850Y0034750D03*
X0056350Y0034750D03*
X0057017Y0034750D03*
X0090846Y0047581D03*
X0092012Y0047581D03*
X0092012Y0048415D03*
X0103844Y0041582D03*
X0117009Y0044248D03*
X0119342Y0048415D03*
X0129507Y0048415D03*
X0136007Y0044248D03*
X0136673Y0044248D03*
X0137173Y0041582D03*
X0143672Y0044248D03*
X0147339Y0047581D03*
X0149672Y0041582D03*
X0152671Y0041582D03*
X0158670Y0041582D03*
X0161504Y0048415D03*
D22*
X0163753Y0043915D03*
X0164253Y0043915D03*
X0159420Y0043082D03*
X0157754Y0041249D03*
X0155421Y0043915D03*
X0144089Y0046082D03*
X0143422Y0045248D03*
X0142256Y0046082D03*
X0139756Y0041915D03*
X0144089Y0041249D03*
X0119759Y0041249D03*
X0114426Y0041249D03*
X0057933Y0043749D03*
X0057933Y0043915D03*
X0057267Y0043915D03*
X0057267Y0044582D03*
X0056100Y0043915D03*
X0057267Y0042249D03*
X0057267Y0047915D03*
X0055433Y0049581D03*
X0055600Y0051414D03*
X0053600Y0053747D03*
X0057267Y0035083D03*
D23*
X0057350Y0035583D03*
X0057183Y0035583D03*
X0056517Y0035583D03*
X0056183Y0035583D03*
X0055517Y0035583D03*
X0055350Y0035583D03*
X0055517Y0038249D03*
X0055683Y0038249D03*
X0056017Y0038249D03*
X0056183Y0038249D03*
X0056850Y0038249D03*
X0056517Y0039082D03*
X0056183Y0039082D03*
X0055350Y0039082D03*
X0055350Y0039916D03*
X0055517Y0039916D03*
X0055683Y0039916D03*
X0056183Y0039916D03*
X0056517Y0039916D03*
X0056683Y0039916D03*
X0057183Y0039916D03*
X0057183Y0039082D03*
X0057350Y0039082D03*
X0057350Y0042415D03*
X0057183Y0042415D03*
X0057183Y0043249D03*
X0057350Y0043249D03*
X0057350Y0045082D03*
X0057350Y0045915D03*
X0057183Y0045915D03*
X0057183Y0046748D03*
X0056850Y0046748D03*
X0056683Y0046748D03*
X0056517Y0046748D03*
X0056017Y0046748D03*
X0055517Y0046748D03*
X0055683Y0045082D03*
X0055683Y0042415D03*
X0055683Y0049248D03*
X0056517Y0049248D03*
X0057350Y0049248D03*
X0057350Y0050081D03*
X0057183Y0050081D03*
X0056517Y0050081D03*
X0056183Y0050081D03*
X0056517Y0052747D03*
X0055350Y0052747D03*
X0054517Y0053581D03*
X0053684Y0053581D03*
X0053517Y0053581D03*
X0052684Y0053581D03*
X0051184Y0053581D03*
X0050851Y0053581D03*
X0090012Y0045915D03*
X0090679Y0045915D03*
X0090346Y0046748D03*
X0091179Y0046748D03*
X0091012Y0043249D03*
X0090679Y0042415D03*
X0091679Y0042415D03*
X0115343Y0043249D03*
X0116842Y0045082D03*
X0118342Y0045915D03*
X0118009Y0046748D03*
X0122175Y0043249D03*
X0122508Y0042415D03*
X0123342Y0042415D03*
X0127008Y0042415D03*
X0127841Y0042415D03*
X0128174Y0043249D03*
X0131174Y0045082D03*
X0136340Y0045082D03*
X0137340Y0045915D03*
X0137506Y0045915D03*
X0139673Y0045915D03*
X0139840Y0045915D03*
X0139840Y0045082D03*
X0140673Y0045082D03*
X0141839Y0045915D03*
X0143006Y0045915D03*
X0143339Y0045082D03*
X0145339Y0045915D03*
X0148672Y0045915D03*
X0149838Y0045915D03*
X0150005Y0045915D03*
X0150171Y0045915D03*
X0150005Y0045082D03*
X0149838Y0045082D03*
X0152171Y0045915D03*
X0152338Y0045915D03*
X0152505Y0045082D03*
X0153338Y0045082D03*
X0153671Y0043249D03*
X0153005Y0043249D03*
X0153338Y0042415D03*
X0153505Y0042415D03*
X0155338Y0042415D03*
X0155504Y0042415D03*
X0155838Y0042415D03*
X0155504Y0045082D03*
X0156338Y0045915D03*
X0156504Y0045915D03*
X0158337Y0045915D03*
X0158504Y0045915D03*
X0158504Y0045082D03*
X0159337Y0045082D03*
X0159504Y0042415D03*
X0158837Y0042415D03*
X0163670Y0042415D03*
X0163836Y0042415D03*
X0164170Y0042415D03*
X0163836Y0045082D03*
X0164670Y0045915D03*
X0164836Y0045915D03*
X0166503Y0045915D03*
X0166669Y0045915D03*
X0167669Y0045082D03*
X0167836Y0042415D03*
X0167169Y0042415D03*
X0149838Y0042415D03*
X0149505Y0042415D03*
X0149338Y0042415D03*
X0141006Y0043249D03*
X0140340Y0043249D03*
X0140006Y0042415D03*
X0137006Y0042415D03*
X0136340Y0042415D03*
D24*
X0136673Y0043249D03*
X0136007Y0043249D03*
X0137173Y0045082D03*
X0137173Y0045915D03*
X0139506Y0045915D03*
X0143172Y0045915D03*
X0143172Y0045082D03*
X0149172Y0045082D03*
X0149172Y0042415D03*
X0149672Y0042415D03*
X0152671Y0042415D03*
X0155671Y0042415D03*
X0156171Y0045082D03*
X0158670Y0045082D03*
X0159170Y0043249D03*
X0164003Y0042415D03*
X0164503Y0045082D03*
X0166336Y0045915D03*
X0166836Y0045915D03*
X0166836Y0045082D03*
X0167503Y0043249D03*
X0117676Y0045082D03*
X0090846Y0042415D03*
X0090179Y0043249D03*
X0057517Y0039082D03*
X0057017Y0038249D03*
X0056350Y0039082D03*
X0056350Y0039916D03*
X0055850Y0039916D03*
X0055183Y0039082D03*
X0055850Y0038249D03*
X0056350Y0035583D03*
X0055183Y0035583D03*
X0055183Y0042415D03*
X0057017Y0042415D03*
X0055183Y0045082D03*
X0057017Y0046748D03*
X0055183Y0049248D03*
X0056350Y0050081D03*
X0057517Y0050081D03*
X0055850Y0052747D03*
X0055183Y0053581D03*
X0053350Y0053581D03*
X0052850Y0053581D03*
X0051017Y0053581D03*
X0057517Y0053581D03*
D25*
X0057183Y0051414D03*
X0056183Y0051081D03*
X0055683Y0043749D03*
X0056517Y0036250D03*
X0090346Y0043915D03*
X0090346Y0045415D03*
X0090346Y0045748D03*
X0122508Y0043415D03*
X0127841Y0043415D03*
X0130007Y0048081D03*
X0136673Y0044915D03*
X0136507Y0044582D03*
X0136507Y0042749D03*
X0136507Y0042582D03*
X0138506Y0041249D03*
X0140673Y0043082D03*
X0140673Y0043415D03*
X0140673Y0043915D03*
X0140339Y0044915D03*
X0138506Y0046082D03*
X0143172Y0045415D03*
X0149672Y0045248D03*
X0149505Y0042249D03*
X0149838Y0041915D03*
X0153005Y0044915D03*
X0153171Y0044582D03*
X0153338Y0043915D03*
X0153338Y0043415D03*
X0153338Y0043082D03*
X0153171Y0042749D03*
X0153171Y0042582D03*
X0155671Y0042249D03*
X0157337Y0041249D03*
X0159004Y0042249D03*
X0159337Y0042749D03*
X0158837Y0043915D03*
X0158837Y0045248D03*
X0157337Y0046082D03*
X0156004Y0045248D03*
X0155671Y0044915D03*
X0155504Y0044582D03*
X0163837Y0044582D03*
X0164337Y0045248D03*
X0164503Y0045415D03*
X0167336Y0044915D03*
X0167669Y0042749D03*
X0167503Y0042582D03*
X0167336Y0042249D03*
X0165670Y0041249D03*
X0164003Y0042249D03*
D26*
X0158670Y0041915D03*
X0156671Y0043915D03*
X0152505Y0045415D03*
X0149838Y0045415D03*
X0152505Y0041915D03*
X0118342Y0046582D03*
X0117509Y0045415D03*
X0116843Y0044582D03*
X0116343Y0043915D03*
X0115676Y0043082D03*
X0058017Y0037083D03*
X0056517Y0043749D03*
X0057017Y0051081D03*
X0056350Y0051414D03*
D27*
X0056267Y0037083D03*
D28*
X0056850Y0037249D03*
D29*
X0057850Y0037416D03*
D30*
X0056100Y0037416D03*
D31*
X0057100Y0037416D03*
X0056433Y0054414D03*
X0053267Y0055247D03*
X0051101Y0055247D03*
X0163920Y0044248D03*
D32*
X0164170Y0045082D03*
X0167503Y0042415D03*
X0159170Y0042415D03*
X0159004Y0045082D03*
X0155837Y0045082D03*
X0153338Y0043249D03*
X0153005Y0042415D03*
X0149505Y0045082D03*
X0140673Y0043249D03*
X0136673Y0042415D03*
X0090346Y0045915D03*
X0056850Y0052747D03*
X0056183Y0052747D03*
X0056517Y0038249D03*
D33*
X0056933Y0039916D03*
X0056267Y0046748D03*
X0055767Y0046748D03*
X0053934Y0053581D03*
D34*
X0056433Y0048581D03*
X0056267Y0040916D03*
X0090262Y0044748D03*
X0090762Y0042915D03*
X0090929Y0047081D03*
X0091262Y0047415D03*
X0095762Y0047415D03*
X0095762Y0047748D03*
X0095762Y0047081D03*
X0095762Y0046248D03*
X0095762Y0045582D03*
X0095762Y0044748D03*
X0095762Y0044415D03*
X0095762Y0044082D03*
X0095762Y0043582D03*
X0095762Y0042915D03*
X0095762Y0042082D03*
X0095762Y0041749D03*
X0100261Y0041749D03*
X0100261Y0042082D03*
X0100261Y0041416D03*
X0100261Y0042915D03*
X0100261Y0043582D03*
X0100261Y0044082D03*
X0100261Y0044415D03*
X0100261Y0044748D03*
X0100261Y0045582D03*
X0100261Y0046248D03*
X0100261Y0047081D03*
X0100261Y0047415D03*
X0100261Y0047748D03*
X0108427Y0047748D03*
X0108427Y0047415D03*
X0108427Y0047081D03*
X0108427Y0046248D03*
X0108427Y0045582D03*
X0108427Y0044748D03*
X0108427Y0044415D03*
X0108427Y0044082D03*
X0108427Y0043582D03*
X0108427Y0042915D03*
X0108427Y0042082D03*
X0108427Y0041749D03*
X0114426Y0041416D03*
X0114426Y0042915D03*
X0114426Y0043582D03*
X0114426Y0044082D03*
X0114426Y0044415D03*
X0114426Y0044748D03*
X0114426Y0045582D03*
X0114426Y0046248D03*
X0114426Y0047081D03*
X0114426Y0047415D03*
X0114426Y0047748D03*
X0114426Y0048248D03*
X0117592Y0045582D03*
X0118092Y0046248D03*
X0118759Y0047081D03*
X0119759Y0047081D03*
X0119759Y0046248D03*
X0119759Y0045582D03*
X0119759Y0044748D03*
X0119759Y0044415D03*
X0119759Y0044082D03*
X0119759Y0043582D03*
X0119759Y0042915D03*
X0119759Y0042082D03*
X0119759Y0041749D03*
X0119759Y0041416D03*
X0122592Y0042915D03*
X0122425Y0043582D03*
X0122425Y0044082D03*
X0122425Y0044415D03*
X0122425Y0044748D03*
X0122425Y0045582D03*
X0122425Y0046248D03*
X0122425Y0047081D03*
X0122425Y0047415D03*
X0122425Y0047748D03*
X0122425Y0048248D03*
X0127924Y0048248D03*
X0127924Y0047748D03*
X0127924Y0047415D03*
X0127924Y0047081D03*
X0127924Y0046248D03*
X0127924Y0045582D03*
X0127924Y0044748D03*
X0127924Y0044415D03*
X0127924Y0044082D03*
X0127924Y0043582D03*
X0127758Y0042915D03*
X0125258Y0041749D03*
X0134090Y0041749D03*
X0134090Y0042082D03*
X0134090Y0041416D03*
X0134090Y0042915D03*
X0134090Y0043582D03*
X0134090Y0044082D03*
X0134090Y0044415D03*
X0134090Y0045582D03*
X0134090Y0046248D03*
X0134090Y0047081D03*
X0134090Y0047415D03*
X0134090Y0047748D03*
X0136256Y0043582D03*
X0139423Y0045582D03*
X0140756Y0043582D03*
X0140090Y0042082D03*
X0144089Y0042082D03*
X0144089Y0041749D03*
X0144089Y0042915D03*
X0144089Y0043582D03*
X0144089Y0044082D03*
X0144089Y0044415D03*
X0144089Y0045582D03*
X0147089Y0045582D03*
X0147089Y0044748D03*
X0147089Y0044415D03*
X0147089Y0044082D03*
X0147089Y0043582D03*
X0147089Y0042915D03*
X0147089Y0042082D03*
X0147089Y0041749D03*
X0150088Y0041749D03*
X0152755Y0042082D03*
X0153421Y0043582D03*
X0155754Y0042082D03*
X0161753Y0042082D03*
X0161753Y0041749D03*
X0161753Y0042915D03*
X0161753Y0043582D03*
X0161753Y0044082D03*
X0161753Y0044415D03*
X0161753Y0044748D03*
X0161753Y0045582D03*
X0161753Y0046248D03*
X0161753Y0047081D03*
X0161753Y0047415D03*
X0161753Y0047748D03*
X0161753Y0048248D03*
X0167753Y0044082D03*
X0167253Y0042082D03*
X0147089Y0047081D03*
X0147089Y0047415D03*
X0116926Y0044748D03*
X0116426Y0044082D03*
X0115593Y0042915D03*
X0108427Y0048248D03*
D35*
X0125175Y0041249D03*
D36*
X0106344Y0041249D03*
D37*
X0094595Y0041249D03*
X0151255Y0045748D03*
D38*
X0151171Y0046082D03*
X0151171Y0041249D03*
X0140506Y0042582D03*
X0140506Y0042749D03*
X0140506Y0044582D03*
X0136340Y0043415D03*
X0136340Y0043082D03*
X0090512Y0043415D03*
X0056683Y0043915D03*
X0056683Y0045248D03*
D39*
X0125175Y0041416D03*
D40*
X0132007Y0048248D03*
X0106344Y0041416D03*
D41*
X0094262Y0041416D03*
D42*
X0056517Y0051248D03*
X0138506Y0041416D03*
X0165670Y0041416D03*
D43*
X0157087Y0041416D03*
X0092262Y0041749D03*
D44*
X0151171Y0041416D03*
D45*
X0147089Y0041582D03*
X0147089Y0044248D03*
X0144089Y0044248D03*
X0144089Y0041582D03*
X0134090Y0041582D03*
X0134090Y0044248D03*
X0134090Y0047581D03*
X0127924Y0047581D03*
X0127924Y0048415D03*
X0127924Y0044248D03*
X0122425Y0044248D03*
X0119759Y0044248D03*
X0119759Y0041582D03*
X0116592Y0044248D03*
X0114426Y0044248D03*
X0114426Y0047581D03*
X0114426Y0048415D03*
X0119759Y0048415D03*
X0122425Y0048415D03*
X0122425Y0047581D03*
X0108427Y0047581D03*
X0108427Y0048415D03*
X0108427Y0044248D03*
X0100261Y0044248D03*
X0100261Y0041582D03*
X0095762Y0044248D03*
X0095762Y0047581D03*
X0091429Y0047581D03*
X0100261Y0047581D03*
X0161753Y0047581D03*
X0161753Y0044248D03*
D46*
X0125175Y0041582D03*
D47*
X0114509Y0041582D03*
D48*
X0106344Y0041582D03*
X0132007Y0048415D03*
D49*
X0094012Y0041582D03*
D50*
X0165670Y0041582D03*
D51*
X0167669Y0044248D03*
X0161670Y0041582D03*
X0159337Y0044248D03*
X0155504Y0044248D03*
X0153338Y0044248D03*
X0140673Y0044248D03*
X0090346Y0044248D03*
D52*
X0151171Y0041582D03*
X0157337Y0041582D03*
D53*
X0138590Y0041582D03*
D54*
X0126341Y0041749D03*
D55*
X0124008Y0041749D03*
X0119342Y0047415D03*
D56*
X0114593Y0041749D03*
X0127091Y0042082D03*
X0139590Y0041749D03*
D57*
X0137423Y0041749D03*
X0137423Y0045582D03*
X0152255Y0045582D03*
X0152255Y0041749D03*
X0166753Y0041749D03*
X0123258Y0042082D03*
D58*
X0143006Y0045582D03*
X0150172Y0045582D03*
X0156337Y0045582D03*
X0164670Y0045582D03*
X0164670Y0041749D03*
X0051184Y0055414D03*
D59*
X0091679Y0047748D03*
X0091679Y0042082D03*
X0116676Y0044415D03*
X0119675Y0048248D03*
X0144006Y0044748D03*
X0158337Y0041749D03*
X0166669Y0045582D03*
D60*
X0106094Y0041749D03*
D61*
X0094345Y0041749D03*
X0056350Y0055414D03*
D62*
X0055850Y0053914D03*
X0090346Y0045582D03*
X0090346Y0044415D03*
X0090346Y0044082D03*
X0136507Y0044748D03*
X0140673Y0044415D03*
X0140673Y0044082D03*
X0140673Y0042915D03*
X0146172Y0045582D03*
X0149672Y0042082D03*
X0153338Y0042915D03*
X0153338Y0044082D03*
X0153338Y0044415D03*
X0153171Y0044748D03*
X0155504Y0044415D03*
X0155671Y0044748D03*
X0157337Y0041749D03*
X0159337Y0042915D03*
X0159337Y0044082D03*
X0159337Y0044415D03*
X0159170Y0044748D03*
X0158504Y0045582D03*
X0163837Y0044415D03*
X0164003Y0044748D03*
X0164170Y0042082D03*
X0165670Y0041749D03*
X0167669Y0042915D03*
X0167669Y0044415D03*
X0167503Y0044748D03*
D63*
X0142506Y0045748D03*
X0126841Y0041915D03*
X0123508Y0041915D03*
X0055850Y0045248D03*
D64*
X0114593Y0041915D03*
X0146089Y0046082D03*
X0157921Y0043915D03*
D65*
X0143922Y0044915D03*
X0119592Y0047915D03*
X0119592Y0048081D03*
X0091929Y0047915D03*
X0091929Y0041915D03*
D66*
X0057267Y0043749D03*
X0152921Y0042249D03*
X0155921Y0041915D03*
X0164253Y0041915D03*
D67*
X0119509Y0047748D03*
X0114676Y0042082D03*
X0056683Y0053081D03*
D68*
X0116093Y0043582D03*
X0136923Y0042082D03*
X0158920Y0042082D03*
D69*
X0166586Y0043915D03*
X0114759Y0042249D03*
X0092262Y0048081D03*
D70*
X0090762Y0046748D03*
X0090262Y0045082D03*
X0090596Y0043249D03*
X0091262Y0042415D03*
X0095762Y0042415D03*
X0095762Y0043249D03*
X0095762Y0045082D03*
X0095762Y0045915D03*
X0095762Y0046748D03*
X0100261Y0046748D03*
X0100261Y0045915D03*
X0100261Y0045082D03*
X0100261Y0043249D03*
X0100261Y0042415D03*
X0108427Y0042415D03*
X0108427Y0043249D03*
X0108427Y0045082D03*
X0108427Y0045915D03*
X0108427Y0046748D03*
X0114426Y0046748D03*
X0114426Y0045915D03*
X0114426Y0045082D03*
X0114426Y0043249D03*
X0117259Y0045082D03*
X0119759Y0045082D03*
X0119759Y0045915D03*
X0119759Y0046748D03*
X0122425Y0046748D03*
X0122425Y0045915D03*
X0122425Y0045082D03*
X0122592Y0043249D03*
X0122925Y0042415D03*
X0119759Y0042415D03*
X0119759Y0043249D03*
X0127758Y0043249D03*
X0127924Y0045082D03*
X0127924Y0045915D03*
X0127924Y0046748D03*
X0134090Y0046748D03*
X0134090Y0045915D03*
X0134090Y0043249D03*
X0134090Y0042415D03*
X0136756Y0045082D03*
X0140256Y0045082D03*
X0140423Y0042415D03*
X0144089Y0042415D03*
X0144089Y0043249D03*
X0144089Y0045915D03*
X0147089Y0046748D03*
X0147089Y0045082D03*
X0147089Y0043249D03*
X0147089Y0042415D03*
X0161753Y0042415D03*
X0161753Y0043249D03*
X0161753Y0045082D03*
X0161753Y0045915D03*
X0161753Y0046748D03*
X0167253Y0045082D03*
X0056933Y0049248D03*
D71*
X0056100Y0049248D03*
X0127424Y0042415D03*
X0152921Y0045082D03*
D72*
X0114843Y0042415D03*
D73*
X0057267Y0052747D03*
X0057267Y0053581D03*
X0055600Y0052747D03*
X0054267Y0053581D03*
X0051434Y0053581D03*
X0055433Y0049248D03*
X0055433Y0045082D03*
X0055433Y0042415D03*
D74*
X0090512Y0043582D03*
X0090512Y0046248D03*
X0136340Y0044415D03*
X0136340Y0044082D03*
X0136340Y0042915D03*
X0140506Y0044748D03*
X0147005Y0046248D03*
X0151171Y0045582D03*
D75*
X0115843Y0043249D03*
D76*
X0136340Y0043249D03*
X0159504Y0043249D03*
X0167836Y0043249D03*
D77*
X0165503Y0043415D03*
D78*
X0157421Y0043415D03*
D79*
X0157504Y0043582D03*
X0165836Y0043582D03*
D80*
X0144006Y0044582D03*
X0118009Y0046082D03*
X0117342Y0045248D03*
X0116176Y0043749D03*
D81*
X0157421Y0043749D03*
X0165753Y0043749D03*
D82*
X0136340Y0044248D03*
D83*
X0132840Y0044748D03*
D84*
X0132840Y0044915D03*
D85*
X0132840Y0045082D03*
X0147005Y0045915D03*
D86*
X0143922Y0045082D03*
X0142422Y0045915D03*
D87*
X0056517Y0045082D03*
D88*
X0132591Y0045248D03*
X0138590Y0045748D03*
D89*
X0165836Y0045748D03*
D90*
X0157421Y0045748D03*
D91*
X0147089Y0045748D03*
D92*
X0118509Y0046748D03*
X0117842Y0045915D03*
D93*
X0165586Y0045915D03*
D94*
X0157421Y0045915D03*
D95*
X0151171Y0045915D03*
D96*
X0138506Y0045915D03*
X0056183Y0053581D03*
D97*
X0147589Y0046082D03*
D98*
X0119425Y0047581D03*
D99*
X0147089Y0047581D03*
X0161754Y0048415D03*
X0052434Y0055247D03*
D100*
X0132007Y0048081D03*
D101*
X0101844Y0048081D03*
X0098678Y0048081D03*
D102*
X0094345Y0048081D03*
X0056350Y0049415D03*
X0056350Y0053747D03*
D103*
X0100178Y0048248D03*
D104*
X0094012Y0048248D03*
D105*
X0100261Y0048415D03*
D106*
X0094262Y0048415D03*
D107*
X0131924Y0048581D03*
D108*
X0100261Y0048581D03*
D109*
X0094595Y0048581D03*
D110*
X0056517Y0052914D03*
D111*
X0056350Y0055247D03*
D112*
X0052767Y0055414D03*
D113*
X0056517Y0053747D03*
X0056683Y0053914D03*
D114*
X0110253Y0097250D03*
X0110253Y0144395D03*
D115*
X0110253Y0097497D03*
D116*
X0110253Y0097744D03*
X0110253Y0143902D03*
D117*
X0110253Y0097991D03*
D118*
X0110253Y0098237D03*
D119*
X0110253Y0098484D03*
X0110253Y0143161D03*
D120*
X0110253Y0098731D03*
D121*
X0110253Y0098978D03*
X0110253Y0142668D03*
D122*
X0110253Y0099225D03*
D123*
X0110253Y0099472D03*
D124*
X0110253Y0099718D03*
X0110253Y0141927D03*
D125*
X0110253Y0141680D03*
X0110253Y0099965D03*
D126*
X0110253Y0100212D03*
X0110253Y0141433D03*
D127*
X0110253Y0100459D03*
D128*
X0110253Y0100706D03*
X0110253Y0140940D03*
D129*
X0110253Y0100953D03*
D130*
X0110253Y0101199D03*
D131*
X0133826Y0101446D03*
X0134073Y0101940D03*
D132*
X0095937Y0101446D03*
D133*
X0134073Y0101693D03*
D134*
X0095813Y0101693D03*
D135*
X0095813Y0101940D03*
D136*
X0134196Y0102187D03*
D137*
X0095690Y0102187D03*
D138*
X0124570Y0139459D03*
X0124570Y0139952D03*
X0124570Y0140446D03*
X0145304Y0139952D03*
X0145551Y0102434D03*
D139*
X0141848Y0102434D03*
X0140367Y0102434D03*
X0136171Y0102927D03*
X0136171Y0104161D03*
X0134690Y0104161D03*
X0134690Y0102927D03*
X0133209Y0108358D03*
X0133949Y0110332D03*
X0135184Y0109592D03*
X0137899Y0110332D03*
X0139133Y0109592D03*
X0141108Y0108358D03*
X0141848Y0110332D03*
X0133209Y0118231D03*
X0133209Y0118725D03*
X0133703Y0119465D03*
X0127285Y0110332D03*
X0127285Y0108358D03*
X0126051Y0104161D03*
X0121855Y0102927D03*
X0118646Y0102927D03*
X0118646Y0104161D03*
X0117165Y0104161D03*
X0114203Y0102434D03*
X0111488Y0104161D03*
X0108772Y0108358D03*
X0108772Y0110332D03*
X0105810Y0109592D03*
X0105810Y0109098D03*
X0105810Y0108358D03*
X0113709Y0110332D03*
X0090013Y0110332D03*
X0088532Y0109592D03*
X0088532Y0109098D03*
X0088532Y0108358D03*
X0090013Y0108358D03*
X0087051Y0109592D03*
X0127038Y0136990D03*
X0127038Y0137484D03*
X0136665Y0137484D03*
X0136665Y0136990D03*
X0138639Y0136250D03*
X0138639Y0135756D03*
X0141108Y0136250D03*
X0141108Y0136990D03*
D140*
X0140984Y0135756D03*
X0139750Y0138718D03*
X0136541Y0136250D03*
X0131851Y0136250D03*
X0126915Y0136250D03*
X0122225Y0136250D03*
X0122225Y0137484D03*
X0138022Y0117490D03*
X0140984Y0118231D03*
X0140244Y0110332D03*
X0139009Y0109098D03*
X0136294Y0110332D03*
X0135060Y0109098D03*
X0132345Y0110332D03*
X0129877Y0108358D03*
X0128643Y0109592D03*
X0124446Y0109592D03*
X0122965Y0108358D03*
X0120003Y0108358D03*
X0118522Y0109098D03*
X0118522Y0109592D03*
X0120497Y0104161D03*
X0120497Y0102434D03*
X0117288Y0102434D03*
X0116794Y0103668D03*
X0115807Y0104161D03*
X0115807Y0102927D03*
X0111364Y0103668D03*
X0111858Y0108358D03*
X0111858Y0109098D03*
X0111858Y0109592D03*
X0110377Y0109592D03*
X0110377Y0109098D03*
X0110377Y0110332D03*
X0105934Y0110332D03*
X0097294Y0108358D03*
X0095567Y0108358D03*
X0092852Y0108358D03*
X0091370Y0109098D03*
X0091370Y0109592D03*
X0086928Y0109098D03*
X0086928Y0108358D03*
X0126174Y0103668D03*
X0126174Y0102927D03*
X0126174Y0102434D03*
X0127655Y0102434D03*
X0135801Y0102434D03*
X0138763Y0103668D03*
X0139009Y0102434D03*
X0140984Y0105396D03*
D141*
X0141108Y0104161D03*
X0141848Y0103668D03*
X0140120Y0104161D03*
X0137158Y0102434D03*
X0134196Y0102434D03*
X0133949Y0109098D03*
X0133949Y0109592D03*
X0135184Y0110332D03*
X0137899Y0109098D03*
X0139133Y0110332D03*
X0141108Y0109098D03*
X0141848Y0109098D03*
X0131481Y0117490D03*
X0118152Y0108358D03*
X0107785Y0110332D03*
X0087545Y0110332D03*
X0139873Y0137484D03*
X0141355Y0138718D03*
D142*
X0136418Y0135756D03*
X0129506Y0136250D03*
X0126791Y0135756D03*
X0122348Y0135756D03*
X0122348Y0136990D03*
X0122842Y0110332D03*
X0116671Y0109592D03*
X0116671Y0109098D03*
X0114943Y0109098D03*
X0114943Y0109592D03*
X0111488Y0102927D03*
X0111488Y0102434D03*
X0092728Y0110332D03*
X0132962Y0102434D03*
X0134690Y0103668D03*
D143*
X0129753Y0102434D03*
X0123829Y0104161D03*
X0123829Y0109098D03*
X0128025Y0109098D03*
X0103589Y0109098D03*
X0103589Y0109592D03*
X0103589Y0110332D03*
X0096184Y0110332D03*
X0093716Y0109592D03*
X0093716Y0109098D03*
D144*
X0120744Y0109098D03*
X0120744Y0109592D03*
X0123953Y0102434D03*
X0133085Y0116256D03*
X0140491Y0116256D03*
D145*
X0119139Y0102434D03*
D146*
X0120250Y0102927D03*
X0120250Y0103668D03*
X0117288Y0102927D03*
X0115313Y0102434D03*
X0114326Y0102927D03*
X0114326Y0103668D03*
X0114326Y0104161D03*
X0116054Y0110332D03*
X0118276Y0110332D03*
X0120250Y0110332D03*
X0122965Y0109592D03*
X0125927Y0109592D03*
X0125927Y0109098D03*
X0127161Y0109592D03*
X0132345Y0109592D03*
X0133085Y0109098D03*
X0136294Y0109592D03*
X0137035Y0109098D03*
X0138022Y0109592D03*
X0140244Y0109592D03*
X0141972Y0109592D03*
X0140244Y0103668D03*
X0140244Y0102927D03*
X0139009Y0102927D03*
X0139009Y0104161D03*
X0136294Y0103668D03*
X0133085Y0103668D03*
X0133085Y0104161D03*
X0133085Y0102927D03*
X0127655Y0102927D03*
X0127655Y0103668D03*
X0127655Y0104161D03*
X0141725Y0102927D03*
X0111611Y0110332D03*
X0108896Y0109592D03*
X0108896Y0109098D03*
X0102725Y0108358D03*
X0089889Y0109098D03*
X0089889Y0109592D03*
X0131851Y0136990D03*
X0131851Y0137484D03*
X0138516Y0137484D03*
X0138516Y0136990D03*
X0141231Y0137484D03*
D147*
X0137158Y0108358D03*
X0137652Y0102927D03*
X0131481Y0108358D03*
X0112969Y0104161D03*
X0112969Y0103668D03*
X0112969Y0102927D03*
X0112969Y0102434D03*
D148*
X0091247Y0102434D03*
D149*
X0145674Y0102680D03*
X0145427Y0139212D03*
D150*
X0141108Y0136744D03*
X0141108Y0136497D03*
X0139873Y0138471D03*
X0138639Y0136497D03*
X0138639Y0136003D03*
X0136665Y0136744D03*
X0136665Y0137237D03*
X0136665Y0137731D03*
X0131728Y0137731D03*
X0131728Y0136744D03*
X0131728Y0136497D03*
X0129506Y0136003D03*
X0127038Y0136744D03*
X0127038Y0137237D03*
X0127038Y0137731D03*
X0124570Y0138471D03*
X0133456Y0119218D03*
X0133456Y0118971D03*
X0133209Y0118478D03*
X0133949Y0110085D03*
X0133949Y0109839D03*
X0135184Y0109345D03*
X0136171Y0110085D03*
X0137899Y0110085D03*
X0137899Y0109839D03*
X0139133Y0109345D03*
X0140120Y0110085D03*
X0141848Y0110085D03*
X0141848Y0109839D03*
X0141108Y0108604D03*
X0141108Y0105149D03*
X0141108Y0104655D03*
X0141848Y0102680D03*
X0140367Y0102680D03*
X0139133Y0102680D03*
X0138886Y0104655D03*
X0136171Y0104408D03*
X0136171Y0103915D03*
X0136171Y0103174D03*
X0132962Y0102680D03*
X0132962Y0104408D03*
X0133209Y0108604D03*
X0132221Y0110085D03*
X0128519Y0108604D03*
X0125804Y0108604D03*
X0125804Y0108851D03*
X0125804Y0109839D03*
X0125804Y0110085D03*
X0124323Y0108604D03*
X0122842Y0108604D03*
X0121361Y0108604D03*
X0119880Y0108604D03*
X0119880Y0108851D03*
X0119880Y0109839D03*
X0118399Y0110085D03*
X0118399Y0108604D03*
X0117165Y0104408D03*
X0117165Y0102680D03*
X0114203Y0102680D03*
X0114449Y0104408D03*
X0111488Y0103915D03*
X0108772Y0108111D03*
X0107785Y0110579D03*
X0105810Y0110085D03*
X0105810Y0109839D03*
X0105810Y0109345D03*
X0105810Y0108851D03*
X0105810Y0108604D03*
X0102848Y0108604D03*
X0100380Y0111073D03*
X0097171Y0108604D03*
X0094209Y0108604D03*
X0092728Y0108604D03*
X0092728Y0110085D03*
X0090013Y0110085D03*
X0090013Y0108604D03*
X0088532Y0108604D03*
X0088532Y0108851D03*
X0088532Y0109345D03*
X0088532Y0109839D03*
X0087051Y0109839D03*
X0111734Y0110085D03*
X0111734Y0110579D03*
X0114943Y0108604D03*
X0120373Y0103915D03*
X0120373Y0102680D03*
X0127779Y0104655D03*
X0122842Y0110085D03*
D151*
X0122965Y0109839D03*
X0122965Y0109345D03*
X0122965Y0108851D03*
X0121484Y0110085D03*
X0120003Y0110085D03*
X0117288Y0110579D03*
X0114820Y0110085D03*
X0118029Y0108111D03*
X0114326Y0103915D03*
X0114326Y0103421D03*
X0114326Y0103174D03*
X0115560Y0103421D03*
X0117041Y0103421D03*
X0117288Y0103174D03*
X0120250Y0103174D03*
X0120250Y0103421D03*
X0127655Y0103421D03*
X0127655Y0103174D03*
X0127655Y0102680D03*
X0127655Y0103915D03*
X0127655Y0104408D03*
X0127161Y0108604D03*
X0127161Y0109345D03*
X0127161Y0109839D03*
X0127161Y0110085D03*
X0125927Y0109345D03*
X0124446Y0110085D03*
X0128643Y0110085D03*
X0132345Y0109839D03*
X0132345Y0109345D03*
X0133085Y0108851D03*
X0135060Y0109839D03*
X0135060Y0110579D03*
X0136294Y0109839D03*
X0136294Y0109345D03*
X0137035Y0108851D03*
X0139009Y0109839D03*
X0139009Y0110579D03*
X0140244Y0109839D03*
X0140244Y0109345D03*
X0140984Y0108851D03*
X0140984Y0104408D03*
X0140244Y0103421D03*
X0140244Y0103174D03*
X0139009Y0103174D03*
X0139009Y0103421D03*
X0139009Y0104408D03*
X0136294Y0103421D03*
X0136048Y0102680D03*
X0133085Y0103174D03*
X0133085Y0103421D03*
X0133085Y0103915D03*
X0110377Y0108604D03*
X0109883Y0108111D03*
X0108896Y0108604D03*
X0108896Y0108851D03*
X0108896Y0109345D03*
X0108896Y0109839D03*
X0108896Y0110085D03*
X0100257Y0111320D03*
X0092852Y0109839D03*
X0092852Y0108851D03*
X0091370Y0108604D03*
X0091370Y0110085D03*
X0089889Y0109839D03*
X0089889Y0109345D03*
X0089889Y0108851D03*
X0128643Y0135262D03*
X0128643Y0138965D03*
X0131851Y0137237D03*
X0138516Y0137237D03*
X0138516Y0136744D03*
X0139750Y0137731D03*
X0139750Y0137978D03*
X0141231Y0137978D03*
X0141231Y0137731D03*
X0141231Y0137237D03*
D152*
X0134073Y0137237D03*
X0126668Y0135262D03*
X0140491Y0120206D03*
X0140491Y0119712D03*
X0138516Y0118478D03*
X0140491Y0116750D03*
X0135307Y0117244D03*
X0135554Y0118478D03*
X0122965Y0110579D03*
X0124200Y0104655D03*
X0123953Y0102680D03*
X0129630Y0102680D03*
X0129630Y0104408D03*
X0116548Y0108111D03*
D153*
X0114820Y0108851D03*
X0114820Y0109839D03*
X0111858Y0109839D03*
X0111858Y0109345D03*
X0111858Y0108851D03*
X0111858Y0108604D03*
X0110377Y0108851D03*
X0110377Y0109345D03*
X0110377Y0109839D03*
X0110377Y0110085D03*
X0108896Y0110579D03*
X0102725Y0108111D03*
X0095813Y0108604D03*
X0094333Y0109839D03*
X0091370Y0109839D03*
X0091370Y0108851D03*
X0087421Y0110579D03*
X0086928Y0109345D03*
X0086928Y0108851D03*
X0086928Y0108604D03*
X0086928Y0108111D03*
X0114326Y0104655D03*
X0115807Y0103174D03*
X0121978Y0105149D03*
X0126174Y0103915D03*
X0126174Y0103421D03*
X0126174Y0103174D03*
X0126174Y0102680D03*
X0132839Y0104655D03*
X0130124Y0108604D03*
X0128643Y0109839D03*
X0124446Y0109839D03*
X0121484Y0109839D03*
X0118522Y0109839D03*
X0118522Y0109345D03*
X0118522Y0108851D03*
X0118276Y0110579D03*
X0133826Y0119712D03*
X0135554Y0119218D03*
X0135554Y0116750D03*
X0138022Y0117244D03*
X0140984Y0135509D03*
X0140984Y0136003D03*
X0139750Y0138965D03*
X0136541Y0137978D03*
X0136541Y0136497D03*
X0136541Y0136003D03*
X0131851Y0136003D03*
X0131851Y0137978D03*
X0128889Y0139212D03*
X0126915Y0137978D03*
X0126915Y0136497D03*
X0126915Y0136003D03*
X0122225Y0136003D03*
X0122225Y0137237D03*
X0122225Y0137731D03*
X0122225Y0137978D03*
D154*
X0113462Y0110085D03*
X0113462Y0108604D03*
X0112969Y0104655D03*
X0112969Y0104408D03*
X0112969Y0103915D03*
X0112969Y0103421D03*
X0112969Y0103174D03*
X0112969Y0102680D03*
X0107291Y0109839D03*
X0088779Y0110579D03*
X0131481Y0108604D03*
X0137158Y0108604D03*
X0137652Y0103174D03*
D155*
X0136171Y0104655D03*
X0134690Y0103915D03*
X0134690Y0103421D03*
X0134690Y0103174D03*
X0133209Y0108111D03*
X0135184Y0108604D03*
X0135184Y0108851D03*
X0133949Y0110579D03*
X0139133Y0108851D03*
X0139133Y0108604D03*
X0141108Y0108111D03*
X0141108Y0105642D03*
X0141848Y0110579D03*
X0140861Y0117737D03*
X0140861Y0117984D03*
X0140861Y0120699D03*
X0138145Y0118971D03*
X0138145Y0117737D03*
X0133209Y0117984D03*
X0127532Y0110579D03*
X0127285Y0108111D03*
X0121361Y0108851D03*
X0120373Y0110579D03*
X0116671Y0109839D03*
X0116671Y0109345D03*
X0116671Y0108851D03*
X0116671Y0108604D03*
X0114943Y0109345D03*
X0115931Y0110579D03*
X0111734Y0108111D03*
X0111488Y0103421D03*
X0111488Y0103174D03*
X0111488Y0102680D03*
X0117165Y0104655D03*
X0121855Y0103174D03*
X0105810Y0108111D03*
X0104082Y0111073D03*
X0098899Y0108851D03*
X0094209Y0108851D03*
X0091247Y0109345D03*
X0122348Y0138471D03*
X0126791Y0138471D03*
X0134196Y0136003D03*
X0136418Y0138471D03*
X0138639Y0135509D03*
X0138639Y0135262D03*
X0140861Y0135262D03*
X0139873Y0139212D03*
D156*
X0091124Y0102680D03*
D157*
X0145798Y0102927D03*
D158*
X0137775Y0104161D03*
X0131605Y0104161D03*
X0131605Y0102927D03*
X0125681Y0108358D03*
X0125681Y0110332D03*
X0131358Y0118231D03*
X0131358Y0118725D03*
X0107415Y0109592D03*
X0107415Y0109098D03*
X0107415Y0108358D03*
D159*
X0098652Y0109592D03*
X0096431Y0109098D03*
X0124076Y0102927D03*
X0129506Y0102927D03*
X0129506Y0103668D03*
X0129506Y0104161D03*
X0135677Y0118725D03*
X0138392Y0118231D03*
X0129506Y0136990D03*
X0129506Y0137484D03*
D160*
X0091000Y0102927D03*
D161*
X0108526Y0111320D03*
X0115931Y0111320D03*
X0115931Y0111073D03*
X0145798Y0103421D03*
X0145798Y0103174D03*
X0145551Y0138965D03*
X0124570Y0140693D03*
D162*
X0128519Y0135509D03*
X0134196Y0138471D03*
X0138392Y0138471D03*
X0138392Y0137978D03*
X0138392Y0137731D03*
X0141355Y0138471D03*
X0141355Y0138965D03*
X0139133Y0110085D03*
X0137899Y0109345D03*
X0137158Y0109345D03*
X0135184Y0110085D03*
X0133949Y0109345D03*
X0133209Y0109345D03*
X0134196Y0104655D03*
X0137652Y0104408D03*
X0140120Y0104408D03*
X0140120Y0103915D03*
X0141108Y0103915D03*
X0141848Y0103915D03*
X0141848Y0103421D03*
X0141848Y0103174D03*
X0141848Y0109345D03*
X0141108Y0109345D03*
X0126544Y0104655D03*
X0115684Y0104408D03*
X0111981Y0104655D03*
X0116177Y0110085D03*
X0107291Y0110085D03*
X0094209Y0110085D03*
X0088532Y0110085D03*
D163*
X0130370Y0103174D03*
X0131851Y0139212D03*
D164*
X0129506Y0137978D03*
X0129506Y0137731D03*
X0129506Y0137237D03*
X0129506Y0136744D03*
X0129506Y0136497D03*
X0126544Y0138965D03*
X0122595Y0138965D03*
X0122595Y0135262D03*
X0134196Y0136497D03*
X0134196Y0136744D03*
X0134196Y0137731D03*
X0134196Y0137978D03*
X0136171Y0138965D03*
X0139873Y0140199D03*
X0140614Y0117244D03*
X0132962Y0116750D03*
X0132962Y0116503D03*
X0135184Y0108111D03*
X0139133Y0108111D03*
X0129506Y0103915D03*
X0124076Y0103421D03*
X0124076Y0103174D03*
X0122842Y0108111D03*
X0098652Y0109839D03*
X0098652Y0110085D03*
X0096431Y0109345D03*
X0096431Y0108851D03*
X0096184Y0109839D03*
X0096184Y0110085D03*
X0092728Y0108111D03*
X0090260Y0110579D03*
D165*
X0088532Y0108111D03*
X0107291Y0108111D03*
X0118646Y0103915D03*
X0118646Y0103421D03*
X0118646Y0103174D03*
X0125557Y0108111D03*
X0137158Y0108111D03*
X0137899Y0110579D03*
X0137899Y0119218D03*
D166*
X0091000Y0103421D03*
X0091000Y0103174D03*
D167*
X0113339Y0108851D03*
X0113339Y0109345D03*
X0113339Y0109839D03*
X0131358Y0117737D03*
X0131358Y0117984D03*
X0137282Y0103421D03*
D168*
X0129753Y0103421D03*
X0129753Y0104655D03*
X0128025Y0108851D03*
X0124076Y0104408D03*
X0121114Y0104655D03*
X0116424Y0103915D03*
X0103589Y0108851D03*
X0103589Y0109345D03*
X0103589Y0109839D03*
X0103589Y0110085D03*
X0103589Y0110579D03*
X0093716Y0109345D03*
X0092728Y0110579D03*
X0122842Y0139212D03*
X0135924Y0139212D03*
X0136171Y0135262D03*
D169*
X0136294Y0135509D03*
X0139750Y0139706D03*
X0126668Y0135509D03*
X0124446Y0136003D03*
X0122472Y0135509D03*
X0135554Y0118971D03*
X0138269Y0117984D03*
X0133085Y0117244D03*
X0132345Y0110579D03*
X0129877Y0108111D03*
X0124200Y0108851D03*
X0120003Y0108111D03*
X0120744Y0104408D03*
X0121978Y0103421D03*
X0110377Y0110579D03*
X0106181Y0110579D03*
X0104206Y0111320D03*
X0098776Y0110579D03*
X0098776Y0109345D03*
X0097541Y0108111D03*
X0090136Y0108111D03*
X0136294Y0110579D03*
X0140244Y0110579D03*
D170*
X0145921Y0104161D03*
X0145921Y0103668D03*
X0145674Y0138718D03*
D171*
X0123212Y0103668D03*
X0072611Y0117490D03*
X0072611Y0118231D03*
X0072611Y0118725D03*
X0072611Y0119465D03*
X0072611Y0120452D03*
X0072611Y0127117D03*
X0072611Y0127857D03*
X0072611Y0128351D03*
X0072611Y0129585D03*
X0072611Y0130326D03*
X0072611Y0130819D03*
D172*
X0113462Y0108358D03*
X0118646Y0103668D03*
X0137405Y0116256D03*
X0137652Y0119465D03*
D173*
X0090877Y0104161D03*
X0090877Y0103668D03*
D174*
X0145921Y0103915D03*
X0145674Y0138471D03*
D175*
X0131851Y0135509D03*
X0131358Y0119712D03*
X0137282Y0116009D03*
X0130864Y0108851D03*
X0138269Y0103915D03*
D176*
X0131605Y0103915D03*
X0131605Y0108111D03*
X0137529Y0116503D03*
X0137775Y0116750D03*
X0131358Y0118478D03*
X0107415Y0109345D03*
X0107415Y0108851D03*
X0107415Y0108604D03*
D177*
X0123582Y0103915D03*
D178*
X0090877Y0103915D03*
D179*
X0108772Y0111073D03*
X0122842Y0111073D03*
X0122842Y0111320D03*
X0146044Y0105642D03*
X0146044Y0105149D03*
X0146044Y0104655D03*
X0146044Y0104408D03*
X0145798Y0137731D03*
X0145798Y0137978D03*
D180*
X0090753Y0104408D03*
D181*
X0119139Y0104655D03*
D182*
X0090877Y0104655D03*
D183*
X0122842Y0110826D03*
X0146044Y0104902D03*
D184*
X0141108Y0104902D03*
X0139873Y0138225D03*
D185*
X0136665Y0104902D03*
D186*
X0128272Y0104902D03*
D187*
X0121855Y0104902D03*
X0132962Y0116997D03*
X0134196Y0138225D03*
X0129506Y0138225D03*
X0124570Y0138225D03*
X0098899Y0110826D03*
D188*
X0095937Y0104902D03*
D189*
X0136665Y0105149D03*
D190*
X0128272Y0105149D03*
D191*
X0095937Y0105149D03*
X0095937Y0136003D03*
X0095937Y0136497D03*
X0095937Y0136744D03*
X0095937Y0137237D03*
D192*
X0145798Y0137484D03*
X0146044Y0105396D03*
D193*
X0136788Y0105396D03*
D194*
X0130987Y0105396D03*
D195*
X0125557Y0105396D03*
X0145057Y0140446D03*
D196*
X0145921Y0136990D03*
X0145921Y0136250D03*
X0117288Y0105396D03*
D197*
X0092234Y0105396D03*
D198*
X0125434Y0105642D03*
X0136788Y0105642D03*
X0145181Y0140199D03*
D199*
X0130987Y0105642D03*
D200*
X0117411Y0105642D03*
D201*
X0092234Y0105642D03*
D202*
X0110253Y0105889D03*
X0110253Y0106383D03*
X0110253Y0106877D03*
X0110253Y0107370D03*
X0110253Y0107617D03*
X0110253Y0111813D03*
X0110253Y0112307D03*
X0110253Y0112554D03*
X0110253Y0113047D03*
X0110253Y0113541D03*
X0110253Y0123414D03*
X0110253Y0123908D03*
X0110253Y0134028D03*
X0110253Y0134275D03*
X0110253Y0134769D03*
D203*
X0110253Y0134522D03*
X0110253Y0123661D03*
X0110253Y0113294D03*
X0110253Y0112801D03*
X0110253Y0112060D03*
X0110253Y0107123D03*
X0110253Y0106630D03*
X0110253Y0106136D03*
D204*
X0110253Y0107864D03*
X0110253Y0135016D03*
D205*
X0145921Y0125142D03*
X0145921Y0108111D03*
D206*
X0137529Y0119712D03*
X0131358Y0119218D03*
X0131358Y0118971D03*
X0125434Y0110579D03*
X0113832Y0110579D03*
X0113586Y0108111D03*
X0095567Y0108111D03*
X0131851Y0138471D03*
D207*
X0124570Y0137978D03*
X0124570Y0137731D03*
X0130494Y0110085D03*
X0130494Y0109839D03*
X0130741Y0109345D03*
X0100874Y0109345D03*
X0100874Y0109839D03*
X0100874Y0110085D03*
X0100874Y0110579D03*
X0100874Y0108851D03*
X0100874Y0108604D03*
X0100874Y0108111D03*
D208*
X0078412Y0108111D03*
X0078412Y0108604D03*
X0078412Y0108851D03*
X0078412Y0109345D03*
X0078412Y0109839D03*
X0078412Y0110085D03*
D209*
X0145921Y0108358D03*
X0145921Y0132794D03*
D210*
X0139750Y0139459D03*
X0139750Y0139952D03*
X0136294Y0138718D03*
X0134073Y0136250D03*
X0126668Y0138718D03*
X0122472Y0138718D03*
X0138269Y0118725D03*
X0140737Y0117490D03*
X0139009Y0108358D03*
X0135060Y0108358D03*
X0116548Y0108358D03*
X0098776Y0109098D03*
X0098776Y0110332D03*
X0096307Y0109592D03*
D211*
X0100874Y0109592D03*
X0100874Y0109098D03*
X0100874Y0108358D03*
X0100874Y0110332D03*
X0130741Y0109592D03*
X0130741Y0109098D03*
D212*
X0078412Y0109098D03*
X0078412Y0109592D03*
X0078412Y0110332D03*
X0078412Y0108358D03*
D213*
X0146044Y0108604D03*
X0146044Y0108851D03*
X0146044Y0116009D03*
X0146044Y0121440D03*
X0146044Y0125636D03*
X0146044Y0132300D03*
X0146044Y0132547D03*
X0146044Y0135262D03*
X0146044Y0135509D03*
D214*
X0146044Y0135756D03*
X0146044Y0125389D03*
X0146044Y0109098D03*
D215*
X0113339Y0109098D03*
X0113339Y0109592D03*
D216*
X0146168Y0109839D03*
X0146168Y0109345D03*
X0146168Y0110579D03*
X0146168Y0116503D03*
X0146168Y0116750D03*
X0146168Y0117244D03*
X0146168Y0117737D03*
X0146168Y0117984D03*
X0146168Y0118478D03*
X0146168Y0118971D03*
X0146168Y0119218D03*
X0146168Y0119712D03*
X0146168Y0120206D03*
X0146168Y0120699D03*
X0146168Y0120946D03*
X0146168Y0125883D03*
X0146168Y0126376D03*
X0146168Y0131313D03*
X0146168Y0131807D03*
D217*
X0139750Y0140693D03*
X0140491Y0116503D03*
X0120744Y0109345D03*
D218*
X0146168Y0109592D03*
X0146168Y0116256D03*
X0146168Y0117490D03*
X0146168Y0118231D03*
X0146168Y0118725D03*
X0146168Y0119465D03*
X0146168Y0120452D03*
X0146168Y0121193D03*
X0146168Y0126623D03*
X0146168Y0131560D03*
D219*
X0146291Y0131066D03*
X0146291Y0130573D03*
X0146291Y0130079D03*
X0146291Y0129832D03*
X0146291Y0129338D03*
X0146291Y0128845D03*
X0146291Y0128598D03*
X0146291Y0128104D03*
X0146291Y0127611D03*
X0146291Y0127364D03*
X0146291Y0126870D03*
X0146291Y0110085D03*
D220*
X0146291Y0110332D03*
X0146291Y0127117D03*
X0146291Y0127857D03*
X0146291Y0128351D03*
X0146291Y0129585D03*
X0146291Y0130326D03*
X0146291Y0130819D03*
D221*
X0124446Y0136250D03*
X0130370Y0110332D03*
D222*
X0130123Y0110579D03*
X0131851Y0135262D03*
X0131851Y0138965D03*
D223*
X0095937Y0110579D03*
D224*
X0078658Y0110579D03*
D225*
X0138269Y0110826D03*
D226*
X0115931Y0110826D03*
D227*
X0108896Y0110826D03*
D228*
X0103589Y0110826D03*
X0140367Y0119959D03*
D229*
X0137405Y0119959D03*
X0100874Y0110826D03*
D230*
X0084089Y0110826D03*
D231*
X0127655Y0121440D03*
X0138269Y0111073D03*
D232*
X0084212Y0111073D03*
D233*
X0138145Y0111320D03*
D234*
X0084336Y0111320D03*
D235*
X0138145Y0111566D03*
D236*
X0119386Y0111566D03*
D237*
X0091370Y0111566D03*
D238*
X0131851Y0113788D03*
D239*
X0073845Y0113788D03*
D240*
X0132345Y0114035D03*
X0132345Y0123168D03*
D241*
X0073352Y0124402D03*
X0073352Y0133535D03*
X0073352Y0114035D03*
D242*
X0132468Y0114282D03*
D243*
X0073228Y0114282D03*
X0073228Y0124649D03*
D244*
X0132592Y0114528D03*
D245*
X0073105Y0114528D03*
X0073105Y0124895D03*
D246*
X0132715Y0114775D03*
D247*
X0072981Y0114775D03*
X0072981Y0125142D03*
D248*
X0132839Y0115022D03*
D249*
X0072858Y0115022D03*
X0072858Y0125389D03*
D250*
X0132839Y0122180D03*
X0132839Y0121933D03*
X0132839Y0115269D03*
D251*
X0134567Y0117737D03*
X0072858Y0115269D03*
X0072858Y0121933D03*
X0072858Y0122180D03*
X0072858Y0125636D03*
X0072858Y0132300D03*
X0072858Y0132547D03*
D252*
X0132962Y0115516D03*
D253*
X0072734Y0115516D03*
X0072734Y0116009D03*
X0072734Y0120946D03*
X0072734Y0121440D03*
X0072734Y0125883D03*
X0072734Y0126376D03*
X0072734Y0131313D03*
X0072734Y0131807D03*
D254*
X0132962Y0121687D03*
X0132962Y0115763D03*
D255*
X0072734Y0115763D03*
X0072734Y0116256D03*
X0072734Y0121193D03*
X0072734Y0121687D03*
X0072734Y0126623D03*
X0072734Y0131560D03*
D256*
X0140491Y0116009D03*
D257*
X0133209Y0116009D03*
D258*
X0123706Y0116009D03*
D259*
X0123582Y0116256D03*
D260*
X0123582Y0116503D03*
X0123582Y0116750D03*
D261*
X0072611Y0116750D03*
X0072611Y0116503D03*
X0072611Y0117244D03*
X0072611Y0117737D03*
X0072611Y0117984D03*
X0072611Y0118478D03*
X0072611Y0118971D03*
X0072611Y0119218D03*
X0072611Y0119712D03*
X0072611Y0120206D03*
X0072611Y0120699D03*
X0072611Y0126870D03*
X0072611Y0127364D03*
X0072611Y0127611D03*
X0072611Y0128104D03*
X0072611Y0128598D03*
X0072611Y0128845D03*
X0072611Y0129338D03*
X0072611Y0129832D03*
X0072611Y0130079D03*
X0072611Y0130573D03*
X0072611Y0131066D03*
D262*
X0146168Y0132054D03*
X0146168Y0126130D03*
X0146168Y0119959D03*
X0146168Y0116997D03*
D263*
X0140614Y0116997D03*
X0135431Y0116997D03*
D264*
X0137775Y0116997D03*
D265*
X0123582Y0116997D03*
D266*
X0072611Y0116997D03*
X0072611Y0119959D03*
X0072611Y0129092D03*
D267*
X0123459Y0117244D03*
D268*
X0134443Y0117490D03*
X0072981Y0122427D03*
X0072981Y0132794D03*
D269*
X0123459Y0117490D03*
D270*
X0123336Y0117737D03*
X0123336Y0117984D03*
D271*
X0123212Y0118231D03*
X0123212Y0118725D03*
D272*
X0123212Y0118478D03*
D273*
X0123089Y0118971D03*
X0123089Y0119218D03*
D274*
X0134073Y0136990D03*
X0134073Y0137484D03*
X0139750Y0140446D03*
X0140491Y0120452D03*
X0140491Y0119465D03*
D275*
X0131358Y0119465D03*
X0131851Y0135756D03*
X0131851Y0138718D03*
D276*
X0123089Y0119465D03*
D277*
X0122965Y0119712D03*
D278*
X0133826Y0119959D03*
D279*
X0131358Y0119959D03*
D280*
X0123089Y0119959D03*
D281*
X0127408Y0120206D03*
X0127408Y0120699D03*
D282*
X0127408Y0120452D03*
D283*
X0127408Y0120946D03*
D284*
X0127532Y0121193D03*
D285*
X0132715Y0122427D03*
D286*
X0132592Y0122674D03*
D287*
X0073105Y0122674D03*
X0073105Y0133041D03*
D288*
X0132468Y0122921D03*
D289*
X0073228Y0122921D03*
D290*
X0073475Y0123168D03*
D291*
X0145180Y0124155D03*
D292*
X0073722Y0124155D03*
D293*
X0145551Y0124402D03*
X0145551Y0133535D03*
D294*
X0145674Y0124649D03*
D295*
X0145797Y0124895D03*
D296*
X0072734Y0126130D03*
X0072734Y0132054D03*
D297*
X0146291Y0129092D03*
D298*
X0145797Y0133041D03*
D299*
X0145674Y0133288D03*
D300*
X0073228Y0133288D03*
D301*
X0145057Y0133781D03*
D302*
X0073845Y0133781D03*
D303*
X0095937Y0135262D03*
D304*
X0095813Y0135509D03*
D305*
X0095813Y0135756D03*
D306*
X0145921Y0136003D03*
X0145921Y0136497D03*
X0145921Y0136744D03*
X0145921Y0137237D03*
D307*
X0095937Y0136990D03*
X0095937Y0136250D03*
D308*
X0123582Y0136497D03*
X0123582Y0136744D03*
D309*
X0096060Y0137484D03*
D310*
X0096060Y0137731D03*
X0096060Y0137978D03*
D311*
X0145674Y0138225D03*
D312*
X0141355Y0138225D03*
X0138392Y0138225D03*
D313*
X0136541Y0138225D03*
X0131851Y0138225D03*
X0126915Y0138225D03*
X0122225Y0138225D03*
D314*
X0096184Y0138225D03*
D315*
X0096184Y0138471D03*
D316*
X0096184Y0138718D03*
D317*
X0096307Y0138965D03*
D318*
X0126298Y0139212D03*
D319*
X0096431Y0139212D03*
D320*
X0145427Y0139459D03*
D321*
X0132715Y0139459D03*
X0132715Y0139952D03*
D322*
X0096431Y0139459D03*
D323*
X0124570Y0139706D03*
X0124570Y0140199D03*
X0144810Y0140693D03*
X0145304Y0139706D03*
D324*
X0132715Y0139706D03*
X0132715Y0140199D03*
D325*
X0096554Y0139706D03*
D326*
X0096554Y0139952D03*
D327*
X0096677Y0140199D03*
X0096924Y0140693D03*
D328*
X0132839Y0140446D03*
D329*
X0096801Y0140446D03*
D330*
X0132839Y0140693D03*
D331*
X0110253Y0141187D03*
D332*
X0110253Y0142174D03*
D333*
X0110253Y0142421D03*
D334*
X0110253Y0142914D03*
D335*
X0110253Y0143408D03*
D336*
X0110253Y0143655D03*
D337*
X0110253Y0144149D03*
D338*
X0115866Y0130503D02*
X0115866Y0127000D01*
X0115866Y0128168D02*
X0114115Y0129335D01*
X0112797Y0128751D02*
X0112213Y0129335D01*
X0111046Y0129335D01*
X0110462Y0128751D01*
X0110462Y0128168D01*
X0112797Y0128168D01*
X0112797Y0128751D02*
X0112797Y0127584D01*
X0112213Y0127000D01*
X0111046Y0127000D01*
X0109114Y0127000D02*
X0109114Y0129335D01*
X0109114Y0128168D02*
X0107946Y0129335D01*
X0107363Y0129335D01*
X0102362Y0130503D02*
X0101194Y0130503D01*
X0101778Y0130503D02*
X0101778Y0127000D01*
X0102362Y0127000D02*
X0101194Y0127000D01*
X0110313Y0119536D02*
X0110313Y0118952D01*
X0110897Y0118368D01*
X0112649Y0118368D01*
X0112649Y0116617D02*
X0110897Y0116617D01*
X0110313Y0117201D01*
X0110313Y0117785D01*
X0110897Y0118368D01*
X0110313Y0119536D02*
X0110897Y0120120D01*
X0112649Y0120120D01*
X0112649Y0116617D01*
X0114115Y0127000D02*
X0115866Y0128168D01*
X0117214Y0128168D02*
X0118966Y0128168D01*
X0119550Y0127584D01*
X0118966Y0127000D01*
X0117214Y0127000D01*
X0117214Y0128751D01*
X0117798Y0129335D01*
X0118966Y0129335D01*
X0120897Y0130503D02*
X0120897Y0127000D01*
X0123233Y0127000D02*
X0123233Y0130503D01*
X0122065Y0129335D01*
X0120897Y0130503D01*
X0128264Y0130503D02*
X0128264Y0128168D01*
X0129431Y0127000D01*
X0130599Y0128168D01*
X0130599Y0130503D01*
X0131947Y0129335D02*
X0131947Y0127000D01*
X0131947Y0128751D02*
X0134282Y0128751D01*
X0134282Y0129335D02*
X0134282Y0127000D01*
X0135630Y0127584D02*
X0136214Y0127000D01*
X0137381Y0127000D01*
X0137965Y0127584D01*
X0137381Y0128751D02*
X0136214Y0128751D01*
X0135630Y0128168D01*
X0135630Y0127584D01*
X0137381Y0128751D02*
X0137965Y0129335D01*
X0137965Y0129919D01*
X0137381Y0130503D01*
X0136214Y0130503D01*
X0135630Y0129919D01*
X0134282Y0129335D02*
X0133115Y0130503D01*
X0131947Y0129335D01*
D339*
X0134717Y0093147D03*
X0132892Y0091596D03*
X0132344Y0091414D03*
X0131888Y0091231D03*
X0136907Y0091414D03*
X0140192Y0081923D03*
X0136998Y0079824D03*
X0132344Y0079733D03*
X0136998Y0074805D03*
X0136998Y0072250D03*
X0140009Y0072706D03*
X0141378Y0074349D03*
X0147857Y0074440D03*
X0148314Y0072250D03*
X0128511Y0072524D03*
D340*
X0145804Y0072250D03*
D341*
X0144116Y0072250D03*
X0142473Y0072250D03*
X0141469Y0074805D03*
X0139827Y0074805D03*
X0138914Y0076539D03*
X0134990Y0074805D03*
X0133348Y0074805D03*
X0133348Y0072250D03*
X0128511Y0076813D03*
X0128603Y0077178D03*
X0128694Y0077634D03*
X0128968Y0078912D03*
X0129059Y0079185D03*
X0129150Y0079733D03*
X0129424Y0080828D03*
X0129424Y0080919D03*
X0129515Y0081102D03*
X0129515Y0081284D03*
X0129606Y0081558D03*
X0128694Y0083474D03*
X0128603Y0083839D03*
X0128511Y0084296D03*
X0128511Y0086851D03*
X0128511Y0086942D03*
X0128511Y0087125D03*
X0128603Y0087307D03*
X0128694Y0087581D03*
X0128055Y0087490D03*
X0128055Y0087307D03*
X0128055Y0087125D03*
X0127873Y0088767D03*
X0127873Y0088858D03*
X0127690Y0090136D03*
X0127690Y0090319D03*
X0127690Y0090501D03*
X0127690Y0090592D03*
X0131614Y0085117D03*
X0134534Y0081284D03*
X0134717Y0081102D03*
X0135903Y0079824D03*
X0138823Y0080919D03*
X0139006Y0081102D03*
X0139827Y0082197D03*
X0140192Y0082744D03*
X0140283Y0082836D03*
X0140557Y0083474D03*
X0140557Y0083657D03*
X0140648Y0083839D03*
X0140648Y0083931D03*
X0140740Y0084296D03*
X0142747Y0083474D03*
X0142382Y0082106D03*
X0141834Y0080007D03*
X0143295Y0085573D03*
X0143568Y0087125D03*
X0143568Y0087307D03*
X0143568Y0087490D03*
X0143568Y0087581D03*
X0143568Y0087763D03*
X0142747Y0090592D03*
X0123584Y0073984D03*
D342*
X0126002Y0074623D03*
X0126823Y0073801D03*
X0126002Y0072250D03*
X0128466Y0076539D03*
X0128466Y0076721D03*
X0128557Y0076995D03*
X0128648Y0077360D03*
X0128648Y0077452D03*
X0128740Y0077817D03*
X0128740Y0077908D03*
X0128922Y0078547D03*
X0129013Y0079094D03*
X0129105Y0079368D03*
X0129196Y0079824D03*
X0129378Y0080645D03*
X0129561Y0081467D03*
X0129652Y0081741D03*
X0129743Y0082106D03*
X0129743Y0082197D03*
X0129834Y0082379D03*
X0129834Y0082744D03*
X0129926Y0082836D03*
X0129926Y0083018D03*
X0130017Y0083201D03*
X0130017Y0083292D03*
X0130017Y0083474D03*
X0130199Y0084296D03*
X0130291Y0084478D03*
X0130291Y0084569D03*
X0130382Y0084752D03*
X0130382Y0084934D03*
X0130473Y0085117D03*
X0130473Y0085208D03*
X0130473Y0085391D03*
X0130656Y0086030D03*
X0130656Y0086212D03*
X0130747Y0086303D03*
X0130747Y0086486D03*
X0130747Y0086668D03*
X0131203Y0086668D03*
X0131295Y0086303D03*
X0131295Y0086212D03*
X0131295Y0086030D03*
X0131477Y0085391D03*
X0131568Y0085208D03*
X0131660Y0084934D03*
X0131751Y0084752D03*
X0131933Y0084478D03*
X0132025Y0084296D03*
X0132481Y0083657D03*
X0134123Y0081741D03*
X0134306Y0081558D03*
X0134945Y0080828D03*
X0135127Y0080645D03*
X0135492Y0080189D03*
X0135675Y0080007D03*
X0135949Y0079733D03*
X0136314Y0079368D03*
X0136496Y0079185D03*
X0136770Y0078912D03*
X0137135Y0078455D03*
X0137318Y0078273D03*
X0137500Y0078090D03*
X0137682Y0077908D03*
X0137774Y0077817D03*
X0137956Y0077634D03*
X0138139Y0077452D03*
X0138139Y0077360D03*
X0138504Y0076995D03*
X0138686Y0076813D03*
X0138777Y0076721D03*
X0139234Y0076174D03*
X0139873Y0072250D03*
X0141515Y0072250D03*
X0147447Y0073163D03*
X0141880Y0080189D03*
X0141880Y0080372D03*
X0141971Y0080463D03*
X0141971Y0080645D03*
X0142063Y0080828D03*
X0142063Y0080919D03*
X0142245Y0081467D03*
X0142245Y0081558D03*
X0142245Y0081741D03*
X0142336Y0081923D03*
X0142428Y0082197D03*
X0142428Y0082379D03*
X0142519Y0082744D03*
X0142063Y0083292D03*
X0141971Y0083201D03*
X0141789Y0083018D03*
X0142336Y0083657D03*
X0142793Y0083657D03*
X0143158Y0085117D03*
X0143158Y0085208D03*
X0143249Y0085391D03*
X0143340Y0085756D03*
X0143340Y0085847D03*
X0143432Y0086030D03*
X0143432Y0086212D03*
X0143432Y0086303D03*
X0143523Y0086486D03*
X0143523Y0086668D03*
X0143523Y0086851D03*
X0143523Y0086942D03*
X0142701Y0087307D03*
X0142701Y0087490D03*
X0142701Y0087581D03*
X0142701Y0087763D03*
X0142519Y0088402D03*
X0142336Y0088585D03*
X0143340Y0089041D03*
X0143340Y0089223D03*
X0143249Y0089315D03*
X0143158Y0089680D03*
X0142975Y0090136D03*
X0142884Y0090319D03*
X0142793Y0090501D03*
X0142519Y0090957D03*
X0142428Y0091140D03*
X0142336Y0091231D03*
X0143432Y0088858D03*
X0143432Y0088767D03*
X0143523Y0088402D03*
X0143523Y0088220D03*
X0143523Y0088128D03*
X0142519Y0086851D03*
X0139873Y0086851D03*
X0139873Y0086942D03*
X0139873Y0087125D03*
X0139873Y0087307D03*
X0139873Y0087490D03*
X0139873Y0087581D03*
X0139873Y0088128D03*
X0139873Y0088220D03*
X0139873Y0088402D03*
X0139873Y0088585D03*
X0139325Y0089680D03*
X0138960Y0090136D03*
X0137774Y0088767D03*
X0137774Y0088585D03*
X0137774Y0088402D03*
X0137774Y0088220D03*
X0137774Y0088128D03*
X0137774Y0087763D03*
X0137774Y0087581D03*
X0137774Y0087490D03*
X0137774Y0087307D03*
X0137774Y0087125D03*
X0137774Y0086942D03*
X0137774Y0086851D03*
X0137774Y0086668D03*
X0137774Y0086486D03*
X0136770Y0087307D03*
X0131660Y0089862D03*
X0131660Y0089954D03*
X0131751Y0090136D03*
X0131933Y0090501D03*
X0132116Y0090775D03*
X0131568Y0089680D03*
X0131295Y0088858D03*
X0131295Y0088767D03*
X0131203Y0088402D03*
X0129834Y0089680D03*
X0129561Y0089315D03*
X0129469Y0089223D03*
X0129196Y0088858D03*
X0129196Y0088767D03*
X0129105Y0088585D03*
X0129013Y0088402D03*
X0128922Y0088220D03*
X0128740Y0087763D03*
X0128648Y0087490D03*
X0128283Y0085847D03*
X0128283Y0085756D03*
X0128283Y0085573D03*
X0128557Y0083931D03*
X0128648Y0083657D03*
X0128922Y0083018D03*
X0129013Y0082836D03*
X0129013Y0082744D03*
X0138777Y0080828D03*
X0140329Y0083018D03*
X0140420Y0083201D03*
X0139873Y0086668D03*
X0135036Y0072250D03*
D343*
X0131660Y0072250D03*
X0122899Y0072250D03*
X0135857Y0081467D03*
X0139325Y0087763D03*
X0135857Y0093512D03*
X0143614Y0073345D03*
X0148359Y0074623D03*
D344*
X0147492Y0073984D03*
X0147492Y0073071D03*
X0149226Y0073071D03*
X0144116Y0073071D03*
X0144116Y0073163D03*
X0144116Y0072889D03*
X0144116Y0072706D03*
X0144116Y0072524D03*
X0144116Y0072433D03*
X0144116Y0073801D03*
X0144116Y0073984D03*
X0144116Y0074349D03*
X0141561Y0072433D03*
X0139827Y0073163D03*
X0139827Y0073345D03*
X0139827Y0073528D03*
X0139827Y0073710D03*
X0139827Y0073801D03*
X0139827Y0073984D03*
X0139827Y0074349D03*
X0139827Y0074440D03*
X0139827Y0074623D03*
X0135994Y0073710D03*
X0135994Y0073528D03*
X0135994Y0073345D03*
X0134990Y0072433D03*
X0133348Y0072433D03*
X0133348Y0072524D03*
X0133348Y0072706D03*
X0133348Y0072889D03*
X0133348Y0073071D03*
X0133348Y0073163D03*
X0133348Y0073984D03*
X0133348Y0074349D03*
X0133348Y0074440D03*
X0133348Y0074623D03*
X0134990Y0074623D03*
X0129150Y0073984D03*
X0129059Y0073710D03*
X0128876Y0073163D03*
X0128785Y0072889D03*
X0128238Y0072889D03*
X0128146Y0073071D03*
X0128146Y0073163D03*
X0128055Y0073345D03*
X0127873Y0073801D03*
X0127690Y0074349D03*
X0127599Y0074623D03*
X0128511Y0072250D03*
X0126047Y0072433D03*
X0122397Y0073710D03*
X0122306Y0073984D03*
X0130245Y0081102D03*
X0130428Y0080919D03*
X0130519Y0080828D03*
X0130701Y0080645D03*
X0131066Y0080372D03*
X0132800Y0083292D03*
X0132618Y0083474D03*
X0132344Y0083839D03*
X0131249Y0086486D03*
X0131158Y0088128D03*
X0131158Y0088220D03*
X0131249Y0088585D03*
X0129971Y0089862D03*
X0130063Y0089954D03*
X0130245Y0090136D03*
X0130428Y0090319D03*
X0130793Y0090592D03*
X0131979Y0090592D03*
X0132253Y0090957D03*
X0134808Y0088220D03*
X0134717Y0088128D03*
X0134352Y0087763D03*
X0134169Y0087581D03*
X0134078Y0087490D03*
X0133895Y0087307D03*
X0133713Y0087125D03*
X0133256Y0086668D03*
X0135173Y0088585D03*
X0136177Y0088585D03*
X0136177Y0088128D03*
X0136633Y0087763D03*
X0136907Y0087490D03*
X0136633Y0087125D03*
X0136451Y0086942D03*
X0136359Y0086851D03*
X0136177Y0086668D03*
X0136086Y0086486D03*
X0139188Y0089862D03*
X0138549Y0090501D03*
X0139827Y0088767D03*
X0140740Y0088767D03*
X0142017Y0088767D03*
X0142565Y0086942D03*
X0142382Y0086668D03*
X0140740Y0086486D03*
X0139827Y0086486D03*
X0143021Y0084752D03*
X0142930Y0084569D03*
X0142930Y0084478D03*
X0142838Y0084296D03*
X0141561Y0082836D03*
X0141469Y0082744D03*
X0138549Y0080645D03*
X0138184Y0080372D03*
X0137910Y0080189D03*
X0128329Y0086030D03*
X0128329Y0086212D03*
X0141287Y0092326D03*
X0141926Y0091687D03*
X0142017Y0091596D03*
X0142199Y0091414D03*
D345*
X0142610Y0090775D03*
X0143067Y0089954D03*
X0143067Y0089862D03*
X0142610Y0088220D03*
X0142610Y0088128D03*
X0142610Y0087125D03*
X0143067Y0084934D03*
X0142154Y0083474D03*
X0142610Y0083018D03*
X0142154Y0081284D03*
X0142154Y0081102D03*
X0138321Y0080463D03*
X0136587Y0079094D03*
X0137044Y0078547D03*
X0138321Y0077178D03*
X0134854Y0080919D03*
X0134397Y0081467D03*
X0132298Y0083931D03*
X0131842Y0084569D03*
X0131386Y0085756D03*
X0131386Y0085847D03*
X0130565Y0085847D03*
X0130565Y0085756D03*
X0130565Y0085573D03*
X0130108Y0083931D03*
X0130108Y0083839D03*
X0130108Y0083657D03*
X0128831Y0083201D03*
X0128374Y0084934D03*
X0128374Y0085117D03*
X0130108Y0081284D03*
X0129287Y0080189D03*
X0128831Y0078273D03*
X0128374Y0076356D03*
X0128374Y0076174D03*
X0124542Y0072250D03*
X0140876Y0085117D03*
X0140876Y0085208D03*
X0139143Y0089954D03*
X0136131Y0088402D03*
X0136131Y0088220D03*
X0131842Y0090319D03*
X0131386Y0089223D03*
X0129287Y0089041D03*
D346*
X0136953Y0072341D03*
X0148359Y0072341D03*
D347*
X0145758Y0072341D03*
X0145850Y0074531D03*
D348*
X0147492Y0074075D03*
X0147492Y0072980D03*
X0149226Y0073893D03*
X0144116Y0073893D03*
X0144116Y0074075D03*
X0144116Y0074258D03*
X0144116Y0073254D03*
X0144116Y0072980D03*
X0144116Y0072798D03*
X0144116Y0072341D03*
X0142473Y0072341D03*
X0141469Y0074714D03*
X0139827Y0074714D03*
X0139827Y0074531D03*
X0139827Y0074258D03*
X0139827Y0074075D03*
X0139827Y0073893D03*
X0139827Y0073619D03*
X0139827Y0073254D03*
X0135994Y0073619D03*
X0134990Y0074714D03*
X0133348Y0074714D03*
X0133348Y0074531D03*
X0133348Y0074258D03*
X0133348Y0074075D03*
X0133348Y0073893D03*
X0133348Y0073254D03*
X0133348Y0072980D03*
X0133348Y0072798D03*
X0133348Y0072341D03*
X0134990Y0072341D03*
X0132253Y0074714D03*
X0128785Y0072980D03*
X0128146Y0072980D03*
X0128055Y0073254D03*
X0127873Y0073893D03*
X0127781Y0074075D03*
X0127599Y0074714D03*
X0126777Y0073893D03*
X0124587Y0072341D03*
X0123584Y0074075D03*
X0123492Y0074258D03*
X0122306Y0074258D03*
X0122306Y0074075D03*
X0122306Y0073893D03*
X0130154Y0081193D03*
X0130610Y0080737D03*
X0132527Y0083566D03*
X0131979Y0084387D03*
X0131797Y0084661D03*
X0133621Y0087033D03*
X0134260Y0087672D03*
X0134443Y0087855D03*
X0134625Y0088037D03*
X0134899Y0088311D03*
X0136177Y0088493D03*
X0136816Y0087398D03*
X0136542Y0087033D03*
X0136268Y0086760D03*
X0136177Y0086577D03*
X0138641Y0090410D03*
X0142108Y0091505D03*
X0142291Y0091322D03*
X0142473Y0086760D03*
X0143112Y0085026D03*
X0143021Y0084661D03*
X0141378Y0082653D03*
X0138641Y0080737D03*
X0138458Y0080554D03*
X0131158Y0088037D03*
X0131249Y0088493D03*
X0129880Y0089771D03*
X0130154Y0090045D03*
X0129606Y0089406D03*
X0131888Y0090410D03*
X0132070Y0090684D03*
X0132162Y0090866D03*
X0133074Y0091961D03*
X0128329Y0086121D03*
X0128329Y0085938D03*
D349*
X0128466Y0084387D03*
X0128922Y0082927D03*
X0129105Y0082653D03*
X0129196Y0082471D03*
X0129743Y0082288D03*
X0129834Y0082471D03*
X0129834Y0082653D03*
X0129926Y0082927D03*
X0129926Y0083109D03*
X0130199Y0084022D03*
X0130199Y0084204D03*
X0130291Y0084387D03*
X0130291Y0084661D03*
X0130382Y0085026D03*
X0130473Y0085299D03*
X0130473Y0085482D03*
X0130656Y0085938D03*
X0130656Y0086121D03*
X0130747Y0086577D03*
X0131203Y0086577D03*
X0131295Y0086121D03*
X0131477Y0085482D03*
X0131660Y0085026D03*
X0132116Y0084204D03*
X0132207Y0084022D03*
X0132390Y0083748D03*
X0134215Y0081649D03*
X0134488Y0081376D03*
X0135036Y0080737D03*
X0135584Y0080098D03*
X0135766Y0079915D03*
X0136040Y0079642D03*
X0136222Y0079459D03*
X0136405Y0079277D03*
X0136679Y0079003D03*
X0136861Y0078820D03*
X0137226Y0078364D03*
X0137409Y0078182D03*
X0138047Y0077543D03*
X0138412Y0077087D03*
X0138595Y0076904D03*
X0136679Y0079642D03*
X0140146Y0082653D03*
X0141698Y0082927D03*
X0141880Y0083109D03*
X0142245Y0083566D03*
X0142519Y0082653D03*
X0142519Y0082471D03*
X0142428Y0082288D03*
X0142336Y0082014D03*
X0142245Y0081649D03*
X0141971Y0080737D03*
X0141971Y0080554D03*
X0141880Y0080098D03*
X0140785Y0084387D03*
X0139873Y0086577D03*
X0139873Y0086760D03*
X0139873Y0087033D03*
X0139873Y0087398D03*
X0139873Y0087855D03*
X0139873Y0088037D03*
X0139873Y0088311D03*
X0139873Y0088493D03*
X0139416Y0089588D03*
X0139234Y0089771D03*
X0139051Y0090045D03*
X0137774Y0088493D03*
X0137774Y0088311D03*
X0137774Y0088037D03*
X0137774Y0087855D03*
X0137774Y0087398D03*
X0137774Y0087033D03*
X0137774Y0086760D03*
X0137774Y0086577D03*
X0136405Y0087855D03*
X0136222Y0088037D03*
X0133211Y0086577D03*
X0131203Y0088311D03*
X0131295Y0088950D03*
X0131477Y0089406D03*
X0131477Y0089588D03*
X0131568Y0089771D03*
X0131660Y0090045D03*
X0129743Y0089588D03*
X0129378Y0089132D03*
X0129013Y0088493D03*
X0128922Y0088311D03*
X0128740Y0087855D03*
X0129743Y0082014D03*
X0129652Y0081649D03*
X0129561Y0081376D03*
X0129378Y0080554D03*
X0129105Y0079459D03*
X0129013Y0079003D03*
X0128922Y0078638D03*
X0128740Y0077725D03*
X0128648Y0077543D03*
X0128557Y0077087D03*
X0128557Y0076904D03*
X0128466Y0076630D03*
X0129378Y0074714D03*
X0126002Y0074714D03*
X0126002Y0072341D03*
X0141515Y0072341D03*
X0143249Y0085299D03*
X0143249Y0085482D03*
X0143432Y0086121D03*
X0143523Y0086577D03*
X0143523Y0086760D03*
X0143523Y0087033D03*
X0142701Y0087398D03*
X0142701Y0087672D03*
X0142701Y0087855D03*
X0142701Y0088037D03*
X0142519Y0088311D03*
X0142428Y0088493D03*
X0143523Y0088493D03*
X0143523Y0088311D03*
X0143523Y0088037D03*
X0143432Y0088950D03*
X0143340Y0089132D03*
X0143249Y0089406D03*
X0143158Y0089588D03*
X0143158Y0089771D03*
X0142975Y0090045D03*
X0142884Y0090410D03*
X0142701Y0090684D03*
D350*
X0141515Y0092144D03*
X0141150Y0092417D03*
X0138047Y0090866D03*
X0135127Y0088493D03*
X0133302Y0086760D03*
X0131112Y0087672D03*
X0131112Y0087855D03*
X0128283Y0086577D03*
X0131203Y0090866D03*
X0133302Y0092144D03*
X0132937Y0083109D03*
X0130838Y0080554D03*
X0131477Y0080098D03*
X0129378Y0074531D03*
X0129196Y0074075D03*
X0129105Y0073893D03*
X0129013Y0073619D03*
X0128922Y0073254D03*
X0127736Y0074258D03*
X0127644Y0074531D03*
X0126002Y0074531D03*
X0126002Y0073893D03*
X0126002Y0073619D03*
X0126002Y0073254D03*
X0126002Y0072980D03*
X0126002Y0072798D03*
X0123355Y0072798D03*
X0123173Y0072980D03*
X0122443Y0073619D03*
X0135036Y0073893D03*
X0135036Y0074075D03*
X0135036Y0074258D03*
X0135036Y0074531D03*
X0136040Y0073893D03*
X0136040Y0073254D03*
X0135036Y0073254D03*
X0135036Y0072980D03*
X0135036Y0072798D03*
X0137774Y0072798D03*
X0137956Y0073254D03*
X0137956Y0073619D03*
X0137956Y0073893D03*
X0137774Y0074258D03*
X0139873Y0072341D03*
X0140785Y0073619D03*
X0141515Y0073619D03*
X0141515Y0073254D03*
X0141515Y0072980D03*
X0141515Y0072798D03*
X0142701Y0072798D03*
X0142519Y0074075D03*
X0149181Y0074075D03*
X0149272Y0073619D03*
X0149272Y0073254D03*
X0149181Y0072980D03*
X0141150Y0082471D03*
X0142793Y0084204D03*
X0142884Y0084387D03*
X0142245Y0086577D03*
X0137774Y0080098D03*
D351*
X0136998Y0074531D03*
X0131614Y0072341D03*
X0122854Y0072341D03*
X0143477Y0074714D03*
X0148314Y0074531D03*
X0134626Y0091961D03*
D352*
X0133804Y0092600D03*
X0140648Y0092782D03*
X0142747Y0084022D03*
X0133439Y0082653D03*
X0128511Y0072341D03*
X0142838Y0072980D03*
X0147584Y0072798D03*
X0147584Y0074258D03*
D353*
X0148314Y0072433D03*
X0136998Y0072433D03*
X0136998Y0074623D03*
D354*
X0145758Y0074623D03*
X0145758Y0072433D03*
D355*
X0147538Y0072889D03*
X0148998Y0072706D03*
X0149181Y0072889D03*
X0149272Y0073163D03*
X0149272Y0073345D03*
X0149272Y0073528D03*
X0149272Y0073710D03*
X0149272Y0073801D03*
X0149181Y0073984D03*
X0144070Y0073710D03*
X0142884Y0073071D03*
X0142519Y0072433D03*
X0141515Y0072524D03*
X0141515Y0072706D03*
X0141515Y0072889D03*
X0141515Y0073071D03*
X0141515Y0073163D03*
X0141515Y0073345D03*
X0141515Y0073528D03*
X0141515Y0073710D03*
X0141515Y0073801D03*
X0140785Y0073710D03*
X0140694Y0073528D03*
X0140603Y0073345D03*
X0142519Y0073984D03*
X0137956Y0073984D03*
X0137956Y0073801D03*
X0137956Y0073710D03*
X0137956Y0073528D03*
X0137956Y0073345D03*
X0137956Y0073163D03*
X0137956Y0073071D03*
X0136040Y0073071D03*
X0136040Y0073163D03*
X0136040Y0073801D03*
X0136040Y0073984D03*
X0135036Y0073984D03*
X0135036Y0074349D03*
X0135036Y0074440D03*
X0135036Y0073345D03*
X0135036Y0073163D03*
X0135036Y0073071D03*
X0135036Y0072889D03*
X0135036Y0072706D03*
X0135036Y0072524D03*
X0133394Y0073345D03*
X0133394Y0073801D03*
X0129378Y0074623D03*
X0129105Y0073801D03*
X0129013Y0073528D03*
X0128922Y0073345D03*
X0127827Y0073984D03*
X0127644Y0074440D03*
X0126002Y0073984D03*
X0126002Y0073801D03*
X0126002Y0073710D03*
X0126002Y0073528D03*
X0126002Y0073345D03*
X0126002Y0073163D03*
X0126002Y0073071D03*
X0126002Y0072889D03*
X0126002Y0072706D03*
X0126002Y0072524D03*
X0123447Y0072706D03*
X0123082Y0073071D03*
X0123447Y0074349D03*
X0122899Y0074805D03*
X0131295Y0080189D03*
X0131660Y0080007D03*
X0133302Y0082744D03*
X0133211Y0082836D03*
X0133029Y0083018D03*
X0132846Y0083201D03*
X0131112Y0087490D03*
X0131112Y0087581D03*
X0131112Y0087763D03*
X0130656Y0090501D03*
X0133211Y0092052D03*
X0133394Y0092235D03*
X0133485Y0092326D03*
X0136405Y0088767D03*
X0138139Y0090775D03*
X0138412Y0090592D03*
X0140785Y0092691D03*
X0141424Y0092235D03*
X0141606Y0092052D03*
X0142063Y0086486D03*
X0128283Y0086486D03*
X0128283Y0086668D03*
X0128283Y0086303D03*
D356*
X0133348Y0086851D03*
X0135082Y0088402D03*
X0131705Y0091140D03*
X0140740Y0082197D03*
X0141013Y0082379D03*
X0141469Y0074623D03*
X0142930Y0073163D03*
X0142747Y0072889D03*
X0139918Y0072433D03*
X0137728Y0072706D03*
X0136268Y0072706D03*
X0134990Y0073801D03*
X0128511Y0072433D03*
X0126047Y0074440D03*
X0123401Y0074440D03*
X0122488Y0074440D03*
X0122580Y0073528D03*
X0122945Y0073163D03*
X0148314Y0074805D03*
X0148953Y0074349D03*
D357*
X0148314Y0072524D03*
X0143477Y0073528D03*
X0136998Y0072524D03*
X0131614Y0072433D03*
X0122945Y0072524D03*
D358*
X0123264Y0072889D03*
X0122352Y0073801D03*
X0122352Y0074349D03*
X0124542Y0072524D03*
X0124542Y0072433D03*
X0127918Y0073710D03*
X0128831Y0073071D03*
X0129287Y0074349D03*
X0129287Y0074440D03*
X0132298Y0074440D03*
X0132298Y0074349D03*
X0132298Y0074623D03*
X0132298Y0073984D03*
X0132298Y0073801D03*
X0132298Y0073710D03*
X0132298Y0073528D03*
X0132298Y0073345D03*
X0132298Y0073163D03*
X0132298Y0073071D03*
X0132298Y0072889D03*
X0132298Y0072706D03*
X0136131Y0072889D03*
X0137865Y0072889D03*
X0140420Y0073163D03*
X0140876Y0073801D03*
X0146534Y0073801D03*
X0146534Y0073984D03*
X0146534Y0074349D03*
X0146534Y0073345D03*
X0146534Y0073163D03*
X0146534Y0073071D03*
X0146534Y0072889D03*
X0146534Y0072706D03*
X0137044Y0087581D03*
X0137865Y0090957D03*
X0141789Y0091870D03*
X0131021Y0090775D03*
X0130930Y0080463D03*
D359*
X0137409Y0081102D03*
X0143431Y0074623D03*
X0145895Y0074440D03*
X0145895Y0073710D03*
X0145895Y0073528D03*
X0122899Y0072433D03*
D360*
X0143340Y0074440D03*
X0145804Y0072524D03*
D361*
X0147675Y0072706D03*
X0147675Y0074349D03*
X0142656Y0074349D03*
X0142656Y0073801D03*
X0142656Y0072706D03*
X0142565Y0072524D03*
X0137546Y0080007D03*
X0140557Y0082106D03*
X0142656Y0083839D03*
X0142656Y0083931D03*
X0137546Y0091140D03*
X0137363Y0091231D03*
X0140466Y0092874D03*
X0131340Y0090957D03*
X0131067Y0087307D03*
X0131067Y0087125D03*
X0126686Y0073984D03*
X0122762Y0073345D03*
D362*
X0131021Y0086851D03*
X0131021Y0086942D03*
X0133941Y0092691D03*
X0134397Y0092965D03*
X0138778Y0088767D03*
X0141424Y0086303D03*
X0140329Y0092965D03*
X0139964Y0093147D03*
X0141424Y0074440D03*
X0139964Y0072524D03*
D363*
X0131660Y0072524D03*
D364*
X0148861Y0072615D03*
D365*
X0147812Y0072615D03*
X0139964Y0072615D03*
D366*
X0145895Y0072615D03*
X0145895Y0073436D03*
D367*
X0144116Y0072615D03*
X0139827Y0073436D03*
X0135994Y0073436D03*
X0133348Y0072615D03*
X0128968Y0073436D03*
X0128055Y0073436D03*
X0130336Y0081010D03*
X0131705Y0084843D03*
X0131249Y0086395D03*
X0133804Y0087216D03*
X0135994Y0086395D03*
X0136724Y0087216D03*
X0136268Y0088676D03*
X0138823Y0090227D03*
X0142199Y0088676D03*
X0142930Y0090227D03*
X0142473Y0091049D03*
X0130336Y0090227D03*
D368*
X0132298Y0073436D03*
X0142610Y0072615D03*
D369*
X0141515Y0072615D03*
X0141515Y0073436D03*
X0140603Y0073436D03*
X0137956Y0073436D03*
X0135036Y0072615D03*
X0138047Y0080280D03*
X0131203Y0080280D03*
X0128283Y0086395D03*
X0126002Y0073436D03*
X0126002Y0072615D03*
X0141880Y0091779D03*
X0149272Y0073436D03*
D370*
X0137546Y0072615D03*
X0136450Y0072615D03*
X0128511Y0072615D03*
D371*
X0131705Y0072615D03*
D372*
X0124542Y0072615D03*
X0129287Y0080280D03*
X0130565Y0085665D03*
X0131386Y0085665D03*
X0142154Y0083383D03*
X0143067Y0084843D03*
D373*
X0122945Y0072615D03*
D374*
X0128466Y0072706D03*
X0136496Y0074440D03*
X0137500Y0074440D03*
X0140055Y0072889D03*
X0142884Y0073710D03*
X0148816Y0074440D03*
X0138869Y0086486D03*
X0134945Y0081741D03*
X0133941Y0082197D03*
D375*
X0133120Y0082927D03*
X0130565Y0090410D03*
X0130930Y0090684D03*
X0133576Y0092417D03*
X0138321Y0090684D03*
X0141698Y0091961D03*
X0140876Y0082288D03*
X0142610Y0074258D03*
X0142610Y0073893D03*
X0140511Y0073254D03*
X0137865Y0072980D03*
X0137865Y0074075D03*
X0136131Y0074075D03*
X0132298Y0074075D03*
X0132298Y0073893D03*
X0132298Y0073619D03*
X0132298Y0073254D03*
X0132298Y0072980D03*
X0132298Y0072798D03*
X0132298Y0074258D03*
X0132298Y0074531D03*
X0129287Y0074258D03*
X0146534Y0074258D03*
X0146534Y0074075D03*
X0146534Y0073893D03*
X0146534Y0073254D03*
X0146534Y0072980D03*
X0146534Y0072798D03*
X0149089Y0072798D03*
X0149089Y0074258D03*
D376*
X0141333Y0074258D03*
X0140055Y0072798D03*
X0133850Y0082288D03*
X0126184Y0074258D03*
X0122899Y0074714D03*
X0136679Y0091505D03*
X0134945Y0093239D03*
X0139781Y0093239D03*
D377*
X0140922Y0092600D03*
X0134078Y0092782D03*
X0131067Y0087398D03*
X0128329Y0086760D03*
X0133622Y0082471D03*
X0131796Y0079915D03*
X0137363Y0079915D03*
X0136177Y0074258D03*
X0136085Y0072980D03*
X0136177Y0072798D03*
X0143021Y0073254D03*
X0122854Y0073254D03*
D378*
X0128511Y0072798D03*
X0132618Y0079642D03*
X0135173Y0081649D03*
X0141287Y0074075D03*
X0140101Y0072980D03*
D379*
X0140146Y0073071D03*
X0136405Y0091596D03*
X0133302Y0091687D03*
D380*
X0123583Y0073893D03*
X0147493Y0073254D03*
D381*
X0143569Y0073436D03*
D382*
X0134215Y0073436D03*
D383*
X0122671Y0073436D03*
X0131523Y0091049D03*
X0137728Y0091049D03*
D384*
X0134215Y0073710D03*
X0134215Y0073528D03*
D385*
X0127964Y0073528D03*
X0138732Y0090319D03*
D386*
X0145895Y0073619D03*
D387*
X0143386Y0073619D03*
X0143386Y0074531D03*
D388*
X0134215Y0073619D03*
D389*
X0127964Y0073619D03*
X0133987Y0087398D03*
D390*
X0131523Y0085299D03*
X0128511Y0084204D03*
X0128511Y0084022D03*
X0128603Y0083748D03*
X0128694Y0083566D03*
X0129515Y0081193D03*
X0129424Y0080737D03*
X0129150Y0079642D03*
X0129059Y0079277D03*
X0128968Y0078820D03*
X0134625Y0081193D03*
X0135173Y0080554D03*
X0139918Y0082288D03*
X0140283Y0082927D03*
X0140375Y0083109D03*
X0140557Y0083566D03*
X0140648Y0083748D03*
X0140740Y0084022D03*
X0140740Y0084204D03*
X0142747Y0083566D03*
X0143386Y0085938D03*
X0143568Y0087398D03*
X0143568Y0087672D03*
X0143568Y0087855D03*
X0138823Y0076630D03*
X0147492Y0073893D03*
X0128511Y0087033D03*
X0128603Y0087398D03*
X0128694Y0087672D03*
X0128055Y0087398D03*
X0128055Y0087033D03*
X0127873Y0088950D03*
X0127781Y0089588D03*
X0127690Y0090410D03*
X0127690Y0090684D03*
D391*
X0139234Y0093421D03*
X0139507Y0081649D03*
X0141241Y0073893D03*
D392*
X0141241Y0073984D03*
X0139234Y0081558D03*
D393*
X0148314Y0074714D03*
X0126321Y0074075D03*
D394*
X0133530Y0082562D03*
X0149135Y0074166D03*
D395*
X0147538Y0074166D03*
X0142519Y0074166D03*
X0135036Y0074166D03*
X0129196Y0074166D03*
X0141242Y0082562D03*
X0142793Y0084113D03*
X0141059Y0092509D03*
D396*
X0137865Y0074166D03*
X0136131Y0074166D03*
X0132298Y0074166D03*
X0146534Y0074166D03*
D397*
X0144116Y0074166D03*
X0139827Y0074166D03*
X0133348Y0074166D03*
X0127781Y0074166D03*
X0123584Y0074166D03*
X0122306Y0074166D03*
X0131158Y0087946D03*
X0134534Y0087946D03*
D398*
X0139507Y0093330D03*
X0141333Y0074166D03*
D399*
X0126230Y0074166D03*
X0135173Y0093330D03*
D400*
X0134215Y0092874D03*
X0133394Y0086942D03*
X0133758Y0082379D03*
X0132116Y0079824D03*
X0136770Y0079733D03*
X0136314Y0074349D03*
X0137682Y0074349D03*
X0126093Y0074349D03*
D401*
X0131021Y0086760D03*
X0131021Y0087033D03*
X0141333Y0088950D03*
X0140146Y0093056D03*
X0142610Y0083748D03*
X0141424Y0074531D03*
D402*
X0122899Y0074531D03*
D403*
X0122899Y0074623D03*
D404*
X0145804Y0074714D03*
D405*
X0136998Y0074714D03*
D406*
X0138823Y0081467D03*
X0145758Y0074805D03*
X0135994Y0091687D03*
X0138914Y0093512D03*
D407*
X0139736Y0081741D03*
X0134078Y0082106D03*
X0143569Y0074805D03*
D408*
X0139097Y0076356D03*
X0135356Y0080372D03*
X0135264Y0080463D03*
X0140009Y0082379D03*
X0140466Y0083292D03*
X0140831Y0084478D03*
X0140831Y0084569D03*
X0140831Y0084752D03*
X0140831Y0084934D03*
X0140922Y0085391D03*
X0140922Y0085573D03*
X0142656Y0083292D03*
X0142656Y0083201D03*
X0142565Y0082836D03*
X0143477Y0088585D03*
X0135264Y0088767D03*
X0133165Y0086486D03*
X0131431Y0085573D03*
X0128329Y0085391D03*
X0128329Y0085208D03*
X0128420Y0084752D03*
X0128420Y0084569D03*
X0128420Y0084478D03*
X0128785Y0083292D03*
X0129241Y0082379D03*
X0129698Y0081923D03*
X0129333Y0080463D03*
X0129333Y0080372D03*
X0129241Y0080007D03*
X0128876Y0078455D03*
X0128785Y0078090D03*
X0129333Y0074805D03*
X0127599Y0074805D03*
X0132253Y0074805D03*
X0127964Y0087763D03*
X0127964Y0088128D03*
X0127964Y0088220D03*
X0128876Y0088128D03*
X0131340Y0089041D03*
X0131431Y0089315D03*
X0127599Y0090957D03*
X0127599Y0091140D03*
X0127599Y0091231D03*
X0127599Y0091414D03*
X0127507Y0091596D03*
X0127507Y0091687D03*
X0127507Y0091870D03*
X0127507Y0092052D03*
D409*
X0129333Y0082106D03*
X0125956Y0074805D03*
X0140557Y0088585D03*
D410*
X0142610Y0087033D03*
X0140876Y0085299D03*
X0140876Y0085026D03*
X0142154Y0081376D03*
X0142154Y0081193D03*
X0137865Y0077725D03*
X0137044Y0078638D03*
X0139143Y0076265D03*
X0130108Y0083566D03*
X0130108Y0083748D03*
X0128831Y0083109D03*
X0128374Y0085026D03*
X0128831Y0088037D03*
X0129287Y0088950D03*
X0136131Y0088311D03*
X0142610Y0090866D03*
X0128831Y0078182D03*
X0128374Y0076265D03*
D411*
X0128603Y0077269D03*
X0135447Y0080280D03*
X0138914Y0081010D03*
X0139006Y0076448D03*
X0143568Y0087216D03*
X0140648Y0088676D03*
X0128055Y0087216D03*
X0127690Y0090227D03*
D412*
X0127599Y0091049D03*
X0127507Y0091779D03*
X0132344Y0091049D03*
X0128420Y0084843D03*
X0128785Y0077999D03*
X0128420Y0076448D03*
X0140466Y0083383D03*
X0140831Y0084843D03*
X0140922Y0085665D03*
X0143477Y0086395D03*
D413*
X0143340Y0085665D03*
X0142701Y0087216D03*
X0143432Y0088676D03*
X0139873Y0088676D03*
X0139873Y0087216D03*
X0137774Y0087216D03*
X0137774Y0086395D03*
X0137774Y0088676D03*
X0135219Y0088676D03*
X0131751Y0090227D03*
X0131295Y0088676D03*
X0129105Y0088676D03*
X0128557Y0087216D03*
X0128283Y0085665D03*
X0130382Y0084843D03*
X0130017Y0083383D03*
X0128740Y0083383D03*
X0129652Y0081832D03*
X0129469Y0081010D03*
X0134032Y0081832D03*
X0134762Y0081010D03*
X0137591Y0077999D03*
X0138230Y0077269D03*
X0141880Y0080280D03*
X0142063Y0081010D03*
X0142336Y0081832D03*
X0142701Y0083383D03*
X0130747Y0086395D03*
D414*
X0131340Y0085938D03*
X0128329Y0085482D03*
X0128329Y0085299D03*
X0128420Y0084661D03*
X0129241Y0082288D03*
X0130063Y0081376D03*
X0129241Y0080098D03*
X0129241Y0079915D03*
X0128876Y0078364D03*
X0127964Y0087855D03*
X0127964Y0088037D03*
X0127599Y0090866D03*
X0127599Y0091322D03*
X0127507Y0091961D03*
X0127507Y0092144D03*
X0131340Y0089132D03*
X0140922Y0085482D03*
X0140831Y0084661D03*
X0140009Y0082471D03*
X0142565Y0082927D03*
X0142656Y0083109D03*
D415*
X0142519Y0082562D03*
X0136953Y0078729D03*
X0132116Y0084113D03*
X0130199Y0084113D03*
X0129834Y0082562D03*
X0129105Y0082562D03*
X0128922Y0078729D03*
X0131477Y0089497D03*
X0136314Y0087946D03*
X0137774Y0087946D03*
X0139873Y0087946D03*
X0139508Y0089497D03*
X0142701Y0087946D03*
X0143523Y0087946D03*
X0143249Y0089497D03*
D416*
X0134534Y0079277D03*
D417*
X0134443Y0079368D03*
D418*
X0134215Y0079459D03*
D419*
X0136131Y0079550D03*
D420*
X0135538Y0079550D03*
X0129150Y0079550D03*
X0128511Y0084113D03*
X0127781Y0089497D03*
X0140740Y0084113D03*
D421*
X0133029Y0079550D03*
D422*
X0139143Y0081193D03*
X0135310Y0086577D03*
X0135310Y0086760D03*
X0135310Y0087033D03*
X0135310Y0087398D03*
X0135310Y0087672D03*
X0135310Y0087855D03*
X0135310Y0088037D03*
X0135310Y0088311D03*
X0133120Y0088311D03*
X0133120Y0088493D03*
X0133120Y0088037D03*
X0133120Y0087855D03*
X0133120Y0087672D03*
X0133120Y0087398D03*
X0133120Y0087033D03*
X0128009Y0087672D03*
X0127918Y0088311D03*
X0127918Y0088493D03*
X0127553Y0091505D03*
X0139507Y0089406D03*
D423*
X0137317Y0081193D03*
D424*
X0137272Y0081284D03*
D425*
X0137272Y0081376D03*
D426*
X0139690Y0082106D03*
X0140876Y0085756D03*
X0139507Y0089315D03*
X0135310Y0088858D03*
X0135310Y0088220D03*
X0135310Y0088128D03*
X0135310Y0087763D03*
X0135310Y0087581D03*
X0135310Y0087490D03*
X0135310Y0087307D03*
X0135310Y0087125D03*
X0135310Y0086942D03*
X0135310Y0086851D03*
X0135310Y0086668D03*
X0135310Y0086486D03*
X0133120Y0087125D03*
X0133120Y0087307D03*
X0133120Y0087490D03*
X0133120Y0087581D03*
X0133120Y0087763D03*
X0133120Y0088128D03*
X0133120Y0088220D03*
X0133120Y0088402D03*
X0133120Y0088585D03*
X0133120Y0088767D03*
X0133120Y0088858D03*
X0127918Y0088585D03*
X0127918Y0088402D03*
X0128009Y0087581D03*
X0127644Y0090775D03*
X0127462Y0092235D03*
X0129287Y0082197D03*
X0130017Y0081467D03*
D427*
X0134352Y0081923D03*
X0135447Y0081558D03*
D428*
X0134762Y0081832D03*
X0139964Y0081832D03*
D429*
X0140374Y0082014D03*
X0137181Y0091322D03*
X0134534Y0093056D03*
X0132618Y0091505D03*
X0132161Y0091322D03*
D430*
X0134215Y0082014D03*
D431*
X0140101Y0082562D03*
X0128785Y0087946D03*
X0127964Y0087946D03*
D432*
X0132709Y0083383D03*
D433*
X0141424Y0086395D03*
D434*
X0139234Y0086395D03*
D435*
X0135310Y0086395D03*
X0135310Y0087216D03*
X0133120Y0087216D03*
X0133120Y0086395D03*
X0133120Y0088676D03*
X0127918Y0088676D03*
D436*
X0127827Y0089132D03*
X0127827Y0089406D03*
X0127736Y0089771D03*
X0127736Y0090045D03*
X0140603Y0086577D03*
D437*
X0132481Y0091140D03*
X0132846Y0091870D03*
X0127736Y0089954D03*
X0127736Y0089862D03*
X0127736Y0089680D03*
X0127827Y0089315D03*
X0127827Y0089223D03*
X0127827Y0089041D03*
X0128101Y0086942D03*
X0128101Y0086851D03*
D438*
X0131067Y0087216D03*
D439*
X0139280Y0087672D03*
D440*
X0137272Y0087672D03*
D441*
X0135310Y0087946D03*
X0133120Y0087946D03*
D442*
X0141333Y0088858D03*
D443*
X0139234Y0088858D03*
X0137135Y0088858D03*
D444*
X0129698Y0089497D03*
D445*
X0134762Y0091779D03*
D446*
X0134717Y0091870D03*
D447*
X0133713Y0092509D03*
D448*
X0135447Y0093421D03*
D449*
X0132618Y0093604D03*
D450*
X0132435Y0093695D03*
D451*
X0132298Y0093786D03*
D452*
X0131979Y0093877D03*
D453*
X0098889Y0068250D03*
D454*
X0094735Y0068250D03*
D455*
X0088938Y0068250D03*
X0084536Y0068250D03*
D456*
X0085342Y0069056D03*
X0085342Y0069118D03*
X0085342Y0069242D03*
X0085342Y0069304D03*
X0085342Y0069738D03*
X0085342Y0069862D03*
X0085342Y0069924D03*
X0087016Y0069924D03*
X0087016Y0069862D03*
X0087016Y0069738D03*
X0087016Y0069676D03*
X0087016Y0069614D03*
X0087016Y0069552D03*
X0087016Y0069428D03*
X0087016Y0069366D03*
X0087016Y0069304D03*
X0087016Y0069242D03*
X0087016Y0069118D03*
X0087016Y0069056D03*
X0087016Y0068994D03*
X0087016Y0068932D03*
X0087016Y0068808D03*
X0087016Y0068746D03*
X0087016Y0068684D03*
X0087016Y0068622D03*
X0087016Y0068498D03*
X0087016Y0068436D03*
X0087016Y0068374D03*
X0087016Y0068312D03*
X0087016Y0070544D03*
X0087016Y0070606D03*
X0087016Y0070668D03*
X0088938Y0073024D03*
X0088938Y0073086D03*
X0088938Y0073148D03*
X0088938Y0073210D03*
X0088938Y0073334D03*
X0088938Y0073396D03*
X0088938Y0073458D03*
X0088938Y0073520D03*
X0088938Y0073644D03*
X0088938Y0073706D03*
X0088938Y0073768D03*
X0088938Y0073830D03*
X0088938Y0073954D03*
X0088938Y0074016D03*
X0088938Y0074078D03*
X0088938Y0074140D03*
X0088938Y0074202D03*
X0088938Y0074326D03*
X0088938Y0074388D03*
X0088938Y0074450D03*
X0088938Y0074512D03*
X0089868Y0073768D03*
X0089868Y0073706D03*
X0089868Y0073644D03*
X0089868Y0073520D03*
X0089868Y0073458D03*
X0089868Y0073396D03*
X0089868Y0073334D03*
X0089868Y0073210D03*
X0089868Y0073148D03*
X0089868Y0073086D03*
X0089868Y0073024D03*
X0092162Y0072900D03*
X0092162Y0072838D03*
X0092968Y0072156D03*
X0093836Y0071660D03*
X0093836Y0071598D03*
X0093836Y0071536D03*
X0093836Y0071474D03*
X0093836Y0071350D03*
X0093836Y0071288D03*
X0093836Y0071226D03*
X0093836Y0071164D03*
X0093836Y0071040D03*
X0093836Y0070978D03*
X0093836Y0070916D03*
X0093836Y0070854D03*
X0093836Y0070730D03*
X0093836Y0070668D03*
X0093836Y0070606D03*
X0093836Y0070544D03*
X0093836Y0069738D03*
X0093836Y0069676D03*
X0093836Y0069614D03*
X0093836Y0069552D03*
X0093836Y0069428D03*
X0093836Y0069366D03*
X0093836Y0069304D03*
X0093836Y0069242D03*
X0093836Y0068498D03*
X0093836Y0068436D03*
X0093836Y0068374D03*
X0093836Y0068312D03*
X0092968Y0070296D03*
X0092968Y0070358D03*
X0091914Y0069614D03*
X0090612Y0069056D03*
X0090612Y0068994D03*
X0090488Y0069366D03*
X0090488Y0069428D03*
X0090364Y0069862D03*
X0090364Y0069924D03*
X0090240Y0070234D03*
X0090240Y0070296D03*
X0090116Y0070668D03*
X0090860Y0068374D03*
X0090860Y0068312D03*
X0093588Y0073768D03*
X0093588Y0073830D03*
X0093588Y0073954D03*
X0093588Y0074016D03*
X0097060Y0073768D03*
X0097060Y0073706D03*
X0097060Y0073644D03*
X0097060Y0073520D03*
X0097060Y0073458D03*
X0097060Y0073396D03*
X0097060Y0073334D03*
X0097060Y0073210D03*
X0097060Y0073148D03*
X0097060Y0073086D03*
X0097060Y0073024D03*
X0097060Y0072900D03*
X0097060Y0072838D03*
X0097060Y0072776D03*
X0097060Y0072714D03*
X0097060Y0072590D03*
X0097060Y0072528D03*
X0097060Y0072466D03*
X0097060Y0072404D03*
X0097060Y0072280D03*
X0097060Y0072218D03*
X0097990Y0073644D03*
X0097060Y0074326D03*
X0097060Y0074388D03*
X0097060Y0074450D03*
X0097060Y0074512D03*
X0099416Y0073954D03*
X0099540Y0073644D03*
X0099540Y0073148D03*
X0101834Y0073148D03*
X0101834Y0073086D03*
X0101834Y0073210D03*
X0101834Y0073334D03*
X0101834Y0073396D03*
X0101834Y0073458D03*
X0101834Y0073520D03*
X0101834Y0073644D03*
X0101834Y0074388D03*
X0101834Y0074450D03*
X0101834Y0074512D03*
X0102764Y0073768D03*
X0102764Y0073706D03*
X0102764Y0073644D03*
X0102764Y0073520D03*
X0102764Y0073458D03*
X0102764Y0073396D03*
X0102764Y0073334D03*
X0102764Y0073210D03*
X0102764Y0073148D03*
X0102764Y0073086D03*
X0102764Y0073024D03*
X0101834Y0072280D03*
X0101834Y0072218D03*
X0101834Y0072156D03*
X0101834Y0072094D03*
X0101834Y0071970D03*
X0101834Y0071908D03*
X0101834Y0071846D03*
X0101834Y0071784D03*
X0101834Y0071660D03*
X0101834Y0071598D03*
X0101834Y0071536D03*
X0101834Y0071474D03*
X0101834Y0071350D03*
X0101834Y0071288D03*
X0101834Y0071226D03*
X0101834Y0071164D03*
X0101834Y0071040D03*
X0101834Y0070978D03*
X0101834Y0070916D03*
X0101834Y0070854D03*
X0101834Y0070730D03*
X0101834Y0070668D03*
X0101834Y0070606D03*
X0101834Y0070544D03*
X0101834Y0069738D03*
X0101834Y0069676D03*
X0101834Y0069614D03*
X0101834Y0069552D03*
X0101834Y0069428D03*
X0101834Y0069366D03*
X0101834Y0069304D03*
X0101834Y0069242D03*
X0101834Y0069118D03*
X0101834Y0069056D03*
X0101834Y0068994D03*
X0101834Y0068932D03*
X0101834Y0068808D03*
X0101834Y0068746D03*
X0101834Y0068684D03*
X0101834Y0068622D03*
X0101834Y0068498D03*
X0101834Y0068436D03*
X0101834Y0068374D03*
X0101834Y0068312D03*
X0099540Y0068932D03*
X0099540Y0068994D03*
X0082614Y0072838D03*
X0082614Y0072900D03*
X0082614Y0073830D03*
X0081188Y0073830D03*
X0081188Y0073768D03*
X0081188Y0073706D03*
D457*
X0082552Y0074016D03*
X0082676Y0073768D03*
X0082676Y0073706D03*
X0082676Y0073644D03*
X0082676Y0073148D03*
X0082676Y0073086D03*
X0082676Y0073024D03*
X0083420Y0074078D03*
X0084784Y0073706D03*
X0084784Y0073644D03*
X0084784Y0073520D03*
X0084784Y0073210D03*
X0084784Y0073148D03*
X0084784Y0073086D03*
X0084784Y0073024D03*
X0087450Y0073086D03*
X0087450Y0073148D03*
X0087450Y0073210D03*
X0087450Y0073334D03*
X0087450Y0073396D03*
X0087450Y0073458D03*
X0087450Y0073520D03*
X0087450Y0073644D03*
X0087450Y0073706D03*
X0087450Y0073768D03*
X0087450Y0073830D03*
X0087450Y0073954D03*
X0087450Y0074016D03*
X0087450Y0074078D03*
X0087450Y0074140D03*
X0087450Y0074202D03*
X0087450Y0074326D03*
X0087450Y0074388D03*
X0087450Y0074450D03*
X0087450Y0074512D03*
X0087450Y0072280D03*
X0087450Y0072218D03*
X0088070Y0070048D03*
X0088070Y0069986D03*
X0088070Y0069924D03*
X0088070Y0069862D03*
X0088070Y0069738D03*
X0088070Y0069304D03*
X0088070Y0069242D03*
X0088070Y0069118D03*
X0088070Y0069056D03*
X0088070Y0068994D03*
X0088070Y0068436D03*
X0088070Y0068374D03*
X0088070Y0068312D03*
X0089558Y0068932D03*
X0089558Y0068994D03*
X0089558Y0069056D03*
X0089558Y0069118D03*
X0090426Y0069614D03*
X0090426Y0069676D03*
X0090426Y0069738D03*
X0090302Y0069986D03*
X0090302Y0070048D03*
X0090550Y0069242D03*
X0091108Y0069118D03*
X0091170Y0069304D03*
X0092100Y0068994D03*
X0092596Y0069118D03*
X0092658Y0069304D03*
X0092658Y0069366D03*
X0092720Y0069552D03*
X0092720Y0069614D03*
X0092782Y0069676D03*
X0092782Y0069738D03*
X0092844Y0069862D03*
X0092844Y0069924D03*
X0092844Y0069986D03*
X0092906Y0070172D03*
X0093030Y0070544D03*
X0093030Y0070606D03*
X0091604Y0070544D03*
X0092348Y0068312D03*
X0095324Y0069242D03*
X0095324Y0069304D03*
X0095324Y0069366D03*
X0095324Y0069428D03*
X0095324Y0069552D03*
X0095324Y0069614D03*
X0095324Y0069676D03*
X0095324Y0069738D03*
X0096998Y0069738D03*
X0096998Y0069676D03*
X0096998Y0069614D03*
X0096998Y0069552D03*
X0096998Y0069428D03*
X0096998Y0069366D03*
X0096998Y0069304D03*
X0096998Y0069242D03*
X0096998Y0069118D03*
X0096998Y0069056D03*
X0096998Y0068994D03*
X0096998Y0068932D03*
X0096998Y0068808D03*
X0096998Y0068746D03*
X0096998Y0068684D03*
X0096998Y0068622D03*
X0096998Y0068498D03*
X0096998Y0068436D03*
X0096998Y0068374D03*
X0096998Y0068312D03*
X0098052Y0068312D03*
X0098052Y0068374D03*
X0098052Y0068436D03*
X0098052Y0068932D03*
X0098052Y0068994D03*
X0098052Y0069056D03*
X0098052Y0069118D03*
X0098052Y0069242D03*
X0098052Y0069304D03*
X0098052Y0069738D03*
X0098052Y0069862D03*
X0098052Y0069924D03*
X0098052Y0069986D03*
X0098052Y0070048D03*
X0096998Y0070544D03*
X0096998Y0070606D03*
X0096998Y0070668D03*
X0099478Y0068808D03*
X0100346Y0068808D03*
X0100346Y0068746D03*
X0100346Y0068684D03*
X0100346Y0068622D03*
X0100346Y0068498D03*
X0100346Y0068436D03*
X0100346Y0068374D03*
X0100346Y0068312D03*
X0100346Y0068932D03*
X0100346Y0068994D03*
X0100346Y0069056D03*
X0100346Y0069118D03*
X0100346Y0069242D03*
X0100346Y0069304D03*
X0100346Y0069366D03*
X0100346Y0069428D03*
X0100346Y0069552D03*
X0100346Y0069614D03*
X0100346Y0069676D03*
X0100346Y0069738D03*
X0100408Y0072838D03*
X0100408Y0072900D03*
X0100346Y0073148D03*
X0100346Y0073210D03*
X0100346Y0073334D03*
X0100346Y0073396D03*
X0100346Y0073458D03*
X0100346Y0073520D03*
X0100408Y0073830D03*
X0099478Y0073830D03*
X0099478Y0073768D03*
X0099478Y0073706D03*
X0099478Y0072900D03*
X0104252Y0073024D03*
X0104252Y0073086D03*
X0104252Y0073148D03*
X0104252Y0073644D03*
X0104252Y0073706D03*
X0104252Y0073768D03*
X0095634Y0073830D03*
X0091356Y0073768D03*
X0091356Y0073706D03*
X0091356Y0073644D03*
X0091356Y0073520D03*
X0091356Y0073210D03*
X0091356Y0073148D03*
X0091356Y0073086D03*
X0091356Y0073024D03*
X0085280Y0070048D03*
X0085280Y0069986D03*
X0085280Y0068994D03*
X0085280Y0068932D03*
X0083854Y0069738D03*
X0083854Y0069862D03*
X0083854Y0069924D03*
D458*
X0086861Y0070234D03*
X0088349Y0072218D03*
X0085559Y0074512D03*
X0087171Y0076806D03*
X0093557Y0072590D03*
X0093991Y0070234D03*
X0093991Y0068746D03*
X0092317Y0068808D03*
X0091573Y0070048D03*
X0096843Y0070234D03*
X0098765Y0070668D03*
X0100563Y0070234D03*
X0100935Y0072218D03*
X0100935Y0074512D03*
X0098269Y0076806D03*
X0098889Y0068312D03*
D459*
X0100501Y0070172D03*
X0101741Y0072714D03*
X0101741Y0074016D03*
X0102919Y0074078D03*
X0104097Y0074078D03*
X0100501Y0074078D03*
X0096967Y0074016D03*
X0093495Y0074140D03*
X0093495Y0073644D03*
X0092317Y0072590D03*
X0091201Y0074078D03*
X0090023Y0074078D03*
X0087543Y0072714D03*
X0086923Y0070172D03*
X0085125Y0070234D03*
X0084071Y0070234D03*
X0085125Y0068746D03*
X0084629Y0072714D03*
X0084629Y0074016D03*
X0081405Y0074140D03*
X0090829Y0068622D03*
X0092317Y0068622D03*
X0093929Y0068808D03*
X0094735Y0068312D03*
X0095169Y0068746D03*
X0091573Y0070234D03*
D460*
X0090860Y0068932D03*
X0092348Y0068932D03*
X0094766Y0070606D03*
X0096130Y0070606D03*
X0095882Y0074140D03*
X0098734Y0074512D03*
X0100594Y0074140D03*
X0100594Y0072590D03*
X0100966Y0070606D03*
X0090612Y0074512D03*
X0088690Y0072590D03*
X0088814Y0070668D03*
X0088938Y0068312D03*
X0086148Y0070606D03*
X0084536Y0068312D03*
X0081932Y0074512D03*
X0098238Y0090880D03*
D461*
X0085559Y0074388D03*
X0085621Y0074326D03*
X0092937Y0072218D03*
X0094735Y0070544D03*
X0098889Y0068374D03*
X0100935Y0070544D03*
D462*
X0101617Y0072590D03*
X0101617Y0074140D03*
X0096843Y0074140D03*
X0094735Y0068374D03*
X0090643Y0072218D03*
X0083947Y0072218D03*
X0083947Y0074512D03*
D463*
X0084691Y0073954D03*
X0084815Y0073458D03*
X0084815Y0073396D03*
X0084815Y0073334D03*
X0084691Y0072838D03*
X0084691Y0072776D03*
X0083947Y0072156D03*
X0082583Y0072776D03*
X0081839Y0072156D03*
X0081157Y0073644D03*
X0081281Y0074016D03*
X0082583Y0073954D03*
X0083885Y0070048D03*
X0083885Y0069986D03*
X0083885Y0069676D03*
X0085187Y0070172D03*
X0085311Y0069676D03*
X0085187Y0068808D03*
X0086985Y0069986D03*
X0086985Y0070048D03*
X0089465Y0069242D03*
X0089465Y0068746D03*
X0090829Y0068436D03*
X0092317Y0068436D03*
X0092317Y0068374D03*
X0093867Y0068994D03*
X0093867Y0069056D03*
X0093867Y0069118D03*
X0093867Y0069862D03*
X0093867Y0069924D03*
X0093867Y0069986D03*
X0092937Y0070234D03*
X0092999Y0070420D03*
X0093061Y0070668D03*
X0091573Y0070420D03*
X0090271Y0070172D03*
X0090209Y0070358D03*
X0090209Y0070420D03*
X0090147Y0070544D03*
X0090147Y0070606D03*
X0090643Y0072156D03*
X0089961Y0072776D03*
X0089899Y0072838D03*
X0089899Y0072900D03*
X0089899Y0073830D03*
X0089961Y0073954D03*
X0088907Y0072900D03*
X0088907Y0072838D03*
X0087481Y0072838D03*
X0087481Y0072900D03*
X0087481Y0073024D03*
X0087171Y0076682D03*
X0091387Y0073458D03*
X0091387Y0073396D03*
X0091387Y0073334D03*
X0092193Y0073024D03*
X0092193Y0072776D03*
X0092193Y0072714D03*
X0092379Y0074140D03*
X0093557Y0074078D03*
X0093557Y0073706D03*
X0095665Y0073954D03*
X0097029Y0073830D03*
X0098021Y0073830D03*
X0098021Y0073768D03*
X0098021Y0073706D03*
X0098083Y0073954D03*
X0099385Y0074016D03*
X0099509Y0073086D03*
X0099509Y0073024D03*
X0099447Y0072838D03*
X0099447Y0072776D03*
X0099385Y0072714D03*
X0100439Y0072776D03*
X0100439Y0073954D03*
X0101803Y0073830D03*
X0101803Y0073768D03*
X0101803Y0073706D03*
X0101803Y0073024D03*
X0101803Y0072900D03*
X0101803Y0072838D03*
X0102795Y0072838D03*
X0102795Y0072900D03*
X0102857Y0072776D03*
X0103539Y0072156D03*
X0104221Y0072838D03*
X0104221Y0072900D03*
X0104283Y0073210D03*
X0104283Y0073334D03*
X0104283Y0073396D03*
X0104283Y0073458D03*
X0104283Y0073520D03*
X0104221Y0073830D03*
X0102857Y0073954D03*
X0102795Y0073830D03*
X0100935Y0070668D03*
X0101803Y0069986D03*
X0101803Y0069924D03*
X0101803Y0069862D03*
X0099447Y0069242D03*
X0099447Y0068746D03*
X0098083Y0068808D03*
X0098083Y0069676D03*
X0098083Y0070172D03*
X0096967Y0069986D03*
X0096967Y0069924D03*
X0096967Y0069862D03*
X0096099Y0070668D03*
X0095293Y0069986D03*
X0095293Y0069924D03*
X0095293Y0069862D03*
X0095231Y0070048D03*
X0094735Y0070668D03*
X0095293Y0069118D03*
X0095293Y0069056D03*
X0095293Y0068994D03*
X0098269Y0076682D03*
X0098269Y0091004D03*
X0087171Y0091004D03*
D464*
X0098238Y0076930D03*
X0098734Y0074450D03*
X0096192Y0074388D03*
X0090612Y0074450D03*
X0090612Y0072280D03*
X0088938Y0068374D03*
X0084536Y0068374D03*
X0081932Y0074450D03*
X0103508Y0074450D03*
X0103508Y0072280D03*
D465*
X0098672Y0072280D03*
X0096192Y0074326D03*
X0094704Y0068498D03*
X0098920Y0068436D03*
X0081870Y0072280D03*
D466*
X0084567Y0070544D03*
X0094735Y0068436D03*
X0098765Y0070606D03*
X0100935Y0074388D03*
D467*
X0088969Y0068436D03*
X0083947Y0072280D03*
X0083947Y0074450D03*
X0087233Y0090756D03*
X0098207Y0090756D03*
D468*
X0103508Y0074388D03*
X0090612Y0074388D03*
X0084536Y0068436D03*
D469*
X0083947Y0072528D03*
X0083947Y0074202D03*
X0088101Y0072404D03*
X0088721Y0069428D03*
X0088721Y0068498D03*
X0098703Y0068498D03*
X0098703Y0069428D03*
X0098703Y0072528D03*
D470*
X0098672Y0072156D03*
X0098176Y0074078D03*
X0099354Y0074078D03*
X0096998Y0073954D03*
X0095200Y0070172D03*
X0093898Y0070048D03*
X0093898Y0068932D03*
X0095200Y0068808D03*
X0092348Y0068498D03*
X0091604Y0070296D03*
X0091604Y0070358D03*
X0092224Y0073086D03*
X0088876Y0072776D03*
X0083978Y0070172D03*
X0082552Y0072714D03*
X0081374Y0072590D03*
X0081250Y0073954D03*
X0082428Y0074140D03*
X0101772Y0073954D03*
X0101772Y0072776D03*
X0104128Y0072714D03*
X0104128Y0074016D03*
X0101772Y0070048D03*
D471*
X0100408Y0070048D03*
X0098114Y0070234D03*
X0096936Y0070048D03*
X0098114Y0068746D03*
X0095262Y0068932D03*
X0090860Y0068498D03*
X0088132Y0068746D03*
X0088132Y0070172D03*
X0088194Y0070234D03*
X0086148Y0070668D03*
X0084598Y0070668D03*
X0087512Y0072776D03*
X0088814Y0072714D03*
X0089992Y0072714D03*
X0091232Y0072714D03*
X0091294Y0072776D03*
X0091294Y0073954D03*
X0091232Y0074016D03*
X0089992Y0074016D03*
X0089868Y0077550D03*
X0086396Y0073954D03*
X0082490Y0074078D03*
X0081312Y0074078D03*
X0095696Y0074016D03*
X0098114Y0074016D03*
X0098238Y0072590D03*
X0100470Y0072714D03*
X0100470Y0074016D03*
X0102888Y0074016D03*
X0102888Y0072714D03*
X0104190Y0072776D03*
X0104190Y0073954D03*
X0095572Y0077550D03*
D472*
X0092875Y0074388D03*
X0092875Y0073396D03*
X0096471Y0070420D03*
X0098579Y0069614D03*
X0098703Y0072404D03*
X0088597Y0069614D03*
X0084505Y0068498D03*
X0083947Y0072404D03*
X0083947Y0074326D03*
D473*
X0082614Y0073892D03*
X0085342Y0069180D03*
X0087016Y0069180D03*
X0087016Y0069490D03*
X0087016Y0068870D03*
X0087016Y0068560D03*
X0087016Y0070482D03*
X0088938Y0073272D03*
X0088938Y0073582D03*
X0088938Y0073892D03*
X0088938Y0074264D03*
X0089868Y0073582D03*
X0089868Y0073272D03*
X0093588Y0073892D03*
X0093836Y0071102D03*
X0093836Y0070792D03*
X0093836Y0070482D03*
X0093836Y0069490D03*
X0090488Y0069490D03*
X0097060Y0072342D03*
X0097060Y0072652D03*
X0097060Y0073272D03*
X0097060Y0073582D03*
X0097990Y0073582D03*
X0099540Y0073582D03*
X0101834Y0073582D03*
X0101834Y0073272D03*
X0102764Y0073272D03*
X0102764Y0073582D03*
X0101834Y0072342D03*
X0101834Y0072032D03*
X0101834Y0071722D03*
X0101834Y0071102D03*
X0101834Y0070792D03*
X0101834Y0070482D03*
X0101834Y0069490D03*
X0101834Y0069180D03*
X0101834Y0068870D03*
X0101834Y0068560D03*
D474*
X0100346Y0068560D03*
X0100346Y0068870D03*
X0100346Y0069180D03*
X0100346Y0069490D03*
X0099478Y0069180D03*
X0099478Y0068870D03*
X0098052Y0068870D03*
X0098052Y0069180D03*
X0098052Y0070110D03*
X0096998Y0070482D03*
X0096998Y0069490D03*
X0096998Y0069180D03*
X0096998Y0068870D03*
X0096998Y0068560D03*
X0095324Y0069180D03*
X0095324Y0069490D03*
X0092906Y0070110D03*
X0092720Y0069490D03*
X0091232Y0069490D03*
X0090550Y0069180D03*
X0090302Y0070110D03*
X0090178Y0070482D03*
X0091604Y0070482D03*
X0089558Y0068870D03*
X0088070Y0069180D03*
X0087450Y0072342D03*
X0087450Y0073272D03*
X0087450Y0073582D03*
X0087450Y0073892D03*
X0087450Y0074264D03*
X0084784Y0073582D03*
X0083420Y0072652D03*
X0082676Y0073582D03*
X0091356Y0073582D03*
X0098052Y0073892D03*
X0100346Y0073582D03*
X0100346Y0073272D03*
X0100408Y0073892D03*
X0104252Y0073582D03*
D475*
X0098734Y0068560D03*
D476*
X0094487Y0068560D03*
X0096409Y0074264D03*
X0101183Y0074264D03*
D477*
X0101772Y0070110D03*
X0093898Y0068870D03*
X0092348Y0068560D03*
X0092224Y0072652D03*
X0086954Y0070110D03*
D478*
X0086396Y0073892D03*
X0082490Y0072652D03*
X0090860Y0068560D03*
X0096936Y0070110D03*
X0100470Y0070110D03*
D479*
X0088752Y0068560D03*
D480*
X0084505Y0068560D03*
X0083947Y0074264D03*
D481*
X0088132Y0072528D03*
X0088132Y0072466D03*
X0092968Y0072466D03*
X0094518Y0070358D03*
X0094518Y0070296D03*
X0094518Y0068622D03*
X0098734Y0068622D03*
X0098734Y0069366D03*
X0101152Y0070296D03*
X0101152Y0070358D03*
X0101152Y0072528D03*
X0101152Y0074202D03*
X0096378Y0074202D03*
D482*
X0098145Y0077240D03*
X0088783Y0068622D03*
X0087295Y0077240D03*
X0087295Y0090446D03*
X0098145Y0090446D03*
D483*
X0098176Y0090508D03*
X0087264Y0090508D03*
X0087264Y0077178D03*
X0092906Y0074202D03*
X0092968Y0072404D03*
X0098734Y0070358D03*
X0098176Y0077178D03*
X0084536Y0068622D03*
X0081870Y0072528D03*
D484*
X0082428Y0072590D03*
X0083482Y0072590D03*
X0083482Y0074140D03*
X0084102Y0068684D03*
X0085032Y0068684D03*
X0089372Y0068684D03*
X0089372Y0069304D03*
X0090860Y0068746D03*
X0090860Y0068684D03*
X0092348Y0068684D03*
X0092348Y0068746D03*
X0091604Y0070172D03*
X0093960Y0070172D03*
X0096874Y0070172D03*
X0098176Y0068684D03*
X0099354Y0068684D03*
X0099292Y0069304D03*
X0095758Y0074078D03*
X0092348Y0073148D03*
X0089806Y0077612D03*
X0095634Y0077612D03*
D485*
X0094549Y0068684D03*
D486*
X0090829Y0068808D03*
X0088225Y0068684D03*
X0091077Y0072590D03*
X0091077Y0074140D03*
X0086303Y0074078D03*
X0103973Y0074140D03*
X0103973Y0072590D03*
D487*
X0100935Y0072156D03*
X0099509Y0069118D03*
X0099509Y0069056D03*
X0092627Y0069242D03*
X0092069Y0069118D03*
X0092069Y0069056D03*
X0092007Y0069242D03*
X0092007Y0069304D03*
X0092007Y0069366D03*
X0091945Y0069428D03*
X0091945Y0069552D03*
X0091883Y0069676D03*
X0091883Y0069738D03*
X0091821Y0069862D03*
X0091821Y0069924D03*
X0091387Y0069924D03*
X0091325Y0069862D03*
X0091325Y0069738D03*
X0091201Y0069428D03*
X0091201Y0069366D03*
X0091077Y0069056D03*
X0091077Y0068994D03*
X0090581Y0069118D03*
X0090519Y0069304D03*
X0090457Y0069552D03*
X0091573Y0070606D03*
X0089899Y0077488D03*
X0095541Y0077488D03*
X0084009Y0068746D03*
D488*
X0088101Y0068808D03*
X0088101Y0068932D03*
X0088101Y0069676D03*
X0089527Y0068808D03*
X0092875Y0070048D03*
X0091325Y0072838D03*
X0091325Y0072900D03*
X0091325Y0073830D03*
X0095603Y0073768D03*
X0095603Y0073706D03*
X0095603Y0073644D03*
X0095603Y0073520D03*
X0095603Y0073458D03*
X0095603Y0073396D03*
X0095603Y0073334D03*
X0095603Y0073210D03*
X0095603Y0073148D03*
X0095603Y0073086D03*
X0095603Y0073024D03*
X0095603Y0072900D03*
X0095603Y0072838D03*
X0095603Y0072776D03*
X0095603Y0072714D03*
X0095603Y0072590D03*
X0095603Y0072528D03*
X0095603Y0072466D03*
X0095603Y0072404D03*
X0095603Y0072280D03*
X0095603Y0072218D03*
X0100377Y0073024D03*
X0100377Y0073086D03*
X0100377Y0073644D03*
X0100377Y0073706D03*
X0100377Y0073768D03*
X0100377Y0069986D03*
X0100377Y0069924D03*
X0100377Y0069862D03*
X0086427Y0072218D03*
X0086427Y0072280D03*
X0086427Y0072404D03*
X0086427Y0072466D03*
X0086427Y0072528D03*
X0086427Y0072590D03*
X0086427Y0072714D03*
X0086427Y0072776D03*
X0086427Y0072838D03*
X0086427Y0072900D03*
X0086427Y0073024D03*
X0086427Y0073086D03*
X0086427Y0073148D03*
X0086427Y0073210D03*
X0086427Y0073334D03*
X0086427Y0073396D03*
X0086427Y0073458D03*
X0086427Y0073520D03*
X0086427Y0073644D03*
X0086427Y0073706D03*
X0086427Y0073768D03*
X0086427Y0073830D03*
X0086427Y0074326D03*
X0086427Y0074388D03*
X0086427Y0074450D03*
X0086427Y0074512D03*
X0084753Y0073830D03*
X0084753Y0073768D03*
X0084753Y0072900D03*
D489*
X0083451Y0072714D03*
X0083451Y0074016D03*
X0084009Y0068808D03*
X0089961Y0077426D03*
X0095479Y0077426D03*
X0095975Y0070234D03*
X0099261Y0070234D03*
D490*
X0099447Y0073892D03*
X0101803Y0073892D03*
X0102795Y0073892D03*
X0104221Y0073892D03*
X0104283Y0073272D03*
X0097029Y0073892D03*
X0095665Y0073892D03*
X0093619Y0072652D03*
X0092999Y0070482D03*
X0093867Y0069180D03*
X0095231Y0068870D03*
X0095231Y0070110D03*
X0091387Y0073272D03*
X0089899Y0073892D03*
X0084815Y0073272D03*
X0084691Y0073892D03*
X0081219Y0073892D03*
X0081157Y0073582D03*
X0083947Y0070110D03*
X0085249Y0070110D03*
X0085249Y0068870D03*
D491*
X0090860Y0068870D03*
X0092348Y0068870D03*
D492*
X0089527Y0069180D03*
X0088101Y0068870D03*
X0088101Y0070110D03*
X0086427Y0072342D03*
X0086427Y0072652D03*
X0086427Y0073272D03*
X0086427Y0073582D03*
X0091325Y0073892D03*
X0095603Y0073582D03*
X0095603Y0073272D03*
X0095603Y0072652D03*
X0095603Y0072342D03*
D493*
X0095448Y0077364D03*
X0083978Y0068870D03*
D494*
X0091139Y0069242D03*
X0091263Y0069552D03*
X0091263Y0069614D03*
X0091263Y0069676D03*
X0092565Y0069056D03*
X0092565Y0068994D03*
X0092689Y0069428D03*
D495*
X0092627Y0069180D03*
X0092069Y0069180D03*
X0091945Y0069490D03*
X0081343Y0072652D03*
D496*
X0091139Y0069180D03*
D497*
X0088752Y0069366D03*
D498*
X0084598Y0069366D03*
X0084598Y0069428D03*
X0084598Y0069552D03*
X0084598Y0069614D03*
X0092968Y0072528D03*
D499*
X0098672Y0069490D03*
D500*
X0092875Y0074264D03*
X0088721Y0069490D03*
D501*
X0084598Y0069490D03*
D502*
X0084567Y0070296D03*
X0081839Y0072466D03*
X0088659Y0069552D03*
X0098641Y0069552D03*
X0098765Y0070420D03*
X0103539Y0072528D03*
X0103539Y0074202D03*
D503*
X0102764Y0072962D03*
X0101834Y0071412D03*
X0101834Y0069800D03*
X0097060Y0072962D03*
X0093836Y0071412D03*
X0092162Y0072962D03*
X0090612Y0074574D03*
X0089868Y0072962D03*
X0090364Y0069800D03*
X0087016Y0069800D03*
X0085342Y0069800D03*
D504*
X0084753Y0072962D03*
X0086427Y0072962D03*
X0092875Y0074574D03*
X0095603Y0072962D03*
X0100377Y0072962D03*
X0100377Y0069800D03*
D505*
X0098052Y0069800D03*
X0096998Y0069800D03*
X0099478Y0072962D03*
X0103508Y0074574D03*
X0104252Y0072962D03*
X0092782Y0069800D03*
X0091356Y0072962D03*
X0088070Y0069800D03*
X0083854Y0069800D03*
X0082676Y0072962D03*
X0081932Y0074574D03*
X0083978Y0074574D03*
D506*
X0087481Y0072962D03*
X0088907Y0072962D03*
X0093867Y0069800D03*
X0095293Y0069800D03*
X0098765Y0074574D03*
X0101803Y0072962D03*
D507*
X0100935Y0074574D03*
X0096223Y0074574D03*
X0091883Y0069800D03*
X0091325Y0069800D03*
X0085559Y0074574D03*
D508*
X0090178Y0074140D03*
X0090178Y0072590D03*
X0091604Y0069986D03*
X0101648Y0070234D03*
X0103074Y0072590D03*
X0103074Y0074140D03*
X0087202Y0090880D03*
D509*
X0087171Y0090942D03*
X0098269Y0090942D03*
X0098269Y0076744D03*
X0099323Y0072652D03*
X0100501Y0072652D03*
X0102919Y0072652D03*
X0104097Y0072652D03*
X0093929Y0070110D03*
X0091201Y0072652D03*
X0090023Y0072652D03*
X0088783Y0072652D03*
X0087171Y0076744D03*
D510*
X0087574Y0072652D03*
X0091604Y0070110D03*
D511*
X0095138Y0070234D03*
X0096936Y0074078D03*
X0096192Y0074512D03*
X0098238Y0074140D03*
X0101710Y0074078D03*
X0101710Y0070172D03*
D512*
X0099261Y0070172D03*
X0092317Y0074016D03*
X0089341Y0070172D03*
X0085373Y0074078D03*
X0083451Y0073954D03*
X0083451Y0072776D03*
D513*
X0095944Y0070172D03*
D514*
X0089310Y0070234D03*
X0088318Y0072156D03*
X0085466Y0074140D03*
X0087140Y0076620D03*
X0087140Y0091066D03*
D515*
X0098300Y0091128D03*
X0098300Y0076558D03*
X0098176Y0072714D03*
X0093650Y0072776D03*
X0086024Y0070234D03*
D516*
X0088721Y0070296D03*
X0088783Y0070358D03*
X0088783Y0070420D03*
X0092875Y0074326D03*
X0098703Y0072466D03*
X0098703Y0070296D03*
X0083947Y0072466D03*
X0081901Y0074202D03*
D517*
X0084598Y0070420D03*
X0086520Y0070358D03*
X0085962Y0074202D03*
X0090612Y0074326D03*
X0090612Y0072404D03*
X0092968Y0073458D03*
X0096502Y0070358D03*
X0096502Y0070296D03*
X0103508Y0072404D03*
X0103508Y0074326D03*
D518*
X0088783Y0070544D03*
X0086551Y0070296D03*
X0081901Y0074326D03*
D519*
X0081839Y0072404D03*
X0084567Y0070358D03*
X0086489Y0070420D03*
X0092813Y0073334D03*
D520*
X0094487Y0070420D03*
X0101183Y0070420D03*
X0101183Y0072404D03*
X0101183Y0072466D03*
X0101183Y0074326D03*
D521*
X0100935Y0072342D03*
X0100935Y0070482D03*
X0094735Y0070482D03*
D522*
X0092937Y0072342D03*
X0088783Y0070482D03*
X0098765Y0070482D03*
X0098765Y0074264D03*
D523*
X0096161Y0070482D03*
D524*
X0086210Y0070482D03*
D525*
X0084598Y0070482D03*
X0090612Y0072342D03*
X0103508Y0072342D03*
D526*
X0098765Y0070544D03*
X0098765Y0074326D03*
X0093061Y0073520D03*
D527*
X0092875Y0074512D03*
X0096099Y0070544D03*
X0086179Y0070544D03*
D528*
X0088814Y0070606D03*
D529*
X0088318Y0072280D03*
X0086210Y0074140D03*
X0085528Y0074450D03*
X0087202Y0076868D03*
X0089744Y0077736D03*
X0095696Y0077736D03*
X0096192Y0074450D03*
X0098672Y0072218D03*
X0100966Y0074450D03*
X0084598Y0070606D03*
X0081870Y0072218D03*
X0087202Y0090818D03*
D530*
X0098300Y0091066D03*
X0098300Y0076620D03*
X0093650Y0072714D03*
X0092348Y0074078D03*
X0091604Y0070668D03*
D531*
X0087667Y0072590D03*
X0084443Y0072590D03*
X0084443Y0074140D03*
X0100935Y0072280D03*
X0103539Y0072218D03*
X0103539Y0074512D03*
D532*
X0098765Y0074388D03*
X0098207Y0076992D03*
X0092937Y0072280D03*
X0087233Y0076992D03*
X0087233Y0090694D03*
X0098207Y0090694D03*
D533*
X0098207Y0090632D03*
X0087233Y0090632D03*
X0087233Y0077054D03*
X0092751Y0073272D03*
X0098703Y0072342D03*
X0098207Y0077054D03*
D534*
X0093247Y0073582D03*
X0088349Y0072342D03*
D535*
X0083978Y0072342D03*
D536*
X0081839Y0072342D03*
D537*
X0087264Y0077116D03*
X0090612Y0074202D03*
X0090612Y0072528D03*
X0090612Y0072466D03*
X0098734Y0074202D03*
X0098176Y0077116D03*
X0103508Y0072466D03*
X0098176Y0090570D03*
X0087264Y0090570D03*
D538*
X0086365Y0074016D03*
X0084567Y0074078D03*
X0099261Y0074140D03*
X0099261Y0072590D03*
D539*
X0101710Y0072652D03*
D540*
X0098176Y0072652D03*
D541*
X0084567Y0072652D03*
D542*
X0081312Y0072714D03*
X0087140Y0076558D03*
X0087140Y0091128D03*
D543*
X0093650Y0072838D03*
D544*
X0098765Y0073210D03*
X0098765Y0073334D03*
X0098765Y0073396D03*
X0098765Y0073458D03*
X0098765Y0073520D03*
D545*
X0092875Y0074450D03*
X0092627Y0073210D03*
X0081901Y0074388D03*
D546*
X0081901Y0073520D03*
X0081901Y0073458D03*
X0081901Y0073396D03*
X0081901Y0073334D03*
X0081901Y0073210D03*
X0087295Y0077302D03*
X0098145Y0077302D03*
X0098145Y0090384D03*
X0087295Y0090384D03*
D547*
X0098765Y0073272D03*
D548*
X0081901Y0073272D03*
D549*
X0090612Y0074264D03*
X0103508Y0074264D03*
D550*
X0085931Y0074264D03*
X0081901Y0074264D03*
D551*
X0083978Y0074388D03*
D552*
X0098238Y0076868D03*
X0098238Y0090818D03*
D553*
X0087202Y0076930D03*
D554*
X0098114Y0077364D03*
D555*
X0089992Y0077364D03*
D556*
X0087326Y0077364D03*
D557*
X0098114Y0077426D03*
X0098114Y0090260D03*
D558*
X0087326Y0090260D03*
X0087326Y0077426D03*
D559*
X0098114Y0077488D03*
D560*
X0087357Y0077488D03*
X0087357Y0090198D03*
X0098083Y0090198D03*
D561*
X0098083Y0090136D03*
X0087357Y0090136D03*
X0087357Y0077550D03*
X0098083Y0077550D03*
D562*
X0098083Y0077612D03*
X0087357Y0077612D03*
D563*
X0098052Y0077674D03*
X0092720Y0091872D03*
D564*
X0095696Y0077674D03*
X0089744Y0077674D03*
D565*
X0087388Y0077674D03*
D566*
X0098052Y0077736D03*
D567*
X0087388Y0077736D03*
X0092720Y0091376D03*
X0092720Y0091438D03*
X0092720Y0091500D03*
X0092720Y0091624D03*
D568*
X0088008Y0077798D03*
X0097432Y0077798D03*
D569*
X0097432Y0077860D03*
X0096502Y0080154D03*
X0088938Y0080154D03*
X0088876Y0080030D03*
X0088008Y0077860D03*
X0092720Y0090260D03*
D570*
X0088969Y0080340D03*
X0088969Y0080278D03*
X0088845Y0079968D03*
X0096533Y0080092D03*
X0096595Y0079968D03*
X0097463Y0077922D03*
D571*
X0096471Y0080278D03*
X0096471Y0080340D03*
X0088907Y0080092D03*
X0087977Y0077922D03*
D572*
X0097463Y0077984D03*
D573*
X0087977Y0077984D03*
D574*
X0087946Y0078046D03*
X0088380Y0079162D03*
X0088442Y0079224D03*
X0088504Y0079348D03*
X0096936Y0079348D03*
X0096998Y0079224D03*
X0097060Y0079162D03*
X0097494Y0078046D03*
X0092720Y0090198D03*
D575*
X0088473Y0085672D03*
X0088349Y0079100D03*
X0088349Y0079038D03*
X0096471Y0080588D03*
X0096471Y0080650D03*
X0097029Y0082076D03*
X0097525Y0078108D03*
X0097029Y0085610D03*
D576*
X0096967Y0085672D03*
X0097091Y0079100D03*
X0097091Y0079038D03*
X0088969Y0080588D03*
X0088969Y0080650D03*
X0088411Y0082076D03*
X0087915Y0078108D03*
X0088411Y0085610D03*
D577*
X0088597Y0085796D03*
X0088225Y0082200D03*
X0088101Y0078604D03*
X0087977Y0078418D03*
X0096471Y0080774D03*
X0096905Y0081890D03*
X0097277Y0078728D03*
X0097401Y0078542D03*
X0097525Y0078232D03*
X0097525Y0078170D03*
D578*
X0097463Y0078418D03*
X0097339Y0078604D03*
X0097215Y0082200D03*
X0096843Y0085796D03*
X0088969Y0080774D03*
X0088535Y0081890D03*
X0088163Y0078728D03*
X0088039Y0078542D03*
X0087915Y0078232D03*
X0087915Y0078170D03*
D579*
X0087946Y0078294D03*
X0088008Y0078480D03*
X0088566Y0081828D03*
X0096874Y0081828D03*
X0097432Y0078480D03*
X0097494Y0078294D03*
X0096750Y0085920D03*
D580*
X0096812Y0085858D03*
X0097494Y0078356D03*
X0088628Y0085858D03*
X0087946Y0078356D03*
D581*
X0097339Y0078666D03*
D582*
X0088101Y0078666D03*
D583*
X0088194Y0078790D03*
X0088194Y0078852D03*
X0088256Y0078914D03*
X0089000Y0080712D03*
X0088504Y0081952D03*
X0088442Y0082014D03*
X0088504Y0085734D03*
X0096440Y0080712D03*
X0096936Y0081952D03*
X0096998Y0082014D03*
X0097184Y0078914D03*
X0097246Y0078852D03*
X0097246Y0078790D03*
X0096936Y0085734D03*
D584*
X0097153Y0078976D03*
X0088349Y0082138D03*
D585*
X0088287Y0078976D03*
X0097091Y0082138D03*
D586*
X0096998Y0079286D03*
X0088442Y0079286D03*
D587*
X0088597Y0079534D03*
X0096471Y0080464D03*
X0096781Y0079658D03*
X0096905Y0079472D03*
X0096905Y0079410D03*
D588*
X0096843Y0079534D03*
X0088969Y0080464D03*
X0088659Y0079658D03*
X0088535Y0079472D03*
X0088535Y0079410D03*
D589*
X0088628Y0079596D03*
X0096812Y0079596D03*
D590*
X0096750Y0079720D03*
X0096688Y0079782D03*
X0096688Y0079844D03*
X0096440Y0080402D03*
X0089000Y0080402D03*
X0088690Y0079720D03*
D591*
X0088752Y0079782D03*
X0088752Y0079844D03*
D592*
X0088783Y0079906D03*
X0096657Y0079906D03*
D593*
X0096564Y0080030D03*
D594*
X0096502Y0080216D03*
X0088938Y0080216D03*
D595*
X0089000Y0080526D03*
X0096440Y0080526D03*
D596*
X0096440Y0080836D03*
X0089000Y0080836D03*
D597*
X0088225Y0085486D03*
X0088721Y0085982D03*
X0096471Y0080960D03*
X0096471Y0080898D03*
X0096719Y0085982D03*
D598*
X0097215Y0085486D03*
X0088969Y0080960D03*
X0088969Y0080898D03*
D599*
X0089000Y0081022D03*
X0088690Y0081704D03*
X0088814Y0086044D03*
X0092720Y0090136D03*
X0096688Y0081642D03*
X0096440Y0081022D03*
D600*
X0096471Y0081084D03*
X0088969Y0081084D03*
D601*
X0096440Y0081146D03*
D602*
X0089000Y0081146D03*
D603*
X0088969Y0081208D03*
X0088845Y0081518D03*
X0096471Y0081208D03*
X0096595Y0081518D03*
X0097401Y0085424D03*
D604*
X0096440Y0081332D03*
X0096440Y0081270D03*
X0088938Y0086168D03*
X0092720Y0090074D03*
D605*
X0096502Y0086168D03*
X0089000Y0081332D03*
X0089000Y0081270D03*
D606*
X0088969Y0081394D03*
X0096471Y0081394D03*
D607*
X0096502Y0081456D03*
D608*
X0088938Y0081456D03*
D609*
X0088008Y0082262D03*
X0088876Y0086106D03*
X0096626Y0081580D03*
D610*
X0096564Y0086106D03*
X0088814Y0081580D03*
D611*
X0088752Y0081642D03*
X0096626Y0086044D03*
X0096750Y0081704D03*
D612*
X0096781Y0081766D03*
X0088659Y0081766D03*
D613*
X0097401Y0082262D03*
D614*
X0097587Y0082324D03*
X0097587Y0085362D03*
D615*
X0087853Y0085362D03*
X0087853Y0082324D03*
D616*
X0087667Y0082386D03*
X0097773Y0082386D03*
D617*
X0097990Y0082448D03*
D618*
X0087450Y0082448D03*
D619*
X0087295Y0082510D03*
X0098145Y0082510D03*
D620*
X0098331Y0082572D03*
X0098517Y0082944D03*
X0098517Y0083006D03*
X0098517Y0084556D03*
X0098517Y0084680D03*
X0086923Y0084680D03*
X0086923Y0084556D03*
X0086923Y0083006D03*
X0086923Y0082944D03*
X0087109Y0082572D03*
D621*
X0098424Y0082634D03*
X0098424Y0085052D03*
D622*
X0087016Y0085052D03*
X0087016Y0082634D03*
D623*
X0086985Y0082696D03*
X0086985Y0084990D03*
X0098455Y0084990D03*
X0098455Y0082696D03*
D624*
X0098455Y0082758D03*
X0098455Y0084928D03*
X0086985Y0084928D03*
X0086985Y0082758D03*
D625*
X0098486Y0082820D03*
X0098486Y0082882D03*
X0098486Y0084742D03*
X0098486Y0084804D03*
X0098486Y0084866D03*
X0098362Y0085114D03*
D626*
X0087078Y0085114D03*
X0086954Y0084866D03*
X0086954Y0084804D03*
X0086954Y0084742D03*
X0086954Y0082882D03*
X0086954Y0082820D03*
D627*
X0086923Y0083068D03*
X0086923Y0084618D03*
X0098517Y0084618D03*
X0098517Y0083068D03*
D628*
X0098548Y0083130D03*
X0098548Y0083192D03*
X0098548Y0083254D03*
X0098548Y0083316D03*
X0098548Y0084370D03*
X0098548Y0084432D03*
X0098548Y0084494D03*
X0092720Y0089826D03*
D629*
X0086892Y0084494D03*
X0086892Y0084432D03*
X0086892Y0084370D03*
X0086892Y0083316D03*
X0086892Y0083254D03*
X0086892Y0083192D03*
X0086892Y0083130D03*
D630*
X0086861Y0083378D03*
X0086861Y0083688D03*
X0098579Y0083688D03*
X0098579Y0083378D03*
X0098579Y0084308D03*
D631*
X0098579Y0084246D03*
X0098579Y0084184D03*
X0098579Y0084122D03*
X0098579Y0084060D03*
X0098579Y0083936D03*
X0098579Y0083874D03*
X0098579Y0083812D03*
X0098579Y0083750D03*
X0098579Y0083626D03*
X0098579Y0083564D03*
X0098579Y0083502D03*
X0098579Y0083440D03*
X0086861Y0083440D03*
X0086861Y0083502D03*
X0086861Y0083564D03*
X0086861Y0083626D03*
X0086861Y0083750D03*
X0086861Y0083812D03*
X0086861Y0083874D03*
X0086861Y0083936D03*
X0086861Y0084060D03*
X0086861Y0084122D03*
X0086861Y0084184D03*
X0086861Y0084246D03*
D632*
X0086861Y0083998D03*
X0098579Y0083998D03*
D633*
X0086892Y0084308D03*
D634*
X0098176Y0085176D03*
D635*
X0087264Y0085176D03*
D636*
X0087481Y0085238D03*
X0097959Y0085238D03*
D637*
X0097804Y0085300D03*
D638*
X0087636Y0085300D03*
D639*
X0088039Y0085424D03*
D640*
X0097091Y0085548D03*
D641*
X0088349Y0085548D03*
D642*
X0088690Y0085920D03*
D643*
X0089031Y0086230D03*
X0096409Y0086230D03*
D644*
X0096316Y0086292D03*
D645*
X0089124Y0086292D03*
D646*
X0096192Y0086354D03*
D647*
X0089248Y0086354D03*
D648*
X0089527Y0086416D03*
X0095913Y0086416D03*
D649*
X0092720Y0086478D03*
X0092720Y0086602D03*
X0092720Y0087904D03*
D650*
X0092720Y0086540D03*
D651*
X0092720Y0086664D03*
X0092720Y0086726D03*
X0092720Y0087842D03*
D652*
X0092720Y0087718D03*
X0092720Y0086788D03*
D653*
X0092720Y0086850D03*
D654*
X0092720Y0086912D03*
X0092720Y0086974D03*
X0092720Y0087036D03*
X0092720Y0087594D03*
X0092720Y0087656D03*
D655*
X0092720Y0087532D03*
X0092720Y0087098D03*
D656*
X0092720Y0087160D03*
D657*
X0092720Y0087222D03*
X0092720Y0087284D03*
X0092720Y0087346D03*
X0092720Y0087408D03*
D658*
X0092720Y0087470D03*
D659*
X0092720Y0087780D03*
D660*
X0092720Y0087966D03*
D661*
X0092689Y0088028D03*
D662*
X0092720Y0088090D03*
D663*
X0092720Y0088152D03*
D664*
X0092720Y0088214D03*
X0092720Y0088276D03*
D665*
X0092720Y0088338D03*
D666*
X0092720Y0088400D03*
D667*
X0092720Y0088462D03*
D668*
X0092720Y0088524D03*
D669*
X0092720Y0088586D03*
X0092720Y0088648D03*
D670*
X0092720Y0088710D03*
D671*
X0092720Y0088772D03*
X0092720Y0088834D03*
D672*
X0092720Y0088896D03*
D673*
X0092720Y0088958D03*
X0092720Y0089764D03*
D674*
X0092720Y0089020D03*
D675*
X0092720Y0089082D03*
X0092720Y0089702D03*
D676*
X0092720Y0089144D03*
D677*
X0092720Y0089206D03*
X0092720Y0089268D03*
X0092720Y0089578D03*
D678*
X0092720Y0089330D03*
D679*
X0092720Y0089392D03*
X0092720Y0089454D03*
X0092720Y0089516D03*
D680*
X0092720Y0089640D03*
D681*
X0098021Y0089826D03*
X0087419Y0089826D03*
D682*
X0087419Y0089888D03*
X0098021Y0089888D03*
D683*
X0092720Y0089888D03*
D684*
X0098021Y0089950D03*
X0087419Y0089950D03*
D685*
X0092720Y0089950D03*
D686*
X0098052Y0090012D03*
D687*
X0092720Y0090012D03*
D688*
X0087388Y0090012D03*
D689*
X0098052Y0090074D03*
D690*
X0092720Y0092058D03*
X0092720Y0092120D03*
X0092720Y0092244D03*
X0092720Y0092306D03*
X0087388Y0090074D03*
D691*
X0098114Y0090322D03*
D692*
X0092720Y0090322D03*
D693*
X0087326Y0090322D03*
D694*
X0092720Y0090384D03*
D695*
X0092720Y0090446D03*
D696*
X0092720Y0090508D03*
X0092720Y0090570D03*
D697*
X0092720Y0090632D03*
D698*
X0092720Y0090694D03*
X0092720Y0090756D03*
X0092720Y0090818D03*
X0092720Y0090880D03*
X0092720Y0091004D03*
D699*
X0092720Y0090942D03*
D700*
X0092720Y0091066D03*
X0092720Y0091128D03*
X0092720Y0091190D03*
X0092720Y0091314D03*
D701*
X0092720Y0091252D03*
D702*
X0092720Y0091562D03*
D703*
X0092720Y0091686D03*
X0092720Y0091748D03*
X0092720Y0091810D03*
X0092720Y0091934D03*
X0092720Y0091996D03*
D704*
X0092720Y0092182D03*
D705*
X0092720Y0092368D03*
X0092720Y0092430D03*
X0092720Y0092554D03*
X0092720Y0092616D03*
D706*
X0092720Y0092492D03*
D707*
X0092720Y0092678D03*
X0092720Y0092740D03*
X0092720Y0092864D03*
X0092720Y0092926D03*
D708*
X0092720Y0092802D03*
D709*
X0092720Y0092988D03*
M02*
