%
M48
M72
T01C0.0138
T02C0.0354
T03C0.0400
T04C0.1300
%
T01
X1950Y2225
X2950Y4225
X2950Y5225
X2950Y6225
X2950Y7225
X1950Y7225
X2950Y8225
X2950Y9225
X2950Y10225
X3350Y10775
X3350Y11775
X3350Y12325
X5087Y12562
X5087Y13362
X6150Y13575
X6150Y12275
X4450Y10725
X4450Y10225
X4450Y9225
X4450Y8225
X4450Y7225
X4450Y6225
X4450Y5225
X4450Y4225
X5950Y4225
X5950Y5225
X6950Y6425
X7950Y5225
X8950Y3725
X9950Y5225
X11450Y5225
X11450Y6225
X12150Y6725
X11200Y8075
X9950Y8075
X8950Y8075
X7800Y9225
X8300Y9675
X8950Y11225
X8700Y12275
X8700Y12975
X8700Y14775
X7500Y15825
X7550Y17025
X7000Y17225
X5950Y17725
X5950Y18725
X6950Y18725
X7950Y18725
X10000Y18225
X10950Y18225
X11450Y19225
X12950Y19725
X13950Y19725
X14100Y18975
X14950Y19725
X15950Y19725
X16950Y19725
X17950Y19725
X18900Y19675
X18950Y18725
X19950Y17725
X19950Y16725
X19950Y16225
X18950Y15725
X18950Y16725
X17950Y16725
X17350Y16825
X17450Y17675
X17950Y15725
X17350Y15625
X16750Y14025
X16750Y13075
X18500Y13425
X18950Y13725
X18950Y14425
X20850Y12725
X20850Y10725
X18950Y9725
X18550Y8825
X18450Y8225
X18850Y8225
X20000Y7225
X18850Y6725
X19950Y5225
X20950Y4725
X19000Y4025
X18450Y4725
X17450Y4725
X17450Y3725
X16450Y3725
X15950Y1725
X14950Y1725
X13950Y1725
X12950Y1725
X11950Y1725
X10950Y1725
X12450Y3725
X12950Y3725
X12450Y5225
X15550Y6475
X17000Y7225
X16250Y8425
X16250Y9075
X17100Y9025
X16450Y10125
X14800Y10075
X14800Y10475
X13950Y11025
X14900Y11775
X14900Y12275
X14100Y13725
X13150Y12425
X12350Y11675
X12700Y11525
X11800Y10775
X10450Y9775
X12500Y9125
X13450Y9775
X13950Y9775
X13950Y9125
X14450Y9125
X18650Y11338
X13600Y15625
X13600Y16825
X11550Y16825
X10950Y16225
X10200Y16075
X4950Y17725
X4950Y18725
X2950Y18225
X1950Y18225
X2687Y15212
X2687Y14862
X4687Y14862
X4687Y14562
X1450Y10225
X5950Y9225
X6450Y8225
X5950Y2225
X5950Y1225
X4450Y1225
X4450Y2225
X16950Y1725
X17950Y1725
X18950Y1725
X19950Y2225
T02
X2450Y14359
X2450Y16091
T03
X2450Y19225
X3450Y19225
X4450Y19225
X5450Y19225
X6450Y19225
X7450Y19225
X8450Y19225
X9450Y19225
X10450Y19225
X10800Y20225
X9800Y20225
X8800Y20225
X7800Y20225
X6800Y20225
X5800Y20225
X4800Y20225
X3800Y20225
X2800Y20225
X1800Y20225
X1450Y19225
X1450Y8725
X1450Y7725
X1450Y6725
X1450Y5725
X1450Y4725
X1450Y3725
X7450Y1225
X8450Y1225
X9450Y1225
X10450Y1225
X11450Y1225
X12450Y1225
X14450Y1225
X15450Y1225
X16450Y1225
X17450Y1225
X18450Y1225
X19450Y1225
X19450Y10225
X19450Y11225
X19450Y12225
X20450Y12225
X20450Y11225
X20450Y10225
X19450Y20225
X18450Y20225
X17450Y20225
X16450Y20225
X15450Y20225
X14450Y20225
X13450Y20225
X12450Y20225
T04
X20450Y14725
X20450Y3225
X2450Y1225
M30
