G75*
%MOIN*%
%OFA0B0*%
%FSLAX25Y25*%
%IPPOS*%
%LPD*%
%AMOC8*
5,1,8,0,0,1.08239X$1,22.5*
%
%ADD10C,0.04343*%
%ADD11R,0.03300X0.05800*%
%ADD12C,0.08200*%
%ADD13R,0.08200X0.08200*%
%ADD14OC8,0.08200*%
%ADD15C,0.13800*%
D10*
X0024500Y0143589D03*
X0024500Y0160911D03*
D11*
X0034728Y0032750D03*
X0038272Y0032750D03*
D12*
X0014500Y0037250D03*
X0014500Y0047250D03*
X0014500Y0057250D03*
X0014500Y0067250D03*
X0014500Y0077250D03*
X0014500Y0087250D03*
X0074500Y0012250D03*
X0084500Y0012250D03*
X0094500Y0012250D03*
X0104500Y0012250D03*
X0114500Y0012250D03*
X0124500Y0012250D03*
X0144500Y0012250D03*
X0154500Y0012250D03*
X0164500Y0012250D03*
X0174500Y0012250D03*
X0184500Y0012250D03*
X0194500Y0012250D03*
X0104500Y0192250D03*
X0094500Y0192250D03*
X0084500Y0192250D03*
X0074500Y0192250D03*
X0064500Y0192250D03*
X0054500Y0192250D03*
X0044500Y0192250D03*
X0034500Y0192250D03*
X0024500Y0192250D03*
X0014500Y0192250D03*
X0018000Y0202250D03*
X0028000Y0202250D03*
X0038000Y0202250D03*
X0048000Y0202250D03*
X0058000Y0202250D03*
X0068000Y0202250D03*
X0078000Y0202250D03*
X0088000Y0202250D03*
X0098000Y0202250D03*
X0108000Y0202250D03*
X0124500Y0202250D03*
X0134500Y0202250D03*
X0144500Y0202250D03*
X0154500Y0202250D03*
X0164500Y0202250D03*
X0174500Y0202250D03*
X0184500Y0202250D03*
D13*
X0194500Y0202250D03*
D14*
X0194500Y0122250D03*
X0194500Y0112250D03*
X0194500Y0102250D03*
X0204500Y0102250D03*
X0204500Y0112250D03*
X0204500Y0122250D03*
D15*
X0024500Y0012250D03*
X0204500Y0032250D03*
X0204500Y0147250D03*
M02*
