G75*
%MOIN*%
%OFA0B0*%
%FSLAX25Y25*%
%IPPOS*%
%LPD*%
%AMOC8*
5,1,8,0,0,1.08239X$1,22.5*
%
%ADD10C,0.00800*%
%ADD11C,0.01600*%
%ADD12C,0.01000*%
%ADD13C,0.00500*%
%ADD14C,0.00400*%
%ADD15C,0.00600*%
%ADD16C,0.01200*%
%ADD17C,0.00200*%
%ADD18C,0.00300*%
%ADD19C,0.00197*%
%ADD20C,0.00000*%
%ADD21C,0.00100*%
%ADD22R,0.32545X0.00130*%
%ADD23R,0.34490X0.00130*%
%ADD24R,0.35398X0.00130*%
%ADD25R,0.36176X0.00130*%
%ADD26R,0.36694X0.00130*%
%ADD27R,0.37213X0.00130*%
%ADD28R,0.37602X0.00130*%
%ADD29R,0.38121X0.00130*%
%ADD30R,0.38380X0.00130*%
%ADD31R,0.38639X0.00130*%
%ADD32R,0.39028X0.00130*%
%ADD33R,0.39417X0.00130*%
%ADD34R,0.39547X0.00130*%
%ADD35R,0.39806X0.00130*%
%ADD36R,0.40065X0.00130*%
%ADD37R,0.40195X0.00130*%
%ADD38R,0.40455X0.00130*%
%ADD39R,0.40714X0.00130*%
%ADD40R,0.40843X0.00130*%
%ADD41R,0.40973X0.00130*%
%ADD42R,0.41103X0.00130*%
%ADD43R,0.41233X0.00130*%
%ADD44R,0.41362X0.00130*%
%ADD45R,0.41492X0.00130*%
%ADD46R,0.41621X0.00130*%
%ADD47R,0.41751X0.00130*%
%ADD48R,0.41751X0.00130*%
%ADD49R,0.41881X0.00130*%
%ADD50R,0.42011X0.00130*%
%ADD51R,0.42011X0.00130*%
%ADD52R,0.42140X0.00130*%
%ADD53R,0.42270X0.00130*%
%ADD54R,0.42270X0.00130*%
%ADD55R,0.06742X0.00130*%
%ADD56R,0.02204X0.00130*%
%ADD57R,0.01815X0.00130*%
%ADD58R,0.04149X0.00130*%
%ADD59R,0.01945X0.00130*%
%ADD60R,0.03630X0.00130*%
%ADD61R,0.07650X0.00130*%
%ADD62R,0.03501X0.00130*%
%ADD63R,0.09595X0.00130*%
%ADD64R,0.04279X0.00130*%
%ADD65R,0.01556X0.00130*%
%ADD66R,0.01296X0.00130*%
%ADD67R,0.03630X0.00130*%
%ADD68R,0.01426X0.00130*%
%ADD69R,0.03112X0.00130*%
%ADD70R,0.01685X0.00130*%
%ADD71R,0.02982X0.00130*%
%ADD72R,0.03501X0.00130*%
%ADD73R,0.04927X0.00130*%
%ADD74R,0.04149X0.00130*%
%ADD75R,0.01296X0.00130*%
%ADD76R,0.01297X0.00130*%
%ADD77R,0.01037X0.00130*%
%ADD78R,0.03371X0.00130*%
%ADD79R,0.01167X0.00130*%
%ADD80R,0.02852X0.00130*%
%ADD81R,0.02723X0.00130*%
%ADD82R,0.03242X0.00130*%
%ADD83R,0.04927X0.00130*%
%ADD84R,0.04019X0.00130*%
%ADD85R,0.01167X0.00130*%
%ADD86R,0.01167X0.00130*%
%ADD87R,0.00907X0.00130*%
%ADD88R,0.03242X0.00130*%
%ADD89R,0.02593X0.00130*%
%ADD90R,0.01037X0.00130*%
%ADD91R,0.04927X0.00130*%
%ADD92R,0.04019X0.00130*%
%ADD93R,0.01167X0.00130*%
%ADD94R,0.01037X0.00130*%
%ADD95R,0.00778X0.00130*%
%ADD96R,0.00907X0.00130*%
%ADD97R,0.02464X0.00130*%
%ADD98R,0.01037X0.00130*%
%ADD99R,0.02463X0.00130*%
%ADD100R,0.03242X0.00130*%
%ADD101R,0.04019X0.00130*%
%ADD102R,0.00778X0.00130*%
%ADD103R,0.02982X0.00130*%
%ADD104R,0.00907X0.00130*%
%ADD105R,0.02334X0.00130*%
%ADD106R,0.01037X0.00130*%
%ADD107R,0.03112X0.00130*%
%ADD108R,0.04797X0.00130*%
%ADD109R,0.04149X0.00130*%
%ADD110R,0.01037X0.00130*%
%ADD111R,0.00907X0.00130*%
%ADD112R,0.00778X0.00130*%
%ADD113R,0.02852X0.00130*%
%ADD114R,0.02334X0.00130*%
%ADD115R,0.01037X0.00130*%
%ADD116R,0.02204X0.00130*%
%ADD117R,0.03112X0.00130*%
%ADD118R,0.04797X0.00130*%
%ADD119R,0.00908X0.00130*%
%ADD120R,0.02204X0.00130*%
%ADD121R,0.02204X0.00130*%
%ADD122R,0.03241X0.00130*%
%ADD123R,0.01426X0.00130*%
%ADD124R,0.02074X0.00130*%
%ADD125R,0.00908X0.00130*%
%ADD126R,0.02593X0.00130*%
%ADD127R,0.02075X0.00130*%
%ADD128R,0.01297X0.00130*%
%ADD129R,0.04279X0.00130*%
%ADD130R,0.02074X0.00130*%
%ADD131R,0.03371X0.00130*%
%ADD132R,0.02593X0.00130*%
%ADD133R,0.01945X0.00130*%
%ADD134R,0.04279X0.00130*%
%ADD135R,0.04149X0.00130*%
%ADD136R,0.01945X0.00130*%
%ADD137R,0.01815X0.00130*%
%ADD138R,0.04797X0.00130*%
%ADD139R,0.00778X0.00130*%
%ADD140R,0.01296X0.00130*%
%ADD141R,0.01556X0.00130*%
%ADD142R,0.04279X0.00130*%
%ADD143R,0.01815X0.00130*%
%ADD144R,0.04797X0.00130*%
%ADD145R,0.01686X0.00130*%
%ADD146R,0.00648X0.00130*%
%ADD147R,0.01686X0.00130*%
%ADD148R,0.01556X0.00130*%
%ADD149R,0.03760X0.00130*%
%ADD150R,0.00648X0.00130*%
%ADD151R,0.01297X0.00130*%
%ADD152R,0.01426X0.00130*%
%ADD153R,0.03760X0.00130*%
%ADD154R,0.00648X0.00130*%
%ADD155R,0.01297X0.00130*%
%ADD156R,0.01426X0.00130*%
%ADD157R,0.03890X0.00130*%
%ADD158R,0.00648X0.00130*%
%ADD159R,0.00130X0.00130*%
%ADD160R,0.00648X0.00130*%
%ADD161R,0.00259X0.00130*%
%ADD162R,0.00519X0.00130*%
%ADD163R,0.00908X0.00130*%
%ADD164R,0.02075X0.00130*%
%ADD165R,0.00648X0.00130*%
%ADD166R,0.00259X0.00130*%
%ADD167R,0.00519X0.00130*%
%ADD168R,0.01686X0.00130*%
%ADD169R,0.00259X0.00130*%
%ADD170R,0.00519X0.00130*%
%ADD171R,0.01556X0.00130*%
%ADD172R,0.01685X0.00130*%
%ADD173R,0.04408X0.00130*%
%ADD174R,0.00389X0.00130*%
%ADD175R,0.01556X0.00130*%
%ADD176R,0.02334X0.00130*%
%ADD177R,0.04538X0.00130*%
%ADD178R,0.00389X0.00130*%
%ADD179R,0.02464X0.00130*%
%ADD180R,0.01426X0.00130*%
%ADD181R,0.01815X0.00130*%
%ADD182R,0.02593X0.00130*%
%ADD183R,0.00389X0.00130*%
%ADD184R,0.01815X0.00130*%
%ADD185R,0.02723X0.00130*%
%ADD186R,0.00259X0.00130*%
%ADD187R,0.02853X0.00130*%
%ADD188R,0.00259X0.00130*%
%ADD189R,0.00130X0.00130*%
%ADD190R,0.02853X0.00130*%
%ADD191R,0.00389X0.00130*%
%ADD192R,0.00259X0.00130*%
%ADD193R,0.01945X0.00130*%
%ADD194R,0.00259X0.00130*%
%ADD195R,0.02982X0.00130*%
%ADD196R,0.00778X0.00130*%
%ADD197R,0.00130X0.00130*%
%ADD198R,0.02204X0.00130*%
%ADD199R,0.00519X0.00130*%
%ADD200R,0.02723X0.00130*%
%ADD201R,0.02204X0.00130*%
%ADD202R,0.03241X0.00130*%
%ADD203R,0.01037X0.00130*%
%ADD204R,0.00130X0.00130*%
%ADD205R,0.02075X0.00130*%
%ADD206R,0.02334X0.00130*%
%ADD207R,0.03241X0.00130*%
%ADD208R,0.02075X0.00130*%
%ADD209R,0.02464X0.00130*%
%ADD210R,0.03112X0.00130*%
%ADD211R,0.03112X0.00130*%
%ADD212R,0.00130X0.00130*%
%ADD213R,0.02463X0.00130*%
%ADD214R,0.02204X0.00130*%
%ADD215R,0.03371X0.00130*%
%ADD216R,0.02852X0.00130*%
%ADD217R,0.01426X0.00130*%
%ADD218R,0.03890X0.00130*%
%ADD219R,0.04279X0.00130*%
%ADD220R,0.02852X0.00130*%
%ADD221R,0.02982X0.00130*%
%ADD222R,0.02463X0.00130*%
%ADD223R,0.04020X0.00130*%
%ADD224R,0.04409X0.00130*%
%ADD225R,0.04279X0.00130*%
%ADD226R,0.04798X0.00130*%
%ADD227R,0.03630X0.00130*%
%ADD228R,0.03501X0.00130*%
%ADD229R,0.05187X0.00130*%
%ADD230R,0.05057X0.00130*%
%ADD231R,0.42529X0.00130*%
%ADD232R,0.42529X0.00130*%
%ADD233R,0.42529X0.00130*%
%ADD234R,0.42529X0.00130*%
%ADD235R,0.15300X0.00130*%
%ADD236R,0.10762X0.00130*%
%ADD237R,0.16078X0.00130*%
%ADD238R,0.14522X0.00130*%
%ADD239R,0.02334X0.00130*%
%ADD240R,0.15689X0.00130*%
%ADD241R,0.14133X0.00130*%
%ADD242R,0.02074X0.00130*%
%ADD243R,0.15559X0.00130*%
%ADD244R,0.13874X0.00130*%
%ADD245R,0.15430X0.00130*%
%ADD246R,0.13744X0.00130*%
%ADD247R,0.15300X0.00130*%
%ADD248R,0.13615X0.00130*%
%ADD249R,0.15300X0.00130*%
%ADD250R,0.13485X0.00130*%
%ADD251R,0.15170X0.00130*%
%ADD252R,0.13356X0.00130*%
%ADD253R,0.15170X0.00130*%
%ADD254R,0.13356X0.00130*%
%ADD255R,0.15170X0.00130*%
%ADD256R,0.13226X0.00130*%
%ADD257R,0.01815X0.00130*%
%ADD258R,0.02723X0.00130*%
%ADD259R,0.01815X0.00130*%
%ADD260R,0.15041X0.00130*%
%ADD261R,0.13226X0.00130*%
%ADD262R,0.15041X0.00130*%
%ADD263R,0.13096X0.00130*%
%ADD264R,0.14911X0.00130*%
%ADD265R,0.13096X0.00130*%
%ADD266R,0.00130X0.00130*%
%ADD267R,0.14911X0.00130*%
%ADD268R,0.13096X0.00130*%
%ADD269R,0.14781X0.00130*%
%ADD270R,0.13096X0.00130*%
%ADD271R,0.14781X0.00130*%
%ADD272R,0.00519X0.00130*%
%ADD273R,0.14781X0.00130*%
%ADD274R,0.14652X0.00130*%
%ADD275R,0.16208X0.00130*%
%ADD276R,0.14652X0.00130*%
%ADD277R,0.15948X0.00130*%
%ADD278R,0.15559X0.00130*%
%ADD279R,0.14522X0.00130*%
%ADD280R,0.15041X0.00130*%
%ADD281R,0.14522X0.00130*%
%ADD282R,0.14652X0.00130*%
%ADD283R,0.14393X0.00130*%
%ADD284R,0.14263X0.00130*%
%ADD285R,0.14393X0.00130*%
%ADD286R,0.14004X0.00130*%
%ADD287R,0.13744X0.00130*%
%ADD288R,0.14263X0.00130*%
%ADD289R,0.02723X0.00130*%
%ADD290R,0.14263X0.00130*%
%ADD291R,0.13485X0.00130*%
%ADD292R,0.03112X0.00130*%
%ADD293R,0.14263X0.00130*%
%ADD294R,0.03501X0.00130*%
%ADD295R,0.14133X0.00130*%
%ADD296R,0.14133X0.00130*%
%ADD297R,0.04538X0.00130*%
%ADD298R,0.14004X0.00130*%
%ADD299R,0.05057X0.00130*%
%ADD300R,0.00648X0.00130*%
%ADD301R,0.01945X0.00130*%
%ADD302R,0.14004X0.00130*%
%ADD303R,0.01815X0.00130*%
%ADD304R,0.13874X0.00130*%
%ADD305R,0.02334X0.00130*%
%ADD306R,0.13874X0.00130*%
%ADD307R,0.13096X0.00130*%
%ADD308R,0.13744X0.00130*%
%ADD309R,0.13096X0.00130*%
%ADD310R,0.13744X0.00130*%
%ADD311R,0.13226X0.00130*%
%ADD312R,0.02593X0.00130*%
%ADD313R,0.13615X0.00130*%
%ADD314R,0.13355X0.00130*%
%ADD315R,0.02593X0.00130*%
%ADD316R,0.13355X0.00130*%
%ADD317R,0.02593X0.00130*%
%ADD318R,0.13485X0.00130*%
%ADD319R,0.13355X0.00130*%
%ADD320R,0.13615X0.00130*%
%ADD321R,0.02074X0.00130*%
%ADD322R,0.02853X0.00130*%
%ADD323R,0.13874X0.00130*%
%ADD324R,0.03890X0.00130*%
%ADD325R,0.14263X0.00130*%
%ADD326R,0.03371X0.00130*%
%ADD327R,0.13485X0.00130*%
%ADD328R,0.41881X0.00130*%
%ADD329R,0.41751X0.00130*%
%ADD330R,0.41621X0.00130*%
%ADD331R,0.41492X0.00130*%
%ADD332R,0.41233X0.00130*%
%ADD333R,0.41103X0.00130*%
%ADD334R,0.40973X0.00130*%
%ADD335R,0.40843X0.00130*%
%ADD336R,0.40714X0.00130*%
%ADD337R,0.40455X0.00130*%
%ADD338R,0.40325X0.00130*%
%ADD339R,0.40065X0.00130*%
%ADD340R,0.39936X0.00130*%
%ADD341R,0.39677X0.00130*%
%ADD342R,0.39417X0.00130*%
%ADD343R,0.39158X0.00130*%
%ADD344R,0.38769X0.00130*%
%ADD345R,0.38509X0.00130*%
%ADD346R,0.38121X0.00130*%
%ADD347R,0.37861X0.00130*%
%ADD348R,0.37343X0.00130*%
%ADD349R,0.36824X0.00130*%
%ADD350R,0.36435X0.00130*%
%ADD351R,0.35657X0.00130*%
%ADD352R,0.43307X0.00172*%
%ADD353R,0.43307X0.00172*%
%ADD354R,0.00344X0.00172*%
%ADD355R,0.42276X0.00172*%
%ADD356R,0.42620X0.00172*%
%ADD357R,0.42963X0.00172*%
%ADD358R,0.02750X0.00172*%
%ADD359R,0.02750X0.00172*%
%ADD360R,0.01031X0.00172*%
%ADD361R,0.02234X0.00172*%
%ADD362R,0.02922X0.00172*%
%ADD363R,0.01719X0.00172*%
%ADD364R,0.03437X0.00172*%
%ADD365R,0.03952X0.00172*%
%ADD366R,0.01375X0.00172*%
%ADD367R,0.02234X0.00172*%
%ADD368R,0.02921X0.00172*%
%ADD369R,0.02578X0.00172*%
%ADD370R,0.00859X0.00172*%
%ADD371R,0.01891X0.00172*%
%ADD372R,0.00687X0.00172*%
%ADD373R,0.00859X0.00172*%
%ADD374R,0.01203X0.00172*%
%ADD375R,0.03265X0.00172*%
%ADD376R,0.01203X0.00172*%
%ADD377R,0.02063X0.00172*%
%ADD378R,0.02406X0.00172*%
%ADD379R,0.02578X0.00172*%
%ADD380R,0.03093X0.00172*%
%ADD381R,0.01547X0.00172*%
%ADD382R,0.02062X0.00172*%
%ADD383R,0.01546X0.00172*%
%ADD384R,0.01890X0.00172*%
%ADD385R,0.03093X0.00172*%
%ADD386R,0.01031X0.00172*%
%ADD387R,0.01203X0.00172*%
%ADD388R,0.02750X0.00172*%
%ADD389R,0.02234X0.00172*%
%ADD390R,0.02406X0.00172*%
%ADD391R,0.02922X0.00172*%
%ADD392R,0.00172X0.00172*%
%ADD393R,0.03265X0.00172*%
%ADD394R,0.00172X0.00172*%
%ADD395R,0.01375X0.00172*%
%ADD396R,0.03437X0.00172*%
%ADD397R,0.00516X0.00172*%
%ADD398R,0.00515X0.00172*%
%ADD399R,0.03609X0.00172*%
%ADD400R,0.06359X0.00172*%
%ADD401R,0.03781X0.00172*%
%ADD402R,0.01719X0.00172*%
%ADD403R,0.06187X0.00172*%
%ADD404R,0.03781X0.00172*%
%ADD405R,0.00344X0.00172*%
%ADD406R,0.01719X0.00172*%
%ADD407R,0.01891X0.00172*%
%ADD408R,0.00859X0.00172*%
%ADD409R,0.02578X0.00172*%
%ADD410R,0.01203X0.00172*%
%ADD411R,0.04124X0.00172*%
%ADD412R,0.04296X0.00172*%
%ADD413R,0.02406X0.00172*%
%ADD414R,0.04296X0.00172*%
%ADD415R,0.03953X0.00172*%
%ADD416R,0.04640X0.00172*%
%ADD417R,0.03094X0.00172*%
%ADD418R,0.04640X0.00172*%
%ADD419R,0.04468X0.00172*%
%ADD420R,0.41932X0.00172*%
%ADD421R,0.41245X0.00172*%
%ADD422R,0.40214X0.00172*%
%ADD423R,0.39370X0.00207*%
%ADD424R,0.39370X0.00207*%
%ADD425R,0.38748X0.00207*%
%ADD426R,0.38541X0.00207*%
%ADD427R,0.38749X0.00207*%
%ADD428R,0.03937X0.00207*%
%ADD429R,0.03108X0.00207*%
%ADD430R,0.02694X0.00207*%
%ADD431R,0.02901X0.00207*%
%ADD432R,0.02072X0.00207*%
%ADD433R,0.03522X0.00207*%
%ADD434R,0.01243X0.00207*%
%ADD435R,0.03108X0.00207*%
%ADD436R,0.03730X0.00207*%
%ADD437R,0.02279X0.00207*%
%ADD438R,0.02487X0.00207*%
%ADD439R,0.02072X0.00207*%
%ADD440R,0.02901X0.00207*%
%ADD441R,0.01658X0.00207*%
%ADD442R,0.03315X0.00207*%
%ADD443R,0.01036X0.00207*%
%ADD444R,0.03108X0.00207*%
%ADD445R,0.03730X0.00207*%
%ADD446R,0.02072X0.00207*%
%ADD447R,0.01658X0.00207*%
%ADD448R,0.02487X0.00207*%
%ADD449R,0.03108X0.00207*%
%ADD450R,0.01036X0.00207*%
%ADD451R,0.02901X0.00207*%
%ADD452R,0.03730X0.00207*%
%ADD453R,0.01865X0.00207*%
%ADD454R,0.01450X0.00207*%
%ADD455R,0.02487X0.00207*%
%ADD456R,0.01658X0.00207*%
%ADD457R,0.02901X0.00207*%
%ADD458R,0.01036X0.00207*%
%ADD459R,0.01657X0.00207*%
%ADD460R,0.01450X0.00207*%
%ADD461R,0.01243X0.00207*%
%ADD462R,0.01865X0.00207*%
%ADD463R,0.02694X0.00207*%
%ADD464R,0.00829X0.00207*%
%ADD465R,0.01036X0.00207*%
%ADD466R,0.06217X0.00207*%
%ADD467R,0.02072X0.00207*%
%ADD468R,0.02279X0.00207*%
%ADD469R,0.01036X0.00207*%
%ADD470R,0.06217X0.00207*%
%ADD471R,0.02279X0.00207*%
%ADD472R,0.02901X0.00207*%
%ADD473R,0.02072X0.00207*%
%ADD474R,0.01243X0.00207*%
%ADD475R,0.03108X0.00207*%
%ADD476R,0.02072X0.00207*%
%ADD477R,0.01243X0.00207*%
%ADD478R,0.06217X0.00207*%
%ADD479R,0.02280X0.00207*%
%ADD480R,0.01243X0.00207*%
%ADD481R,0.02280X0.00207*%
%ADD482R,0.01657X0.00207*%
%ADD483R,0.03730X0.00207*%
%ADD484R,0.02487X0.00207*%
%ADD485R,0.01036X0.00207*%
%ADD486R,0.01036X0.00207*%
%ADD487R,0.02072X0.00207*%
%ADD488R,0.01658X0.00207*%
%ADD489R,0.02694X0.00207*%
%ADD490R,0.01243X0.00207*%
%ADD491R,0.01657X0.00207*%
%ADD492R,0.06217X0.00207*%
%ADD493R,0.05595X0.00207*%
%ADD494R,0.02694X0.00207*%
%ADD495R,0.01865X0.00207*%
%ADD496R,0.00829X0.00207*%
%ADD497R,0.05595X0.00207*%
%ADD498R,0.00829X0.00207*%
%ADD499R,0.01865X0.00207*%
%ADD500R,0.05387X0.00207*%
%ADD501R,0.00622X0.00207*%
%ADD502R,0.00414X0.00207*%
%ADD503R,0.02694X0.00207*%
%ADD504R,0.01450X0.00207*%
%ADD505R,0.00414X0.00207*%
%ADD506R,0.03316X0.00207*%
%ADD507R,0.00207X0.00207*%
%ADD508R,0.03316X0.00207*%
%ADD509R,0.02486X0.00207*%
%ADD510R,0.06009X0.00207*%
%ADD511R,0.00622X0.00207*%
%ADD512R,0.06009X0.00207*%
%ADD513R,0.03937X0.00207*%
%ADD514R,0.02901X0.00207*%
%ADD515R,0.06009X0.00207*%
%ADD516R,0.14712X0.00207*%
%ADD517R,0.12847X0.00207*%
%ADD518R,0.06216X0.00207*%
%ADD519R,0.38334X0.00207*%
%ADD520R,0.38127X0.00207*%
%ADD521R,0.37713X0.00207*%
%ADD522R,0.37091X0.00207*%
%ADD523R,0.35847X0.00207*%
%ADD524R,0.39370X0.00181*%
%ADD525R,0.39370X0.00181*%
%ADD526R,0.39007X0.00181*%
%ADD527R,0.38644X0.00181*%
%ADD528R,0.39007X0.00181*%
%ADD529R,0.06531X0.00181*%
%ADD530R,0.05261X0.00181*%
%ADD531R,0.03266X0.00181*%
%ADD532R,0.02177X0.00181*%
%ADD533R,0.01270X0.00181*%
%ADD534R,0.02540X0.00181*%
%ADD535R,0.06531X0.00181*%
%ADD536R,0.06531X0.00181*%
%ADD537R,0.04717X0.00181*%
%ADD538R,0.02721X0.00181*%
%ADD539R,0.02177X0.00181*%
%ADD540R,0.01814X0.00181*%
%ADD541R,0.00907X0.00181*%
%ADD542R,0.06531X0.00181*%
%ADD543R,0.06350X0.00181*%
%ADD544R,0.04354X0.00181*%
%ADD545R,0.02540X0.00181*%
%ADD546R,0.01814X0.00181*%
%ADD547R,0.00907X0.00181*%
%ADD548R,0.01996X0.00181*%
%ADD549R,0.06713X0.00181*%
%ADD550R,0.06350X0.00181*%
%ADD551R,0.04173X0.00181*%
%ADD552R,0.01814X0.00181*%
%ADD553R,0.00907X0.00181*%
%ADD554R,0.06713X0.00181*%
%ADD555R,0.06350X0.00181*%
%ADD556R,0.03991X0.00181*%
%ADD557R,0.01996X0.00181*%
%ADD558R,0.01633X0.00181*%
%ADD559R,0.01270X0.00181*%
%ADD560R,0.06713X0.00181*%
%ADD561R,0.03991X0.00181*%
%ADD562R,0.01633X0.00181*%
%ADD563R,0.01451X0.00181*%
%ADD564R,0.03810X0.00181*%
%ADD565R,0.06894X0.00181*%
%ADD566R,0.03810X0.00181*%
%ADD567R,0.01451X0.00181*%
%ADD568R,0.03810X0.00181*%
%ADD569R,0.07076X0.00181*%
%ADD570R,0.03810X0.00181*%
%ADD571R,0.02359X0.00181*%
%ADD572R,0.01633X0.00181*%
%ADD573R,0.01451X0.00181*%
%ADD574R,0.03810X0.00181*%
%ADD575R,0.07076X0.00181*%
%ADD576R,0.03628X0.00181*%
%ADD577R,0.01088X0.00181*%
%ADD578R,0.01270X0.00181*%
%ADD579R,0.07257X0.00181*%
%ADD580R,0.03628X0.00181*%
%ADD581R,0.02722X0.00181*%
%ADD582R,0.01270X0.00181*%
%ADD583R,0.00181X0.00181*%
%ADD584R,0.01088X0.00181*%
%ADD585R,0.07439X0.00181*%
%ADD586R,0.03628X0.00181*%
%ADD587R,0.02722X0.00181*%
%ADD588R,0.01270X0.00181*%
%ADD589R,0.00181X0.00181*%
%ADD590R,0.01088X0.00181*%
%ADD591R,0.01089X0.00181*%
%ADD592R,0.07439X0.00181*%
%ADD593R,0.02903X0.00181*%
%ADD594R,0.01270X0.00181*%
%ADD595R,0.00181X0.00181*%
%ADD596R,0.00726X0.00181*%
%ADD597R,0.07620X0.00181*%
%ADD598R,0.02903X0.00181*%
%ADD599R,0.01089X0.00181*%
%ADD600R,0.00363X0.00181*%
%ADD601R,0.00726X0.00181*%
%ADD602R,0.01633X0.00181*%
%ADD603R,0.07983X0.00181*%
%ADD604R,0.00544X0.00181*%
%ADD605R,0.07620X0.00181*%
%ADD606R,0.06350X0.00181*%
%ADD607R,0.00726X0.00181*%
%ADD608R,0.02903X0.00181*%
%ADD609R,0.01089X0.00181*%
%ADD610R,0.00544X0.00181*%
%ADD611R,0.00726X0.00181*%
%ADD612R,0.01270X0.00181*%
%ADD613R,0.07257X0.00181*%
%ADD614R,0.00726X0.00181*%
%ADD615R,0.00363X0.00181*%
%ADD616R,0.01452X0.00181*%
%ADD617R,0.06894X0.00181*%
%ADD618R,0.01814X0.00181*%
%ADD619R,0.02722X0.00181*%
%ADD620R,0.00907X0.00181*%
%ADD621R,0.00363X0.00181*%
%ADD622R,0.03810X0.00181*%
%ADD623R,0.06713X0.00181*%
%ADD624R,0.02540X0.00181*%
%ADD625R,0.02359X0.00181*%
%ADD626R,0.01996X0.00181*%
%ADD627R,0.01089X0.00181*%
%ADD628R,0.01452X0.00181*%
%ADD629R,0.03629X0.00181*%
%ADD630R,0.01452X0.00181*%
%ADD631R,0.00726X0.00181*%
%ADD632R,0.06894X0.00181*%
%ADD633R,0.01815X0.00181*%
%ADD634R,0.06531X0.00181*%
%ADD635R,0.02177X0.00181*%
%ADD636R,0.01815X0.00181*%
%ADD637R,0.07076X0.00181*%
%ADD638R,0.02903X0.00181*%
%ADD639R,0.01815X0.00181*%
%ADD640R,0.13063X0.00181*%
%ADD641R,0.25581X0.00181*%
%ADD642R,0.38644X0.00181*%
%ADD643R,0.38463X0.00181*%
%ADD644R,0.37919X0.00181*%
%ADD645R,0.37374X0.00181*%
%ADD646R,0.36104X0.00181*%
%ADD647R,0.00248X0.00062*%
%ADD648R,0.00124X0.00062*%
%ADD649R,0.00186X0.00062*%
%ADD650R,0.00434X0.00062*%
%ADD651R,0.00434X0.00062*%
%ADD652R,0.00744X0.00062*%
%ADD653R,0.00620X0.00062*%
%ADD654R,0.00806X0.00062*%
%ADD655R,0.00992X0.00062*%
%ADD656R,0.00868X0.00062*%
%ADD657R,0.00496X0.00062*%
%ADD658R,0.01054X0.00062*%
%ADD659R,0.01178X0.00062*%
%ADD660R,0.01116X0.00062*%
%ADD661R,0.01116X0.00062*%
%ADD662R,0.01302X0.00062*%
%ADD663R,0.01736X0.00062*%
%ADD664R,0.00558X0.00062*%
%ADD665R,0.00558X0.00062*%
%ADD666R,0.01488X0.00062*%
%ADD667R,0.00434X0.00062*%
%ADD668R,0.00434X0.00062*%
%ADD669R,0.01798X0.00062*%
%ADD670R,0.01736X0.00062*%
%ADD671R,0.00558X0.00062*%
%ADD672R,0.00558X0.00062*%
%ADD673R,0.01798X0.00062*%
%ADD674R,0.01612X0.00062*%
%ADD675R,0.01798X0.00062*%
%ADD676R,0.01860X0.00062*%
%ADD677R,0.01674X0.00062*%
%ADD678R,0.00682X0.00062*%
%ADD679R,0.01860X0.00062*%
%ADD680R,0.00744X0.00062*%
%ADD681R,0.00372X0.00062*%
%ADD682R,0.00496X0.00062*%
%ADD683R,0.00248X0.00062*%
%ADD684R,0.00496X0.00062*%
%ADD685R,0.00806X0.00062*%
%ADD686R,0.00496X0.00062*%
%ADD687R,0.00062X0.00062*%
%ADD688R,0.00372X0.00062*%
%ADD689R,0.00372X0.00062*%
%ADD690R,0.00372X0.00062*%
%ADD691R,0.01798X0.00062*%
%ADD692R,0.01922X0.00062*%
%ADD693R,0.01674X0.00062*%
%ADD694R,0.01736X0.00062*%
%ADD695R,0.01922X0.00062*%
%ADD696R,0.01612X0.00062*%
%ADD697R,0.00434X0.00062*%
%ADD698R,0.00496X0.00062*%
%ADD699R,0.00434X0.00062*%
%ADD700R,0.00496X0.00062*%
%ADD701R,0.00372X0.00062*%
%ADD702R,0.00806X0.00062*%
%ADD703R,0.00620X0.00062*%
%ADD704R,0.00682X0.00062*%
%ADD705R,0.00682X0.00062*%
%ADD706R,0.00124X0.00062*%
%ADD707R,0.00062X0.00062*%
%ADD708R,0.00310X0.00062*%
%ADD709R,0.00186X0.00062*%
%ADD710R,0.01612X0.00062*%
%ADD711R,0.01426X0.00062*%
%ADD712R,0.01364X0.00062*%
%ADD713R,0.01488X0.00062*%
%ADD714R,0.01736X0.00062*%
%ADD715R,0.01116X0.00062*%
%ADD716R,0.01488X0.00062*%
%ADD717R,0.00992X0.00062*%
%ADD718R,0.01054X0.00062*%
%ADD719R,0.01302X0.00062*%
%ADD720R,0.01364X0.00062*%
%ADD721R,0.00992X0.00062*%
%ADD722R,0.01178X0.00062*%
%ADD723R,0.00930X0.00062*%
%ADD724R,0.00310X0.00062*%
%ADD725R,0.00868X0.00062*%
%ADD726R,0.01240X0.00062*%
%ADD727R,0.01364X0.00062*%
%ADD728R,0.01116X0.00062*%
%ADD729R,0.01302X0.00062*%
%ADD730R,0.01364X0.00062*%
%ADD731R,0.01550X0.00062*%
%ADD732R,0.00620X0.00062*%
%ADD733R,0.00682X0.00062*%
%ADD734R,0.00310X0.00062*%
%ADD735R,0.00620X0.00062*%
%ADD736R,0.00186X0.00062*%
%ADD737R,0.00062X0.00062*%
%ADD738R,0.01984X0.00062*%
%ADD739R,0.01240X0.00062*%
%ADD740R,0.01984X0.00062*%
%ADD741R,0.01984X0.00062*%
%ADD742R,0.01984X0.00062*%
%ADD743R,0.01550X0.00062*%
%ADD744R,0.01488X0.00062*%
%ADD745R,0.01302X0.00062*%
%ADD746R,0.00930X0.00062*%
%ADD747R,0.01054X0.00062*%
%ADD748R,0.02170X0.00062*%
%ADD749R,0.00062X0.00062*%
%ADD750R,0.02170X0.00062*%
%ADD751R,0.02294X0.00062*%
%ADD752R,0.02294X0.00062*%
%ADD753R,0.02418X0.00062*%
%ADD754R,0.02480X0.00062*%
%ADD755R,0.02604X0.00062*%
%ADD756R,0.02728X0.00062*%
%ADD757R,0.02914X0.00062*%
%ADD758R,0.00806X0.00062*%
%ADD759R,0.02914X0.00062*%
%ADD760R,0.03038X0.00062*%
%ADD761R,0.03038X0.00062*%
%ADD762R,0.04402X0.00062*%
%ADD763R,0.04526X0.00062*%
%ADD764R,0.04588X0.00062*%
%ADD765R,0.04588X0.00062*%
%ADD766R,0.04712X0.00062*%
%ADD767R,0.04712X0.00062*%
%ADD768R,0.04774X0.00062*%
%ADD769R,0.04836X0.00062*%
%ADD770R,0.04836X0.00062*%
%ADD771R,0.04960X0.00062*%
%ADD772R,0.04960X0.00062*%
%ADD773R,0.05022X0.00062*%
%ADD774R,0.05022X0.00062*%
%ADD775R,0.04960X0.00062*%
%ADD776R,0.04960X0.00062*%
%ADD777R,0.04898X0.00062*%
%ADD778R,0.04836X0.00062*%
%ADD779R,0.04836X0.00062*%
%ADD780R,0.04774X0.00062*%
%ADD781R,0.04712X0.00062*%
%ADD782R,0.04712X0.00062*%
%ADD783R,0.04650X0.00062*%
%ADD784R,0.04650X0.00062*%
%ADD785R,0.04650X0.00062*%
%ADD786R,0.04588X0.00062*%
%ADD787R,0.04526X0.00062*%
%ADD788R,0.04526X0.00062*%
%ADD789R,0.04774X0.00062*%
%ADD790R,0.05022X0.00062*%
%ADD791R,0.05084X0.00062*%
%ADD792R,0.05084X0.00062*%
%ADD793R,0.05146X0.00062*%
%ADD794R,0.05208X0.00062*%
%ADD795R,0.05270X0.00062*%
%ADD796R,0.05270X0.00062*%
%ADD797R,0.05332X0.00062*%
%ADD798R,0.05394X0.00062*%
%ADD799R,0.05394X0.00062*%
%ADD800R,0.05456X0.00062*%
%ADD801R,0.05394X0.00062*%
%ADD802R,0.05394X0.00062*%
%ADD803R,0.05270X0.00062*%
%ADD804R,0.05270X0.00062*%
%ADD805R,0.05146X0.00062*%
%ADD806R,0.05084X0.00062*%
%ADD807R,0.05208X0.00062*%
%ADD808R,0.05580X0.00062*%
%ADD809R,0.05580X0.00062*%
%ADD810R,0.05828X0.00062*%
%ADD811R,0.06138X0.00062*%
%ADD812R,0.06138X0.00062*%
%ADD813R,0.06448X0.00062*%
%ADD814R,0.06696X0.00062*%
%ADD815R,0.06882X0.00062*%
%ADD816R,0.06882X0.00062*%
%ADD817R,0.06820X0.00062*%
%ADD818R,0.06820X0.00062*%
%ADD819R,0.06758X0.00062*%
%ADD820R,0.06758X0.00062*%
%ADD821R,0.06696X0.00062*%
%ADD822R,0.06634X0.00062*%
%ADD823R,0.06634X0.00062*%
%ADD824R,0.06572X0.00062*%
%ADD825R,0.06572X0.00062*%
%ADD826R,0.06572X0.00062*%
%ADD827R,0.06634X0.00062*%
%ADD828R,0.06510X0.00062*%
%ADD829R,0.06510X0.00062*%
%ADD830R,0.06200X0.00062*%
%ADD831R,0.05890X0.00062*%
%ADD832R,0.05890X0.00062*%
%ADD833R,0.05332X0.00062*%
%ADD834R,0.04836X0.00062*%
%ADD835R,0.04836X0.00062*%
%ADD836R,0.05022X0.00062*%
%ADD837R,0.05456X0.00062*%
%ADD838R,0.05642X0.00062*%
%ADD839R,0.05642X0.00062*%
%ADD840R,0.05766X0.00062*%
%ADD841R,0.05766X0.00062*%
%ADD842R,0.06324X0.00062*%
%ADD843R,0.12586X0.00062*%
%ADD844R,0.12586X0.00062*%
%ADD845R,0.12462X0.00062*%
%ADD846R,0.12338X0.00062*%
%ADD847R,0.12338X0.00062*%
%ADD848R,0.12214X0.00062*%
%ADD849R,0.12090X0.00062*%
%ADD850R,0.12090X0.00062*%
%ADD851R,0.11966X0.00062*%
%ADD852R,0.11966X0.00062*%
%ADD853R,0.12462X0.00062*%
%ADD854R,0.12710X0.00062*%
%ADD855R,0.12772X0.00062*%
%ADD856R,0.12834X0.00062*%
%ADD857R,0.12958X0.00062*%
%ADD858R,0.13082X0.00062*%
%ADD859R,0.13206X0.00062*%
%ADD860R,0.13330X0.00062*%
%ADD861R,0.13330X0.00062*%
%ADD862R,0.13454X0.00062*%
%ADD863R,0.13578X0.00062*%
%ADD864R,0.13702X0.00062*%
%ADD865R,0.13826X0.00062*%
%ADD866R,0.13950X0.00062*%
%ADD867R,0.14074X0.00062*%
%ADD868R,0.14198X0.00062*%
%ADD869R,0.14198X0.00062*%
%ADD870R,0.14322X0.00062*%
%ADD871R,0.14446X0.00062*%
%ADD872R,0.14570X0.00062*%
%ADD873R,0.14570X0.00062*%
%ADD874R,0.14322X0.00062*%
%ADD875R,0.03348X0.00062*%
%ADD876R,0.03224X0.00062*%
%ADD877R,0.06386X0.00062*%
%ADD878R,0.03100X0.00062*%
%ADD879R,0.06014X0.00062*%
%ADD880R,0.02914X0.00062*%
%ADD881R,0.05766X0.00062*%
%ADD882R,0.02914X0.00062*%
%ADD883R,0.02790X0.00062*%
%ADD884R,0.02790X0.00062*%
%ADD885R,0.02170X0.00062*%
%ADD886R,0.04154X0.00062*%
%ADD887R,0.02170X0.00062*%
%ADD888R,0.03906X0.00062*%
%ADD889R,0.03658X0.00062*%
%ADD890R,0.03410X0.00062*%
%ADD891R,0.03410X0.00062*%
%ADD892R,0.03286X0.00062*%
%ADD893R,0.03286X0.00062*%
%ADD894R,0.03162X0.00062*%
%ADD895R,0.03162X0.00062*%
%ADD896R,0.03038X0.00062*%
%ADD897R,0.02914X0.00062*%
%ADD898R,0.02790X0.00062*%
%ADD899R,0.02666X0.00062*%
%ADD900R,0.02666X0.00062*%
%ADD901R,0.02542X0.00062*%
%ADD902R,0.02542X0.00062*%
%ADD903R,0.02418X0.00062*%
D10*
X0004500Y0016392D02*
X0004500Y0198108D01*
X0009500Y0194750D02*
X0012000Y0197250D01*
X0017000Y0197250D01*
X0019500Y0194750D01*
X0022000Y0197250D01*
X0027000Y0197250D01*
X0029500Y0194750D01*
X0032000Y0197250D01*
X0037000Y0197250D01*
X0039500Y0194750D01*
X0042000Y0197250D01*
X0047000Y0197250D01*
X0049500Y0194750D01*
X0052000Y0197250D01*
X0057000Y0197250D01*
X0059500Y0194750D01*
X0062000Y0197250D01*
X0067000Y0197250D01*
X0069500Y0194750D01*
X0072000Y0197250D01*
X0077000Y0197250D01*
X0079500Y0194750D01*
X0082000Y0197250D01*
X0087000Y0197250D01*
X0089500Y0194750D01*
X0092000Y0197250D01*
X0097000Y0197250D01*
X0099500Y0194750D01*
X0102000Y0197250D01*
X0107000Y0197250D01*
X0109500Y0194750D01*
X0109500Y0189750D01*
X0107000Y0187250D01*
X0102000Y0187250D01*
X0099500Y0189750D01*
X0097000Y0187250D01*
X0092000Y0187250D01*
X0089500Y0189750D01*
X0087000Y0187250D01*
X0082000Y0187250D01*
X0079500Y0189750D01*
X0077000Y0187250D01*
X0072000Y0187250D01*
X0069500Y0189750D01*
X0067000Y0187250D01*
X0062000Y0187250D01*
X0059500Y0189750D01*
X0057000Y0187250D01*
X0052000Y0187250D01*
X0049500Y0189750D01*
X0047000Y0187250D01*
X0042000Y0187250D01*
X0039500Y0189750D01*
X0037000Y0187250D01*
X0032000Y0187250D01*
X0029500Y0189750D01*
X0027000Y0187250D01*
X0022000Y0187250D01*
X0019500Y0189750D01*
X0017000Y0187250D01*
X0012000Y0187250D01*
X0009500Y0189750D01*
X0009500Y0194750D01*
X0013000Y0199750D02*
X0013000Y0204750D01*
X0015500Y0207250D01*
X0020500Y0207250D01*
X0023000Y0204750D01*
X0025500Y0207250D01*
X0030500Y0207250D01*
X0033000Y0204750D01*
X0035500Y0207250D01*
X0040500Y0207250D01*
X0043000Y0204750D01*
X0045500Y0207250D01*
X0050500Y0207250D01*
X0053000Y0204750D01*
X0055500Y0207250D01*
X0060500Y0207250D01*
X0063000Y0204750D01*
X0065500Y0207250D01*
X0070500Y0207250D01*
X0073000Y0204750D01*
X0075500Y0207250D01*
X0080500Y0207250D01*
X0083000Y0204750D01*
X0085500Y0207250D01*
X0090500Y0207250D01*
X0093000Y0204750D01*
X0095500Y0207250D01*
X0100500Y0207250D01*
X0103000Y0204750D01*
X0105500Y0207250D01*
X0110500Y0207250D01*
X0113000Y0204750D01*
X0113000Y0199750D01*
X0110500Y0197250D01*
X0105500Y0197250D01*
X0103000Y0199750D01*
X0100500Y0197250D01*
X0095500Y0197250D01*
X0093000Y0199750D01*
X0090500Y0197250D01*
X0085500Y0197250D01*
X0083000Y0199750D01*
X0080500Y0197250D01*
X0075500Y0197250D01*
X0073000Y0199750D01*
X0070500Y0197250D01*
X0065500Y0197250D01*
X0063000Y0199750D01*
X0060500Y0197250D01*
X0055500Y0197250D01*
X0053000Y0199750D01*
X0050500Y0197250D01*
X0045500Y0197250D01*
X0043000Y0199750D01*
X0040500Y0197250D01*
X0035500Y0197250D01*
X0033000Y0199750D01*
X0030500Y0197250D01*
X0025500Y0197250D01*
X0023000Y0199750D01*
X0020500Y0197250D01*
X0015500Y0197250D01*
X0013000Y0199750D01*
X0004500Y0198108D02*
X0004504Y0198450D01*
X0004517Y0198791D01*
X0004537Y0199132D01*
X0004566Y0199473D01*
X0004603Y0199813D01*
X0004648Y0200151D01*
X0004702Y0200489D01*
X0004763Y0200825D01*
X0004833Y0201160D01*
X0004911Y0201492D01*
X0004997Y0201823D01*
X0005090Y0202152D01*
X0005192Y0202478D01*
X0005302Y0202802D01*
X0005419Y0203123D01*
X0005544Y0203441D01*
X0005677Y0203756D01*
X0005817Y0204067D01*
X0005965Y0204376D01*
X0006120Y0204680D01*
X0006282Y0204981D01*
X0006452Y0205277D01*
X0006629Y0205570D01*
X0006813Y0205858D01*
X0007003Y0206142D01*
X0007201Y0206420D01*
X0007405Y0206694D01*
X0007616Y0206964D01*
X0007833Y0207227D01*
X0008057Y0207486D01*
X0008286Y0207739D01*
X0008522Y0207986D01*
X0008764Y0208228D01*
X0009011Y0208464D01*
X0009264Y0208693D01*
X0009523Y0208917D01*
X0009786Y0209134D01*
X0010056Y0209345D01*
X0010330Y0209549D01*
X0010608Y0209747D01*
X0010892Y0209937D01*
X0011180Y0210121D01*
X0011473Y0210298D01*
X0011769Y0210468D01*
X0012070Y0210630D01*
X0012374Y0210785D01*
X0012683Y0210933D01*
X0012994Y0211073D01*
X0013309Y0211206D01*
X0013627Y0211331D01*
X0013948Y0211448D01*
X0014272Y0211558D01*
X0014598Y0211660D01*
X0014927Y0211753D01*
X0015258Y0211839D01*
X0015590Y0211917D01*
X0015925Y0211987D01*
X0016261Y0212048D01*
X0016599Y0212102D01*
X0016937Y0212147D01*
X0017277Y0212184D01*
X0017618Y0212213D01*
X0017959Y0212233D01*
X0018300Y0212246D01*
X0018642Y0212250D01*
X0197429Y0212250D01*
X0197000Y0207250D02*
X0192000Y0207250D01*
X0189500Y0204750D01*
X0187000Y0207250D01*
X0182000Y0207250D01*
X0179500Y0204750D01*
X0177000Y0207250D01*
X0172000Y0207250D01*
X0169500Y0204750D01*
X0167000Y0207250D01*
X0162000Y0207250D01*
X0159500Y0204750D01*
X0157000Y0207250D01*
X0152000Y0207250D01*
X0149500Y0204750D01*
X0147000Y0207250D01*
X0142000Y0207250D01*
X0139500Y0204750D01*
X0137000Y0207250D01*
X0132000Y0207250D01*
X0129500Y0204750D01*
X0127000Y0207250D01*
X0122000Y0207250D01*
X0119500Y0204750D01*
X0119500Y0199750D01*
X0122000Y0197250D01*
X0127000Y0197250D01*
X0129500Y0199750D01*
X0132000Y0197250D01*
X0137000Y0197250D01*
X0139500Y0199750D01*
X0142000Y0197250D01*
X0147000Y0197250D01*
X0149500Y0199750D01*
X0152000Y0197250D01*
X0157000Y0197250D01*
X0159500Y0199750D01*
X0162000Y0197250D01*
X0167000Y0197250D01*
X0169500Y0199750D01*
X0172000Y0197250D01*
X0177000Y0197250D01*
X0179500Y0199750D01*
X0182000Y0197250D01*
X0187000Y0197250D01*
X0189500Y0199750D01*
X0192000Y0197250D01*
X0197000Y0197250D01*
X0199500Y0199750D01*
X0199500Y0204750D01*
X0197000Y0207250D01*
X0197429Y0212250D02*
X0197600Y0212248D01*
X0197771Y0212242D01*
X0197941Y0212231D01*
X0198111Y0212217D01*
X0198281Y0212198D01*
X0198451Y0212176D01*
X0198619Y0212149D01*
X0198788Y0212118D01*
X0198955Y0212083D01*
X0199121Y0212045D01*
X0199287Y0212002D01*
X0199451Y0211955D01*
X0199614Y0211904D01*
X0199776Y0211849D01*
X0199936Y0211790D01*
X0200095Y0211728D01*
X0200253Y0211662D01*
X0200409Y0211592D01*
X0200563Y0211518D01*
X0200715Y0211440D01*
X0200865Y0211359D01*
X0201014Y0211274D01*
X0201160Y0211186D01*
X0201304Y0211094D01*
X0201446Y0210998D01*
X0201585Y0210900D01*
X0201722Y0210797D01*
X0201857Y0210692D01*
X0201989Y0210583D01*
X0202118Y0210472D01*
X0202244Y0210357D01*
X0202368Y0210239D01*
X0202489Y0210118D01*
X0202607Y0209994D01*
X0202722Y0209868D01*
X0202833Y0209739D01*
X0202942Y0209607D01*
X0203047Y0209472D01*
X0203150Y0209335D01*
X0203248Y0209196D01*
X0203344Y0209054D01*
X0203436Y0208910D01*
X0203524Y0208764D01*
X0203609Y0208615D01*
X0203690Y0208465D01*
X0203768Y0208313D01*
X0203842Y0208159D01*
X0203912Y0208003D01*
X0203978Y0207845D01*
X0204040Y0207686D01*
X0204099Y0207526D01*
X0204154Y0207364D01*
X0204205Y0207201D01*
X0204252Y0207037D01*
X0204295Y0206871D01*
X0204333Y0206705D01*
X0204368Y0206538D01*
X0204399Y0206369D01*
X0204426Y0206201D01*
X0204448Y0206031D01*
X0204467Y0205861D01*
X0204481Y0205691D01*
X0204492Y0205521D01*
X0204498Y0205350D01*
X0204500Y0205179D01*
X0204500Y0162250D01*
X0214500Y0152250D01*
X0214500Y0022250D01*
X0204500Y0012250D01*
X0204500Y0009321D01*
X0199500Y0009750D02*
X0199500Y0014750D01*
X0197000Y0017250D01*
X0192000Y0017250D01*
X0189500Y0014750D01*
X0187000Y0017250D01*
X0182000Y0017250D01*
X0179500Y0014750D01*
X0177000Y0017250D01*
X0172000Y0017250D01*
X0169500Y0014750D01*
X0167000Y0017250D01*
X0162000Y0017250D01*
X0159500Y0014750D01*
X0157000Y0017250D01*
X0152000Y0017250D01*
X0149500Y0014750D01*
X0147000Y0017250D01*
X0142000Y0017250D01*
X0139500Y0014750D01*
X0139500Y0009750D01*
X0142000Y0007250D01*
X0147000Y0007250D01*
X0149500Y0009750D01*
X0152000Y0007250D01*
X0157000Y0007250D01*
X0159500Y0009750D01*
X0162000Y0007250D01*
X0167000Y0007250D01*
X0169500Y0009750D01*
X0172000Y0007250D01*
X0177000Y0007250D01*
X0179500Y0009750D01*
X0182000Y0007250D01*
X0187000Y0007250D01*
X0189500Y0009750D01*
X0192000Y0007250D01*
X0197000Y0007250D01*
X0199500Y0009750D01*
X0204500Y0009321D02*
X0204498Y0009150D01*
X0204492Y0008979D01*
X0204481Y0008809D01*
X0204467Y0008639D01*
X0204448Y0008469D01*
X0204426Y0008299D01*
X0204399Y0008131D01*
X0204368Y0007962D01*
X0204333Y0007795D01*
X0204295Y0007629D01*
X0204252Y0007463D01*
X0204205Y0007299D01*
X0204154Y0007136D01*
X0204099Y0006974D01*
X0204040Y0006814D01*
X0203978Y0006655D01*
X0203912Y0006497D01*
X0203842Y0006341D01*
X0203768Y0006187D01*
X0203690Y0006035D01*
X0203609Y0005885D01*
X0203524Y0005736D01*
X0203436Y0005590D01*
X0203344Y0005446D01*
X0203248Y0005304D01*
X0203150Y0005165D01*
X0203047Y0005028D01*
X0202942Y0004893D01*
X0202833Y0004761D01*
X0202722Y0004632D01*
X0202607Y0004506D01*
X0202489Y0004382D01*
X0202368Y0004261D01*
X0202244Y0004143D01*
X0202118Y0004028D01*
X0201989Y0003917D01*
X0201857Y0003808D01*
X0201722Y0003703D01*
X0201585Y0003600D01*
X0201446Y0003502D01*
X0201304Y0003406D01*
X0201160Y0003314D01*
X0201014Y0003226D01*
X0200865Y0003141D01*
X0200715Y0003060D01*
X0200563Y0002982D01*
X0200409Y0002908D01*
X0200253Y0002838D01*
X0200095Y0002772D01*
X0199936Y0002710D01*
X0199776Y0002651D01*
X0199614Y0002596D01*
X0199451Y0002545D01*
X0199287Y0002498D01*
X0199121Y0002455D01*
X0198955Y0002417D01*
X0198788Y0002382D01*
X0198619Y0002351D01*
X0198451Y0002324D01*
X0198281Y0002302D01*
X0198111Y0002283D01*
X0197941Y0002269D01*
X0197771Y0002258D01*
X0197600Y0002252D01*
X0197429Y0002250D01*
X0018642Y0002250D01*
X0018300Y0002254D01*
X0017959Y0002267D01*
X0017618Y0002287D01*
X0017277Y0002316D01*
X0016937Y0002353D01*
X0016599Y0002398D01*
X0016261Y0002452D01*
X0015925Y0002513D01*
X0015590Y0002583D01*
X0015258Y0002661D01*
X0014927Y0002747D01*
X0014598Y0002840D01*
X0014272Y0002942D01*
X0013948Y0003052D01*
X0013627Y0003169D01*
X0013309Y0003294D01*
X0012994Y0003427D01*
X0012683Y0003567D01*
X0012374Y0003715D01*
X0012070Y0003870D01*
X0011769Y0004032D01*
X0011473Y0004202D01*
X0011180Y0004379D01*
X0010892Y0004563D01*
X0010608Y0004753D01*
X0010330Y0004951D01*
X0010056Y0005155D01*
X0009786Y0005366D01*
X0009523Y0005583D01*
X0009264Y0005807D01*
X0009011Y0006036D01*
X0008764Y0006272D01*
X0008522Y0006514D01*
X0008286Y0006761D01*
X0008057Y0007014D01*
X0007833Y0007273D01*
X0007616Y0007536D01*
X0007405Y0007806D01*
X0007201Y0008080D01*
X0007003Y0008358D01*
X0006813Y0008642D01*
X0006629Y0008930D01*
X0006452Y0009223D01*
X0006282Y0009519D01*
X0006120Y0009820D01*
X0005965Y0010124D01*
X0005817Y0010433D01*
X0005677Y0010744D01*
X0005544Y0011059D01*
X0005419Y0011377D01*
X0005302Y0011698D01*
X0005192Y0012022D01*
X0005090Y0012348D01*
X0004997Y0012677D01*
X0004911Y0013008D01*
X0004833Y0013340D01*
X0004763Y0013675D01*
X0004702Y0014011D01*
X0004648Y0014349D01*
X0004603Y0014687D01*
X0004566Y0015027D01*
X0004537Y0015368D01*
X0004517Y0015709D01*
X0004504Y0016050D01*
X0004500Y0016392D01*
X0012000Y0032250D02*
X0017000Y0032250D01*
X0019500Y0034750D01*
X0019500Y0039750D01*
X0017000Y0042250D01*
X0019500Y0044750D01*
X0019500Y0049750D01*
X0017000Y0052250D01*
X0019500Y0054750D01*
X0019500Y0059750D01*
X0017000Y0062250D01*
X0019500Y0064750D01*
X0019500Y0069750D01*
X0017000Y0072250D01*
X0019500Y0074750D01*
X0019500Y0079750D01*
X0017000Y0082250D01*
X0019500Y0084750D01*
X0019500Y0089750D01*
X0017000Y0092250D01*
X0012000Y0092250D01*
X0009500Y0089750D01*
X0009500Y0084750D01*
X0012000Y0082250D01*
X0009500Y0079750D01*
X0009500Y0074750D01*
X0012000Y0072250D01*
X0009500Y0069750D01*
X0009500Y0064750D01*
X0012000Y0062250D01*
X0009500Y0059750D01*
X0009500Y0054750D01*
X0012000Y0052250D01*
X0009500Y0049750D01*
X0009500Y0044750D01*
X0012000Y0042250D01*
X0009500Y0039750D01*
X0009500Y0034750D01*
X0012000Y0032250D01*
X0069500Y0014750D02*
X0069500Y0009750D01*
X0072000Y0007250D01*
X0077000Y0007250D01*
X0079500Y0009750D01*
X0082000Y0007250D01*
X0087000Y0007250D01*
X0089500Y0009750D01*
X0092000Y0007250D01*
X0097000Y0007250D01*
X0099500Y0009750D01*
X0102000Y0007250D01*
X0107000Y0007250D01*
X0109500Y0009750D01*
X0112000Y0007250D01*
X0117000Y0007250D01*
X0119500Y0009750D01*
X0122000Y0007250D01*
X0127000Y0007250D01*
X0129500Y0009750D01*
X0129500Y0014750D01*
X0127000Y0017250D01*
X0122000Y0017250D01*
X0119500Y0014750D01*
X0117000Y0017250D01*
X0112000Y0017250D01*
X0109500Y0014750D01*
X0107000Y0017250D01*
X0102000Y0017250D01*
X0099500Y0014750D01*
X0097000Y0017250D01*
X0092000Y0017250D01*
X0089500Y0014750D01*
X0087000Y0017250D01*
X0082000Y0017250D01*
X0079500Y0014750D01*
X0077000Y0017250D01*
X0072000Y0017250D01*
X0069500Y0014750D01*
X0117177Y0088352D02*
X0115602Y0089927D01*
X0115602Y0124573D01*
X0117177Y0126148D01*
X0151823Y0126148D01*
X0153398Y0124573D01*
X0153398Y0089927D01*
X0151823Y0088352D01*
X0117177Y0088352D01*
X0073843Y0126100D02*
X0073843Y0132400D01*
X0072268Y0133974D01*
X0067937Y0133974D01*
X0060063Y0133974D02*
X0054157Y0133974D01*
X0054157Y0124526D01*
X0060063Y0124526D01*
X0058949Y0120187D02*
X0053437Y0120187D01*
X0050681Y0118612D02*
X0048319Y0116250D01*
X0050681Y0113888D01*
X0050681Y0118612D01*
X0048319Y0119006D02*
X0048319Y0116250D01*
X0048319Y0113494D01*
X0053437Y0112313D02*
X0058949Y0112313D01*
X0058949Y0120187D01*
X0067937Y0124526D02*
X0072268Y0124526D01*
X0073843Y0126100D01*
X0045563Y0120187D02*
X0040051Y0120187D01*
X0040051Y0112313D01*
X0045563Y0112313D01*
X0188181Y0119750D02*
X0188181Y0124750D01*
X0189500Y0124750D02*
X0189500Y0119750D01*
X0192000Y0117250D01*
X0207000Y0117250D01*
X0209500Y0114750D01*
X0209500Y0109750D01*
X0207000Y0107250D01*
X0192000Y0107250D01*
X0189500Y0104750D01*
X0189500Y0099750D01*
X0192000Y0097250D01*
X0207000Y0097250D01*
X0209500Y0099750D01*
X0209500Y0104750D01*
X0207000Y0107250D01*
X0207000Y0117250D02*
X0209500Y0119750D01*
X0209500Y0124750D01*
X0207000Y0127250D01*
X0192000Y0127250D01*
X0189500Y0124750D01*
X0192000Y0117250D02*
X0189500Y0114750D01*
X0189500Y0109750D01*
X0192000Y0107250D01*
X0196618Y0079250D02*
X0206500Y0079250D01*
X0211500Y0075313D02*
X0211500Y0063187D01*
X0206382Y0059250D02*
X0196618Y0059250D01*
X0191500Y0063187D02*
X0191500Y0075313D01*
X0196500Y0069250D02*
X0196502Y0069391D01*
X0196508Y0069532D01*
X0196518Y0069672D01*
X0196532Y0069812D01*
X0196550Y0069952D01*
X0196571Y0070091D01*
X0196597Y0070230D01*
X0196626Y0070368D01*
X0196660Y0070504D01*
X0196697Y0070640D01*
X0196738Y0070775D01*
X0196783Y0070909D01*
X0196832Y0071041D01*
X0196884Y0071172D01*
X0196940Y0071301D01*
X0197000Y0071428D01*
X0197063Y0071554D01*
X0197129Y0071678D01*
X0197200Y0071801D01*
X0197273Y0071921D01*
X0197350Y0072039D01*
X0197430Y0072155D01*
X0197514Y0072268D01*
X0197600Y0072379D01*
X0197690Y0072488D01*
X0197783Y0072594D01*
X0197878Y0072697D01*
X0197977Y0072798D01*
X0198078Y0072896D01*
X0198182Y0072991D01*
X0198289Y0073083D01*
X0198398Y0073172D01*
X0198510Y0073257D01*
X0198624Y0073340D01*
X0198740Y0073420D01*
X0198859Y0073496D01*
X0198980Y0073568D01*
X0199102Y0073638D01*
X0199227Y0073703D01*
X0199353Y0073766D01*
X0199481Y0073824D01*
X0199611Y0073879D01*
X0199742Y0073931D01*
X0199875Y0073978D01*
X0200009Y0074022D01*
X0200144Y0074063D01*
X0200280Y0074099D01*
X0200417Y0074131D01*
X0200555Y0074160D01*
X0200693Y0074185D01*
X0200833Y0074205D01*
X0200973Y0074222D01*
X0201113Y0074235D01*
X0201254Y0074244D01*
X0201394Y0074249D01*
X0201535Y0074250D01*
X0201676Y0074247D01*
X0201817Y0074240D01*
X0201957Y0074229D01*
X0202097Y0074214D01*
X0202237Y0074195D01*
X0202376Y0074173D01*
X0202514Y0074146D01*
X0202652Y0074116D01*
X0202788Y0074081D01*
X0202924Y0074043D01*
X0203058Y0074001D01*
X0203192Y0073955D01*
X0203324Y0073906D01*
X0203454Y0073852D01*
X0203583Y0073795D01*
X0203710Y0073735D01*
X0203836Y0073671D01*
X0203959Y0073603D01*
X0204081Y0073532D01*
X0204201Y0073458D01*
X0204318Y0073380D01*
X0204433Y0073299D01*
X0204546Y0073215D01*
X0204657Y0073128D01*
X0204765Y0073037D01*
X0204870Y0072944D01*
X0204973Y0072847D01*
X0205073Y0072748D01*
X0205170Y0072646D01*
X0205264Y0072541D01*
X0205355Y0072434D01*
X0205443Y0072324D01*
X0205528Y0072212D01*
X0205610Y0072097D01*
X0205689Y0071980D01*
X0205764Y0071861D01*
X0205836Y0071740D01*
X0205904Y0071617D01*
X0205969Y0071492D01*
X0206031Y0071365D01*
X0206088Y0071236D01*
X0206143Y0071106D01*
X0206193Y0070975D01*
X0206240Y0070842D01*
X0206283Y0070708D01*
X0206322Y0070572D01*
X0206357Y0070436D01*
X0206389Y0070299D01*
X0206416Y0070161D01*
X0206440Y0070022D01*
X0206460Y0069882D01*
X0206476Y0069742D01*
X0206488Y0069602D01*
X0206496Y0069461D01*
X0206500Y0069320D01*
X0206500Y0069180D01*
X0206496Y0069039D01*
X0206488Y0068898D01*
X0206476Y0068758D01*
X0206460Y0068618D01*
X0206440Y0068478D01*
X0206416Y0068339D01*
X0206389Y0068201D01*
X0206357Y0068064D01*
X0206322Y0067928D01*
X0206283Y0067792D01*
X0206240Y0067658D01*
X0206193Y0067525D01*
X0206143Y0067394D01*
X0206088Y0067264D01*
X0206031Y0067135D01*
X0205969Y0067008D01*
X0205904Y0066883D01*
X0205836Y0066760D01*
X0205764Y0066639D01*
X0205689Y0066520D01*
X0205610Y0066403D01*
X0205528Y0066288D01*
X0205443Y0066176D01*
X0205355Y0066066D01*
X0205264Y0065959D01*
X0205170Y0065854D01*
X0205073Y0065752D01*
X0204973Y0065653D01*
X0204870Y0065556D01*
X0204765Y0065463D01*
X0204657Y0065372D01*
X0204546Y0065285D01*
X0204433Y0065201D01*
X0204318Y0065120D01*
X0204201Y0065042D01*
X0204081Y0064968D01*
X0203959Y0064897D01*
X0203836Y0064829D01*
X0203710Y0064765D01*
X0203583Y0064705D01*
X0203454Y0064648D01*
X0203324Y0064594D01*
X0203192Y0064545D01*
X0203058Y0064499D01*
X0202924Y0064457D01*
X0202788Y0064419D01*
X0202652Y0064384D01*
X0202514Y0064354D01*
X0202376Y0064327D01*
X0202237Y0064305D01*
X0202097Y0064286D01*
X0201957Y0064271D01*
X0201817Y0064260D01*
X0201676Y0064253D01*
X0201535Y0064250D01*
X0201394Y0064251D01*
X0201254Y0064256D01*
X0201113Y0064265D01*
X0200973Y0064278D01*
X0200833Y0064295D01*
X0200693Y0064315D01*
X0200555Y0064340D01*
X0200417Y0064369D01*
X0200280Y0064401D01*
X0200144Y0064437D01*
X0200009Y0064478D01*
X0199875Y0064522D01*
X0199742Y0064569D01*
X0199611Y0064621D01*
X0199481Y0064676D01*
X0199353Y0064734D01*
X0199227Y0064797D01*
X0199102Y0064862D01*
X0198980Y0064932D01*
X0198859Y0065004D01*
X0198740Y0065080D01*
X0198624Y0065160D01*
X0198510Y0065243D01*
X0198398Y0065328D01*
X0198289Y0065417D01*
X0198182Y0065509D01*
X0198078Y0065604D01*
X0197977Y0065702D01*
X0197878Y0065803D01*
X0197783Y0065906D01*
X0197690Y0066012D01*
X0197600Y0066121D01*
X0197514Y0066232D01*
X0197430Y0066345D01*
X0197350Y0066461D01*
X0197273Y0066579D01*
X0197200Y0066699D01*
X0197129Y0066822D01*
X0197063Y0066946D01*
X0197000Y0067072D01*
X0196940Y0067199D01*
X0196884Y0067328D01*
X0196832Y0067459D01*
X0196783Y0067591D01*
X0196738Y0067725D01*
X0196697Y0067860D01*
X0196660Y0067996D01*
X0196626Y0068132D01*
X0196597Y0068270D01*
X0196571Y0068409D01*
X0196550Y0068548D01*
X0196532Y0068688D01*
X0196518Y0068828D01*
X0196508Y0068968D01*
X0196502Y0069109D01*
X0196500Y0069250D01*
D11*
X0194500Y0176250D02*
X0192500Y0179750D01*
X0196500Y0179750D01*
X0194500Y0176250D01*
X0186500Y0176250D02*
X0184500Y0179750D01*
X0182500Y0176250D01*
X0186500Y0176250D01*
X0030000Y0079250D02*
X0030000Y0075250D01*
X0026500Y0077250D01*
X0030000Y0079250D01*
X0026500Y0069250D02*
X0030000Y0067250D01*
X0026500Y0065250D01*
X0026500Y0069250D01*
X0008000Y0201250D02*
X0011000Y0202250D01*
X0008000Y0203250D01*
X0008000Y0201250D01*
D12*
X0078500Y0132750D02*
X0083500Y0132750D01*
X0149135Y0091502D02*
X0149137Y0091569D01*
X0149143Y0091635D01*
X0149153Y0091701D01*
X0149167Y0091766D01*
X0149184Y0091830D01*
X0149206Y0091893D01*
X0149231Y0091955D01*
X0149260Y0092015D01*
X0149293Y0092073D01*
X0149328Y0092129D01*
X0149368Y0092183D01*
X0149410Y0092234D01*
X0149455Y0092283D01*
X0149503Y0092329D01*
X0149554Y0092372D01*
X0149607Y0092412D01*
X0149663Y0092449D01*
X0149721Y0092482D01*
X0149780Y0092512D01*
X0149841Y0092538D01*
X0149904Y0092561D01*
X0149968Y0092579D01*
X0150033Y0092594D01*
X0150099Y0092605D01*
X0150165Y0092612D01*
X0150231Y0092615D01*
X0150298Y0092614D01*
X0150364Y0092609D01*
X0150430Y0092600D01*
X0150496Y0092587D01*
X0150560Y0092570D01*
X0150623Y0092550D01*
X0150685Y0092525D01*
X0150746Y0092497D01*
X0150805Y0092466D01*
X0150861Y0092431D01*
X0150916Y0092393D01*
X0150968Y0092351D01*
X0151017Y0092306D01*
X0151064Y0092259D01*
X0151108Y0092209D01*
X0151148Y0092156D01*
X0151186Y0092101D01*
X0151220Y0092044D01*
X0151251Y0091985D01*
X0151278Y0091924D01*
X0151301Y0091862D01*
X0151321Y0091798D01*
X0151337Y0091733D01*
X0151349Y0091668D01*
X0151357Y0091602D01*
X0151361Y0091535D01*
X0151361Y0091469D01*
X0151357Y0091402D01*
X0151349Y0091336D01*
X0151337Y0091271D01*
X0151321Y0091206D01*
X0151301Y0091142D01*
X0151278Y0091080D01*
X0151251Y0091019D01*
X0151220Y0090960D01*
X0151186Y0090903D01*
X0151148Y0090848D01*
X0151108Y0090795D01*
X0151064Y0090745D01*
X0151017Y0090698D01*
X0150968Y0090653D01*
X0150916Y0090611D01*
X0150861Y0090573D01*
X0150804Y0090538D01*
X0150746Y0090507D01*
X0150685Y0090479D01*
X0150623Y0090454D01*
X0150560Y0090434D01*
X0150496Y0090417D01*
X0150430Y0090404D01*
X0150364Y0090395D01*
X0150298Y0090390D01*
X0150231Y0090389D01*
X0150165Y0090392D01*
X0150099Y0090399D01*
X0150033Y0090410D01*
X0149968Y0090425D01*
X0149904Y0090443D01*
X0149841Y0090466D01*
X0149780Y0090492D01*
X0149721Y0090522D01*
X0149663Y0090555D01*
X0149607Y0090592D01*
X0149554Y0090632D01*
X0149503Y0090675D01*
X0149455Y0090721D01*
X0149410Y0090770D01*
X0149368Y0090821D01*
X0149328Y0090875D01*
X0149293Y0090931D01*
X0149260Y0090989D01*
X0149231Y0091049D01*
X0149206Y0091111D01*
X0149184Y0091174D01*
X0149167Y0091238D01*
X0149153Y0091303D01*
X0149143Y0091369D01*
X0149137Y0091435D01*
X0149135Y0091502D01*
D13*
X0142189Y0140876D02*
X0142189Y0145600D01*
X0142976Y0145600D02*
X0142978Y0145490D01*
X0142984Y0145380D01*
X0142993Y0145271D01*
X0143007Y0145162D01*
X0143024Y0145053D01*
X0143045Y0144945D01*
X0143070Y0144838D01*
X0143098Y0144732D01*
X0143130Y0144627D01*
X0143166Y0144523D01*
X0143205Y0144420D01*
X0143248Y0144319D01*
X0143295Y0144219D01*
X0143345Y0144121D01*
X0143398Y0144025D01*
X0143455Y0143931D01*
X0143515Y0143839D01*
X0143578Y0143748D01*
X0143644Y0143661D01*
X0143713Y0143575D01*
X0143785Y0143492D01*
X0143860Y0143412D01*
X0143938Y0143334D01*
X0144018Y0143259D01*
X0144101Y0143187D01*
X0144187Y0143118D01*
X0144274Y0143052D01*
X0144365Y0142989D01*
X0144457Y0142929D01*
X0144551Y0142872D01*
X0144647Y0142819D01*
X0144745Y0142769D01*
X0144845Y0142722D01*
X0144946Y0142679D01*
X0145049Y0142640D01*
X0145153Y0142604D01*
X0145258Y0142572D01*
X0145364Y0142544D01*
X0145471Y0142519D01*
X0145579Y0142498D01*
X0145688Y0142481D01*
X0145797Y0142467D01*
X0145906Y0142458D01*
X0146016Y0142452D01*
X0146126Y0142450D01*
X0146126Y0142451D02*
X0161480Y0142451D01*
X0161480Y0142450D02*
X0161590Y0142452D01*
X0161700Y0142458D01*
X0161809Y0142467D01*
X0161918Y0142481D01*
X0162027Y0142498D01*
X0162135Y0142519D01*
X0162242Y0142544D01*
X0162348Y0142572D01*
X0162453Y0142604D01*
X0162557Y0142640D01*
X0162660Y0142679D01*
X0162761Y0142722D01*
X0162861Y0142769D01*
X0162959Y0142819D01*
X0163055Y0142872D01*
X0163149Y0142929D01*
X0163241Y0142989D01*
X0163332Y0143052D01*
X0163419Y0143118D01*
X0163505Y0143187D01*
X0163588Y0143259D01*
X0163668Y0143334D01*
X0163746Y0143412D01*
X0163821Y0143492D01*
X0163893Y0143575D01*
X0163962Y0143661D01*
X0164028Y0143748D01*
X0164091Y0143839D01*
X0164151Y0143931D01*
X0164208Y0144025D01*
X0164261Y0144121D01*
X0164311Y0144219D01*
X0164358Y0144319D01*
X0164401Y0144420D01*
X0164440Y0144523D01*
X0164476Y0144627D01*
X0164508Y0144732D01*
X0164536Y0144838D01*
X0164561Y0144945D01*
X0164582Y0145053D01*
X0164599Y0145162D01*
X0164613Y0145271D01*
X0164622Y0145380D01*
X0164628Y0145490D01*
X0164630Y0145600D01*
X0165811Y0145600D02*
X0165811Y0140876D01*
X0142189Y0140876D01*
X0142189Y0151900D02*
X0142189Y0156624D01*
X0165811Y0156624D01*
X0165811Y0151900D01*
X0164630Y0151900D02*
X0164628Y0152010D01*
X0164622Y0152120D01*
X0164613Y0152229D01*
X0164599Y0152338D01*
X0164582Y0152447D01*
X0164561Y0152555D01*
X0164536Y0152662D01*
X0164508Y0152768D01*
X0164476Y0152873D01*
X0164440Y0152977D01*
X0164401Y0153080D01*
X0164358Y0153181D01*
X0164311Y0153281D01*
X0164261Y0153379D01*
X0164208Y0153475D01*
X0164151Y0153569D01*
X0164091Y0153661D01*
X0164028Y0153752D01*
X0163962Y0153839D01*
X0163893Y0153925D01*
X0163821Y0154008D01*
X0163746Y0154088D01*
X0163668Y0154166D01*
X0163588Y0154241D01*
X0163505Y0154313D01*
X0163419Y0154382D01*
X0163332Y0154448D01*
X0163241Y0154511D01*
X0163149Y0154571D01*
X0163055Y0154628D01*
X0162959Y0154681D01*
X0162861Y0154731D01*
X0162761Y0154778D01*
X0162660Y0154821D01*
X0162557Y0154860D01*
X0162453Y0154896D01*
X0162348Y0154928D01*
X0162242Y0154956D01*
X0162135Y0154981D01*
X0162027Y0155002D01*
X0161918Y0155019D01*
X0161809Y0155033D01*
X0161700Y0155042D01*
X0161590Y0155048D01*
X0161480Y0155050D01*
X0161480Y0155049D02*
X0146520Y0155049D01*
X0146520Y0155050D02*
X0146410Y0155048D01*
X0146300Y0155042D01*
X0146191Y0155033D01*
X0146082Y0155019D01*
X0145973Y0155002D01*
X0145865Y0154981D01*
X0145758Y0154956D01*
X0145652Y0154928D01*
X0145547Y0154896D01*
X0145443Y0154860D01*
X0145340Y0154821D01*
X0145239Y0154778D01*
X0145139Y0154731D01*
X0145041Y0154681D01*
X0144945Y0154628D01*
X0144851Y0154571D01*
X0144759Y0154511D01*
X0144668Y0154448D01*
X0144581Y0154382D01*
X0144495Y0154313D01*
X0144412Y0154241D01*
X0144332Y0154166D01*
X0144254Y0154088D01*
X0144179Y0154008D01*
X0144107Y0153925D01*
X0144038Y0153839D01*
X0143972Y0153752D01*
X0143909Y0153661D01*
X0143849Y0153569D01*
X0143792Y0153475D01*
X0143739Y0153379D01*
X0143689Y0153281D01*
X0143642Y0153181D01*
X0143599Y0153080D01*
X0143560Y0152977D01*
X0143524Y0152873D01*
X0143492Y0152768D01*
X0143464Y0152662D01*
X0143439Y0152555D01*
X0143418Y0152447D01*
X0143401Y0152338D01*
X0143387Y0152229D01*
X0143378Y0152120D01*
X0143372Y0152010D01*
X0143370Y0151900D01*
X0141694Y0171520D02*
X0141694Y0175023D01*
X0143445Y0175023D01*
X0144029Y0174439D01*
X0144029Y0173271D01*
X0143445Y0172687D01*
X0141694Y0172687D01*
X0145377Y0171520D02*
X0146544Y0172687D01*
X0147712Y0171520D01*
X0147712Y0175023D01*
X0149060Y0175023D02*
X0150228Y0173855D01*
X0151395Y0175023D01*
X0151395Y0171520D01*
X0152743Y0171520D02*
X0152743Y0172104D01*
X0153327Y0172104D01*
X0153327Y0171520D01*
X0152743Y0171520D01*
X0152743Y0173271D02*
X0152743Y0173855D01*
X0153327Y0173855D01*
X0153327Y0173271D01*
X0152743Y0173271D01*
X0149060Y0171520D02*
X0149060Y0175023D01*
X0145377Y0175023D02*
X0145377Y0171520D01*
X0183267Y0171184D02*
X0186770Y0168848D01*
X0186770Y0171184D02*
X0183267Y0168848D01*
X0183267Y0167501D02*
X0183267Y0165165D01*
X0183267Y0166333D02*
X0186770Y0166333D01*
X0192503Y0166917D02*
X0192503Y0165165D01*
X0196006Y0165165D01*
X0194838Y0165165D02*
X0194838Y0166917D01*
X0194254Y0167501D01*
X0193087Y0167501D01*
X0192503Y0166917D01*
X0192503Y0168848D02*
X0196006Y0171184D01*
X0196006Y0168848D02*
X0192503Y0171184D01*
X0196006Y0167501D02*
X0194838Y0166333D01*
X0073449Y0146187D02*
X0073449Y0138313D01*
X0052551Y0138313D01*
X0052551Y0146187D01*
X0073449Y0146187D01*
X0065500Y0133250D02*
X0065500Y0125250D01*
X0046916Y0147750D02*
X0043997Y0147750D01*
X0043997Y0150085D02*
X0046916Y0150085D01*
X0047500Y0149501D01*
X0047500Y0148334D01*
X0046916Y0147750D01*
X0046916Y0151433D02*
X0047500Y0152017D01*
X0047500Y0153185D01*
X0046916Y0153768D01*
X0046332Y0153768D01*
X0045749Y0153185D01*
X0045749Y0152017D01*
X0045165Y0151433D01*
X0044581Y0151433D01*
X0043997Y0152017D01*
X0043997Y0153185D01*
X0044581Y0153768D01*
X0043997Y0155116D02*
X0043997Y0156868D01*
X0044581Y0157452D01*
X0045165Y0157452D01*
X0045749Y0156868D01*
X0045749Y0155116D01*
X0047500Y0155116D02*
X0047500Y0156868D01*
X0046916Y0157452D01*
X0046332Y0157452D01*
X0045749Y0156868D01*
X0047500Y0155116D02*
X0043997Y0155116D01*
X0043756Y0175548D02*
X0046091Y0175548D01*
X0046675Y0176132D01*
X0046675Y0177300D01*
X0046091Y0177883D01*
X0044924Y0177883D01*
X0044924Y0176716D01*
X0043756Y0177883D02*
X0043172Y0177300D01*
X0043172Y0176132D01*
X0043756Y0175548D01*
X0043172Y0179231D02*
X0046675Y0181566D01*
X0043172Y0181566D01*
X0043172Y0182914D02*
X0043172Y0184666D01*
X0043756Y0185250D01*
X0046091Y0185250D01*
X0046675Y0184666D01*
X0046675Y0182914D01*
X0043172Y0182914D01*
X0043172Y0179231D02*
X0046675Y0179231D01*
X0036633Y0179131D02*
X0033130Y0179131D01*
X0033130Y0180883D01*
X0033714Y0181466D01*
X0034881Y0181466D01*
X0035465Y0180883D01*
X0035465Y0179131D01*
X0035465Y0180299D02*
X0036633Y0181466D01*
X0036633Y0182814D02*
X0033130Y0182814D01*
X0033130Y0185150D01*
X0034881Y0183982D02*
X0034881Y0182814D01*
X0034881Y0177783D02*
X0034881Y0175448D01*
X0034297Y0175448D02*
X0033130Y0176616D01*
X0034297Y0177783D01*
X0036633Y0177783D01*
X0036633Y0175448D02*
X0034297Y0175448D01*
X0026633Y0176032D02*
X0026049Y0175448D01*
X0026633Y0176032D02*
X0026633Y0177200D01*
X0026049Y0177783D01*
X0025465Y0177783D01*
X0024881Y0177200D01*
X0024881Y0176032D01*
X0024297Y0175448D01*
X0023714Y0175448D01*
X0023130Y0176032D01*
X0023130Y0177200D01*
X0023714Y0177783D01*
X0023130Y0179131D02*
X0023130Y0180883D01*
X0023714Y0181466D01*
X0026049Y0181466D01*
X0026633Y0180883D01*
X0026633Y0179131D01*
X0023130Y0179131D01*
X0024297Y0182814D02*
X0023130Y0183982D01*
X0024297Y0185150D01*
X0026633Y0185150D01*
X0024881Y0185150D02*
X0024881Y0182814D01*
X0024297Y0182814D02*
X0026633Y0182814D01*
X0016633Y0183314D02*
X0016633Y0185650D01*
X0016633Y0183314D02*
X0013130Y0183314D01*
X0013714Y0181966D02*
X0013130Y0181383D01*
X0013130Y0180215D01*
X0013714Y0179631D01*
X0016049Y0179631D01*
X0016633Y0180215D01*
X0016633Y0181383D01*
X0016049Y0181966D01*
X0016049Y0178283D02*
X0016633Y0177700D01*
X0016633Y0176532D01*
X0016049Y0175948D01*
X0014881Y0176532D02*
X0014881Y0177700D01*
X0015465Y0178283D01*
X0016049Y0178283D01*
X0014881Y0176532D02*
X0014297Y0175948D01*
X0013714Y0175948D01*
X0013130Y0176532D01*
X0013130Y0177700D01*
X0013714Y0178283D01*
X0013833Y0097659D02*
X0012665Y0096491D01*
X0012665Y0094156D01*
X0011317Y0094739D02*
X0011317Y0097659D01*
X0012665Y0095907D02*
X0015000Y0095907D01*
X0015000Y0096491D02*
X0015000Y0094156D01*
X0016348Y0094156D02*
X0016348Y0097659D01*
X0018100Y0097659D01*
X0018684Y0097075D01*
X0018684Y0095907D01*
X0018100Y0095323D01*
X0016348Y0095323D01*
X0017516Y0095323D02*
X0018684Y0094156D01*
X0021199Y0094156D02*
X0021199Y0097659D01*
X0020031Y0097659D02*
X0022367Y0097659D01*
X0021387Y0092168D02*
X0021387Y0089833D01*
X0021387Y0091000D02*
X0024890Y0091000D01*
X0024306Y0088485D02*
X0023722Y0088485D01*
X0023138Y0087901D01*
X0023138Y0086734D01*
X0022554Y0086150D01*
X0021971Y0086150D01*
X0021387Y0086734D01*
X0021387Y0087901D01*
X0021971Y0088485D01*
X0024306Y0088485D02*
X0024890Y0087901D01*
X0024890Y0086734D01*
X0024306Y0086150D01*
X0024890Y0084802D02*
X0023722Y0083634D01*
X0023722Y0084218D02*
X0023722Y0082467D01*
X0024890Y0082467D02*
X0021387Y0082467D01*
X0021387Y0084218D01*
X0021971Y0084802D01*
X0023138Y0084802D01*
X0023722Y0084218D01*
X0025071Y0080438D02*
X0021568Y0078102D01*
X0021568Y0076755D02*
X0021568Y0074419D01*
X0021568Y0075587D02*
X0025071Y0075587D01*
X0025071Y0078102D02*
X0021568Y0080438D01*
X0021568Y0070438D02*
X0025071Y0068102D01*
X0025071Y0066755D02*
X0023903Y0065587D01*
X0023903Y0066171D02*
X0023903Y0064419D01*
X0025071Y0064419D02*
X0021568Y0064419D01*
X0021568Y0066171D01*
X0022152Y0066755D01*
X0023319Y0066755D01*
X0023903Y0066171D01*
X0021568Y0068102D02*
X0025071Y0070438D01*
X0023903Y0060438D02*
X0021568Y0060438D01*
X0023903Y0060438D02*
X0025071Y0059270D01*
X0023903Y0058102D01*
X0021568Y0058102D01*
X0021568Y0056755D02*
X0021568Y0054419D01*
X0023319Y0054419D01*
X0022736Y0055587D01*
X0022736Y0056171D01*
X0023319Y0056755D01*
X0024487Y0056755D01*
X0025071Y0056171D01*
X0025071Y0055003D01*
X0024487Y0054419D01*
X0024487Y0046719D02*
X0022152Y0046719D01*
X0021568Y0046135D01*
X0021568Y0044384D01*
X0025071Y0044384D01*
X0025071Y0046135D01*
X0024487Y0046719D01*
X0025071Y0043036D02*
X0021568Y0043036D01*
X0021568Y0040701D02*
X0025071Y0043036D01*
X0025071Y0040701D02*
X0021568Y0040701D01*
X0022152Y0039353D02*
X0021568Y0038769D01*
X0021568Y0037602D01*
X0022152Y0037018D01*
X0024487Y0037018D01*
X0025071Y0037602D01*
X0025071Y0038769D01*
X0024487Y0039353D01*
X0023319Y0039353D01*
X0023319Y0038185D01*
X0072637Y0028418D02*
X0072637Y0026083D01*
X0072637Y0027250D02*
X0076140Y0027250D01*
X0075556Y0024735D02*
X0074972Y0024735D01*
X0074388Y0024151D01*
X0074388Y0022984D01*
X0073804Y0022400D01*
X0073221Y0022400D01*
X0072637Y0022984D01*
X0072637Y0024151D01*
X0073221Y0024735D01*
X0075556Y0024735D02*
X0076140Y0024151D01*
X0076140Y0022984D01*
X0075556Y0022400D01*
X0076140Y0021052D02*
X0074972Y0019884D01*
X0074972Y0020468D02*
X0074972Y0018717D01*
X0076140Y0018717D02*
X0072637Y0018717D01*
X0072637Y0020468D01*
X0073221Y0021052D01*
X0074388Y0021052D01*
X0074972Y0020468D01*
X0093318Y0021505D02*
X0093318Y0019169D01*
X0095069Y0019169D01*
X0094486Y0020337D01*
X0094486Y0020921D01*
X0095069Y0021505D01*
X0096237Y0021505D01*
X0096821Y0020921D01*
X0096821Y0019753D01*
X0096237Y0019169D01*
X0095653Y0022852D02*
X0093318Y0022852D01*
X0095653Y0022852D02*
X0096821Y0024020D01*
X0095653Y0025188D01*
X0093318Y0025188D01*
X0102818Y0024786D02*
X0106321Y0024786D01*
X0102818Y0022451D01*
X0106321Y0022451D01*
X0105737Y0021103D02*
X0104569Y0021103D01*
X0104569Y0019935D01*
X0103402Y0018768D02*
X0105737Y0018768D01*
X0106321Y0019352D01*
X0106321Y0020519D01*
X0105737Y0021103D01*
X0103402Y0021103D02*
X0102818Y0020519D01*
X0102818Y0019352D01*
X0103402Y0018768D01*
X0102818Y0026134D02*
X0102818Y0027885D01*
X0103402Y0028469D01*
X0105737Y0028469D01*
X0106321Y0027885D01*
X0106321Y0026134D01*
X0102818Y0026134D01*
X0113318Y0026634D02*
X0113318Y0028385D01*
X0113902Y0028969D01*
X0116237Y0028969D01*
X0116821Y0028385D01*
X0116821Y0026634D01*
X0113318Y0026634D01*
X0113318Y0025286D02*
X0116821Y0025286D01*
X0113318Y0022951D01*
X0116821Y0022951D01*
X0116237Y0021603D02*
X0115069Y0021603D01*
X0115069Y0020435D01*
X0113902Y0019268D02*
X0116237Y0019268D01*
X0116821Y0019852D01*
X0116821Y0021019D01*
X0116237Y0021603D01*
X0113902Y0021603D02*
X0113318Y0021019D01*
X0113318Y0019852D01*
X0113902Y0019268D01*
X0122818Y0019409D02*
X0125153Y0019409D01*
X0126321Y0020577D01*
X0125153Y0021745D01*
X0122818Y0021745D01*
X0123986Y0023093D02*
X0123986Y0023676D01*
X0126321Y0023676D01*
X0126321Y0023093D02*
X0126321Y0024260D01*
X0126321Y0025548D02*
X0123986Y0025548D01*
X0123986Y0027300D01*
X0124569Y0027883D01*
X0126321Y0027883D01*
X0122818Y0023676D02*
X0122234Y0023676D01*
X0015000Y0096491D02*
X0013833Y0097659D01*
X0011317Y0094739D02*
X0010733Y0094156D01*
X0009566Y0094156D01*
X0008982Y0094739D01*
X0008982Y0097659D01*
D14*
X0034948Y0112110D02*
X0034948Y0113512D01*
X0035415Y0113979D01*
X0036349Y0113979D01*
X0036816Y0113512D01*
X0036816Y0112110D01*
X0037750Y0112110D02*
X0034948Y0112110D01*
X0034948Y0115057D02*
X0037750Y0115057D01*
X0036816Y0115991D01*
X0037750Y0116925D01*
X0034948Y0116925D01*
X0034948Y0118003D02*
X0034948Y0119405D01*
X0035415Y0119872D01*
X0036349Y0119872D01*
X0036816Y0119405D01*
X0036816Y0118003D01*
X0037750Y0118003D02*
X0034948Y0118003D01*
X0036816Y0118938D02*
X0037750Y0119872D01*
X0026543Y0135696D02*
X0026543Y0136309D01*
X0026544Y0136309D02*
X0026546Y0136365D01*
X0026552Y0136420D01*
X0026561Y0136475D01*
X0026574Y0136529D01*
X0026591Y0136583D01*
X0026612Y0136634D01*
X0026636Y0136685D01*
X0026663Y0136734D01*
X0026694Y0136780D01*
X0026727Y0136825D01*
X0026764Y0136867D01*
X0026803Y0136906D01*
X0026845Y0136943D01*
X0026890Y0136976D01*
X0026936Y0137007D01*
X0026985Y0137034D01*
X0027036Y0137058D01*
X0027087Y0137079D01*
X0027141Y0137096D01*
X0027195Y0137109D01*
X0027250Y0137118D01*
X0027305Y0137124D01*
X0027361Y0137126D01*
X0018269Y0137126D01*
X0017346Y0140601D02*
X0017346Y0141419D01*
X0007944Y0142440D01*
X0007944Y0144484D01*
X0017346Y0145506D01*
X0017346Y0146324D01*
X0006514Y0145302D01*
X0006514Y0145301D02*
X0006448Y0145294D01*
X0006383Y0145283D01*
X0006318Y0145269D01*
X0006255Y0145251D01*
X0006192Y0145229D01*
X0006131Y0145204D01*
X0006071Y0145176D01*
X0006013Y0145144D01*
X0005957Y0145108D01*
X0005903Y0145070D01*
X0005852Y0145029D01*
X0005803Y0144985D01*
X0005756Y0144938D01*
X0005712Y0144888D01*
X0005671Y0144836D01*
X0005633Y0144782D01*
X0005598Y0144726D01*
X0005567Y0144668D01*
X0005539Y0144608D01*
X0005514Y0144546D01*
X0005493Y0144484D01*
X0005493Y0142236D02*
X0005514Y0142174D01*
X0005539Y0142112D01*
X0005567Y0142052D01*
X0005598Y0141994D01*
X0005633Y0141938D01*
X0005671Y0141884D01*
X0005712Y0141832D01*
X0005756Y0141782D01*
X0005803Y0141735D01*
X0005852Y0141691D01*
X0005903Y0141650D01*
X0005957Y0141612D01*
X0006013Y0141576D01*
X0006071Y0141544D01*
X0006131Y0141516D01*
X0006192Y0141491D01*
X0006255Y0141469D01*
X0006318Y0141451D01*
X0006383Y0141437D01*
X0006448Y0141426D01*
X0006514Y0141419D01*
X0017346Y0140601D01*
X0005493Y0142236D02*
X0005459Y0142351D01*
X0005429Y0142468D01*
X0005403Y0142585D01*
X0005381Y0142703D01*
X0005362Y0142821D01*
X0005347Y0142941D01*
X0005336Y0143060D01*
X0005328Y0143180D01*
X0005324Y0143300D01*
X0005324Y0143420D01*
X0005328Y0143540D01*
X0005336Y0143660D01*
X0005347Y0143779D01*
X0005362Y0143899D01*
X0005381Y0144017D01*
X0005403Y0144135D01*
X0005429Y0144252D01*
X0005459Y0144369D01*
X0005493Y0144484D01*
X0006514Y0147346D02*
X0022456Y0148163D01*
X0022513Y0148168D01*
X0022570Y0148177D01*
X0022626Y0148190D01*
X0022681Y0148206D01*
X0022735Y0148226D01*
X0022787Y0148250D01*
X0022838Y0148276D01*
X0022887Y0148307D01*
X0022934Y0148340D01*
X0022979Y0148376D01*
X0023021Y0148416D01*
X0023060Y0148458D01*
X0023096Y0148502D01*
X0023130Y0148549D01*
X0023160Y0148598D01*
X0023187Y0148649D01*
X0023210Y0148701D01*
X0023230Y0148755D01*
X0023246Y0148811D01*
X0023259Y0148867D01*
X0023268Y0148924D01*
X0023273Y0148981D01*
X0023273Y0155520D01*
X0023274Y0155520D02*
X0023269Y0155578D01*
X0023260Y0155634D01*
X0023247Y0155691D01*
X0023231Y0155746D01*
X0023211Y0155800D01*
X0023188Y0155852D01*
X0023161Y0155903D01*
X0023130Y0155952D01*
X0023097Y0155999D01*
X0023061Y0156043D01*
X0023021Y0156085D01*
X0022979Y0156125D01*
X0022935Y0156161D01*
X0022888Y0156194D01*
X0022839Y0156225D01*
X0022788Y0156252D01*
X0022736Y0156275D01*
X0022682Y0156295D01*
X0022627Y0156311D01*
X0022570Y0156324D01*
X0022514Y0156333D01*
X0022456Y0156338D01*
X0006514Y0157155D01*
X0006458Y0157153D01*
X0006403Y0157147D01*
X0006348Y0157138D01*
X0006294Y0157125D01*
X0006240Y0157108D01*
X0006189Y0157087D01*
X0006138Y0157063D01*
X0006089Y0157036D01*
X0006043Y0157005D01*
X0005998Y0156972D01*
X0005956Y0156935D01*
X0005917Y0156896D01*
X0005880Y0156854D01*
X0005847Y0156809D01*
X0005816Y0156763D01*
X0005789Y0156714D01*
X0005765Y0156663D01*
X0005744Y0156612D01*
X0005727Y0156558D01*
X0005714Y0156504D01*
X0005705Y0156449D01*
X0005699Y0156394D01*
X0005697Y0156338D01*
X0005696Y0156338D02*
X0005696Y0156337D01*
X0005697Y0156337D02*
X0005699Y0156281D01*
X0005705Y0156226D01*
X0005714Y0156171D01*
X0005727Y0156117D01*
X0005744Y0156063D01*
X0005765Y0156012D01*
X0005789Y0155961D01*
X0005816Y0155912D01*
X0005847Y0155866D01*
X0005880Y0155821D01*
X0005917Y0155779D01*
X0005956Y0155740D01*
X0005998Y0155703D01*
X0006043Y0155670D01*
X0006089Y0155639D01*
X0006138Y0155612D01*
X0006189Y0155588D01*
X0006240Y0155567D01*
X0006294Y0155550D01*
X0006348Y0155537D01*
X0006403Y0155528D01*
X0006458Y0155522D01*
X0006514Y0155520D01*
X0020003Y0154703D01*
X0020003Y0154704D02*
X0020003Y0149798D01*
X0006514Y0148981D01*
X0006514Y0148980D02*
X0006458Y0148978D01*
X0006403Y0148972D01*
X0006348Y0148963D01*
X0006294Y0148950D01*
X0006240Y0148933D01*
X0006189Y0148912D01*
X0006138Y0148888D01*
X0006089Y0148861D01*
X0006043Y0148830D01*
X0005998Y0148797D01*
X0005956Y0148760D01*
X0005917Y0148721D01*
X0005880Y0148679D01*
X0005847Y0148634D01*
X0005816Y0148588D01*
X0005789Y0148539D01*
X0005765Y0148488D01*
X0005744Y0148437D01*
X0005727Y0148383D01*
X0005714Y0148329D01*
X0005705Y0148274D01*
X0005699Y0148219D01*
X0005697Y0148163D01*
X0005699Y0148107D01*
X0005705Y0148052D01*
X0005714Y0147997D01*
X0005727Y0147943D01*
X0005744Y0147889D01*
X0005765Y0147838D01*
X0005789Y0147787D01*
X0005816Y0147738D01*
X0005847Y0147692D01*
X0005880Y0147647D01*
X0005917Y0147605D01*
X0005956Y0147566D01*
X0005998Y0147529D01*
X0006043Y0147496D01*
X0006089Y0147465D01*
X0006138Y0147438D01*
X0006189Y0147414D01*
X0006240Y0147393D01*
X0006294Y0147376D01*
X0006348Y0147363D01*
X0006403Y0147354D01*
X0006458Y0147348D01*
X0006514Y0147346D01*
X0007120Y0137126D02*
X0001200Y0137126D01*
X0001200Y0137126D01*
X0001200Y0167374D01*
X0007119Y0167374D01*
X0006514Y0163082D02*
X0017346Y0163900D01*
X0017346Y0163082D01*
X0007944Y0162061D01*
X0007944Y0160017D01*
X0017346Y0158995D01*
X0017346Y0158177D01*
X0006514Y0159199D01*
X0006448Y0159206D01*
X0006383Y0159217D01*
X0006318Y0159231D01*
X0006255Y0159249D01*
X0006192Y0159271D01*
X0006131Y0159296D01*
X0006071Y0159324D01*
X0006013Y0159356D01*
X0005957Y0159392D01*
X0005903Y0159430D01*
X0005852Y0159471D01*
X0005803Y0159515D01*
X0005756Y0159562D01*
X0005712Y0159612D01*
X0005671Y0159664D01*
X0005633Y0159718D01*
X0005598Y0159774D01*
X0005567Y0159832D01*
X0005539Y0159892D01*
X0005514Y0159954D01*
X0005493Y0160016D01*
X0005493Y0162265D02*
X0005514Y0162327D01*
X0005539Y0162389D01*
X0005567Y0162449D01*
X0005598Y0162507D01*
X0005633Y0162563D01*
X0005671Y0162617D01*
X0005712Y0162669D01*
X0005756Y0162719D01*
X0005803Y0162766D01*
X0005852Y0162810D01*
X0005903Y0162851D01*
X0005957Y0162889D01*
X0006013Y0162925D01*
X0006071Y0162957D01*
X0006131Y0162985D01*
X0006192Y0163010D01*
X0006255Y0163032D01*
X0006318Y0163050D01*
X0006383Y0163064D01*
X0006448Y0163075D01*
X0006514Y0163082D01*
X0005493Y0162265D02*
X0005459Y0162150D01*
X0005429Y0162033D01*
X0005403Y0161916D01*
X0005381Y0161798D01*
X0005362Y0161680D01*
X0005347Y0161560D01*
X0005336Y0161441D01*
X0005328Y0161321D01*
X0005324Y0161201D01*
X0005324Y0161081D01*
X0005328Y0160961D01*
X0005336Y0160841D01*
X0005347Y0160722D01*
X0005362Y0160602D01*
X0005381Y0160484D01*
X0005403Y0160366D01*
X0005429Y0160249D01*
X0005459Y0160132D01*
X0005493Y0160017D01*
X0018270Y0167374D02*
X0027361Y0167374D01*
X0027361Y0167375D02*
X0027305Y0167377D01*
X0027250Y0167383D01*
X0027195Y0167392D01*
X0027141Y0167405D01*
X0027087Y0167422D01*
X0027036Y0167443D01*
X0026985Y0167467D01*
X0026936Y0167494D01*
X0026890Y0167525D01*
X0026845Y0167558D01*
X0026803Y0167595D01*
X0026764Y0167634D01*
X0026727Y0167676D01*
X0026694Y0167721D01*
X0026663Y0167767D01*
X0026636Y0167816D01*
X0026612Y0167867D01*
X0026591Y0167918D01*
X0026574Y0167972D01*
X0026561Y0168026D01*
X0026552Y0168081D01*
X0026546Y0168136D01*
X0026544Y0168192D01*
X0026543Y0168192D02*
X0026543Y0168805D01*
X0027770Y0160221D02*
X0027769Y0160221D01*
X0027770Y0160221D02*
X0027825Y0160219D01*
X0027881Y0160213D01*
X0027936Y0160204D01*
X0027990Y0160191D01*
X0028043Y0160174D01*
X0028095Y0160153D01*
X0028146Y0160129D01*
X0028194Y0160102D01*
X0028241Y0160072D01*
X0028286Y0160038D01*
X0028328Y0160001D01*
X0028367Y0159962D01*
X0028404Y0159920D01*
X0028438Y0159875D01*
X0028468Y0159828D01*
X0028495Y0159780D01*
X0028519Y0159729D01*
X0028540Y0159677D01*
X0028557Y0159624D01*
X0028570Y0159570D01*
X0028579Y0159515D01*
X0028585Y0159459D01*
X0028587Y0159404D01*
X0028587Y0145097D01*
X0028587Y0145097D01*
X0028585Y0145042D01*
X0028579Y0144986D01*
X0028570Y0144931D01*
X0028557Y0144877D01*
X0028540Y0144824D01*
X0028519Y0144772D01*
X0028495Y0144721D01*
X0028468Y0144673D01*
X0028438Y0144626D01*
X0028404Y0144581D01*
X0028367Y0144539D01*
X0028328Y0144500D01*
X0028286Y0144463D01*
X0028241Y0144429D01*
X0028194Y0144399D01*
X0028146Y0144372D01*
X0028095Y0144348D01*
X0028043Y0144327D01*
X0027990Y0144310D01*
X0027936Y0144297D01*
X0027881Y0144288D01*
X0027825Y0144282D01*
X0027770Y0144280D01*
X0027769Y0144280D02*
X0027707Y0144282D01*
X0027646Y0144288D01*
X0027585Y0144297D01*
X0027524Y0144310D01*
X0027465Y0144327D01*
X0027407Y0144347D01*
X0027350Y0144370D01*
X0027294Y0144397D01*
X0027240Y0144428D01*
X0027189Y0144461D01*
X0027139Y0144498D01*
X0027092Y0144537D01*
X0027047Y0144580D01*
X0027004Y0144625D01*
X0026965Y0144672D01*
X0026928Y0144722D01*
X0026895Y0144773D01*
X0026864Y0144827D01*
X0026837Y0144883D01*
X0026814Y0144940D01*
X0026794Y0144998D01*
X0026777Y0145057D01*
X0026764Y0145118D01*
X0026755Y0145179D01*
X0026749Y0145240D01*
X0026747Y0145302D01*
X0026748Y0145302D02*
X0026748Y0145301D01*
X0026748Y0145302D02*
X0026748Y0159199D01*
X0026750Y0159261D01*
X0026755Y0159323D01*
X0026765Y0159384D01*
X0026778Y0159444D01*
X0026794Y0159503D01*
X0026814Y0159562D01*
X0026838Y0159619D01*
X0026865Y0159674D01*
X0026895Y0159728D01*
X0026929Y0159780D01*
X0026966Y0159829D01*
X0027005Y0159877D01*
X0027047Y0159922D01*
X0027092Y0159964D01*
X0027140Y0160003D01*
X0027189Y0160040D01*
X0027241Y0160074D01*
X0027295Y0160104D01*
X0027350Y0160131D01*
X0027407Y0160155D01*
X0027466Y0160175D01*
X0027525Y0160191D01*
X0027585Y0160204D01*
X0027646Y0160214D01*
X0027708Y0160219D01*
X0027770Y0160221D01*
X0030631Y0160222D02*
X0037989Y0160222D01*
X0038194Y0160221D02*
X0038194Y0164104D01*
X0037989Y0164104D02*
X0036558Y0164104D01*
X0023273Y0155520D02*
X0023273Y0155520D01*
X0030631Y0144279D02*
X0037989Y0144279D01*
X0038193Y0144280D02*
X0038193Y0140396D01*
X0037989Y0140396D02*
X0036558Y0140396D01*
X0084068Y0028354D02*
X0085937Y0028354D01*
X0086871Y0027420D01*
X0085937Y0026486D01*
X0084068Y0026486D01*
X0084536Y0025407D02*
X0085003Y0025407D01*
X0085470Y0024940D01*
X0085937Y0025407D01*
X0086404Y0025407D01*
X0086871Y0024940D01*
X0086871Y0024006D01*
X0086404Y0023539D01*
X0086404Y0022533D02*
X0086871Y0022533D01*
X0086871Y0022066D01*
X0086404Y0022066D01*
X0086404Y0022533D01*
X0086404Y0020988D02*
X0086871Y0020520D01*
X0086871Y0019586D01*
X0086404Y0019119D01*
X0085470Y0020053D02*
X0085470Y0020520D01*
X0085937Y0020988D01*
X0086404Y0020988D01*
X0085470Y0020520D02*
X0085003Y0020988D01*
X0084536Y0020988D01*
X0084068Y0020520D01*
X0084068Y0019586D01*
X0084536Y0019119D01*
X0084536Y0023539D02*
X0084068Y0024006D01*
X0084068Y0024940D01*
X0084536Y0025407D01*
X0085470Y0024940D02*
X0085470Y0024473D01*
X0187113Y0126722D02*
X0186179Y0127656D01*
X0188981Y0127656D01*
X0188981Y0126722D02*
X0188981Y0128590D01*
X0195200Y0128950D02*
X0196134Y0128950D01*
X0195667Y0128950D02*
X0195667Y0131752D01*
X0195200Y0131752D02*
X0196134Y0131752D01*
X0197164Y0131285D02*
X0197164Y0129417D01*
X0197631Y0128950D01*
X0198566Y0128950D01*
X0199033Y0129417D01*
X0200111Y0129417D02*
X0200578Y0128950D01*
X0201512Y0128950D01*
X0201979Y0129417D01*
X0201979Y0129884D01*
X0201512Y0130351D01*
X0200578Y0130351D01*
X0200111Y0130818D01*
X0200111Y0131285D01*
X0200578Y0131752D01*
X0201512Y0131752D01*
X0201979Y0131285D01*
X0203057Y0131752D02*
X0204459Y0131752D01*
X0204926Y0131285D01*
X0204926Y0130351D01*
X0204459Y0129884D01*
X0203057Y0129884D01*
X0203057Y0128950D02*
X0203057Y0131752D01*
X0199033Y0131285D02*
X0198566Y0131752D01*
X0197631Y0131752D01*
X0197164Y0131285D01*
X0196723Y0051161D02*
X0195322Y0051161D01*
X0195322Y0048359D01*
X0195322Y0049293D02*
X0196723Y0049293D01*
X0197190Y0049760D01*
X0197190Y0050694D01*
X0196723Y0051161D01*
X0196256Y0049293D02*
X0197190Y0048359D01*
X0198269Y0048826D02*
X0198269Y0049760D01*
X0198736Y0050227D01*
X0199670Y0050227D01*
X0200137Y0049760D01*
X0200137Y0049293D01*
X0198269Y0049293D01*
X0198269Y0048826D02*
X0198736Y0048359D01*
X0199670Y0048359D01*
X0201215Y0048359D02*
X0202616Y0048359D01*
X0203083Y0048826D01*
X0202616Y0049293D01*
X0201682Y0049293D01*
X0201215Y0049760D01*
X0201682Y0050227D01*
X0203083Y0050227D01*
X0204162Y0049760D02*
X0204162Y0048826D01*
X0204629Y0048359D01*
X0205563Y0048359D01*
X0206030Y0049293D02*
X0204162Y0049293D01*
X0204162Y0049760D02*
X0204629Y0050227D01*
X0205563Y0050227D01*
X0206030Y0049760D01*
X0206030Y0049293D01*
X0207108Y0050227D02*
X0208042Y0050227D01*
X0207575Y0050694D02*
X0207575Y0048826D01*
X0208042Y0048359D01*
D15*
X0195012Y0026652D02*
X0195700Y0025964D01*
X0195700Y0024588D01*
X0195012Y0023900D01*
X0193636Y0023900D02*
X0192948Y0025276D01*
X0192948Y0025964D01*
X0193636Y0026652D01*
X0195012Y0026652D01*
X0193636Y0023900D02*
X0191572Y0023900D01*
X0191572Y0026652D01*
X0192948Y0022302D02*
X0195700Y0022302D01*
X0193636Y0022302D02*
X0193636Y0019550D01*
X0192948Y0019550D02*
X0195700Y0019550D01*
X0192948Y0019550D02*
X0191572Y0020926D01*
X0192948Y0022302D01*
X0185700Y0022302D02*
X0182948Y0022302D01*
X0181572Y0020926D01*
X0182948Y0019550D01*
X0185700Y0019550D01*
X0183636Y0019550D02*
X0183636Y0022302D01*
X0183636Y0023900D02*
X0183636Y0026652D01*
X0181572Y0025964D02*
X0183636Y0023900D01*
X0185700Y0025964D02*
X0181572Y0025964D01*
X0175700Y0025964D02*
X0175700Y0024588D01*
X0175012Y0023900D01*
X0175700Y0022302D02*
X0172948Y0022302D01*
X0171572Y0020926D01*
X0172948Y0019550D01*
X0175700Y0019550D01*
X0173636Y0019550D02*
X0173636Y0022302D01*
X0172260Y0023900D02*
X0171572Y0024588D01*
X0171572Y0025964D01*
X0172260Y0026652D01*
X0172948Y0026652D01*
X0173636Y0025964D01*
X0174324Y0026652D01*
X0175012Y0026652D01*
X0175700Y0025964D01*
X0173636Y0025964D02*
X0173636Y0025276D01*
X0165700Y0023900D02*
X0162948Y0026652D01*
X0162260Y0026652D01*
X0161572Y0025964D01*
X0161572Y0024588D01*
X0162260Y0023900D01*
X0162948Y0022302D02*
X0165700Y0022302D01*
X0165700Y0023900D02*
X0165700Y0026652D01*
X0163636Y0022302D02*
X0163636Y0019550D01*
X0162948Y0019550D02*
X0161572Y0020926D01*
X0162948Y0022302D01*
X0162948Y0019550D02*
X0165700Y0019550D01*
X0154700Y0019550D02*
X0151948Y0019550D01*
X0150572Y0020926D01*
X0151948Y0022302D01*
X0154700Y0022302D01*
X0154700Y0023900D02*
X0154700Y0026652D01*
X0154700Y0025276D02*
X0150572Y0025276D01*
X0151948Y0023900D01*
X0152636Y0022302D02*
X0152636Y0019550D01*
X0145700Y0019550D02*
X0142948Y0019550D01*
X0141572Y0020926D01*
X0142948Y0022302D01*
X0145700Y0022302D01*
X0145012Y0023900D02*
X0142260Y0026652D01*
X0145012Y0026652D01*
X0145700Y0025964D01*
X0145700Y0024588D01*
X0145012Y0023900D01*
X0142260Y0023900D01*
X0141572Y0024588D01*
X0141572Y0025964D01*
X0142260Y0026652D01*
X0143636Y0022302D02*
X0143636Y0019550D01*
X0157363Y0172295D02*
X0158096Y0173029D01*
X0157363Y0172295D02*
X0155895Y0173763D01*
X0155161Y0173029D01*
X0161384Y0179238D02*
X0162760Y0180614D01*
X0162072Y0181302D01*
X0162760Y0182900D02*
X0162072Y0183588D01*
X0162072Y0184964D01*
X0162760Y0185652D01*
X0163448Y0185652D01*
X0164136Y0184964D01*
X0164824Y0185652D01*
X0165512Y0185652D01*
X0166200Y0184964D01*
X0166200Y0183588D01*
X0165512Y0182900D01*
X0164136Y0184276D02*
X0164136Y0184964D01*
X0161384Y0179238D02*
X0162072Y0178550D01*
X0156200Y0183614D02*
X0152072Y0183614D01*
X0154136Y0181550D01*
X0154136Y0184302D01*
X0147200Y0184964D02*
X0147200Y0183588D01*
X0146512Y0182900D01*
X0145136Y0182900D02*
X0144448Y0184276D01*
X0144448Y0184964D01*
X0145136Y0185652D01*
X0146512Y0185652D01*
X0147200Y0184964D01*
X0145136Y0182900D02*
X0143072Y0182900D01*
X0143072Y0185652D01*
X0143072Y0181302D02*
X0143760Y0180614D01*
X0142384Y0179238D01*
X0143072Y0178550D01*
X0136200Y0183588D02*
X0136200Y0184964D01*
X0135512Y0185652D01*
X0134824Y0185652D01*
X0134136Y0184964D01*
X0134136Y0182900D01*
X0135512Y0182900D01*
X0136200Y0183588D01*
X0134136Y0182900D02*
X0132760Y0184276D01*
X0132072Y0185652D01*
X0132072Y0181302D02*
X0132760Y0180614D01*
X0131384Y0179238D01*
X0132072Y0178550D01*
X0126200Y0182550D02*
X0125512Y0182550D01*
X0122760Y0185302D01*
X0122072Y0185302D01*
X0122072Y0182550D01*
X0106200Y0183238D02*
X0105512Y0182550D01*
X0104824Y0182550D01*
X0104136Y0183238D01*
X0104136Y0184614D01*
X0104824Y0185302D01*
X0105512Y0185302D01*
X0106200Y0184614D01*
X0106200Y0183238D01*
X0104136Y0183238D02*
X0103448Y0182550D01*
X0102760Y0182550D01*
X0102072Y0183238D01*
X0102072Y0184614D01*
X0102760Y0185302D01*
X0103448Y0185302D01*
X0104136Y0184614D01*
X0096200Y0184964D02*
X0096200Y0183588D01*
X0095512Y0182900D01*
X0094136Y0183588D02*
X0094136Y0185652D01*
X0095512Y0185652D02*
X0092760Y0185652D01*
X0092072Y0184964D01*
X0092072Y0183588D01*
X0092760Y0182900D01*
X0093448Y0182900D01*
X0094136Y0183588D01*
X0096200Y0184964D02*
X0095512Y0185652D01*
X0092072Y0181302D02*
X0092760Y0180614D01*
X0091384Y0179238D01*
X0092072Y0178550D01*
X0087200Y0178900D02*
X0087200Y0181652D01*
X0087200Y0180276D02*
X0083072Y0180276D01*
X0084448Y0178900D01*
X0083072Y0177302D02*
X0083760Y0176614D01*
X0082384Y0175238D01*
X0083072Y0174550D01*
X0076200Y0178900D02*
X0076200Y0181652D01*
X0076200Y0180276D02*
X0072072Y0180276D01*
X0073448Y0178900D01*
X0072072Y0177302D02*
X0072760Y0176614D01*
X0071384Y0175238D01*
X0072072Y0174550D01*
X0066200Y0177550D02*
X0066200Y0180302D01*
X0066200Y0178926D02*
X0062072Y0178926D01*
X0063448Y0177550D01*
X0062760Y0181900D02*
X0062072Y0182588D01*
X0062072Y0183964D01*
X0062760Y0184652D01*
X0063448Y0184652D01*
X0066200Y0181900D01*
X0066200Y0184652D01*
X0072072Y0184626D02*
X0076200Y0184626D01*
X0076200Y0183250D02*
X0076200Y0186002D01*
X0073448Y0183250D02*
X0072072Y0184626D01*
X0083072Y0183938D02*
X0083072Y0185314D01*
X0083760Y0186002D01*
X0086512Y0183250D01*
X0087200Y0183938D01*
X0087200Y0185314D01*
X0086512Y0186002D01*
X0083760Y0186002D01*
X0083072Y0183938D02*
X0083760Y0183250D01*
X0086512Y0183250D01*
X0056200Y0182588D02*
X0055512Y0181900D01*
X0056200Y0182588D02*
X0056200Y0183964D01*
X0055512Y0184652D01*
X0054824Y0184652D01*
X0054136Y0183964D01*
X0054136Y0183276D01*
X0054136Y0183964D02*
X0053448Y0184652D01*
X0052760Y0184652D01*
X0052072Y0183964D01*
X0052072Y0182588D01*
X0052760Y0181900D01*
X0052072Y0178926D02*
X0056200Y0178926D01*
X0056200Y0177550D02*
X0056200Y0180302D01*
X0053448Y0177550D02*
X0052072Y0178926D01*
X0172072Y0183238D02*
X0172760Y0182550D01*
X0172072Y0183238D02*
X0172072Y0184614D01*
X0172760Y0185302D01*
X0173448Y0185302D01*
X0176200Y0182550D01*
X0176200Y0185302D01*
X0182072Y0183926D02*
X0186200Y0183926D01*
X0186200Y0182550D02*
X0186200Y0185302D01*
X0183448Y0182550D02*
X0182072Y0183926D01*
X0192072Y0183238D02*
X0192072Y0184614D01*
X0192760Y0185302D01*
X0195512Y0182550D01*
X0196200Y0183238D01*
X0196200Y0184614D01*
X0195512Y0185302D01*
X0192760Y0185302D01*
X0192072Y0183238D02*
X0192760Y0182550D01*
X0195512Y0182550D01*
D16*
X0199500Y0177250D02*
X0195500Y0173250D01*
X0160500Y0173250D01*
X0139500Y0173250D02*
X0129500Y0173250D01*
X0098500Y0173250D02*
X0053500Y0173250D01*
X0049500Y0177250D01*
X0074500Y0032250D02*
X0084500Y0032250D01*
X0074500Y0032250D02*
X0069500Y0027250D01*
X0114500Y0032250D02*
X0124500Y0032250D01*
X0129500Y0027250D01*
X0139500Y0027250D02*
X0144500Y0032250D01*
X0147000Y0032250D01*
X0189500Y0032250D02*
X0193000Y0032250D01*
X0198000Y0027250D01*
D17*
X0168314Y0055536D02*
X0159708Y0055536D01*
X0159697Y0074986D01*
X0168315Y0074986D01*
X0168314Y0055536D01*
X0153053Y0055514D02*
X0144435Y0055514D01*
X0144436Y0074964D01*
X0153042Y0074964D01*
X0153053Y0055514D01*
X0189786Y0086936D02*
X0189786Y0095542D01*
X0209236Y0095553D01*
X0209236Y0086935D01*
X0189786Y0086936D01*
X0187314Y0092036D02*
X0178708Y0092036D01*
X0178697Y0111486D01*
X0187315Y0111486D01*
X0187314Y0092036D01*
X0175314Y0092036D02*
X0166708Y0092036D01*
X0166697Y0111486D01*
X0175315Y0111486D01*
X0175314Y0092036D01*
X0177214Y0131208D02*
X0157764Y0131197D01*
X0157764Y0139815D01*
X0177214Y0139814D01*
X0177214Y0131208D01*
X0174214Y0157958D02*
X0154764Y0157947D01*
X0154764Y0166565D01*
X0174214Y0166564D01*
X0174214Y0157958D01*
X0154236Y0157935D02*
X0154236Y0166553D01*
X0134786Y0166542D01*
X0134786Y0157936D01*
X0154236Y0157935D01*
X0114292Y0149464D02*
X0114303Y0130014D01*
X0105685Y0130014D01*
X0105686Y0149464D01*
X0114292Y0149464D01*
X0085803Y0150014D02*
X0077185Y0150014D01*
X0077186Y0169464D01*
X0085792Y0169464D01*
X0085803Y0150014D01*
X0031236Y0127053D02*
X0031236Y0118435D01*
X0011786Y0118436D01*
X0011786Y0127042D01*
X0031236Y0127053D01*
X0079697Y0074236D02*
X0088315Y0074236D01*
X0088314Y0054786D01*
X0079708Y0054786D01*
X0079697Y0074236D01*
X0091197Y0074486D02*
X0099815Y0074486D01*
X0099814Y0055036D01*
X0091208Y0055036D01*
X0091197Y0074486D01*
X0102197Y0074486D02*
X0110815Y0074486D01*
X0110814Y0055036D01*
X0102208Y0055036D01*
X0102197Y0074486D01*
D18*
X0103134Y0075400D02*
X0104101Y0075400D01*
X0104585Y0075884D01*
X0105597Y0075400D02*
X0107531Y0075400D01*
X0106564Y0075400D02*
X0106564Y0078302D01*
X0105597Y0077335D01*
X0104585Y0077819D02*
X0104101Y0078302D01*
X0103134Y0078302D01*
X0102650Y0077819D01*
X0102650Y0075884D01*
X0103134Y0075400D01*
X0098287Y0075650D02*
X0096352Y0075650D01*
X0097320Y0075650D02*
X0097320Y0078552D01*
X0096352Y0077585D01*
X0095341Y0075650D02*
X0093406Y0075650D01*
X0093406Y0078552D01*
X0087749Y0077613D02*
X0087749Y0077129D01*
X0085814Y0075194D01*
X0087749Y0075194D01*
X0087749Y0077613D02*
X0087266Y0078097D01*
X0086298Y0078097D01*
X0085814Y0077613D01*
X0083835Y0078097D02*
X0083835Y0075194D01*
X0082868Y0075194D02*
X0084803Y0075194D01*
X0082868Y0077129D02*
X0083835Y0078097D01*
X0081856Y0077613D02*
X0081372Y0078097D01*
X0080405Y0078097D01*
X0079921Y0077613D01*
X0079921Y0075678D01*
X0080405Y0075194D01*
X0081372Y0075194D01*
X0081856Y0075678D01*
X0108543Y0075884D02*
X0110478Y0077819D01*
X0110478Y0075884D01*
X0109994Y0075400D01*
X0109027Y0075400D01*
X0108543Y0075884D01*
X0108543Y0077819D01*
X0109027Y0078302D01*
X0109994Y0078302D01*
X0110478Y0077819D01*
X0098155Y0107700D02*
X0098638Y0108184D01*
X0098638Y0110119D01*
X0098155Y0110602D01*
X0097187Y0110602D01*
X0096703Y0110119D01*
X0096703Y0109635D01*
X0097187Y0109151D01*
X0098638Y0109151D01*
X0098155Y0107700D02*
X0097187Y0107700D01*
X0096703Y0108184D01*
X0095692Y0107700D02*
X0094724Y0108667D01*
X0095208Y0108667D02*
X0093757Y0108667D01*
X0093757Y0107700D02*
X0093757Y0110602D01*
X0095208Y0110602D01*
X0095692Y0110119D01*
X0095692Y0109151D01*
X0095208Y0108667D01*
X0091701Y0134837D02*
X0089766Y0134837D01*
X0090733Y0134837D02*
X0090733Y0137739D01*
X0089766Y0136772D01*
X0088754Y0137256D02*
X0088754Y0135321D01*
X0088271Y0134837D01*
X0086819Y0134837D01*
X0086819Y0137739D01*
X0088271Y0137739D01*
X0088754Y0137256D01*
X0106539Y0150639D02*
X0106539Y0152574D01*
X0107023Y0153058D01*
X0107990Y0153058D01*
X0108474Y0152574D01*
X0109486Y0152090D02*
X0110453Y0153058D01*
X0110453Y0150156D01*
X0109486Y0150156D02*
X0111421Y0150156D01*
X0112432Y0150639D02*
X0112916Y0150156D01*
X0113883Y0150156D01*
X0114367Y0150639D01*
X0114367Y0151123D01*
X0113883Y0151607D01*
X0113400Y0151607D01*
X0113883Y0151607D02*
X0114367Y0152090D01*
X0114367Y0152574D01*
X0113883Y0153058D01*
X0112916Y0153058D01*
X0112432Y0152574D01*
X0108474Y0150639D02*
X0107990Y0150156D01*
X0107023Y0150156D01*
X0106539Y0150639D01*
X0091638Y0158184D02*
X0091155Y0157700D01*
X0090187Y0157700D01*
X0089703Y0158184D01*
X0089703Y0159151D02*
X0090671Y0159635D01*
X0091155Y0159635D01*
X0091638Y0159151D01*
X0091638Y0158184D01*
X0089703Y0159151D02*
X0089703Y0160602D01*
X0091638Y0160602D01*
X0088692Y0160119D02*
X0088208Y0160602D01*
X0087241Y0160602D01*
X0086757Y0160119D01*
X0086757Y0158184D01*
X0087241Y0157700D01*
X0088208Y0157700D01*
X0088692Y0158184D01*
X0052550Y0154905D02*
X0049648Y0154905D01*
X0051099Y0153453D01*
X0051099Y0155388D01*
X0051099Y0152442D02*
X0050131Y0152442D01*
X0049648Y0151958D01*
X0049648Y0150507D01*
X0052550Y0150507D01*
X0051583Y0150507D02*
X0051583Y0151958D01*
X0051099Y0152442D01*
X0051583Y0151474D02*
X0052550Y0152442D01*
X0051350Y0144781D02*
X0051350Y0142847D01*
X0049415Y0144781D01*
X0048931Y0144781D01*
X0048448Y0144298D01*
X0048448Y0143330D01*
X0048931Y0142847D01*
X0048448Y0141835D02*
X0048448Y0139900D01*
X0051350Y0139900D01*
X0049899Y0139900D02*
X0049899Y0140867D01*
X0049511Y0131854D02*
X0049994Y0130887D01*
X0050962Y0129919D01*
X0050962Y0131371D01*
X0051446Y0131854D01*
X0051929Y0131854D01*
X0052413Y0131371D01*
X0052413Y0130403D01*
X0051929Y0129919D01*
X0050962Y0129919D01*
X0051929Y0128908D02*
X0052413Y0128424D01*
X0052413Y0127457D01*
X0051929Y0126973D01*
X0049994Y0126973D01*
X0049511Y0127457D01*
X0049511Y0128424D01*
X0049994Y0128908D01*
X0061398Y0119421D02*
X0064300Y0119421D01*
X0064300Y0120388D02*
X0064300Y0118453D01*
X0064300Y0117442D02*
X0064300Y0115507D01*
X0064300Y0116474D02*
X0061398Y0116474D01*
X0062365Y0115507D01*
X0061881Y0114495D02*
X0062849Y0114495D01*
X0063333Y0114012D01*
X0063333Y0112560D01*
X0064300Y0112560D02*
X0061398Y0112560D01*
X0061398Y0114012D01*
X0061881Y0114495D01*
X0063333Y0113528D02*
X0064300Y0114495D01*
X0062365Y0118453D02*
X0061398Y0119421D01*
X0052050Y0162507D02*
X0049148Y0162507D01*
X0049148Y0163958D01*
X0049631Y0164442D01*
X0050599Y0164442D01*
X0051083Y0163958D01*
X0051083Y0162507D01*
X0051083Y0163474D02*
X0052050Y0164442D01*
X0051566Y0165453D02*
X0052050Y0165937D01*
X0052050Y0166905D01*
X0051566Y0167388D01*
X0050599Y0167388D01*
X0050115Y0166905D01*
X0050115Y0166421D01*
X0050599Y0165453D01*
X0049148Y0165453D01*
X0049148Y0167388D01*
X0008387Y0125553D02*
X0007903Y0125553D01*
X0007903Y0123618D01*
X0008387Y0122606D02*
X0007903Y0122122D01*
X0007903Y0121155D01*
X0008387Y0120671D01*
X0010322Y0120671D01*
X0010806Y0121155D01*
X0010806Y0122122D01*
X0010322Y0122606D01*
X0010322Y0123618D02*
X0010806Y0123618D01*
X0010322Y0123618D02*
X0008387Y0125553D01*
X0010850Y0113781D02*
X0010850Y0111847D01*
X0010850Y0112814D02*
X0007948Y0112814D01*
X0008915Y0111847D01*
X0008431Y0110835D02*
X0007948Y0110351D01*
X0007948Y0108900D01*
X0010850Y0108900D01*
X0009883Y0108900D02*
X0009883Y0110351D01*
X0009399Y0110835D01*
X0008431Y0110835D01*
X0009883Y0109867D02*
X0010850Y0110835D01*
X0142921Y0167928D02*
X0143405Y0167444D01*
X0144372Y0167444D01*
X0144856Y0167928D01*
X0145868Y0167444D02*
X0147803Y0167444D01*
X0146835Y0167444D02*
X0146835Y0170347D01*
X0145868Y0169379D01*
X0144856Y0169863D02*
X0144372Y0170347D01*
X0143405Y0170347D01*
X0142921Y0169863D01*
X0142921Y0167928D01*
X0148814Y0167928D02*
X0149298Y0167444D01*
X0150266Y0167444D01*
X0150749Y0167928D01*
X0150749Y0168896D01*
X0150266Y0169379D01*
X0149782Y0169379D01*
X0148814Y0168896D01*
X0148814Y0170347D01*
X0150749Y0170347D01*
X0163421Y0169863D02*
X0163421Y0167928D01*
X0163905Y0167444D01*
X0164872Y0167444D01*
X0165356Y0167928D01*
X0166368Y0167444D02*
X0168303Y0167444D01*
X0167335Y0167444D02*
X0167335Y0170347D01*
X0166368Y0169379D01*
X0165356Y0169863D02*
X0164872Y0170347D01*
X0163905Y0170347D01*
X0163421Y0169863D01*
X0169314Y0168896D02*
X0169314Y0167928D01*
X0169798Y0167444D01*
X0170766Y0167444D01*
X0171249Y0167928D01*
X0171249Y0168412D01*
X0170766Y0168896D01*
X0169314Y0168896D01*
X0170282Y0169863D01*
X0171249Y0170347D01*
X0171364Y0155547D02*
X0171364Y0152645D01*
X0172331Y0152645D02*
X0170396Y0152645D01*
X0169385Y0152645D02*
X0168417Y0153612D01*
X0167934Y0152645D02*
X0167450Y0153129D01*
X0167450Y0155064D01*
X0167934Y0155547D01*
X0168901Y0155547D01*
X0169385Y0155064D01*
X0169385Y0153129D01*
X0168901Y0152645D01*
X0167934Y0152645D01*
X0170396Y0154580D02*
X0171364Y0155547D01*
X0172219Y0143558D02*
X0171736Y0143074D01*
X0171736Y0141139D01*
X0172219Y0140656D01*
X0173187Y0140656D01*
X0173671Y0141139D01*
X0174682Y0141139D02*
X0175166Y0140656D01*
X0176133Y0140656D01*
X0176617Y0141139D01*
X0176617Y0143074D01*
X0176133Y0143558D01*
X0175166Y0143558D01*
X0174682Y0143074D01*
X0174682Y0142590D01*
X0175166Y0142107D01*
X0176617Y0142107D01*
X0173671Y0143074D02*
X0173187Y0143558D01*
X0172219Y0143558D01*
X0172352Y0115347D02*
X0173319Y0115347D01*
X0173803Y0114863D01*
X0173803Y0114379D01*
X0173319Y0113896D01*
X0173803Y0113412D01*
X0173803Y0112928D01*
X0173319Y0112444D01*
X0172352Y0112444D01*
X0171868Y0112928D01*
X0170856Y0112928D02*
X0170372Y0112444D01*
X0169405Y0112444D01*
X0168921Y0112928D01*
X0168921Y0114863D01*
X0169405Y0115347D01*
X0170372Y0115347D01*
X0170856Y0114863D01*
X0171868Y0114863D02*
X0172352Y0115347D01*
X0172835Y0113896D02*
X0173319Y0113896D01*
X0180921Y0114863D02*
X0180921Y0112928D01*
X0181405Y0112444D01*
X0182372Y0112444D01*
X0182856Y0112928D01*
X0183868Y0113896D02*
X0185803Y0113896D01*
X0185319Y0115347D02*
X0183868Y0113896D01*
X0182856Y0114863D02*
X0182372Y0115347D01*
X0181405Y0115347D01*
X0180921Y0114863D01*
X0185319Y0115347D02*
X0185319Y0112444D01*
X0210192Y0093133D02*
X0210192Y0092166D01*
X0210676Y0091682D01*
X0210676Y0090671D02*
X0210192Y0090187D01*
X0210192Y0089219D01*
X0210676Y0088736D01*
X0212611Y0088736D01*
X0213094Y0089219D01*
X0213094Y0090187D01*
X0212611Y0090671D01*
X0213094Y0091682D02*
X0211160Y0093617D01*
X0210676Y0093617D01*
X0210192Y0093133D01*
X0213094Y0093617D02*
X0213094Y0091682D01*
X0182638Y0078994D02*
X0182155Y0079478D01*
X0181187Y0079478D01*
X0180703Y0078994D01*
X0179692Y0078994D02*
X0179692Y0078026D01*
X0179208Y0077543D01*
X0177757Y0077543D01*
X0178724Y0077543D02*
X0179692Y0076575D01*
X0180703Y0076575D02*
X0182638Y0078510D01*
X0182638Y0078994D01*
X0182638Y0076575D02*
X0180703Y0076575D01*
X0179692Y0078994D02*
X0179208Y0079478D01*
X0177757Y0079478D01*
X0177757Y0076575D01*
X0168249Y0077396D02*
X0166314Y0077396D01*
X0167766Y0078847D01*
X0167766Y0075944D01*
X0165303Y0075944D02*
X0163368Y0075944D01*
X0164335Y0075944D02*
X0164335Y0078847D01*
X0163368Y0077879D01*
X0162356Y0078363D02*
X0161872Y0078847D01*
X0160905Y0078847D01*
X0160421Y0078363D01*
X0160421Y0076428D01*
X0160905Y0075944D01*
X0161872Y0075944D01*
X0162356Y0076428D01*
X0159138Y0083700D02*
X0157203Y0083700D01*
X0158171Y0083700D02*
X0158171Y0086602D01*
X0157203Y0085635D01*
X0156192Y0086602D02*
X0156192Y0084184D01*
X0155708Y0083700D01*
X0154741Y0083700D01*
X0154257Y0084184D01*
X0154257Y0086602D01*
X0150421Y0078852D02*
X0149453Y0077885D01*
X0148442Y0078369D02*
X0147958Y0078852D01*
X0146991Y0078852D01*
X0146507Y0078369D01*
X0146507Y0076434D01*
X0146991Y0075950D01*
X0147958Y0075950D01*
X0148442Y0076434D01*
X0149453Y0075950D02*
X0151388Y0075950D01*
X0150421Y0075950D02*
X0150421Y0078852D01*
D19*
X0175000Y0075875D02*
X0175000Y0055875D01*
X0184000Y0055875D01*
X0184000Y0075875D01*
X0175000Y0075875D01*
X0100000Y0086750D02*
X0091000Y0086750D01*
X0091000Y0106750D01*
X0100000Y0106750D01*
X0100000Y0086750D01*
X0085500Y0111750D02*
X0065500Y0111750D01*
X0065500Y0120750D01*
X0085500Y0120750D01*
X0085500Y0111750D01*
X0073500Y0148750D02*
X0053500Y0148750D01*
X0053500Y0157750D01*
X0073500Y0157750D01*
X0073500Y0148750D01*
X0073500Y0160750D02*
X0073500Y0169750D01*
X0053500Y0169750D01*
X0053500Y0160750D01*
X0073500Y0160750D01*
X0031500Y0116750D02*
X0031500Y0107750D01*
X0011500Y0107750D01*
X0011500Y0116750D01*
X0031500Y0116750D01*
D20*
X0022728Y0143589D02*
X0022730Y0143673D01*
X0022736Y0143756D01*
X0022746Y0143839D01*
X0022760Y0143922D01*
X0022777Y0144004D01*
X0022799Y0144085D01*
X0022824Y0144164D01*
X0022853Y0144243D01*
X0022886Y0144320D01*
X0022922Y0144395D01*
X0022962Y0144469D01*
X0023005Y0144541D01*
X0023052Y0144610D01*
X0023102Y0144677D01*
X0023155Y0144742D01*
X0023211Y0144804D01*
X0023269Y0144864D01*
X0023331Y0144921D01*
X0023395Y0144974D01*
X0023462Y0145025D01*
X0023531Y0145072D01*
X0023602Y0145117D01*
X0023675Y0145157D01*
X0023750Y0145194D01*
X0023827Y0145228D01*
X0023905Y0145258D01*
X0023984Y0145284D01*
X0024065Y0145307D01*
X0024147Y0145325D01*
X0024229Y0145340D01*
X0024312Y0145351D01*
X0024395Y0145358D01*
X0024479Y0145361D01*
X0024563Y0145360D01*
X0024646Y0145355D01*
X0024730Y0145346D01*
X0024812Y0145333D01*
X0024894Y0145317D01*
X0024975Y0145296D01*
X0025056Y0145272D01*
X0025134Y0145244D01*
X0025212Y0145212D01*
X0025288Y0145176D01*
X0025362Y0145137D01*
X0025434Y0145095D01*
X0025504Y0145049D01*
X0025572Y0145000D01*
X0025637Y0144948D01*
X0025700Y0144893D01*
X0025760Y0144835D01*
X0025818Y0144774D01*
X0025872Y0144710D01*
X0025924Y0144644D01*
X0025972Y0144576D01*
X0026017Y0144505D01*
X0026058Y0144432D01*
X0026097Y0144358D01*
X0026131Y0144282D01*
X0026162Y0144204D01*
X0026189Y0144125D01*
X0026213Y0144044D01*
X0026232Y0143963D01*
X0026248Y0143881D01*
X0026260Y0143798D01*
X0026268Y0143714D01*
X0026272Y0143631D01*
X0026272Y0143547D01*
X0026268Y0143464D01*
X0026260Y0143380D01*
X0026248Y0143297D01*
X0026232Y0143215D01*
X0026213Y0143134D01*
X0026189Y0143053D01*
X0026162Y0142974D01*
X0026131Y0142896D01*
X0026097Y0142820D01*
X0026058Y0142746D01*
X0026017Y0142673D01*
X0025972Y0142602D01*
X0025924Y0142534D01*
X0025872Y0142468D01*
X0025818Y0142404D01*
X0025760Y0142343D01*
X0025700Y0142285D01*
X0025637Y0142230D01*
X0025572Y0142178D01*
X0025504Y0142129D01*
X0025434Y0142083D01*
X0025362Y0142041D01*
X0025288Y0142002D01*
X0025212Y0141966D01*
X0025134Y0141934D01*
X0025056Y0141906D01*
X0024975Y0141882D01*
X0024894Y0141861D01*
X0024812Y0141845D01*
X0024730Y0141832D01*
X0024646Y0141823D01*
X0024563Y0141818D01*
X0024479Y0141817D01*
X0024395Y0141820D01*
X0024312Y0141827D01*
X0024229Y0141838D01*
X0024147Y0141853D01*
X0024065Y0141871D01*
X0023984Y0141894D01*
X0023905Y0141920D01*
X0023827Y0141950D01*
X0023750Y0141984D01*
X0023675Y0142021D01*
X0023602Y0142061D01*
X0023531Y0142106D01*
X0023462Y0142153D01*
X0023395Y0142204D01*
X0023331Y0142257D01*
X0023269Y0142314D01*
X0023211Y0142374D01*
X0023155Y0142436D01*
X0023102Y0142501D01*
X0023052Y0142568D01*
X0023005Y0142637D01*
X0022962Y0142709D01*
X0022922Y0142783D01*
X0022886Y0142858D01*
X0022853Y0142935D01*
X0022824Y0143014D01*
X0022799Y0143093D01*
X0022777Y0143174D01*
X0022760Y0143256D01*
X0022746Y0143339D01*
X0022736Y0143422D01*
X0022730Y0143505D01*
X0022728Y0143589D01*
X0022728Y0160911D02*
X0022730Y0160995D01*
X0022736Y0161078D01*
X0022746Y0161161D01*
X0022760Y0161244D01*
X0022777Y0161326D01*
X0022799Y0161407D01*
X0022824Y0161486D01*
X0022853Y0161565D01*
X0022886Y0161642D01*
X0022922Y0161717D01*
X0022962Y0161791D01*
X0023005Y0161863D01*
X0023052Y0161932D01*
X0023102Y0161999D01*
X0023155Y0162064D01*
X0023211Y0162126D01*
X0023269Y0162186D01*
X0023331Y0162243D01*
X0023395Y0162296D01*
X0023462Y0162347D01*
X0023531Y0162394D01*
X0023602Y0162439D01*
X0023675Y0162479D01*
X0023750Y0162516D01*
X0023827Y0162550D01*
X0023905Y0162580D01*
X0023984Y0162606D01*
X0024065Y0162629D01*
X0024147Y0162647D01*
X0024229Y0162662D01*
X0024312Y0162673D01*
X0024395Y0162680D01*
X0024479Y0162683D01*
X0024563Y0162682D01*
X0024646Y0162677D01*
X0024730Y0162668D01*
X0024812Y0162655D01*
X0024894Y0162639D01*
X0024975Y0162618D01*
X0025056Y0162594D01*
X0025134Y0162566D01*
X0025212Y0162534D01*
X0025288Y0162498D01*
X0025362Y0162459D01*
X0025434Y0162417D01*
X0025504Y0162371D01*
X0025572Y0162322D01*
X0025637Y0162270D01*
X0025700Y0162215D01*
X0025760Y0162157D01*
X0025818Y0162096D01*
X0025872Y0162032D01*
X0025924Y0161966D01*
X0025972Y0161898D01*
X0026017Y0161827D01*
X0026058Y0161754D01*
X0026097Y0161680D01*
X0026131Y0161604D01*
X0026162Y0161526D01*
X0026189Y0161447D01*
X0026213Y0161366D01*
X0026232Y0161285D01*
X0026248Y0161203D01*
X0026260Y0161120D01*
X0026268Y0161036D01*
X0026272Y0160953D01*
X0026272Y0160869D01*
X0026268Y0160786D01*
X0026260Y0160702D01*
X0026248Y0160619D01*
X0026232Y0160537D01*
X0026213Y0160456D01*
X0026189Y0160375D01*
X0026162Y0160296D01*
X0026131Y0160218D01*
X0026097Y0160142D01*
X0026058Y0160068D01*
X0026017Y0159995D01*
X0025972Y0159924D01*
X0025924Y0159856D01*
X0025872Y0159790D01*
X0025818Y0159726D01*
X0025760Y0159665D01*
X0025700Y0159607D01*
X0025637Y0159552D01*
X0025572Y0159500D01*
X0025504Y0159451D01*
X0025434Y0159405D01*
X0025362Y0159363D01*
X0025288Y0159324D01*
X0025212Y0159288D01*
X0025134Y0159256D01*
X0025056Y0159228D01*
X0024975Y0159204D01*
X0024894Y0159183D01*
X0024812Y0159167D01*
X0024730Y0159154D01*
X0024646Y0159145D01*
X0024563Y0159140D01*
X0024479Y0159139D01*
X0024395Y0159142D01*
X0024312Y0159149D01*
X0024229Y0159160D01*
X0024147Y0159175D01*
X0024065Y0159193D01*
X0023984Y0159216D01*
X0023905Y0159242D01*
X0023827Y0159272D01*
X0023750Y0159306D01*
X0023675Y0159343D01*
X0023602Y0159383D01*
X0023531Y0159428D01*
X0023462Y0159475D01*
X0023395Y0159526D01*
X0023331Y0159579D01*
X0023269Y0159636D01*
X0023211Y0159696D01*
X0023155Y0159758D01*
X0023102Y0159823D01*
X0023052Y0159890D01*
X0023005Y0159959D01*
X0022962Y0160031D01*
X0022922Y0160105D01*
X0022886Y0160180D01*
X0022853Y0160257D01*
X0022824Y0160336D01*
X0022799Y0160415D01*
X0022777Y0160496D01*
X0022760Y0160578D01*
X0022746Y0160661D01*
X0022736Y0160744D01*
X0022730Y0160827D01*
X0022728Y0160911D01*
X0018000Y0012250D02*
X0018002Y0012411D01*
X0018008Y0012571D01*
X0018018Y0012732D01*
X0018032Y0012892D01*
X0018050Y0013052D01*
X0018071Y0013211D01*
X0018097Y0013370D01*
X0018127Y0013528D01*
X0018160Y0013685D01*
X0018198Y0013842D01*
X0018239Y0013997D01*
X0018284Y0014151D01*
X0018333Y0014304D01*
X0018386Y0014456D01*
X0018442Y0014607D01*
X0018503Y0014756D01*
X0018566Y0014904D01*
X0018634Y0015050D01*
X0018705Y0015194D01*
X0018779Y0015336D01*
X0018857Y0015477D01*
X0018939Y0015615D01*
X0019024Y0015752D01*
X0019112Y0015886D01*
X0019204Y0016018D01*
X0019299Y0016148D01*
X0019397Y0016276D01*
X0019498Y0016401D01*
X0019602Y0016523D01*
X0019709Y0016643D01*
X0019819Y0016760D01*
X0019932Y0016875D01*
X0020048Y0016986D01*
X0020167Y0017095D01*
X0020288Y0017200D01*
X0020412Y0017303D01*
X0020538Y0017403D01*
X0020666Y0017499D01*
X0020797Y0017592D01*
X0020931Y0017682D01*
X0021066Y0017769D01*
X0021204Y0017852D01*
X0021343Y0017932D01*
X0021485Y0018008D01*
X0021628Y0018081D01*
X0021773Y0018150D01*
X0021920Y0018216D01*
X0022068Y0018278D01*
X0022218Y0018336D01*
X0022369Y0018391D01*
X0022522Y0018442D01*
X0022676Y0018489D01*
X0022831Y0018532D01*
X0022987Y0018571D01*
X0023143Y0018607D01*
X0023301Y0018638D01*
X0023459Y0018666D01*
X0023618Y0018690D01*
X0023778Y0018710D01*
X0023938Y0018726D01*
X0024098Y0018738D01*
X0024259Y0018746D01*
X0024420Y0018750D01*
X0024580Y0018750D01*
X0024741Y0018746D01*
X0024902Y0018738D01*
X0025062Y0018726D01*
X0025222Y0018710D01*
X0025382Y0018690D01*
X0025541Y0018666D01*
X0025699Y0018638D01*
X0025857Y0018607D01*
X0026013Y0018571D01*
X0026169Y0018532D01*
X0026324Y0018489D01*
X0026478Y0018442D01*
X0026631Y0018391D01*
X0026782Y0018336D01*
X0026932Y0018278D01*
X0027080Y0018216D01*
X0027227Y0018150D01*
X0027372Y0018081D01*
X0027515Y0018008D01*
X0027657Y0017932D01*
X0027796Y0017852D01*
X0027934Y0017769D01*
X0028069Y0017682D01*
X0028203Y0017592D01*
X0028334Y0017499D01*
X0028462Y0017403D01*
X0028588Y0017303D01*
X0028712Y0017200D01*
X0028833Y0017095D01*
X0028952Y0016986D01*
X0029068Y0016875D01*
X0029181Y0016760D01*
X0029291Y0016643D01*
X0029398Y0016523D01*
X0029502Y0016401D01*
X0029603Y0016276D01*
X0029701Y0016148D01*
X0029796Y0016018D01*
X0029888Y0015886D01*
X0029976Y0015752D01*
X0030061Y0015615D01*
X0030143Y0015477D01*
X0030221Y0015336D01*
X0030295Y0015194D01*
X0030366Y0015050D01*
X0030434Y0014904D01*
X0030497Y0014756D01*
X0030558Y0014607D01*
X0030614Y0014456D01*
X0030667Y0014304D01*
X0030716Y0014151D01*
X0030761Y0013997D01*
X0030802Y0013842D01*
X0030840Y0013685D01*
X0030873Y0013528D01*
X0030903Y0013370D01*
X0030929Y0013211D01*
X0030950Y0013052D01*
X0030968Y0012892D01*
X0030982Y0012732D01*
X0030992Y0012571D01*
X0030998Y0012411D01*
X0031000Y0012250D01*
X0030998Y0012089D01*
X0030992Y0011929D01*
X0030982Y0011768D01*
X0030968Y0011608D01*
X0030950Y0011448D01*
X0030929Y0011289D01*
X0030903Y0011130D01*
X0030873Y0010972D01*
X0030840Y0010815D01*
X0030802Y0010658D01*
X0030761Y0010503D01*
X0030716Y0010349D01*
X0030667Y0010196D01*
X0030614Y0010044D01*
X0030558Y0009893D01*
X0030497Y0009744D01*
X0030434Y0009596D01*
X0030366Y0009450D01*
X0030295Y0009306D01*
X0030221Y0009164D01*
X0030143Y0009023D01*
X0030061Y0008885D01*
X0029976Y0008748D01*
X0029888Y0008614D01*
X0029796Y0008482D01*
X0029701Y0008352D01*
X0029603Y0008224D01*
X0029502Y0008099D01*
X0029398Y0007977D01*
X0029291Y0007857D01*
X0029181Y0007740D01*
X0029068Y0007625D01*
X0028952Y0007514D01*
X0028833Y0007405D01*
X0028712Y0007300D01*
X0028588Y0007197D01*
X0028462Y0007097D01*
X0028334Y0007001D01*
X0028203Y0006908D01*
X0028069Y0006818D01*
X0027934Y0006731D01*
X0027796Y0006648D01*
X0027657Y0006568D01*
X0027515Y0006492D01*
X0027372Y0006419D01*
X0027227Y0006350D01*
X0027080Y0006284D01*
X0026932Y0006222D01*
X0026782Y0006164D01*
X0026631Y0006109D01*
X0026478Y0006058D01*
X0026324Y0006011D01*
X0026169Y0005968D01*
X0026013Y0005929D01*
X0025857Y0005893D01*
X0025699Y0005862D01*
X0025541Y0005834D01*
X0025382Y0005810D01*
X0025222Y0005790D01*
X0025062Y0005774D01*
X0024902Y0005762D01*
X0024741Y0005754D01*
X0024580Y0005750D01*
X0024420Y0005750D01*
X0024259Y0005754D01*
X0024098Y0005762D01*
X0023938Y0005774D01*
X0023778Y0005790D01*
X0023618Y0005810D01*
X0023459Y0005834D01*
X0023301Y0005862D01*
X0023143Y0005893D01*
X0022987Y0005929D01*
X0022831Y0005968D01*
X0022676Y0006011D01*
X0022522Y0006058D01*
X0022369Y0006109D01*
X0022218Y0006164D01*
X0022068Y0006222D01*
X0021920Y0006284D01*
X0021773Y0006350D01*
X0021628Y0006419D01*
X0021485Y0006492D01*
X0021343Y0006568D01*
X0021204Y0006648D01*
X0021066Y0006731D01*
X0020931Y0006818D01*
X0020797Y0006908D01*
X0020666Y0007001D01*
X0020538Y0007097D01*
X0020412Y0007197D01*
X0020288Y0007300D01*
X0020167Y0007405D01*
X0020048Y0007514D01*
X0019932Y0007625D01*
X0019819Y0007740D01*
X0019709Y0007857D01*
X0019602Y0007977D01*
X0019498Y0008099D01*
X0019397Y0008224D01*
X0019299Y0008352D01*
X0019204Y0008482D01*
X0019112Y0008614D01*
X0019024Y0008748D01*
X0018939Y0008885D01*
X0018857Y0009023D01*
X0018779Y0009164D01*
X0018705Y0009306D01*
X0018634Y0009450D01*
X0018566Y0009596D01*
X0018503Y0009744D01*
X0018442Y0009893D01*
X0018386Y0010044D01*
X0018333Y0010196D01*
X0018284Y0010349D01*
X0018239Y0010503D01*
X0018198Y0010658D01*
X0018160Y0010815D01*
X0018127Y0010972D01*
X0018097Y0011130D01*
X0018071Y0011289D01*
X0018050Y0011448D01*
X0018032Y0011608D01*
X0018018Y0011768D01*
X0018008Y0011929D01*
X0018002Y0012089D01*
X0018000Y0012250D01*
X0198000Y0032250D02*
X0198002Y0032411D01*
X0198008Y0032571D01*
X0198018Y0032732D01*
X0198032Y0032892D01*
X0198050Y0033052D01*
X0198071Y0033211D01*
X0198097Y0033370D01*
X0198127Y0033528D01*
X0198160Y0033685D01*
X0198198Y0033842D01*
X0198239Y0033997D01*
X0198284Y0034151D01*
X0198333Y0034304D01*
X0198386Y0034456D01*
X0198442Y0034607D01*
X0198503Y0034756D01*
X0198566Y0034904D01*
X0198634Y0035050D01*
X0198705Y0035194D01*
X0198779Y0035336D01*
X0198857Y0035477D01*
X0198939Y0035615D01*
X0199024Y0035752D01*
X0199112Y0035886D01*
X0199204Y0036018D01*
X0199299Y0036148D01*
X0199397Y0036276D01*
X0199498Y0036401D01*
X0199602Y0036523D01*
X0199709Y0036643D01*
X0199819Y0036760D01*
X0199932Y0036875D01*
X0200048Y0036986D01*
X0200167Y0037095D01*
X0200288Y0037200D01*
X0200412Y0037303D01*
X0200538Y0037403D01*
X0200666Y0037499D01*
X0200797Y0037592D01*
X0200931Y0037682D01*
X0201066Y0037769D01*
X0201204Y0037852D01*
X0201343Y0037932D01*
X0201485Y0038008D01*
X0201628Y0038081D01*
X0201773Y0038150D01*
X0201920Y0038216D01*
X0202068Y0038278D01*
X0202218Y0038336D01*
X0202369Y0038391D01*
X0202522Y0038442D01*
X0202676Y0038489D01*
X0202831Y0038532D01*
X0202987Y0038571D01*
X0203143Y0038607D01*
X0203301Y0038638D01*
X0203459Y0038666D01*
X0203618Y0038690D01*
X0203778Y0038710D01*
X0203938Y0038726D01*
X0204098Y0038738D01*
X0204259Y0038746D01*
X0204420Y0038750D01*
X0204580Y0038750D01*
X0204741Y0038746D01*
X0204902Y0038738D01*
X0205062Y0038726D01*
X0205222Y0038710D01*
X0205382Y0038690D01*
X0205541Y0038666D01*
X0205699Y0038638D01*
X0205857Y0038607D01*
X0206013Y0038571D01*
X0206169Y0038532D01*
X0206324Y0038489D01*
X0206478Y0038442D01*
X0206631Y0038391D01*
X0206782Y0038336D01*
X0206932Y0038278D01*
X0207080Y0038216D01*
X0207227Y0038150D01*
X0207372Y0038081D01*
X0207515Y0038008D01*
X0207657Y0037932D01*
X0207796Y0037852D01*
X0207934Y0037769D01*
X0208069Y0037682D01*
X0208203Y0037592D01*
X0208334Y0037499D01*
X0208462Y0037403D01*
X0208588Y0037303D01*
X0208712Y0037200D01*
X0208833Y0037095D01*
X0208952Y0036986D01*
X0209068Y0036875D01*
X0209181Y0036760D01*
X0209291Y0036643D01*
X0209398Y0036523D01*
X0209502Y0036401D01*
X0209603Y0036276D01*
X0209701Y0036148D01*
X0209796Y0036018D01*
X0209888Y0035886D01*
X0209976Y0035752D01*
X0210061Y0035615D01*
X0210143Y0035477D01*
X0210221Y0035336D01*
X0210295Y0035194D01*
X0210366Y0035050D01*
X0210434Y0034904D01*
X0210497Y0034756D01*
X0210558Y0034607D01*
X0210614Y0034456D01*
X0210667Y0034304D01*
X0210716Y0034151D01*
X0210761Y0033997D01*
X0210802Y0033842D01*
X0210840Y0033685D01*
X0210873Y0033528D01*
X0210903Y0033370D01*
X0210929Y0033211D01*
X0210950Y0033052D01*
X0210968Y0032892D01*
X0210982Y0032732D01*
X0210992Y0032571D01*
X0210998Y0032411D01*
X0211000Y0032250D01*
X0210998Y0032089D01*
X0210992Y0031929D01*
X0210982Y0031768D01*
X0210968Y0031608D01*
X0210950Y0031448D01*
X0210929Y0031289D01*
X0210903Y0031130D01*
X0210873Y0030972D01*
X0210840Y0030815D01*
X0210802Y0030658D01*
X0210761Y0030503D01*
X0210716Y0030349D01*
X0210667Y0030196D01*
X0210614Y0030044D01*
X0210558Y0029893D01*
X0210497Y0029744D01*
X0210434Y0029596D01*
X0210366Y0029450D01*
X0210295Y0029306D01*
X0210221Y0029164D01*
X0210143Y0029023D01*
X0210061Y0028885D01*
X0209976Y0028748D01*
X0209888Y0028614D01*
X0209796Y0028482D01*
X0209701Y0028352D01*
X0209603Y0028224D01*
X0209502Y0028099D01*
X0209398Y0027977D01*
X0209291Y0027857D01*
X0209181Y0027740D01*
X0209068Y0027625D01*
X0208952Y0027514D01*
X0208833Y0027405D01*
X0208712Y0027300D01*
X0208588Y0027197D01*
X0208462Y0027097D01*
X0208334Y0027001D01*
X0208203Y0026908D01*
X0208069Y0026818D01*
X0207934Y0026731D01*
X0207796Y0026648D01*
X0207657Y0026568D01*
X0207515Y0026492D01*
X0207372Y0026419D01*
X0207227Y0026350D01*
X0207080Y0026284D01*
X0206932Y0026222D01*
X0206782Y0026164D01*
X0206631Y0026109D01*
X0206478Y0026058D01*
X0206324Y0026011D01*
X0206169Y0025968D01*
X0206013Y0025929D01*
X0205857Y0025893D01*
X0205699Y0025862D01*
X0205541Y0025834D01*
X0205382Y0025810D01*
X0205222Y0025790D01*
X0205062Y0025774D01*
X0204902Y0025762D01*
X0204741Y0025754D01*
X0204580Y0025750D01*
X0204420Y0025750D01*
X0204259Y0025754D01*
X0204098Y0025762D01*
X0203938Y0025774D01*
X0203778Y0025790D01*
X0203618Y0025810D01*
X0203459Y0025834D01*
X0203301Y0025862D01*
X0203143Y0025893D01*
X0202987Y0025929D01*
X0202831Y0025968D01*
X0202676Y0026011D01*
X0202522Y0026058D01*
X0202369Y0026109D01*
X0202218Y0026164D01*
X0202068Y0026222D01*
X0201920Y0026284D01*
X0201773Y0026350D01*
X0201628Y0026419D01*
X0201485Y0026492D01*
X0201343Y0026568D01*
X0201204Y0026648D01*
X0201066Y0026731D01*
X0200931Y0026818D01*
X0200797Y0026908D01*
X0200666Y0027001D01*
X0200538Y0027097D01*
X0200412Y0027197D01*
X0200288Y0027300D01*
X0200167Y0027405D01*
X0200048Y0027514D01*
X0199932Y0027625D01*
X0199819Y0027740D01*
X0199709Y0027857D01*
X0199602Y0027977D01*
X0199498Y0028099D01*
X0199397Y0028224D01*
X0199299Y0028352D01*
X0199204Y0028482D01*
X0199112Y0028614D01*
X0199024Y0028748D01*
X0198939Y0028885D01*
X0198857Y0029023D01*
X0198779Y0029164D01*
X0198705Y0029306D01*
X0198634Y0029450D01*
X0198566Y0029596D01*
X0198503Y0029744D01*
X0198442Y0029893D01*
X0198386Y0030044D01*
X0198333Y0030196D01*
X0198284Y0030349D01*
X0198239Y0030503D01*
X0198198Y0030658D01*
X0198160Y0030815D01*
X0198127Y0030972D01*
X0198097Y0031130D01*
X0198071Y0031289D01*
X0198050Y0031448D01*
X0198032Y0031608D01*
X0198018Y0031768D01*
X0198008Y0031929D01*
X0198002Y0032089D01*
X0198000Y0032250D01*
X0198000Y0147250D02*
X0198002Y0147411D01*
X0198008Y0147571D01*
X0198018Y0147732D01*
X0198032Y0147892D01*
X0198050Y0148052D01*
X0198071Y0148211D01*
X0198097Y0148370D01*
X0198127Y0148528D01*
X0198160Y0148685D01*
X0198198Y0148842D01*
X0198239Y0148997D01*
X0198284Y0149151D01*
X0198333Y0149304D01*
X0198386Y0149456D01*
X0198442Y0149607D01*
X0198503Y0149756D01*
X0198566Y0149904D01*
X0198634Y0150050D01*
X0198705Y0150194D01*
X0198779Y0150336D01*
X0198857Y0150477D01*
X0198939Y0150615D01*
X0199024Y0150752D01*
X0199112Y0150886D01*
X0199204Y0151018D01*
X0199299Y0151148D01*
X0199397Y0151276D01*
X0199498Y0151401D01*
X0199602Y0151523D01*
X0199709Y0151643D01*
X0199819Y0151760D01*
X0199932Y0151875D01*
X0200048Y0151986D01*
X0200167Y0152095D01*
X0200288Y0152200D01*
X0200412Y0152303D01*
X0200538Y0152403D01*
X0200666Y0152499D01*
X0200797Y0152592D01*
X0200931Y0152682D01*
X0201066Y0152769D01*
X0201204Y0152852D01*
X0201343Y0152932D01*
X0201485Y0153008D01*
X0201628Y0153081D01*
X0201773Y0153150D01*
X0201920Y0153216D01*
X0202068Y0153278D01*
X0202218Y0153336D01*
X0202369Y0153391D01*
X0202522Y0153442D01*
X0202676Y0153489D01*
X0202831Y0153532D01*
X0202987Y0153571D01*
X0203143Y0153607D01*
X0203301Y0153638D01*
X0203459Y0153666D01*
X0203618Y0153690D01*
X0203778Y0153710D01*
X0203938Y0153726D01*
X0204098Y0153738D01*
X0204259Y0153746D01*
X0204420Y0153750D01*
X0204580Y0153750D01*
X0204741Y0153746D01*
X0204902Y0153738D01*
X0205062Y0153726D01*
X0205222Y0153710D01*
X0205382Y0153690D01*
X0205541Y0153666D01*
X0205699Y0153638D01*
X0205857Y0153607D01*
X0206013Y0153571D01*
X0206169Y0153532D01*
X0206324Y0153489D01*
X0206478Y0153442D01*
X0206631Y0153391D01*
X0206782Y0153336D01*
X0206932Y0153278D01*
X0207080Y0153216D01*
X0207227Y0153150D01*
X0207372Y0153081D01*
X0207515Y0153008D01*
X0207657Y0152932D01*
X0207796Y0152852D01*
X0207934Y0152769D01*
X0208069Y0152682D01*
X0208203Y0152592D01*
X0208334Y0152499D01*
X0208462Y0152403D01*
X0208588Y0152303D01*
X0208712Y0152200D01*
X0208833Y0152095D01*
X0208952Y0151986D01*
X0209068Y0151875D01*
X0209181Y0151760D01*
X0209291Y0151643D01*
X0209398Y0151523D01*
X0209502Y0151401D01*
X0209603Y0151276D01*
X0209701Y0151148D01*
X0209796Y0151018D01*
X0209888Y0150886D01*
X0209976Y0150752D01*
X0210061Y0150615D01*
X0210143Y0150477D01*
X0210221Y0150336D01*
X0210295Y0150194D01*
X0210366Y0150050D01*
X0210434Y0149904D01*
X0210497Y0149756D01*
X0210558Y0149607D01*
X0210614Y0149456D01*
X0210667Y0149304D01*
X0210716Y0149151D01*
X0210761Y0148997D01*
X0210802Y0148842D01*
X0210840Y0148685D01*
X0210873Y0148528D01*
X0210903Y0148370D01*
X0210929Y0148211D01*
X0210950Y0148052D01*
X0210968Y0147892D01*
X0210982Y0147732D01*
X0210992Y0147571D01*
X0210998Y0147411D01*
X0211000Y0147250D01*
X0210998Y0147089D01*
X0210992Y0146929D01*
X0210982Y0146768D01*
X0210968Y0146608D01*
X0210950Y0146448D01*
X0210929Y0146289D01*
X0210903Y0146130D01*
X0210873Y0145972D01*
X0210840Y0145815D01*
X0210802Y0145658D01*
X0210761Y0145503D01*
X0210716Y0145349D01*
X0210667Y0145196D01*
X0210614Y0145044D01*
X0210558Y0144893D01*
X0210497Y0144744D01*
X0210434Y0144596D01*
X0210366Y0144450D01*
X0210295Y0144306D01*
X0210221Y0144164D01*
X0210143Y0144023D01*
X0210061Y0143885D01*
X0209976Y0143748D01*
X0209888Y0143614D01*
X0209796Y0143482D01*
X0209701Y0143352D01*
X0209603Y0143224D01*
X0209502Y0143099D01*
X0209398Y0142977D01*
X0209291Y0142857D01*
X0209181Y0142740D01*
X0209068Y0142625D01*
X0208952Y0142514D01*
X0208833Y0142405D01*
X0208712Y0142300D01*
X0208588Y0142197D01*
X0208462Y0142097D01*
X0208334Y0142001D01*
X0208203Y0141908D01*
X0208069Y0141818D01*
X0207934Y0141731D01*
X0207796Y0141648D01*
X0207657Y0141568D01*
X0207515Y0141492D01*
X0207372Y0141419D01*
X0207227Y0141350D01*
X0207080Y0141284D01*
X0206932Y0141222D01*
X0206782Y0141164D01*
X0206631Y0141109D01*
X0206478Y0141058D01*
X0206324Y0141011D01*
X0206169Y0140968D01*
X0206013Y0140929D01*
X0205857Y0140893D01*
X0205699Y0140862D01*
X0205541Y0140834D01*
X0205382Y0140810D01*
X0205222Y0140790D01*
X0205062Y0140774D01*
X0204902Y0140762D01*
X0204741Y0140754D01*
X0204580Y0140750D01*
X0204420Y0140750D01*
X0204259Y0140754D01*
X0204098Y0140762D01*
X0203938Y0140774D01*
X0203778Y0140790D01*
X0203618Y0140810D01*
X0203459Y0140834D01*
X0203301Y0140862D01*
X0203143Y0140893D01*
X0202987Y0140929D01*
X0202831Y0140968D01*
X0202676Y0141011D01*
X0202522Y0141058D01*
X0202369Y0141109D01*
X0202218Y0141164D01*
X0202068Y0141222D01*
X0201920Y0141284D01*
X0201773Y0141350D01*
X0201628Y0141419D01*
X0201485Y0141492D01*
X0201343Y0141568D01*
X0201204Y0141648D01*
X0201066Y0141731D01*
X0200931Y0141818D01*
X0200797Y0141908D01*
X0200666Y0142001D01*
X0200538Y0142097D01*
X0200412Y0142197D01*
X0200288Y0142300D01*
X0200167Y0142405D01*
X0200048Y0142514D01*
X0199932Y0142625D01*
X0199819Y0142740D01*
X0199709Y0142857D01*
X0199602Y0142977D01*
X0199498Y0143099D01*
X0199397Y0143224D01*
X0199299Y0143352D01*
X0199204Y0143482D01*
X0199112Y0143614D01*
X0199024Y0143748D01*
X0198939Y0143885D01*
X0198857Y0144023D01*
X0198779Y0144164D01*
X0198705Y0144306D01*
X0198634Y0144450D01*
X0198566Y0144596D01*
X0198503Y0144744D01*
X0198442Y0144893D01*
X0198386Y0145044D01*
X0198333Y0145196D01*
X0198284Y0145349D01*
X0198239Y0145503D01*
X0198198Y0145658D01*
X0198160Y0145815D01*
X0198127Y0145972D01*
X0198097Y0146130D01*
X0198071Y0146289D01*
X0198050Y0146448D01*
X0198032Y0146608D01*
X0198018Y0146768D01*
X0198008Y0146929D01*
X0198002Y0147089D01*
X0198000Y0147250D01*
D21*
X0210050Y0072328D02*
X0210050Y0071327D01*
X0210050Y0071827D02*
X0208549Y0071827D01*
X0209049Y0071327D01*
X0208799Y0070854D02*
X0208549Y0070604D01*
X0208549Y0070104D01*
X0208799Y0069853D01*
X0209049Y0069853D01*
X0209299Y0070104D01*
X0209299Y0070604D01*
X0209550Y0070854D01*
X0209800Y0070854D01*
X0210050Y0070604D01*
X0210050Y0070104D01*
X0209800Y0069853D01*
D22*
X0055654Y0052509D03*
D23*
X0055589Y0052639D03*
D24*
X0055654Y0052769D03*
D25*
X0055654Y0052898D03*
D26*
X0055654Y0053028D03*
D27*
X0055654Y0053158D03*
D28*
X0055589Y0053287D03*
D29*
X0055589Y0053417D03*
D30*
X0055589Y0053547D03*
D31*
X0055589Y0053676D03*
D32*
X0055654Y0053806D03*
D33*
X0055589Y0053936D03*
D34*
X0055654Y0054065D03*
D35*
X0055654Y0054195D03*
D36*
X0055654Y0054325D03*
D37*
X0055589Y0054454D03*
D38*
X0055589Y0054584D03*
D39*
X0055589Y0054714D03*
D40*
X0055654Y0054843D03*
D41*
X0055589Y0054973D03*
D42*
X0055654Y0055103D03*
D43*
X0055589Y0055232D03*
D44*
X0055654Y0055362D03*
D45*
X0055589Y0055492D03*
D46*
X0055654Y0055621D03*
D47*
X0055589Y0055751D03*
D48*
X0055589Y0055881D03*
X0055589Y0073515D03*
D49*
X0055654Y0073255D03*
X0055654Y0056010D03*
D50*
X0055589Y0056140D03*
D51*
X0055589Y0056270D03*
D52*
X0055654Y0056399D03*
D53*
X0055589Y0056529D03*
D54*
X0055589Y0056659D03*
D55*
X0037825Y0056788D03*
D56*
X0042428Y0056788D03*
X0045281Y0061197D03*
X0050208Y0060808D03*
X0056172Y0061197D03*
X0056172Y0059252D03*
D57*
X0056367Y0058733D03*
X0056367Y0061586D03*
X0053384Y0058344D03*
X0050402Y0059641D03*
X0045086Y0060030D03*
X0041326Y0062104D03*
X0044568Y0056788D03*
X0058960Y0067809D03*
X0058571Y0068976D03*
X0058441Y0069365D03*
X0058052Y0070273D03*
X0057923Y0070662D03*
D58*
X0047679Y0056788D03*
X0036399Y0058344D03*
X0036399Y0058733D03*
X0036399Y0059252D03*
X0036399Y0059641D03*
X0036399Y0060030D03*
X0036399Y0060808D03*
X0036399Y0061197D03*
X0036399Y0061586D03*
X0036399Y0062104D03*
D59*
X0050337Y0060030D03*
X0053449Y0062104D03*
X0059025Y0067420D03*
X0058247Y0069754D03*
X0057469Y0071829D03*
X0057339Y0072218D03*
X0049689Y0071829D03*
X0050856Y0056788D03*
D60*
X0053773Y0056788D03*
X0068944Y0060030D03*
D61*
X0059544Y0056788D03*
D62*
X0065248Y0056788D03*
X0069009Y0058344D03*
X0069009Y0062104D03*
X0052931Y0072737D03*
D63*
X0071926Y0056788D03*
D64*
X0060710Y0058214D03*
X0060710Y0058474D03*
X0060710Y0058863D03*
X0060710Y0059122D03*
X0060710Y0060678D03*
X0060710Y0061067D03*
X0060710Y0061326D03*
X0060710Y0061715D03*
X0036593Y0056918D03*
D65*
X0040159Y0056918D03*
X0042493Y0056918D03*
X0044956Y0059511D03*
X0041326Y0061715D03*
X0050532Y0059122D03*
X0053255Y0061715D03*
X0060775Y0070792D03*
D66*
X0062201Y0059770D03*
X0050662Y0058474D03*
X0047679Y0059770D03*
X0044568Y0056918D03*
X0041326Y0061067D03*
X0041326Y0061326D03*
D67*
X0047679Y0056918D03*
X0068944Y0058474D03*
X0068944Y0062234D03*
D68*
X0062266Y0056918D03*
X0056561Y0058214D03*
X0056561Y0061975D03*
X0056691Y0062234D03*
X0052671Y0069495D03*
X0055394Y0069884D03*
X0050597Y0058863D03*
X0050856Y0056918D03*
X0044892Y0059122D03*
D69*
X0047679Y0057307D03*
X0053773Y0056918D03*
D70*
X0056950Y0056918D03*
X0056691Y0062623D03*
X0055394Y0069495D03*
X0049689Y0071959D03*
X0050467Y0059511D03*
X0064860Y0058474D03*
D71*
X0065249Y0056918D03*
X0055394Y0067680D03*
X0053060Y0072348D03*
D72*
X0055394Y0067291D03*
X0069009Y0060159D03*
X0069009Y0058214D03*
X0069268Y0056918D03*
D73*
X0074260Y0056918D03*
X0074390Y0057307D03*
X0074390Y0062623D03*
D74*
X0036399Y0062364D03*
X0036399Y0061845D03*
X0036399Y0061456D03*
X0036399Y0060937D03*
X0036399Y0060548D03*
X0036399Y0060289D03*
X0036399Y0059900D03*
X0036399Y0059381D03*
X0036399Y0058992D03*
X0036399Y0058603D03*
X0036399Y0058085D03*
X0036399Y0057825D03*
X0036399Y0057696D03*
X0036529Y0057048D03*
D75*
X0040159Y0057048D03*
X0050662Y0058603D03*
X0056885Y0057048D03*
X0062201Y0059900D03*
X0064665Y0058992D03*
D76*
X0062331Y0057048D03*
X0056626Y0058085D03*
X0053125Y0061456D03*
X0052088Y0067550D03*
X0049754Y0068069D03*
X0044827Y0058992D03*
X0042493Y0057048D03*
D77*
X0042493Y0057436D03*
X0044568Y0057048D03*
X0044697Y0058085D03*
X0040029Y0057825D03*
X0040029Y0057696D03*
X0040029Y0057436D03*
X0050791Y0057696D03*
X0050791Y0057825D03*
X0052347Y0068069D03*
X0052606Y0068717D03*
D78*
X0047679Y0057048D03*
X0069073Y0058085D03*
X0069073Y0060289D03*
X0069073Y0061845D03*
D79*
X0062266Y0057696D03*
X0056820Y0057436D03*
X0056691Y0057696D03*
X0056691Y0057825D03*
X0053320Y0058992D03*
X0050726Y0058085D03*
X0050856Y0057048D03*
X0047615Y0059900D03*
X0044762Y0058603D03*
X0041261Y0060937D03*
X0052671Y0069106D03*
D80*
X0049884Y0062364D03*
X0045475Y0062364D03*
X0047679Y0057696D03*
X0053773Y0057048D03*
D81*
X0049948Y0061845D03*
X0047615Y0057825D03*
X0055394Y0068069D03*
X0053060Y0072088D03*
X0065248Y0057048D03*
D82*
X0069268Y0057048D03*
D83*
X0074390Y0057048D03*
X0074390Y0062364D03*
D84*
X0036464Y0057177D03*
D85*
X0040094Y0057177D03*
X0044762Y0058344D03*
X0047615Y0060030D03*
X0056820Y0057177D03*
X0062266Y0062104D03*
X0055394Y0070273D03*
D86*
X0042558Y0057177D03*
D87*
X0044503Y0057177D03*
X0039964Y0058344D03*
X0050856Y0057177D03*
X0060840Y0069754D03*
X0055394Y0070662D03*
D88*
X0047615Y0057177D03*
X0069268Y0057177D03*
D89*
X0065184Y0057177D03*
X0055978Y0060808D03*
X0053773Y0057177D03*
X0050013Y0061586D03*
X0045475Y0062104D03*
D90*
X0062331Y0057177D03*
X0064535Y0059252D03*
D91*
X0074390Y0057177D03*
X0074390Y0062493D03*
D92*
X0068749Y0059770D03*
X0036464Y0057307D03*
D93*
X0040094Y0057307D03*
X0044762Y0058474D03*
X0050726Y0058214D03*
X0053060Y0061326D03*
X0056820Y0057307D03*
X0062266Y0061975D03*
X0064600Y0059122D03*
X0060840Y0070143D03*
X0055394Y0070143D03*
X0052671Y0069236D03*
X0052153Y0067680D03*
D94*
X0052606Y0068847D03*
X0055329Y0070403D03*
X0047679Y0060159D03*
X0044697Y0058214D03*
X0042493Y0057307D03*
X0041326Y0060678D03*
D95*
X0041326Y0060159D03*
X0039900Y0058863D03*
X0039900Y0058474D03*
X0042622Y0058474D03*
X0042622Y0058214D03*
X0044567Y0057307D03*
X0055330Y0070792D03*
X0060775Y0069495D03*
D96*
X0050856Y0057307D03*
X0039964Y0058214D03*
D97*
X0045410Y0061715D03*
X0047615Y0058214D03*
X0053709Y0057307D03*
X0053060Y0071699D03*
X0053060Y0071959D03*
D98*
X0060775Y0069884D03*
X0062331Y0062234D03*
X0062331Y0057307D03*
D99*
X0065249Y0057307D03*
X0050078Y0061326D03*
X0049689Y0068847D03*
X0049430Y0069236D03*
D100*
X0069268Y0057307D03*
D101*
X0068749Y0058992D03*
X0036464Y0057436D03*
D102*
X0039900Y0058603D03*
X0041326Y0060289D03*
X0042622Y0058085D03*
X0044567Y0057436D03*
X0052866Y0060937D03*
X0060775Y0069625D03*
D103*
X0047614Y0057436D03*
D104*
X0050856Y0057436D03*
X0042558Y0057696D03*
X0042558Y0057825D03*
X0039964Y0058085D03*
X0052412Y0068328D03*
X0055394Y0070532D03*
D105*
X0052866Y0071310D03*
X0049754Y0068717D03*
X0050143Y0060937D03*
X0053644Y0057436D03*
X0045345Y0061456D03*
X0057144Y0072866D03*
X0065184Y0060937D03*
X0065184Y0057436D03*
D106*
X0062331Y0057436D03*
X0062331Y0062364D03*
X0060775Y0070014D03*
D107*
X0060775Y0072866D03*
X0069203Y0057436D03*
D108*
X0074455Y0057436D03*
X0074455Y0057696D03*
X0074455Y0057825D03*
X0074455Y0058085D03*
X0074455Y0058603D03*
X0074455Y0058992D03*
X0074455Y0059381D03*
X0074455Y0059900D03*
X0074455Y0060289D03*
X0074455Y0060548D03*
X0074455Y0060937D03*
X0074455Y0061456D03*
X0074455Y0061845D03*
D109*
X0036399Y0060419D03*
X0036399Y0057955D03*
X0036399Y0057566D03*
D110*
X0040029Y0057566D03*
X0050791Y0057955D03*
X0056756Y0057566D03*
D111*
X0050856Y0057566D03*
X0042558Y0057566D03*
X0042558Y0057955D03*
X0039964Y0057955D03*
X0052412Y0068198D03*
D112*
X0044567Y0057566D03*
X0041326Y0060419D03*
D113*
X0047679Y0057566D03*
D114*
X0053644Y0057566D03*
X0049754Y0068587D03*
D115*
X0062331Y0057566D03*
D116*
X0065119Y0057566D03*
D117*
X0069203Y0057566D03*
D118*
X0074455Y0057566D03*
X0074455Y0057955D03*
X0074455Y0060419D03*
D119*
X0052542Y0068458D03*
X0047615Y0060289D03*
X0044632Y0057825D03*
X0044632Y0057696D03*
X0041261Y0060548D03*
D120*
X0053579Y0062364D03*
X0056172Y0059381D03*
X0053579Y0057825D03*
X0053579Y0057696D03*
X0049819Y0071310D03*
X0049689Y0071570D03*
D121*
X0049948Y0071181D03*
X0056820Y0062753D03*
X0065119Y0061456D03*
X0065119Y0060548D03*
X0065119Y0057696D03*
D122*
X0069138Y0057696D03*
X0069138Y0057825D03*
X0069138Y0060548D03*
X0069138Y0060937D03*
X0069138Y0061456D03*
X0055394Y0067550D03*
D123*
X0062137Y0060289D03*
X0062137Y0057825D03*
X0041261Y0061456D03*
D124*
X0050273Y0060548D03*
X0050273Y0060289D03*
X0051829Y0067161D03*
X0065054Y0057825D03*
D125*
X0052542Y0068587D03*
X0047615Y0060419D03*
X0044632Y0057955D03*
D126*
X0047679Y0057955D03*
D127*
X0053514Y0057955D03*
X0049754Y0071440D03*
X0060775Y0071440D03*
D128*
X0056626Y0057955D03*
D129*
X0060710Y0057955D03*
X0060710Y0060419D03*
D130*
X0065054Y0057955D03*
X0050273Y0060419D03*
D131*
X0069073Y0060419D03*
X0069073Y0057955D03*
D132*
X0055978Y0059900D03*
X0047679Y0058085D03*
D133*
X0045151Y0060548D03*
X0041261Y0062364D03*
X0053449Y0058085D03*
X0056302Y0058992D03*
X0056302Y0061456D03*
X0052671Y0070014D03*
X0057339Y0072088D03*
X0057209Y0072477D03*
X0060840Y0071310D03*
X0064989Y0058085D03*
D134*
X0060710Y0058085D03*
X0060710Y0058603D03*
X0060710Y0058992D03*
X0060710Y0059381D03*
X0060710Y0060548D03*
X0060710Y0060937D03*
X0060710Y0061456D03*
D135*
X0068684Y0059122D03*
X0051829Y0070792D03*
X0036399Y0062234D03*
X0036399Y0061975D03*
X0036399Y0061715D03*
X0036399Y0061326D03*
X0036399Y0061067D03*
X0036399Y0060678D03*
X0036399Y0060159D03*
X0036399Y0059770D03*
X0036399Y0059511D03*
X0036399Y0059122D03*
X0036399Y0058863D03*
X0036399Y0058474D03*
X0036399Y0058214D03*
D136*
X0050337Y0060159D03*
X0053449Y0058214D03*
X0056302Y0058863D03*
X0064989Y0061715D03*
X0057987Y0070403D03*
X0057858Y0070792D03*
X0057469Y0071699D03*
X0057209Y0072348D03*
X0049689Y0071699D03*
D137*
X0057404Y0071959D03*
X0061942Y0059511D03*
X0064924Y0058214D03*
D138*
X0074455Y0058214D03*
X0074455Y0058474D03*
X0074455Y0058863D03*
X0074455Y0059122D03*
X0074455Y0059511D03*
X0074455Y0059770D03*
X0074455Y0060159D03*
X0074455Y0060678D03*
X0074455Y0061067D03*
X0074455Y0061326D03*
X0074455Y0061715D03*
X0074455Y0061975D03*
X0074455Y0062234D03*
D139*
X0042622Y0058344D03*
X0039900Y0058733D03*
D140*
X0041326Y0061197D03*
X0050662Y0058344D03*
X0062201Y0060030D03*
D141*
X0064795Y0058733D03*
X0056496Y0058344D03*
X0053255Y0058733D03*
X0050532Y0059252D03*
X0044956Y0059641D03*
X0041326Y0061586D03*
X0060775Y0070662D03*
D142*
X0060710Y0061586D03*
X0060710Y0061197D03*
X0060710Y0060808D03*
X0060710Y0059252D03*
X0060710Y0058733D03*
X0060710Y0058344D03*
X0068620Y0059252D03*
X0068620Y0059641D03*
D143*
X0064924Y0058344D03*
D144*
X0074455Y0058344D03*
X0074455Y0058733D03*
X0074455Y0059252D03*
X0074455Y0059641D03*
X0074455Y0060030D03*
X0074455Y0060808D03*
X0074455Y0061197D03*
X0074455Y0061586D03*
X0074455Y0062104D03*
D145*
X0059025Y0067680D03*
X0052671Y0069884D03*
X0051893Y0067291D03*
X0056431Y0061715D03*
X0056431Y0058474D03*
X0053320Y0058474D03*
X0045021Y0059770D03*
X0041261Y0061975D03*
D146*
X0042687Y0058992D03*
X0042687Y0058603D03*
X0064341Y0059381D03*
D147*
X0056431Y0058603D03*
X0053320Y0058603D03*
X0053320Y0061845D03*
X0045021Y0059900D03*
X0058636Y0068717D03*
D148*
X0056496Y0061845D03*
X0062072Y0061845D03*
X0064795Y0061845D03*
X0064795Y0060289D03*
X0064795Y0058603D03*
X0050532Y0058992D03*
X0044956Y0059381D03*
X0041326Y0061845D03*
D149*
X0068879Y0059900D03*
X0068879Y0058603D03*
D150*
X0053320Y0059252D03*
X0042687Y0058733D03*
X0041261Y0060030D03*
D151*
X0044827Y0058733D03*
X0052736Y0069365D03*
X0060775Y0070273D03*
X0062331Y0062493D03*
D152*
X0056691Y0062493D03*
X0056561Y0062104D03*
X0053190Y0061586D03*
X0050597Y0058733D03*
X0047614Y0059641D03*
X0044892Y0059252D03*
X0052023Y0067420D03*
X0055394Y0069754D03*
D153*
X0068879Y0058733D03*
D154*
X0042687Y0058863D03*
D155*
X0044827Y0058863D03*
X0053255Y0058863D03*
X0062331Y0062623D03*
X0060775Y0070403D03*
D156*
X0062137Y0060159D03*
X0064730Y0058863D03*
D157*
X0068814Y0058863D03*
D158*
X0055394Y0070921D03*
X0039835Y0059381D03*
X0039835Y0058992D03*
D159*
X0041261Y0058992D03*
X0047615Y0061456D03*
D160*
X0047614Y0060678D03*
X0049689Y0067939D03*
X0039835Y0059122D03*
D161*
X0041326Y0059122D03*
X0039640Y0060678D03*
X0053384Y0059511D03*
D162*
X0042752Y0059511D03*
X0042752Y0059122D03*
X0041326Y0059770D03*
X0039770Y0059770D03*
X0039770Y0059511D03*
D163*
X0052931Y0061067D03*
X0053320Y0059122D03*
X0052282Y0067939D03*
D164*
X0053514Y0062234D03*
X0056237Y0061326D03*
X0056237Y0059122D03*
X0045216Y0060678D03*
D165*
X0039835Y0059252D03*
X0052801Y0060808D03*
X0060840Y0069365D03*
X0049689Y0072218D03*
D166*
X0047679Y0061197D03*
X0041326Y0059252D03*
X0039640Y0060808D03*
D167*
X0039770Y0059641D03*
X0041326Y0059641D03*
X0042752Y0059252D03*
X0047679Y0060808D03*
D168*
X0047615Y0059252D03*
X0052671Y0069754D03*
D169*
X0041326Y0059381D03*
X0039640Y0060548D03*
X0039640Y0060937D03*
D170*
X0039770Y0059900D03*
X0041326Y0059900D03*
X0042752Y0059381D03*
X0047679Y0060937D03*
X0053384Y0059381D03*
D171*
X0047679Y0059381D03*
D172*
X0050467Y0059381D03*
X0055394Y0069625D03*
X0058895Y0068069D03*
X0060840Y0070921D03*
D173*
X0068555Y0059381D03*
D174*
X0047615Y0061067D03*
X0042817Y0059770D03*
X0041261Y0059511D03*
X0039705Y0060159D03*
D175*
X0047679Y0059511D03*
D176*
X0050143Y0061067D03*
X0045345Y0061326D03*
X0041326Y0062623D03*
X0056107Y0061067D03*
X0056107Y0059511D03*
X0065184Y0061067D03*
X0065184Y0061326D03*
X0060775Y0071699D03*
X0060775Y0071959D03*
D177*
X0068490Y0059511D03*
D178*
X0060840Y0068976D03*
X0042817Y0060030D03*
X0042817Y0059641D03*
X0039705Y0060030D03*
D179*
X0053060Y0071829D03*
X0056043Y0059641D03*
D180*
X0062137Y0059641D03*
D181*
X0058960Y0067939D03*
X0058571Y0068847D03*
X0058441Y0069236D03*
X0058312Y0069495D03*
X0058182Y0069884D03*
X0058052Y0070143D03*
X0053384Y0061975D03*
X0050402Y0059770D03*
X0045086Y0060159D03*
X0041326Y0062234D03*
D182*
X0045475Y0062234D03*
X0045475Y0061975D03*
X0050013Y0061715D03*
X0053644Y0062623D03*
X0055978Y0059770D03*
X0057145Y0072996D03*
D183*
X0055394Y0071310D03*
X0055394Y0071181D03*
X0052671Y0060548D03*
X0042817Y0059900D03*
X0039705Y0060289D03*
D184*
X0045086Y0060289D03*
X0050402Y0059900D03*
X0058830Y0068328D03*
X0058701Y0068458D03*
X0058441Y0069106D03*
X0058312Y0069625D03*
X0058182Y0070014D03*
X0057923Y0070532D03*
X0057793Y0070921D03*
X0057663Y0071181D03*
X0057663Y0071310D03*
X0057534Y0071570D03*
X0059090Y0067550D03*
D185*
X0053060Y0072218D03*
X0049948Y0062104D03*
X0055913Y0060030D03*
D186*
X0060775Y0068847D03*
X0042882Y0060159D03*
D187*
X0055848Y0060159D03*
X0060775Y0072607D03*
D188*
X0060775Y0068717D03*
X0042882Y0060548D03*
X0042882Y0060289D03*
D189*
X0042947Y0060937D03*
X0052542Y0060289D03*
X0055394Y0071570D03*
D190*
X0060775Y0072477D03*
X0053644Y0062753D03*
X0055848Y0060548D03*
X0055848Y0060289D03*
X0041326Y0062753D03*
D191*
X0039705Y0060419D03*
X0055394Y0071440D03*
D192*
X0042882Y0060419D03*
D193*
X0045151Y0060419D03*
X0057598Y0071440D03*
X0064989Y0060419D03*
D194*
X0052606Y0060419D03*
D195*
X0055783Y0060419D03*
D196*
X0047679Y0060548D03*
D197*
X0042947Y0060678D03*
X0042947Y0061067D03*
X0039575Y0061067D03*
X0055394Y0071699D03*
D198*
X0052542Y0070143D03*
X0050208Y0060678D03*
X0045281Y0061067D03*
D199*
X0052736Y0060678D03*
X0060775Y0069236D03*
D200*
X0055394Y0067939D03*
X0055913Y0060678D03*
X0049948Y0061975D03*
D201*
X0065119Y0060678D03*
D202*
X0069138Y0060678D03*
X0069138Y0061326D03*
X0069138Y0061715D03*
X0049819Y0062623D03*
D203*
X0052995Y0061197D03*
X0052218Y0067809D03*
X0052606Y0068976D03*
X0041326Y0060808D03*
D204*
X0042947Y0060808D03*
X0039575Y0061197D03*
D205*
X0041326Y0062493D03*
X0045216Y0060808D03*
D206*
X0045345Y0061586D03*
X0050143Y0061197D03*
X0052477Y0070273D03*
X0060775Y0071829D03*
X0065184Y0061197D03*
X0065184Y0060808D03*
D207*
X0069138Y0060808D03*
X0069138Y0061586D03*
X0055394Y0067420D03*
D208*
X0049754Y0068328D03*
X0049754Y0068458D03*
X0045216Y0060937D03*
X0060775Y0071570D03*
X0062331Y0062753D03*
D209*
X0056043Y0060937D03*
X0049559Y0069106D03*
X0045410Y0061845D03*
D210*
X0045475Y0062623D03*
X0069203Y0061067D03*
D211*
X0069203Y0061197D03*
D212*
X0047615Y0061326D03*
D213*
X0050078Y0061456D03*
X0055394Y0068328D03*
X0055394Y0068458D03*
X0052801Y0071181D03*
D214*
X0065119Y0061586D03*
D215*
X0069073Y0061975D03*
X0052995Y0072607D03*
D216*
X0049884Y0062234D03*
D217*
X0052671Y0069625D03*
X0055394Y0070014D03*
X0060840Y0070532D03*
X0056691Y0062364D03*
X0049689Y0072088D03*
D218*
X0068944Y0062364D03*
D219*
X0036464Y0062493D03*
D220*
X0045475Y0062493D03*
D221*
X0049819Y0062493D03*
X0055394Y0067809D03*
D222*
X0053579Y0062493D03*
X0049689Y0068976D03*
D223*
X0068879Y0062493D03*
D224*
X0052736Y0072996D03*
X0036528Y0062623D03*
D225*
X0068749Y0062623D03*
D226*
X0036723Y0062753D03*
D227*
X0045345Y0062753D03*
D228*
X0049819Y0062753D03*
X0055394Y0067161D03*
D229*
X0068425Y0062753D03*
D230*
X0074325Y0062753D03*
D231*
X0055589Y0062882D03*
X0055589Y0063271D03*
X0055589Y0065735D03*
D232*
X0055589Y0065865D03*
X0055589Y0065605D03*
X0055589Y0065216D03*
X0055589Y0064698D03*
X0055589Y0064309D03*
X0055589Y0063790D03*
X0055589Y0063401D03*
X0055589Y0063142D03*
X0055589Y0063012D03*
X0055589Y0066253D03*
X0055589Y0066772D03*
D233*
X0055589Y0066642D03*
X0055589Y0066383D03*
X0055589Y0065994D03*
X0055589Y0065476D03*
X0055589Y0065087D03*
X0055589Y0064827D03*
X0055589Y0064438D03*
X0055589Y0064179D03*
X0055589Y0063920D03*
X0055589Y0063531D03*
D234*
X0055589Y0063660D03*
X0055589Y0064049D03*
X0055589Y0064568D03*
X0055589Y0064957D03*
X0055589Y0065346D03*
X0055589Y0066124D03*
X0055589Y0066513D03*
X0055589Y0066902D03*
D235*
X0041974Y0067031D03*
D236*
X0055265Y0067031D03*
D237*
X0068814Y0067031D03*
D238*
X0041585Y0067161D03*
D239*
X0052995Y0071570D03*
X0059090Y0067161D03*
D240*
X0069009Y0067161D03*
D241*
X0041391Y0067291D03*
D242*
X0057145Y0072607D03*
X0059090Y0067291D03*
D243*
X0069073Y0067291D03*
D244*
X0041261Y0067420D03*
D245*
X0069138Y0067420D03*
D246*
X0041196Y0067550D03*
D247*
X0069203Y0067550D03*
D248*
X0070046Y0071959D03*
X0041261Y0072607D03*
X0041131Y0070403D03*
X0041131Y0067680D03*
D249*
X0069203Y0067680D03*
D250*
X0069981Y0072218D03*
X0069981Y0072737D03*
X0041067Y0070662D03*
X0041067Y0067809D03*
D251*
X0069268Y0067809D03*
D252*
X0041002Y0067939D03*
X0041002Y0069236D03*
X0041002Y0070792D03*
D253*
X0069268Y0067939D03*
D254*
X0041002Y0068069D03*
X0041002Y0070921D03*
D255*
X0069268Y0068069D03*
D256*
X0040937Y0068198D03*
X0040937Y0071051D03*
X0040937Y0071440D03*
D257*
X0049754Y0068198D03*
X0060775Y0071051D03*
D258*
X0055394Y0068198D03*
D259*
X0058701Y0068587D03*
X0058830Y0068198D03*
D260*
X0069333Y0068198D03*
D261*
X0040937Y0068328D03*
X0040937Y0069106D03*
X0040937Y0071181D03*
X0040937Y0071310D03*
X0040937Y0071570D03*
X0041067Y0072088D03*
D262*
X0069333Y0068328D03*
D263*
X0040872Y0068458D03*
X0040872Y0068717D03*
D264*
X0069398Y0068717D03*
X0069398Y0068458D03*
D265*
X0040872Y0068587D03*
D266*
X0060840Y0068587D03*
D267*
X0069398Y0068587D03*
D268*
X0040872Y0068847D03*
D269*
X0069462Y0068847D03*
D270*
X0040872Y0068976D03*
D271*
X0069462Y0068976D03*
D272*
X0060775Y0069106D03*
D273*
X0069462Y0069106D03*
D274*
X0069527Y0069236D03*
X0069527Y0069495D03*
D275*
X0042428Y0069365D03*
D276*
X0069527Y0069365D03*
D277*
X0042298Y0069495D03*
D278*
X0042104Y0069625D03*
D279*
X0069592Y0069625D03*
D280*
X0041844Y0069754D03*
D281*
X0069592Y0069754D03*
D282*
X0041650Y0069884D03*
D283*
X0069657Y0069884D03*
X0069657Y0070143D03*
D284*
X0041456Y0070014D03*
D285*
X0069657Y0070014D03*
D286*
X0041326Y0070143D03*
D287*
X0041196Y0070273D03*
D288*
X0069722Y0070273D03*
D289*
X0052412Y0070403D03*
D290*
X0069722Y0070403D03*
D291*
X0069981Y0072866D03*
X0041067Y0070532D03*
D292*
X0052218Y0070532D03*
X0052995Y0072477D03*
D293*
X0069722Y0070532D03*
D294*
X0052023Y0070662D03*
D295*
X0069787Y0070662D03*
D296*
X0069787Y0070792D03*
D297*
X0051634Y0070921D03*
D298*
X0069851Y0070921D03*
X0069851Y0071181D03*
D299*
X0051504Y0071051D03*
D300*
X0055394Y0071051D03*
D301*
X0057728Y0071051D03*
D302*
X0069851Y0071051D03*
D303*
X0060775Y0071181D03*
D304*
X0069916Y0071310D03*
X0069916Y0071570D03*
D305*
X0052995Y0071440D03*
D306*
X0069916Y0071440D03*
D307*
X0041002Y0071699D03*
D308*
X0069981Y0071699D03*
D309*
X0041002Y0071829D03*
D310*
X0069981Y0071829D03*
D311*
X0041067Y0071959D03*
D312*
X0060775Y0072088D03*
D313*
X0070046Y0072088D03*
D314*
X0041131Y0072218D03*
D315*
X0060775Y0072218D03*
D316*
X0070046Y0072348D03*
X0070046Y0072607D03*
X0041131Y0072348D03*
D317*
X0060775Y0072348D03*
D318*
X0041196Y0072477D03*
D319*
X0070046Y0072477D03*
D320*
X0041391Y0072737D03*
D321*
X0057145Y0072737D03*
D322*
X0060775Y0072737D03*
D323*
X0041520Y0072866D03*
D324*
X0052866Y0072866D03*
D325*
X0041715Y0072996D03*
D326*
X0060775Y0072996D03*
D327*
X0069852Y0072996D03*
D328*
X0055654Y0073126D03*
D329*
X0055589Y0073385D03*
D330*
X0055654Y0073644D03*
D331*
X0055589Y0073774D03*
D332*
X0055589Y0073904D03*
D333*
X0055654Y0074033D03*
D334*
X0055589Y0074163D03*
D335*
X0055654Y0074293D03*
D336*
X0055589Y0074422D03*
D337*
X0055589Y0074552D03*
D338*
X0055654Y0074682D03*
D339*
X0055654Y0074811D03*
D340*
X0055589Y0074941D03*
D341*
X0055589Y0075070D03*
D342*
X0055589Y0075200D03*
D343*
X0055589Y0075330D03*
D344*
X0055654Y0075459D03*
D345*
X0055654Y0075589D03*
D346*
X0055589Y0075719D03*
D347*
X0055589Y0075848D03*
D348*
X0055589Y0075978D03*
D349*
X0055589Y0076108D03*
D350*
X0055654Y0076237D03*
D351*
X0055654Y0076367D03*
D352*
X0168068Y0030250D03*
D353*
X0168068Y0030422D03*
X0168068Y0030594D03*
D354*
X0161365Y0034718D03*
X0157413Y0033172D03*
X0155522Y0033859D03*
X0155522Y0034031D03*
X0151398Y0034718D03*
X0146586Y0030766D03*
X0183878Y0033859D03*
X0185597Y0033343D03*
D355*
X0168068Y0030766D03*
X0168068Y0036437D03*
D356*
X0168068Y0036265D03*
X0168068Y0030937D03*
D357*
X0168068Y0031109D03*
D358*
X0166693Y0032656D03*
X0166693Y0034718D03*
X0166693Y0034890D03*
X0170302Y0034031D03*
X0170302Y0033859D03*
X0170302Y0033687D03*
X0170302Y0033515D03*
X0170302Y0033343D03*
X0179238Y0033343D03*
X0179238Y0033172D03*
X0179238Y0033000D03*
X0179238Y0032828D03*
X0179238Y0032656D03*
X0179238Y0032312D03*
X0179238Y0032140D03*
X0179238Y0031969D03*
X0179238Y0031797D03*
X0179238Y0033515D03*
X0188174Y0031453D03*
X0188174Y0035749D03*
X0161365Y0031453D03*
X0159647Y0036093D03*
X0156554Y0036093D03*
X0147789Y0031797D03*
X0147789Y0031625D03*
X0147961Y0031281D03*
D359*
X0151398Y0031281D03*
X0151398Y0031453D03*
D360*
X0151398Y0033515D03*
X0151398Y0033687D03*
X0153804Y0032828D03*
X0153804Y0032656D03*
X0153976Y0031281D03*
X0155866Y0032828D03*
X0155866Y0033000D03*
X0157069Y0034203D03*
X0158959Y0032828D03*
X0158959Y0032656D03*
X0158788Y0031281D03*
X0161365Y0033687D03*
X0163771Y0032656D03*
X0163943Y0031281D03*
X0167896Y0031969D03*
X0168240Y0031625D03*
X0172879Y0034718D03*
X0175801Y0031969D03*
X0182160Y0031969D03*
X0182160Y0032140D03*
X0182160Y0032312D03*
X0182160Y0032656D03*
X0182160Y0032828D03*
X0182160Y0033000D03*
X0182160Y0033172D03*
X0182160Y0033343D03*
X0182160Y0033515D03*
X0182160Y0033687D03*
X0182160Y0033859D03*
X0182160Y0034031D03*
X0182160Y0034203D03*
X0182160Y0034374D03*
X0182160Y0034718D03*
X0182160Y0034890D03*
X0182160Y0035062D03*
X0182160Y0035234D03*
X0182160Y0035406D03*
X0182160Y0035577D03*
X0182160Y0035749D03*
X0184222Y0032828D03*
X0185253Y0034374D03*
X0182160Y0031797D03*
X0182160Y0031625D03*
D361*
X0175887Y0032312D03*
X0170216Y0034718D03*
X0156296Y0031281D03*
X0153202Y0035577D03*
D362*
X0161279Y0031281D03*
X0172966Y0031453D03*
X0179152Y0033687D03*
X0179152Y0034718D03*
X0179152Y0034890D03*
X0179152Y0035062D03*
X0179152Y0035234D03*
X0188260Y0035234D03*
X0188260Y0035406D03*
X0188260Y0035577D03*
X0188260Y0035062D03*
X0188260Y0034890D03*
X0188260Y0034718D03*
X0188260Y0034374D03*
X0188260Y0034203D03*
X0188260Y0034031D03*
X0188260Y0033859D03*
X0188260Y0033687D03*
X0188260Y0033515D03*
X0188260Y0033343D03*
X0188260Y0033172D03*
X0188260Y0033000D03*
X0188260Y0032828D03*
X0188260Y0032656D03*
X0188260Y0032312D03*
X0188260Y0032140D03*
X0188260Y0031969D03*
X0188260Y0031797D03*
X0188260Y0031625D03*
D363*
X0184566Y0031797D03*
X0184909Y0035406D03*
X0182160Y0036093D03*
X0175114Y0033687D03*
X0168411Y0031281D03*
X0159303Y0034203D03*
X0159303Y0034374D03*
X0156725Y0035234D03*
X0153460Y0034374D03*
X0153460Y0034203D03*
X0156210Y0031797D03*
D364*
X0173051Y0031281D03*
D365*
X0178808Y0031281D03*
X0148390Y0034718D03*
X0148390Y0034890D03*
D366*
X0153632Y0033687D03*
X0153632Y0033515D03*
X0153632Y0033343D03*
X0156038Y0032312D03*
X0156897Y0034718D03*
X0159131Y0033687D03*
X0159131Y0033515D03*
X0159131Y0033343D03*
X0161365Y0033172D03*
X0163600Y0033343D03*
X0163600Y0033515D03*
X0182159Y0031281D03*
X0184394Y0032140D03*
X0184394Y0032312D03*
X0185081Y0034890D03*
X0182159Y0035921D03*
D367*
X0184823Y0035921D03*
X0184651Y0031281D03*
X0175715Y0034718D03*
X0172966Y0035577D03*
X0172966Y0031625D03*
X0163170Y0035406D03*
X0163170Y0035577D03*
X0159561Y0035577D03*
X0159561Y0035749D03*
X0156468Y0035921D03*
X0161279Y0031969D03*
D368*
X0166779Y0032140D03*
X0166779Y0032312D03*
X0166779Y0035062D03*
X0166779Y0035234D03*
X0147875Y0032312D03*
X0147875Y0032140D03*
X0147875Y0031969D03*
X0188089Y0031281D03*
X0188089Y0035921D03*
D369*
X0184823Y0036093D03*
X0172965Y0035749D03*
X0170216Y0034374D03*
X0170216Y0034203D03*
X0170216Y0033172D03*
X0170216Y0033000D03*
X0170216Y0032828D03*
X0163170Y0035921D03*
X0153202Y0035921D03*
X0147875Y0031453D03*
D370*
X0154062Y0031453D03*
X0155780Y0033172D03*
X0157155Y0033859D03*
X0157155Y0034031D03*
X0158873Y0032312D03*
X0158873Y0032140D03*
X0161279Y0033859D03*
X0163857Y0032312D03*
X0163857Y0032140D03*
X0163857Y0031969D03*
X0184136Y0033000D03*
X0184136Y0033172D03*
D371*
X0184480Y0031625D03*
X0175887Y0032140D03*
X0172965Y0031797D03*
X0170216Y0032312D03*
X0172965Y0035406D03*
X0163342Y0034890D03*
X0163342Y0034718D03*
X0159389Y0034718D03*
X0159389Y0034890D03*
X0159389Y0035062D03*
X0156639Y0035406D03*
X0156639Y0035577D03*
X0156296Y0031625D03*
X0156296Y0031453D03*
D372*
X0155694Y0033343D03*
X0155694Y0033515D03*
X0157241Y0033687D03*
X0158787Y0031969D03*
X0158787Y0031797D03*
X0158787Y0031625D03*
X0158787Y0031453D03*
X0161365Y0034031D03*
X0161365Y0034203D03*
X0163943Y0031797D03*
X0163943Y0031625D03*
X0172880Y0033343D03*
X0172880Y0033859D03*
X0184050Y0033343D03*
X0185425Y0033859D03*
X0153976Y0031969D03*
X0153976Y0031797D03*
X0153976Y0031625D03*
X0151398Y0034031D03*
X0151398Y0034203D03*
D373*
X0151312Y0033859D03*
X0153890Y0032312D03*
X0153890Y0032140D03*
X0164029Y0031453D03*
X0168154Y0031797D03*
X0170216Y0031969D03*
X0172965Y0032656D03*
X0172965Y0032828D03*
X0172965Y0033000D03*
X0172965Y0033172D03*
X0172965Y0034031D03*
X0172965Y0034203D03*
X0172965Y0034374D03*
X0185339Y0034203D03*
X0185339Y0034031D03*
D374*
X0185167Y0034718D03*
X0175715Y0035234D03*
X0168325Y0031453D03*
X0161279Y0033343D03*
X0161279Y0033515D03*
X0153718Y0033172D03*
X0153718Y0033000D03*
D375*
X0153202Y0036093D03*
X0172965Y0035921D03*
X0178980Y0035577D03*
X0178980Y0031453D03*
D376*
X0182074Y0031453D03*
X0184308Y0032656D03*
X0172965Y0032312D03*
X0172965Y0034890D03*
X0172965Y0035062D03*
X0170216Y0035234D03*
X0163685Y0033172D03*
X0163685Y0033000D03*
X0163685Y0032828D03*
X0159045Y0033000D03*
X0159045Y0033172D03*
X0156983Y0034374D03*
X0155952Y0032656D03*
D377*
X0151398Y0032312D03*
X0151398Y0032140D03*
X0163256Y0035062D03*
X0163256Y0035234D03*
X0184566Y0031453D03*
X0184909Y0035577D03*
X0184909Y0035749D03*
D378*
X0170302Y0032656D03*
X0161365Y0031797D03*
X0159647Y0035921D03*
X0153288Y0035749D03*
X0151398Y0031969D03*
X0151398Y0031797D03*
X0151398Y0031625D03*
D379*
X0161279Y0031625D03*
X0166607Y0032828D03*
X0166607Y0033000D03*
X0166607Y0033172D03*
X0166607Y0033343D03*
X0166607Y0033515D03*
X0166607Y0033687D03*
X0166607Y0033859D03*
X0166607Y0034031D03*
X0166607Y0034203D03*
X0166607Y0034374D03*
X0175715Y0033000D03*
X0175715Y0032828D03*
X0175715Y0032656D03*
D380*
X0179066Y0031625D03*
X0179066Y0035406D03*
X0188003Y0036093D03*
X0166865Y0035406D03*
X0147961Y0032828D03*
X0147961Y0032656D03*
D381*
X0156124Y0032140D03*
X0156124Y0031969D03*
X0156811Y0034890D03*
X0156811Y0035062D03*
X0159217Y0034031D03*
X0159217Y0033859D03*
X0163514Y0033859D03*
X0163514Y0034031D03*
X0163514Y0033687D03*
X0172966Y0032140D03*
X0172966Y0031969D03*
X0175028Y0033172D03*
X0175028Y0033343D03*
X0175028Y0033515D03*
X0172966Y0035234D03*
X0184480Y0031969D03*
X0184995Y0035062D03*
X0184995Y0035234D03*
D382*
X0175629Y0034890D03*
X0170302Y0034890D03*
X0161365Y0032140D03*
X0159475Y0035234D03*
X0159475Y0035406D03*
X0156554Y0035749D03*
X0153288Y0035406D03*
X0153288Y0035234D03*
X0153288Y0035062D03*
D383*
X0153546Y0034031D03*
X0153546Y0033859D03*
X0170216Y0035062D03*
X0170216Y0032140D03*
D384*
X0175715Y0035062D03*
X0161279Y0032312D03*
X0153374Y0034718D03*
X0153374Y0034890D03*
D385*
X0147961Y0032484D03*
D386*
X0153804Y0032484D03*
X0158959Y0032484D03*
X0163771Y0032484D03*
X0182160Y0032484D03*
X0182160Y0034546D03*
D387*
X0184308Y0032484D03*
X0172965Y0032484D03*
X0156983Y0034546D03*
X0155952Y0032484D03*
D388*
X0166693Y0032484D03*
X0166693Y0034546D03*
X0179238Y0032484D03*
D389*
X0170216Y0032484D03*
D390*
X0170302Y0034546D03*
X0175801Y0032484D03*
D391*
X0179152Y0034546D03*
X0188260Y0034546D03*
X0188260Y0032484D03*
D392*
X0161279Y0034890D03*
X0157499Y0033000D03*
X0157499Y0032828D03*
X0155436Y0034203D03*
D393*
X0148047Y0033172D03*
X0148047Y0033000D03*
X0166951Y0035577D03*
D394*
X0151312Y0034890D03*
X0183792Y0034203D03*
X0183792Y0034031D03*
X0185683Y0033172D03*
X0185683Y0033000D03*
D395*
X0151398Y0033172D03*
X0151398Y0033343D03*
D396*
X0148133Y0033343D03*
X0148133Y0033515D03*
X0148133Y0033687D03*
X0167037Y0035749D03*
X0178894Y0035749D03*
D397*
X0172965Y0033687D03*
X0172965Y0033515D03*
X0157327Y0033515D03*
X0157327Y0033343D03*
X0155608Y0033687D03*
X0151312Y0034374D03*
D398*
X0161279Y0034374D03*
X0183964Y0033687D03*
X0183964Y0033515D03*
X0185511Y0033515D03*
X0185511Y0033687D03*
D399*
X0148219Y0033859D03*
X0148219Y0034031D03*
D400*
X0177434Y0034031D03*
X0177434Y0033859D03*
D401*
X0178723Y0035921D03*
X0148305Y0034374D03*
X0148305Y0034203D03*
D402*
X0163428Y0034203D03*
X0163428Y0034374D03*
D403*
X0177520Y0034374D03*
X0177520Y0034203D03*
D404*
X0148305Y0034546D03*
D405*
X0151398Y0034546D03*
X0161365Y0034546D03*
D406*
X0159303Y0034546D03*
X0153460Y0034546D03*
D407*
X0163342Y0034546D03*
D408*
X0172965Y0034546D03*
D409*
X0175715Y0034546D03*
D410*
X0185167Y0034546D03*
D411*
X0148648Y0035749D03*
X0148476Y0035406D03*
X0148476Y0035234D03*
X0148476Y0035062D03*
D412*
X0148562Y0035577D03*
D413*
X0163084Y0035749D03*
D414*
X0148734Y0035921D03*
D415*
X0167122Y0035921D03*
D416*
X0178637Y0036093D03*
X0148906Y0036093D03*
D417*
X0163084Y0036093D03*
D418*
X0167294Y0036093D03*
D419*
X0173051Y0036093D03*
D420*
X0168068Y0036609D03*
D421*
X0168068Y0036780D03*
D422*
X0168068Y0036952D03*
D423*
X0114581Y0169750D03*
D424*
X0114581Y0169957D03*
D425*
X0114271Y0170164D03*
D426*
X0114581Y0170372D03*
D427*
X0114685Y0170579D03*
D428*
X0112406Y0176588D03*
X0097072Y0170786D03*
D429*
X0103496Y0170786D03*
X0107433Y0170786D03*
X0110126Y0172651D03*
X0110126Y0174723D03*
D430*
X0112820Y0170786D03*
D431*
X0116446Y0170786D03*
X0120383Y0174309D03*
X0125564Y0175966D03*
D432*
X0125771Y0174723D03*
X0119762Y0170786D03*
X0110023Y0175345D03*
X0107122Y0175966D03*
X0103806Y0175966D03*
X0101113Y0172029D03*
D433*
X0123388Y0170786D03*
D434*
X0126600Y0170786D03*
X0113338Y0172029D03*
X0113338Y0172651D03*
X0113338Y0173065D03*
X0106707Y0172651D03*
X0106707Y0174723D03*
X0104221Y0174723D03*
X0104221Y0172029D03*
D435*
X0120487Y0174723D03*
X0132505Y0171408D03*
X0132505Y0170786D03*
D436*
X0096969Y0170993D03*
X0096969Y0172444D03*
X0096969Y0174930D03*
D437*
X0101216Y0174930D03*
X0101216Y0172444D03*
X0103703Y0170993D03*
X0121730Y0176381D03*
X0125667Y0174930D03*
D438*
X0116446Y0174930D03*
X0116446Y0172444D03*
X0107329Y0170993D03*
D439*
X0112924Y0170993D03*
D440*
X0116446Y0170993D03*
D441*
X0119762Y0170993D03*
D442*
X0123284Y0170993D03*
D443*
X0126496Y0170993D03*
X0115514Y0176381D03*
D444*
X0120487Y0174930D03*
X0125460Y0176381D03*
X0132505Y0170993D03*
D445*
X0132402Y0171615D03*
X0096969Y0171615D03*
X0096969Y0171822D03*
X0096969Y0172237D03*
X0096969Y0172858D03*
X0096969Y0173273D03*
X0096969Y0173480D03*
X0096969Y0173894D03*
X0096969Y0174101D03*
X0096969Y0174516D03*
X0096969Y0175137D03*
X0096969Y0175552D03*
X0096969Y0175759D03*
X0096969Y0176174D03*
X0096969Y0171200D03*
D446*
X0101113Y0175137D03*
X0103806Y0171200D03*
X0107122Y0171200D03*
X0112924Y0176174D03*
X0125771Y0174516D03*
D447*
X0121627Y0175759D03*
X0119762Y0171200D03*
X0113131Y0171200D03*
X0113131Y0175759D03*
X0109194Y0173273D03*
X0104014Y0171615D03*
X0104014Y0175552D03*
D448*
X0101320Y0174516D03*
X0101320Y0174101D03*
X0101320Y0173894D03*
X0101320Y0173480D03*
X0101320Y0173273D03*
X0101320Y0172858D03*
X0110023Y0175137D03*
X0110230Y0171822D03*
X0116446Y0171822D03*
X0116446Y0171615D03*
X0116446Y0171200D03*
X0116446Y0172237D03*
X0116446Y0172858D03*
X0116446Y0173273D03*
X0116446Y0173480D03*
X0116446Y0173894D03*
X0116446Y0174101D03*
X0116446Y0174516D03*
X0116446Y0175137D03*
X0120176Y0173480D03*
X0120176Y0173273D03*
X0123284Y0171822D03*
D449*
X0123388Y0171200D03*
D450*
X0123388Y0173894D03*
X0126496Y0171200D03*
X0115514Y0176174D03*
X0104324Y0174101D03*
X0104324Y0173894D03*
X0104324Y0173480D03*
X0104324Y0173273D03*
X0104324Y0172858D03*
D451*
X0120383Y0174101D03*
X0120383Y0174516D03*
X0125564Y0176174D03*
X0132609Y0171200D03*
D452*
X0096969Y0171408D03*
X0096969Y0172029D03*
X0096969Y0172651D03*
X0096969Y0173065D03*
X0096969Y0174309D03*
X0096969Y0174723D03*
X0096969Y0175345D03*
X0096969Y0175966D03*
D453*
X0101009Y0175345D03*
X0103910Y0171408D03*
X0107018Y0171408D03*
X0109297Y0173065D03*
X0113027Y0175966D03*
D454*
X0113235Y0175345D03*
X0113235Y0171408D03*
X0106811Y0172029D03*
X0106811Y0175345D03*
X0104117Y0175345D03*
X0126081Y0173065D03*
D455*
X0120176Y0173065D03*
X0116446Y0173065D03*
X0116446Y0172651D03*
X0116446Y0172029D03*
X0116446Y0171408D03*
X0116446Y0174309D03*
X0116446Y0174723D03*
X0116446Y0175345D03*
X0101320Y0174309D03*
X0101320Y0173065D03*
D456*
X0113131Y0174723D03*
X0119762Y0171408D03*
X0121627Y0175966D03*
D457*
X0123284Y0171408D03*
X0110230Y0172029D03*
D458*
X0104324Y0172651D03*
X0104324Y0173065D03*
X0104324Y0174309D03*
X0126496Y0171408D03*
D459*
X0125978Y0173480D03*
X0106915Y0171615D03*
X0106915Y0175552D03*
D460*
X0106811Y0175137D03*
X0104117Y0175137D03*
X0104117Y0171822D03*
X0106811Y0171822D03*
X0110126Y0171615D03*
X0110126Y0175552D03*
X0113235Y0175552D03*
X0113235Y0175137D03*
X0123388Y0173273D03*
X0126081Y0173273D03*
X0126081Y0172858D03*
D461*
X0123284Y0173480D03*
X0115825Y0175552D03*
X0113338Y0173480D03*
X0113338Y0173273D03*
X0113338Y0172858D03*
X0113338Y0172237D03*
X0113338Y0171822D03*
X0113338Y0171615D03*
X0106707Y0172237D03*
X0106707Y0174516D03*
X0104221Y0174516D03*
X0104221Y0172237D03*
D462*
X0101009Y0171822D03*
X0103910Y0175759D03*
X0107018Y0175759D03*
X0109297Y0173480D03*
X0119865Y0171822D03*
X0119865Y0171615D03*
X0121316Y0175552D03*
X0121730Y0176174D03*
D463*
X0123388Y0171615D03*
D464*
X0126392Y0171615D03*
X0115618Y0175759D03*
X0100491Y0175552D03*
D465*
X0106604Y0174101D03*
X0106604Y0173894D03*
X0106604Y0173480D03*
X0106604Y0173273D03*
X0106604Y0172858D03*
X0126289Y0172237D03*
X0126289Y0171822D03*
D466*
X0131158Y0171822D03*
X0131158Y0172237D03*
X0131158Y0172858D03*
X0131158Y0173273D03*
X0131158Y0173480D03*
X0131158Y0173894D03*
X0131158Y0174101D03*
X0131158Y0174516D03*
X0131158Y0175137D03*
X0131158Y0175552D03*
D467*
X0119969Y0172029D03*
D468*
X0123388Y0172029D03*
X0125667Y0175345D03*
X0101216Y0174723D03*
X0101216Y0172651D03*
D469*
X0106604Y0173065D03*
X0106604Y0174309D03*
X0126289Y0172029D03*
D470*
X0131158Y0172029D03*
X0131158Y0172651D03*
X0131158Y0173065D03*
X0131158Y0174309D03*
X0131158Y0174723D03*
X0131158Y0175345D03*
D471*
X0125667Y0175137D03*
X0107225Y0176174D03*
X0103703Y0176174D03*
X0101216Y0172237D03*
D472*
X0110230Y0172237D03*
D473*
X0119969Y0172237D03*
D474*
X0113338Y0172444D03*
X0106707Y0172444D03*
X0104221Y0172444D03*
X0104221Y0174930D03*
X0106707Y0174930D03*
D475*
X0107433Y0176381D03*
X0110126Y0172444D03*
D476*
X0119969Y0172444D03*
D477*
X0126185Y0172444D03*
D478*
X0131158Y0172444D03*
X0131158Y0174930D03*
D479*
X0120072Y0172651D03*
D480*
X0126185Y0172651D03*
D481*
X0120072Y0172858D03*
X0109505Y0172858D03*
D482*
X0123284Y0173065D03*
D483*
X0096969Y0173687D03*
D484*
X0101320Y0173687D03*
X0116446Y0173687D03*
D485*
X0104324Y0173687D03*
D486*
X0106604Y0173687D03*
D487*
X0109401Y0173687D03*
D488*
X0113131Y0173687D03*
D489*
X0120280Y0173687D03*
D490*
X0123284Y0173687D03*
D491*
X0125978Y0173687D03*
D492*
X0131158Y0173687D03*
D493*
X0111162Y0173894D03*
X0111162Y0174101D03*
D494*
X0120280Y0173894D03*
D495*
X0125874Y0173894D03*
X0125874Y0174101D03*
D496*
X0123284Y0174101D03*
D497*
X0111162Y0174309D03*
D498*
X0123284Y0174309D03*
D499*
X0125874Y0174309D03*
D500*
X0111266Y0174516D03*
D501*
X0123388Y0174516D03*
D502*
X0123284Y0174723D03*
D503*
X0112820Y0176381D03*
X0110126Y0174930D03*
D504*
X0113235Y0174930D03*
D505*
X0123284Y0174930D03*
D506*
X0120591Y0175137D03*
D507*
X0123388Y0175137D03*
D508*
X0120591Y0175345D03*
D509*
X0125564Y0175552D03*
X0125564Y0175759D03*
D510*
X0131055Y0175759D03*
X0131055Y0176174D03*
D511*
X0115514Y0175966D03*
D512*
X0131055Y0175966D03*
D513*
X0097072Y0176381D03*
D514*
X0103599Y0176381D03*
D515*
X0131055Y0176381D03*
D516*
X0102667Y0176588D03*
D517*
X0121005Y0176588D03*
D518*
X0130744Y0176588D03*
D519*
X0114685Y0176795D03*
D520*
X0114581Y0177002D03*
D521*
X0114581Y0177210D03*
D522*
X0114685Y0177417D03*
D523*
X0114685Y0177624D03*
D524*
X0099594Y0030750D03*
D525*
X0099594Y0030931D03*
D526*
X0099413Y0031113D03*
D527*
X0099594Y0031294D03*
D528*
X0099594Y0031476D03*
D529*
X0083175Y0031657D03*
D530*
X0089797Y0031657D03*
D531*
X0096056Y0031657D03*
D532*
X0096419Y0032201D03*
X0099685Y0031657D03*
X0102769Y0031657D03*
X0095512Y0036556D03*
D533*
X0107940Y0036556D03*
X0107940Y0031657D03*
D534*
X0110571Y0031657D03*
D535*
X0115832Y0031657D03*
X0083356Y0036556D03*
D536*
X0083175Y0031839D03*
D537*
X0089706Y0031839D03*
D538*
X0096147Y0031839D03*
D539*
X0099685Y0031839D03*
X0110571Y0031839D03*
D540*
X0110389Y0032383D03*
X0110389Y0035649D03*
X0102769Y0031839D03*
X0099685Y0032383D03*
X0088255Y0034923D03*
X0088255Y0035104D03*
X0088255Y0035467D03*
D541*
X0090523Y0034560D03*
X0090523Y0034379D03*
X0090341Y0034016D03*
X0090704Y0035467D03*
X0090704Y0035649D03*
X0093426Y0032383D03*
X0096329Y0034560D03*
X0096329Y0034923D03*
X0096147Y0035467D03*
X0098143Y0034923D03*
X0101227Y0034923D03*
X0103223Y0035467D03*
X0103223Y0035649D03*
X0107940Y0036193D03*
X0107940Y0031839D03*
D542*
X0115832Y0031839D03*
D543*
X0083084Y0032020D03*
X0083084Y0032564D03*
X0083084Y0033109D03*
X0083084Y0033653D03*
X0083084Y0035830D03*
D544*
X0089525Y0032020D03*
D545*
X0093335Y0033109D03*
X0096238Y0032020D03*
D546*
X0096419Y0032564D03*
X0099685Y0032020D03*
X0102769Y0032020D03*
X0090069Y0033653D03*
D547*
X0093426Y0035830D03*
X0103223Y0035830D03*
X0107940Y0036374D03*
X0107940Y0032020D03*
D548*
X0110480Y0032020D03*
D549*
X0115923Y0032020D03*
D550*
X0083084Y0032201D03*
X0083084Y0032927D03*
X0083084Y0033471D03*
X0083084Y0036011D03*
D551*
X0089434Y0032201D03*
D552*
X0099685Y0032201D03*
X0102769Y0032201D03*
X0110389Y0032201D03*
D553*
X0107940Y0032201D03*
D554*
X0115923Y0032201D03*
D555*
X0083084Y0032383D03*
X0083084Y0032746D03*
X0083084Y0033290D03*
X0083084Y0033834D03*
X0083084Y0034016D03*
X0083084Y0034379D03*
X0083084Y0034560D03*
X0083084Y0034923D03*
X0083084Y0035104D03*
X0083084Y0035467D03*
X0083084Y0035649D03*
X0083084Y0036193D03*
D556*
X0089344Y0032383D03*
D557*
X0093426Y0032746D03*
X0093426Y0035467D03*
X0096329Y0032383D03*
X0110480Y0034923D03*
X0110480Y0035104D03*
X0110480Y0035467D03*
D558*
X0110299Y0032746D03*
X0102860Y0032746D03*
X0102860Y0032383D03*
X0096510Y0032746D03*
X0093426Y0035649D03*
X0088164Y0035649D03*
X0088164Y0034560D03*
D559*
X0098143Y0035649D03*
X0101227Y0035649D03*
X0103041Y0034379D03*
X0103041Y0034016D03*
X0103041Y0033834D03*
X0107759Y0034016D03*
X0107759Y0032383D03*
X0110117Y0033290D03*
D560*
X0115923Y0032383D03*
X0115923Y0034923D03*
X0115923Y0035104D03*
X0115923Y0035467D03*
X0115923Y0035649D03*
D561*
X0089344Y0032564D03*
D562*
X0093426Y0032564D03*
X0095603Y0036374D03*
X0102860Y0032564D03*
X0110299Y0032564D03*
D563*
X0110208Y0035830D03*
X0102951Y0033653D03*
X0102951Y0033109D03*
X0099685Y0032564D03*
X0096419Y0033109D03*
D564*
X0106489Y0033109D03*
X0106489Y0033653D03*
X0106489Y0032564D03*
D565*
X0115832Y0032564D03*
X0115832Y0035830D03*
D566*
X0089253Y0032746D03*
D567*
X0090251Y0033834D03*
X0099685Y0032746D03*
X0102951Y0033290D03*
X0110208Y0034560D03*
D568*
X0106489Y0034923D03*
X0106489Y0035104D03*
X0106489Y0035467D03*
X0106489Y0035649D03*
X0106489Y0033290D03*
X0106489Y0032746D03*
D569*
X0115742Y0032746D03*
X0115742Y0034379D03*
X0115742Y0036193D03*
D570*
X0089253Y0032927D03*
D571*
X0093426Y0032927D03*
D572*
X0096510Y0032927D03*
X0102860Y0032927D03*
D573*
X0102951Y0033471D03*
X0099685Y0032927D03*
X0110208Y0032927D03*
D574*
X0106489Y0032927D03*
X0106489Y0033471D03*
D575*
X0115742Y0032927D03*
D576*
X0089162Y0033109D03*
D577*
X0099685Y0033109D03*
X0099685Y0033653D03*
D578*
X0095966Y0035830D03*
X0090704Y0035830D03*
X0110117Y0033109D03*
D579*
X0115651Y0033109D03*
D580*
X0089162Y0033290D03*
D581*
X0093426Y0033290D03*
X0093426Y0034923D03*
D582*
X0096510Y0033290D03*
D583*
X0098143Y0033290D03*
X0101227Y0033290D03*
D584*
X0099685Y0033290D03*
D585*
X0115560Y0033290D03*
D586*
X0089162Y0033471D03*
D587*
X0093426Y0033471D03*
D588*
X0096510Y0033471D03*
D589*
X0098143Y0033471D03*
X0101227Y0033471D03*
D590*
X0099685Y0033471D03*
D591*
X0095875Y0036011D03*
X0103314Y0036556D03*
X0107849Y0036011D03*
X0110027Y0033471D03*
D592*
X0115379Y0036556D03*
X0115560Y0033471D03*
D593*
X0093335Y0033653D03*
D594*
X0096510Y0033653D03*
D595*
X0098143Y0033653D03*
X0101227Y0033653D03*
D596*
X0103314Y0036374D03*
X0109845Y0033653D03*
D597*
X0115469Y0033653D03*
D598*
X0093335Y0033834D03*
X0093335Y0034016D03*
X0093335Y0034379D03*
X0093335Y0034560D03*
D599*
X0096056Y0035649D03*
X0096238Y0035104D03*
X0096419Y0034379D03*
X0096419Y0034016D03*
X0096419Y0033834D03*
X0098234Y0035104D03*
X0098234Y0035467D03*
X0101136Y0035467D03*
X0101136Y0035104D03*
X0103132Y0035104D03*
X0103132Y0034923D03*
X0103132Y0034560D03*
X0107849Y0034379D03*
X0087892Y0034379D03*
D600*
X0098234Y0033834D03*
X0101136Y0033834D03*
D601*
X0099685Y0033834D03*
X0099685Y0034016D03*
X0099685Y0034379D03*
D602*
X0107577Y0033834D03*
D603*
X0115288Y0033834D03*
D604*
X0101227Y0034016D03*
X0098143Y0034016D03*
D605*
X0115469Y0034016D03*
D606*
X0083084Y0034197D03*
X0083084Y0034741D03*
X0083084Y0035286D03*
D607*
X0090432Y0034197D03*
X0090614Y0034741D03*
X0098234Y0034741D03*
X0101136Y0034741D03*
D608*
X0093335Y0034197D03*
D609*
X0096419Y0034197D03*
X0098234Y0035286D03*
X0101136Y0035286D03*
X0103132Y0034741D03*
X0107849Y0034197D03*
D610*
X0101227Y0034197D03*
X0098143Y0034197D03*
D611*
X0099685Y0034197D03*
D612*
X0103041Y0034197D03*
D613*
X0115651Y0034197D03*
D614*
X0103314Y0036193D03*
X0101136Y0034560D03*
X0101136Y0034379D03*
X0098234Y0034379D03*
X0098234Y0034560D03*
X0090614Y0034923D03*
X0090614Y0035104D03*
D615*
X0099685Y0034923D03*
X0099685Y0034560D03*
D616*
X0098234Y0036193D03*
X0095694Y0036193D03*
X0101136Y0036193D03*
X0107668Y0034560D03*
D617*
X0115832Y0034560D03*
D618*
X0110389Y0034741D03*
X0088255Y0034741D03*
X0088255Y0035286D03*
D619*
X0093426Y0034741D03*
D620*
X0096147Y0035286D03*
X0096329Y0034741D03*
X0090704Y0035286D03*
X0103223Y0035286D03*
D621*
X0099685Y0034741D03*
D622*
X0106489Y0034741D03*
X0106489Y0035286D03*
D623*
X0115923Y0035286D03*
X0115923Y0034741D03*
D624*
X0093335Y0035104D03*
D625*
X0093426Y0035286D03*
D626*
X0110480Y0035286D03*
D627*
X0087892Y0035830D03*
D628*
X0098234Y0035830D03*
X0101136Y0035830D03*
D629*
X0106579Y0035830D03*
D630*
X0101136Y0036011D03*
X0098234Y0036011D03*
X0090795Y0036011D03*
D631*
X0103314Y0036011D03*
D632*
X0115832Y0036011D03*
D633*
X0090795Y0036193D03*
D634*
X0083175Y0036374D03*
D635*
X0090795Y0036374D03*
D636*
X0098234Y0036374D03*
X0101136Y0036374D03*
D637*
X0115560Y0036374D03*
D638*
X0090795Y0036556D03*
D639*
X0098234Y0036556D03*
X0101136Y0036556D03*
D640*
X0086622Y0036737D03*
D641*
X0106307Y0036737D03*
D642*
X0099594Y0036919D03*
D643*
X0099504Y0037100D03*
D644*
X0099594Y0037281D03*
D645*
X0099504Y0037463D03*
D646*
X0099594Y0037644D03*
D647*
X0045111Y0012250D03*
D648*
X0049265Y0012250D03*
D649*
X0055062Y0012250D03*
X0059464Y0012250D03*
D650*
X0058658Y0013056D03*
X0058658Y0013118D03*
X0058658Y0013242D03*
X0058658Y0013304D03*
X0058658Y0013738D03*
X0058658Y0013862D03*
X0058658Y0013924D03*
X0056984Y0013924D03*
X0056984Y0013862D03*
X0056984Y0013738D03*
X0056984Y0013676D03*
X0056984Y0013614D03*
X0056984Y0013552D03*
X0056984Y0013428D03*
X0056984Y0013366D03*
X0056984Y0013304D03*
X0056984Y0013242D03*
X0056984Y0013118D03*
X0056984Y0013056D03*
X0056984Y0012994D03*
X0056984Y0012932D03*
X0056984Y0012808D03*
X0056984Y0012746D03*
X0056984Y0012684D03*
X0056984Y0012622D03*
X0056984Y0012498D03*
X0056984Y0012436D03*
X0056984Y0012374D03*
X0056984Y0012312D03*
X0056984Y0014544D03*
X0056984Y0014606D03*
X0056984Y0014668D03*
X0055062Y0017024D03*
X0055062Y0017086D03*
X0055062Y0017148D03*
X0055062Y0017210D03*
X0055062Y0017334D03*
X0055062Y0017396D03*
X0055062Y0017458D03*
X0055062Y0017520D03*
X0055062Y0017644D03*
X0055062Y0017706D03*
X0055062Y0017768D03*
X0055062Y0017830D03*
X0055062Y0017954D03*
X0055062Y0018016D03*
X0055062Y0018078D03*
X0055062Y0018140D03*
X0055062Y0018202D03*
X0055062Y0018326D03*
X0055062Y0018388D03*
X0055062Y0018450D03*
X0055062Y0018512D03*
X0054132Y0017768D03*
X0054132Y0017706D03*
X0054132Y0017644D03*
X0054132Y0017520D03*
X0054132Y0017458D03*
X0054132Y0017396D03*
X0054132Y0017334D03*
X0054132Y0017210D03*
X0054132Y0017148D03*
X0054132Y0017086D03*
X0054132Y0017024D03*
X0051838Y0016900D03*
X0051838Y0016838D03*
X0051032Y0016156D03*
X0050164Y0015660D03*
X0050164Y0015598D03*
X0050164Y0015536D03*
X0050164Y0015474D03*
X0050164Y0015350D03*
X0050164Y0015288D03*
X0050164Y0015226D03*
X0050164Y0015164D03*
X0050164Y0015040D03*
X0050164Y0014978D03*
X0050164Y0014916D03*
X0050164Y0014854D03*
X0050164Y0014730D03*
X0050164Y0014668D03*
X0050164Y0014606D03*
X0050164Y0014544D03*
X0050164Y0013738D03*
X0050164Y0013676D03*
X0050164Y0013614D03*
X0050164Y0013552D03*
X0050164Y0013428D03*
X0050164Y0013366D03*
X0050164Y0013304D03*
X0050164Y0013242D03*
X0050164Y0012498D03*
X0050164Y0012436D03*
X0050164Y0012374D03*
X0050164Y0012312D03*
X0051032Y0014296D03*
X0051032Y0014358D03*
X0052086Y0013614D03*
X0053388Y0013056D03*
X0053388Y0012994D03*
X0053512Y0013366D03*
X0053512Y0013428D03*
X0053636Y0013862D03*
X0053636Y0013924D03*
X0053760Y0014234D03*
X0053760Y0014296D03*
X0053884Y0014668D03*
X0053140Y0012374D03*
X0053140Y0012312D03*
X0050412Y0017768D03*
X0050412Y0017830D03*
X0050412Y0017954D03*
X0050412Y0018016D03*
X0046940Y0017768D03*
X0046940Y0017706D03*
X0046940Y0017644D03*
X0046940Y0017520D03*
X0046940Y0017458D03*
X0046940Y0017396D03*
X0046940Y0017334D03*
X0046940Y0017210D03*
X0046940Y0017148D03*
X0046940Y0017086D03*
X0046940Y0017024D03*
X0046940Y0016900D03*
X0046940Y0016838D03*
X0046940Y0016776D03*
X0046940Y0016714D03*
X0046940Y0016590D03*
X0046940Y0016528D03*
X0046940Y0016466D03*
X0046940Y0016404D03*
X0046940Y0016280D03*
X0046940Y0016218D03*
X0046010Y0017644D03*
X0046940Y0018326D03*
X0046940Y0018388D03*
X0046940Y0018450D03*
X0046940Y0018512D03*
X0044584Y0017954D03*
X0044460Y0017644D03*
X0044460Y0017148D03*
X0042166Y0017148D03*
X0042166Y0017086D03*
X0042166Y0017210D03*
X0042166Y0017334D03*
X0042166Y0017396D03*
X0042166Y0017458D03*
X0042166Y0017520D03*
X0042166Y0017644D03*
X0042166Y0018388D03*
X0042166Y0018450D03*
X0042166Y0018512D03*
X0041236Y0017768D03*
X0041236Y0017706D03*
X0041236Y0017644D03*
X0041236Y0017520D03*
X0041236Y0017458D03*
X0041236Y0017396D03*
X0041236Y0017334D03*
X0041236Y0017210D03*
X0041236Y0017148D03*
X0041236Y0017086D03*
X0041236Y0017024D03*
X0042166Y0016280D03*
X0042166Y0016218D03*
X0042166Y0016156D03*
X0042166Y0016094D03*
X0042166Y0015970D03*
X0042166Y0015908D03*
X0042166Y0015846D03*
X0042166Y0015784D03*
X0042166Y0015660D03*
X0042166Y0015598D03*
X0042166Y0015536D03*
X0042166Y0015474D03*
X0042166Y0015350D03*
X0042166Y0015288D03*
X0042166Y0015226D03*
X0042166Y0015164D03*
X0042166Y0015040D03*
X0042166Y0014978D03*
X0042166Y0014916D03*
X0042166Y0014854D03*
X0042166Y0014730D03*
X0042166Y0014668D03*
X0042166Y0014606D03*
X0042166Y0014544D03*
X0042166Y0013738D03*
X0042166Y0013676D03*
X0042166Y0013614D03*
X0042166Y0013552D03*
X0042166Y0013428D03*
X0042166Y0013366D03*
X0042166Y0013304D03*
X0042166Y0013242D03*
X0042166Y0013118D03*
X0042166Y0013056D03*
X0042166Y0012994D03*
X0042166Y0012932D03*
X0042166Y0012808D03*
X0042166Y0012746D03*
X0042166Y0012684D03*
X0042166Y0012622D03*
X0042166Y0012498D03*
X0042166Y0012436D03*
X0042166Y0012374D03*
X0042166Y0012312D03*
X0044460Y0012932D03*
X0044460Y0012994D03*
X0061386Y0016838D03*
X0061386Y0016900D03*
X0061386Y0017830D03*
X0062812Y0017830D03*
X0062812Y0017768D03*
X0062812Y0017706D03*
D651*
X0061448Y0018016D03*
X0061324Y0017768D03*
X0061324Y0017706D03*
X0061324Y0017644D03*
X0061324Y0017148D03*
X0061324Y0017086D03*
X0061324Y0017024D03*
X0060580Y0018078D03*
X0059216Y0017706D03*
X0059216Y0017644D03*
X0059216Y0017520D03*
X0059216Y0017210D03*
X0059216Y0017148D03*
X0059216Y0017086D03*
X0059216Y0017024D03*
X0056550Y0017086D03*
X0056550Y0017148D03*
X0056550Y0017210D03*
X0056550Y0017334D03*
X0056550Y0017396D03*
X0056550Y0017458D03*
X0056550Y0017520D03*
X0056550Y0017644D03*
X0056550Y0017706D03*
X0056550Y0017768D03*
X0056550Y0017830D03*
X0056550Y0017954D03*
X0056550Y0018016D03*
X0056550Y0018078D03*
X0056550Y0018140D03*
X0056550Y0018202D03*
X0056550Y0018326D03*
X0056550Y0018388D03*
X0056550Y0018450D03*
X0056550Y0018512D03*
X0056550Y0016280D03*
X0056550Y0016218D03*
X0055930Y0014048D03*
X0055930Y0013986D03*
X0055930Y0013924D03*
X0055930Y0013862D03*
X0055930Y0013738D03*
X0055930Y0013304D03*
X0055930Y0013242D03*
X0055930Y0013118D03*
X0055930Y0013056D03*
X0055930Y0012994D03*
X0055930Y0012436D03*
X0055930Y0012374D03*
X0055930Y0012312D03*
X0054442Y0012932D03*
X0054442Y0012994D03*
X0054442Y0013056D03*
X0054442Y0013118D03*
X0053574Y0013614D03*
X0053574Y0013676D03*
X0053574Y0013738D03*
X0053698Y0013986D03*
X0053698Y0014048D03*
X0053450Y0013242D03*
X0052892Y0013118D03*
X0052830Y0013304D03*
X0051900Y0012994D03*
X0051404Y0013118D03*
X0051342Y0013304D03*
X0051342Y0013366D03*
X0051280Y0013552D03*
X0051280Y0013614D03*
X0051218Y0013676D03*
X0051218Y0013738D03*
X0051156Y0013862D03*
X0051156Y0013924D03*
X0051156Y0013986D03*
X0051094Y0014172D03*
X0050970Y0014544D03*
X0050970Y0014606D03*
X0052396Y0014544D03*
X0051652Y0012312D03*
X0048676Y0013242D03*
X0048676Y0013304D03*
X0048676Y0013366D03*
X0048676Y0013428D03*
X0048676Y0013552D03*
X0048676Y0013614D03*
X0048676Y0013676D03*
X0048676Y0013738D03*
X0047002Y0013738D03*
X0047002Y0013676D03*
X0047002Y0013614D03*
X0047002Y0013552D03*
X0047002Y0013428D03*
X0047002Y0013366D03*
X0047002Y0013304D03*
X0047002Y0013242D03*
X0047002Y0013118D03*
X0047002Y0013056D03*
X0047002Y0012994D03*
X0047002Y0012932D03*
X0047002Y0012808D03*
X0047002Y0012746D03*
X0047002Y0012684D03*
X0047002Y0012622D03*
X0047002Y0012498D03*
X0047002Y0012436D03*
X0047002Y0012374D03*
X0047002Y0012312D03*
X0045948Y0012312D03*
X0045948Y0012374D03*
X0045948Y0012436D03*
X0045948Y0012932D03*
X0045948Y0012994D03*
X0045948Y0013056D03*
X0045948Y0013118D03*
X0045948Y0013242D03*
X0045948Y0013304D03*
X0045948Y0013738D03*
X0045948Y0013862D03*
X0045948Y0013924D03*
X0045948Y0013986D03*
X0045948Y0014048D03*
X0047002Y0014544D03*
X0047002Y0014606D03*
X0047002Y0014668D03*
X0044522Y0012808D03*
X0043654Y0012808D03*
X0043654Y0012746D03*
X0043654Y0012684D03*
X0043654Y0012622D03*
X0043654Y0012498D03*
X0043654Y0012436D03*
X0043654Y0012374D03*
X0043654Y0012312D03*
X0043654Y0012932D03*
X0043654Y0012994D03*
X0043654Y0013056D03*
X0043654Y0013118D03*
X0043654Y0013242D03*
X0043654Y0013304D03*
X0043654Y0013366D03*
X0043654Y0013428D03*
X0043654Y0013552D03*
X0043654Y0013614D03*
X0043654Y0013676D03*
X0043654Y0013738D03*
X0043592Y0016838D03*
X0043592Y0016900D03*
X0043654Y0017148D03*
X0043654Y0017210D03*
X0043654Y0017334D03*
X0043654Y0017396D03*
X0043654Y0017458D03*
X0043654Y0017520D03*
X0043592Y0017830D03*
X0044522Y0017830D03*
X0044522Y0017768D03*
X0044522Y0017706D03*
X0044522Y0016900D03*
X0048366Y0017830D03*
X0052644Y0017768D03*
X0052644Y0017706D03*
X0052644Y0017644D03*
X0052644Y0017520D03*
X0052644Y0017210D03*
X0052644Y0017148D03*
X0052644Y0017086D03*
X0052644Y0017024D03*
X0058720Y0014048D03*
X0058720Y0013986D03*
X0058720Y0012994D03*
X0058720Y0012932D03*
X0060146Y0013738D03*
X0060146Y0013862D03*
X0060146Y0013924D03*
X0039748Y0017024D03*
X0039748Y0017086D03*
X0039748Y0017148D03*
X0039748Y0017644D03*
X0039748Y0017706D03*
X0039748Y0017768D03*
D652*
X0043065Y0018512D03*
X0043065Y0016218D03*
X0043437Y0014234D03*
X0045235Y0014668D03*
X0047157Y0014234D03*
X0045111Y0012312D03*
X0050009Y0012746D03*
X0050009Y0014234D03*
X0051683Y0012808D03*
X0052427Y0014048D03*
X0050443Y0016590D03*
X0055651Y0016218D03*
X0057139Y0014234D03*
X0058441Y0018512D03*
X0056829Y0020806D03*
X0045731Y0020806D03*
D653*
X0050505Y0018140D03*
X0050505Y0017644D03*
X0051683Y0016590D03*
X0052799Y0018078D03*
X0053977Y0018078D03*
X0056457Y0016714D03*
X0057077Y0014172D03*
X0058875Y0014234D03*
X0059929Y0014234D03*
X0058875Y0012746D03*
X0059371Y0016714D03*
X0059371Y0018016D03*
X0062595Y0018140D03*
X0052427Y0014234D03*
X0053171Y0012622D03*
X0051683Y0012622D03*
X0050071Y0012808D03*
X0049265Y0012312D03*
X0048831Y0012746D03*
X0043499Y0014172D03*
X0042259Y0016714D03*
X0042259Y0018016D03*
X0041081Y0018078D03*
X0039903Y0018078D03*
X0043499Y0018078D03*
X0047033Y0018016D03*
D654*
X0048118Y0018140D03*
X0045266Y0018512D03*
X0043406Y0018140D03*
X0043406Y0016590D03*
X0043034Y0014606D03*
X0047870Y0014606D03*
X0049234Y0014606D03*
X0051652Y0012932D03*
X0053140Y0012932D03*
X0055062Y0012312D03*
X0055186Y0014668D03*
X0055310Y0016590D03*
X0053388Y0018512D03*
X0057852Y0014606D03*
X0059464Y0012312D03*
X0062068Y0018512D03*
X0045762Y0034880D03*
D655*
X0058441Y0018388D03*
X0058379Y0018326D03*
X0051063Y0016218D03*
X0049265Y0014544D03*
X0045111Y0012374D03*
X0043065Y0014544D03*
D656*
X0042383Y0016590D03*
X0042383Y0018140D03*
X0047157Y0018140D03*
X0053357Y0016218D03*
X0049265Y0012374D03*
X0060053Y0016218D03*
X0060053Y0018512D03*
D657*
X0059309Y0017954D03*
X0059185Y0017458D03*
X0059185Y0017396D03*
X0059185Y0017334D03*
X0059309Y0016838D03*
X0059309Y0016776D03*
X0060053Y0016156D03*
X0061417Y0016776D03*
X0062161Y0016156D03*
X0062843Y0017644D03*
X0062719Y0018016D03*
X0061417Y0017954D03*
X0060115Y0014048D03*
X0060115Y0013986D03*
X0060115Y0013676D03*
X0058813Y0014172D03*
X0058689Y0013676D03*
X0058813Y0012808D03*
X0057015Y0013986D03*
X0057015Y0014048D03*
X0054535Y0013242D03*
X0054535Y0012746D03*
X0053171Y0012436D03*
X0051683Y0012436D03*
X0051683Y0012374D03*
X0050133Y0012994D03*
X0050133Y0013056D03*
X0050133Y0013118D03*
X0050133Y0013862D03*
X0050133Y0013924D03*
X0050133Y0013986D03*
X0051063Y0014234D03*
X0051001Y0014420D03*
X0050939Y0014668D03*
X0052427Y0014420D03*
X0053729Y0014172D03*
X0053791Y0014358D03*
X0053791Y0014420D03*
X0053853Y0014544D03*
X0053853Y0014606D03*
X0053357Y0016156D03*
X0054039Y0016776D03*
X0054101Y0016838D03*
X0054101Y0016900D03*
X0054101Y0017830D03*
X0054039Y0017954D03*
X0055093Y0016900D03*
X0055093Y0016838D03*
X0056519Y0016838D03*
X0056519Y0016900D03*
X0056519Y0017024D03*
X0056829Y0020682D03*
X0052613Y0017458D03*
X0052613Y0017396D03*
X0052613Y0017334D03*
X0051807Y0017024D03*
X0051807Y0016776D03*
X0051807Y0016714D03*
X0051621Y0018140D03*
X0050443Y0018078D03*
X0050443Y0017706D03*
X0048335Y0017954D03*
X0046971Y0017830D03*
X0045979Y0017830D03*
X0045979Y0017768D03*
X0045979Y0017706D03*
X0045917Y0017954D03*
X0044615Y0018016D03*
X0044491Y0017086D03*
X0044491Y0017024D03*
X0044553Y0016838D03*
X0044553Y0016776D03*
X0044615Y0016714D03*
X0043561Y0016776D03*
X0043561Y0017954D03*
X0042197Y0017830D03*
X0042197Y0017768D03*
X0042197Y0017706D03*
X0042197Y0017024D03*
X0042197Y0016900D03*
X0042197Y0016838D03*
X0041205Y0016838D03*
X0041205Y0016900D03*
X0041143Y0016776D03*
X0040461Y0016156D03*
X0039779Y0016838D03*
X0039779Y0016900D03*
X0039717Y0017210D03*
X0039717Y0017334D03*
X0039717Y0017396D03*
X0039717Y0017458D03*
X0039717Y0017520D03*
X0039779Y0017830D03*
X0041143Y0017954D03*
X0041205Y0017830D03*
X0043065Y0014668D03*
X0042197Y0013986D03*
X0042197Y0013924D03*
X0042197Y0013862D03*
X0044553Y0013242D03*
X0044553Y0012746D03*
X0045917Y0012808D03*
X0045917Y0013676D03*
X0045917Y0014172D03*
X0047033Y0013986D03*
X0047033Y0013924D03*
X0047033Y0013862D03*
X0047901Y0014668D03*
X0048707Y0013986D03*
X0048707Y0013924D03*
X0048707Y0013862D03*
X0048769Y0014048D03*
X0049265Y0014668D03*
X0048707Y0013118D03*
X0048707Y0013056D03*
X0048707Y0012994D03*
X0045731Y0020682D03*
X0045731Y0035004D03*
X0056829Y0035004D03*
D658*
X0045762Y0020930D03*
X0045266Y0018450D03*
X0047808Y0018388D03*
X0053388Y0018450D03*
X0053388Y0016280D03*
X0055062Y0012374D03*
X0059464Y0012374D03*
X0062068Y0018450D03*
X0040492Y0018450D03*
X0040492Y0016280D03*
D659*
X0045328Y0016280D03*
X0047808Y0018326D03*
X0049296Y0012498D03*
X0045080Y0012436D03*
X0062130Y0016280D03*
D660*
X0059433Y0014544D03*
X0049265Y0012436D03*
X0045235Y0014606D03*
X0043065Y0018388D03*
D661*
X0055031Y0012436D03*
X0060053Y0016280D03*
X0060053Y0018450D03*
X0056767Y0034756D03*
X0045793Y0034756D03*
D662*
X0040492Y0018388D03*
X0053388Y0018388D03*
X0059464Y0012436D03*
D663*
X0060053Y0016528D03*
X0060053Y0018202D03*
X0055899Y0016404D03*
X0055279Y0013428D03*
X0055279Y0012498D03*
X0045297Y0012498D03*
X0045297Y0013428D03*
X0045297Y0016528D03*
D664*
X0045328Y0016156D03*
X0045824Y0018078D03*
X0044646Y0018078D03*
X0047002Y0017954D03*
X0048800Y0014172D03*
X0050102Y0014048D03*
X0050102Y0012932D03*
X0048800Y0012808D03*
X0051652Y0012498D03*
X0052396Y0014296D03*
X0052396Y0014358D03*
X0051776Y0017086D03*
X0055124Y0016776D03*
X0060022Y0014172D03*
X0061448Y0016714D03*
X0062626Y0016590D03*
X0062750Y0017954D03*
X0061572Y0018140D03*
X0042228Y0017954D03*
X0042228Y0016776D03*
X0039872Y0016714D03*
X0039872Y0018016D03*
X0042228Y0014048D03*
D665*
X0043592Y0014048D03*
X0045886Y0014234D03*
X0047064Y0014048D03*
X0045886Y0012746D03*
X0048738Y0012932D03*
X0053140Y0012498D03*
X0055868Y0012746D03*
X0055868Y0014172D03*
X0055806Y0014234D03*
X0057852Y0014668D03*
X0059402Y0014668D03*
X0056488Y0016776D03*
X0055186Y0016714D03*
X0054008Y0016714D03*
X0052768Y0016714D03*
X0052706Y0016776D03*
X0052706Y0017954D03*
X0052768Y0018016D03*
X0054008Y0018016D03*
X0057604Y0017954D03*
X0061510Y0018078D03*
X0062688Y0018078D03*
X0054132Y0021550D03*
X0048428Y0021550D03*
X0048304Y0018016D03*
X0045886Y0018016D03*
X0045762Y0016590D03*
X0043530Y0016714D03*
X0043530Y0018016D03*
X0041112Y0018016D03*
X0041112Y0016714D03*
X0039810Y0016776D03*
X0039810Y0017954D03*
D666*
X0045297Y0016404D03*
X0045421Y0013614D03*
X0047529Y0014420D03*
X0051125Y0017396D03*
X0051125Y0018388D03*
X0055403Y0013614D03*
X0059495Y0012498D03*
X0060053Y0016404D03*
X0060053Y0018326D03*
D667*
X0061386Y0017892D03*
X0058658Y0013180D03*
X0056984Y0013180D03*
X0056984Y0013490D03*
X0056984Y0012870D03*
X0056984Y0012560D03*
X0056984Y0014482D03*
X0055062Y0017272D03*
X0055062Y0017582D03*
X0055062Y0017892D03*
X0055062Y0018264D03*
X0054132Y0017582D03*
X0054132Y0017272D03*
X0053512Y0013490D03*
X0050164Y0013490D03*
X0050164Y0014482D03*
X0050164Y0014792D03*
X0050164Y0015102D03*
X0050412Y0017892D03*
X0046940Y0017582D03*
X0046940Y0017272D03*
X0046940Y0016652D03*
X0046940Y0016342D03*
X0046010Y0017582D03*
X0044460Y0017582D03*
X0042166Y0017582D03*
X0042166Y0017272D03*
X0041236Y0017272D03*
X0041236Y0017582D03*
X0042166Y0016342D03*
X0042166Y0016032D03*
X0042166Y0015722D03*
X0042166Y0015102D03*
X0042166Y0014792D03*
X0042166Y0014482D03*
X0042166Y0013490D03*
X0042166Y0013180D03*
X0042166Y0012870D03*
X0042166Y0012560D03*
D668*
X0043654Y0012560D03*
X0043654Y0012870D03*
X0043654Y0013180D03*
X0043654Y0013490D03*
X0044522Y0013180D03*
X0044522Y0012870D03*
X0045948Y0012870D03*
X0045948Y0013180D03*
X0045948Y0014110D03*
X0047002Y0014482D03*
X0047002Y0013490D03*
X0047002Y0013180D03*
X0047002Y0012870D03*
X0047002Y0012560D03*
X0048676Y0013180D03*
X0048676Y0013490D03*
X0051094Y0014110D03*
X0051280Y0013490D03*
X0052768Y0013490D03*
X0053450Y0013180D03*
X0053698Y0014110D03*
X0053822Y0014482D03*
X0052396Y0014482D03*
X0054442Y0012870D03*
X0055930Y0013180D03*
X0056550Y0016342D03*
X0056550Y0017272D03*
X0056550Y0017582D03*
X0056550Y0017892D03*
X0056550Y0018264D03*
X0059216Y0017582D03*
X0060580Y0016652D03*
X0061324Y0017582D03*
X0052644Y0017582D03*
X0045948Y0017892D03*
X0043654Y0017582D03*
X0043654Y0017272D03*
X0043592Y0017892D03*
X0039748Y0017582D03*
D669*
X0045266Y0012560D03*
D670*
X0049513Y0012560D03*
X0047591Y0018264D03*
X0042817Y0018264D03*
D671*
X0042228Y0014110D03*
X0050102Y0012870D03*
X0051652Y0012560D03*
X0051776Y0016652D03*
X0057046Y0014110D03*
D672*
X0057604Y0017892D03*
X0061510Y0016652D03*
X0053140Y0012560D03*
X0047064Y0014110D03*
X0043530Y0014110D03*
D673*
X0055248Y0012560D03*
D674*
X0059495Y0012560D03*
X0060053Y0018264D03*
D675*
X0055868Y0016528D03*
X0055868Y0016466D03*
X0051032Y0016466D03*
X0049482Y0014358D03*
X0049482Y0014296D03*
X0049482Y0012622D03*
X0045266Y0012622D03*
X0045266Y0013366D03*
X0042848Y0014296D03*
X0042848Y0014358D03*
X0042848Y0016528D03*
X0042848Y0018202D03*
X0047622Y0018202D03*
D676*
X0045855Y0021240D03*
X0056705Y0021240D03*
X0055217Y0012622D03*
X0056705Y0034446D03*
X0045855Y0034446D03*
D677*
X0045824Y0034508D03*
X0056736Y0034508D03*
X0056736Y0021178D03*
X0051094Y0018202D03*
X0051032Y0016404D03*
X0045824Y0021178D03*
X0045266Y0014358D03*
X0059464Y0012622D03*
X0062130Y0016528D03*
D678*
X0061572Y0016590D03*
X0060518Y0016590D03*
X0060518Y0018140D03*
X0054194Y0021612D03*
X0051652Y0017148D03*
X0052396Y0014172D03*
X0051652Y0012746D03*
X0051652Y0012684D03*
X0053140Y0012684D03*
X0053140Y0012746D03*
X0054628Y0012684D03*
X0054628Y0013304D03*
X0058968Y0012684D03*
X0059898Y0012684D03*
X0050040Y0014172D03*
X0047126Y0014172D03*
X0045824Y0012684D03*
X0044646Y0012684D03*
X0044708Y0013304D03*
X0048242Y0018078D03*
X0048366Y0021612D03*
D679*
X0049451Y0012684D03*
D680*
X0053171Y0012808D03*
X0055775Y0012684D03*
X0052923Y0016590D03*
X0052923Y0018140D03*
X0057697Y0018078D03*
X0040027Y0018140D03*
X0040027Y0016590D03*
D681*
X0043065Y0016156D03*
X0044491Y0013118D03*
X0044491Y0013056D03*
X0051373Y0013242D03*
X0051931Y0013118D03*
X0051931Y0013056D03*
X0051993Y0013242D03*
X0051993Y0013304D03*
X0051993Y0013366D03*
X0052055Y0013428D03*
X0052055Y0013552D03*
X0052117Y0013676D03*
X0052117Y0013738D03*
X0052179Y0013862D03*
X0052179Y0013924D03*
X0052613Y0013924D03*
X0052675Y0013862D03*
X0052675Y0013738D03*
X0052799Y0013428D03*
X0052799Y0013366D03*
X0052923Y0013056D03*
X0052923Y0012994D03*
X0053419Y0013118D03*
X0053481Y0013304D03*
X0053543Y0013552D03*
X0052427Y0014606D03*
X0054101Y0021488D03*
X0048459Y0021488D03*
X0059991Y0012746D03*
D682*
X0055899Y0012808D03*
X0055899Y0012932D03*
X0055899Y0013676D03*
X0054473Y0012808D03*
X0051125Y0014048D03*
X0052675Y0016838D03*
X0052675Y0016900D03*
X0052675Y0017830D03*
X0048397Y0017768D03*
X0048397Y0017706D03*
X0048397Y0017644D03*
X0048397Y0017520D03*
X0048397Y0017458D03*
X0048397Y0017396D03*
X0048397Y0017334D03*
X0048397Y0017210D03*
X0048397Y0017148D03*
X0048397Y0017086D03*
X0048397Y0017024D03*
X0048397Y0016900D03*
X0048397Y0016838D03*
X0048397Y0016776D03*
X0048397Y0016714D03*
X0048397Y0016590D03*
X0048397Y0016528D03*
X0048397Y0016466D03*
X0048397Y0016404D03*
X0048397Y0016280D03*
X0048397Y0016218D03*
X0043623Y0017024D03*
X0043623Y0017086D03*
X0043623Y0017644D03*
X0043623Y0017706D03*
X0043623Y0017768D03*
X0043623Y0013986D03*
X0043623Y0013924D03*
X0043623Y0013862D03*
X0057573Y0016218D03*
X0057573Y0016280D03*
X0057573Y0016404D03*
X0057573Y0016466D03*
X0057573Y0016528D03*
X0057573Y0016590D03*
X0057573Y0016714D03*
X0057573Y0016776D03*
X0057573Y0016838D03*
X0057573Y0016900D03*
X0057573Y0017024D03*
X0057573Y0017086D03*
X0057573Y0017148D03*
X0057573Y0017210D03*
X0057573Y0017334D03*
X0057573Y0017396D03*
X0057573Y0017458D03*
X0057573Y0017520D03*
X0057573Y0017644D03*
X0057573Y0017706D03*
X0057573Y0017768D03*
X0057573Y0017830D03*
X0057573Y0018326D03*
X0057573Y0018388D03*
X0057573Y0018450D03*
X0057573Y0018512D03*
X0059247Y0017830D03*
X0059247Y0017768D03*
X0059247Y0016900D03*
D683*
X0060549Y0016714D03*
X0060549Y0018016D03*
X0059991Y0012808D03*
X0054039Y0021426D03*
X0048521Y0021426D03*
X0048025Y0014234D03*
X0044739Y0014234D03*
D684*
X0044553Y0017892D03*
X0042197Y0017892D03*
X0041205Y0017892D03*
X0039779Y0017892D03*
X0039717Y0017272D03*
X0046971Y0017892D03*
X0048335Y0017892D03*
X0050381Y0016652D03*
X0051001Y0014482D03*
X0050133Y0013180D03*
X0048769Y0012870D03*
X0048769Y0014110D03*
X0052613Y0017272D03*
X0054101Y0017892D03*
X0058751Y0014110D03*
X0058751Y0012870D03*
X0060053Y0014110D03*
X0059185Y0017272D03*
X0059309Y0017892D03*
X0062781Y0017892D03*
X0062843Y0017582D03*
D685*
X0053140Y0012870D03*
X0051652Y0012870D03*
D686*
X0054473Y0013180D03*
X0055899Y0012870D03*
X0055899Y0014110D03*
X0057573Y0016342D03*
X0057573Y0016652D03*
X0057573Y0017272D03*
X0057573Y0017582D03*
X0052675Y0017892D03*
X0048397Y0017582D03*
X0048397Y0017272D03*
X0048397Y0016652D03*
X0048397Y0016342D03*
D687*
X0048552Y0021364D03*
X0060022Y0012870D03*
D688*
X0052861Y0013242D03*
X0052737Y0013552D03*
X0052737Y0013614D03*
X0052737Y0013676D03*
X0051435Y0013056D03*
X0051435Y0012994D03*
X0051311Y0013428D03*
D689*
X0051373Y0013180D03*
X0051931Y0013180D03*
X0052055Y0013490D03*
X0062657Y0016652D03*
D690*
X0052861Y0013180D03*
D691*
X0055248Y0013366D03*
D692*
X0051032Y0016528D03*
X0059402Y0013614D03*
X0059402Y0013552D03*
X0059402Y0013428D03*
X0059402Y0013366D03*
D693*
X0045328Y0013490D03*
D694*
X0051125Y0018264D03*
X0055279Y0013490D03*
D695*
X0059402Y0013490D03*
D696*
X0059433Y0014296D03*
X0062161Y0016466D03*
X0055341Y0013552D03*
X0045359Y0013552D03*
X0045235Y0014420D03*
X0040461Y0016528D03*
X0040461Y0018202D03*
D697*
X0041236Y0016962D03*
X0042166Y0015412D03*
X0042166Y0013800D03*
X0046940Y0016962D03*
X0050164Y0015412D03*
X0051838Y0016962D03*
X0053388Y0018574D03*
X0054132Y0016962D03*
X0053636Y0013800D03*
X0056984Y0013800D03*
X0058658Y0013800D03*
D698*
X0059247Y0016962D03*
X0057573Y0016962D03*
X0051125Y0018574D03*
X0048397Y0016962D03*
X0043623Y0016962D03*
X0043623Y0013800D03*
D699*
X0045948Y0013800D03*
X0047002Y0013800D03*
X0044522Y0016962D03*
X0040492Y0018574D03*
X0039748Y0016962D03*
X0051218Y0013800D03*
X0052644Y0016962D03*
X0055930Y0013800D03*
X0060146Y0013800D03*
X0061324Y0016962D03*
X0062068Y0018574D03*
X0060022Y0018574D03*
D700*
X0056519Y0016962D03*
X0055093Y0016962D03*
X0050133Y0013800D03*
X0048707Y0013800D03*
X0045235Y0018574D03*
X0042197Y0016962D03*
D701*
X0043065Y0018574D03*
X0047777Y0018574D03*
X0052117Y0013800D03*
X0052675Y0013800D03*
X0058441Y0018574D03*
D702*
X0053822Y0018140D03*
X0053822Y0016590D03*
X0052396Y0013986D03*
X0042352Y0014234D03*
X0040926Y0016590D03*
X0040926Y0018140D03*
X0056798Y0034880D03*
D703*
X0056829Y0034942D03*
X0045731Y0034942D03*
X0045731Y0020744D03*
X0044677Y0016652D03*
X0043499Y0016652D03*
X0041081Y0016652D03*
X0039903Y0016652D03*
X0050071Y0014110D03*
X0052799Y0016652D03*
X0053977Y0016652D03*
X0055217Y0016652D03*
X0056829Y0020744D03*
D704*
X0056426Y0016652D03*
X0052396Y0014110D03*
D705*
X0048862Y0014234D03*
X0047064Y0018078D03*
X0047808Y0018512D03*
X0045762Y0018140D03*
X0042290Y0018078D03*
X0042290Y0014172D03*
D706*
X0044739Y0014172D03*
X0051683Y0018016D03*
X0054659Y0014172D03*
X0058627Y0018078D03*
X0060549Y0017954D03*
X0060549Y0016776D03*
D707*
X0048056Y0014172D03*
D708*
X0054690Y0014234D03*
X0055682Y0016156D03*
X0058534Y0018140D03*
X0056860Y0020620D03*
X0056860Y0035066D03*
D709*
X0045700Y0035128D03*
X0045700Y0020558D03*
X0045824Y0016714D03*
X0050350Y0016776D03*
X0057976Y0014234D03*
D710*
X0055279Y0014296D03*
X0055217Y0014358D03*
X0055217Y0014420D03*
X0060053Y0016466D03*
X0062099Y0018202D03*
X0051125Y0018326D03*
X0045297Y0016466D03*
X0045297Y0014296D03*
D711*
X0047498Y0014296D03*
X0047498Y0014358D03*
X0051032Y0017458D03*
X0053388Y0018326D03*
X0053388Y0016404D03*
X0057480Y0014358D03*
X0059402Y0014420D03*
X0058038Y0018202D03*
X0040492Y0018326D03*
X0040492Y0016404D03*
D712*
X0055217Y0014544D03*
X0057449Y0014296D03*
X0062099Y0018326D03*
D713*
X0062161Y0016404D03*
X0059433Y0014358D03*
X0057511Y0014420D03*
X0051187Y0017334D03*
D714*
X0049513Y0014420D03*
X0042817Y0014420D03*
X0042817Y0016404D03*
X0042817Y0016466D03*
X0042817Y0018326D03*
D715*
X0043065Y0016342D03*
X0043065Y0014482D03*
X0049265Y0014482D03*
D716*
X0051063Y0016342D03*
X0055217Y0014482D03*
X0045235Y0014482D03*
X0045235Y0018264D03*
D717*
X0047839Y0014482D03*
D718*
X0057790Y0014482D03*
D719*
X0059402Y0014482D03*
X0053388Y0016342D03*
X0040492Y0016342D03*
D720*
X0045235Y0014544D03*
X0045235Y0018326D03*
X0050939Y0017520D03*
D721*
X0051125Y0018512D03*
X0047901Y0014544D03*
X0057821Y0014544D03*
D722*
X0055186Y0014606D03*
D723*
X0055682Y0016280D03*
X0057790Y0018140D03*
X0058472Y0018450D03*
X0056798Y0020868D03*
X0054256Y0021736D03*
X0048304Y0021736D03*
X0047808Y0018450D03*
X0045328Y0016218D03*
X0043034Y0018450D03*
X0059402Y0014606D03*
X0062130Y0016218D03*
X0056798Y0034818D03*
D724*
X0045700Y0035066D03*
X0045700Y0020620D03*
X0050350Y0016714D03*
X0051652Y0018078D03*
X0052396Y0014668D03*
D725*
X0056333Y0016590D03*
X0059557Y0016590D03*
X0059557Y0018140D03*
X0043065Y0016280D03*
X0040461Y0016218D03*
X0040461Y0018512D03*
D726*
X0045235Y0018388D03*
X0045793Y0020992D03*
X0051063Y0016280D03*
X0056767Y0020992D03*
X0056767Y0034694D03*
X0045793Y0034694D03*
D727*
X0045793Y0034632D03*
X0056767Y0034632D03*
X0056767Y0021054D03*
X0051249Y0017272D03*
X0045793Y0021054D03*
X0045297Y0016342D03*
D728*
X0050753Y0017582D03*
X0055651Y0016342D03*
D729*
X0060022Y0016342D03*
D730*
X0062161Y0016342D03*
D731*
X0056736Y0021116D03*
X0053388Y0018202D03*
X0053388Y0016528D03*
X0053388Y0016466D03*
X0045824Y0021116D03*
X0045266Y0018202D03*
X0040492Y0016466D03*
X0045824Y0034570D03*
X0056736Y0034570D03*
D732*
X0044739Y0018140D03*
X0044739Y0016590D03*
X0057635Y0018016D03*
X0059433Y0018078D03*
D733*
X0042290Y0016652D03*
D734*
X0045824Y0016652D03*
D735*
X0059433Y0016652D03*
D736*
X0062688Y0016714D03*
X0056860Y0020558D03*
X0056860Y0035128D03*
D737*
X0050350Y0016838D03*
D738*
X0045235Y0017210D03*
X0045235Y0017334D03*
X0045235Y0017396D03*
X0045235Y0017458D03*
X0045235Y0017520D03*
D739*
X0051125Y0018450D03*
X0051373Y0017210D03*
X0062099Y0018388D03*
D740*
X0062099Y0017520D03*
X0062099Y0017458D03*
X0062099Y0017396D03*
X0062099Y0017334D03*
X0062099Y0017210D03*
X0056705Y0021302D03*
X0045855Y0021302D03*
X0045855Y0034384D03*
X0056705Y0034384D03*
D741*
X0045235Y0017272D03*
D742*
X0062099Y0017272D03*
D743*
X0053388Y0018264D03*
X0040492Y0018264D03*
D744*
X0058069Y0018264D03*
X0062099Y0018264D03*
D745*
X0060022Y0018388D03*
D746*
X0045762Y0020868D03*
X0045762Y0034818D03*
D747*
X0056798Y0020930D03*
D748*
X0045886Y0021364D03*
D749*
X0054008Y0021364D03*
D750*
X0056674Y0021364D03*
D751*
X0045886Y0021426D03*
X0045886Y0034260D03*
D752*
X0056674Y0034260D03*
X0056674Y0021426D03*
D753*
X0045886Y0021488D03*
D754*
X0056643Y0021488D03*
X0056643Y0034198D03*
X0045917Y0034198D03*
D755*
X0045917Y0034136D03*
X0056643Y0034136D03*
X0056643Y0021550D03*
X0045917Y0021550D03*
D756*
X0045917Y0021612D03*
X0056643Y0021612D03*
D757*
X0045948Y0021674D03*
X0051280Y0035872D03*
D758*
X0048304Y0021674D03*
X0054256Y0021674D03*
D759*
X0056612Y0021674D03*
D760*
X0045948Y0021736D03*
D761*
X0056612Y0021736D03*
X0051280Y0035376D03*
X0051280Y0035438D03*
X0051280Y0035500D03*
X0051280Y0035624D03*
D762*
X0055992Y0021798D03*
X0046568Y0021798D03*
D763*
X0046568Y0021860D03*
X0047498Y0024154D03*
X0055062Y0024154D03*
X0055124Y0024030D03*
X0055992Y0021860D03*
X0051280Y0034260D03*
D764*
X0055031Y0024340D03*
X0055031Y0024278D03*
X0055155Y0023968D03*
X0047467Y0024092D03*
X0047405Y0023968D03*
X0046537Y0021922D03*
D765*
X0047529Y0024278D03*
X0047529Y0024340D03*
X0055093Y0024092D03*
X0056023Y0021922D03*
D766*
X0046537Y0021984D03*
D767*
X0056023Y0021984D03*
D768*
X0056054Y0022046D03*
X0055620Y0023162D03*
X0055558Y0023224D03*
X0055496Y0023348D03*
X0047064Y0023348D03*
X0047002Y0023224D03*
X0046940Y0023162D03*
X0046506Y0022046D03*
X0051280Y0034198D03*
D769*
X0055527Y0029672D03*
X0055651Y0023100D03*
X0055651Y0023038D03*
X0047529Y0024588D03*
X0047529Y0024650D03*
X0046971Y0026076D03*
X0046971Y0029610D03*
X0046475Y0022108D03*
D770*
X0046909Y0023038D03*
X0046909Y0023100D03*
X0047033Y0029672D03*
X0055589Y0029610D03*
X0055589Y0026076D03*
X0055031Y0024650D03*
X0055031Y0024588D03*
X0056085Y0022108D03*
D771*
X0056023Y0022418D03*
X0055899Y0022604D03*
X0055775Y0026200D03*
X0055403Y0029796D03*
X0047095Y0025890D03*
X0047529Y0024774D03*
X0046723Y0022728D03*
X0046599Y0022542D03*
X0046475Y0022232D03*
X0046475Y0022170D03*
D772*
X0046537Y0022418D03*
X0046661Y0022604D03*
X0046785Y0026200D03*
X0047157Y0029796D03*
X0055465Y0025890D03*
X0055031Y0024774D03*
X0055837Y0022728D03*
X0055961Y0022542D03*
X0056085Y0022232D03*
X0056085Y0022170D03*
D773*
X0056054Y0022294D03*
X0055992Y0022480D03*
X0055434Y0025828D03*
X0047126Y0025828D03*
X0046568Y0022480D03*
X0046506Y0022294D03*
X0047250Y0029920D03*
D774*
X0047188Y0029858D03*
X0046506Y0022356D03*
X0056054Y0022356D03*
X0055372Y0029858D03*
D775*
X0046661Y0022666D03*
D776*
X0055899Y0022666D03*
D777*
X0055806Y0022790D03*
X0055806Y0022852D03*
X0055744Y0022914D03*
X0055000Y0024712D03*
X0055496Y0025952D03*
X0055558Y0026014D03*
X0055496Y0029734D03*
X0047064Y0029734D03*
X0047002Y0026014D03*
X0047064Y0025952D03*
X0047560Y0024712D03*
X0046816Y0022914D03*
X0046754Y0022852D03*
X0046754Y0022790D03*
D778*
X0046847Y0022976D03*
X0055651Y0026138D03*
D779*
X0055713Y0022976D03*
X0046909Y0026138D03*
D780*
X0047002Y0023286D03*
X0055558Y0023286D03*
D781*
X0055403Y0023534D03*
X0047529Y0024464D03*
X0047219Y0023658D03*
X0047095Y0023472D03*
X0047095Y0023410D03*
D782*
X0047157Y0023534D03*
X0055031Y0024464D03*
X0055341Y0023658D03*
X0055465Y0023472D03*
X0055465Y0023410D03*
D783*
X0055372Y0023596D03*
X0047188Y0023596D03*
D784*
X0047250Y0023720D03*
X0047312Y0023782D03*
X0047312Y0023844D03*
X0047560Y0024402D03*
X0055000Y0024402D03*
X0055310Y0023720D03*
D785*
X0055248Y0023782D03*
X0055248Y0023844D03*
D786*
X0055217Y0023906D03*
X0047343Y0023906D03*
D787*
X0047436Y0024030D03*
D788*
X0047498Y0024216D03*
X0055062Y0024216D03*
D789*
X0055000Y0024526D03*
X0047560Y0024526D03*
D790*
X0047560Y0024836D03*
X0055000Y0024836D03*
D791*
X0055775Y0029486D03*
X0055279Y0029982D03*
X0047281Y0029982D03*
X0047529Y0024960D03*
X0047529Y0024898D03*
D792*
X0046785Y0029486D03*
X0055031Y0024960D03*
X0055031Y0024898D03*
D793*
X0055000Y0025022D03*
X0055310Y0025704D03*
X0055186Y0030044D03*
X0051280Y0034136D03*
X0047312Y0025642D03*
X0047560Y0025022D03*
D794*
X0047529Y0025084D03*
X0055031Y0025084D03*
D795*
X0047560Y0025146D03*
D796*
X0055000Y0025146D03*
D797*
X0055031Y0025208D03*
X0055155Y0025518D03*
X0047529Y0025208D03*
X0047405Y0025518D03*
X0046599Y0029424D03*
D798*
X0047560Y0025332D03*
X0047560Y0025270D03*
X0055062Y0030168D03*
X0051280Y0034074D03*
D799*
X0047498Y0030168D03*
X0055000Y0025332D03*
X0055000Y0025270D03*
D800*
X0055031Y0025394D03*
X0047529Y0025394D03*
D801*
X0047498Y0025456D03*
D802*
X0055062Y0025456D03*
D803*
X0055992Y0026262D03*
X0055124Y0030106D03*
X0047374Y0025580D03*
D804*
X0047436Y0030106D03*
X0055186Y0025580D03*
D805*
X0055248Y0025642D03*
X0047250Y0025704D03*
X0047374Y0030044D03*
D806*
X0047219Y0025766D03*
X0055341Y0025766D03*
D807*
X0046599Y0026262D03*
D808*
X0046413Y0026324D03*
X0046413Y0029362D03*
D809*
X0056147Y0029362D03*
X0056147Y0026324D03*
D810*
X0056333Y0026386D03*
X0046227Y0026386D03*
D811*
X0046010Y0026448D03*
D812*
X0056550Y0026448D03*
D813*
X0056705Y0026510D03*
X0045855Y0026510D03*
D814*
X0045669Y0026572D03*
X0045483Y0026944D03*
X0045483Y0027006D03*
X0045483Y0028556D03*
X0045483Y0028680D03*
X0057077Y0028680D03*
X0057077Y0028556D03*
X0057077Y0027006D03*
X0057077Y0026944D03*
X0056891Y0026572D03*
D815*
X0045576Y0026634D03*
X0045576Y0029052D03*
D816*
X0056984Y0029052D03*
X0056984Y0026634D03*
D817*
X0057015Y0026696D03*
X0057015Y0028990D03*
X0045545Y0028990D03*
X0045545Y0026696D03*
D818*
X0045545Y0026758D03*
X0045545Y0028928D03*
X0057015Y0028928D03*
X0057015Y0026758D03*
D819*
X0045638Y0029114D03*
X0045514Y0028866D03*
X0045514Y0028804D03*
X0045514Y0028742D03*
X0045514Y0026882D03*
X0045514Y0026820D03*
D820*
X0057046Y0026820D03*
X0057046Y0026882D03*
X0057046Y0028742D03*
X0057046Y0028804D03*
X0057046Y0028866D03*
X0056922Y0029114D03*
D821*
X0057077Y0028618D03*
X0057077Y0027068D03*
X0045483Y0027068D03*
X0045483Y0028618D03*
D822*
X0045452Y0028494D03*
X0045452Y0028432D03*
X0045452Y0028370D03*
X0045452Y0027316D03*
X0045452Y0027254D03*
X0045452Y0027192D03*
X0045452Y0027130D03*
X0051280Y0033826D03*
D823*
X0057108Y0028494D03*
X0057108Y0028432D03*
X0057108Y0028370D03*
X0057108Y0027316D03*
X0057108Y0027254D03*
X0057108Y0027192D03*
X0057108Y0027130D03*
D824*
X0057139Y0027378D03*
X0057139Y0027688D03*
X0045421Y0027688D03*
X0045421Y0027378D03*
X0045421Y0028308D03*
D825*
X0045421Y0028246D03*
X0045421Y0028184D03*
X0045421Y0028122D03*
X0045421Y0028060D03*
X0045421Y0027936D03*
X0045421Y0027874D03*
X0045421Y0027812D03*
X0045421Y0027750D03*
X0045421Y0027626D03*
X0045421Y0027564D03*
X0045421Y0027502D03*
X0045421Y0027440D03*
X0057139Y0027440D03*
X0057139Y0027502D03*
X0057139Y0027564D03*
X0057139Y0027626D03*
X0057139Y0027750D03*
X0057139Y0027812D03*
X0057139Y0027874D03*
X0057139Y0027936D03*
X0057139Y0028060D03*
X0057139Y0028122D03*
X0057139Y0028184D03*
X0057139Y0028246D03*
D826*
X0057139Y0027998D03*
X0045421Y0027998D03*
D827*
X0057108Y0028308D03*
D828*
X0045824Y0029176D03*
D829*
X0056736Y0029176D03*
D830*
X0056519Y0029238D03*
X0046041Y0029238D03*
D831*
X0046196Y0029300D03*
D832*
X0056364Y0029300D03*
D833*
X0055961Y0029424D03*
D834*
X0046909Y0029548D03*
D835*
X0055651Y0029548D03*
D836*
X0055310Y0029920D03*
D837*
X0054969Y0030230D03*
X0047591Y0030230D03*
D838*
X0047684Y0030292D03*
D839*
X0054876Y0030292D03*
D840*
X0047808Y0030354D03*
D841*
X0054752Y0030354D03*
D842*
X0054473Y0030416D03*
X0048087Y0030416D03*
D843*
X0051280Y0030478D03*
X0051280Y0030602D03*
X0051280Y0031904D03*
D844*
X0051280Y0030540D03*
D845*
X0051280Y0030664D03*
X0051280Y0030726D03*
X0051280Y0031842D03*
D846*
X0051280Y0031718D03*
X0051280Y0030788D03*
D847*
X0051280Y0030850D03*
D848*
X0051280Y0030912D03*
X0051280Y0030974D03*
X0051280Y0031036D03*
X0051280Y0031594D03*
X0051280Y0031656D03*
D849*
X0051280Y0031532D03*
X0051280Y0031098D03*
D850*
X0051280Y0031160D03*
D851*
X0051280Y0031222D03*
X0051280Y0031284D03*
X0051280Y0031346D03*
X0051280Y0031408D03*
D852*
X0051280Y0031470D03*
D853*
X0051280Y0031780D03*
D854*
X0051280Y0031966D03*
D855*
X0051311Y0032028D03*
D856*
X0051280Y0032090D03*
D857*
X0051280Y0032152D03*
D858*
X0051280Y0032214D03*
X0051280Y0032276D03*
D859*
X0051280Y0032338D03*
D860*
X0051280Y0032400D03*
D861*
X0051280Y0032462D03*
D862*
X0051280Y0032524D03*
D863*
X0051280Y0032586D03*
X0051280Y0032648D03*
D864*
X0051280Y0032710D03*
D865*
X0051280Y0032772D03*
X0051280Y0032834D03*
D866*
X0051280Y0032896D03*
D867*
X0051280Y0032958D03*
X0051280Y0033764D03*
D868*
X0051280Y0033020D03*
D869*
X0051280Y0033082D03*
X0051280Y0033702D03*
D870*
X0051280Y0033144D03*
D871*
X0051280Y0033206D03*
X0051280Y0033268D03*
X0051280Y0033578D03*
D872*
X0051280Y0033330D03*
D873*
X0051280Y0033392D03*
X0051280Y0033454D03*
X0051280Y0033516D03*
D874*
X0051280Y0033640D03*
D875*
X0045979Y0033826D03*
X0056581Y0033826D03*
D876*
X0056581Y0033888D03*
X0045979Y0033888D03*
D877*
X0051280Y0033888D03*
D878*
X0045979Y0033950D03*
X0056581Y0033950D03*
D879*
X0051280Y0033950D03*
D880*
X0045948Y0034012D03*
D881*
X0051280Y0034012D03*
D882*
X0056612Y0034012D03*
D883*
X0045948Y0034074D03*
D884*
X0051280Y0036058D03*
X0051280Y0036120D03*
X0051280Y0036244D03*
X0051280Y0036306D03*
X0056612Y0034074D03*
D885*
X0045886Y0034322D03*
D886*
X0051280Y0034322D03*
D887*
X0056674Y0034322D03*
D888*
X0051280Y0034384D03*
D889*
X0051280Y0034446D03*
D890*
X0051280Y0034508D03*
X0051280Y0034570D03*
D891*
X0051280Y0034632D03*
D892*
X0051280Y0034694D03*
X0051280Y0034756D03*
X0051280Y0034818D03*
X0051280Y0034880D03*
X0051280Y0035004D03*
D893*
X0051280Y0034942D03*
D894*
X0051280Y0035066D03*
X0051280Y0035128D03*
X0051280Y0035190D03*
X0051280Y0035314D03*
D895*
X0051280Y0035252D03*
D896*
X0051280Y0035562D03*
D897*
X0051280Y0035686D03*
X0051280Y0035748D03*
X0051280Y0035810D03*
X0051280Y0035934D03*
X0051280Y0035996D03*
D898*
X0051280Y0036182D03*
D899*
X0051280Y0036368D03*
X0051280Y0036430D03*
X0051280Y0036554D03*
X0051280Y0036616D03*
D900*
X0051280Y0036492D03*
D901*
X0051280Y0036678D03*
X0051280Y0036740D03*
X0051280Y0036864D03*
X0051280Y0036926D03*
D902*
X0051280Y0036802D03*
D903*
X0051280Y0036988D03*
M02*
