G75*
%MOIN*%
%OFA0B0*%
%FSLAX25Y25*%
%IPPOS*%
%LPD*%
%AMOC8*
5,1,8,0,0,1.08239X$1,22.5*
%
%ADD10R,0.07887X0.07099*%
%ADD11R,0.07099X0.07898*%
%ADD12R,0.05524X0.06312*%
%ADD13R,0.07898X0.07099*%
%ADD14C,0.04737*%
%ADD15R,0.07099X0.07887*%
%ADD16R,0.06312X0.06312*%
%ADD17R,0.06312X0.07099*%
%ADD18R,0.06706X0.02178*%
%ADD19R,0.02178X0.06706*%
%ADD20R,0.13005X0.02769*%
%ADD21R,0.10643X0.08674*%
%ADD22R,0.13792X0.08674*%
%ADD23C,0.04343*%
%ADD24C,0.08200*%
%ADD25R,0.08200X0.08200*%
%ADD26OC8,0.08200*%
%ADD27R,0.04737X0.08674*%
%ADD28C,0.13800*%
%ADD29R,0.14580X0.05524*%
D10*
X0084000Y0058988D03*
X0095500Y0059238D03*
X0106500Y0059238D03*
X0106500Y0070262D03*
X0095500Y0070262D03*
X0084000Y0070012D03*
X0148750Y0070762D03*
X0148750Y0059738D03*
X0164000Y0059738D03*
X0164000Y0070762D03*
X0171000Y0096238D03*
X0171000Y0107262D03*
X0183000Y0107262D03*
X0183000Y0096238D03*
X0110000Y0134238D03*
X0110000Y0145262D03*
X0081500Y0154238D03*
X0081500Y0165262D03*
D11*
X0069098Y0165250D03*
X0057902Y0165250D03*
X0057902Y0153250D03*
X0069098Y0153250D03*
X0069902Y0116250D03*
X0081098Y0116250D03*
X0027098Y0112250D03*
X0015902Y0112250D03*
D12*
X0043594Y0116250D03*
X0055406Y0116250D03*
D13*
X0095500Y0102348D03*
X0095500Y0091152D03*
X0179500Y0071474D03*
X0179500Y0060277D03*
D14*
X0009500Y0022250D03*
X0199500Y0172250D03*
D15*
X0170012Y0162250D03*
X0158988Y0162250D03*
X0150012Y0162250D03*
X0138988Y0162250D03*
X0161988Y0135500D03*
X0173012Y0135500D03*
X0193988Y0091250D03*
X0205012Y0091250D03*
X0069512Y0142250D03*
X0056488Y0142250D03*
X0027012Y0122750D03*
X0015988Y0122750D03*
D16*
X0081000Y0127770D03*
X0081000Y0142730D03*
D17*
X0069512Y0129250D03*
X0058488Y0129250D03*
D18*
X0111665Y0122998D03*
X0111665Y0119848D03*
X0111665Y0116699D03*
X0111665Y0113549D03*
X0111665Y0110400D03*
X0111665Y0107250D03*
X0111665Y0104100D03*
X0111665Y0100951D03*
X0111665Y0097801D03*
X0111665Y0094652D03*
X0111665Y0091502D03*
X0157335Y0091502D03*
X0157335Y0094652D03*
X0157335Y0097801D03*
X0157335Y0100951D03*
X0157335Y0104100D03*
X0157335Y0107250D03*
X0157335Y0110400D03*
X0157335Y0113549D03*
X0157335Y0116699D03*
X0157335Y0119848D03*
X0157335Y0122998D03*
D19*
X0150248Y0130085D03*
X0147098Y0130085D03*
X0143949Y0130085D03*
X0140799Y0130085D03*
X0137650Y0130085D03*
X0134500Y0130085D03*
X0131350Y0130085D03*
X0128201Y0130085D03*
X0125051Y0130085D03*
X0121902Y0130085D03*
X0118752Y0130085D03*
X0118752Y0084415D03*
X0121902Y0084415D03*
X0125051Y0084415D03*
X0128201Y0084415D03*
X0131350Y0084415D03*
X0134500Y0084415D03*
X0137650Y0084415D03*
X0140799Y0084415D03*
X0143949Y0084415D03*
X0147098Y0084415D03*
X0150248Y0084415D03*
D20*
X0036311Y0145951D03*
X0036311Y0149100D03*
X0036311Y0152250D03*
X0036311Y0155400D03*
X0036311Y0158549D03*
D21*
X0012689Y0169770D03*
X0012689Y0134730D03*
D22*
X0035917Y0134730D03*
X0035917Y0169770D03*
D23*
X0024500Y0160911D03*
X0024500Y0143589D03*
D24*
X0024500Y0192250D03*
X0034500Y0192250D03*
X0044500Y0192250D03*
X0054500Y0192250D03*
X0064500Y0192250D03*
X0074500Y0192250D03*
X0084500Y0192250D03*
X0094500Y0192250D03*
X0104500Y0192250D03*
X0108000Y0202250D03*
X0098000Y0202250D03*
X0088000Y0202250D03*
X0078000Y0202250D03*
X0068000Y0202250D03*
X0058000Y0202250D03*
X0048000Y0202250D03*
X0038000Y0202250D03*
X0028000Y0202250D03*
X0018000Y0202250D03*
X0014500Y0192250D03*
X0014500Y0087250D03*
X0014500Y0077250D03*
X0014500Y0067250D03*
X0014500Y0057250D03*
X0014500Y0047250D03*
X0014500Y0037250D03*
X0074500Y0012250D03*
X0084500Y0012250D03*
X0094500Y0012250D03*
X0104500Y0012250D03*
X0114500Y0012250D03*
X0124500Y0012250D03*
X0144500Y0012250D03*
X0154500Y0012250D03*
X0164500Y0012250D03*
X0174500Y0012250D03*
X0184500Y0012250D03*
X0194500Y0012250D03*
X0184500Y0202250D03*
X0174500Y0202250D03*
X0164500Y0202250D03*
X0154500Y0202250D03*
X0144500Y0202250D03*
X0134500Y0202250D03*
X0124500Y0202250D03*
D25*
X0194500Y0202250D03*
D26*
X0194500Y0122250D03*
X0194500Y0112250D03*
X0194500Y0102250D03*
X0204500Y0102250D03*
X0204500Y0112250D03*
X0204500Y0122250D03*
D27*
X0209000Y0079250D03*
X0194000Y0079250D03*
X0194000Y0059250D03*
X0209000Y0059250D03*
D28*
X0204500Y0032250D03*
X0204500Y0147250D03*
X0024500Y0012250D03*
D29*
X0143075Y0148750D03*
X0164925Y0148750D03*
M02*
